<svg xmlns="http://www.w3.org/2000/svg" version="1.1" style="font-family:Lato, &#x27;Helvetica Neue&#x27;, Helvetica, Arial, sans-serif;font-size:18px;background-color:white;text-rendering:optimizeLegibility;-webkit-font-smoothing:antialiased" width="850" height="600"><g class="HeaderView"><g transform="translate(774, 15) scale(0.29)"><svg width="210" height="120" viewBox="0 0 210 120" fill="none" xmlns="http://www.w3.org/2000/svg">
    <g clip-path="url(#clip0)">
        <path d="M0 0H210V107.89H0V0Z" fill="#002147"/>
        <path d="M40.9788 32.248C40.9788 34.6093 40.6048 36.78 39.8568 38.76C39.1088 40.7253 38.0528 42.4193 36.6888 43.842C35.3248 45.2647 33.6821 46.372 31.7608 47.164C29.8541 47.9413 27.7421 48.33 25.4248 48.33C23.1074 48.33 20.9954 47.9413 19.0888 47.164C17.1821 46.372 15.5468 45.2647 14.1828 43.842C12.8188 42.4193 11.7628 40.7253 11.0148 38.76C10.2668 36.78 9.89277 34.6093 9.89277 32.248C9.89277 29.8867 10.2668 27.7233 11.0148 25.758C11.7628 23.778 12.8188 22.0767 14.1828 20.654C15.5468 19.2167 17.1821 18.102 19.0888 17.31C20.9954 16.518 23.1074 16.122 25.4248 16.122C27.7421 16.122 29.8541 16.518 31.7608 17.31C33.6821 18.102 35.3248 19.2167 36.6888 20.654C38.0528 22.0767 39.1088 23.778 39.8568 25.758C40.6048 27.7233 40.9788 29.8867 40.9788 32.248ZM36.6008 32.248C36.6008 30.312 36.3368 28.574 35.8088 27.034C35.2808 25.494 34.5328 24.196 33.5648 23.14C32.5968 22.0693 31.4234 21.248 30.0448 20.676C28.6661 20.104 27.1261 19.818 25.4248 19.818C23.7381 19.818 22.2054 20.104 20.8268 20.676C19.4481 21.248 18.2674 22.0693 17.2848 23.14C16.3168 24.196 15.5688 25.494 15.0408 27.034C14.5128 28.574 14.2488 30.312 14.2488 32.248C14.2488 34.184 14.5128 35.922 15.0408 37.462C15.5688 38.9873 16.3168 40.2853 17.2848 41.356C18.2674 42.412 19.4481 43.226 20.8268 43.798C22.2054 44.3553 23.7381 44.634 25.4248 44.634C27.1261 44.634 28.6661 44.3553 30.0448 43.798C31.4234 43.226 32.5968 42.412 33.5648 41.356C34.5328 40.2853 35.2808 38.9873 35.8088 37.462C36.3368 35.922 36.6008 34.184 36.6008 32.248ZM62.8234 25.714V48H60.4914C59.9341 48 59.5821 47.7287 59.4354 47.186L59.1274 44.788C58.1594 45.8587 57.0741 46.724 55.8714 47.384C54.6687 48.0293 53.2901 48.352 51.7354 48.352C50.5181 48.352 49.4401 48.154 48.5014 47.758C47.5774 47.3473 46.8001 46.7753 46.1694 46.042C45.5387 45.3087 45.0621 44.4213 44.7394 43.38C44.4314 42.3387 44.2774 41.1873 44.2774 39.926V25.714H48.1934V39.926C48.1934 41.6127 48.5747 42.918 49.3374 43.842C50.1147 44.766 51.2954 45.228 52.8794 45.228C54.0381 45.228 55.1161 44.9567 56.1134 44.414C57.1254 43.8567 58.0567 43.094 58.9074 42.126V25.714H62.8234ZM71.4305 30.18C72.1346 28.6547 72.9999 27.4667 74.0266 26.616C75.0532 25.7507 76.3072 25.318 77.7886 25.318C78.2579 25.318 78.7052 25.3693 79.1306 25.472C79.5706 25.5747 79.9592 25.736 80.2966 25.956L80.0106 28.882C79.9226 29.2487 79.7026 29.432 79.3506 29.432C79.1452 29.432 78.8446 29.388 78.4486 29.3C78.0526 29.212 77.6052 29.168 77.1066 29.168C76.4026 29.168 75.7719 29.2707 75.2146 29.476C74.6719 29.6813 74.1806 29.9893 73.7406 30.4C73.3152 30.796 72.9266 31.2947 72.5746 31.896C72.2372 32.4827 71.9292 33.1573 71.6506 33.92V48H67.7125V25.714H69.9566C70.3819 25.714 70.6752 25.7947 70.8366 25.956C70.9979 26.1173 71.1079 26.396 71.1666 26.792L71.4305 30.18ZM132.589 16.474L122.755 48H118.927L110.941 23.954C110.867 23.7193 110.794 23.47 110.721 23.206C110.662 22.942 110.596 22.6633 110.523 22.37C110.449 22.6633 110.376 22.942 110.303 23.206C110.23 23.47 110.156 23.7193 110.083 23.954L102.053 48H98.2248L88.3908 16.474H91.9328C92.3142 16.474 92.6295 16.5693 92.8788 16.76C93.1428 16.9507 93.3115 17.1927 93.3848 17.486L99.8968 39.398C99.9995 39.794 100.095 40.2193 100.183 40.674C100.285 41.1287 100.381 41.6127 100.469 42.126C100.571 41.6127 100.674 41.1287 100.777 40.674C100.894 40.2047 101.019 39.7793 101.151 39.398L108.565 17.486C108.653 17.2367 108.821 17.0093 109.071 16.804C109.335 16.584 109.65 16.474 110.017 16.474H111.249C111.63 16.474 111.938 16.5693 112.173 16.76C112.407 16.9507 112.583 17.1927 112.701 17.486L120.093 39.398C120.225 39.7793 120.342 40.19 120.445 40.63C120.562 41.07 120.672 41.532 120.775 42.016C120.848 41.532 120.929 41.07 121.017 40.63C121.105 40.19 121.2 39.7793 121.303 39.398L127.837 17.486C127.91 17.222 128.072 16.9873 128.321 16.782C128.585 16.5767 128.9 16.474 129.267 16.474H132.589ZM141.94 25.362C143.568 25.362 145.034 25.6333 146.34 26.176C147.645 26.7187 148.76 27.4887 149.684 28.486C150.608 29.4833 151.312 30.6933 151.796 32.116C152.294 33.524 152.544 35.1007 152.544 36.846C152.544 38.606 152.294 40.19 151.796 41.598C151.312 43.006 150.608 44.2087 149.684 45.206C148.76 46.2033 147.645 46.9733 146.34 47.516C145.034 48.044 143.568 48.308 141.94 48.308C140.297 48.308 138.816 48.044 137.496 47.516C136.19 46.9733 135.076 46.2033 134.152 45.206C133.228 44.2087 132.516 43.006 132.018 41.598C131.534 40.19 131.292 38.606 131.292 36.846C131.292 35.1007 131.534 33.524 132.018 32.116C132.516 30.6933 133.228 29.4833 134.152 28.486C135.076 27.4887 136.19 26.7187 137.496 26.176C138.816 25.6333 140.297 25.362 141.94 25.362ZM141.94 45.25C144.14 45.25 145.782 44.5167 146.868 43.05C147.953 41.5687 148.496 39.508 148.496 36.868C148.496 34.2133 147.953 32.1453 146.868 30.664C145.782 29.1827 144.14 28.442 141.94 28.442C140.825 28.442 139.85 28.6327 139.014 29.014C138.192 29.3953 137.503 29.9453 136.946 30.664C136.403 31.3827 135.992 32.27 135.714 33.326C135.45 34.3673 135.318 35.548 135.318 36.868C135.318 39.508 135.86 41.5687 136.946 43.05C138.046 44.5167 139.71 45.25 141.94 45.25ZM159.908 30.18C160.612 28.6547 161.478 27.4667 162.504 26.616C163.531 25.7507 164.785 25.318 166.266 25.318C166.736 25.318 167.183 25.3693 167.608 25.472C168.048 25.5747 168.437 25.736 168.774 25.956L168.488 28.882C168.4 29.2487 168.18 29.432 167.828 29.432C167.623 29.432 167.322 29.388 166.926 29.3C166.53 29.212 166.083 29.168 165.584 29.168C164.88 29.168 164.25 29.2707 163.692 29.476C163.15 29.6813 162.658 29.9893 162.218 30.4C161.793 30.796 161.404 31.2947 161.052 31.896C160.715 32.4827 160.407 33.1573 160.128 33.92V48H156.19V25.714H158.434C158.86 25.714 159.153 25.7947 159.314 25.956C159.476 26.1173 159.586 26.396 159.644 26.792L159.908 30.18ZM174.946 15.594V48H171.03V15.594H174.946ZM194.496 31.016C193.763 30.0333 192.971 29.3513 192.12 28.97C191.269 28.574 190.316 28.376 189.26 28.376C187.192 28.376 185.601 29.1167 184.486 30.598C183.371 32.0793 182.814 34.1913 182.814 36.934C182.814 38.386 182.939 39.6327 183.188 40.674C183.437 41.7007 183.804 42.5513 184.288 43.226C184.772 43.886 185.366 44.37 186.07 44.678C186.774 44.986 187.573 45.14 188.468 45.14C189.759 45.14 190.881 44.8467 191.834 44.26C192.802 43.6733 193.689 42.8447 194.496 41.774V31.016ZM198.412 15.594V48H196.08C195.523 48 195.171 47.7287 195.024 47.186L194.672 44.48C193.719 45.624 192.633 46.548 191.416 47.252C190.199 47.956 188.791 48.308 187.192 48.308C185.916 48.308 184.757 48.066 183.716 47.582C182.675 47.0833 181.787 46.3573 181.054 45.404C180.321 44.4507 179.756 43.2627 179.36 41.84C178.964 40.4173 178.766 38.782 178.766 36.934C178.766 35.2913 178.986 33.766 179.426 32.358C179.866 30.9353 180.497 29.7033 181.318 28.662C182.139 27.6207 183.144 26.8067 184.332 26.22C185.535 25.6187 186.884 25.318 188.38 25.318C189.744 25.318 190.91 25.5527 191.878 26.022C192.861 26.4767 193.733 27.1147 194.496 27.936V15.594H198.412ZM46.6139 70.714V93H42.6979V70.714H46.6139ZM47.4499 63.718C47.4499 64.0993 47.3692 64.4587 47.2079 64.796C47.0612 65.1187 46.8559 65.412 46.5919 65.676C46.3425 65.9253 46.0419 66.1233 45.6899 66.27C45.3525 66.4167 44.9932 66.49 44.6119 66.49C44.2305 66.49 43.8712 66.4167 43.5339 66.27C43.2112 66.1233 42.9252 65.9253 42.6759 65.676C42.4265 65.412 42.2285 65.1187 42.0819 64.796C41.9352 64.4587 41.8619 64.0993 41.8619 63.718C41.8619 63.3367 41.9352 62.9773 42.0819 62.64C42.2285 62.288 42.4265 61.9873 42.6759 61.738C42.9252 61.474 43.2112 61.2687 43.5339 61.122C43.8712 60.9753 44.2305 60.902 44.6119 60.902C44.9932 60.902 45.3525 60.9753 45.6899 61.122C46.0419 61.2687 46.3425 61.474 46.5919 61.738C46.8559 61.9873 47.0612 62.288 47.2079 62.64C47.3692 62.9773 47.4499 63.3367 47.4499 63.718ZM55.4242 73.948C55.9082 73.4053 56.4215 72.914 56.9642 72.474C57.5068 72.034 58.0788 71.66 58.6802 71.352C59.2962 71.0293 59.9415 70.7873 60.6162 70.626C61.3055 70.45 62.0462 70.362 62.8382 70.362C64.0555 70.362 65.1262 70.5673 66.0502 70.978C66.9888 71.374 67.7662 71.946 68.3822 72.694C69.0128 73.4273 69.4895 74.3147 69.8122 75.356C70.1348 76.3973 70.2962 77.5487 70.2962 78.81V93H66.3582V78.81C66.3582 77.1233 65.9695 75.818 65.1922 74.894C64.4295 73.9553 63.2635 73.486 61.6942 73.486C60.5355 73.486 59.4502 73.7647 58.4382 74.322C57.4408 74.8793 56.5168 75.6347 55.6662 76.588V93H51.7282V70.714H54.0822C54.6395 70.714 54.9842 70.9853 55.1162 71.528L55.4242 73.948ZM113.129 77.248C113.129 79.6093 112.755 81.758 112.007 83.694C111.259 85.63 110.203 87.2873 108.839 88.666C107.475 90.0447 105.832 91.1153 103.911 91.878C102.004 92.626 99.8925 93 97.5751 93H85.8051V61.474H97.5751C99.8925 61.474 102.004 61.8553 103.911 62.618C105.832 63.366 107.475 64.4367 108.839 65.83C110.203 67.2087 111.259 68.866 112.007 70.802C112.755 72.738 113.129 74.8867 113.129 77.248ZM108.751 77.248C108.751 75.312 108.487 73.5813 107.959 72.056C107.431 70.5307 106.683 69.24 105.715 68.184C104.747 67.128 103.574 66.3213 102.195 65.764C100.816 65.2067 99.2765 64.928 97.5751 64.928H90.0731V89.546H97.5751C99.2765 89.546 100.816 89.2673 102.195 88.71C103.574 88.1527 104.747 87.3533 105.715 86.312C106.683 85.256 107.431 83.9653 107.959 82.44C108.487 80.9147 108.751 79.184 108.751 77.248ZM128.553 82.968C126.749 83.0267 125.209 83.1733 123.933 83.408C122.672 83.628 121.638 83.9213 120.831 84.288C120.039 84.6547 119.46 85.0873 119.093 85.586C118.741 86.0847 118.565 86.642 118.565 87.258C118.565 87.8447 118.661 88.3507 118.851 88.776C119.042 89.2013 119.299 89.5533 119.621 89.832C119.959 90.096 120.347 90.294 120.787 90.426C121.242 90.5433 121.726 90.602 122.239 90.602C122.929 90.602 123.559 90.536 124.131 90.404C124.703 90.2573 125.239 90.052 125.737 89.788C126.251 89.524 126.735 89.2087 127.189 88.842C127.659 88.4753 128.113 88.0573 128.553 87.588V82.968ZM115.903 73.86C117.135 72.672 118.463 71.7847 119.885 71.198C121.308 70.6113 122.885 70.318 124.615 70.318C125.862 70.318 126.969 70.5233 127.937 70.934C128.905 71.3447 129.719 71.9167 130.379 72.65C131.039 73.3833 131.538 74.2707 131.875 75.312C132.213 76.3533 132.381 77.4973 132.381 78.744V93H130.643C130.262 93 129.969 92.9413 129.763 92.824C129.558 92.692 129.397 92.4427 129.279 92.076L128.839 89.964C128.253 90.5067 127.681 90.9907 127.123 91.416C126.566 91.8267 125.979 92.1787 125.363 92.472C124.747 92.7507 124.087 92.9633 123.383 93.11C122.694 93.2713 121.924 93.352 121.073 93.352C120.208 93.352 119.394 93.2347 118.631 93C117.869 92.7507 117.201 92.384 116.629 91.9C116.072 91.416 115.625 90.8073 115.287 90.074C114.965 89.326 114.803 88.446 114.803 87.434C114.803 86.554 115.045 85.7107 115.529 84.904C116.013 84.0827 116.798 83.3567 117.883 82.726C118.969 82.0953 120.384 81.582 122.129 81.186C123.875 80.7753 126.016 80.5407 128.553 80.482V78.744C128.553 77.0133 128.179 75.708 127.431 74.828C126.683 73.9333 125.591 73.486 124.153 73.486C123.185 73.486 122.371 73.6107 121.711 73.86C121.066 74.0947 120.501 74.366 120.017 74.674C119.548 74.9673 119.137 75.2387 118.785 75.488C118.448 75.7227 118.111 75.84 117.773 75.84C117.509 75.84 117.282 75.774 117.091 75.642C116.901 75.4953 116.739 75.3193 116.607 75.114L115.903 73.86ZM143.568 93.352C141.808 93.352 140.451 92.8607 139.498 91.878C138.559 90.8953 138.09 89.48 138.09 87.632V73.992H135.406C135.171 73.992 134.973 73.926 134.812 73.794C134.65 73.6473 134.57 73.4273 134.57 73.134V71.572L138.222 71.11L139.124 64.224C139.168 64.004 139.263 63.828 139.41 63.696C139.571 63.5493 139.776 63.476 140.026 63.476H142.006V71.154H148.452V73.992H142.006V87.368C142.006 88.3067 142.233 89.0033 142.688 89.458C143.142 89.9127 143.729 90.14 144.448 90.14C144.858 90.14 145.21 90.0887 145.504 89.986C145.812 89.8687 146.076 89.744 146.296 89.612C146.516 89.48 146.699 89.3627 146.846 89.26C147.007 89.1427 147.146 89.084 147.264 89.084C147.469 89.084 147.652 89.2087 147.814 89.458L148.958 91.328C148.283 91.9587 147.469 92.4573 146.516 92.824C145.562 93.176 144.58 93.352 143.568 93.352ZM163.253 82.968C161.449 83.0267 159.909 83.1733 158.633 83.408C157.372 83.628 156.338 83.9213 155.531 84.288C154.739 84.6547 154.16 85.0873 153.793 85.586C153.441 86.0847 153.265 86.642 153.265 87.258C153.265 87.8447 153.36 88.3507 153.551 88.776C153.742 89.2013 153.998 89.5533 154.321 89.832C154.658 90.096 155.047 90.294 155.487 90.426C155.942 90.5433 156.426 90.602 156.939 90.602C157.628 90.602 158.259 90.536 158.831 90.404C159.403 90.2573 159.938 90.052 160.437 89.788C160.95 89.524 161.434 89.2087 161.889 88.842C162.358 88.4753 162.813 88.0573 163.253 87.588V82.968ZM150.603 73.86C151.835 72.672 153.162 71.7847 154.585 71.198C156.008 70.6113 157.584 70.318 159.315 70.318C160.562 70.318 161.669 70.5233 162.637 70.934C163.605 71.3447 164.419 71.9167 165.079 72.65C165.739 73.3833 166.238 74.2707 166.575 75.312C166.912 76.3533 167.081 77.4973 167.081 78.744V93H165.343C164.962 93 164.668 92.9413 164.463 92.824C164.258 92.692 164.096 92.4427 163.979 92.076L163.539 89.964C162.952 90.5067 162.38 90.9907 161.823 91.416C161.266 91.8267 160.679 92.1787 160.063 92.472C159.447 92.7507 158.787 92.9633 158.083 93.11C157.394 93.2713 156.624 93.352 155.773 93.352C154.908 93.352 154.094 93.2347 153.331 93C152.568 92.7507 151.901 92.384 151.329 91.9C150.772 91.416 150.324 90.8073 149.987 90.074C149.664 89.326 149.503 88.446 149.503 87.434C149.503 86.554 149.745 85.7107 150.229 84.904C150.713 84.0827 151.498 83.3567 152.583 82.726C153.668 82.0953 155.084 81.582 156.829 81.186C158.574 80.7753 160.716 80.5407 163.253 80.482V78.744C163.253 77.0133 162.879 75.708 162.131 74.828C161.383 73.9333 160.29 73.486 158.853 73.486C157.885 73.486 157.071 73.6107 156.411 73.86C155.766 74.0947 155.201 74.366 154.717 74.674C154.248 74.9673 153.837 75.2387 153.485 75.488C153.148 75.7227 152.81 75.84 152.473 75.84C152.209 75.84 151.982 75.774 151.791 75.642C151.6 75.4953 151.439 75.3193 151.307 75.114L150.603 73.86Z" fill="white"/>
        <rect y="106.789" width="210" height="13.211" fill="#D42B21"/>
    </g>
    <defs>
        <clipPath id="clip0">
            <rect width="210" height="120" fill="white"/>
        </clipPath>
    </defs>
</svg></g><a href="https://staging-owid.netlify.com/grapher/cancer-death-rates-in-the-us" target="_blank"><text font-size="25.20" x="15.0" y="35.2" fill="#555"><tspan x="15" y="35.160000000000004">Cancer death rates in the United States over the long-run</tspan></text></a><text font-size="14.40" x="15.0" y="53.7" fill="#666"><tspan x="15" y="53.72">Age-standardized death rates from various forms of cancer in males and females, measured as the number of</tspan><tspan x="15" y="69.56">deaths per 100,000 individuals. Age-standardization is based on normalisation to the standard US population</tspan><tspan x="15" y="85.4">structure in the year 2000.</tspan></text></g><g class="LineChart"><defs><clipPath id="boundsClip-479"><rect x="28.144000000000005" y="0" width="830" height="901.8"></rect></clipPath></defs><g class="AxisBoxView"><g class="HorizontalAxis"><text x="38.1" y="556.5" fill="#666" text-anchor="middle" font-size="16.2">1930</text><text x="111.1" y="556.5" fill="#666" text-anchor="middle" font-size="16.2">1940</text><text x="184" y="556.5" fill="#666" text-anchor="middle" font-size="16.2">1950</text><text x="257" y="556.5" fill="#666" text-anchor="middle" font-size="16.2">1960</text><text x="329.9" y="556.5" fill="#666" text-anchor="middle" font-size="16.2">1970</text><text x="402.8" y="556.5" fill="#666" text-anchor="middle" font-size="16.2">1980</text><text x="475.8" y="556.5" fill="#666" text-anchor="middle" font-size="16.2">1990</text><text x="548.7" y="556.5" fill="#666" text-anchor="middle" font-size="16.2">2000</text><text x="629" y="556.5" fill="#666" text-anchor="middle" font-size="16.2">2011</text></g><g class="VerticalAxis"><text x="33.14" y="535.3" fill="#666" dominant-baseline="middle" text-anchor="end" font-size="16.2">0</text><text x="33.14" y="441" fill="#666" dominant-baseline="middle" text-anchor="end" font-size="16.2">20</text><text x="33.14" y="346.6" fill="#666" dominant-baseline="middle" text-anchor="end" font-size="16.2">40</text><text x="33.14" y="252.3" fill="#666" dominant-baseline="middle" text-anchor="end" font-size="16.2">60</text><text x="33.14" y="158" fill="#666" dominant-baseline="middle" text-anchor="end" font-size="16.2">80</text></g><g class="AxisGridLines"><line x1="38.14" y1="535.3" x2="628.95" y2="535.3" stroke="#ccc"></line><line x1="38.14" y1="441" x2="628.95" y2="441" stroke="#ddd" stroke-dasharray="3,2"></line><line x1="38.14" y1="346.6" x2="628.95" y2="346.6" stroke="#ddd" stroke-dasharray="3,2"></line><line x1="38.14" y1="252.3" x2="628.95" y2="252.3" stroke="#ddd" stroke-dasharray="3,2"></line><line x1="38.14" y1="158" x2="628.95" y2="158" stroke="#ddd" stroke-dasharray="3,2"></line></g></g><g clip-path="url(#boundsClip-479)"><g class="HeightedLegend"><g class="legendMark"><g class="indicator"><line x1="633.9549999999999" y1="524.5" x2="655.6857692307692" y2="524.5" stroke="#666" stroke-width="0.5"></line><line x1="655.6857692307692" y1="524.5" x2="655.6857692307692" y2="524.5" stroke="#666" stroke-width="0.5"></line><line x1="655.6857692307692" y1="524.5" x2="658.9549999999999" y2="524.5" stroke="#666" stroke-width="0.5"></line></g><rect x="628.9549999999999" y="517.75" width="141.78500000000003" height="13.5" fill="#fff" opacity="0"></rect><text font-size="13.50" x="664.0" y="528.5" fill="#7ec7ce"><tspan x="663.9549999999999" y="528.55">Stomach (female)</tspan></text></g><g class="legendMark"><g class="indicator"><line x1="633.9549999999999" y1="514.5" x2="654.1473076923077" y2="514.5" stroke="#666" stroke-width="0.5"></line><line x1="654.1473076923077" y1="514.5" x2="654.1473076923077" y2="509" stroke="#666" stroke-width="0.5"></line><line x1="654.1473076923077" y1="509" x2="658.9549999999999" y2="509" stroke="#666" stroke-width="0.5"></line></g><rect x="628.9549999999999" y="502.25" width="130.445" height="13.5" fill="#fff" opacity="0"></rect><text font-size="13.50" x="664.0" y="513.0" fill="#7ec7ce"><tspan x="663.9549999999999" y="513.05">Stomach (male)</tspan></text></g><g class="legendMark"><g class="indicator"><line x1="633.9549999999999" y1="513.1" x2="652.6088461538461" y2="513.1" stroke="#666" stroke-width="0.5"></line><line x1="652.6088461538461" y1="513.1" x2="652.6088461538461" y2="493.5" stroke="#666" stroke-width="0.5"></line><line x1="652.6088461538461" y1="493.5" x2="658.9549999999999" y2="493.5" stroke="#666" stroke-width="0.5"></line></g><rect x="628.9549999999999" y="486.75" width="117.62" height="13.5" fill="#fff" opacity="0"></rect><text font-size="13.50" x="664.0" y="497.6" fill="#6bb537"><tspan x="663.9549999999999" y="497.55">Liver (female)</tspan></text></g><g class="legendMark"><g class="indicator"><line x1="633.9549999999999" y1="503.2" x2="651.0703846153846" y2="503.2" stroke="#666" stroke-width="0.5"></line><line x1="651.0703846153846" y1="503.2" x2="651.0703846153846" y2="478" stroke="#666" stroke-width="0.5"></line><line x1="651.0703846153846" y1="478" x2="658.9549999999999" y2="478" stroke="#666" stroke-width="0.5"></line></g><rect x="628.9549999999999" y="471.25" width="128.15" height="13.5" fill="#fff" opacity="0"></rect><text font-size="13.50" x="664.0" y="482.1" fill="#3360a9"><tspan x="663.9549999999999" y="482.05">Uterus (female)</tspan></text></g><g class="legendMark"><g class="indicator"><line x1="633.9549999999999" y1="491.4" x2="649.531923076923" y2="491.4" stroke="#666" stroke-width="0.5"></line><line x1="649.531923076923" y1="491.4" x2="649.531923076923" y2="462.5" stroke="#666" stroke-width="0.5"></line><line x1="649.531923076923" y1="462.5" x2="658.9549999999999" y2="462.5" stroke="#666" stroke-width="0.5"></line></g><rect x="628.9549999999999" y="455.75" width="135.71" height="13.5" fill="#fff" opacity="0"></rect><text font-size="13.50" x="664.0" y="466.6" fill="#818282"><tspan x="663.9549999999999" y="466.55">Leukemia (male)</tspan></text></g><g class="legendMark"><g class="indicator"><line x1="633.9549999999999" y1="490.5" x2="647.9934615384615" y2="490.5" stroke="#666" stroke-width="0.5"></line><line x1="647.9934615384615" y1="490.5" x2="647.9934615384615" y2="447" stroke="#666" stroke-width="0.5"></line><line x1="647.9934615384615" y1="447" x2="658.9549999999999" y2="447" stroke="#666" stroke-width="0.5"></line></g><rect x="628.9549999999999" y="440.25" width="145.565" height="13.5" fill="#fff" opacity="0"></rect><text font-size="13.50" x="664.0" y="451.1" fill="#3360a9"><tspan x="663.9549999999999" y="451.05">Pancreas (female)</tspan></text></g><g class="legendMark"><g class="indicator"><line x1="633.9549999999999" y1="488.1" x2="646.4549999999999" y2="488.1" stroke="#666" stroke-width="0.5"></line><line x1="646.4549999999999" y1="488.1" x2="646.4549999999999" y2="431.5" stroke="#666" stroke-width="0.5"></line><line x1="646.4549999999999" y1="431.5" x2="658.9549999999999" y2="431.5" stroke="#666" stroke-width="0.5"></line></g><rect x="628.9549999999999" y="424.75" width="106.28" height="13.5" fill="#fff" opacity="0"></rect><text font-size="13.50" x="664.0" y="435.6" fill="#6bb537"><tspan x="663.9549999999999" y="435.55">Liver (male)</tspan></text></g><g class="legendMark"><g class="indicator"><line x1="633.9549999999999" y1="476.3" x2="644.9165384615384" y2="476.3" stroke="#666" stroke-width="0.5"></line><line x1="644.9165384615384" y1="476.3" x2="644.9165384615384" y2="416" stroke="#666" stroke-width="0.5"></line><line x1="644.9165384615384" y1="416" x2="658.9549999999999" y2="416" stroke="#666" stroke-width="0.5"></line></g><rect x="628.9549999999999" y="409.25" width="134.22500000000002" height="13.5" fill="#fff" opacity="0"></rect><text font-size="13.50" x="664.0" y="420.1" fill="#3360a9"><tspan x="663.9549999999999" y="420.05">Pancreas (male)</tspan></text></g><g class="legendMark"><g class="indicator"><line x1="633.9549999999999" y1="473.5" x2="643.3780769230768" y2="473.5" stroke="#666" stroke-width="0.5"></line><line x1="643.3780769230768" y1="473.5" x2="643.3780769230768" y2="400.5" stroke="#666" stroke-width="0.5"></line><line x1="643.3780769230768" y1="400.5" x2="658.9549999999999" y2="400.5" stroke="#666" stroke-width="0.5"></line></g><rect x="628.9549999999999" y="393.75" width="200.51000000000002" height="13.5" fill="#fff" opacity="0"></rect><text font-size="13.50" x="664.0" y="404.6" fill="#a652ba"><tspan x="663.9549999999999" y="404.55">Colon and Rectum (female)</tspan></text></g><g class="legendMark"><g class="indicator"><line x1="633.9549999999999" y1="448" x2="641.8396153846153" y2="448" stroke="#666" stroke-width="0.5"></line><line x1="641.8396153846153" y1="448" x2="641.8396153846153" y2="385" stroke="#666" stroke-width="0.5"></line><line x1="641.8396153846153" y1="385" x2="658.9549999999999" y2="385" stroke="#666" stroke-width="0.5"></line></g><rect x="628.9549999999999" y="378.25" width="189.17000000000002" height="13.5" fill="#fff" opacity="0"></rect><text font-size="13.50" x="664.0" y="389.1" fill="#a652ba"><tspan x="663.9549999999999" y="389.05">Colon and Rectum (male)</tspan></text></g><g class="legendMark"><g class="indicator"><line x1="633.9549999999999" y1="437.2" x2="640.3011538461537" y2="437.2" stroke="#666" stroke-width="0.5"></line><line x1="640.3011538461537" y1="437.2" x2="640.3011538461537" y2="369.5" stroke="#666" stroke-width="0.5"></line><line x1="640.3011538461537" y1="369.5" x2="658.9549999999999" y2="369.5" stroke="#666" stroke-width="0.5"></line></g><rect x="628.9549999999999" y="362.75" width="127.47500000000001" height="13.5" fill="#fff" opacity="0"></rect><text font-size="13.50" x="664.0" y="373.6" fill="#ca2628"><tspan x="663.9549999999999" y="373.55">Prostate (male)</tspan></text></g><g class="legendMark"><g class="indicator"><line x1="633.9549999999999" y1="433.9" x2="638.7626923076922" y2="433.9" stroke="#666" stroke-width="0.5"></line><line x1="638.7626923076922" y1="433.9" x2="638.7626923076922" y2="354" stroke="#666" stroke-width="0.5"></line><line x1="638.7626923076922" y1="354" x2="658.9549999999999" y2="354" stroke="#666" stroke-width="0.5"></line></g><rect x="628.9549999999999" y="347.25" width="127.47500000000001" height="13.5" fill="#fff" opacity="0"></rect><text font-size="13.50" x="664.0" y="358.1" fill="#df3c64"><tspan x="663.9549999999999" y="358.05">Breast (female)</tspan></text></g><g class="legendMark"><g class="indicator"><line x1="633.9549999999999" y1="360.3" x2="637.2242307692306" y2="360.3" stroke="#666" stroke-width="0.5"></line><line x1="637.2242307692306" y1="360.3" x2="637.2242307692306" y2="338.5" stroke="#666" stroke-width="0.5"></line><line x1="637.2242307692306" y1="338.5" x2="658.9549999999999" y2="338.5" stroke="#666" stroke-width="0.5"></line></g><rect x="628.9549999999999" y="331.75" width="206.04500000000002" height="13.5" fill="#fff" opacity="0"></rect><text font-size="13.50" x="664.0" y="342.6" fill="#f6a324"><tspan x="663.9549999999999" y="342.55">Lung and Bronchus (female)</tspan></text></g><g class="legendMark"><g class="indicator"><line x1="633.9549999999999" y1="261.3" x2="646.4549999999999" y2="261.3" stroke="#666" stroke-width="0.5"></line><line x1="646.4549999999999" y1="261.3" x2="646.4549999999999" y2="261.3" stroke="#666" stroke-width="0.5"></line><line x1="646.4549999999999" y1="261.3" x2="658.9549999999999" y2="261.3" stroke="#666" stroke-width="0.5"></line></g><rect x="628.9549999999999" y="254.55" width="194.705" height="13.5" fill="#fff" opacity="0"></rect><text font-size="13.50" x="664.0" y="265.4" fill="#f6a324"><tspan x="663.9549999999999" y="265.35">Lung and Bronchus (male)</tspan></text></g></g><g class="Lines"><rect x="38" y="106" width="591" height="430" fill="rgba(255,255,255,0)" opacity="0"></rect><g class="key-United-States_0"><path stroke="#df3c64" stroke-linecap="round" d="M38 393L45 391L53 390L60 390L67 386L75 388L82 384L89 386L97 383L104 382L111 376L118 381L126 381L133 382L140 384L148 380L155 380L162 377L169 372L177 385L184 385L191 386L199 386L206 383L213 385L221 382L228 383L235 384L242 388L250 389L257 385L264 386L272 387L279 388L286 386L293 384L301 385L308 384L315 383L323 386L330 383L337 386L345 383L352 383L359 384L366 387L374 385L381 382L388 386L396 388L403 386L410 385L417 383L425 384L432 380L439 380L447 380L454 381L461 379L469 379L476 379L483 381L490 386L498 387L505 390L512 391L520 396L527 402L534 406L541 410L549 410L556 413L563 415L571 416L578 420L585 422L593 424L600 427L607 429L614 431L622 432L629 434" fill="none" stroke-width="1.5"></path></g><g class="key-United-States_1"><path stroke="#a652ba" stroke-linecap="round" d="M38 408L45 405L53 401L60 400L67 395L75 393L82 387L89 385L97 383L104 380L111 377L118 379L126 379L133 375L140 374L148 373L155 373L162 369L169 371L177 379L184 383L191 385L199 387L206 387L213 388L221 389L228 392L235 392L242 394L250 396L257 395L264 396L272 399L279 400L286 402L293 404L301 403L308 406L315 407L323 408L330 408L337 411L345 411L352 414L359 414L366 416L374 414L381 416L388 415L396 417L403 419L410 421L417 423L425 424L432 423L439 425L447 429L454 430L461 433L469 434L476 436L483 438L490 440L498 441L505 443L512 443L520 447L527 448L534 449L541 450L549 451L556 453L563 456L571 458L578 462L585 464L593 465L600 466L607 468L614 471L622 473L629 474" fill="none" stroke-width="1.5"></path></g><g class="key-United-States_10"><path stroke="#ca2628" stroke-linecap="round" d="M38 451L45 449L53 442L60 438L67 428L75 428L82 423L89 421L97 414L104 409L111 406L118 400L126 408L133 407L140 404L148 397L155 392L162 391L169 385L177 397L184 399L191 400L199 395L206 395L213 391L221 393L228 389L235 391L242 396L250 399L257 397L264 395L272 395L279 394L286 397L293 395L301 396L308 395L315 393L323 395L330 394L337 393L345 392L352 389L359 390L366 390L374 386L381 386L388 382L396 381L403 378L410 379L417 378L425 375L432 375L439 375L447 371L454 370L461 366L469 360L476 353L483 350L490 350L498 350L505 354L512 359L520 366L527 374L534 382L541 386L549 392L556 396L563 400L571 407L578 412L585 416L593 421L600 421L607 427L614 431L622 433L629 437" fill="none" stroke-width="1.5"></path></g><g class="key-United-States_11"><path stroke="#7ec7ce" stroke-linecap="round" d="M38 369L45 376L53 376L60 382L67 386L75 387L82 390L89 398L97 399L104 408L111 414L118 419L126 417L133 425L140 429L148 431L155 436L162 438L169 438L177 448L184 452L191 458L199 459L206 462L213 466L221 471L228 472L235 475L242 477L250 480L257 481L264 485L272 486L279 487L286 492L293 493L301 494L308 497L315 498L323 500L330 502L337 503L345 504L352 506L359 507L366 508L374 508L381 510L388 509L396 511L403 511L410 512L417 512L425 513L432 513L439 515L447 516L454 516L461 516L469 516L476 516L483 516L490 517L498 517L505 518L512 518L520 519L527 519L534 519L541 520L549 520L556 521L563 521L571 521L578 522L585 523L593 523L600 523L607 524L614 524L622 524L629 525" fill="none" stroke-width="1.5"></path></g><g class="key-United-States_12"><path stroke="#7ec7ce" stroke-linecap="round" d="M38 317L45 320L53 323L60 327L67 328L75 329L82 331L89 335L97 338L104 345L111 346L118 354L126 356L133 361L140 365L148 368L155 370L162 370L169 372L177 383L184 389L191 395L199 400L206 403L213 407L221 414L228 416L235 423L242 429L250 429L257 433L264 437L272 443L279 444L286 449L293 453L301 457L308 459L315 461L323 465L330 467L337 470L345 472L352 474L359 475L366 478L374 479L381 481L388 483L396 483L403 485L410 485L417 487L425 489L432 489L439 491L447 491L454 492L461 494L469 492L476 493L483 493L490 497L498 497L505 498L512 499L520 500L527 501L534 503L541 504L549 505L556 507L563 507L571 508L578 509L585 510L593 511L600 512L607 512L614 513L622 514L629 515" fill="none" stroke-width="1.5"></path></g><g class="key-United-States_13"><path stroke="#3360a9" stroke-linecap="round" d="M38 364L45 363L53 362L60 367L67 367L75 367L82 366L89 367L97 373L104 374L111 375L118 381L126 384L133 383L140 385L148 386L155 390L162 391L169 397L177 408L184 412L191 420L199 423L206 424L213 429L221 432L228 436L235 438L242 440L250 445L257 446L264 449L272 451L279 453L286 456L293 458L301 462L308 465L315 468L323 471L330 474L337 475L345 476L352 479L359 481L366 484L374 484L381 487L388 488L396 490L403 490L410 492L417 493L425 493L432 495L439 495L447 496L454 497L461 498L469 498L476 498L483 499L490 499L498 500L505 500L512 500L520 501L527 502L534 502L541 503L549 503L556 503L563 504L571 504L578 504L585 505L593 504L600 504L607 504L614 505L622 504L629 503" fill="none" stroke-width="1.5"></path></g><g class="key-United-States_2"><path stroke="#a652ba" stroke-linecap="round" d="M38 427L45 424L53 416L60 414L67 408L75 406L82 402L89 394L97 388L104 384L111 381L118 382L126 381L133 377L140 376L148 371L155 371L162 368L169 366L177 374L184 379L191 383L199 381L206 380L213 382L221 379L228 378L235 380L242 382L250 382L257 380L264 380L272 380L279 382L286 381L293 377L301 379L308 381L315 379L323 376L330 378L337 379L345 377L352 381L359 376L366 379L374 376L381 376L388 374L396 375L403 374L410 378L417 377L425 377L432 377L439 379L447 382L454 383L461 386L469 388L476 388L483 393L490 395L498 398L505 400L512 402L520 407L527 409L534 412L541 413L549 415L556 418L563 420L571 424L578 430L585 433L593 436L600 438L607 441L614 443L622 445L629 448" fill="none" stroke-width="1.5"></path></g><g class="key-United-States_3"><path stroke="#818282" stroke-linecap="round" d="M38 521L45 520L53 520L60 519L67 518L75 517L82 517L89 516L97 514L104 513L111 510L118 510L126 509L133 508L140 508L148 507L155 505L162 501L169 500L177 500L184 497L191 494L199 494L206 492L213 491L221 490L228 489L235 489L242 486L250 487L257 486L264 484L272 485L279 483L286 484L293 484L301 483L308 482L315 483L323 482L330 483L337 483L345 484L352 484L359 484L366 484L374 484L381 484L388 484L396 483L403 483L410 484L417 483L425 484L432 485L439 485L447 485L454 487L461 485L469 485L476 485L483 486L490 485L498 485L505 485L512 484L520 486L527 486L534 488L541 487L549 487L556 487L563 487L571 488L578 489L585 489L593 490L600 491L607 491L614 491L622 491L629 491" fill="none" stroke-width="1.5"></path></g><g class="key-United-States_4"><path stroke="#6bb537" stroke-linecap="round" d="M38 444L45 448L53 448L60 453L67 455L75 458L82 459L89 463L97 465L104 469L111 471L118 473L126 472L133 469L140 471L148 475L155 477L162 478L169 482L177 486L184 489L191 491L199 491L206 492L213 494L221 496L228 497L235 498L242 499L250 500L257 501L264 503L272 504L279 505L286 505L293 505L301 507L308 506L315 508L323 508L330 509L337 510L345 511L352 512L359 512L366 513L374 514L381 514L388 514L396 514L403 514L410 515L417 515L425 516L432 516L439 515L447 516L454 516L461 516L469 516L476 516L483 515L490 515L498 515L505 515L512 514L520 515L527 515L534 515L541 515L549 515L556 515L563 515L571 515L578 514L585 514L593 514L600 515L607 515L614 514L622 513L629 513" fill="none" stroke-width="1.5"></path></g><g class="key-United-States_5"><path stroke="#6bb537" stroke-linecap="round" d="M38 469L45 472L53 474L60 474L67 475L75 478L82 479L89 481L97 482L104 483L111 486L118 486L126 485L133 483L140 483L148 483L155 487L162 490L169 489L177 493L184 495L191 496L199 497L206 498L213 499L221 500L228 500L235 500L242 502L250 503L257 501L264 503L272 504L279 503L286 503L293 503L301 503L308 503L315 503L323 504L330 505L337 505L345 505L352 507L359 507L366 508L374 508L381 507L388 507L396 508L403 508L410 507L417 507L425 506L432 506L439 506L447 506L454 506L461 505L469 504L476 503L483 503L490 501L498 501L505 500L512 499L520 499L527 499L534 498L541 499L549 498L556 497L563 496L571 495L578 495L585 494L593 494L600 493L607 491L614 490L622 490L629 488" fill="none" stroke-width="1.5"></path></g><g class="key-United-States_6"><path stroke="#f6a324" stroke-linecap="round" d="M38 523L45 523L53 522L60 521L67 521L75 519L82 517L89 517L97 516L104 516L111 516L118 514L126 513L133 512L140 511L148 510L155 509L162 507L169 505L177 509L184 508L191 508L199 507L206 507L213 507L221 506L228 506L235 505L242 504L250 504L257 503L264 500L272 500L279 497L286 496L293 493L301 490L308 488L315 480L323 476L330 473L337 467L345 464L352 461L359 456L366 451L374 445L381 440L388 433L396 429L403 421L410 417L417 409L425 402L432 398L439 391L447 386L454 380L461 374L469 366L476 361L483 357L490 352L498 350L505 348L512 345L520 344L527 342L534 341L541 345L549 341L556 341L563 339L571 340L578 342L585 343L593 345L600 346L607 350L614 353L622 356L629 360" fill="none" stroke-width="1.5"></path></g><g class="key-United-States_7"><path stroke="#f6a324" stroke-linecap="round" d="M38 515L45 513L53 510L60 508L67 505L75 500L82 498L89 493L97 489L104 486L111 481L118 477L126 474L133 469L140 466L148 460L155 450L162 439L169 429L177 430L184 421L191 414L199 403L206 392L213 386L221 375L228 364L235 357L242 350L250 341L257 330L264 321L272 309L279 300L286 291L293 280L301 268L308 256L315 236L323 226L330 214L337 203L345 192L352 188L359 178L366 171L374 161L381 152L388 145L396 141L403 133L410 131L417 123L425 122L432 116L439 115L447 113L454 108L461 109L469 109L476 106L483 109L490 117L498 120L505 129L512 135L520 142L527 150L534 157L541 171L549 173L556 178L563 186L571 194L578 202L585 207L593 216L600 227L607 234L614 244L622 251L629 261" fill="none" stroke-width="1.5"></path></g><g class="key-United-States_8"><path stroke="#3360a9" stroke-linecap="round" d="M38 517L45 516L53 514L60 515L67 515L75 513L82 511L89 512L97 510L104 509L111 510L118 508L126 509L133 511L140 509L148 508L155 507L162 506L169 504L177 503L184 503L191 504L199 502L206 502L213 501L221 501L228 498L235 500L242 499L250 499L257 498L264 497L272 496L279 496L286 497L293 496L301 496L308 496L315 495L323 494L330 495L337 496L345 496L352 496L359 495L366 496L374 495L381 494L388 494L396 494L403 494L410 493L417 494L425 492L432 492L439 493L447 492L454 492L461 493L469 492L476 491L483 491L490 491L498 491L505 491L512 492L520 492L527 492L534 492L541 491L549 491L556 491L563 492L571 491L578 491L585 491L593 490L600 491L607 490L614 491L622 490L629 491" fill="none" stroke-width="1.5"></path></g><g class="key-United-States_9"><path stroke="#3360a9" stroke-linecap="round" d="M38 514L45 513L53 512L60 511L67 510L75 509L82 507L89 506L97 504L104 502L111 503L118 501L126 501L133 502L140 501L148 499L155 498L162 493L169 491L177 489L184 489L191 487L199 486L206 485L213 483L221 481L228 478L235 479L242 478L250 476L257 476L264 474L272 473L279 472L286 473L293 471L301 470L308 469L315 468L323 469L330 469L337 471L345 472L352 469L359 472L366 470L374 471L381 470L388 471L396 472L403 473L410 473L417 474L425 475L432 474L439 475L447 476L454 476L461 476L469 476L476 476L483 476L490 476L498 477L505 477L512 478L520 478L527 478L534 477L541 477L549 478L556 478L563 478L571 478L578 477L585 477L593 477L600 476L607 476L614 477L622 475L629 476" fill="none" stroke-width="1.5"></path></g></g></g></g><g class="SourcesFooter" style="fill:#777"><g class="clickable" style="fill:#777"><text font-size="12.60" x="15.0" y="581.6"><tspan x="15" y="581.58">Source: American Cancer Society</tspan></text></g><text font-size="12.60" x="796.4" y="581.6"><tspan x="796.444" y="581.58"><a style="fill: #777;" class="cclogo" href="http://creativecommons.org/licenses/by/4.0/deed.en_US" target="_blank">CC BY</a></tspan></text></g></svg>