<svg xmlns="http://www.w3.org/2000/svg" version="1.1" style="font-family:Lato, &#x27;Helvetica Neue&#x27;, Helvetica, Arial, sans-serif;font-size:18px;background-color:white;text-rendering:optimizeLegibility;-webkit-font-smoothing:antialiased" width="850" height="600"><g class="HeaderView"><g transform="translate(774, 15) scale(0.29)"><svg width="210" height="120" viewBox="0 0 210 120" fill="none" xmlns="http://www.w3.org/2000/svg">
    <g clip-path="url(#clip0)">
        <path d="M0 0H210V107.89H0V0Z" fill="#002147"/>
        <path d="M40.9788 32.248C40.9788 34.6093 40.6048 36.78 39.8568 38.76C39.1088 40.7253 38.0528 42.4193 36.6888 43.842C35.3248 45.2647 33.6821 46.372 31.7608 47.164C29.8541 47.9413 27.7421 48.33 25.4248 48.33C23.1074 48.33 20.9954 47.9413 19.0888 47.164C17.1821 46.372 15.5468 45.2647 14.1828 43.842C12.8188 42.4193 11.7628 40.7253 11.0148 38.76C10.2668 36.78 9.89277 34.6093 9.89277 32.248C9.89277 29.8867 10.2668 27.7233 11.0148 25.758C11.7628 23.778 12.8188 22.0767 14.1828 20.654C15.5468 19.2167 17.1821 18.102 19.0888 17.31C20.9954 16.518 23.1074 16.122 25.4248 16.122C27.7421 16.122 29.8541 16.518 31.7608 17.31C33.6821 18.102 35.3248 19.2167 36.6888 20.654C38.0528 22.0767 39.1088 23.778 39.8568 25.758C40.6048 27.7233 40.9788 29.8867 40.9788 32.248ZM36.6008 32.248C36.6008 30.312 36.3368 28.574 35.8088 27.034C35.2808 25.494 34.5328 24.196 33.5648 23.14C32.5968 22.0693 31.4234 21.248 30.0448 20.676C28.6661 20.104 27.1261 19.818 25.4248 19.818C23.7381 19.818 22.2054 20.104 20.8268 20.676C19.4481 21.248 18.2674 22.0693 17.2848 23.14C16.3168 24.196 15.5688 25.494 15.0408 27.034C14.5128 28.574 14.2488 30.312 14.2488 32.248C14.2488 34.184 14.5128 35.922 15.0408 37.462C15.5688 38.9873 16.3168 40.2853 17.2848 41.356C18.2674 42.412 19.4481 43.226 20.8268 43.798C22.2054 44.3553 23.7381 44.634 25.4248 44.634C27.1261 44.634 28.6661 44.3553 30.0448 43.798C31.4234 43.226 32.5968 42.412 33.5648 41.356C34.5328 40.2853 35.2808 38.9873 35.8088 37.462C36.3368 35.922 36.6008 34.184 36.6008 32.248ZM62.8234 25.714V48H60.4914C59.9341 48 59.5821 47.7287 59.4354 47.186L59.1274 44.788C58.1594 45.8587 57.0741 46.724 55.8714 47.384C54.6687 48.0293 53.2901 48.352 51.7354 48.352C50.5181 48.352 49.4401 48.154 48.5014 47.758C47.5774 47.3473 46.8001 46.7753 46.1694 46.042C45.5387 45.3087 45.0621 44.4213 44.7394 43.38C44.4314 42.3387 44.2774 41.1873 44.2774 39.926V25.714H48.1934V39.926C48.1934 41.6127 48.5747 42.918 49.3374 43.842C50.1147 44.766 51.2954 45.228 52.8794 45.228C54.0381 45.228 55.1161 44.9567 56.1134 44.414C57.1254 43.8567 58.0567 43.094 58.9074 42.126V25.714H62.8234ZM71.4305 30.18C72.1346 28.6547 72.9999 27.4667 74.0266 26.616C75.0532 25.7507 76.3072 25.318 77.7886 25.318C78.2579 25.318 78.7052 25.3693 79.1306 25.472C79.5706 25.5747 79.9592 25.736 80.2966 25.956L80.0106 28.882C79.9226 29.2487 79.7026 29.432 79.3506 29.432C79.1452 29.432 78.8446 29.388 78.4486 29.3C78.0526 29.212 77.6052 29.168 77.1066 29.168C76.4026 29.168 75.7719 29.2707 75.2146 29.476C74.6719 29.6813 74.1806 29.9893 73.7406 30.4C73.3152 30.796 72.9266 31.2947 72.5746 31.896C72.2372 32.4827 71.9292 33.1573 71.6506 33.92V48H67.7125V25.714H69.9566C70.3819 25.714 70.6752 25.7947 70.8366 25.956C70.9979 26.1173 71.1079 26.396 71.1666 26.792L71.4305 30.18ZM132.589 16.474L122.755 48H118.927L110.941 23.954C110.867 23.7193 110.794 23.47 110.721 23.206C110.662 22.942 110.596 22.6633 110.523 22.37C110.449 22.6633 110.376 22.942 110.303 23.206C110.23 23.47 110.156 23.7193 110.083 23.954L102.053 48H98.2248L88.3908 16.474H91.9328C92.3142 16.474 92.6295 16.5693 92.8788 16.76C93.1428 16.9507 93.3115 17.1927 93.3848 17.486L99.8968 39.398C99.9995 39.794 100.095 40.2193 100.183 40.674C100.285 41.1287 100.381 41.6127 100.469 42.126C100.571 41.6127 100.674 41.1287 100.777 40.674C100.894 40.2047 101.019 39.7793 101.151 39.398L108.565 17.486C108.653 17.2367 108.821 17.0093 109.071 16.804C109.335 16.584 109.65 16.474 110.017 16.474H111.249C111.63 16.474 111.938 16.5693 112.173 16.76C112.407 16.9507 112.583 17.1927 112.701 17.486L120.093 39.398C120.225 39.7793 120.342 40.19 120.445 40.63C120.562 41.07 120.672 41.532 120.775 42.016C120.848 41.532 120.929 41.07 121.017 40.63C121.105 40.19 121.2 39.7793 121.303 39.398L127.837 17.486C127.91 17.222 128.072 16.9873 128.321 16.782C128.585 16.5767 128.9 16.474 129.267 16.474H132.589ZM141.94 25.362C143.568 25.362 145.034 25.6333 146.34 26.176C147.645 26.7187 148.76 27.4887 149.684 28.486C150.608 29.4833 151.312 30.6933 151.796 32.116C152.294 33.524 152.544 35.1007 152.544 36.846C152.544 38.606 152.294 40.19 151.796 41.598C151.312 43.006 150.608 44.2087 149.684 45.206C148.76 46.2033 147.645 46.9733 146.34 47.516C145.034 48.044 143.568 48.308 141.94 48.308C140.297 48.308 138.816 48.044 137.496 47.516C136.19 46.9733 135.076 46.2033 134.152 45.206C133.228 44.2087 132.516 43.006 132.018 41.598C131.534 40.19 131.292 38.606 131.292 36.846C131.292 35.1007 131.534 33.524 132.018 32.116C132.516 30.6933 133.228 29.4833 134.152 28.486C135.076 27.4887 136.19 26.7187 137.496 26.176C138.816 25.6333 140.297 25.362 141.94 25.362ZM141.94 45.25C144.14 45.25 145.782 44.5167 146.868 43.05C147.953 41.5687 148.496 39.508 148.496 36.868C148.496 34.2133 147.953 32.1453 146.868 30.664C145.782 29.1827 144.14 28.442 141.94 28.442C140.825 28.442 139.85 28.6327 139.014 29.014C138.192 29.3953 137.503 29.9453 136.946 30.664C136.403 31.3827 135.992 32.27 135.714 33.326C135.45 34.3673 135.318 35.548 135.318 36.868C135.318 39.508 135.86 41.5687 136.946 43.05C138.046 44.5167 139.71 45.25 141.94 45.25ZM159.908 30.18C160.612 28.6547 161.478 27.4667 162.504 26.616C163.531 25.7507 164.785 25.318 166.266 25.318C166.736 25.318 167.183 25.3693 167.608 25.472C168.048 25.5747 168.437 25.736 168.774 25.956L168.488 28.882C168.4 29.2487 168.18 29.432 167.828 29.432C167.623 29.432 167.322 29.388 166.926 29.3C166.53 29.212 166.083 29.168 165.584 29.168C164.88 29.168 164.25 29.2707 163.692 29.476C163.15 29.6813 162.658 29.9893 162.218 30.4C161.793 30.796 161.404 31.2947 161.052 31.896C160.715 32.4827 160.407 33.1573 160.128 33.92V48H156.19V25.714H158.434C158.86 25.714 159.153 25.7947 159.314 25.956C159.476 26.1173 159.586 26.396 159.644 26.792L159.908 30.18ZM174.946 15.594V48H171.03V15.594H174.946ZM194.496 31.016C193.763 30.0333 192.971 29.3513 192.12 28.97C191.269 28.574 190.316 28.376 189.26 28.376C187.192 28.376 185.601 29.1167 184.486 30.598C183.371 32.0793 182.814 34.1913 182.814 36.934C182.814 38.386 182.939 39.6327 183.188 40.674C183.437 41.7007 183.804 42.5513 184.288 43.226C184.772 43.886 185.366 44.37 186.07 44.678C186.774 44.986 187.573 45.14 188.468 45.14C189.759 45.14 190.881 44.8467 191.834 44.26C192.802 43.6733 193.689 42.8447 194.496 41.774V31.016ZM198.412 15.594V48H196.08C195.523 48 195.171 47.7287 195.024 47.186L194.672 44.48C193.719 45.624 192.633 46.548 191.416 47.252C190.199 47.956 188.791 48.308 187.192 48.308C185.916 48.308 184.757 48.066 183.716 47.582C182.675 47.0833 181.787 46.3573 181.054 45.404C180.321 44.4507 179.756 43.2627 179.36 41.84C178.964 40.4173 178.766 38.782 178.766 36.934C178.766 35.2913 178.986 33.766 179.426 32.358C179.866 30.9353 180.497 29.7033 181.318 28.662C182.139 27.6207 183.144 26.8067 184.332 26.22C185.535 25.6187 186.884 25.318 188.38 25.318C189.744 25.318 190.91 25.5527 191.878 26.022C192.861 26.4767 193.733 27.1147 194.496 27.936V15.594H198.412ZM46.6139 70.714V93H42.6979V70.714H46.6139ZM47.4499 63.718C47.4499 64.0993 47.3692 64.4587 47.2079 64.796C47.0612 65.1187 46.8559 65.412 46.5919 65.676C46.3425 65.9253 46.0419 66.1233 45.6899 66.27C45.3525 66.4167 44.9932 66.49 44.6119 66.49C44.2305 66.49 43.8712 66.4167 43.5339 66.27C43.2112 66.1233 42.9252 65.9253 42.6759 65.676C42.4265 65.412 42.2285 65.1187 42.0819 64.796C41.9352 64.4587 41.8619 64.0993 41.8619 63.718C41.8619 63.3367 41.9352 62.9773 42.0819 62.64C42.2285 62.288 42.4265 61.9873 42.6759 61.738C42.9252 61.474 43.2112 61.2687 43.5339 61.122C43.8712 60.9753 44.2305 60.902 44.6119 60.902C44.9932 60.902 45.3525 60.9753 45.6899 61.122C46.0419 61.2687 46.3425 61.474 46.5919 61.738C46.8559 61.9873 47.0612 62.288 47.2079 62.64C47.3692 62.9773 47.4499 63.3367 47.4499 63.718ZM55.4242 73.948C55.9082 73.4053 56.4215 72.914 56.9642 72.474C57.5068 72.034 58.0788 71.66 58.6802 71.352C59.2962 71.0293 59.9415 70.7873 60.6162 70.626C61.3055 70.45 62.0462 70.362 62.8382 70.362C64.0555 70.362 65.1262 70.5673 66.0502 70.978C66.9888 71.374 67.7662 71.946 68.3822 72.694C69.0128 73.4273 69.4895 74.3147 69.8122 75.356C70.1348 76.3973 70.2962 77.5487 70.2962 78.81V93H66.3582V78.81C66.3582 77.1233 65.9695 75.818 65.1922 74.894C64.4295 73.9553 63.2635 73.486 61.6942 73.486C60.5355 73.486 59.4502 73.7647 58.4382 74.322C57.4408 74.8793 56.5168 75.6347 55.6662 76.588V93H51.7282V70.714H54.0822C54.6395 70.714 54.9842 70.9853 55.1162 71.528L55.4242 73.948ZM113.129 77.248C113.129 79.6093 112.755 81.758 112.007 83.694C111.259 85.63 110.203 87.2873 108.839 88.666C107.475 90.0447 105.832 91.1153 103.911 91.878C102.004 92.626 99.8925 93 97.5751 93H85.8051V61.474H97.5751C99.8925 61.474 102.004 61.8553 103.911 62.618C105.832 63.366 107.475 64.4367 108.839 65.83C110.203 67.2087 111.259 68.866 112.007 70.802C112.755 72.738 113.129 74.8867 113.129 77.248ZM108.751 77.248C108.751 75.312 108.487 73.5813 107.959 72.056C107.431 70.5307 106.683 69.24 105.715 68.184C104.747 67.128 103.574 66.3213 102.195 65.764C100.816 65.2067 99.2765 64.928 97.5751 64.928H90.0731V89.546H97.5751C99.2765 89.546 100.816 89.2673 102.195 88.71C103.574 88.1527 104.747 87.3533 105.715 86.312C106.683 85.256 107.431 83.9653 107.959 82.44C108.487 80.9147 108.751 79.184 108.751 77.248ZM128.553 82.968C126.749 83.0267 125.209 83.1733 123.933 83.408C122.672 83.628 121.638 83.9213 120.831 84.288C120.039 84.6547 119.46 85.0873 119.093 85.586C118.741 86.0847 118.565 86.642 118.565 87.258C118.565 87.8447 118.661 88.3507 118.851 88.776C119.042 89.2013 119.299 89.5533 119.621 89.832C119.959 90.096 120.347 90.294 120.787 90.426C121.242 90.5433 121.726 90.602 122.239 90.602C122.929 90.602 123.559 90.536 124.131 90.404C124.703 90.2573 125.239 90.052 125.737 89.788C126.251 89.524 126.735 89.2087 127.189 88.842C127.659 88.4753 128.113 88.0573 128.553 87.588V82.968ZM115.903 73.86C117.135 72.672 118.463 71.7847 119.885 71.198C121.308 70.6113 122.885 70.318 124.615 70.318C125.862 70.318 126.969 70.5233 127.937 70.934C128.905 71.3447 129.719 71.9167 130.379 72.65C131.039 73.3833 131.538 74.2707 131.875 75.312C132.213 76.3533 132.381 77.4973 132.381 78.744V93H130.643C130.262 93 129.969 92.9413 129.763 92.824C129.558 92.692 129.397 92.4427 129.279 92.076L128.839 89.964C128.253 90.5067 127.681 90.9907 127.123 91.416C126.566 91.8267 125.979 92.1787 125.363 92.472C124.747 92.7507 124.087 92.9633 123.383 93.11C122.694 93.2713 121.924 93.352 121.073 93.352C120.208 93.352 119.394 93.2347 118.631 93C117.869 92.7507 117.201 92.384 116.629 91.9C116.072 91.416 115.625 90.8073 115.287 90.074C114.965 89.326 114.803 88.446 114.803 87.434C114.803 86.554 115.045 85.7107 115.529 84.904C116.013 84.0827 116.798 83.3567 117.883 82.726C118.969 82.0953 120.384 81.582 122.129 81.186C123.875 80.7753 126.016 80.5407 128.553 80.482V78.744C128.553 77.0133 128.179 75.708 127.431 74.828C126.683 73.9333 125.591 73.486 124.153 73.486C123.185 73.486 122.371 73.6107 121.711 73.86C121.066 74.0947 120.501 74.366 120.017 74.674C119.548 74.9673 119.137 75.2387 118.785 75.488C118.448 75.7227 118.111 75.84 117.773 75.84C117.509 75.84 117.282 75.774 117.091 75.642C116.901 75.4953 116.739 75.3193 116.607 75.114L115.903 73.86ZM143.568 93.352C141.808 93.352 140.451 92.8607 139.498 91.878C138.559 90.8953 138.09 89.48 138.09 87.632V73.992H135.406C135.171 73.992 134.973 73.926 134.812 73.794C134.65 73.6473 134.57 73.4273 134.57 73.134V71.572L138.222 71.11L139.124 64.224C139.168 64.004 139.263 63.828 139.41 63.696C139.571 63.5493 139.776 63.476 140.026 63.476H142.006V71.154H148.452V73.992H142.006V87.368C142.006 88.3067 142.233 89.0033 142.688 89.458C143.142 89.9127 143.729 90.14 144.448 90.14C144.858 90.14 145.21 90.0887 145.504 89.986C145.812 89.8687 146.076 89.744 146.296 89.612C146.516 89.48 146.699 89.3627 146.846 89.26C147.007 89.1427 147.146 89.084 147.264 89.084C147.469 89.084 147.652 89.2087 147.814 89.458L148.958 91.328C148.283 91.9587 147.469 92.4573 146.516 92.824C145.562 93.176 144.58 93.352 143.568 93.352ZM163.253 82.968C161.449 83.0267 159.909 83.1733 158.633 83.408C157.372 83.628 156.338 83.9213 155.531 84.288C154.739 84.6547 154.16 85.0873 153.793 85.586C153.441 86.0847 153.265 86.642 153.265 87.258C153.265 87.8447 153.36 88.3507 153.551 88.776C153.742 89.2013 153.998 89.5533 154.321 89.832C154.658 90.096 155.047 90.294 155.487 90.426C155.942 90.5433 156.426 90.602 156.939 90.602C157.628 90.602 158.259 90.536 158.831 90.404C159.403 90.2573 159.938 90.052 160.437 89.788C160.95 89.524 161.434 89.2087 161.889 88.842C162.358 88.4753 162.813 88.0573 163.253 87.588V82.968ZM150.603 73.86C151.835 72.672 153.162 71.7847 154.585 71.198C156.008 70.6113 157.584 70.318 159.315 70.318C160.562 70.318 161.669 70.5233 162.637 70.934C163.605 71.3447 164.419 71.9167 165.079 72.65C165.739 73.3833 166.238 74.2707 166.575 75.312C166.912 76.3533 167.081 77.4973 167.081 78.744V93H165.343C164.962 93 164.668 92.9413 164.463 92.824C164.258 92.692 164.096 92.4427 163.979 92.076L163.539 89.964C162.952 90.5067 162.38 90.9907 161.823 91.416C161.266 91.8267 160.679 92.1787 160.063 92.472C159.447 92.7507 158.787 92.9633 158.083 93.11C157.394 93.2713 156.624 93.352 155.773 93.352C154.908 93.352 154.094 93.2347 153.331 93C152.568 92.7507 151.901 92.384 151.329 91.9C150.772 91.416 150.324 90.8073 149.987 90.074C149.664 89.326 149.503 88.446 149.503 87.434C149.503 86.554 149.745 85.7107 150.229 84.904C150.713 84.0827 151.498 83.3567 152.583 82.726C153.668 82.0953 155.084 81.582 156.829 81.186C158.574 80.7753 160.716 80.5407 163.253 80.482V78.744C163.253 77.0133 162.879 75.708 162.131 74.828C161.383 73.9333 160.29 73.486 158.853 73.486C157.885 73.486 157.071 73.6107 156.411 73.86C155.766 74.0947 155.201 74.366 154.717 74.674C154.248 74.9673 153.837 75.2387 153.485 75.488C153.148 75.7227 152.81 75.84 152.473 75.84C152.209 75.84 151.982 75.774 151.791 75.642C151.6 75.4953 151.439 75.3193 151.307 75.114L150.603 73.86Z" fill="white"/>
        <rect y="106.789" width="210" height="13.211" fill="#D42B21"/>
    </g>
    <defs>
        <clipPath id="clip0">
            <rect width="210" height="120" fill="white"/>
        </clipPath>
    </defs>
</svg></g><a href="https://staging-owid.netlify.com/grapher/capital-intensity" target="_blank"><text font-size="25.20" x="15.0" y="35.2" fill="#555"><tspan x="15" y="35.160000000000004">Capital intensity</tspan></text></a><text font-size="14.40" x="15.0" y="53.7" fill="#666"><tspan x="15" y="53.72">Capital intensity is defined as the total stock of capital divided by the total hours worked. This is measured in 2010</tspan><tspan x="15" y="69.56">international-$ per hour. </tspan></text></g><g class="LineChart"><defs><clipPath id="boundsClip-481"><rect x="46.288000000000004" y="0" width="830" height="932.8"></rect></clipPath></defs><g class="AxisBoxView"><g class="HorizontalAxis"><text x="56.3" y="556.5" fill="#666" text-anchor="middle" font-size="16.2">1890</text><text x="108.1" y="556.5" fill="#666" text-anchor="middle" font-size="16.2">1900</text><text x="211.6" y="556.5" fill="#666" text-anchor="middle" font-size="16.2">1920</text><text x="315.2" y="556.5" fill="#666" text-anchor="middle" font-size="16.2">1940</text><text x="418.8" y="556.5" fill="#666" text-anchor="middle" font-size="16.2">1960</text><text x="522.4" y="556.5" fill="#666" text-anchor="middle" font-size="16.2">1980</text><text x="625.9" y="556.5" fill="#666" text-anchor="middle" font-size="16.2">2000</text><text x="703.6" y="556.5" fill="#666" text-anchor="middle" font-size="16.2">2015</text></g><g class="VerticalAxis"><text x="51.29" y="535.3" fill="#666" dominant-baseline="middle" text-anchor="end" font-size="16.2">$0</text><text x="51.29" y="457.7" fill="#666" dominant-baseline="middle" text-anchor="end" font-size="16.2">$50</text><text x="51.29" y="380.2" fill="#666" dominant-baseline="middle" text-anchor="end" font-size="16.2">$100</text><text x="51.29" y="302.6" fill="#666" dominant-baseline="middle" text-anchor="end" font-size="16.2">$150</text><text x="51.29" y="225.1" fill="#666" dominant-baseline="middle" text-anchor="end" font-size="16.2">$200</text><text x="51.29" y="147.5" fill="#666" dominant-baseline="middle" text-anchor="end" font-size="16.2">$250</text></g><g class="AxisGridLines"><line x1="56.29" y1="535.3" x2="703.61" y2="535.3" stroke="#ccc"></line><line x1="56.29" y1="457.7" x2="703.61" y2="457.7" stroke="#ddd" stroke-dasharray="3,2"></line><line x1="56.29" y1="380.2" x2="703.61" y2="380.2" stroke="#ddd" stroke-dasharray="3,2"></line><line x1="56.29" y1="302.6" x2="703.61" y2="302.6" stroke="#ddd" stroke-dasharray="3,2"></line><line x1="56.29" y1="225.1" x2="703.61" y2="225.1" stroke="#ddd" stroke-dasharray="3,2"></line><line x1="56.29" y1="147.5" x2="703.61" y2="147.5" stroke="#ddd" stroke-dasharray="3,2"></line></g></g><g clip-path="url(#boundsClip-481)"><g class="HeightedLegend clickable"><g class="legendMark"><g class="indicator"><line x1="708.61" y1="90.1" x2="721.11" y2="90.1" stroke="#666" stroke-width="0.5"></line><line x1="721.11" y1="90.1" x2="721.11" y2="90.1" stroke="#666" stroke-width="0.5"></line><line x1="721.11" y1="90.1" x2="733.61" y2="90.1" stroke="#666" stroke-width="0.5"></line></g><rect x="703.61" y="83.35" width="80.765" height="13.5" fill="#fff" opacity="0"></rect><text font-size="13.50" x="738.6" y="94.1" fill="#ffd53e"><tspan x="738.61" y="94.14999999999999">Norway</tspan></text></g><g class="legendMark"><g class="indicator"><line x1="708.61" y1="158.4" x2="721.11" y2="158.4" stroke="#666" stroke-width="0.5"></line><line x1="721.11" y1="158.4" x2="721.11" y2="158.4" stroke="#666" stroke-width="0.5"></line><line x1="721.11" y1="158.4" x2="733.61" y2="158.4" stroke="#666" stroke-width="0.5"></line></g><rect x="703.61" y="151.65" width="77.12" height="13.5" fill="#fff" opacity="0"></rect><text font-size="13.50" x="738.6" y="162.5" fill="#9ecc8a"><tspan x="738.61" y="162.45000000000002">France</tspan></text></g><g class="legendMark"><g class="indicator"><line x1="708.61" y1="197.1" x2="731.11" y2="197.1" stroke="#666" stroke-width="0.5"></line><line x1="731.11" y1="197.1" x2="731.11" y2="197.1" stroke="#666" stroke-width="0.5"></line><line x1="731.11" y1="197.1" x2="733.61" y2="197.1" stroke="#666" stroke-width="0.5"></line></g><rect x="703.61" y="190.35" width="90.62" height="13.5" fill="#fff" opacity="0"></rect><text font-size="13.50" x="738.6" y="201.2" fill="#e6332e"><tspan x="738.61" y="201.15">Germany</tspan></text></g><g class="legendMark"><g class="indicator"><line x1="708.61" y1="209.5" x2="721.11" y2="209.5" stroke="#666" stroke-width="0.5"></line><line x1="721.11" y1="209.5" x2="721.11" y2="212.6" stroke="#666" stroke-width="0.5"></line><line x1="721.11" y1="212.6" x2="733.61" y2="212.6" stroke="#666" stroke-width="0.5"></line></g><rect x="703.61" y="205.85" width="77.12" height="13.5" fill="#fff" opacity="0"></rect><text font-size="13.50" x="738.6" y="216.7" fill="#2a939b"><tspan x="738.61" y="216.65">Austria</tspan></text></g><g class="legendMark"><g class="indicator"><line x1="708.61" y1="226.6" x2="727.7766666666666" y2="226.6" stroke="#666" stroke-width="0.5"></line><line x1="727.7766666666666" y1="226.6" x2="727.7766666666666" y2="226.6" stroke="#666" stroke-width="0.5"></line><line x1="727.7766666666666" y1="226.6" x2="733.61" y2="226.6" stroke="#666" stroke-width="0.5"></line></g><rect x="703.61" y="219.85" width="89.81" height="13.5" fill="#fff" opacity="0"></rect><text font-size="13.50" x="738.6" y="230.7" fill="#a652ba"><tspan x="738.61" y="230.65">Denmark</tspan></text></g><g class="legendMark"><g class="indicator"><line x1="708.61" y1="228.2" x2="721.11" y2="228.2" stroke="#666" stroke-width="0.5"></line><line x1="721.11" y1="228.2" x2="721.11" y2="242.1" stroke="#666" stroke-width="0.5"></line><line x1="721.11" y1="242.1" x2="733.61" y2="242.1" stroke="#666" stroke-width="0.5"></line></g><rect x="703.61" y="235.35" width="116.405" height="13.5" fill="#fff" opacity="0"></rect><text font-size="13.50" x="738.6" y="246.2" fill="#f6a324"><tspan x="738.61" y="246.15">United States</tspan></text></g><g class="legendMark"><g class="indicator"><line x1="708.61" y1="253" x2="714.4433333333334" y2="253" stroke="#666" stroke-width="0.5"></line><line x1="714.4433333333334" y1="253" x2="714.4433333333334" y2="257.6" stroke="#666" stroke-width="0.5"></line><line x1="714.4433333333334" y1="257.6" x2="733.61" y2="257.6" stroke="#666" stroke-width="0.5"></line></g><rect x="703.61" y="250.85" width="59.84" height="13.5" fill="#fff" opacity="0"></rect><text font-size="13.50" x="738.6" y="261.7" fill="#34983f"><tspan x="738.61" y="261.65000000000003">Italy</tspan></text></g><g class="legendMark"><g class="indicator"><line x1="708.61" y1="285.6" x2="731.11" y2="285.6" stroke="#666" stroke-width="0.5"></line><line x1="731.11" y1="285.6" x2="731.11" y2="285.6" stroke="#666" stroke-width="0.5"></line><line x1="731.11" y1="285.6" x2="733.61" y2="285.6" stroke="#666" stroke-width="0.5"></line></g><rect x="703.61" y="278.85" width="71.99000000000001" height="13.5" fill="#fff" opacity="0"></rect><text font-size="13.50" x="738.6" y="289.7" fill="#ca2628"><tspan x="738.61" y="289.65000000000003">Japan</tspan></text></g><g class="legendMark"><g class="indicator"><line x1="708.61" y1="298" x2="721.11" y2="298" stroke="#666" stroke-width="0.5"></line><line x1="721.11" y1="298" x2="721.11" y2="301.1" stroke="#666" stroke-width="0.5"></line><line x1="721.11" y1="301.1" x2="733.61" y2="301.1" stroke="#666" stroke-width="0.5"></line></g><rect x="703.61" y="294.35" width="131.39" height="13.5" fill="#fff" opacity="0"></rect><text font-size="13.50" x="738.6" y="305.2" fill="#3360a9"><tspan x="738.61" y="305.15000000000003">United Kingdom</tspan></text></g></g><g class="Lines"><rect x="56" y="90" width="647" height="445" fill="rgba(255,255,255,0)" opacity="0"></rect><g class="key-United-States_0"><path stroke="#f6a324" stroke-linecap="round" d="M56 497L62 497L67 497L72 492L77 487L82 490L87 489L93 487L98 487L103 490L108 489L113 492L118 489L124 489L129 489L134 487L139 489L144 486L150 483L155 483L160 481L165 480L170 478L175 476L181 473L186 472L191 472L196 470L201 466L207 456L212 456L217 442L222 458L227 459L232 448L238 455L243 450L248 447L253 447L258 448L263 438L269 425L274 403L279 408L284 408L289 417L295 427L300 425L305 403L310 416L315 422L320 433L326 442L331 455L336 450L341 445L346 442L352 441L357 436L362 433L367 430L372 433L377 431L383 428L388 422L393 422L398 421L403 414L408 407L414 408L419 405L424 400L429 399L434 396L440 394L445 393L450 391L455 388L460 385L465 383L471 376L476 371L481 369L486 368L491 363L497 354L502 354L507 355L512 357L517 355L522 349L528 345L533 338L538 337L543 340L548 338L553 334L559 334L564 334L569 334L574 329L579 321L585 317L590 317L595 318L600 318L605 315L610 315L616 312L621 309L626 304L631 293L636 283L642 273L647 269L652 265L657 262L662 256L667 248L673 228L678 225L683 228L688 228L693 227L698 228L704 228" fill="none" stroke-width="1.5"></path></g><g class="key-Norway_0"><path stroke="#ffd53e" stroke-linecap="round" d="M56 521L62 521L67 521L72 521L77 521L82 520L87 520L93 520L98 520L103 520L108 520L113 518L118 518L124 518L129 517L134 517L139 517L144 517L150 515L155 515L160 515L165 515L170 514L175 514L181 512L186 511L191 511L196 509L201 507L207 507L212 506L217 504L222 503L227 503L232 501L238 500L243 498L248 498L253 498L258 498L263 497L269 493L274 492L279 492L284 492L289 492L295 492L300 490L305 489L310 489L315 489L320 487L326 486L331 484L336 481L341 480L346 481L352 480L357 478L362 476L367 476L372 473L377 472L383 467L388 464L393 459L398 456L403 453L408 447L414 442L419 441L424 438L429 433L434 430L440 427L445 422L450 417L455 411L460 405L465 399L471 394L476 388L481 380L486 372L491 365L497 357L502 348L507 338L512 329L517 320L522 317L528 310L533 301L538 290L543 283L548 279L553 278L559 270L564 261L569 247L574 238L579 228L585 225L590 222L595 219L600 216L605 214L610 213L616 210L621 203L626 194L631 182L636 171L642 157L647 155L652 149L657 149L662 152L667 152L673 132L678 124L683 121L688 117L693 106L698 99L704 90" fill="none" stroke-width="1.5"></path></g><g class="key-Austria_0"><path stroke="#2a939b" stroke-linecap="round" d="M56 528L62 528L67 528L72 528L77 528L82 528L87 526L93 526L98 526L103 526L108 526L113 526L118 524L124 524L129 524L134 524L139 524L144 524L150 524L155 524L160 523L165 523L170 523L175 521L181 523L186 523L191 523L196 523L201 523L207 524L212 523L217 523L222 521L227 521L232 521L238 521L243 520L248 520L253 520L258 518L263 518L269 518L274 518L279 518L284 512L289 515L295 517L300 518L305 518L310 518L315 518L320 518L326 518L331 517L336 517L341 515L346 515L352 515L357 515L362 514L367 512L372 512L377 511L383 511L388 509L393 507L398 506L403 506L408 504L414 501L419 500L424 497L429 495L434 492L440 487L445 484L450 480L455 475L460 470L465 467L471 461L476 456L481 452L486 447L491 447L497 439L502 433L507 428L512 421L517 417L522 413L528 402L533 397L538 393L543 386L548 382L553 377L559 371L564 366L569 363L574 360L579 355L585 345L590 337L595 329L600 318L605 315L610 310L616 301L621 298L626 293L631 286L636 278L642 272L647 267L652 261L657 256L662 253L667 251L673 236L678 233L683 233L688 227L693 220L698 216L704 210" fill="none" stroke-width="1.5"></path></g><g class="key-United-Kingdom_0"><path stroke="#3360a9" stroke-linecap="round" d="M56 514L62 514L67 512L72 512L77 512L82 512L87 512L93 512L98 512L103 512L108 512L113 511L118 511L124 511L129 509L134 509L139 509L144 509L150 509L155 509L160 509L165 511L170 511L175 511L181 509L186 511L191 511L196 512L201 512L207 511L212 507L217 501L222 501L227 501L232 501L238 501L243 501L248 501L253 501L258 501L263 500L269 498L274 497L279 497L284 497L289 498L295 498L300 498L305 498L310 500L315 506L320 506L326 509L331 511L336 509L341 507L346 503L352 500L357 498L362 498L367 498L372 498L377 497L383 495L388 493L393 493L398 490L403 489L408 486L414 484L419 481L424 478L429 475L434 472L440 469L445 464L450 459L455 453L460 448L465 444L471 436L476 430L481 427L486 424L491 419L497 413L502 408L507 405L512 402L517 399L522 396L528 391L533 388L538 385L543 388L548 388L553 388L559 390L564 393L569 390L574 383L579 372L585 363L590 357L595 355L600 352L605 349L610 348L616 345L621 341L626 335L631 334L636 327L642 323L647 320L652 318L657 314L662 310L667 306L673 296L678 295L683 293L688 295L693 295L698 298L704 298" fill="none" stroke-width="1.5"></path></g><g class="key-France_0"><path stroke="#9ecc8a" stroke-linecap="round" d="M56 517L62 515L67 515L72 515L77 515L82 515L87 515L93 515L98 514L103 514L108 514L113 514L118 512L124 512L129 512L134 512L139 511L144 511L150 511L155 511L160 509L165 509L170 507L175 507L181 507L186 507L191 507L196 507L201 509L207 509L212 507L217 506L222 506L227 504L232 501L238 500L243 498L248 497L253 495L258 495L263 492L269 489L274 484L279 486L284 484L289 483L295 484L300 476L305 476L310 478L315 480L320 483L326 484L331 486L336 493L341 497L346 500L352 500L357 498L362 497L367 495L372 495L377 495L383 493L388 492L393 492L398 490L403 489L408 487L414 484L419 481L424 478L429 475L434 472L440 469L445 464L450 461L455 455L460 448L465 441L471 436L476 430L481 422L486 416L491 407L497 399L502 396L507 388L512 380L517 374L522 368L528 360L533 348L538 340L543 334L548 323L553 318L559 317L564 314L569 307L574 303L579 295L585 287L590 276L595 270L600 264L605 261L610 256L616 253L621 251L626 245L631 241L636 227L642 220L647 219L652 213L657 203L662 203L667 199L673 185L678 182L683 179L688 172L693 163L698 160L704 158" fill="none" stroke-width="1.5"></path></g><g class="key-Germany_0"><path stroke="#e6332e" stroke-linecap="round" d="M56 521L62 521L67 520L72 520L77 520L82 520L87 520L93 520L98 520L103 518L108 518L113 518L118 518L124 517L129 517L134 517L139 515L144 515L150 515L155 515L160 515L165 515L170 515L175 514L181 514L186 512L191 511L196 509L201 507L207 507L212 507L217 506L222 506L227 504L232 506L238 507L243 504L248 507L253 507L258 507L263 504L269 500L274 497L279 500L284 504L289 504L295 506L300 506L305 507L310 509L315 512L320 512L326 514L331 514L336 514L341 511L346 501L352 500L357 503L362 506L367 506L372 506L377 504L383 504L388 503L393 501L398 500L403 498L408 495L414 493L419 490L424 487L429 483L434 478L440 475L445 470L450 466L455 459L460 455L465 450L471 445L476 439L481 433L486 427L491 419L497 410L502 407L507 402L512 396L517 393L522 391L528 388L533 383L538 379L543 377L548 374L553 371L559 368L564 365L569 362L574 354L579 338L585 329L590 315L595 306L600 298L605 287L610 278L616 273L621 267L626 261L631 251L636 242L642 233L647 230L652 222L657 224L662 224L667 220L673 206L678 208L683 208L688 203L693 199L698 199L704 197" fill="none" stroke-width="1.5"></path></g><g class="key-Italy_0"><path stroke="#34983f" stroke-linecap="round" d="M56 531L62 531L67 531L72 531L77 531L82 531L87 531L93 531L98 531L103 531L108 531L113 531L118 531L124 531L129 531L134 531L139 531L144 531L150 531L155 531L160 529L165 529L170 529L175 529L181 529L186 529L191 529L196 529L201 529L207 528L212 528L217 528L222 528L227 528L232 528L238 528L243 526L248 526L253 526L258 526L263 526L269 524L274 524L279 523L284 523L289 523L295 523L300 523L305 523L310 523L315 521L320 521L326 521L331 520L336 521L341 521L346 520L352 520L357 520L362 518L367 517L372 517L377 515L383 514L388 514L393 512L398 511L403 509L408 506L414 504L419 501L424 498L429 495L434 490L440 486L445 480L450 475L455 473L460 469L465 462L471 456L476 447L481 441L486 435L491 428L497 421L502 417L507 410L512 403L517 399L522 396L528 391L533 386L538 383L543 377L548 374L553 371L559 368L564 365L569 359L574 354L579 351L585 345L590 335L595 327L600 323L605 321L610 317L616 317L621 314L626 310L631 307L636 304L642 301L647 298L652 293L657 292L662 290L667 286L673 273L678 269L683 267L688 259L693 251L698 250L704 253" fill="none" stroke-width="1.5"></path></g><g class="key-Japan_0"><path stroke="#ca2628" stroke-linecap="round" d="M56 534L62 534L67 534L72 534L77 534L82 534L87 534L93 534L98 534L103 534L108 534L113 534L118 534L124 534L129 534L134 534L139 534L144 534L150 534L155 534L160 534L165 534L170 532L175 532L181 532L186 532L191 532L196 532L201 532L207 532L212 532L217 532L222 532L227 532L232 532L238 532L243 532L248 531L253 531L258 531L263 531L269 531L274 531L279 531L284 529L289 529L295 529L300 529L305 529L310 529L315 528L320 528L326 528L331 526L336 526L341 529L346 528L352 528L357 528L362 526L367 526L372 526L377 526L383 526L388 524L393 524L398 524L403 524L408 523L414 521L419 521L424 520L429 517L434 515L440 512L445 511L450 509L455 506L460 503L465 498L471 493L476 489L481 483L486 478L491 470L497 464L502 461L507 458L512 453L517 448L522 444L528 439L533 435L538 433L543 430L548 425L553 421L559 416L564 410L569 403L574 397L579 391L585 382L590 372L595 366L600 362L605 355L610 349L616 338L621 329L626 324L631 317L636 309L642 307L647 306L652 303L657 304L662 303L667 298L673 289L678 290L683 290L688 290L693 287L698 287L704 286" fill="none" stroke-width="1.5"></path></g><g class="key-Denmark_0"><path stroke="#a652ba" stroke-linecap="round" d="M56 529L62 529L67 529L72 529L77 529L82 529L87 529L93 528L98 528L103 528L108 526L113 526L118 526L124 526L129 526L134 524L139 524L144 524L150 524L155 524L160 523L165 523L170 523L175 523L181 523L186 523L191 523L196 523L201 523L207 521L212 520L217 521L222 521L227 520L232 520L238 520L243 520L248 520L253 520L258 520L263 520L269 518L274 518L279 518L284 517L289 517L295 517L300 517L305 515L310 515L315 515L320 515L326 515L331 514L336 512L341 512L346 512L352 511L357 509L362 507L367 506L372 504L377 503L383 501L388 498L393 497L398 495L403 492L408 490L414 489L419 486L424 484L429 481L434 480L440 476L445 475L450 472L455 467L460 461L465 456L471 450L476 444L481 436L486 428L491 422L497 411L502 408L507 400L512 394L517 390L522 386L528 379L533 377L538 374L543 372L548 371L553 369L559 360L564 352L569 345L574 337L579 331L585 327L590 321L595 315L600 315L605 310L610 310L616 309L621 307L626 304L631 301L636 295L642 287L647 281L652 276L657 275L662 270L667 265L673 250L678 242L683 242L688 233L693 230L698 227L704 227" fill="none" stroke-width="1.5"></path></g></g></g></g><g class="SourcesFooter" style="fill:#777"><g class="clickable" style="fill:#777"><text font-size="12.60" x="15.0" y="581.6"><tspan x="15" y="581.58">Source: Bergeaud, A., Cette, G. and Lecat, R. (2016)</tspan></text></g><text font-size="12.60" x="796.4" y="581.6"><tspan x="796.444" y="581.58"><a style="fill: #777;" class="cclogo" href="http://creativecommons.org/licenses/by/4.0/deed.en_US" target="_blank">CC BY</a></tspan></text></g></svg>