<svg xmlns="http://www.w3.org/2000/svg" version="1.1" style="font-family:Lato, &#x27;Helvetica Neue&#x27;, Helvetica, Arial, sans-serif;font-size:18px;background-color:white;text-rendering:optimizeLegibility;-webkit-font-smoothing:antialiased" width="850" height="600"><g class="HeaderView"><g transform="translate(774, 15) scale(0.29)"><svg width="210" height="120" viewBox="0 0 210 120" fill="none" xmlns="http://www.w3.org/2000/svg">
    <g clip-path="url(#clip0)">
        <path d="M0 0H210V107.89H0V0Z" fill="#002147"/>
        <path d="M40.9788 32.248C40.9788 34.6093 40.6048 36.78 39.8568 38.76C39.1088 40.7253 38.0528 42.4193 36.6888 43.842C35.3248 45.2647 33.6821 46.372 31.7608 47.164C29.8541 47.9413 27.7421 48.33 25.4248 48.33C23.1074 48.33 20.9954 47.9413 19.0888 47.164C17.1821 46.372 15.5468 45.2647 14.1828 43.842C12.8188 42.4193 11.7628 40.7253 11.0148 38.76C10.2668 36.78 9.89277 34.6093 9.89277 32.248C9.89277 29.8867 10.2668 27.7233 11.0148 25.758C11.7628 23.778 12.8188 22.0767 14.1828 20.654C15.5468 19.2167 17.1821 18.102 19.0888 17.31C20.9954 16.518 23.1074 16.122 25.4248 16.122C27.7421 16.122 29.8541 16.518 31.7608 17.31C33.6821 18.102 35.3248 19.2167 36.6888 20.654C38.0528 22.0767 39.1088 23.778 39.8568 25.758C40.6048 27.7233 40.9788 29.8867 40.9788 32.248ZM36.6008 32.248C36.6008 30.312 36.3368 28.574 35.8088 27.034C35.2808 25.494 34.5328 24.196 33.5648 23.14C32.5968 22.0693 31.4234 21.248 30.0448 20.676C28.6661 20.104 27.1261 19.818 25.4248 19.818C23.7381 19.818 22.2054 20.104 20.8268 20.676C19.4481 21.248 18.2674 22.0693 17.2848 23.14C16.3168 24.196 15.5688 25.494 15.0408 27.034C14.5128 28.574 14.2488 30.312 14.2488 32.248C14.2488 34.184 14.5128 35.922 15.0408 37.462C15.5688 38.9873 16.3168 40.2853 17.2848 41.356C18.2674 42.412 19.4481 43.226 20.8268 43.798C22.2054 44.3553 23.7381 44.634 25.4248 44.634C27.1261 44.634 28.6661 44.3553 30.0448 43.798C31.4234 43.226 32.5968 42.412 33.5648 41.356C34.5328 40.2853 35.2808 38.9873 35.8088 37.462C36.3368 35.922 36.6008 34.184 36.6008 32.248ZM62.8234 25.714V48H60.4914C59.9341 48 59.5821 47.7287 59.4354 47.186L59.1274 44.788C58.1594 45.8587 57.0741 46.724 55.8714 47.384C54.6687 48.0293 53.2901 48.352 51.7354 48.352C50.5181 48.352 49.4401 48.154 48.5014 47.758C47.5774 47.3473 46.8001 46.7753 46.1694 46.042C45.5387 45.3087 45.0621 44.4213 44.7394 43.38C44.4314 42.3387 44.2774 41.1873 44.2774 39.926V25.714H48.1934V39.926C48.1934 41.6127 48.5747 42.918 49.3374 43.842C50.1147 44.766 51.2954 45.228 52.8794 45.228C54.0381 45.228 55.1161 44.9567 56.1134 44.414C57.1254 43.8567 58.0567 43.094 58.9074 42.126V25.714H62.8234ZM71.4305 30.18C72.1346 28.6547 72.9999 27.4667 74.0266 26.616C75.0532 25.7507 76.3072 25.318 77.7886 25.318C78.2579 25.318 78.7052 25.3693 79.1306 25.472C79.5706 25.5747 79.9592 25.736 80.2966 25.956L80.0106 28.882C79.9226 29.2487 79.7026 29.432 79.3506 29.432C79.1452 29.432 78.8446 29.388 78.4486 29.3C78.0526 29.212 77.6052 29.168 77.1066 29.168C76.4026 29.168 75.7719 29.2707 75.2146 29.476C74.6719 29.6813 74.1806 29.9893 73.7406 30.4C73.3152 30.796 72.9266 31.2947 72.5746 31.896C72.2372 32.4827 71.9292 33.1573 71.6506 33.92V48H67.7125V25.714H69.9566C70.3819 25.714 70.6752 25.7947 70.8366 25.956C70.9979 26.1173 71.1079 26.396 71.1666 26.792L71.4305 30.18ZM132.589 16.474L122.755 48H118.927L110.941 23.954C110.867 23.7193 110.794 23.47 110.721 23.206C110.662 22.942 110.596 22.6633 110.523 22.37C110.449 22.6633 110.376 22.942 110.303 23.206C110.23 23.47 110.156 23.7193 110.083 23.954L102.053 48H98.2248L88.3908 16.474H91.9328C92.3142 16.474 92.6295 16.5693 92.8788 16.76C93.1428 16.9507 93.3115 17.1927 93.3848 17.486L99.8968 39.398C99.9995 39.794 100.095 40.2193 100.183 40.674C100.285 41.1287 100.381 41.6127 100.469 42.126C100.571 41.6127 100.674 41.1287 100.777 40.674C100.894 40.2047 101.019 39.7793 101.151 39.398L108.565 17.486C108.653 17.2367 108.821 17.0093 109.071 16.804C109.335 16.584 109.65 16.474 110.017 16.474H111.249C111.63 16.474 111.938 16.5693 112.173 16.76C112.407 16.9507 112.583 17.1927 112.701 17.486L120.093 39.398C120.225 39.7793 120.342 40.19 120.445 40.63C120.562 41.07 120.672 41.532 120.775 42.016C120.848 41.532 120.929 41.07 121.017 40.63C121.105 40.19 121.2 39.7793 121.303 39.398L127.837 17.486C127.91 17.222 128.072 16.9873 128.321 16.782C128.585 16.5767 128.9 16.474 129.267 16.474H132.589ZM141.94 25.362C143.568 25.362 145.034 25.6333 146.34 26.176C147.645 26.7187 148.76 27.4887 149.684 28.486C150.608 29.4833 151.312 30.6933 151.796 32.116C152.294 33.524 152.544 35.1007 152.544 36.846C152.544 38.606 152.294 40.19 151.796 41.598C151.312 43.006 150.608 44.2087 149.684 45.206C148.76 46.2033 147.645 46.9733 146.34 47.516C145.034 48.044 143.568 48.308 141.94 48.308C140.297 48.308 138.816 48.044 137.496 47.516C136.19 46.9733 135.076 46.2033 134.152 45.206C133.228 44.2087 132.516 43.006 132.018 41.598C131.534 40.19 131.292 38.606 131.292 36.846C131.292 35.1007 131.534 33.524 132.018 32.116C132.516 30.6933 133.228 29.4833 134.152 28.486C135.076 27.4887 136.19 26.7187 137.496 26.176C138.816 25.6333 140.297 25.362 141.94 25.362ZM141.94 45.25C144.14 45.25 145.782 44.5167 146.868 43.05C147.953 41.5687 148.496 39.508 148.496 36.868C148.496 34.2133 147.953 32.1453 146.868 30.664C145.782 29.1827 144.14 28.442 141.94 28.442C140.825 28.442 139.85 28.6327 139.014 29.014C138.192 29.3953 137.503 29.9453 136.946 30.664C136.403 31.3827 135.992 32.27 135.714 33.326C135.45 34.3673 135.318 35.548 135.318 36.868C135.318 39.508 135.86 41.5687 136.946 43.05C138.046 44.5167 139.71 45.25 141.94 45.25ZM159.908 30.18C160.612 28.6547 161.478 27.4667 162.504 26.616C163.531 25.7507 164.785 25.318 166.266 25.318C166.736 25.318 167.183 25.3693 167.608 25.472C168.048 25.5747 168.437 25.736 168.774 25.956L168.488 28.882C168.4 29.2487 168.18 29.432 167.828 29.432C167.623 29.432 167.322 29.388 166.926 29.3C166.53 29.212 166.083 29.168 165.584 29.168C164.88 29.168 164.25 29.2707 163.692 29.476C163.15 29.6813 162.658 29.9893 162.218 30.4C161.793 30.796 161.404 31.2947 161.052 31.896C160.715 32.4827 160.407 33.1573 160.128 33.92V48H156.19V25.714H158.434C158.86 25.714 159.153 25.7947 159.314 25.956C159.476 26.1173 159.586 26.396 159.644 26.792L159.908 30.18ZM174.946 15.594V48H171.03V15.594H174.946ZM194.496 31.016C193.763 30.0333 192.971 29.3513 192.12 28.97C191.269 28.574 190.316 28.376 189.26 28.376C187.192 28.376 185.601 29.1167 184.486 30.598C183.371 32.0793 182.814 34.1913 182.814 36.934C182.814 38.386 182.939 39.6327 183.188 40.674C183.437 41.7007 183.804 42.5513 184.288 43.226C184.772 43.886 185.366 44.37 186.07 44.678C186.774 44.986 187.573 45.14 188.468 45.14C189.759 45.14 190.881 44.8467 191.834 44.26C192.802 43.6733 193.689 42.8447 194.496 41.774V31.016ZM198.412 15.594V48H196.08C195.523 48 195.171 47.7287 195.024 47.186L194.672 44.48C193.719 45.624 192.633 46.548 191.416 47.252C190.199 47.956 188.791 48.308 187.192 48.308C185.916 48.308 184.757 48.066 183.716 47.582C182.675 47.0833 181.787 46.3573 181.054 45.404C180.321 44.4507 179.756 43.2627 179.36 41.84C178.964 40.4173 178.766 38.782 178.766 36.934C178.766 35.2913 178.986 33.766 179.426 32.358C179.866 30.9353 180.497 29.7033 181.318 28.662C182.139 27.6207 183.144 26.8067 184.332 26.22C185.535 25.6187 186.884 25.318 188.38 25.318C189.744 25.318 190.91 25.5527 191.878 26.022C192.861 26.4767 193.733 27.1147 194.496 27.936V15.594H198.412ZM46.6139 70.714V93H42.6979V70.714H46.6139ZM47.4499 63.718C47.4499 64.0993 47.3692 64.4587 47.2079 64.796C47.0612 65.1187 46.8559 65.412 46.5919 65.676C46.3425 65.9253 46.0419 66.1233 45.6899 66.27C45.3525 66.4167 44.9932 66.49 44.6119 66.49C44.2305 66.49 43.8712 66.4167 43.5339 66.27C43.2112 66.1233 42.9252 65.9253 42.6759 65.676C42.4265 65.412 42.2285 65.1187 42.0819 64.796C41.9352 64.4587 41.8619 64.0993 41.8619 63.718C41.8619 63.3367 41.9352 62.9773 42.0819 62.64C42.2285 62.288 42.4265 61.9873 42.6759 61.738C42.9252 61.474 43.2112 61.2687 43.5339 61.122C43.8712 60.9753 44.2305 60.902 44.6119 60.902C44.9932 60.902 45.3525 60.9753 45.6899 61.122C46.0419 61.2687 46.3425 61.474 46.5919 61.738C46.8559 61.9873 47.0612 62.288 47.2079 62.64C47.3692 62.9773 47.4499 63.3367 47.4499 63.718ZM55.4242 73.948C55.9082 73.4053 56.4215 72.914 56.9642 72.474C57.5068 72.034 58.0788 71.66 58.6802 71.352C59.2962 71.0293 59.9415 70.7873 60.6162 70.626C61.3055 70.45 62.0462 70.362 62.8382 70.362C64.0555 70.362 65.1262 70.5673 66.0502 70.978C66.9888 71.374 67.7662 71.946 68.3822 72.694C69.0128 73.4273 69.4895 74.3147 69.8122 75.356C70.1348 76.3973 70.2962 77.5487 70.2962 78.81V93H66.3582V78.81C66.3582 77.1233 65.9695 75.818 65.1922 74.894C64.4295 73.9553 63.2635 73.486 61.6942 73.486C60.5355 73.486 59.4502 73.7647 58.4382 74.322C57.4408 74.8793 56.5168 75.6347 55.6662 76.588V93H51.7282V70.714H54.0822C54.6395 70.714 54.9842 70.9853 55.1162 71.528L55.4242 73.948ZM113.129 77.248C113.129 79.6093 112.755 81.758 112.007 83.694C111.259 85.63 110.203 87.2873 108.839 88.666C107.475 90.0447 105.832 91.1153 103.911 91.878C102.004 92.626 99.8925 93 97.5751 93H85.8051V61.474H97.5751C99.8925 61.474 102.004 61.8553 103.911 62.618C105.832 63.366 107.475 64.4367 108.839 65.83C110.203 67.2087 111.259 68.866 112.007 70.802C112.755 72.738 113.129 74.8867 113.129 77.248ZM108.751 77.248C108.751 75.312 108.487 73.5813 107.959 72.056C107.431 70.5307 106.683 69.24 105.715 68.184C104.747 67.128 103.574 66.3213 102.195 65.764C100.816 65.2067 99.2765 64.928 97.5751 64.928H90.0731V89.546H97.5751C99.2765 89.546 100.816 89.2673 102.195 88.71C103.574 88.1527 104.747 87.3533 105.715 86.312C106.683 85.256 107.431 83.9653 107.959 82.44C108.487 80.9147 108.751 79.184 108.751 77.248ZM128.553 82.968C126.749 83.0267 125.209 83.1733 123.933 83.408C122.672 83.628 121.638 83.9213 120.831 84.288C120.039 84.6547 119.46 85.0873 119.093 85.586C118.741 86.0847 118.565 86.642 118.565 87.258C118.565 87.8447 118.661 88.3507 118.851 88.776C119.042 89.2013 119.299 89.5533 119.621 89.832C119.959 90.096 120.347 90.294 120.787 90.426C121.242 90.5433 121.726 90.602 122.239 90.602C122.929 90.602 123.559 90.536 124.131 90.404C124.703 90.2573 125.239 90.052 125.737 89.788C126.251 89.524 126.735 89.2087 127.189 88.842C127.659 88.4753 128.113 88.0573 128.553 87.588V82.968ZM115.903 73.86C117.135 72.672 118.463 71.7847 119.885 71.198C121.308 70.6113 122.885 70.318 124.615 70.318C125.862 70.318 126.969 70.5233 127.937 70.934C128.905 71.3447 129.719 71.9167 130.379 72.65C131.039 73.3833 131.538 74.2707 131.875 75.312C132.213 76.3533 132.381 77.4973 132.381 78.744V93H130.643C130.262 93 129.969 92.9413 129.763 92.824C129.558 92.692 129.397 92.4427 129.279 92.076L128.839 89.964C128.253 90.5067 127.681 90.9907 127.123 91.416C126.566 91.8267 125.979 92.1787 125.363 92.472C124.747 92.7507 124.087 92.9633 123.383 93.11C122.694 93.2713 121.924 93.352 121.073 93.352C120.208 93.352 119.394 93.2347 118.631 93C117.869 92.7507 117.201 92.384 116.629 91.9C116.072 91.416 115.625 90.8073 115.287 90.074C114.965 89.326 114.803 88.446 114.803 87.434C114.803 86.554 115.045 85.7107 115.529 84.904C116.013 84.0827 116.798 83.3567 117.883 82.726C118.969 82.0953 120.384 81.582 122.129 81.186C123.875 80.7753 126.016 80.5407 128.553 80.482V78.744C128.553 77.0133 128.179 75.708 127.431 74.828C126.683 73.9333 125.591 73.486 124.153 73.486C123.185 73.486 122.371 73.6107 121.711 73.86C121.066 74.0947 120.501 74.366 120.017 74.674C119.548 74.9673 119.137 75.2387 118.785 75.488C118.448 75.7227 118.111 75.84 117.773 75.84C117.509 75.84 117.282 75.774 117.091 75.642C116.901 75.4953 116.739 75.3193 116.607 75.114L115.903 73.86ZM143.568 93.352C141.808 93.352 140.451 92.8607 139.498 91.878C138.559 90.8953 138.09 89.48 138.09 87.632V73.992H135.406C135.171 73.992 134.973 73.926 134.812 73.794C134.65 73.6473 134.57 73.4273 134.57 73.134V71.572L138.222 71.11L139.124 64.224C139.168 64.004 139.263 63.828 139.41 63.696C139.571 63.5493 139.776 63.476 140.026 63.476H142.006V71.154H148.452V73.992H142.006V87.368C142.006 88.3067 142.233 89.0033 142.688 89.458C143.142 89.9127 143.729 90.14 144.448 90.14C144.858 90.14 145.21 90.0887 145.504 89.986C145.812 89.8687 146.076 89.744 146.296 89.612C146.516 89.48 146.699 89.3627 146.846 89.26C147.007 89.1427 147.146 89.084 147.264 89.084C147.469 89.084 147.652 89.2087 147.814 89.458L148.958 91.328C148.283 91.9587 147.469 92.4573 146.516 92.824C145.562 93.176 144.58 93.352 143.568 93.352ZM163.253 82.968C161.449 83.0267 159.909 83.1733 158.633 83.408C157.372 83.628 156.338 83.9213 155.531 84.288C154.739 84.6547 154.16 85.0873 153.793 85.586C153.441 86.0847 153.265 86.642 153.265 87.258C153.265 87.8447 153.36 88.3507 153.551 88.776C153.742 89.2013 153.998 89.5533 154.321 89.832C154.658 90.096 155.047 90.294 155.487 90.426C155.942 90.5433 156.426 90.602 156.939 90.602C157.628 90.602 158.259 90.536 158.831 90.404C159.403 90.2573 159.938 90.052 160.437 89.788C160.95 89.524 161.434 89.2087 161.889 88.842C162.358 88.4753 162.813 88.0573 163.253 87.588V82.968ZM150.603 73.86C151.835 72.672 153.162 71.7847 154.585 71.198C156.008 70.6113 157.584 70.318 159.315 70.318C160.562 70.318 161.669 70.5233 162.637 70.934C163.605 71.3447 164.419 71.9167 165.079 72.65C165.739 73.3833 166.238 74.2707 166.575 75.312C166.912 76.3533 167.081 77.4973 167.081 78.744V93H165.343C164.962 93 164.668 92.9413 164.463 92.824C164.258 92.692 164.096 92.4427 163.979 92.076L163.539 89.964C162.952 90.5067 162.38 90.9907 161.823 91.416C161.266 91.8267 160.679 92.1787 160.063 92.472C159.447 92.7507 158.787 92.9633 158.083 93.11C157.394 93.2713 156.624 93.352 155.773 93.352C154.908 93.352 154.094 93.2347 153.331 93C152.568 92.7507 151.901 92.384 151.329 91.9C150.772 91.416 150.324 90.8073 149.987 90.074C149.664 89.326 149.503 88.446 149.503 87.434C149.503 86.554 149.745 85.7107 150.229 84.904C150.713 84.0827 151.498 83.3567 152.583 82.726C153.668 82.0953 155.084 81.582 156.829 81.186C158.574 80.7753 160.716 80.5407 163.253 80.482V78.744C163.253 77.0133 162.879 75.708 162.131 74.828C161.383 73.9333 160.29 73.486 158.853 73.486C157.885 73.486 157.071 73.6107 156.411 73.86C155.766 74.0947 155.201 74.366 154.717 74.674C154.248 74.9673 153.837 75.2387 153.485 75.488C153.148 75.7227 152.81 75.84 152.473 75.84C152.209 75.84 151.982 75.774 151.791 75.642C151.6 75.4953 151.439 75.3193 151.307 75.114L150.603 73.86Z" fill="white"/>
        <rect y="106.789" width="210" height="13.211" fill="#D42B21"/>
    </g>
    <defs>
        <clipPath id="clip0">
            <rect width="210" height="120" fill="white"/>
        </clipPath>
    </defs>
</svg></g><a href="https://staging-owid.netlify.com/grapher/children-died-before-five-per-woman" target="_blank"><text font-size="25.20" x="15.0" y="35.2" fill="#555"><tspan x="15" y="35.160000000000004">Number of children per mother who died before their 5th birthday</tspan></text></a><text font-size="14.40" x="15.0" y="53.7" fill="#666"><tspan x="15" y="53.72">This data is based on estimates of fertility and child mortality published by Gapminder. Particularly for the earlier</tspan><tspan x="15" y="69.56">period this data comes with high uncertainty</tspan></text></g><g class="LineChart"><defs><clipPath id="boundsClip-703"><rect x="32.68" y="0" width="830" height="932.8"></rect></clipPath></defs><g class="AxisBoxView"><g class="HorizontalAxis"><text x="42.7" y="556.5" fill="#666" text-anchor="middle" font-size="16.2">1800</text><text x="204.1" y="556.5" fill="#666" text-anchor="middle" font-size="16.2">1850</text><text x="365.5" y="556.5" fill="#666" text-anchor="middle" font-size="16.2">1900</text><text x="527" y="556.5" fill="#666" text-anchor="middle" font-size="16.2">1950</text><text x="688.4" y="556.5" fill="#666" text-anchor="middle" font-size="16.2">2000</text><text x="736.8" y="556.5" fill="#666" text-anchor="middle" font-size="16.2">2015</text></g><g class="VerticalAxis"><text x="37.68" y="535.3" fill="#666" dominant-baseline="middle" text-anchor="end" font-size="16.2">0</text><text x="37.68" y="475.5" fill="#666" dominant-baseline="middle" text-anchor="end" font-size="16.2">0.5</text><text x="37.68" y="415.6" fill="#666" dominant-baseline="middle" text-anchor="end" font-size="16.2">1</text><text x="37.68" y="355.8" fill="#666" dominant-baseline="middle" text-anchor="end" font-size="16.2">1.5</text><text x="37.68" y="295.9" fill="#666" dominant-baseline="middle" text-anchor="end" font-size="16.2">2</text><text x="37.68" y="236.1" fill="#666" dominant-baseline="middle" text-anchor="end" font-size="16.2">2.5</text><text x="37.68" y="176.2" fill="#666" dominant-baseline="middle" text-anchor="end" font-size="16.2">3</text><text x="37.68" y="116.4" fill="#666" dominant-baseline="middle" text-anchor="end" font-size="16.2">3.5</text></g><g class="AxisGridLines"><line x1="42.68" y1="535.3" x2="736.82" y2="535.3" stroke="#ccc"></line><line x1="42.68" y1="475.5" x2="736.82" y2="475.5" stroke="#ddd" stroke-dasharray="3,2"></line><line x1="42.68" y1="415.6" x2="736.82" y2="415.6" stroke="#ddd" stroke-dasharray="3,2"></line><line x1="42.68" y1="355.8" x2="736.82" y2="355.8" stroke="#ddd" stroke-dasharray="3,2"></line><line x1="42.68" y1="295.9" x2="736.82" y2="295.9" stroke="#ddd" stroke-dasharray="3,2"></line><line x1="42.68" y1="236.1" x2="736.82" y2="236.1" stroke="#ddd" stroke-dasharray="3,2"></line><line x1="42.68" y1="176.2" x2="736.82" y2="176.2" stroke="#ddd" stroke-dasharray="3,2"></line><line x1="42.68" y1="116.4" x2="736.82" y2="116.4" stroke="#ddd" stroke-dasharray="3,2"></line></g></g><g clip-path="url(#boundsClip-703)"><g class="HeightedLegend clickable"><g class="legendMark"><g class="indicator"><line x1="741.8199999999999" y1="527.9" x2="764.3199999999999" y2="527.9" stroke="#666" stroke-width="0.5"></line><line x1="764.3199999999999" y1="527.9" x2="764.3199999999999" y2="527.9" stroke="#666" stroke-width="0.5"></line><line x1="764.3199999999999" y1="527.9" x2="766.8199999999999" y2="527.9" stroke="#666" stroke-width="0.5"></line></g><rect x="736.8199999999999" y="521.15" width="93.86000000000001" height="13.5" fill="#fff" opacity="0"></rect><text font-size="13.50" x="771.8" y="531.9" fill="#3360a9"><tspan x="771.8199999999999" y="531.9499999999999">Indonesia</tspan></text></g><g class="legendMark"><g class="indicator"><line x1="741.8199999999999" y1="521.4" x2="759.3199999999999" y2="521.4" stroke="#666" stroke-width="0.5"></line><line x1="759.3199999999999" y1="521.4" x2="759.3199999999999" y2="512.4" stroke="#666" stroke-width="0.5"></line><line x1="759.3199999999999" y1="512.4" x2="766.8199999999999" y2="512.4" stroke="#666" stroke-width="0.5"></line></g><rect x="736.8199999999999" y="505.65" width="64.43" height="13.5" fill="#fff" opacity="0"></rect><text font-size="13.50" x="771.8" y="516.4" fill="#ca2628"><tspan x="771.8199999999999" y="516.4499999999999">India</tspan></text></g><g class="legendMark"><g class="indicator"><line x1="741.8199999999999" y1="513.5" x2="754.3199999999999" y2="513.5" stroke="#666" stroke-width="0.5"></line><line x1="754.3199999999999" y1="513.5" x2="754.3199999999999" y2="496.9" stroke="#666" stroke-width="0.5"></line><line x1="754.3199999999999" y1="496.9" x2="766.8199999999999" y2="496.9" stroke="#666" stroke-width="0.5"></line></g><rect x="736.8199999999999" y="490.15" width="77.93" height="13.5" fill="#fff" opacity="0"></rect><text font-size="13.50" x="771.8" y="500.9" fill="#34983f"><tspan x="771.8199999999999" y="500.95">Yemen</tspan></text></g><g class="legendMark"><g class="indicator"><line x1="741.8199999999999" y1="489.2" x2="749.3199999999999" y2="489.2" stroke="#666" stroke-width="0.5"></line><line x1="749.3199999999999" y1="489.2" x2="749.3199999999999" y2="481.4" stroke="#666" stroke-width="0.5"></line><line x1="749.3199999999999" y1="481.4" x2="766.8199999999999" y2="481.4" stroke="#666" stroke-width="0.5"></line></g><rect x="736.8199999999999" y="474.65" width="98.18" height="13.5" fill="#fff" opacity="0"></rect><text font-size="13.50" x="771.8" y="485.4" fill="#f6a324"><tspan x="771.8199999999999" y="485.45">Mauritania</tspan></text></g><g class="legendMark"><g class="indicator"><line x1="741.8199999999999" y1="449.4" x2="754.3199999999999" y2="449.4" stroke="#666" stroke-width="0.5"></line><line x1="754.3199999999999" y1="449.4" x2="754.3199999999999" y2="449.4" stroke="#666" stroke-width="0.5"></line><line x1="754.3199999999999" y1="449.4" x2="766.8199999999999" y2="449.4" stroke="#666" stroke-width="0.5"></line></g><rect x="736.8199999999999" y="442.65" width="67.265" height="13.5" fill="#fff" opacity="0"></rect><text font-size="13.50" x="771.8" y="453.4" fill="#a652ba"><tspan x="771.8199999999999" y="453.45">Niger</tspan></text></g></g><g class="Lines"><rect x="43" y="90" width="694" height="445" fill="rgba(255,255,255,0)" opacity="0"></rect><g class="key-India_0"><path stroke="#ca2628" stroke-linecap="round" d="M43 173L46 173L49 173L52 173L56 173L59 173L62 173L65 173L69 173L72 173L75 173L78 173L81 173L85 173L88 173L91 173L94 173L98 173L101 173L104 173L107 173L111 173L114 173L117 173L120 173L123 173L127 173L130 173L133 173L136 173L140 173L143 173L146 173L149 173L153 173L156 173L159 173L162 173L165 173L169 173L172 173L175 173L178 173L182 173L185 173L188 173L191 173L194 173L198 173L201 173L204 173L207 173L211 173L214 173L217 173L220 173L224 173L227 173L230 173L233 173L236 173L240 173L243 173L246 173L249 173L253 173L256 173L259 173L262 173L266 173L269 173L272 173L275 173L278 173L282 173L285 173L288 173L291 173L295 173L298 173L301 173L304 174L307 175L311 176L314 177L317 178L320 179L324 177L327 176L330 175L333 174L337 173L340 173L343 172L346 171L349 171L353 170L356 169L359 168L362 168L366 168L369 167L372 184L375 201L379 216L382 231L385 246L388 259L391 272L395 284L398 296L401 307L404 304L408 319L411 300L414 311L417 311L420 307L424 238L427 285L430 317L433 313L437 339L440 337L443 322L446 339L450 321L453 346L456 339L459 333L462 329L466 331L469 342L472 339L475 320L479 346L482 348L485 348L488 342L491 355L495 350L498 353L501 347L504 345L508 340L511 362L514 359L517 356L521 353L524 350L527 347L530 344L533 341L537 338L540 341L543 345L546 348L550 351L553 355L556 358L559 361L563 365L566 368L569 371L572 373L575 376L579 380L582 383L585 387L588 391L592 395L595 399L598 404L601 409L604 413L608 418L611 422L614 427L617 432L621 437L624 441L627 446L630 450L634 454L637 458L640 461L643 464L646 468L650 471L653 474L656 477L659 480L663 483L666 485L669 488L672 490L676 492L679 495L682 497L685 499L688 501L692 503L695 505L698 507L701 509L705 510L708 512L711 513L714 515L717 516L721 517L724 518L727 519L730 520L734 521L737 521" fill="none" stroke-width="1.5"></path></g><g class="key-Indonesia_0"><path stroke="#3360a9" stroke-linecap="round" d="M43 213L46 213L49 213L52 213L56 213L59 213L62 213L65 213L69 213L72 213L75 213L78 213L81 213L85 213L88 213L91 213L94 213L98 213L101 213L104 213L107 213L111 213L114 213L117 213L120 213L123 213L127 213L130 213L133 213L136 213L140 213L143 213L146 213L149 213L153 213L156 213L159 213L162 213L165 213L169 213L172 213L175 213L178 213L182 213L185 213L188 213L191 213L194 213L198 213L201 213L204 213L207 213L211 213L214 213L217 213L220 213L224 213L227 213L230 213L233 213L236 213L240 213L243 213L246 213L249 213L253 213L256 213L259 213L262 213L266 213L269 213L272 213L275 213L278 213L282 213L285 213L288 213L291 213L295 213L298 213L301 213L304 213L307 213L311 213L314 213L317 213L320 213L324 213L327 213L330 213L333 213L337 213L340 213L343 213L346 213L349 213L353 213L356 214L359 214L362 214L366 215L369 215L372 216L375 217L379 219L382 222L385 217L388 207L391 209L395 211L398 213L401 216L404 218L408 220L411 234L414 241L417 248L420 256L424 263L427 270L430 257L433 258L437 259L440 260L443 261L446 262L450 263L453 264L456 269L459 274L462 279L466 284L469 289L472 293L475 298L479 303L482 307L485 311L488 301L491 291L495 281L498 270L501 279L504 289L508 298L511 306L514 314L517 322L521 330L524 337L527 345L530 350L533 353L537 356L540 359L543 363L546 367L550 371L553 376L556 380L559 385L563 389L566 393L569 397L572 401L575 405L579 409L582 413L585 418L588 422L592 427L595 431L598 436L601 441L604 446L608 450L611 455L614 459L617 463L621 467L624 471L627 475L630 479L634 482L637 486L640 489L643 492L646 495L650 498L653 501L656 504L659 506L663 508L666 510L669 512L672 514L676 515L679 517L682 518L685 519L688 520L692 521L695 521L698 522L701 521L705 523L708 524L711 524L714 525L717 525L721 526L724 526L727 527L730 527L734 528L737 528" fill="none" stroke-width="1.5"></path></g><g class="key-Mauritania_0"><path stroke="#f6a324" stroke-linecap="round" d="M43 219L46 219L49 219L52 219L56 219L59 219L62 219L65 219L69 219L72 219L75 219L78 219L81 219L85 219L88 219L91 219L94 219L98 219L101 219L104 219L107 219L111 219L114 219L117 219L120 219L123 219L127 219L130 219L133 219L136 219L140 219L143 219L146 219L149 219L153 219L156 219L159 219L162 219L165 219L169 219L172 219L175 219L178 219L182 219L185 219L188 219L191 219L194 219L198 219L201 219L204 219L207 219L211 219L214 219L217 219L220 219L224 219L227 219L230 219L233 219L236 219L240 219L243 219L246 219L249 219L253 219L256 219L259 219L262 219L266 219L269 219L272 219L275 219L278 219L282 219L285 219L288 219L291 219L295 219L298 219L301 219L304 219L307 219L311 219L314 219L317 219L320 219L324 219L327 219L330 219L333 219L337 219L340 219L343 219L346 219L349 219L353 219L356 219L359 219L362 219L366 219L369 220L372 221L375 222L379 223L382 224L385 225L388 226L391 228L395 229L398 230L401 231L404 233L408 234L411 235L414 237L417 238L420 239L424 241L427 242L430 243L433 244L437 246L440 247L443 248L446 250L450 251L453 253L456 255L459 256L462 258L466 260L469 261L472 263L475 264L479 266L482 268L485 269L488 271L491 272L495 274L498 277L501 280L504 282L508 285L511 288L514 290L517 293L521 297L524 300L527 304L530 305L533 305L537 305L540 306L543 308L546 311L550 314L553 318L556 323L559 328L563 333L566 339L569 344L572 349L575 355L579 360L582 365L585 371L588 375L592 378L595 380L598 381L601 383L604 384L608 387L611 391L614 395L617 400L621 404L624 409L627 414L630 418L634 423L637 428L640 432L643 437L646 441L650 445L653 448L656 451L659 453L663 455L666 456L669 457L672 458L676 459L679 459L682 460L685 461L688 462L692 463L695 464L698 465L701 467L705 468L708 470L711 472L714 474L717 477L721 479L724 481L727 483L730 485L734 487L737 489" fill="none" stroke-width="1.5"></path></g><g class="key-Niger_0"><path stroke="#a652ba" stroke-linecap="round" d="M43 181L46 181L49 181L52 181L56 181L59 181L62 181L65 181L69 181L72 181L75 181L78 181L81 181L85 181L88 181L91 181L94 181L98 181L101 181L104 181L107 181L111 181L114 181L117 181L120 181L123 181L127 181L130 181L133 181L136 181L140 181L143 181L146 181L149 181L153 181L156 181L159 181L162 181L165 181L169 181L172 181L175 181L178 181L182 181L185 181L188 181L191 181L194 181L198 181L201 181L204 181L207 181L211 181L214 181L217 181L220 181L224 181L227 181L230 181L233 181L236 181L240 181L243 181L246 181L249 181L253 181L256 181L259 181L262 181L266 181L269 181L272 181L275 181L278 181L282 181L285 181L288 181L291 181L295 181L298 181L301 181L304 181L307 181L311 181L314 181L317 181L320 181L324 181L327 181L330 181L333 181L337 181L340 181L343 181L346 181L349 181L353 181L356 181L359 182L362 182L366 182L369 182L372 183L375 183L379 184L382 184L385 185L388 185L391 186L395 187L398 188L401 188L404 189L408 190L411 191L414 192L417 192L420 193L424 194L427 195L430 196L433 197L437 197L440 198L443 199L446 200L450 201L453 201L456 202L459 203L462 204L466 204L469 205L472 206L475 206L479 207L482 208L485 209L488 209L491 210L495 211L498 211L501 212L504 213L508 213L511 214L514 223L517 231L521 239L524 248L527 256L530 256L533 256L537 258L540 259L543 260L546 263L550 265L553 265L556 265L559 264L563 264L566 263L569 263L572 262L575 261L579 261L582 260L585 255L588 250L592 245L595 240L598 235L601 232L604 230L608 230L611 231L614 234L617 237L621 239L624 241L627 240L630 238L634 234L637 229L640 226L643 223L646 222L650 223L653 226L656 230L659 236L663 244L666 253L669 264L672 275L676 287L679 297L682 307L685 316L688 325L692 335L695 345L698 356L701 367L705 378L708 388L711 398L714 407L717 415L721 423L724 430L727 436L730 441L734 445L737 449" fill="none" stroke-width="1.5"></path></g><g class="key-Yemen_0"><path stroke="#34983f" stroke-linecap="round" d="M43 90L46 90L49 90L52 90L56 90L59 90L62 90L65 90L69 90L72 90L75 90L78 90L81 90L85 90L88 90L91 90L94 90L98 90L101 90L104 90L107 90L111 90L114 90L117 90L120 90L123 90L127 90L130 90L133 90L136 90L140 90L143 90L146 90L149 90L153 90L156 90L159 90L162 90L165 90L169 90L172 90L175 90L178 90L182 90L185 90L188 90L191 90L194 90L198 90L201 90L204 90L207 90L211 90L214 90L217 90L220 90L224 90L227 90L230 90L233 90L236 90L240 90L243 90L246 90L249 90L253 90L256 90L259 90L262 90L266 90L269 90L272 90L275 90L278 90L282 90L285 90L288 90L291 90L295 90L298 90L301 90L304 90L307 90L311 90L314 90L317 90L320 90L324 90L327 90L330 90L333 90L337 90L340 90L343 90L346 90L349 90L353 90L356 90L359 91L362 91L366 91L369 92L372 92L375 92L379 93L382 94L385 94L388 95L391 96L395 97L398 98L401 99L404 100L408 101L411 102L414 103L417 104L420 105L424 106L427 106L430 107L433 108L437 108L440 109L443 109L446 110L450 110L453 109L456 109L459 108L462 108L466 108L469 107L472 107L475 107L479 106L482 106L485 106L488 105L491 105L495 105L498 105L501 104L504 104L508 104L511 103L514 103L517 103L521 103L524 102L527 102L530 109L533 100L537 110L540 120L543 129L546 138L550 146L553 152L556 158L559 164L563 170L566 175L569 181L572 187L575 194L579 202L582 211L585 221L588 231L592 241L595 250L598 258L601 264L604 270L608 275L611 281L614 288L617 295L621 304L624 314L627 324L630 335L634 346L637 357L640 367L643 377L646 385L650 393L653 399L656 406L659 412L663 418L666 423L669 429L672 435L676 440L679 446L682 451L685 457L688 463L692 468L695 473L698 478L701 483L705 487L708 491L711 495L714 498L717 501L721 504L724 506L727 508L730 510L734 512L737 514" fill="none" stroke-width="1.5"></path></g></g></g></g><g class="SourcesFooter" style="fill:#777"><g class="clickable" style="fill:#777"><text font-size="12.60" x="15.0" y="581.6"><tspan x="15" y="581.58">Source: Children that died before 5 years of age per woman - based on Gapminder (2015)</tspan></text></g><text font-size="12.60" x="585.3" y="581.6"><tspan x="585.268" y="581.58"><a target='_blank' style='fill: #777;' href='https://ourworldindata.org/child-mortality/'>OurWorldInData.org/child-mortality/</a> • <a style="fill: #777;" class="cclogo" href="http://creativecommons.org/licenses/by/4.0/deed.en_US" target="_blank">CC BY</a></tspan></text></g></svg>