<svg xmlns="http://www.w3.org/2000/svg" version="1.1" style="font-family:Lato, &#x27;Helvetica Neue&#x27;, Helvetica, Arial, sans-serif;font-size:18px;background-color:white;text-rendering:optimizeLegibility;-webkit-font-smoothing:antialiased" width="850" height="600"><g class="HeaderView"><g transform="translate(774, 15) scale(0.29)"><svg width="210" height="120" viewBox="0 0 210 120" fill="none" xmlns="http://www.w3.org/2000/svg">
    <g clip-path="url(#clip0)">
        <path d="M0 0H210V107.89H0V0Z" fill="#002147"/>
        <path d="M40.9788 32.248C40.9788 34.6093 40.6048 36.78 39.8568 38.76C39.1088 40.7253 38.0528 42.4193 36.6888 43.842C35.3248 45.2647 33.6821 46.372 31.7608 47.164C29.8541 47.9413 27.7421 48.33 25.4248 48.33C23.1074 48.33 20.9954 47.9413 19.0888 47.164C17.1821 46.372 15.5468 45.2647 14.1828 43.842C12.8188 42.4193 11.7628 40.7253 11.0148 38.76C10.2668 36.78 9.89277 34.6093 9.89277 32.248C9.89277 29.8867 10.2668 27.7233 11.0148 25.758C11.7628 23.778 12.8188 22.0767 14.1828 20.654C15.5468 19.2167 17.1821 18.102 19.0888 17.31C20.9954 16.518 23.1074 16.122 25.4248 16.122C27.7421 16.122 29.8541 16.518 31.7608 17.31C33.6821 18.102 35.3248 19.2167 36.6888 20.654C38.0528 22.0767 39.1088 23.778 39.8568 25.758C40.6048 27.7233 40.9788 29.8867 40.9788 32.248ZM36.6008 32.248C36.6008 30.312 36.3368 28.574 35.8088 27.034C35.2808 25.494 34.5328 24.196 33.5648 23.14C32.5968 22.0693 31.4234 21.248 30.0448 20.676C28.6661 20.104 27.1261 19.818 25.4248 19.818C23.7381 19.818 22.2054 20.104 20.8268 20.676C19.4481 21.248 18.2674 22.0693 17.2848 23.14C16.3168 24.196 15.5688 25.494 15.0408 27.034C14.5128 28.574 14.2488 30.312 14.2488 32.248C14.2488 34.184 14.5128 35.922 15.0408 37.462C15.5688 38.9873 16.3168 40.2853 17.2848 41.356C18.2674 42.412 19.4481 43.226 20.8268 43.798C22.2054 44.3553 23.7381 44.634 25.4248 44.634C27.1261 44.634 28.6661 44.3553 30.0448 43.798C31.4234 43.226 32.5968 42.412 33.5648 41.356C34.5328 40.2853 35.2808 38.9873 35.8088 37.462C36.3368 35.922 36.6008 34.184 36.6008 32.248ZM62.8234 25.714V48H60.4914C59.9341 48 59.5821 47.7287 59.4354 47.186L59.1274 44.788C58.1594 45.8587 57.0741 46.724 55.8714 47.384C54.6687 48.0293 53.2901 48.352 51.7354 48.352C50.5181 48.352 49.4401 48.154 48.5014 47.758C47.5774 47.3473 46.8001 46.7753 46.1694 46.042C45.5387 45.3087 45.0621 44.4213 44.7394 43.38C44.4314 42.3387 44.2774 41.1873 44.2774 39.926V25.714H48.1934V39.926C48.1934 41.6127 48.5747 42.918 49.3374 43.842C50.1147 44.766 51.2954 45.228 52.8794 45.228C54.0381 45.228 55.1161 44.9567 56.1134 44.414C57.1254 43.8567 58.0567 43.094 58.9074 42.126V25.714H62.8234ZM71.4305 30.18C72.1346 28.6547 72.9999 27.4667 74.0266 26.616C75.0532 25.7507 76.3072 25.318 77.7886 25.318C78.2579 25.318 78.7052 25.3693 79.1306 25.472C79.5706 25.5747 79.9592 25.736 80.2966 25.956L80.0106 28.882C79.9226 29.2487 79.7026 29.432 79.3506 29.432C79.1452 29.432 78.8446 29.388 78.4486 29.3C78.0526 29.212 77.6052 29.168 77.1066 29.168C76.4026 29.168 75.7719 29.2707 75.2146 29.476C74.6719 29.6813 74.1806 29.9893 73.7406 30.4C73.3152 30.796 72.9266 31.2947 72.5746 31.896C72.2372 32.4827 71.9292 33.1573 71.6506 33.92V48H67.7125V25.714H69.9566C70.3819 25.714 70.6752 25.7947 70.8366 25.956C70.9979 26.1173 71.1079 26.396 71.1666 26.792L71.4305 30.18ZM132.589 16.474L122.755 48H118.927L110.941 23.954C110.867 23.7193 110.794 23.47 110.721 23.206C110.662 22.942 110.596 22.6633 110.523 22.37C110.449 22.6633 110.376 22.942 110.303 23.206C110.23 23.47 110.156 23.7193 110.083 23.954L102.053 48H98.2248L88.3908 16.474H91.9328C92.3142 16.474 92.6295 16.5693 92.8788 16.76C93.1428 16.9507 93.3115 17.1927 93.3848 17.486L99.8968 39.398C99.9995 39.794 100.095 40.2193 100.183 40.674C100.285 41.1287 100.381 41.6127 100.469 42.126C100.571 41.6127 100.674 41.1287 100.777 40.674C100.894 40.2047 101.019 39.7793 101.151 39.398L108.565 17.486C108.653 17.2367 108.821 17.0093 109.071 16.804C109.335 16.584 109.65 16.474 110.017 16.474H111.249C111.63 16.474 111.938 16.5693 112.173 16.76C112.407 16.9507 112.583 17.1927 112.701 17.486L120.093 39.398C120.225 39.7793 120.342 40.19 120.445 40.63C120.562 41.07 120.672 41.532 120.775 42.016C120.848 41.532 120.929 41.07 121.017 40.63C121.105 40.19 121.2 39.7793 121.303 39.398L127.837 17.486C127.91 17.222 128.072 16.9873 128.321 16.782C128.585 16.5767 128.9 16.474 129.267 16.474H132.589ZM141.94 25.362C143.568 25.362 145.034 25.6333 146.34 26.176C147.645 26.7187 148.76 27.4887 149.684 28.486C150.608 29.4833 151.312 30.6933 151.796 32.116C152.294 33.524 152.544 35.1007 152.544 36.846C152.544 38.606 152.294 40.19 151.796 41.598C151.312 43.006 150.608 44.2087 149.684 45.206C148.76 46.2033 147.645 46.9733 146.34 47.516C145.034 48.044 143.568 48.308 141.94 48.308C140.297 48.308 138.816 48.044 137.496 47.516C136.19 46.9733 135.076 46.2033 134.152 45.206C133.228 44.2087 132.516 43.006 132.018 41.598C131.534 40.19 131.292 38.606 131.292 36.846C131.292 35.1007 131.534 33.524 132.018 32.116C132.516 30.6933 133.228 29.4833 134.152 28.486C135.076 27.4887 136.19 26.7187 137.496 26.176C138.816 25.6333 140.297 25.362 141.94 25.362ZM141.94 45.25C144.14 45.25 145.782 44.5167 146.868 43.05C147.953 41.5687 148.496 39.508 148.496 36.868C148.496 34.2133 147.953 32.1453 146.868 30.664C145.782 29.1827 144.14 28.442 141.94 28.442C140.825 28.442 139.85 28.6327 139.014 29.014C138.192 29.3953 137.503 29.9453 136.946 30.664C136.403 31.3827 135.992 32.27 135.714 33.326C135.45 34.3673 135.318 35.548 135.318 36.868C135.318 39.508 135.86 41.5687 136.946 43.05C138.046 44.5167 139.71 45.25 141.94 45.25ZM159.908 30.18C160.612 28.6547 161.478 27.4667 162.504 26.616C163.531 25.7507 164.785 25.318 166.266 25.318C166.736 25.318 167.183 25.3693 167.608 25.472C168.048 25.5747 168.437 25.736 168.774 25.956L168.488 28.882C168.4 29.2487 168.18 29.432 167.828 29.432C167.623 29.432 167.322 29.388 166.926 29.3C166.53 29.212 166.083 29.168 165.584 29.168C164.88 29.168 164.25 29.2707 163.692 29.476C163.15 29.6813 162.658 29.9893 162.218 30.4C161.793 30.796 161.404 31.2947 161.052 31.896C160.715 32.4827 160.407 33.1573 160.128 33.92V48H156.19V25.714H158.434C158.86 25.714 159.153 25.7947 159.314 25.956C159.476 26.1173 159.586 26.396 159.644 26.792L159.908 30.18ZM174.946 15.594V48H171.03V15.594H174.946ZM194.496 31.016C193.763 30.0333 192.971 29.3513 192.12 28.97C191.269 28.574 190.316 28.376 189.26 28.376C187.192 28.376 185.601 29.1167 184.486 30.598C183.371 32.0793 182.814 34.1913 182.814 36.934C182.814 38.386 182.939 39.6327 183.188 40.674C183.437 41.7007 183.804 42.5513 184.288 43.226C184.772 43.886 185.366 44.37 186.07 44.678C186.774 44.986 187.573 45.14 188.468 45.14C189.759 45.14 190.881 44.8467 191.834 44.26C192.802 43.6733 193.689 42.8447 194.496 41.774V31.016ZM198.412 15.594V48H196.08C195.523 48 195.171 47.7287 195.024 47.186L194.672 44.48C193.719 45.624 192.633 46.548 191.416 47.252C190.199 47.956 188.791 48.308 187.192 48.308C185.916 48.308 184.757 48.066 183.716 47.582C182.675 47.0833 181.787 46.3573 181.054 45.404C180.321 44.4507 179.756 43.2627 179.36 41.84C178.964 40.4173 178.766 38.782 178.766 36.934C178.766 35.2913 178.986 33.766 179.426 32.358C179.866 30.9353 180.497 29.7033 181.318 28.662C182.139 27.6207 183.144 26.8067 184.332 26.22C185.535 25.6187 186.884 25.318 188.38 25.318C189.744 25.318 190.91 25.5527 191.878 26.022C192.861 26.4767 193.733 27.1147 194.496 27.936V15.594H198.412ZM46.6139 70.714V93H42.6979V70.714H46.6139ZM47.4499 63.718C47.4499 64.0993 47.3692 64.4587 47.2079 64.796C47.0612 65.1187 46.8559 65.412 46.5919 65.676C46.3425 65.9253 46.0419 66.1233 45.6899 66.27C45.3525 66.4167 44.9932 66.49 44.6119 66.49C44.2305 66.49 43.8712 66.4167 43.5339 66.27C43.2112 66.1233 42.9252 65.9253 42.6759 65.676C42.4265 65.412 42.2285 65.1187 42.0819 64.796C41.9352 64.4587 41.8619 64.0993 41.8619 63.718C41.8619 63.3367 41.9352 62.9773 42.0819 62.64C42.2285 62.288 42.4265 61.9873 42.6759 61.738C42.9252 61.474 43.2112 61.2687 43.5339 61.122C43.8712 60.9753 44.2305 60.902 44.6119 60.902C44.9932 60.902 45.3525 60.9753 45.6899 61.122C46.0419 61.2687 46.3425 61.474 46.5919 61.738C46.8559 61.9873 47.0612 62.288 47.2079 62.64C47.3692 62.9773 47.4499 63.3367 47.4499 63.718ZM55.4242 73.948C55.9082 73.4053 56.4215 72.914 56.9642 72.474C57.5068 72.034 58.0788 71.66 58.6802 71.352C59.2962 71.0293 59.9415 70.7873 60.6162 70.626C61.3055 70.45 62.0462 70.362 62.8382 70.362C64.0555 70.362 65.1262 70.5673 66.0502 70.978C66.9888 71.374 67.7662 71.946 68.3822 72.694C69.0128 73.4273 69.4895 74.3147 69.8122 75.356C70.1348 76.3973 70.2962 77.5487 70.2962 78.81V93H66.3582V78.81C66.3582 77.1233 65.9695 75.818 65.1922 74.894C64.4295 73.9553 63.2635 73.486 61.6942 73.486C60.5355 73.486 59.4502 73.7647 58.4382 74.322C57.4408 74.8793 56.5168 75.6347 55.6662 76.588V93H51.7282V70.714H54.0822C54.6395 70.714 54.9842 70.9853 55.1162 71.528L55.4242 73.948ZM113.129 77.248C113.129 79.6093 112.755 81.758 112.007 83.694C111.259 85.63 110.203 87.2873 108.839 88.666C107.475 90.0447 105.832 91.1153 103.911 91.878C102.004 92.626 99.8925 93 97.5751 93H85.8051V61.474H97.5751C99.8925 61.474 102.004 61.8553 103.911 62.618C105.832 63.366 107.475 64.4367 108.839 65.83C110.203 67.2087 111.259 68.866 112.007 70.802C112.755 72.738 113.129 74.8867 113.129 77.248ZM108.751 77.248C108.751 75.312 108.487 73.5813 107.959 72.056C107.431 70.5307 106.683 69.24 105.715 68.184C104.747 67.128 103.574 66.3213 102.195 65.764C100.816 65.2067 99.2765 64.928 97.5751 64.928H90.0731V89.546H97.5751C99.2765 89.546 100.816 89.2673 102.195 88.71C103.574 88.1527 104.747 87.3533 105.715 86.312C106.683 85.256 107.431 83.9653 107.959 82.44C108.487 80.9147 108.751 79.184 108.751 77.248ZM128.553 82.968C126.749 83.0267 125.209 83.1733 123.933 83.408C122.672 83.628 121.638 83.9213 120.831 84.288C120.039 84.6547 119.46 85.0873 119.093 85.586C118.741 86.0847 118.565 86.642 118.565 87.258C118.565 87.8447 118.661 88.3507 118.851 88.776C119.042 89.2013 119.299 89.5533 119.621 89.832C119.959 90.096 120.347 90.294 120.787 90.426C121.242 90.5433 121.726 90.602 122.239 90.602C122.929 90.602 123.559 90.536 124.131 90.404C124.703 90.2573 125.239 90.052 125.737 89.788C126.251 89.524 126.735 89.2087 127.189 88.842C127.659 88.4753 128.113 88.0573 128.553 87.588V82.968ZM115.903 73.86C117.135 72.672 118.463 71.7847 119.885 71.198C121.308 70.6113 122.885 70.318 124.615 70.318C125.862 70.318 126.969 70.5233 127.937 70.934C128.905 71.3447 129.719 71.9167 130.379 72.65C131.039 73.3833 131.538 74.2707 131.875 75.312C132.213 76.3533 132.381 77.4973 132.381 78.744V93H130.643C130.262 93 129.969 92.9413 129.763 92.824C129.558 92.692 129.397 92.4427 129.279 92.076L128.839 89.964C128.253 90.5067 127.681 90.9907 127.123 91.416C126.566 91.8267 125.979 92.1787 125.363 92.472C124.747 92.7507 124.087 92.9633 123.383 93.11C122.694 93.2713 121.924 93.352 121.073 93.352C120.208 93.352 119.394 93.2347 118.631 93C117.869 92.7507 117.201 92.384 116.629 91.9C116.072 91.416 115.625 90.8073 115.287 90.074C114.965 89.326 114.803 88.446 114.803 87.434C114.803 86.554 115.045 85.7107 115.529 84.904C116.013 84.0827 116.798 83.3567 117.883 82.726C118.969 82.0953 120.384 81.582 122.129 81.186C123.875 80.7753 126.016 80.5407 128.553 80.482V78.744C128.553 77.0133 128.179 75.708 127.431 74.828C126.683 73.9333 125.591 73.486 124.153 73.486C123.185 73.486 122.371 73.6107 121.711 73.86C121.066 74.0947 120.501 74.366 120.017 74.674C119.548 74.9673 119.137 75.2387 118.785 75.488C118.448 75.7227 118.111 75.84 117.773 75.84C117.509 75.84 117.282 75.774 117.091 75.642C116.901 75.4953 116.739 75.3193 116.607 75.114L115.903 73.86ZM143.568 93.352C141.808 93.352 140.451 92.8607 139.498 91.878C138.559 90.8953 138.09 89.48 138.09 87.632V73.992H135.406C135.171 73.992 134.973 73.926 134.812 73.794C134.65 73.6473 134.57 73.4273 134.57 73.134V71.572L138.222 71.11L139.124 64.224C139.168 64.004 139.263 63.828 139.41 63.696C139.571 63.5493 139.776 63.476 140.026 63.476H142.006V71.154H148.452V73.992H142.006V87.368C142.006 88.3067 142.233 89.0033 142.688 89.458C143.142 89.9127 143.729 90.14 144.448 90.14C144.858 90.14 145.21 90.0887 145.504 89.986C145.812 89.8687 146.076 89.744 146.296 89.612C146.516 89.48 146.699 89.3627 146.846 89.26C147.007 89.1427 147.146 89.084 147.264 89.084C147.469 89.084 147.652 89.2087 147.814 89.458L148.958 91.328C148.283 91.9587 147.469 92.4573 146.516 92.824C145.562 93.176 144.58 93.352 143.568 93.352ZM163.253 82.968C161.449 83.0267 159.909 83.1733 158.633 83.408C157.372 83.628 156.338 83.9213 155.531 84.288C154.739 84.6547 154.16 85.0873 153.793 85.586C153.441 86.0847 153.265 86.642 153.265 87.258C153.265 87.8447 153.36 88.3507 153.551 88.776C153.742 89.2013 153.998 89.5533 154.321 89.832C154.658 90.096 155.047 90.294 155.487 90.426C155.942 90.5433 156.426 90.602 156.939 90.602C157.628 90.602 158.259 90.536 158.831 90.404C159.403 90.2573 159.938 90.052 160.437 89.788C160.95 89.524 161.434 89.2087 161.889 88.842C162.358 88.4753 162.813 88.0573 163.253 87.588V82.968ZM150.603 73.86C151.835 72.672 153.162 71.7847 154.585 71.198C156.008 70.6113 157.584 70.318 159.315 70.318C160.562 70.318 161.669 70.5233 162.637 70.934C163.605 71.3447 164.419 71.9167 165.079 72.65C165.739 73.3833 166.238 74.2707 166.575 75.312C166.912 76.3533 167.081 77.4973 167.081 78.744V93H165.343C164.962 93 164.668 92.9413 164.463 92.824C164.258 92.692 164.096 92.4427 163.979 92.076L163.539 89.964C162.952 90.5067 162.38 90.9907 161.823 91.416C161.266 91.8267 160.679 92.1787 160.063 92.472C159.447 92.7507 158.787 92.9633 158.083 93.11C157.394 93.2713 156.624 93.352 155.773 93.352C154.908 93.352 154.094 93.2347 153.331 93C152.568 92.7507 151.901 92.384 151.329 91.9C150.772 91.416 150.324 90.8073 149.987 90.074C149.664 89.326 149.503 88.446 149.503 87.434C149.503 86.554 149.745 85.7107 150.229 84.904C150.713 84.0827 151.498 83.3567 152.583 82.726C153.668 82.0953 155.084 81.582 156.829 81.186C158.574 80.7753 160.716 80.5407 163.253 80.482V78.744C163.253 77.0133 162.879 75.708 162.131 74.828C161.383 73.9333 160.29 73.486 158.853 73.486C157.885 73.486 157.071 73.6107 156.411 73.86C155.766 74.0947 155.201 74.366 154.717 74.674C154.248 74.9673 153.837 75.2387 153.485 75.488C153.148 75.7227 152.81 75.84 152.473 75.84C152.209 75.84 151.982 75.774 151.791 75.642C151.6 75.4953 151.439 75.3193 151.307 75.114L150.603 73.86Z" fill="white"/>
        <rect y="106.789" width="210" height="13.211" fill="#D42B21"/>
    </g>
    <defs>
        <clipPath id="clip0">
            <rect width="210" height="120" fill="white"/>
        </clipPath>
    </defs>
</svg></g><a href="https://staging-owid.netlify.com/grapher/crop-production-in-england-over-the-long-term-million-tonnes" target="_blank"><text font-size="25.20" x="15.0" y="35.2" fill="#555"><tspan x="15" y="35.160000000000004">Crop production in England over the long-term, million tonnes</tspan></text></a><text font-size="14.40" x="15.0" y="53.7" fill="#666"><tspan x="15" y="53.72">Total agricultural output of arable crops in England from 1270-1870, measured in million tonnes per year.</tspan></text></g><g class="LineChart"><defs><clipPath id="boundsClip-919"><rect x="32.68" y="0" width="830" height="963.8"></rect></clipPath></defs><g class="AxisBoxView"><g class="HorizontalAxis"><text x="42.7" y="556.5" fill="#666" text-anchor="middle" font-size="16.2">1270</text><text x="195.2" y="556.5" fill="#666" text-anchor="middle" font-size="16.2">1400</text><text x="312.4" y="556.5" fill="#666" text-anchor="middle" font-size="16.2">1500</text><text x="429.7" y="556.5" fill="#666" text-anchor="middle" font-size="16.2">1600</text><text x="547" y="556.5" fill="#666" text-anchor="middle" font-size="16.2">1700</text><text x="664.3" y="556.5" fill="#666" text-anchor="middle" font-size="16.2">1800</text><text x="746.4" y="556.5" fill="#666" text-anchor="middle" font-size="16.2">1870</text></g><g class="VerticalAxis"><text x="37.68" y="535.3" fill="#666" dominant-baseline="middle" text-anchor="end" font-size="16.2">0</text><text x="37.68" y="461.8" fill="#666" dominant-baseline="middle" text-anchor="end" font-size="16.2">0.5</text><text x="37.68" y="388.4" fill="#666" dominant-baseline="middle" text-anchor="end" font-size="16.2">1</text><text x="37.68" y="315" fill="#666" dominant-baseline="middle" text-anchor="end" font-size="16.2">1.5</text><text x="37.68" y="241.6" fill="#666" dominant-baseline="middle" text-anchor="end" font-size="16.2">2</text><text x="37.68" y="168.2" fill="#666" dominant-baseline="middle" text-anchor="end" font-size="16.2">2.5</text><text x="37.68" y="94.8" fill="#666" dominant-baseline="middle" text-anchor="end" font-size="16.2">3</text></g><g class="AxisGridLines"><line x1="42.68" y1="535.3" x2="746.40" y2="535.3" stroke="#ccc"></line><line x1="42.68" y1="461.8" x2="746.40" y2="461.8" stroke="#ddd" stroke-dasharray="3,2"></line><line x1="42.68" y1="388.4" x2="746.40" y2="388.4" stroke="#ddd" stroke-dasharray="3,2"></line><line x1="42.68" y1="315" x2="746.40" y2="315" stroke="#ddd" stroke-dasharray="3,2"></line><line x1="42.68" y1="241.6" x2="746.40" y2="241.6" stroke="#ddd" stroke-dasharray="3,2"></line><line x1="42.68" y1="168.2" x2="746.40" y2="168.2" stroke="#ddd" stroke-dasharray="3,2"></line><line x1="42.68" y1="94.8" x2="746.40" y2="94.8" stroke="#ddd" stroke-dasharray="3,2"></line></g></g><g clip-path="url(#boundsClip-919)"><g class="HeightedLegend"><g class="legendMark"><g class="indicator"><line x1="751.405" y1="124" x2="763.905" y2="124" stroke="#666" stroke-width="0.5"></line><line x1="763.905" y1="124" x2="763.905" y2="124" stroke="#666" stroke-width="0.5"></line><line x1="763.905" y1="124" x2="776.405" y2="124" stroke="#666" stroke-width="0.5"></line></g><rect x="746.405" y="117.25" width="74.15" height="13.5" fill="#fff" opacity="0"></rect><text font-size="13.50" x="781.4" y="128.1" fill="#2a939b"><tspan x="781.405" y="128.05">Wheat</tspan></text></g><g class="legendMark"><g class="indicator"><line x1="751.405" y1="345.5" x2="763.905" y2="345.5" stroke="#666" stroke-width="0.5"></line><line x1="763.905" y1="345.5" x2="763.905" y2="345.5" stroke="#666" stroke-width="0.5"></line><line x1="763.905" y1="345.5" x2="776.405" y2="345.5" stroke="#666" stroke-width="0.5"></line></g><rect x="746.405" y="338.75" width="88.595" height="13.5" fill="#fff" opacity="0"></rect><text font-size="13.50" x="781.4" y="349.6" fill="#a652ba"><tspan x="781.405" y="349.55">Potatoes</tspan></text></g><g class="legendMark"><g class="indicator"><line x1="751.405" y1="389.2" x2="763.905" y2="389.2" stroke="#666" stroke-width="0.5"></line><line x1="763.905" y1="389.2" x2="763.905" y2="389.2" stroke="#666" stroke-width="0.5"></line><line x1="763.905" y1="389.2" x2="776.405" y2="389.2" stroke="#666" stroke-width="0.5"></line></g><rect x="746.405" y="382.45" width="73.34" height="13.5" fill="#fff" opacity="0"></rect><text font-size="13.50" x="781.4" y="393.3" fill="#f6a324"><tspan x="781.405" y="393.25">Barley</tspan></text></g><g class="legendMark"><g class="indicator"><line x1="751.405" y1="493.2" x2="773.905" y2="493.2" stroke="#666" stroke-width="0.5"></line><line x1="773.905" y1="493.2" x2="773.905" y2="493.2" stroke="#666" stroke-width="0.5"></line><line x1="773.905" y1="493.2" x2="776.405" y2="493.2" stroke="#666" stroke-width="0.5"></line></g><rect x="746.405" y="486.45" width="63.620000000000005" height="13.5" fill="#fff" opacity="0"></rect><text font-size="13.50" x="781.4" y="497.3" fill="#34983f"><tspan x="781.405" y="497.25">Oats</tspan></text></g><g class="legendMark"><g class="indicator"><line x1="751.405" y1="498.9" x2="763.905" y2="498.9" stroke="#666" stroke-width="0.5"></line><line x1="763.905" y1="498.9" x2="763.905" y2="508.7" stroke="#666" stroke-width="0.5"></line><line x1="763.905" y1="508.7" x2="776.405" y2="508.7" stroke="#666" stroke-width="0.5"></line></g><rect x="746.405" y="501.95" width="75.635" height="13.5" fill="#fff" opacity="0"></rect><text font-size="13.50" x="781.4" y="512.8" fill="#ca2628"><tspan x="781.405" y="512.75">Pulses</tspan></text></g><g class="legendMark"><g class="indicator"><line x1="751.405" y1="532" x2="763.905" y2="532" stroke="#666" stroke-width="0.5"></line><line x1="763.905" y1="532" x2="763.905" y2="532" stroke="#666" stroke-width="0.5"></line><line x1="763.905" y1="532" x2="776.405" y2="532" stroke="#666" stroke-width="0.5"></line></g><rect x="746.405" y="525.25" width="59.03" height="13.5" fill="#fff" opacity="0"></rect><text font-size="13.50" x="781.4" y="536.0" fill="#3360a9"><tspan x="781.405" y="536.05">Rye</tspan></text></g></g><g class="Lines"><rect x="43" y="75" width="704" height="461" fill="rgba(255,255,255,0)" opacity="0"></rect><g class="key-England_0"><path stroke="#2a939b" stroke-linecap="round" d="M43 470L44 476L45 448L46 474L47 479L49 434L50 473L51 449L52 425L53 472L54 469L56 462L57 458L58 481L59 460L60 457L61 457L63 428L64 437L65 461L66 463L67 452L69 453L70 460L71 463L72 446L73 436L74 442L76 424L77 448L78 456L79 446L80 452L81 438L83 476L84 451L85 452L86 451L87 456L88 442L90 466L91 436L92 446L93 437L94 445L96 486L97 496L98 470L99 429L100 436L101 444L103 480L104 469L105 466L106 474L107 441L108 434L110 454L111 472L112 457L113 455L114 463L115 449L117 430L118 444L119 461L120 455L121 436L122 441L124 497L125 449L126 472L127 455L128 470L130 440L131 448L132 477L133 470L134 460L135 502L137 499L138 495L139 466L140 489L141 493L142 481L144 493L145 491L146 481L147 485L148 484L149 485L151 492L152 504L153 472L154 483L155 471L156 497L158 482L159 501L160 484L161 485L162 503L164 479L165 495L166 503L167 468L168 466L169 476L171 495L172 488L173 481L174 475L175 483L176 463L178 486L179 467L180 465L181 492L182 483L183 508L185 480L186 450L187 498L188 465L189 489L191 490L192 488L193 479L194 494L195 505L196 504L198 500L199 486L200 483L201 477L202 498L203 488L205 501L206 497L207 483L208 489L209 498L210 502L212 497L213 500L214 509L215 484L216 505L217 501L219 502L220 517L221 508L222 497L223 488L225 497L226 495L227 504L228 520L229 509L230 500L232 506L233 510L234 508L235 505L236 513L237 504L239 518L240 521L241 514L242 502L243 518L244 519L246 492L247 477L248 513L249 511L250 488L252 511L253 507L254 510L255 505L256 504L257 503L259 497L260 498L261 499L262 519L263 505L264 506L266 507L267 510L268 485L269 474L270 485L271 498L273 510L274 498L275 497L276 488L277 500L278 514L280 518L281 500L282 508L283 501L284 521L286 521L287 505L288 499L289 480L290 498L291 514L293 509L294 507L295 512L296 489L297 500L298 498L300 497L301 506L302 497L303 497L304 497L372 480L373 502L375 444L376 461L377 469L378 496L379 475L381 427L382 449L383 482L384 472L385 465L386 422L388 460L389 447L390 433L391 429L392 443L393 439L395 462L396 481L397 495L398 456L399 499L400 461L402 437L403 506L404 452L405 443L406 467L407 471L409 477L410 444L411 431L412 477L413 498L415 454L416 431L417 468L418 444L419 468L420 464L422 453L423 503L424 486L425 502L426 505L427 488L429 456L430 450L431 470L432 443L433 436L434 446L436 454L437 445L438 470L439 477L440 435L442 391L443 450L444 404L445 442L446 454L447 434L449 467L450 431L451 439L452 460L453 378L454 436L456 464L457 464L458 423L459 419L460 429L461 424L463 358L464 456L465 456L466 457L467 407L468 449L470 420L471 395L472 420L473 399L474 397L476 398L477 384L478 448L479 433L480 450L481 424L483 446L484 454L485 439L486 430L487 474L488 483L490 460L491 437L492 401L493 388L494 373L495 404L497 436L498 464L499 454L500 439L501 449L502 435L504 444L505 434L506 421L507 394L508 383L510 444L511 413L512 419L513 432L514 454L515 447L517 477L518 461L519 395L520 434L521 407L522 429L524 364L525 420L526 407L527 400L528 441L529 397L531 452L532 369L533 416L534 435L535 410L537 426L538 373L539 463L540 350L541 411L542 433L544 420L545 438L546 440L547 401L548 424L549 435L551 446L552 378L553 376L554 421L555 402L556 466L558 488L559 458L560 411L561 420L562 466L563 399L565 448L566 439L567 426L568 395L569 420L571 378L572 389L573 423L574 399L575 421L576 404L578 462L579 438L580 396L581 412L582 435L583 432L585 374L586 370L587 418L588 464L589 341L590 349L592 414L593 400L594 435L595 397L596 365L597 405L599 440L600 443L601 414L602 359L603 430L605 409L606 414L607 450L608 419L609 434L610 427L612 421L613 416L614 375L615 361L616 379L617 385L619 355L620 381L621 375L622 371L623 348L624 426L626 374L627 365L628 333L629 370L630 379L632 414L633 350L634 376L635 346L636 371L637 338L639 365L640 360L641 338L642 290L643 345L644 374L646 345L647 343L648 316L649 390L650 360L651 383L653 365L654 343L655 353L656 322L657 402L658 363L660 352L661 334L662 332L663 374L664 411L666 326L667 339L668 353L669 406L670 356L671 310L673 295L674 351L675 356L676 363L677 399L678 374L680 306L681 398L682 340L683 359L684 301L685 329L687 388L688 270L689 310L690 318L691 320L693 308L694 269L695 316L696 289L697 394L698 372L700 347L701 337L702 293L703 308L704 294L705 232L707 223L708 208L709 260L710 305L711 226L712 295L714 225L715 220L716 93L717 185L718 188L719 163L721 207L722 180L723 267L724 271L725 219L727 365L728 163L729 262L730 233L731 230L732 179L734 221L735 415L736 357L737 399L738 76L739 145L741 245L742 208L743 180L744 75L745 106L746 124" fill="none" stroke-width="1.5"></path></g><g class="key-England_1"><path stroke="#a652ba" stroke-linecap="round" d="M547 535L548 534L549 535L551 531L552 531L553 532L554 526L555 527L556 528L558 528L559 523L560 523L561 528L562 528L563 522L565 522L566 520L567 520L568 516L569 514L571 515L572 515L573 515L574 514L575 513L576 512L578 509L579 507L580 511L581 517L582 521L583 521L585 522L586 520L587 515L588 512L589 509L590 507L592 506L593 504L594 502L595 501L596 505L597 505L599 503L600 499L601 497L602 496L603 495L605 493L606 490L607 490L608 489L609 488L610 488L612 487L613 486L614 486L615 485L616 485L617 484L619 484L620 483L621 483L622 483L623 482L624 481L626 481L627 481L628 480L629 479L630 479L632 478L633 477L634 476L635 475L636 474L637 473L639 472L640 471L641 470L642 469L643 469L644 468L646 468L647 467L648 465L649 464L650 463L651 462L653 460L654 459L655 457L656 456L657 455L658 454L660 452L661 451L662 449L663 448L664 446L666 446L667 445L668 444L669 442L670 441L671 439L673 438L674 436L675 435L676 434L677 432L678 431L680 429L681 427L682 425L683 423L684 421L685 420L687 418L688 416L689 414L690 412L691 410L693 408L694 406L695 404L696 402L697 400L698 398L700 396L701 394L702 393L703 391L704 389L705 387L707 385L708 385L709 385L710 384L711 384L712 384L714 383L715 383L716 382L717 382L718 381L719 381L721 381L722 380L723 380L724 379L725 379L727 378L728 378L729 377L730 377L731 376L732 376L734 375L735 375L736 374L737 373L738 373L739 372L741 372L742 371L743 382L744 362L745 347L746 346" fill="none" stroke-width="1.5"></path></g><g class="key-England_2"><path stroke="#f6a324" stroke-linecap="round" d="M43 490L44 484L45 487L46 490L47 494L49 468L50 496L51 487L52 482L53 513L54 504L56 484L57 496L58 495L59 492L60 496L61 491L63 483L64 485L65 497L66 503L67 513L69 502L70 496L71 495L72 484L73 494L74 500L76 491L77 486L78 488L79 486L80 482L81 484L83 487L84 493L85 499L86 489L87 484L88 484L90 476L91 486L92 481L93 479L94 485L96 493L97 499L98 500L99 491L100 485L101 482L103 500L104 493L105 481L106 493L107 486L108 485L110 484L111 491L112 483L113 491L114 499L115 491L117 487L118 498L119 493L120 490L121 481L122 473L124 483L125 489L126 489L127 480L128 486L130 480L131 495L132 495L133 484L134 484L135 506L137 504L138 504L139 515L140 500L141 500L142 488L144 497L145 498L146 502L147 496L148 499L149 512L151 500L152 488L153 488L154 497L155 488L156 487L158 508L159 506L160 478L161 485L162 483L164 473L165 487L166 487L167 480L168 477L169 472L171 480L172 484L173 485L174 484L175 501L176 479L178 501L179 486L180 485L181 487L182 491L183 486L185 481L186 468L187 492L188 499L189 496L191 497L192 506L193 491L194 489L195 491L196 497L198 486L199 493L200 493L201 495L202 492L203 501L205 507L206 497L207 490L208 499L209 491L210 512L212 500L213 500L214 505L215 494L216 491L217 491L219 487L220 501L221 497L222 492L223 499L225 496L226 503L227 492L228 494L229 500L230 494L232 506L233 508L234 492L235 477L236 494L237 510L239 505L240 503L241 499L242 499L243 512L244 514L246 486L247 499L248 517L249 495L250 507L252 498L253 512L254 503L255 505L256 506L257 507L259 502L260 503L261 504L262 504L263 507L264 502L266 497L267 495L268 482L269 482L270 515L271 513L273 508L274 503L275 492L276 508L277 503L278 504L280 485L281 515L282 488L283 506L284 518L286 507L287 511L288 486L289 510L290 507L291 505L293 491L294 503L295 512L296 507L297 509L298 506L300 503L301 492L302 495L303 505L304 505L370 505L371 505L372 495L373 485L375 483L376 508L377 496L378 517L379 517L381 469L382 499L383 499L384 501L385 491L386 504L388 482L389 480L390 461L391 496L392 463L393 487L395 507L396 471L397 478L398 470L399 498L400 492L402 493L403 500L404 481L405 482L406 473L407 478L409 476L410 454L411 480L412 482L413 503L415 478L416 466L417 490L418 494L419 505L420 473L422 454L423 495L424 497L425 503L426 516L427 484L429 450L430 490L431 480L432 487L433 454L434 423L436 485L437 503L438 477L439 500L440 460L442 465L443 425L444 460L445 480L446 484L447 455L449 456L450 448L451 450L452 430L453 437L454 386L456 432L457 470L458 414L459 401L460 443L461 428L463 420L464 474L465 491L466 485L467 470L468 466L470 444L471 454L472 451L473 489L474 466L476 452L477 434L478 462L479 412L480 332L481 335L483 424L484 423L485 444L486 455L487 442L488 508L490 485L491 411L492 363L493 437L494 415L495 413L497 411L498 412L499 487L500 448L501 469L502 462L504 422L505 459L506 448L507 404L508 416L510 458L511 432L512 448L513 426L514 462L515 454L517 440L518 472L519 408L520 457L521 443L522 451L524 411L525 464L526 463L527 414L528 443L529 438L531 484L532 466L533 433L534 446L535 427L537 360L538 402L539 452L540 413L541 422L542 450L544 447L545 413L546 473L547 485L548 423L549 350L551 389L552 394L553 426L554 456L555 436L556 455L558 415L559 467L560 445L561 383L562 446L563 448L565 446L566 437L567 429L568 366L569 413L571 354L572 378L573 385L574 436L575 439L576 433L578 461L579 422L580 421L581 412L582 412L583 440L585 401L586 418L587 425L588 404L589 416L590 409L592 409L593 420L594 386L595 429L596 438L597 407L599 410L600 408L601 407L602 380L603 413L605 420L606 437L607 435L608 391L609 383L610 420L612 399L613 434L614 398L615 398L616 389L617 376L619 377L620 440L621 373L622 379L623 464L624 424L626 381L627 383L628 366L629 392L630 360L632 418L633 400L634 398L635 425L636 390L637 399L639 385L640 386L641 387L642 381L643 400L644 376L646 363L647 450L648 426L649 425L650 465L651 432L653 402L654 405L655 412L656 450L657 442L658 397L660 424L661 423L662 400L663 431L664 428L666 391L667 390L668 400L669 396L670 384L671 414L673 413L674 406L675 367L676 376L677 402L678 451L680 349L681 345L682 361L683 381L684 403L685 449L687 396L688 333L689 314L690 396L691 396L693 384L694 401L695 418L696 352L697 382L698 369L700 383L701 325L702 324L703 339L704 366L705 325L707 355L708 355L709 318L710 304L711 310L712 334L714 310L715 335L716 386L717 323L718 355L719 301L721 337L722 343L723 363L724 335L725 333L727 368L728 291L729 291L730 314L731 389L732 393L734 416L735 421L736 359L737 394L738 333L739 282L741 329L742 346L743 376L744 384L745 339L746 389" fill="none" stroke-width="1.5"></path></g><g class="key-England_3"><path stroke="#34983f" stroke-linecap="round" d="M43 483L44 486L45 493L46 488L47 488L49 491L50 489L51 483L52 490L53 498L54 491L56 490L57 486L58 487L59 492L60 486L61 494L63 493L64 488L65 491L66 480L67 493L69 493L70 482L71 491L72 490L73 481L74 489L76 484L77 489L78 489L79 489L80 490L81 496L83 494L84 498L85 502L86 489L87 482L88 491L90 487L91 491L92 499L93 498L94 491L96 492L97 497L98 499L99 496L100 494L101 490L103 508L104 498L105 493L106 508L107 498L108 499L110 491L111 503L112 498L113 500L114 504L115 495L117 504L118 495L119 496L120 497L121 498L122 489L124 507L125 504L126 492L127 490L128 498L130 494L131 511L132 498L133 489L134 492L135 518L137 518L138 510L139 523L140 517L141 515L142 512L144 520L145 511L146 513L147 512L148 510L149 514L151 512L152 511L153 515L154 514L155 513L156 513L158 517L159 514L160 508L161 507L162 512L164 511L165 510L166 514L167 512L168 507L169 513L171 515L172 513L173 509L174 512L175 512L176 516L178 512L179 513L180 513L181 512L182 517L183 519L185 514L186 513L187 517L188 520L189 514L191 516L192 521L193 513L194 517L195 514L196 519L198 513L199 520L200 518L201 515L202 519L203 522L205 526L206 522L207 515L208 516L209 522L210 525L212 516L213 521L214 521L215 525L216 519L217 508L219 518L220 524L221 521L222 516L223 513L225 518L226 518L227 523L228 505L229 512L230 518L232 506L233 494L234 505L235 519L236 515L237 524L239 529L240 518L241 515L242 510L243 524L244 523L246 504L247 505L248 507L249 504L250 524L252 486L253 524L254 515L255 515L256 513L257 508L259 522L260 518L261 514L262 524L263 513L264 517L266 520L267 514L268 520L269 531L270 522L271 520L273 519L274 529L275 518L276 520L277 522L278 526L280 526L281 524L282 514L283 520L284 503L286 505L287 517L288 523L289 518L290 515L291 512L293 525L294 516L295 525L296 503L297 517L298 517L300 517L301 519L302 530L303 523L304 523L305 518L307 514L375 516L376 517L377 515L378 529L379 516L381 515L382 511L383 514L384 495L385 526L386 528L388 508L389 523L390 517L391 509L392 517L393 515L395 518L396 524L397 525L398 519L399 519L400 515L402 524L403 513L404 516L405 511L406 520L407 496L409 526L410 486L411 513L412 514L413 514L415 521L416 512L417 524L418 512L419 519L420 527L422 516L423 517L424 526L425 525L426 529L427 524L429 516L430 519L431 520L432 518L433 506L434 516L436 517L437 522L438 516L439 511L440 518L442 501L443 521L444 521L445 518L446 515L447 517L449 524L450 514L451 510L452 514L453 513L454 496L456 512L457 512L458 512L459 504L460 511L461 494L463 511L464 518L465 518L466 518L467 520L468 509L470 516L471 518L472 525L473 521L474 522L476 512L477 515L478 521L479 517L480 516L481 528L483 515L484 519L485 527L486 520L487 519L488 517L490 530L491 528L492 521L493 519L494 515L495 517L497 521L498 525L499 528L500 522L501 522L502 523L504 523L505 523L506 524L507 514L508 519L510 521L511 527L512 524L513 523L514 519L515 525L517 529L518 518L519 522L520 521L521 523L522 520L524 516L525 525L526 529L527 519L528 525L529 527L531 522L532 521L533 527L534 524L535 530L537 517L538 524L539 516L540 520L541 527L542 522L544 526L545 526L546 528L547 527L548 528L549 524L551 524L552 515L553 520L554 520L555 522L556 528L558 526L559 528L560 519L561 526L562 517L563 517L565 522L566 522L567 518L568 524L569 530L571 506L572 514L573 523L574 523L575 514L576 506L578 505L579 512L580 513L581 512L582 511L583 527L585 518L586 521L587 512L588 507L589 517L590 512L592 522L593 511L594 506L595 513L596 522L597 504L599 508L600 497L601 496L602 512L603 497L605 501L606 518L607 504L608 495L609 504L610 496L612 507L613 507L614 494L615 483L616 506L617 489L619 496L620 515L621 515L622 497L623 513L624 508L626 506L627 503L628 507L629 511L630 505L632 514L633 511L634 509L635 510L636 496L637 505L639 505L640 495L641 495L642 500L643 509L644 504L646 505L647 502L648 500L649 512L650 515L651 502L653 500L654 508L655 491L656 522L657 526L658 493L660 471L661 497L662 488L663 507L664 499L666 483L667 488L668 510L669 511L670 511L671 513L673 506L674 512L675 501L676 499L677 508L678 504L680 505L681 503L682 505L683 510L684 511L685 514L687 502L688 506L689 503L690 510L691 502L693 512L694 516L695 532L696 529L697 506L698 511L700 507L701 506L702 496L703 503L704 508L705 501L707 498L708 503L709 499L710 503L711 491L712 491L714 503L715 482L716 497L717 491L718 507L719 521L721 510L722 496L723 494L724 489L725 497L727 514L728 495L729 488L730 488L731 517L732 506L734 503L735 519L736 499L737 501L738 487L739 496L741 509L742 494L743 502L744 510L745 493L746 493" fill="none" stroke-width="1.5"></path></g><g class="key-England_4"><path stroke="#ca2628" stroke-linecap="round" d="M43 534L44 534L45 535L46 535L47 533L49 530L50 534L51 534L52 533L53 535L54 533L56 533L57 532L58 534L59 532L60 529L61 532L63 532L64 531L65 527L66 531L67 534L69 528L70 531L71 530L72 533L73 530L74 533L76 529L77 529L78 527L79 529L80 531L81 529L83 528L84 532L85 531L86 527L87 531L88 529L90 526L91 532L92 528L93 528L94 530L96 533L97 533L98 532L99 531L100 531L101 530L103 532L104 533L105 530L106 531L107 532L108 533L110 532L111 534L112 530L113 532L114 534L115 532L117 534L118 533L119 531L120 534L121 531L122 531L124 530L125 531L126 530L127 532L128 529L130 530L131 531L132 532L133 532L134 533L135 535L137 534L138 535L139 535L140 532L141 530L142 527L144 534L145 529L146 530L147 529L148 533L149 532L151 531L152 531L153 528L154 532L155 531L156 531L158 532L159 532L160 531L161 528L162 530L164 529L165 531L166 532L167 528L168 533L169 531L171 531L172 531L173 532L174 528L175 533L176 530L178 532L179 529L180 530L181 531L182 530L183 533L185 529L186 529L187 529L188 524L189 527L191 527L192 527L193 528L194 530L195 532L196 531L198 532L199 530L200 532L201 533L202 530L203 532L205 531L206 530L207 533L208 529L209 527L210 531L212 533L213 532L214 531L215 532L216 531L217 535L219 534L220 534L221 531L222 532L223 532L225 531L226 532L227 531L228 532L229 530L230 532L232 533L233 531L234 533L235 531L236 534L237 534L239 534L240 532L241 533L242 534L243 535L244 535L246 534L247 534L248 532L249 533L250 534L252 534L253 533L254 532L255 532L256 533L257 534L259 535L260 532L261 530L262 532L263 531L264 530L266 529L267 529L268 531L269 534L270 534L271 535L273 535L274 534L275 533L276 534L277 535L278 530L280 531L281 529L282 533L283 532L284 534L286 532L287 535L288 532L289 532L290 532L291 533L293 535L294 535L295 533L296 531L297 534L298 534L300 534L301 533L302 531L303 531L373 527L375 526L376 528L377 527L378 532L379 533L381 528L382 526L383 528L384 530L385 528L386 528L388 524L389 518L390 521L391 526L392 521L393 525L395 527L396 520L397 521L398 525L399 528L400 526L402 529L403 527L404 520L405 524L406 522L407 518L409 516L410 514L411 521L412 522L413 525L415 521L416 524L417 523L418 524L419 531L420 522L422 517L423 519L424 522L425 528L426 528L427 525L429 518L430 518L431 525L432 516L433 527L434 503L436 521L437 516L438 521L439 531L440 515L442 514L443 518L444 514L445 519L446 524L447 509L449 509L450 509L451 492L452 510L453 510L454 509L456 520L457 519L458 514L459 521L460 508L461 511L463 503L464 522L465 507L466 516L467 491L468 509L470 515L471 515L472 513L473 518L474 530L476 496L477 515L478 519L479 519L480 525L481 520L483 526L484 509L485 519L486 520L487 520L488 507L490 511L491 510L492 506L493 504L494 500L495 508L497 515L498 522L499 522L500 521L501 513L502 507L504 512L505 521L506 522L507 496L508 506L510 507L511 504L512 507L513 518L514 503L515 513L517 503L518 505L519 506L520 516L521 495L522 509L524 512L525 516L526 505L527 496L528 503L529 514L531 470L532 496L533 497L534 495L535 495L537 514L538 497L539 519L540 520L541 510L542 501L544 516L545 508L546 522L547 521L548 492L549 508L551 511L552 493L553 494L554 518L555 504L556 494L558 488L559 512L560 509L561 513L562 497L563 515L565 504L566 512L567 514L568 513L569 523L571 497L572 468L573 484L574 498L575 485L576 514L578 469L579 515L580 489L581 468L582 482L583 477L585 489L586 498L587 463L588 478L589 503L590 503L592 444L593 483L594 483L595 478L596 457L597 486L599 500L600 480L601 501L602 486L603 484L605 515L606 498L607 484L608 505L609 513L610 511L612 508L613 505L614 491L615 486L616 490L617 490L619 480L620 486L621 482L622 480L623 475L624 504L626 496L627 496L628 475L629 508L630 487L632 498L633 475L634 475L635 493L636 495L637 489L639 500L640 503L641 485L642 467L643 479L644 494L646 499L647 511L648 506L649 502L650 519L651 512L653 483L654 512L655 513L656 509L657 528L658 495L660 471L661 471L662 502L663 503L664 479L666 469L667 490L668 501L669 485L670 466L671 513L673 504L674 504L675 498L676 494L677 500L678 514L680 472L681 499L682 491L683 484L684 501L685 516L687 513L688 491L689 491L690 516L691 510L693 517L694 508L695 520L696 509L697 505L698 506L700 504L701 495L702 499L703 518L704 518L705 481L707 493L708 499L709 489L710 494L711 484L712 491L714 470L715 491L716 485L717 495L718 504L719 510L721 500L722 491L723 498L724 492L725 495L727 504L728 503L729 494L730 475L731 494L732 507L734 507L735 496L736 494L737 477L738 492L739 497L741 493L742 481L743 477L744 504L745 484L746 499" fill="none" stroke-width="1.5"></path></g><g class="key-England_5"><path stroke="#3360a9" stroke-linecap="round" d="M43 509L44 502L45 502L46 518L47 507L49 509L50 493L51 498L52 485L53 497L54 513L56 488L57 515L58 516L59 516L60 506L61 516L63 497L64 510L65 513L66 515L67 515L69 509L70 519L71 515L72 520L73 509L74 517L76 508L77 518L78 514L79 513L80 510L81 511L83 513L84 510L85 515L86 514L87 514L88 517L90 509L91 512L92 514L93 511L94 512L96 528L97 522L98 527L99 519L100 509L101 521L103 520L104 521L105 510L106 517L107 518L108 510L110 507L111 517L112 520L113 515L114 515L115 517L117 514L118 516L119 519L120 513L121 505L122 516L124 515L125 509L126 509L127 518L128 508L130 507L131 504L132 524L133 520L134 507L135 526L137 524L138 526L139 521L140 522L141 524L142 525L144 527L145 531L146 528L147 524L148 522L149 525L151 526L152 525L153 524L154 526L155 526L156 530L158 527L159 526L160 525L161 525L162 523L164 524L165 524L166 526L167 522L168 520L169 519L171 523L172 525L173 527L174 520L175 524L176 522L178 522L179 520L180 523L181 524L182 525L183 522L185 515L186 522L187 527L188 523L189 528L191 520L192 523L193 523L194 530L195 526L196 524L198 528L199 527L200 529L201 531L202 531L203 527L205 528L206 526L207 523L208 525L209 526L210 526L212 523L213 526L214 524L215 521L216 527L217 515L219 525L220 515L221 526L222 523L223 520L225 527L226 522L227 521L228 524L229 526L230 522L232 524L233 526L234 525L235 524L236 527L237 524L239 528L240 530L241 527L242 523L243 529L244 529L246 521L247 516L248 527L249 527L250 520L252 527L253 526L254 527L255 525L256 525L257 524L259 523L260 523L261 523L262 530L263 525L264 523L266 526L267 527L268 520L269 517L270 520L271 523L273 527L274 524L275 524L276 521L277 524L278 528L280 529L281 525L282 527L283 524L284 530L286 530L287 526L288 525L289 519L290 524L291 529L293 528L294 527L295 528L296 522L297 525L298 525L300 524L301 527L302 525L303 525L372 523L373 529L375 515L376 519L377 520L378 527L379 521L381 513L382 523L383 522L384 521L385 521L386 511L388 506L389 520L390 500L391 517L392 511L393 514L395 522L396 515L397 527L398 514L399 520L400 510L402 506L403 525L404 518L405 513L406 517L407 516L409 516L410 512L411 496L412 514L413 526L415 515L416 500L417 504L418 507L419 515L420 499L422 492L423 517L424 511L425 508L426 521L427 498L429 495L430 513L431 512L432 516L433 514L434 498L436 509L437 497L438 502L439 520L440 479L442 484L443 500L444 498L445 493L446 512L447 520L449 517L450 499L451 499L452 508L453 481L454 502L456 513L457 513L458 511L459 521L460 500L461 498L463 480L464 522L465 521L466 510L467 514L468 514L470 518L471 519L472 515L473 521L474 515L476 520L477 509L478 513L479 504L480 505L481 504L483 518L484 522L485 523L486 529L487 533L488 532L490 529L491 526L492 520L493 515L494 512L495 516L497 520L498 524L499 520L500 517L501 518L502 514L504 519L505 523L506 501L507 491L508 504L510 505L511 509L512 523L513 520L514 516L515 508L517 522L518 517L519 497L520 505L521 509L522 518L524 519L525 522L526 515L527 510L528 516L529 504L531 515L532 497L533 511L534 519L535 511L537 511L538 497L539 517L540 484L541 499L542 512L544 512L545 520L546 519L547 509L548 512L549 512L551 517L552 502L553 501L554 513L555 498L556 521L558 518L559 520L560 518L561 515L562 524L563 517L565 525L566 523L567 509L568 508L569 522L571 517L572 519L573 519L574 525L575 524L576 518L578 521L579 521L580 517L581 521L582 516L583 508L585 492L586 494L587 510L588 521L589 501L590 505L592 517L593 517L594 522L595 519L596 511L597 516L599 523L600 525L601 524L602 521L603 527L605 527L606 529L607 531L608 530L609 530L610 530L612 530L613 530L614 528L615 528L616 529L617 529L619 528L620 529L621 529L622 529L623 528L624 531L626 529L627 529L628 528L629 530L630 530L632 531L633 529L634 530L635 529L636 530L637 529L639 530L640 530L641 530L642 529L643 530L644 531L646 530L647 530L648 530L649 532L650 531L651 532L653 531L654 531L655 531L656 530L657 533L658 531L660 531L661 531L662 531L663 532L664 528L666 531L667 531L668 531L669 532L670 531L671 530L673 530L674 529L675 529L676 528L677 530L678 532L680 530L681 532L682 530L683 530L684 528L685 528L687 530L688 526L689 529L690 531L691 527L693 527L694 525L695 527L696 526L697 529L698 528L700 527L701 526L702 527L703 527L704 527L705 526L707 528L708 526L709 527L710 532L711 529L712 527L714 531L715 530L716 531L717 531L718 529L719 531L721 532L722 530L723 532L724 531L725 531L727 533L728 531L729 532L730 530L731 531L732 530L734 531L735 532L736 531L737 534L738 530L739 529L741 532L742 531L743 533L744 533L745 532L746 532" fill="none" stroke-width="1.5"></path></g></g></g></g><g class="SourcesFooter" style="fill:#777"><g class="clickable" style="fill:#777"><text font-size="12.60" x="15.0" y="581.6"><tspan x="15" y="581.58">Source: Agriculture in England (1270-1870) - Bank of England (2017) </tspan></text></g><text font-size="12.60" x="796.4" y="581.6"><tspan x="796.444" y="581.58"><a style="fill: #777;" class="cclogo" href="http://creativecommons.org/licenses/by/4.0/deed.en_US" target="_blank">CC BY</a></tspan></text></g></svg>