<svg xmlns="http://www.w3.org/2000/svg" version="1.1" style="font-family:Lato, &#x27;Helvetica Neue&#x27;, Helvetica, Arial, sans-serif;font-size:18px;background-color:white;text-rendering:optimizeLegibility;-webkit-font-smoothing:antialiased" width="850" height="600"><g class="HeaderView"><g transform="translate(774, 15) scale(0.29)"><svg width="210" height="120" viewBox="0 0 210 120" fill="none" xmlns="http://www.w3.org/2000/svg">
    <g clip-path="url(#clip0)">
        <path d="M0 0H210V107.89H0V0Z" fill="#002147"/>
        <path d="M40.9788 32.248C40.9788 34.6093 40.6048 36.78 39.8568 38.76C39.1088 40.7253 38.0528 42.4193 36.6888 43.842C35.3248 45.2647 33.6821 46.372 31.7608 47.164C29.8541 47.9413 27.7421 48.33 25.4248 48.33C23.1074 48.33 20.9954 47.9413 19.0888 47.164C17.1821 46.372 15.5468 45.2647 14.1828 43.842C12.8188 42.4193 11.7628 40.7253 11.0148 38.76C10.2668 36.78 9.89277 34.6093 9.89277 32.248C9.89277 29.8867 10.2668 27.7233 11.0148 25.758C11.7628 23.778 12.8188 22.0767 14.1828 20.654C15.5468 19.2167 17.1821 18.102 19.0888 17.31C20.9954 16.518 23.1074 16.122 25.4248 16.122C27.7421 16.122 29.8541 16.518 31.7608 17.31C33.6821 18.102 35.3248 19.2167 36.6888 20.654C38.0528 22.0767 39.1088 23.778 39.8568 25.758C40.6048 27.7233 40.9788 29.8867 40.9788 32.248ZM36.6008 32.248C36.6008 30.312 36.3368 28.574 35.8088 27.034C35.2808 25.494 34.5328 24.196 33.5648 23.14C32.5968 22.0693 31.4234 21.248 30.0448 20.676C28.6661 20.104 27.1261 19.818 25.4248 19.818C23.7381 19.818 22.2054 20.104 20.8268 20.676C19.4481 21.248 18.2674 22.0693 17.2848 23.14C16.3168 24.196 15.5688 25.494 15.0408 27.034C14.5128 28.574 14.2488 30.312 14.2488 32.248C14.2488 34.184 14.5128 35.922 15.0408 37.462C15.5688 38.9873 16.3168 40.2853 17.2848 41.356C18.2674 42.412 19.4481 43.226 20.8268 43.798C22.2054 44.3553 23.7381 44.634 25.4248 44.634C27.1261 44.634 28.6661 44.3553 30.0448 43.798C31.4234 43.226 32.5968 42.412 33.5648 41.356C34.5328 40.2853 35.2808 38.9873 35.8088 37.462C36.3368 35.922 36.6008 34.184 36.6008 32.248ZM62.8234 25.714V48H60.4914C59.9341 48 59.5821 47.7287 59.4354 47.186L59.1274 44.788C58.1594 45.8587 57.0741 46.724 55.8714 47.384C54.6687 48.0293 53.2901 48.352 51.7354 48.352C50.5181 48.352 49.4401 48.154 48.5014 47.758C47.5774 47.3473 46.8001 46.7753 46.1694 46.042C45.5387 45.3087 45.0621 44.4213 44.7394 43.38C44.4314 42.3387 44.2774 41.1873 44.2774 39.926V25.714H48.1934V39.926C48.1934 41.6127 48.5747 42.918 49.3374 43.842C50.1147 44.766 51.2954 45.228 52.8794 45.228C54.0381 45.228 55.1161 44.9567 56.1134 44.414C57.1254 43.8567 58.0567 43.094 58.9074 42.126V25.714H62.8234ZM71.4305 30.18C72.1346 28.6547 72.9999 27.4667 74.0266 26.616C75.0532 25.7507 76.3072 25.318 77.7886 25.318C78.2579 25.318 78.7052 25.3693 79.1306 25.472C79.5706 25.5747 79.9592 25.736 80.2966 25.956L80.0106 28.882C79.9226 29.2487 79.7026 29.432 79.3506 29.432C79.1452 29.432 78.8446 29.388 78.4486 29.3C78.0526 29.212 77.6052 29.168 77.1066 29.168C76.4026 29.168 75.7719 29.2707 75.2146 29.476C74.6719 29.6813 74.1806 29.9893 73.7406 30.4C73.3152 30.796 72.9266 31.2947 72.5746 31.896C72.2372 32.4827 71.9292 33.1573 71.6506 33.92V48H67.7125V25.714H69.9566C70.3819 25.714 70.6752 25.7947 70.8366 25.956C70.9979 26.1173 71.1079 26.396 71.1666 26.792L71.4305 30.18ZM132.589 16.474L122.755 48H118.927L110.941 23.954C110.867 23.7193 110.794 23.47 110.721 23.206C110.662 22.942 110.596 22.6633 110.523 22.37C110.449 22.6633 110.376 22.942 110.303 23.206C110.23 23.47 110.156 23.7193 110.083 23.954L102.053 48H98.2248L88.3908 16.474H91.9328C92.3142 16.474 92.6295 16.5693 92.8788 16.76C93.1428 16.9507 93.3115 17.1927 93.3848 17.486L99.8968 39.398C99.9995 39.794 100.095 40.2193 100.183 40.674C100.285 41.1287 100.381 41.6127 100.469 42.126C100.571 41.6127 100.674 41.1287 100.777 40.674C100.894 40.2047 101.019 39.7793 101.151 39.398L108.565 17.486C108.653 17.2367 108.821 17.0093 109.071 16.804C109.335 16.584 109.65 16.474 110.017 16.474H111.249C111.63 16.474 111.938 16.5693 112.173 16.76C112.407 16.9507 112.583 17.1927 112.701 17.486L120.093 39.398C120.225 39.7793 120.342 40.19 120.445 40.63C120.562 41.07 120.672 41.532 120.775 42.016C120.848 41.532 120.929 41.07 121.017 40.63C121.105 40.19 121.2 39.7793 121.303 39.398L127.837 17.486C127.91 17.222 128.072 16.9873 128.321 16.782C128.585 16.5767 128.9 16.474 129.267 16.474H132.589ZM141.94 25.362C143.568 25.362 145.034 25.6333 146.34 26.176C147.645 26.7187 148.76 27.4887 149.684 28.486C150.608 29.4833 151.312 30.6933 151.796 32.116C152.294 33.524 152.544 35.1007 152.544 36.846C152.544 38.606 152.294 40.19 151.796 41.598C151.312 43.006 150.608 44.2087 149.684 45.206C148.76 46.2033 147.645 46.9733 146.34 47.516C145.034 48.044 143.568 48.308 141.94 48.308C140.297 48.308 138.816 48.044 137.496 47.516C136.19 46.9733 135.076 46.2033 134.152 45.206C133.228 44.2087 132.516 43.006 132.018 41.598C131.534 40.19 131.292 38.606 131.292 36.846C131.292 35.1007 131.534 33.524 132.018 32.116C132.516 30.6933 133.228 29.4833 134.152 28.486C135.076 27.4887 136.19 26.7187 137.496 26.176C138.816 25.6333 140.297 25.362 141.94 25.362ZM141.94 45.25C144.14 45.25 145.782 44.5167 146.868 43.05C147.953 41.5687 148.496 39.508 148.496 36.868C148.496 34.2133 147.953 32.1453 146.868 30.664C145.782 29.1827 144.14 28.442 141.94 28.442C140.825 28.442 139.85 28.6327 139.014 29.014C138.192 29.3953 137.503 29.9453 136.946 30.664C136.403 31.3827 135.992 32.27 135.714 33.326C135.45 34.3673 135.318 35.548 135.318 36.868C135.318 39.508 135.86 41.5687 136.946 43.05C138.046 44.5167 139.71 45.25 141.94 45.25ZM159.908 30.18C160.612 28.6547 161.478 27.4667 162.504 26.616C163.531 25.7507 164.785 25.318 166.266 25.318C166.736 25.318 167.183 25.3693 167.608 25.472C168.048 25.5747 168.437 25.736 168.774 25.956L168.488 28.882C168.4 29.2487 168.18 29.432 167.828 29.432C167.623 29.432 167.322 29.388 166.926 29.3C166.53 29.212 166.083 29.168 165.584 29.168C164.88 29.168 164.25 29.2707 163.692 29.476C163.15 29.6813 162.658 29.9893 162.218 30.4C161.793 30.796 161.404 31.2947 161.052 31.896C160.715 32.4827 160.407 33.1573 160.128 33.92V48H156.19V25.714H158.434C158.86 25.714 159.153 25.7947 159.314 25.956C159.476 26.1173 159.586 26.396 159.644 26.792L159.908 30.18ZM174.946 15.594V48H171.03V15.594H174.946ZM194.496 31.016C193.763 30.0333 192.971 29.3513 192.12 28.97C191.269 28.574 190.316 28.376 189.26 28.376C187.192 28.376 185.601 29.1167 184.486 30.598C183.371 32.0793 182.814 34.1913 182.814 36.934C182.814 38.386 182.939 39.6327 183.188 40.674C183.437 41.7007 183.804 42.5513 184.288 43.226C184.772 43.886 185.366 44.37 186.07 44.678C186.774 44.986 187.573 45.14 188.468 45.14C189.759 45.14 190.881 44.8467 191.834 44.26C192.802 43.6733 193.689 42.8447 194.496 41.774V31.016ZM198.412 15.594V48H196.08C195.523 48 195.171 47.7287 195.024 47.186L194.672 44.48C193.719 45.624 192.633 46.548 191.416 47.252C190.199 47.956 188.791 48.308 187.192 48.308C185.916 48.308 184.757 48.066 183.716 47.582C182.675 47.0833 181.787 46.3573 181.054 45.404C180.321 44.4507 179.756 43.2627 179.36 41.84C178.964 40.4173 178.766 38.782 178.766 36.934C178.766 35.2913 178.986 33.766 179.426 32.358C179.866 30.9353 180.497 29.7033 181.318 28.662C182.139 27.6207 183.144 26.8067 184.332 26.22C185.535 25.6187 186.884 25.318 188.38 25.318C189.744 25.318 190.91 25.5527 191.878 26.022C192.861 26.4767 193.733 27.1147 194.496 27.936V15.594H198.412ZM46.6139 70.714V93H42.6979V70.714H46.6139ZM47.4499 63.718C47.4499 64.0993 47.3692 64.4587 47.2079 64.796C47.0612 65.1187 46.8559 65.412 46.5919 65.676C46.3425 65.9253 46.0419 66.1233 45.6899 66.27C45.3525 66.4167 44.9932 66.49 44.6119 66.49C44.2305 66.49 43.8712 66.4167 43.5339 66.27C43.2112 66.1233 42.9252 65.9253 42.6759 65.676C42.4265 65.412 42.2285 65.1187 42.0819 64.796C41.9352 64.4587 41.8619 64.0993 41.8619 63.718C41.8619 63.3367 41.9352 62.9773 42.0819 62.64C42.2285 62.288 42.4265 61.9873 42.6759 61.738C42.9252 61.474 43.2112 61.2687 43.5339 61.122C43.8712 60.9753 44.2305 60.902 44.6119 60.902C44.9932 60.902 45.3525 60.9753 45.6899 61.122C46.0419 61.2687 46.3425 61.474 46.5919 61.738C46.8559 61.9873 47.0612 62.288 47.2079 62.64C47.3692 62.9773 47.4499 63.3367 47.4499 63.718ZM55.4242 73.948C55.9082 73.4053 56.4215 72.914 56.9642 72.474C57.5068 72.034 58.0788 71.66 58.6802 71.352C59.2962 71.0293 59.9415 70.7873 60.6162 70.626C61.3055 70.45 62.0462 70.362 62.8382 70.362C64.0555 70.362 65.1262 70.5673 66.0502 70.978C66.9888 71.374 67.7662 71.946 68.3822 72.694C69.0128 73.4273 69.4895 74.3147 69.8122 75.356C70.1348 76.3973 70.2962 77.5487 70.2962 78.81V93H66.3582V78.81C66.3582 77.1233 65.9695 75.818 65.1922 74.894C64.4295 73.9553 63.2635 73.486 61.6942 73.486C60.5355 73.486 59.4502 73.7647 58.4382 74.322C57.4408 74.8793 56.5168 75.6347 55.6662 76.588V93H51.7282V70.714H54.0822C54.6395 70.714 54.9842 70.9853 55.1162 71.528L55.4242 73.948ZM113.129 77.248C113.129 79.6093 112.755 81.758 112.007 83.694C111.259 85.63 110.203 87.2873 108.839 88.666C107.475 90.0447 105.832 91.1153 103.911 91.878C102.004 92.626 99.8925 93 97.5751 93H85.8051V61.474H97.5751C99.8925 61.474 102.004 61.8553 103.911 62.618C105.832 63.366 107.475 64.4367 108.839 65.83C110.203 67.2087 111.259 68.866 112.007 70.802C112.755 72.738 113.129 74.8867 113.129 77.248ZM108.751 77.248C108.751 75.312 108.487 73.5813 107.959 72.056C107.431 70.5307 106.683 69.24 105.715 68.184C104.747 67.128 103.574 66.3213 102.195 65.764C100.816 65.2067 99.2765 64.928 97.5751 64.928H90.0731V89.546H97.5751C99.2765 89.546 100.816 89.2673 102.195 88.71C103.574 88.1527 104.747 87.3533 105.715 86.312C106.683 85.256 107.431 83.9653 107.959 82.44C108.487 80.9147 108.751 79.184 108.751 77.248ZM128.553 82.968C126.749 83.0267 125.209 83.1733 123.933 83.408C122.672 83.628 121.638 83.9213 120.831 84.288C120.039 84.6547 119.46 85.0873 119.093 85.586C118.741 86.0847 118.565 86.642 118.565 87.258C118.565 87.8447 118.661 88.3507 118.851 88.776C119.042 89.2013 119.299 89.5533 119.621 89.832C119.959 90.096 120.347 90.294 120.787 90.426C121.242 90.5433 121.726 90.602 122.239 90.602C122.929 90.602 123.559 90.536 124.131 90.404C124.703 90.2573 125.239 90.052 125.737 89.788C126.251 89.524 126.735 89.2087 127.189 88.842C127.659 88.4753 128.113 88.0573 128.553 87.588V82.968ZM115.903 73.86C117.135 72.672 118.463 71.7847 119.885 71.198C121.308 70.6113 122.885 70.318 124.615 70.318C125.862 70.318 126.969 70.5233 127.937 70.934C128.905 71.3447 129.719 71.9167 130.379 72.65C131.039 73.3833 131.538 74.2707 131.875 75.312C132.213 76.3533 132.381 77.4973 132.381 78.744V93H130.643C130.262 93 129.969 92.9413 129.763 92.824C129.558 92.692 129.397 92.4427 129.279 92.076L128.839 89.964C128.253 90.5067 127.681 90.9907 127.123 91.416C126.566 91.8267 125.979 92.1787 125.363 92.472C124.747 92.7507 124.087 92.9633 123.383 93.11C122.694 93.2713 121.924 93.352 121.073 93.352C120.208 93.352 119.394 93.2347 118.631 93C117.869 92.7507 117.201 92.384 116.629 91.9C116.072 91.416 115.625 90.8073 115.287 90.074C114.965 89.326 114.803 88.446 114.803 87.434C114.803 86.554 115.045 85.7107 115.529 84.904C116.013 84.0827 116.798 83.3567 117.883 82.726C118.969 82.0953 120.384 81.582 122.129 81.186C123.875 80.7753 126.016 80.5407 128.553 80.482V78.744C128.553 77.0133 128.179 75.708 127.431 74.828C126.683 73.9333 125.591 73.486 124.153 73.486C123.185 73.486 122.371 73.6107 121.711 73.86C121.066 74.0947 120.501 74.366 120.017 74.674C119.548 74.9673 119.137 75.2387 118.785 75.488C118.448 75.7227 118.111 75.84 117.773 75.84C117.509 75.84 117.282 75.774 117.091 75.642C116.901 75.4953 116.739 75.3193 116.607 75.114L115.903 73.86ZM143.568 93.352C141.808 93.352 140.451 92.8607 139.498 91.878C138.559 90.8953 138.09 89.48 138.09 87.632V73.992H135.406C135.171 73.992 134.973 73.926 134.812 73.794C134.65 73.6473 134.57 73.4273 134.57 73.134V71.572L138.222 71.11L139.124 64.224C139.168 64.004 139.263 63.828 139.41 63.696C139.571 63.5493 139.776 63.476 140.026 63.476H142.006V71.154H148.452V73.992H142.006V87.368C142.006 88.3067 142.233 89.0033 142.688 89.458C143.142 89.9127 143.729 90.14 144.448 90.14C144.858 90.14 145.21 90.0887 145.504 89.986C145.812 89.8687 146.076 89.744 146.296 89.612C146.516 89.48 146.699 89.3627 146.846 89.26C147.007 89.1427 147.146 89.084 147.264 89.084C147.469 89.084 147.652 89.2087 147.814 89.458L148.958 91.328C148.283 91.9587 147.469 92.4573 146.516 92.824C145.562 93.176 144.58 93.352 143.568 93.352ZM163.253 82.968C161.449 83.0267 159.909 83.1733 158.633 83.408C157.372 83.628 156.338 83.9213 155.531 84.288C154.739 84.6547 154.16 85.0873 153.793 85.586C153.441 86.0847 153.265 86.642 153.265 87.258C153.265 87.8447 153.36 88.3507 153.551 88.776C153.742 89.2013 153.998 89.5533 154.321 89.832C154.658 90.096 155.047 90.294 155.487 90.426C155.942 90.5433 156.426 90.602 156.939 90.602C157.628 90.602 158.259 90.536 158.831 90.404C159.403 90.2573 159.938 90.052 160.437 89.788C160.95 89.524 161.434 89.2087 161.889 88.842C162.358 88.4753 162.813 88.0573 163.253 87.588V82.968ZM150.603 73.86C151.835 72.672 153.162 71.7847 154.585 71.198C156.008 70.6113 157.584 70.318 159.315 70.318C160.562 70.318 161.669 70.5233 162.637 70.934C163.605 71.3447 164.419 71.9167 165.079 72.65C165.739 73.3833 166.238 74.2707 166.575 75.312C166.912 76.3533 167.081 77.4973 167.081 78.744V93H165.343C164.962 93 164.668 92.9413 164.463 92.824C164.258 92.692 164.096 92.4427 163.979 92.076L163.539 89.964C162.952 90.5067 162.38 90.9907 161.823 91.416C161.266 91.8267 160.679 92.1787 160.063 92.472C159.447 92.7507 158.787 92.9633 158.083 93.11C157.394 93.2713 156.624 93.352 155.773 93.352C154.908 93.352 154.094 93.2347 153.331 93C152.568 92.7507 151.901 92.384 151.329 91.9C150.772 91.416 150.324 90.8073 149.987 90.074C149.664 89.326 149.503 88.446 149.503 87.434C149.503 86.554 149.745 85.7107 150.229 84.904C150.713 84.0827 151.498 83.3567 152.583 82.726C153.668 82.0953 155.084 81.582 156.829 81.186C158.574 80.7753 160.716 80.5407 163.253 80.482V78.744C163.253 77.0133 162.879 75.708 162.131 74.828C161.383 73.9333 160.29 73.486 158.853 73.486C157.885 73.486 157.071 73.6107 156.411 73.86C155.766 74.0947 155.201 74.366 154.717 74.674C154.248 74.9673 153.837 75.2387 153.485 75.488C153.148 75.7227 152.81 75.84 152.473 75.84C152.209 75.84 151.982 75.774 151.791 75.642C151.6 75.4953 151.439 75.3193 151.307 75.114L150.603 73.86Z" fill="white"/>
        <rect y="106.789" width="210" height="13.211" fill="#D42B21"/>
    </g>
    <defs>
        <clipPath id="clip0">
            <rect width="210" height="120" fill="white"/>
        </clipPath>
    </defs>
</svg></g><a href="https://staging-owid.netlify.com/grapher/death-rates-through-the-20th-century" target="_blank"><text font-size="25.20" x="15.0" y="35.2" fill="#555"><tspan x="15" y="35.160000000000004">Death rates through the 20th century, United States</tspan></text></a><text font-size="14.40" x="15.0" y="53.7" fill="#666"><tspan x="15" y="53.72">Total mortality rates by cause of death, measured as the number of deaths per 100,000 population. Death rates are</tspan><tspan x="15" y="69.56">given as all-age rates (not age-standardized). Data for specific causes of death may be missing or intermittent</tspan><tspan x="15" y="85.4">where it enters or falls out of the top 10 reported causes of deaths in any year.</tspan></text></g><g class="LineChart"><defs><clipPath id="boundsClip-1107"><rect x="37.216" y="0" width="830" height="901.8"></rect></clipPath></defs><g class="AxisBoxView"><g class="HorizontalAxis"><text x="47.2" y="556.5" fill="#666" text-anchor="middle" font-size="16.2">1900</text><text x="169.6" y="556.5" fill="#666" text-anchor="middle" font-size="16.2">1920</text><text x="292" y="556.5" fill="#666" text-anchor="middle" font-size="16.2">1940</text><text x="414.4" y="556.5" fill="#666" text-anchor="middle" font-size="16.2">1960</text><text x="536.8" y="556.5" fill="#666" text-anchor="middle" font-size="16.2">1980</text><text x="646.9" y="556.5" fill="#666" text-anchor="middle" font-size="16.2">1998</text></g><g class="VerticalAxis"><text x="42.22" y="535.3" fill="#666" dominant-baseline="middle" text-anchor="end" font-size="16.2">0</text><text x="42.22" y="462.3" fill="#666" dominant-baseline="middle" text-anchor="end" font-size="16.2">100</text><text x="42.22" y="389.3" fill="#666" dominant-baseline="middle" text-anchor="end" font-size="16.2">200</text><text x="42.22" y="316.3" fill="#666" dominant-baseline="middle" text-anchor="end" font-size="16.2">300</text><text x="42.22" y="243.2" fill="#666" dominant-baseline="middle" text-anchor="end" font-size="16.2">400</text><text x="42.22" y="170.2" fill="#666" dominant-baseline="middle" text-anchor="end" font-size="16.2">500</text></g><g class="AxisGridLines"><line x1="47.22" y1="535.3" x2="646.91" y2="535.3" stroke="#ccc"></line><line x1="47.22" y1="462.3" x2="646.91" y2="462.3" stroke="#ddd" stroke-dasharray="3,2"></line><line x1="47.22" y1="389.3" x2="646.91" y2="389.3" stroke="#ddd" stroke-dasharray="3,2"></line><line x1="47.22" y1="316.3" x2="646.91" y2="316.3" stroke="#ddd" stroke-dasharray="3,2"></line><line x1="47.22" y1="243.2" x2="646.91" y2="243.2" stroke="#ddd" stroke-dasharray="3,2"></line><line x1="47.22" y1="170.2" x2="646.91" y2="170.2" stroke="#ddd" stroke-dasharray="3,2"></line></g></g><g clip-path="url(#boundsClip-1107)"><g class="HeightedLegend"><g class="legendMark"><g class="indicator"><line x1="651.91" y1="533" x2="674.41" y2="533" stroke="#666" stroke-width="0.5"></line><line x1="674.41" y1="533" x2="674.41" y2="528.55" stroke="#666" stroke-width="0.5"></line><line x1="674.41" y1="528.55" x2="676.91" y2="528.55" stroke="#666" stroke-width="0.5"></line></g><rect x="646.91" y="521.8" width="111.68" height="13.5" fill="#fff" opacity="0"></rect><text font-size="13.50" x="681.9" y="532.6" fill="#3360a9"><tspan x="681.91" y="532.5999999999999">Tuberculosis</tspan></text></g><g class="legendMark"><g class="indicator"><line x1="651.91" y1="527" x2="671.91" y2="527" stroke="#666" stroke-width="0.5"></line><line x1="671.91" y1="527" x2="671.91" y2="513.05" stroke="#666" stroke-width="0.5"></line><line x1="671.91" y1="513.05" x2="676.91" y2="513.05" stroke="#666" stroke-width="0.5"></line></g><rect x="646.91" y="506.29999999999995" width="79.415" height="13.5" fill="#fff" opacity="0"></rect><text font-size="13.50" x="681.9" y="517.1" fill="#ca2628"><tspan x="681.91" y="517.0999999999999">Suicide</tspan></text></g><g class="legendMark"><g class="indicator"><line x1="651.91" y1="523.5" x2="669.41" y2="523.5" stroke="#666" stroke-width="0.5"></line><line x1="669.41" y1="523.5" x2="669.41" y2="497.54999999999995" stroke="#666" stroke-width="0.5"></line><line x1="669.41" y1="497.54999999999995" x2="676.91" y2="497.54999999999995" stroke="#666" stroke-width="0.5"></line></g><rect x="646.91" y="490.79999999999995" width="128.42000000000002" height="13.5" fill="#fff" opacity="0"></rect><text font-size="13.50" x="681.9" y="501.6" fill="#34983f"><tspan x="681.91" y="501.59999999999997">Road accidents</tspan></text></g><g class="legendMark"><g class="indicator"><line x1="651.91" y1="520.3" x2="666.91" y2="520.3" stroke="#666" stroke-width="0.5"></line><line x1="666.91" y1="520.3" x2="666.91" y2="482.04999999999995" stroke="#666" stroke-width="0.5"></line><line x1="666.91" y1="482.04999999999995" x2="676.91" y2="482.04999999999995" stroke="#666" stroke-width="0.5"></line></g><rect x="646.91" y="475.29999999999995" width="140.3" height="13.5" fill="#fff" opacity="0"></rect><text font-size="13.50" x="681.9" y="486.1" fill="#f6a324"><tspan x="681.91" y="486.09999999999997">Diarrheal disease</tspan></text></g><g class="legendMark"><g class="indicator"><line x1="651.91" y1="517.8" x2="664.41" y2="517.8" stroke="#666" stroke-width="0.5"></line><line x1="664.41" y1="517.8" x2="664.41" y2="466.54999999999995" stroke="#666" stroke-width="0.5"></line><line x1="664.41" y1="466.54999999999995" x2="676.91" y2="466.54999999999995" stroke="#666" stroke-width="0.5"></line></g><rect x="646.91" y="459.79999999999995" width="88.46000000000001" height="13.5" fill="#fff" opacity="0"></rect><text font-size="13.50" x="681.9" y="470.6" fill="#a652ba"><tspan x="681.91" y="470.59999999999997">Diabetes</tspan></text></g><g class="legendMark"><g class="indicator"><line x1="651.91" y1="510.5" x2="661.91" y2="510.5" stroke="#666" stroke-width="0.5"></line><line x1="661.91" y1="510.5" x2="661.91" y2="451.04999999999995" stroke="#666" stroke-width="0.5"></line><line x1="661.91" y1="451.04999999999995" x2="676.91" y2="451.04999999999995" stroke="#666" stroke-width="0.5"></line></g><rect x="646.91" y="444.29999999999995" width="188.09" height="13.5" fill="#fff" opacity="0"></rect><text font-size="13.50" x="681.9" y="455.1" fill="#2a939b"><tspan x="681.91" y="455.09999999999997">Pneumonia and influenza</tspan></text></g><g class="legendMark"><g class="indicator"><line x1="651.91" y1="508.9" x2="659.41" y2="508.9" stroke="#666" stroke-width="0.5"></line><line x1="659.41" y1="508.9" x2="659.41" y2="435.54999999999995" stroke="#666" stroke-width="0.5"></line><line x1="659.41" y1="435.54999999999995" x2="676.91" y2="435.54999999999995" stroke="#666" stroke-width="0.5"></line></g><rect x="646.91" y="428.79999999999995" width="93.725" height="13.5" fill="#fff" opacity="0"></rect><text font-size="13.50" x="681.9" y="439.6" fill="#e6332e"><tspan x="681.91" y="439.59999999999997">Accidents</tspan></text></g><g class="legendMark"><g class="indicator"><line x1="651.91" y1="492.5" x2="656.91" y2="492.5" stroke="#666" stroke-width="0.5"></line><line x1="656.91" y1="492.5" x2="656.91" y2="420.04999999999995" stroke="#666" stroke-width="0.5"></line><line x1="656.91" y1="420.04999999999995" x2="676.91" y2="420.04999999999995" stroke="#666" stroke-width="0.5"></line></g><rect x="646.91" y="413.29999999999995" width="74.15" height="13.5" fill="#fff" opacity="0"></rect><text font-size="13.50" x="681.9" y="424.1" fill="#9ecc8a"><tspan x="681.91" y="424.09999999999997">Stroke</tspan></text></g><g class="legendMark"><g class="indicator"><line x1="651.91" y1="389" x2="664.41" y2="389" stroke="#666" stroke-width="0.5"></line><line x1="664.41" y1="389" x2="664.41" y2="389" stroke="#666" stroke-width="0.5"></line><line x1="664.41" y1="389" x2="676.91" y2="389" stroke="#666" stroke-width="0.5"></line></g><rect x="646.91" y="382.25" width="85.355" height="13.5" fill="#fff" opacity="0"></rect><text font-size="13.50" x="681.9" y="393.1" fill="#ffd53e"><tspan x="681.91" y="393.05">Cancers</tspan></text></g><g class="legendMark"><g class="indicator"><line x1="651.91" y1="339.5" x2="664.41" y2="339.5" stroke="#666" stroke-width="0.5"></line><line x1="664.41" y1="339.5" x2="664.41" y2="339.5" stroke="#666" stroke-width="0.5"></line><line x1="664.41" y1="339.5" x2="676.91" y2="339.5" stroke="#666" stroke-width="0.5"></line></g><rect x="646.91" y="332.75" width="118.56500000000001" height="13.5" fill="#fff" opacity="0"></rect><text font-size="13.50" x="681.9" y="343.6" fill="#b077b1"><tspan x="681.91" y="343.55">Heart disease</tspan></text></g></g><g class="Lines"><rect x="47" y="106" width="600" height="430" fill="rgba(255,255,255,0)" opacity="0"></rect><g class="key-United-States_0"><path stroke="#e6332e" stroke-linecap="round" d="M47 483L53 474L60 482L66 476L72 473L78 476L84 467L90 467L96 475L102 478L108 475L115 475L121 478L127 476L133 482L139 485L145 480L151 478L157 482L164 489L170 491L194 492L200 491L206 477L212 478L219 478L225 477L231 477L237 478L243 483L249 482L255 477L261 478L268 473L274 476L280 483L286 484L292 482L298 480L304 483L310 482L317 483L323 482L329 486L335 485L341 486L347 491L353 491L359 490L365 490L372 491L378 495L384 494L390 494L396 495L414 497L421 499L427 497L433 496L439 496L445 495L451 493L457 494L463 493L469 493L476 494L482 495L488 495L494 495L500 500L506 500L512 502L518 501L525 501L531 501L537 501L543 503L549 506L555 506L561 507L567 507L574 506L580 507L586 506L592 507L598 508L604 510L610 511L616 510L622 510L629 509L635 509L641 509L647 509" fill="none" stroke-width="1.5"></path></g><g class="key-United-States_1"><path stroke="#ffd53e" stroke-linecap="round" d="M47 489L53 487L60 487L66 484L72 483L78 482L84 485L90 483L96 483L102 481L108 480L115 481L121 479L127 478L133 478L139 476L145 476L151 476L157 476L164 476L170 474L194 469L200 468L206 466L212 466L219 465L225 465L231 464L237 463L243 461L249 461L255 458L261 456L268 454L274 453L280 451L286 450L292 448L298 448L304 446L310 445L317 441L323 438L329 440L335 439L341 437L347 434L353 433L359 433L365 431L372 430L378 429L384 428L390 427L396 427L414 426L421 426L427 426L433 425L439 425L445 423L451 422L457 420L463 419L469 418L476 416L482 416L488 415L494 414L500 412L506 411L512 409L518 407L525 405L531 404L537 401L543 401L549 399L555 397L561 395L567 394L574 393L580 392L586 390L592 389L598 387L604 386L610 386L616 385L622 386L629 386L635 387L641 388L647 389" fill="none" stroke-width="1.5"></path></g><g class="key-United-States_2"><path stroke="#a652ba" stroke-linecap="round" d="M243 519L249 520L255 519L261 519L268 518L274 518L280 518L286 517L292 516L298 517L304 517L310 516L317 516L323 516L329 517L335 516L341 516L347 523L353 524L359 523L365 523L372 523L378 524L384 524L390 524L396 524L414 523L421 523L427 523L433 523L439 523L445 523L451 522L457 522L463 521L469 521L476 522L482 522L488 522L494 522L500 523L506 523L512 524L518 524L525 524L531 525L537 524L543 524L549 524L555 524L561 524L567 524L574 524L580 524L586 523L592 521L598 521L604 521L610 521L616 520L622 519L629 519L635 518L641 518L647 518" fill="none" stroke-width="1.5"></path></g><g class="key-United-States_3"><path stroke="#f6a324" stroke-linecap="round" d="M47 431L53 449L60 459L66 462L72 454L78 449L84 445L90 451L96 453L102 461L108 451L115 472L121 477L127 472L133 481L139 486L145 480L151 480L157 483L164 495L170 496L194 511L200 507L206 511L212 516L219 516L225 518L231 516L237 520" fill="none" stroke-width="1.5"></path></g><g class="key-United-States_4"><path stroke="#b077b1" stroke-linecap="round" d="M47 435L53 433L60 429L66 425L72 416L78 417L84 423L90 414L96 424L102 424L108 419L115 421L121 419L127 422L133 420L139 416L145 413L151 411L157 410L164 427L170 419L194 407L200 400L206 390L212 393L219 384L225 381L231 379L237 380L243 372L249 369L255 360L261 356L268 341L274 339L280 338L286 334L292 322L298 324L304 320L310 303L317 306L323 301L329 312L335 301L341 300L347 281L353 276L359 275L365 275L372 272L378 282L384 276L390 272L396 266L414 266L421 271L427 265L433 261L439 268L445 267L451 264L457 269L463 263L469 267L476 271L482 273L488 272L494 274L500 283L506 293L512 292L518 297L525 295L531 297L537 290L543 295L549 297L555 295L561 298L567 299L574 303L580 306L586 307L592 318L598 324L604 327L610 330L616 325L622 330L629 330L635 334L641 337L647 340" fill="none" stroke-width="1.5"></path></g><g class="key-United-States_5"><path stroke="#9ecc8a" stroke-linecap="round" d="M47 457L53 457L60 459L66 459L72 456L78 458L84 463L90 459L96 466L102 466L108 465L115 468L121 468L127 469L133 467L139 466L145 466L151 465L157 467L164 470L170 467L194 464L200 470L206 469L212 471L219 468L225 469L231 470L237 472L243 471L249 474L255 473L261 473L268 469L274 472L280 473L286 471L292 469L298 470L304 470L310 466L317 467L323 464L329 470L335 469L341 470L347 462L353 459L359 457L365 457L372 457L378 459L384 458L390 458L396 455L414 456L421 458L427 458L433 457L439 460L445 459L451 459L457 461L463 458L469 460L476 461L482 462L488 461L494 461L500 464L506 470L512 472L518 475L525 478L531 480L537 481L543 483L549 486L555 487L561 488L567 488L574 490L580 490L586 490L592 492L598 493L604 494L610 494L616 493L622 492L629 491L635 491L641 492L647 493" fill="none" stroke-width="1.5"></path></g><g class="key-United-States_6"><path stroke="#3360a9" stroke-linecap="round" d="M47 393L53 397L60 408L66 406L72 398L78 404L84 407L90 408L96 417L102 421L108 423L115 422L121 429L127 431L133 432L139 433L145 434L151 431L157 426L164 444L170 453L194 471L200 473L206 473L212 477L219 478L225 480L231 483L237 486L243 490L249 492L255 494L261 495L268 495L274 496L280 499L286 501L292 502L298 503L304 504L310 504L317 505L323 506L329 509L335 511L341 513L347 516L353 519L359 521L365 524L372 526L414 531L421 531L427 532L433 532L439 532L445 532L451 533L463 533" fill="none" stroke-width="1.5"></path></g><g class="key-United-States_7"><path stroke="#2a939b" stroke-linecap="round" d="M47 388L53 391L60 418L66 412L72 395L78 412L84 421L90 404L96 425L102 427L108 422L115 429L121 434L127 433L133 439L139 429L145 416L151 415L157 106L164 373L170 384L194 451L200 446L206 432L212 461L219 431L225 428L231 461L237 457L243 457L249 465L255 465L261 459L268 448L274 451L280 477L286 480L292 484L298 489L304 495L310 486L317 490L323 498L329 503L335 504L341 507L347 513L353 512L359 512L365 514L372 511L378 517L384 516L390 515L396 509L414 508L421 513L427 512L433 508L439 513L445 512L451 512L457 514L463 508L469 511L476 513L482 515L488 514L494 514L500 517L506 517L512 515L518 518L525 516L531 521L537 518L543 518L549 520L555 518L561 517L567 515L574 514L580 514L586 512L592 513L598 512L604 513L610 514L616 512L622 512L629 512L635 512L641 512L647 511" fill="none" stroke-width="1.5"></path></g><g class="key-United-States_8"><path stroke="#ca2628" stroke-linecap="round" d="M414 528L421 528L427 527L433 527L439 527L445 527L451 527L457 527L463 528L469 527L506 526L512 526L518 526L525 526L531 527L537 527L543 527L549 526L555 527L561 526L567 526L574 526L580 526L586 526L592 526L598 526L604 526L610 527L616 527L622 527L629 527L635 527L641 527L647 527" fill="none" stroke-width="1.5"></path></g><g class="key-United-States_9"><path stroke="#34983f" stroke-linecap="round" d="M206 521L212 520L219 518L225 517L231 516L237 516L243 518L249 517L255 514L261 514L268 514L274 513L280 517L286 517L292 516L298 513L304 520L310 522L317 522L323 520L329 520L335 519L341 519L347 520L353 518L359 518L365 518L372 518L378 519L384 518L390 518L396 519L414 520L421 520L427 519L433 518L439 517L445 517L451 516L457 516L469 515L482 516L488 516L494 516L500 519L506 520L512 520L518 519L525 518L531 518L537 518L543 519L549 521L555 521L561 521L567 521L574 521L580 521L586 521L592 521L598 522L604 523L610 524L616 523L622 523L629 523L635 523L641 524L647 524" fill="none" stroke-width="1.5"></path></g></g></g></g><g class="SourcesFooter" style="fill:#777"><g class="clickable" style="fill:#777"><text font-size="12.60" x="15.0" y="581.6"><tspan x="15" y="581.58">Source: Centre for Diseases Control (CDC)</tspan></text></g><text font-size="12.60" x="796.4" y="581.6"><tspan x="796.444" y="581.58"><a style="fill: #777;" class="cclogo" href="http://creativecommons.org/licenses/by/4.0/deed.en_US" target="_blank">CC BY</a></tspan></text></g></svg>