<svg xmlns="http://www.w3.org/2000/svg" version="1.1" style="font-family:Lato, &#x27;Helvetica Neue&#x27;, Helvetica, Arial, sans-serif;font-size:18px;background-color:white;text-rendering:optimizeLegibility;-webkit-font-smoothing:antialiased" width="850" height="600"><g class="HeaderView"><g transform="translate(774, 15) scale(0.29)"><svg width="210" height="120" viewBox="0 0 210 120" fill="none" xmlns="http://www.w3.org/2000/svg">
    <g clip-path="url(#clip0)">
        <path d="M0 0H210V107.89H0V0Z" fill="#002147"/>
        <path d="M40.9788 32.248C40.9788 34.6093 40.6048 36.78 39.8568 38.76C39.1088 40.7253 38.0528 42.4193 36.6888 43.842C35.3248 45.2647 33.6821 46.372 31.7608 47.164C29.8541 47.9413 27.7421 48.33 25.4248 48.33C23.1074 48.33 20.9954 47.9413 19.0888 47.164C17.1821 46.372 15.5468 45.2647 14.1828 43.842C12.8188 42.4193 11.7628 40.7253 11.0148 38.76C10.2668 36.78 9.89277 34.6093 9.89277 32.248C9.89277 29.8867 10.2668 27.7233 11.0148 25.758C11.7628 23.778 12.8188 22.0767 14.1828 20.654C15.5468 19.2167 17.1821 18.102 19.0888 17.31C20.9954 16.518 23.1074 16.122 25.4248 16.122C27.7421 16.122 29.8541 16.518 31.7608 17.31C33.6821 18.102 35.3248 19.2167 36.6888 20.654C38.0528 22.0767 39.1088 23.778 39.8568 25.758C40.6048 27.7233 40.9788 29.8867 40.9788 32.248ZM36.6008 32.248C36.6008 30.312 36.3368 28.574 35.8088 27.034C35.2808 25.494 34.5328 24.196 33.5648 23.14C32.5968 22.0693 31.4234 21.248 30.0448 20.676C28.6661 20.104 27.1261 19.818 25.4248 19.818C23.7381 19.818 22.2054 20.104 20.8268 20.676C19.4481 21.248 18.2674 22.0693 17.2848 23.14C16.3168 24.196 15.5688 25.494 15.0408 27.034C14.5128 28.574 14.2488 30.312 14.2488 32.248C14.2488 34.184 14.5128 35.922 15.0408 37.462C15.5688 38.9873 16.3168 40.2853 17.2848 41.356C18.2674 42.412 19.4481 43.226 20.8268 43.798C22.2054 44.3553 23.7381 44.634 25.4248 44.634C27.1261 44.634 28.6661 44.3553 30.0448 43.798C31.4234 43.226 32.5968 42.412 33.5648 41.356C34.5328 40.2853 35.2808 38.9873 35.8088 37.462C36.3368 35.922 36.6008 34.184 36.6008 32.248ZM62.8234 25.714V48H60.4914C59.9341 48 59.5821 47.7287 59.4354 47.186L59.1274 44.788C58.1594 45.8587 57.0741 46.724 55.8714 47.384C54.6687 48.0293 53.2901 48.352 51.7354 48.352C50.5181 48.352 49.4401 48.154 48.5014 47.758C47.5774 47.3473 46.8001 46.7753 46.1694 46.042C45.5387 45.3087 45.0621 44.4213 44.7394 43.38C44.4314 42.3387 44.2774 41.1873 44.2774 39.926V25.714H48.1934V39.926C48.1934 41.6127 48.5747 42.918 49.3374 43.842C50.1147 44.766 51.2954 45.228 52.8794 45.228C54.0381 45.228 55.1161 44.9567 56.1134 44.414C57.1254 43.8567 58.0567 43.094 58.9074 42.126V25.714H62.8234ZM71.4305 30.18C72.1346 28.6547 72.9999 27.4667 74.0266 26.616C75.0532 25.7507 76.3072 25.318 77.7886 25.318C78.2579 25.318 78.7052 25.3693 79.1306 25.472C79.5706 25.5747 79.9592 25.736 80.2966 25.956L80.0106 28.882C79.9226 29.2487 79.7026 29.432 79.3506 29.432C79.1452 29.432 78.8446 29.388 78.4486 29.3C78.0526 29.212 77.6052 29.168 77.1066 29.168C76.4026 29.168 75.7719 29.2707 75.2146 29.476C74.6719 29.6813 74.1806 29.9893 73.7406 30.4C73.3152 30.796 72.9266 31.2947 72.5746 31.896C72.2372 32.4827 71.9292 33.1573 71.6506 33.92V48H67.7125V25.714H69.9566C70.3819 25.714 70.6752 25.7947 70.8366 25.956C70.9979 26.1173 71.1079 26.396 71.1666 26.792L71.4305 30.18ZM132.589 16.474L122.755 48H118.927L110.941 23.954C110.867 23.7193 110.794 23.47 110.721 23.206C110.662 22.942 110.596 22.6633 110.523 22.37C110.449 22.6633 110.376 22.942 110.303 23.206C110.23 23.47 110.156 23.7193 110.083 23.954L102.053 48H98.2248L88.3908 16.474H91.9328C92.3142 16.474 92.6295 16.5693 92.8788 16.76C93.1428 16.9507 93.3115 17.1927 93.3848 17.486L99.8968 39.398C99.9995 39.794 100.095 40.2193 100.183 40.674C100.285 41.1287 100.381 41.6127 100.469 42.126C100.571 41.6127 100.674 41.1287 100.777 40.674C100.894 40.2047 101.019 39.7793 101.151 39.398L108.565 17.486C108.653 17.2367 108.821 17.0093 109.071 16.804C109.335 16.584 109.65 16.474 110.017 16.474H111.249C111.63 16.474 111.938 16.5693 112.173 16.76C112.407 16.9507 112.583 17.1927 112.701 17.486L120.093 39.398C120.225 39.7793 120.342 40.19 120.445 40.63C120.562 41.07 120.672 41.532 120.775 42.016C120.848 41.532 120.929 41.07 121.017 40.63C121.105 40.19 121.2 39.7793 121.303 39.398L127.837 17.486C127.91 17.222 128.072 16.9873 128.321 16.782C128.585 16.5767 128.9 16.474 129.267 16.474H132.589ZM141.94 25.362C143.568 25.362 145.034 25.6333 146.34 26.176C147.645 26.7187 148.76 27.4887 149.684 28.486C150.608 29.4833 151.312 30.6933 151.796 32.116C152.294 33.524 152.544 35.1007 152.544 36.846C152.544 38.606 152.294 40.19 151.796 41.598C151.312 43.006 150.608 44.2087 149.684 45.206C148.76 46.2033 147.645 46.9733 146.34 47.516C145.034 48.044 143.568 48.308 141.94 48.308C140.297 48.308 138.816 48.044 137.496 47.516C136.19 46.9733 135.076 46.2033 134.152 45.206C133.228 44.2087 132.516 43.006 132.018 41.598C131.534 40.19 131.292 38.606 131.292 36.846C131.292 35.1007 131.534 33.524 132.018 32.116C132.516 30.6933 133.228 29.4833 134.152 28.486C135.076 27.4887 136.19 26.7187 137.496 26.176C138.816 25.6333 140.297 25.362 141.94 25.362ZM141.94 45.25C144.14 45.25 145.782 44.5167 146.868 43.05C147.953 41.5687 148.496 39.508 148.496 36.868C148.496 34.2133 147.953 32.1453 146.868 30.664C145.782 29.1827 144.14 28.442 141.94 28.442C140.825 28.442 139.85 28.6327 139.014 29.014C138.192 29.3953 137.503 29.9453 136.946 30.664C136.403 31.3827 135.992 32.27 135.714 33.326C135.45 34.3673 135.318 35.548 135.318 36.868C135.318 39.508 135.86 41.5687 136.946 43.05C138.046 44.5167 139.71 45.25 141.94 45.25ZM159.908 30.18C160.612 28.6547 161.478 27.4667 162.504 26.616C163.531 25.7507 164.785 25.318 166.266 25.318C166.736 25.318 167.183 25.3693 167.608 25.472C168.048 25.5747 168.437 25.736 168.774 25.956L168.488 28.882C168.4 29.2487 168.18 29.432 167.828 29.432C167.623 29.432 167.322 29.388 166.926 29.3C166.53 29.212 166.083 29.168 165.584 29.168C164.88 29.168 164.25 29.2707 163.692 29.476C163.15 29.6813 162.658 29.9893 162.218 30.4C161.793 30.796 161.404 31.2947 161.052 31.896C160.715 32.4827 160.407 33.1573 160.128 33.92V48H156.19V25.714H158.434C158.86 25.714 159.153 25.7947 159.314 25.956C159.476 26.1173 159.586 26.396 159.644 26.792L159.908 30.18ZM174.946 15.594V48H171.03V15.594H174.946ZM194.496 31.016C193.763 30.0333 192.971 29.3513 192.12 28.97C191.269 28.574 190.316 28.376 189.26 28.376C187.192 28.376 185.601 29.1167 184.486 30.598C183.371 32.0793 182.814 34.1913 182.814 36.934C182.814 38.386 182.939 39.6327 183.188 40.674C183.437 41.7007 183.804 42.5513 184.288 43.226C184.772 43.886 185.366 44.37 186.07 44.678C186.774 44.986 187.573 45.14 188.468 45.14C189.759 45.14 190.881 44.8467 191.834 44.26C192.802 43.6733 193.689 42.8447 194.496 41.774V31.016ZM198.412 15.594V48H196.08C195.523 48 195.171 47.7287 195.024 47.186L194.672 44.48C193.719 45.624 192.633 46.548 191.416 47.252C190.199 47.956 188.791 48.308 187.192 48.308C185.916 48.308 184.757 48.066 183.716 47.582C182.675 47.0833 181.787 46.3573 181.054 45.404C180.321 44.4507 179.756 43.2627 179.36 41.84C178.964 40.4173 178.766 38.782 178.766 36.934C178.766 35.2913 178.986 33.766 179.426 32.358C179.866 30.9353 180.497 29.7033 181.318 28.662C182.139 27.6207 183.144 26.8067 184.332 26.22C185.535 25.6187 186.884 25.318 188.38 25.318C189.744 25.318 190.91 25.5527 191.878 26.022C192.861 26.4767 193.733 27.1147 194.496 27.936V15.594H198.412ZM46.6139 70.714V93H42.6979V70.714H46.6139ZM47.4499 63.718C47.4499 64.0993 47.3692 64.4587 47.2079 64.796C47.0612 65.1187 46.8559 65.412 46.5919 65.676C46.3425 65.9253 46.0419 66.1233 45.6899 66.27C45.3525 66.4167 44.9932 66.49 44.6119 66.49C44.2305 66.49 43.8712 66.4167 43.5339 66.27C43.2112 66.1233 42.9252 65.9253 42.6759 65.676C42.4265 65.412 42.2285 65.1187 42.0819 64.796C41.9352 64.4587 41.8619 64.0993 41.8619 63.718C41.8619 63.3367 41.9352 62.9773 42.0819 62.64C42.2285 62.288 42.4265 61.9873 42.6759 61.738C42.9252 61.474 43.2112 61.2687 43.5339 61.122C43.8712 60.9753 44.2305 60.902 44.6119 60.902C44.9932 60.902 45.3525 60.9753 45.6899 61.122C46.0419 61.2687 46.3425 61.474 46.5919 61.738C46.8559 61.9873 47.0612 62.288 47.2079 62.64C47.3692 62.9773 47.4499 63.3367 47.4499 63.718ZM55.4242 73.948C55.9082 73.4053 56.4215 72.914 56.9642 72.474C57.5068 72.034 58.0788 71.66 58.6802 71.352C59.2962 71.0293 59.9415 70.7873 60.6162 70.626C61.3055 70.45 62.0462 70.362 62.8382 70.362C64.0555 70.362 65.1262 70.5673 66.0502 70.978C66.9888 71.374 67.7662 71.946 68.3822 72.694C69.0128 73.4273 69.4895 74.3147 69.8122 75.356C70.1348 76.3973 70.2962 77.5487 70.2962 78.81V93H66.3582V78.81C66.3582 77.1233 65.9695 75.818 65.1922 74.894C64.4295 73.9553 63.2635 73.486 61.6942 73.486C60.5355 73.486 59.4502 73.7647 58.4382 74.322C57.4408 74.8793 56.5168 75.6347 55.6662 76.588V93H51.7282V70.714H54.0822C54.6395 70.714 54.9842 70.9853 55.1162 71.528L55.4242 73.948ZM113.129 77.248C113.129 79.6093 112.755 81.758 112.007 83.694C111.259 85.63 110.203 87.2873 108.839 88.666C107.475 90.0447 105.832 91.1153 103.911 91.878C102.004 92.626 99.8925 93 97.5751 93H85.8051V61.474H97.5751C99.8925 61.474 102.004 61.8553 103.911 62.618C105.832 63.366 107.475 64.4367 108.839 65.83C110.203 67.2087 111.259 68.866 112.007 70.802C112.755 72.738 113.129 74.8867 113.129 77.248ZM108.751 77.248C108.751 75.312 108.487 73.5813 107.959 72.056C107.431 70.5307 106.683 69.24 105.715 68.184C104.747 67.128 103.574 66.3213 102.195 65.764C100.816 65.2067 99.2765 64.928 97.5751 64.928H90.0731V89.546H97.5751C99.2765 89.546 100.816 89.2673 102.195 88.71C103.574 88.1527 104.747 87.3533 105.715 86.312C106.683 85.256 107.431 83.9653 107.959 82.44C108.487 80.9147 108.751 79.184 108.751 77.248ZM128.553 82.968C126.749 83.0267 125.209 83.1733 123.933 83.408C122.672 83.628 121.638 83.9213 120.831 84.288C120.039 84.6547 119.46 85.0873 119.093 85.586C118.741 86.0847 118.565 86.642 118.565 87.258C118.565 87.8447 118.661 88.3507 118.851 88.776C119.042 89.2013 119.299 89.5533 119.621 89.832C119.959 90.096 120.347 90.294 120.787 90.426C121.242 90.5433 121.726 90.602 122.239 90.602C122.929 90.602 123.559 90.536 124.131 90.404C124.703 90.2573 125.239 90.052 125.737 89.788C126.251 89.524 126.735 89.2087 127.189 88.842C127.659 88.4753 128.113 88.0573 128.553 87.588V82.968ZM115.903 73.86C117.135 72.672 118.463 71.7847 119.885 71.198C121.308 70.6113 122.885 70.318 124.615 70.318C125.862 70.318 126.969 70.5233 127.937 70.934C128.905 71.3447 129.719 71.9167 130.379 72.65C131.039 73.3833 131.538 74.2707 131.875 75.312C132.213 76.3533 132.381 77.4973 132.381 78.744V93H130.643C130.262 93 129.969 92.9413 129.763 92.824C129.558 92.692 129.397 92.4427 129.279 92.076L128.839 89.964C128.253 90.5067 127.681 90.9907 127.123 91.416C126.566 91.8267 125.979 92.1787 125.363 92.472C124.747 92.7507 124.087 92.9633 123.383 93.11C122.694 93.2713 121.924 93.352 121.073 93.352C120.208 93.352 119.394 93.2347 118.631 93C117.869 92.7507 117.201 92.384 116.629 91.9C116.072 91.416 115.625 90.8073 115.287 90.074C114.965 89.326 114.803 88.446 114.803 87.434C114.803 86.554 115.045 85.7107 115.529 84.904C116.013 84.0827 116.798 83.3567 117.883 82.726C118.969 82.0953 120.384 81.582 122.129 81.186C123.875 80.7753 126.016 80.5407 128.553 80.482V78.744C128.553 77.0133 128.179 75.708 127.431 74.828C126.683 73.9333 125.591 73.486 124.153 73.486C123.185 73.486 122.371 73.6107 121.711 73.86C121.066 74.0947 120.501 74.366 120.017 74.674C119.548 74.9673 119.137 75.2387 118.785 75.488C118.448 75.7227 118.111 75.84 117.773 75.84C117.509 75.84 117.282 75.774 117.091 75.642C116.901 75.4953 116.739 75.3193 116.607 75.114L115.903 73.86ZM143.568 93.352C141.808 93.352 140.451 92.8607 139.498 91.878C138.559 90.8953 138.09 89.48 138.09 87.632V73.992H135.406C135.171 73.992 134.973 73.926 134.812 73.794C134.65 73.6473 134.57 73.4273 134.57 73.134V71.572L138.222 71.11L139.124 64.224C139.168 64.004 139.263 63.828 139.41 63.696C139.571 63.5493 139.776 63.476 140.026 63.476H142.006V71.154H148.452V73.992H142.006V87.368C142.006 88.3067 142.233 89.0033 142.688 89.458C143.142 89.9127 143.729 90.14 144.448 90.14C144.858 90.14 145.21 90.0887 145.504 89.986C145.812 89.8687 146.076 89.744 146.296 89.612C146.516 89.48 146.699 89.3627 146.846 89.26C147.007 89.1427 147.146 89.084 147.264 89.084C147.469 89.084 147.652 89.2087 147.814 89.458L148.958 91.328C148.283 91.9587 147.469 92.4573 146.516 92.824C145.562 93.176 144.58 93.352 143.568 93.352ZM163.253 82.968C161.449 83.0267 159.909 83.1733 158.633 83.408C157.372 83.628 156.338 83.9213 155.531 84.288C154.739 84.6547 154.16 85.0873 153.793 85.586C153.441 86.0847 153.265 86.642 153.265 87.258C153.265 87.8447 153.36 88.3507 153.551 88.776C153.742 89.2013 153.998 89.5533 154.321 89.832C154.658 90.096 155.047 90.294 155.487 90.426C155.942 90.5433 156.426 90.602 156.939 90.602C157.628 90.602 158.259 90.536 158.831 90.404C159.403 90.2573 159.938 90.052 160.437 89.788C160.95 89.524 161.434 89.2087 161.889 88.842C162.358 88.4753 162.813 88.0573 163.253 87.588V82.968ZM150.603 73.86C151.835 72.672 153.162 71.7847 154.585 71.198C156.008 70.6113 157.584 70.318 159.315 70.318C160.562 70.318 161.669 70.5233 162.637 70.934C163.605 71.3447 164.419 71.9167 165.079 72.65C165.739 73.3833 166.238 74.2707 166.575 75.312C166.912 76.3533 167.081 77.4973 167.081 78.744V93H165.343C164.962 93 164.668 92.9413 164.463 92.824C164.258 92.692 164.096 92.4427 163.979 92.076L163.539 89.964C162.952 90.5067 162.38 90.9907 161.823 91.416C161.266 91.8267 160.679 92.1787 160.063 92.472C159.447 92.7507 158.787 92.9633 158.083 93.11C157.394 93.2713 156.624 93.352 155.773 93.352C154.908 93.352 154.094 93.2347 153.331 93C152.568 92.7507 151.901 92.384 151.329 91.9C150.772 91.416 150.324 90.8073 149.987 90.074C149.664 89.326 149.503 88.446 149.503 87.434C149.503 86.554 149.745 85.7107 150.229 84.904C150.713 84.0827 151.498 83.3567 152.583 82.726C153.668 82.0953 155.084 81.582 156.829 81.186C158.574 80.7753 160.716 80.5407 163.253 80.482V78.744C163.253 77.0133 162.879 75.708 162.131 74.828C161.383 73.9333 160.29 73.486 158.853 73.486C157.885 73.486 157.071 73.6107 156.411 73.86C155.766 74.0947 155.201 74.366 154.717 74.674C154.248 74.9673 153.837 75.2387 153.485 75.488C153.148 75.7227 152.81 75.84 152.473 75.84C152.209 75.84 151.982 75.774 151.791 75.642C151.6 75.4953 151.439 75.3193 151.307 75.114L150.603 73.86Z" fill="white"/>
        <rect y="106.789" width="210" height="13.211" fill="#D42B21"/>
    </g>
    <defs>
        <clipPath id="clip0">
            <rect width="210" height="120" fill="white"/>
        </clipPath>
    </defs>
</svg></g><a href="https://staging-owid.netlify.com/grapher/frequency-north-atlantic-hurricanes" target="_blank"><text font-size="25.20" x="15.0" y="35.2" fill="#555"><tspan x="15" y="35.160000000000004">Frequency of North Atlantic hurricanes</tspan></text></a><text font-size="14.40" x="15.0" y="53.7" fill="#666"><tspan x="15" y="53.72">Number of annual hurricanes formed in the North Atlantic (Atlantic Ocean, Caribbean, and Gulf of Mexico). This is</tspan><tspan x="15" y="69.56">given as the total number and those which reached landfall in the US. Major hurricanes are defined as those of</tspan><tspan x="15" y="85.4">category 3, 4 or 5 on the Saffir–Simpson hurricane wind scale (SSHWS). The SSHWS classifies storms based on</tspan><tspan x="15" y="101.24000000000001">the intensity of sustained winds. Major hurricanes have potential for significant loss of life and damage.</tspan></text></g><g class="LineChart"><defs><clipPath id="boundsClip-1671"><rect x="28.144000000000005" y="0" width="830" height="816"></rect></clipPath></defs><g class="AxisBoxView"><g class="HorizontalAxis"><text x="38.1" y="529.1" fill="#666" text-anchor="middle" font-size="16.2">1851</text><text x="138.4" y="529.1" fill="#666" text-anchor="middle" font-size="16.2">1880</text><text x="207.6" y="529.1" fill="#666" text-anchor="middle" font-size="16.2">1900</text><text x="276.7" y="529.1" fill="#666" text-anchor="middle" font-size="16.2">1920</text><text x="345.9" y="529.1" fill="#666" text-anchor="middle" font-size="16.2">1940</text><text x="415" y="529.1" fill="#666" text-anchor="middle" font-size="16.2">1960</text><text x="484.2" y="529.1" fill="#666" text-anchor="middle" font-size="16.2">1980</text><text x="553.3" y="529.1" fill="#666" text-anchor="middle" font-size="16.2">2000</text><text x="612.1" y="529.1" fill="#666" text-anchor="middle" font-size="16.2">2017</text></g><g class="VerticalAxis"><text x="33.14" y="507.9" fill="#666" dominant-baseline="middle" text-anchor="end" font-size="16.2">0</text><text x="33.14" y="456.3" fill="#666" dominant-baseline="middle" text-anchor="end" font-size="16.2">2</text><text x="33.14" y="404.8" fill="#666" dominant-baseline="middle" text-anchor="end" font-size="16.2">4</text><text x="33.14" y="353.2" fill="#666" dominant-baseline="middle" text-anchor="end" font-size="16.2">6</text><text x="33.14" y="301.6" fill="#666" dominant-baseline="middle" text-anchor="end" font-size="16.2">8</text><text x="33.14" y="250" fill="#666" dominant-baseline="middle" text-anchor="end" font-size="16.2">10</text><text x="33.14" y="198.5" fill="#666" dominant-baseline="middle" text-anchor="end" font-size="16.2">12</text><text x="33.14" y="146.9" fill="#666" dominant-baseline="middle" text-anchor="end" font-size="16.2">14</text></g><g class="AxisGridLines"><line x1="38.14" y1="507.9" x2="612.08" y2="507.9" stroke="#ccc"></line><line x1="38.14" y1="456.3" x2="612.08" y2="456.3" stroke="#ddd" stroke-dasharray="3,2"></line><line x1="38.14" y1="404.8" x2="612.08" y2="404.8" stroke="#ddd" stroke-dasharray="3,2"></line><line x1="38.14" y1="353.2" x2="612.08" y2="353.2" stroke="#ddd" stroke-dasharray="3,2"></line><line x1="38.14" y1="301.6" x2="612.08" y2="301.6" stroke="#ddd" stroke-dasharray="3,2"></line><line x1="38.14" y1="250" x2="612.08" y2="250" stroke="#ddd" stroke-dasharray="3,2"></line><line x1="38.14" y1="198.5" x2="612.08" y2="198.5" stroke="#ddd" stroke-dasharray="3,2"></line><line x1="38.14" y1="146.9" x2="612.08" y2="146.9" stroke="#ddd" stroke-dasharray="3,2"></line></g></g><g clip-path="url(#boundsClip-1671)"><g class="HeightedLegend"><g class="legendMark"><rect x="612.0799999999999" y="243.25" width="185.39000000000001" height="13.5" fill="#fff" opacity="0"></rect><text font-size="13.50" x="617.1" y="254.1" fill="#f6a324"><tspan x="617.0799999999999" y="254.05">North Atlantic Hurricanes</tspan></text></g><g class="legendMark"><rect x="612.0799999999999" y="346.45" width="222.92000000000002" height="13.5" fill="#fff" opacity="0"></rect><text font-size="13.50" x="617.1" y="357.3" fill="#34983f"><tspan x="617.0799999999999" y="357.25">Major North Atlantic Hurricanes</tspan></text></g><g class="legendMark"><rect x="612.0799999999999" y="423.75" width="122.885" height="13.5" fill="#fff" opacity="0"></rect><text font-size="13.50" x="617.1" y="434.6" fill="#ca2628"><tspan x="617.0799999999999" y="434.55">US Hurricanes</tspan></text></g><g class="legendMark"><rect x="612.0799999999999" y="449.55" width="160.41500000000002" height="13.5" fill="#fff" opacity="0"></rect><text font-size="13.50" x="617.1" y="460.4" fill="#3360a9"><tspan x="617.0799999999999" y="460.35">Major US Hurricanes</tspan></text></g></g><g class="Lines"><rect x="38" y="121" width="574" height="387" fill="rgba(255,255,255,0)" opacity="0"></rect><g class="key-North-Atlantic_0"><path stroke="#ca2628" stroke-linecap="round" d="M38 456L42 431L45 482L49 431L52 482L55 456L59 482L62 482L66 456L69 431L73 431L76 508L80 508L83 508L87 456L90 482L94 456L97 508L100 405L104 431L107 431L111 508L114 456L118 482L121 482L125 482L128 456L132 456L135 431L138 405L142 456L145 456L149 482L152 508L156 482L159 327L163 405L166 431L170 482L173 508L176 456L180 508L183 379L187 456L190 482L194 431L197 482L201 431L204 431L208 482L211 456L215 508L218 456L221 456L225 508L228 405L232 508L235 482L239 379L242 456L246 456L249 456L253 431L256 508L259 405L263 405L266 482L270 456L273 482L277 482L280 456L284 508L287 482L291 431L294 508L298 405L301 508L304 456L308 456L311 508L315 508L318 456L322 379L325 431L329 456L332 431L336 508L339 456L342 482L346 456L349 456L353 456L356 482L360 431L363 431L367 482L370 431L374 431L377 431L380 431L384 508L387 482L391 431L394 431L398 456L401 482L405 482L408 482L412 431L415 456L419 482L422 508L425 482L429 405L432 482L436 456L439 482L443 482L446 456L450 482L453 431L457 482L460 508L463 482L467 482L470 482L474 482L477 508L481 431L484 482L488 508L491 508L495 482L498 482L501 353L505 456L508 482L512 482L515 431L519 508L522 482L526 482L529 482L533 508L536 456L540 456L543 482L546 431L550 431L553 508L557 508L560 482L564 456L567 353L571 353L574 508L578 482L581 431L584 508L588 508L591 482L595 456L598 508L602 482L605 508L609 456L612 431" fill="none" stroke-width="1.5"></path></g><g class="key-North-Atlantic_1"><path stroke="#3360a9" stroke-linecap="round" d="M38 482L42 482L45 508L49 482L52 482L55 482L59 508L62 508L66 508L69 482L73 508L76 508L80 508L83 508L87 508L90 508L94 508L97 508L100 482L104 508L107 482L111 508L114 482L118 508L121 482L125 508L128 482L132 508L135 456L138 482L142 508L145 482L149 508L152 508L156 508L159 456L163 508L166 482L170 508L173 508L176 508L180 508L183 431L187 482L190 508L194 482L197 508L201 482L204 482L208 482L211 508L215 508L218 508L221 508L225 508L228 482L232 508L235 508L239 431L242 508L246 508L249 508L253 508L256 508L259 456L263 456L266 482L270 482L273 482L277 508L280 482L284 508L287 508L291 508L294 508L298 456L301 508L304 482L308 482L311 508L315 508L318 482L322 456L325 508L329 482L332 508L336 508L339 482L342 508L346 508L349 482L353 482L356 508L360 482L363 456L367 508L370 482L374 482L377 482L380 456L384 508L387 508L391 508L394 456L398 508L401 508L405 482L408 482L412 482L415 482L419 482L422 508L425 508L429 482L432 482L436 508L439 482L443 508L446 482L450 482L453 508L457 508L460 508L463 482L467 482L470 508L474 508L477 508L481 482L484 482L488 508L491 508L495 482L498 508L501 456L505 508L508 508L512 508L515 482L519 508L522 508L526 482L529 482L533 508L536 482L540 482L543 508L546 508L550 482L553 508L557 508L560 508L564 508L567 431L571 405L574 508L578 508L581 508L584 508L588 508L591 508L595 508L598 508L602 508L605 508L609 508L612 456" fill="none" stroke-width="1.5"></path></g><g class="key-North-Atlantic_2"><path stroke="#34983f" stroke-linecap="round" d="M38 482L42 482L45 456L49 482L52 482L55 456L59 508L62 508L66 482L69 482L73 508L76 508L80 508L83 508L87 508L90 482L94 482L97 508L100 482L104 456L107 456L111 508L114 456L118 508L121 482L125 456L128 482L132 456L135 456L138 456L142 508L145 456L149 456L152 482L156 508L159 405L163 456L166 456L170 508L173 482L176 482L180 508L183 379L187 405L190 508L194 456L197 508L201 482L204 456L208 456L211 508L215 508L218 482L221 508L225 482L228 431L232 508L235 482L239 405L242 482L246 508L249 482L253 508L256 508L259 431L263 379L266 456L270 482L273 482L277 508L280 456L284 482L287 482L291 456L294 508L298 353L301 482L304 482L308 482L311 456L315 482L318 405L322 353L325 482L329 431L332 482L336 482L339 456L342 482L346 508L349 431L353 482L356 456L360 431L363 456L367 508L370 456L374 405L377 456L380 353L384 431L387 456L391 431L394 431L398 405L401 482L405 456L408 431L412 456L415 456L419 327L422 482L425 456L429 353L432 482L436 431L439 482L443 508L446 379L450 456L453 482L457 508L460 482L463 456L467 431L470 456L474 482L477 456L481 456L484 456L488 431L491 482L495 482L498 482L501 431L505 508L508 482L512 431L515 456L519 482L522 456L526 482L529 482L533 508L536 379L540 353L543 482L546 431L550 379L553 431L557 405L560 456L564 431L567 353L571 327L574 456L578 456L581 379L584 456L588 379L591 405L595 456L598 508L602 456L605 456L609 405L612 353" fill="none" stroke-width="1.5"></path></g><g class="key-North-Atlantic_3"><path stroke="#f6a324" stroke-linecap="round" d="M38 431L42 379L45 405L49 431L52 405L55 405L59 431L62 353L66 327L69 353L73 353L76 431L80 379L83 431L87 431L90 353L94 327L97 431L100 327L104 250L107 353L111 405L114 431L118 405L121 379L125 405L128 431L132 250L135 353L138 276L142 405L145 405L149 431L152 405L156 353L159 250L163 224L166 353L170 353L173 456L176 327L180 379L183 250L187 379L190 456L194 353L197 431L201 379L204 379L208 431L211 353L215 431L218 327L221 405L225 482L228 353L232 508L235 353L239 353L242 431L246 431L249 405L253 405L256 508L259 379L263 250L266 456L270 405L273 456L277 405L280 379L284 431L287 405L291 379L294 482L298 302L301 405L304 405L308 431L311 456L315 431L318 353L322 224L325 327L329 379L332 327L336 405L339 405L342 431L346 353L349 405L353 405L356 379L360 302L363 379L367 431L370 379L374 353L377 327L380 224L384 302L387 379L391 327L394 327L398 276L401 405L405 431L408 327L412 327L415 405L419 302L422 431L425 327L429 353L432 405L436 327L439 353L443 405L446 199L450 379L453 353L457 431L460 405L463 405L467 353L470 353L474 379L477 379L481 379L484 276L488 327L491 456L495 431L498 379L501 327L505 405L508 431L512 379L515 327L519 302L522 405L526 405L529 405L533 431L536 224L540 276L543 431L546 250L550 302L553 302L557 276L560 405L564 327L567 276L571 121L574 379L578 353L581 302L584 431L588 199L591 327L595 250L598 456L602 353L605 405L609 327L612 250" fill="none" stroke-width="1.5"></path></g></g></g></g><g class="SourcesFooter" style="fill:#777"><g class="clickable" style="fill:#777"><text font-size="12.60" x="15.0" y="554.2"><tspan x="15" y="554.1800000000001">Source: Hurricane Database; HUDRAT (NOAA)</tspan></text></g><text font-size="12.60" x="15.0" y="568.8"><tspan x="15" y="568.7800000000001">Note: NOAA notes that because of the sparseness of towns and cities before 1900 in some coastal locations along the United States, the data</tspan><tspan x="15" y="582.6400000000001">prior to 1900 may not be complete for all US states.</tspan></text><text font-size="12.60" x="796.4" y="554.2"><tspan x="796.444" y="554.1800000000001"><a style="fill: #777;" class="cclogo" href="http://creativecommons.org/licenses/by/4.0/deed.en_US" target="_blank">CC BY</a></tspan></text></g></svg>