<svg xmlns="http://www.w3.org/2000/svg" version="1.1" style="font-family:Lato, &#x27;Helvetica Neue&#x27;, Helvetica, Arial, sans-serif;font-size:18px;background-color:white;text-rendering:optimizeLegibility;-webkit-font-smoothing:antialiased" width="850" height="600"><g class="HeaderView"><g transform="translate(739, 15) scale(0.95)"><svg width="102" height="37" viewBox="0 0 102 37" fill="none" xmlns="http://www.w3.org/2000/svg">
    <path d="M47 0H0V37H47V0Z" fill="#EA4148"/>
    <path d="M3.78448 11.8471C3.78448 8.29581 6.4514 6.24184 9.45661 6.24184C10.5862 6.22139 11.6845 6.61681 12.547 7.35439L10.8535 9.70712C10.536 9.39217 10.1133 9.20888 9.66865 9.19339C8.31383 9.19339 7.50968 10.2205 7.50968 11.8465C7.50968 13.4724 8.39833 14.4993 9.54143 14.4993C10.1632 14.4577 10.7559 14.218 11.2346 13.8147L12.6315 16.2106C11.6462 17.0381 10.3987 17.4787 9.11799 17.4515C6.11213 17.4521 3.78448 15.3981 3.78448 11.8471Z" fill="white"/>
    <path d="M18.8533 11.8468C18.8533 10.2208 18.4299 9.1937 17.3295 9.1937C16.2291 9.1937 15.8057 10.2208 15.8057 11.8468C15.8057 13.4728 16.2288 14.4996 17.3295 14.4996C18.4302 14.4996 18.8533 13.4728 18.8533 11.8468ZM12.0805 11.8468C12.0805 8.29548 14.6205 6.24152 17.3295 6.24152C20.0385 6.24152 22.5785 8.29548 22.5785 11.8468C22.5785 15.3981 20.0388 17.4518 17.3295 17.4518C14.6202 17.4518 12.0805 15.3978 12.0805 11.8468" fill="white"/>
    <path d="M23.3444 6.49837H26.3078L26.5629 8.33833H26.6477C27.4305 6.88351 28.616 6.24183 29.653 6.24183C30.1005 6.21786 30.5479 6.2907 30.9654 6.4555L30.3726 9.62169C29.9857 9.51704 29.5878 9.45969 29.1874 9.45088C28.4254 9.45088 27.494 9.92142 26.9873 11.2477V17.1949H23.3444V6.49837Z" fill="white"/>
    <path d="M36.9755 10.5631C36.9755 9.7503 36.6369 9.02289 35.5365 9.02289C34.732 9.02289 34.0548 9.49343 33.843 10.5631H36.9755ZM30.372 11.8468C30.372 8.38121 32.8696 6.24152 35.4517 6.24152C38.5841 6.24152 40.0655 8.55202 40.0655 11.4188C40.0678 11.9359 40.0182 12.452 39.9176 12.959H33.8845C34.2231 14.2427 35.1545 14.6704 36.3397 14.6704C37.1026 14.652 37.8473 14.4306 38.4987 14.0287L39.6838 16.2109C38.5453 16.9915 37.2075 17.4225 35.8321 17.4518C32.7417 17.4518 30.3713 15.3978 30.3713 11.8468" fill="white"/>
    <path d="M10.432 23.8695C10.432 23.0567 10.0934 22.3293 8.993 22.3293C8.18853 22.3293 7.51128 22.7998 7.29956 23.8695H10.432ZM3.82849 25.1532C3.82849 21.6876 6.32609 19.5479 8.90818 19.5479C12.0406 19.5479 13.522 21.8584 13.522 24.7252C13.5243 25.2423 13.4747 25.7584 13.3741 26.2654H7.34196C7.68059 27.5491 8.61197 27.9768 9.79716 27.9768C10.5601 27.9583 11.3047 27.737 11.9561 27.3351L13.1413 29.5173C12.0027 30.2979 10.665 30.7288 9.28954 30.7582C6.19918 30.7582 3.82881 28.7042 3.82881 25.1532" fill="#1A1818"/>
    <path d="M13.9034 25.1532C13.9034 21.6019 16.5703 19.5479 19.5755 19.5479C20.7051 19.5275 21.8034 19.9229 22.6659 20.6605L20.9724 23.0132C20.6549 22.6983 20.2322 22.515 19.7875 22.4995C18.4327 22.4995 17.6286 23.5266 17.6286 25.1526C17.6286 26.7785 18.5172 27.8054 19.6603 27.8054C20.282 27.764 20.8747 27.5245 21.3534 27.1215L22.7504 29.5174C21.7651 30.3449 20.5176 30.7854 19.2369 30.7582C16.2313 30.7582 13.9034 28.7042 13.9034 25.1532" fill="#1A1818"/>
    <path d="M28.9741 25.1532C28.9741 23.5272 28.5507 22.5001 27.4503 22.5001C26.3499 22.5001 25.9265 23.5272 25.9265 25.1532C25.9265 26.7792 26.3496 27.806 27.4503 27.806C28.551 27.806 28.9741 26.7792 28.9741 25.1532ZM22.2013 25.1532C22.2013 21.6019 24.7413 19.5479 27.4503 19.5479C30.1593 19.5479 32.6993 21.6019 32.6993 25.1532C32.6993 28.7045 30.1583 30.7591 27.449 30.7591C24.7397 30.7591 22.2 28.7052 22.2 25.1542" fill="#1A1818"/>
    <path d="M33.5449 19.8048H36.5084L36.7635 21.0885H36.8483C37.6945 20.2757 38.7528 19.5483 40.1921 19.5483C42.5198 19.5483 43.4939 21.2596 43.4939 23.9124V30.5013H39.8522V24.383C39.8522 23.0139 39.5136 22.6716 38.7939 22.6716C38.1167 22.6716 37.7356 22.971 37.1856 23.4844V30.5013H33.5449V19.8048Z" fill="#1A1818"/>
    <rect width="54" height="37" transform="translate(48)" fill="white"/>
    <path d="M48 0H101.93V32.9917H48V0Z" fill="#002147"/>
    <path d="M58.4185 10.86C58.4185 11.4733 58.3189 12.0387 58.1195 12.5562C57.9202 13.0737 57.6384 13.5203 57.2743 13.896C56.9139 14.2678 56.4789 14.5592 55.969 14.77C55.463 14.9808 54.8995 15.0863 54.2785 15.0863C53.6614 15.0863 53.0979 14.9808 52.588 14.77C52.082 14.5592 51.6469 14.2678 51.2828 13.896C50.9186 13.5203 50.6369 13.0737 50.4375 12.5562C50.2382 12.0387 50.1385 11.4733 50.1385 10.86C50.1385 10.2467 50.2382 9.68125 50.4375 9.16375C50.6369 8.64625 50.9186 8.19967 51.2828 7.824C51.6469 7.44833 52.082 7.15508 52.588 6.94425C53.0979 6.73342 53.6614 6.628 54.2785 6.628C54.8995 6.628 55.463 6.73342 55.969 6.94425C56.4789 7.15508 56.9139 7.44833 57.2743 7.824C57.6384 8.19967 57.9202 8.64625 58.1195 9.16375C58.3189 9.68125 58.4185 10.2467 58.4185 10.86ZM57.0443 10.86C57.0443 10.3847 56.9791 9.95725 56.8488 9.57775C56.7223 9.19825 56.5383 8.87625 56.2968 8.61175C56.0591 8.34725 55.7697 8.14408 55.4285 8.00225C55.0874 7.86042 54.704 7.7895 54.2785 7.7895C53.8569 7.7895 53.4754 7.86042 53.1343 8.00225C52.7931 8.14408 52.5018 8.34725 52.2603 8.61175C52.0188 8.87625 51.8329 9.19825 51.7025 9.57775C51.5722 9.95725 51.507 10.3847 51.507 10.86C51.507 11.3392 51.5722 11.7685 51.7025 12.148C51.8329 12.5275 52.0188 12.8495 52.2603 13.114C52.5018 13.3747 52.7931 13.5759 53.1343 13.7177C53.4754 13.8557 53.8569 13.9247 54.2785 13.9247C54.704 13.9247 55.0874 13.8557 55.4285 13.7177C55.7697 13.5759 56.0591 13.3747 56.2968 13.114C56.5383 12.8495 56.7223 12.5275 56.8488 12.148C56.9791 11.7685 57.0443 11.3392 57.0443 10.86ZM64.1841 9.135V15H63.4366C63.2717 15 63.1663 14.9214 63.1203 14.7642L63.0283 14.218C62.9056 14.3483 62.7753 14.4672 62.6373 14.5745C62.5031 14.6818 62.3594 14.7738 62.2061 14.8505C62.0527 14.9272 61.8879 14.9866 61.7116 15.0288C61.5391 15.0709 61.3531 15.092 61.1538 15.092C60.8318 15.092 60.5481 15.0383 60.3028 14.931C60.0575 14.8237 59.8505 14.6722 59.6818 14.4767C59.517 14.2812 59.3924 14.0474 59.3081 13.7752C59.2237 13.4992 59.1816 13.1964 59.1816 12.8667V9.135H60.4178V12.8667C60.4178 13.2616 60.5079 13.5682 60.6881 13.7867C60.8721 14.0052 61.15 14.1145 61.5218 14.1145C61.794 14.1145 62.047 14.0532 62.2808 13.9305C62.5185 13.804 62.7408 13.6315 62.9478 13.413V9.135H64.1841ZM66.5076 10.2217C66.6916 9.84992 66.9139 9.55858 67.1746 9.34775C67.4353 9.13308 67.7477 9.02575 68.1119 9.02575C68.2384 9.02575 68.3572 9.04108 68.4684 9.07175C68.5795 9.09858 68.6792 9.14075 68.7674 9.19825L68.6811 10.1297C68.6658 10.1949 68.6409 10.2409 68.6064 10.2677C68.5757 10.2907 68.5335 10.3022 68.4799 10.3022C68.4224 10.3022 68.3399 10.2927 68.2326 10.2735C68.1253 10.2505 68.0122 10.239 67.8934 10.239C67.7209 10.239 67.5675 10.2639 67.4334 10.3137C67.303 10.3636 67.1842 10.4364 67.0769 10.5322C66.9734 10.6281 66.8814 10.745 66.8009 10.883C66.7204 11.021 66.6456 11.1782 66.5766 11.3545V15H65.3404V9.135H66.0591C66.1894 9.135 66.2795 9.15992 66.3294 9.20975C66.3792 9.25575 66.4137 9.33817 66.4329 9.457L66.5076 10.2217ZM82.5146 6.72L79.9386 15H78.7254L76.7819 9.0545C76.7589 8.98933 76.7359 8.91842 76.7129 8.84175C76.6937 8.76508 76.6745 8.68267 76.6554 8.5945C76.6362 8.68267 76.6151 8.76508 76.5921 8.84175C76.5729 8.91842 76.5519 8.98933 76.5289 9.0545L74.5681 15H73.3549L70.7789 6.72H71.9059C72.0209 6.72 72.1167 6.74875 72.1934 6.80625C72.2739 6.85992 72.3275 6.93467 72.3544 7.0305L73.9069 12.3377C73.9375 12.4527 73.9663 12.5773 73.9931 12.7115C74.0199 12.8457 74.0468 12.9856 74.0736 13.1312C74.1004 12.9856 74.1292 12.8457 74.1599 12.7115C74.1944 12.5735 74.2308 12.4489 74.2691 12.3377L76.0459 7.0305C76.0727 6.95383 76.1264 6.88292 76.2069 6.81775C76.2874 6.75258 76.3832 6.72 76.4944 6.72H76.8854C77.0042 6.72 77.1 6.75067 77.1729 6.812C77.2457 6.8695 77.3013 6.94233 77.3396 7.0305L79.1106 12.3377C79.1489 12.4489 79.1834 12.5697 79.2141 12.7C79.2486 12.8265 79.2793 12.9607 79.3061 13.1025C79.3329 12.9607 79.3579 12.8265 79.3809 12.7C79.4077 12.5697 79.4364 12.4489 79.4671 12.3377L81.0139 7.0305C81.0369 6.94617 81.0886 6.87333 81.1691 6.812C81.2534 6.75067 81.3512 6.72 81.4624 6.72H82.5146ZM84.9222 9.043C85.3553 9.043 85.7463 9.11392 86.0952 9.25575C86.4478 9.39758 86.7468 9.59883 86.9922 9.8595C87.2413 10.1202 87.433 10.4364 87.5672 10.8082C87.7013 11.1801 87.7684 11.5979 87.7684 12.0617C87.7684 12.5256 87.7013 12.9434 87.5672 13.3152C87.433 13.6871 87.2413 14.0052 86.9922 14.2697C86.7468 14.5304 86.4478 14.7317 86.0952 14.8735C85.7463 15.0153 85.3553 15.0863 84.9222 15.0863C84.4852 15.0863 84.0903 15.0153 83.7377 14.8735C83.3888 14.7317 83.0898 14.5304 82.8407 14.2697C82.5915 14.0052 82.3998 13.6871 82.2657 13.3152C82.1315 12.9434 82.0644 12.5256 82.0644 12.0617C82.0644 11.5979 82.1315 11.1801 82.2657 10.8082C82.3998 10.4364 82.5915 10.1202 82.8407 9.8595C83.0898 9.59883 83.3888 9.39758 83.7377 9.25575C84.0903 9.11392 84.4852 9.043 84.9222 9.043ZM84.9222 14.1202C85.4512 14.1202 85.8441 13.9439 86.1009 13.5912C86.3616 13.2347 86.4919 12.7268 86.4919 12.0675C86.4919 11.4082 86.3616 10.9002 86.1009 10.5437C85.8441 10.1834 85.4512 10.0032 84.9222 10.0032C84.3855 10.0032 83.9868 10.1834 83.7262 10.5437C83.4655 10.9002 83.3352 11.4082 83.3352 12.0675C83.3352 12.7268 83.4655 13.2347 83.7262 13.5912C83.9868 13.9439 84.3855 14.1202 84.9222 14.1202ZM89.7785 10.2217C89.9625 9.84992 90.1848 9.55858 90.4455 9.34775C90.7061 9.13308 91.0186 9.02575 91.3827 9.02575C91.5092 9.02575 91.6281 9.04108 91.7392 9.07175C91.8504 9.09858 91.9501 9.14075 92.0382 9.19825L91.952 10.1297C91.9366 10.1949 91.9117 10.2409 91.8772 10.2677C91.8466 10.2907 91.8044 10.3022 91.7507 10.3022C91.6932 10.3022 91.6108 10.2927 91.5035 10.2735C91.3961 10.2505 91.2831 10.239 91.1642 10.239C90.9917 10.239 90.8384 10.2639 90.7042 10.3137C90.5739 10.3636 90.4551 10.4364 90.3477 10.5322C90.2442 10.6281 90.1522 10.745 90.0717 10.883C89.9912 11.021 89.9165 11.1782 89.8475 11.3545V15H88.6112V9.135H89.33C89.4603 9.135 89.5504 9.15992 89.6002 9.20975C89.6501 9.25575 89.6846 9.33817 89.7037 9.457L89.7785 10.2217ZM93.7706 6.49V15H92.5343V6.49H93.7706ZM98.6948 10.5782C98.5223 10.3559 98.3325 10.2007 98.1255 10.1125C97.9185 10.0243 97.6943 9.98025 97.4528 9.98025C96.9698 9.98025 96.5922 10.1585 96.32 10.515C96.0478 10.8677 95.9118 11.3909 95.9118 12.0847C95.9118 12.4451 95.9424 12.7537 96.0038 13.0105C96.0651 13.2635 96.1533 13.4705 96.2683 13.6315C96.3833 13.7925 96.5232 13.9094 96.688 13.9822C96.8528 14.0551 97.0388 14.0915 97.2458 14.0915C97.5601 14.0915 97.8303 14.0244 98.0565 13.8902C98.2865 13.7522 98.4993 13.5587 98.6948 13.3095V10.5782ZM99.931 6.49V15H99.1835C99.0187 15 98.9133 14.9214 98.8673 14.7642L98.758 14.126C98.5127 14.4135 98.2328 14.6454 97.9185 14.8217C97.608 14.9981 97.2458 15.0863 96.8318 15.0863C96.5021 15.0863 96.2031 15.0211 95.9348 14.8907C95.6664 14.7566 95.4364 14.563 95.2448 14.31C95.0531 14.057 94.9036 13.7446 94.7963 13.3727C94.6928 12.9971 94.641 12.5677 94.641 12.0847C94.641 11.6477 94.6985 11.2433 94.8135 10.8715C94.9323 10.4997 95.101 10.1777 95.3195 9.9055C95.538 9.6295 95.8025 9.41483 96.113 9.2615C96.4273 9.10433 96.7781 9.02575 97.1653 9.02575C97.5103 9.02575 97.8035 9.08133 98.045 9.1925C98.2865 9.29983 98.5031 9.45125 98.6948 9.64675V6.49H99.931ZM60.0273 21.135V27H58.7911V21.135H60.0273ZM60.2343 19.364C60.2343 19.4752 60.2113 19.5806 60.1653 19.6802C60.1231 19.7799 60.0637 19.8681 59.9871 19.9447C59.9104 20.0176 59.8203 20.077 59.7168 20.123C59.6171 20.1652 59.5098 20.1862 59.3948 20.1862C59.2836 20.1862 59.1782 20.1652 59.0786 20.123C58.9827 20.077 58.8984 20.0176 58.8256 19.9447C58.7527 19.8681 58.6933 19.7799 58.6473 19.6802C58.6051 19.5806 58.5841 19.4752 58.5841 19.364C58.5841 19.249 58.6051 19.1417 58.6473 19.042C58.6933 18.9423 58.7527 18.8561 58.8256 18.7832C58.8984 18.7066 58.9827 18.6472 59.0786 18.605C59.1782 18.559 59.2836 18.536 59.3948 18.536C59.5098 18.536 59.6171 18.559 59.7168 18.605C59.8203 18.6472 59.9104 18.7066 59.9871 18.7832C60.0637 18.8561 60.1231 18.9423 60.1653 19.042C60.2113 19.1417 60.2343 19.249 60.2343 19.364ZM62.3914 21.9112C62.5179 21.7809 62.6482 21.664 62.7824 21.5605C62.9204 21.4532 63.066 21.3612 63.2194 21.2845C63.3727 21.2078 63.5356 21.1484 63.7081 21.1062C63.8806 21.0641 64.0684 21.043 64.2716 21.043C64.5936 21.043 64.8754 21.0967 65.1169 21.204C65.3622 21.3113 65.5673 21.4627 65.7321 21.6582C65.9008 21.8537 66.0273 22.0895 66.1116 22.3655C66.1959 22.6377 66.2381 22.9386 66.2381 23.2682V27H65.0076V23.2682C65.0076 22.8734 64.9156 22.5667 64.7316 22.3482C64.5514 22.1297 64.2754 22.0205 63.9036 22.0205C63.6276 22.0205 63.3708 22.0837 63.1331 22.2102C62.8993 22.3367 62.6789 22.5092 62.4719 22.7277V27H61.2356V21.135H61.9831C62.1518 21.135 62.2591 21.2136 62.3051 21.3707L62.3914 21.9112ZM77.3537 22.86C77.3537 23.4733 77.254 24.0349 77.0547 24.5447C76.8553 25.0507 76.5736 25.4858 76.2094 25.85C75.8491 26.2142 75.414 26.4978 74.9042 26.701C74.3982 26.9003 73.8347 27 73.2137 27H70.0857V18.72H73.2137C73.8347 18.72 74.3982 18.8216 74.9042 19.0247C75.414 19.2241 75.8491 19.5058 76.2094 19.87C76.5736 20.2342 76.8553 20.6712 77.0547 21.181C77.254 21.687 77.3537 22.2467 77.3537 22.86ZM75.9794 22.86C75.9794 22.3847 75.9143 21.9572 75.7839 21.5777C75.6574 21.1982 75.4734 20.8782 75.2319 20.6175C74.9943 20.3568 74.7048 20.1575 74.3637 20.0195C74.0225 19.8777 73.6392 19.8067 73.2137 19.8067H71.4369V25.9132H73.2137C73.6392 25.9132 74.0225 25.8442 74.3637 25.7062C74.7048 25.5682 74.9943 25.3689 75.2319 25.1082C75.4734 24.8437 75.6574 24.5237 75.7839 24.148C75.9143 23.7685 75.9794 23.3392 75.9794 22.86ZM81.247 24.4355C80.8061 24.4508 80.4343 24.4872 80.1315 24.5447C79.8286 24.5984 79.5833 24.6693 79.3955 24.7575C79.2076 24.8418 79.0715 24.9434 78.9872 25.0622C78.9067 25.1811 78.8665 25.3114 78.8665 25.4532C78.8665 25.5912 78.8875 25.7101 78.9297 25.8097C78.9757 25.9056 79.037 25.9861 79.1137 26.0512C79.1942 26.1126 79.2862 26.1586 79.3897 26.1892C79.497 26.2161 79.614 26.2295 79.7405 26.2295C80.0625 26.2295 80.3385 26.1701 80.5685 26.0512C80.8023 25.9286 81.0285 25.7522 81.247 25.5223V24.4355ZM77.9695 21.9515C78.6326 21.3343 79.4223 21.0257 80.3385 21.0257C80.6758 21.0257 80.9748 21.0813 81.2355 21.1925C81.5 21.2998 81.7204 21.4532 81.8967 21.6525C82.0769 21.8518 82.213 22.0895 82.305 22.3655C82.4008 22.6377 82.4487 22.9405 82.4487 23.274V27H81.8967C81.7779 27 81.6878 26.9827 81.6265 26.9482C81.5651 26.9099 81.5134 26.8352 81.4712 26.724L81.3505 26.2467C81.201 26.3809 81.0534 26.5017 80.9077 26.609C80.762 26.7125 80.6106 26.8007 80.4535 26.8735C80.3001 26.9463 80.1334 27 79.9532 27.0345C79.7769 27.0728 79.5814 27.092 79.3667 27.092C79.129 27.092 78.9067 27.0594 78.6997 26.9942C78.4965 26.9291 78.3202 26.8313 78.1707 26.701C78.0212 26.5668 77.9024 26.402 77.8142 26.2065C77.7299 26.011 77.6877 25.781 77.6877 25.5165C77.6877 25.2903 77.7471 25.0699 77.866 24.8552C77.9886 24.6406 78.188 24.4489 78.464 24.2802C78.7438 24.1077 79.1099 23.9659 79.5622 23.8547C80.0184 23.7436 80.58 23.6803 81.247 23.665V23.274C81.247 22.8523 81.1569 22.538 80.9767 22.331C80.7965 22.124 80.532 22.0205 80.1832 22.0205C79.9455 22.0205 79.7462 22.0512 79.5852 22.1125C79.4242 22.17 79.2843 22.2332 79.1655 22.3022C79.0466 22.3712 78.9412 22.4364 78.8492 22.4977C78.7572 22.5552 78.6595 22.584 78.556 22.584C78.4716 22.584 78.3988 22.5629 78.3375 22.5207C78.28 22.4747 78.232 22.4192 78.1937 22.354L77.9695 21.9515ZM85.3535 27.092C84.8667 27.092 84.491 26.9559 84.2265 26.6837C83.9659 26.4077 83.8355 26.0206 83.8355 25.5223V22.1067H83.1915C83.1225 22.1067 83.0631 22.0857 83.0133 22.0435C82.9635 21.9975 82.9385 21.9304 82.9385 21.8422V21.342L83.8873 21.204L84.1575 19.5077C84.1767 19.4426 84.2093 19.3908 84.2553 19.3525C84.3013 19.3103 84.3626 19.2892 84.4393 19.2892H85.0718V21.2155H86.699V22.1067H85.0718V25.436C85.0718 25.6468 85.1235 25.8078 85.227 25.919C85.3305 26.0302 85.4685 26.0857 85.641 26.0857C85.7369 26.0857 85.8193 26.0742 85.8883 26.0512C85.9573 26.0244 86.0167 25.9976 86.0665 25.9707C86.1164 25.9401 86.1585 25.9132 86.193 25.8902C86.2314 25.8634 86.2678 25.85 86.3023 25.85C86.3713 25.85 86.4269 25.8883 86.469 25.965L86.837 26.5687C86.6454 26.7374 86.4192 26.8677 86.1585 26.9597C85.8979 27.0479 85.6295 27.092 85.3535 27.092ZM90.4622 24.4355C90.0214 24.4508 89.6496 24.4872 89.3467 24.5447C89.0439 24.5984 88.7986 24.6693 88.6107 24.7575C88.4229 24.8418 88.2868 24.9434 88.2025 25.0622C88.122 25.1811 88.0817 25.3114 88.0817 25.4532C88.0817 25.5912 88.1028 25.7101 88.145 25.8097C88.191 25.9056 88.2523 25.9861 88.329 26.0512C88.4095 26.1126 88.5015 26.1586 88.605 26.1892C88.7123 26.2161 88.8292 26.2295 88.9557 26.2295C89.2777 26.2295 89.5537 26.1701 89.7837 26.0512C90.0176 25.9286 90.2437 25.7522 90.4622 25.5223V24.4355ZM87.1847 21.9515C87.8479 21.3343 88.6376 21.0257 89.5537 21.0257C89.8911 21.0257 90.1901 21.0813 90.4507 21.1925C90.7152 21.2998 90.9357 21.4532 91.112 21.6525C91.2922 21.8518 91.4282 22.0895 91.5202 22.3655C91.6161 22.6377 91.664 22.9405 91.664 23.274V27H91.112C90.9932 27 90.9031 26.9827 90.8417 26.9482C90.7804 26.9099 90.7287 26.8352 90.6865 26.724L90.5657 26.2467C90.4162 26.3809 90.2687 26.5017 90.123 26.609C89.9773 26.7125 89.8259 26.8007 89.6687 26.8735C89.5154 26.9463 89.3487 27 89.1685 27.0345C88.9922 27.0728 88.7967 27.092 88.582 27.092C88.3443 27.092 88.122 27.0594 87.915 26.9942C87.7118 26.9291 87.5355 26.8313 87.386 26.701C87.2365 26.5668 87.1177 26.402 87.0295 26.2065C86.9452 26.011 86.903 25.781 86.903 25.5165C86.903 25.2903 86.9624 25.0699 87.0812 24.8552C87.2039 24.6406 87.4032 24.4489 87.6792 24.2802C87.9591 24.1077 88.3252 23.9659 88.7775 23.8547C89.2337 23.7436 89.7952 23.6803 90.4622 23.665V23.274C90.4622 22.8523 90.3722 22.538 90.192 22.331C90.0118 22.124 89.7473 22.0205 89.3985 22.0205C89.1608 22.0205 88.9615 22.0512 88.8005 22.1125C88.6395 22.17 88.4996 22.2332 88.3807 22.3022C88.2619 22.3712 88.1565 22.4364 88.0645 22.4977C87.9725 22.5552 87.8747 22.584 87.7712 22.584C87.6869 22.584 87.6141 22.5629 87.5527 22.5207C87.4952 22.4747 87.4473 22.4192 87.409 22.354L87.1847 21.9515Z" fill="white"/>
    <rect x="48" y="32.647" width="54" height="4.35294" fill="#D42B21"/>
</svg></g><a href="https://staging-owid.netlify.com/grapher/historys-hockey-stick-gross-domestic-product-per-capita-using-the-ratio-scale-1990" target="_blank"><text font-size="21.60" x="15.0" y="32.3" fill="#555"><tspan x="15" y="32.279999999999994">History’s hockey stick: Real gross domestic product per capita</tspan><tspan x="15" y="53.87999999999999">(1000–2016) using the ratio scale</tspan></text></a><text font-size="14.40" x="15.0" y="72.7" fill="#666"><tspan x="15" y="72.72">Unit 1 &#x27;The capitalist revolution’ Section 1.3 &#x27;History&#x27;s Hockey Stick: Growth in income&#x27; in The CORE Team, The Economy.</tspan><tspan x="15" y="88.56">Available at: https://tinyco.re/28126370 [Figure 1.1b]</tspan></text></g><g class="LineChart"><defs><clipPath id="boundsClip-2159"><rect x="68.968" y="0" width="830" height="867.4"></rect></clipPath></defs><g class="AxisBoxView"><g class="HorizontalAxis"><text x="79" y="542.8" fill="#666" text-anchor="middle" font-size="16.2">1000</text><text x="201.9" y="542.8" fill="#666" text-anchor="middle" font-size="16.2">1200</text><text x="324.9" y="542.8" fill="#666" text-anchor="middle" font-size="16.2">1400</text><text x="447.9" y="542.8" fill="#666" text-anchor="middle" font-size="16.2">1600</text><text x="570.8" y="542.8" fill="#666" text-anchor="middle" font-size="16.2">1800</text><text x="703.6" y="542.8" fill="#666" text-anchor="middle" font-size="16.2">2016</text></g><g class="VerticalAxis"><text x="73.97" y="447.8" fill="#666" dominant-baseline="middle" text-anchor="end" font-size="16.2">$1,000</text><text x="73.97" y="202" fill="#666" dominant-baseline="middle" text-anchor="end" font-size="16.2">$10,000</text></g><g class="AxisGridLines"><line x1="78.97" y1="447.8" x2="703.61" y2="447.8" stroke="#ddd" stroke-dasharray="3,2"></line><line x1="78.97" y1="202" x2="703.61" y2="202" stroke="#ddd" stroke-dasharray="3,2"></line></g></g><g clip-path="url(#boundsClip-2159)"><g class="HeightedLegend clickable"><g class="legendMark"><g class="indicator"><line x1="708.61" y1="109.1" x2="731.11" y2="109.1" stroke="#666" stroke-width="0.5"></line><line x1="731.11" y1="109.1" x2="731.11" y2="109.1" stroke="#666" stroke-width="0.5"></line><line x1="731.11" y1="109.1" x2="733.61" y2="109.1" stroke="#666" stroke-width="0.5"></line></g><rect x="703.61" y="102.35" width="131.39" height="13.5" fill="#fff" opacity="0"></rect><text font-size="13.50" x="738.6" y="113.1" fill="#3360a9"><tspan x="738.61" y="113.14999999999999">United Kingdom</tspan></text></g><g class="legendMark"><g class="indicator"><line x1="708.61" y1="109.5" x2="721.11" y2="109.5" stroke="#666" stroke-width="0.5"></line><line x1="721.11" y1="109.5" x2="721.11" y2="124.6" stroke="#666" stroke-width="0.5"></line><line x1="721.11" y1="124.6" x2="733.61" y2="124.6" stroke="#666" stroke-width="0.5"></line></g><rect x="703.61" y="117.85" width="71.99000000000001" height="13.5" fill="#fff" opacity="0"></rect><text font-size="13.50" x="738.6" y="128.7" fill="#ed6c2d"><tspan x="738.61" y="128.65">Japan</tspan></text></g><g class="legendMark"><g class="indicator"><line x1="708.61" y1="138.7" x2="721.11" y2="138.7" stroke="#666" stroke-width="0.5"></line><line x1="721.11" y1="138.7" x2="721.11" y2="138.7" stroke="#666" stroke-width="0.5"></line><line x1="721.11" y1="138.7" x2="733.61" y2="138.7" stroke="#666" stroke-width="0.5"></line></g><rect x="703.61" y="131.95" width="59.84" height="13.5" fill="#fff" opacity="0"></rect><text font-size="13.50" x="738.6" y="142.8" fill="#34983f"><tspan x="738.61" y="142.75">Italy</tspan></text></g><g class="legendMark"><g class="indicator"><line x1="708.61" y1="203.3" x2="721.11" y2="203.3" stroke="#666" stroke-width="0.5"></line><line x1="721.11" y1="203.3" x2="721.11" y2="203.3" stroke="#666" stroke-width="0.5"></line><line x1="721.11" y1="203.3" x2="733.61" y2="203.3" stroke="#666" stroke-width="0.5"></line></g><rect x="703.61" y="196.55" width="70.37" height="13.5" fill="#fff" opacity="0"></rect><text font-size="13.50" x="738.6" y="207.4" fill="#a652ba"><tspan x="738.61" y="207.35000000000002">China</tspan></text></g><g class="legendMark"><g class="indicator"><line x1="708.61" y1="284.9" x2="721.11" y2="284.9" stroke="#666" stroke-width="0.5"></line><line x1="721.11" y1="284.9" x2="721.11" y2="284.9" stroke="#666" stroke-width="0.5"></line><line x1="721.11" y1="284.9" x2="733.61" y2="284.9" stroke="#666" stroke-width="0.5"></line></g><rect x="703.61" y="278.15" width="64.43" height="13.5" fill="#fff" opacity="0"></rect><text font-size="13.50" x="738.6" y="288.9" fill="#000"><tspan x="738.61" y="288.95">India</tspan></text></g></g><g class="Lines"><rect x="79" y="109" width="625" height="413" fill="rgba(255,255,255,0)" opacity="0"></rect><g class="key-United-Kingdom_0"><path stroke="#3360a9" stroke-linecap="round" d="M79 483L509 404L510 395L511 399L511 407L512 389L512 394L513 412L514 400L514 394L515 410L516 420L516 411L517 411L517 416L518 406L519 409L519 406L520 401L520 395L521 398L522 391L522 395L523 394L524 397L524 399L525 396L525 401L526 402L527 398L527 402L528 398L528 400L529 393L530 392L530 393L531 397L532 390L532 396L533 395L533 396L534 399L535 396L535 392L536 395L536 397L537 397L538 394L538 390L539 391L540 392L540 392L541 395L541 390L542 390L543 394L543 391L544 394L544 388L545 387L546 386L546 383L547 380L547 383L548 383L549 384L549 386L550 385L551 384L551 384L552 378L552 382L553 381L554 384L554 383L555 386L555 384L556 382L557 380L557 382L558 383L559 379L559 377L560 379L560 379L561 380L562 382L562 381L563 384L563 385L564 384L565 378L565 379L566 376L567 379L567 383L568 373L568 372L569 375L570 375L570 373L571 369L571 369L572 368L573 372L573 373L574 369L575 371L575 365L576 372L576 370L577 365L578 367L578 373L579 369L579 373L580 364L581 372L581 372L582 373L583 377L583 370L584 370L584 370L585 368L586 364L586 363L587 371L587 364L588 365L589 366L589 362L590 363L591 361L591 361L592 360L592 353L593 351L594 354L594 351L595 353L595 349L596 353L597 355L597 351L598 343L599 340L599 341L600 344L600 340L601 339L602 341L602 338L603 334L603 332L604 328L605 331L605 326L606 325L607 328L607 325L608 324L608 325L609 331L610 322L610 321L611 319L611 317L612 317L613 313L613 313L614 309L615 310L615 311L616 309L616 309L617 307L618 308L618 308L619 309L619 310L620 306L621 304L621 302L622 302L623 303L623 304L624 303L624 300L625 296L626 292L626 292L627 293L627 297L628 298L629 292L629 290L630 287L630 287L631 283L632 279L632 281L633 282L634 281L634 283L635 283L635 281L636 279L637 278L637 283L638 282L638 280L639 277L640 276L640 273L641 274L642 267L642 267L643 267L643 268L644 281L645 290L645 293L646 284L646 281L647 278L648 273L648 277L649 270L650 269L650 266L651 267L651 273L652 273L653 270L653 264L654 260L654 256L655 253L656 252L656 252L657 242L658 233L658 231L659 229L659 234L660 239L661 244L661 246L662 244L662 241L663 241L664 238L664 239L665 235L666 231L666 228L667 227L667 226L668 226L669 223L669 218L670 215L670 215L671 212L672 207L672 205L673 203L674 202L674 198L675 196L675 194L676 192L677 189L677 182L678 184L678 184L679 182L680 179L680 176L681 173L682 175L682 176L683 174L683 171L684 168L685 165L685 161L686 156L686 151L687 149L688 149L688 151L689 151L690 148L690 144L691 142L691 140L692 137L693 134L693 130L694 127L694 124L695 122L696 119L696 117L697 115L698 113L698 111L699 113L699 118L700 117L701 116L701 115L702 114L702 112L703 110L704 109" fill="none" stroke-width="1.5"></path></g><g class="key-Japan_0"><path stroke="#ed6c2d" stroke-linecap="round" d="M171 518L251 516L356 516L448 507L479 510L509 497L540 503L571 495L602 489L614 480L615 480L615 479L616 478L616 478L617 470L618 474L618 471L619 472L619 467L620 464L621 468L621 466L622 467L623 467L623 464L624 457L624 453L625 459L626 455L626 447L627 453L627 446L628 447L629 436L629 435L630 443L630 441L631 424L632 434L632 430L633 428L634 435L634 429L635 429L635 432L636 420L637 418L637 418L638 420L638 420L639 415L640 413L640 413L641 418L642 410L642 396L643 393L643 393L644 384L645 391L645 382L646 383L646 385L647 383L648 380L648 381L649 381L650 374L650 373L651 382L651 383L652 376L653 368L653 369L654 368L654 362L655 358L656 352L656 337L657 335L658 335L658 337L659 337L659 343L660 416L661 409L661 402L662 390L662 385L663 378L664 367L664 357L665 351L666 347L666 339L667 332L667 326L668 321L669 313L669 300L670 289L670 281L671 273L672 263L672 258L673 248L674 238L674 226L675 215L675 205L676 202L677 195L677 188L678 191L678 189L679 186L680 182L680 178L681 173L682 171L682 168L683 166L683 164L684 160L685 156L685 154L686 150L686 144L687 140L688 135L688 132L689 131L690 131L690 130L691 128L691 125L692 124L693 125L693 126L694 123L694 123L695 123L696 122L696 119L697 118L698 116L698 114L699 115L699 121L700 117L701 117L701 115L702 113L702 112L703 111L704 110" fill="none" stroke-width="1.5"></path></g><g class="key-Italy_0"><path stroke="#34983f" stroke-linecap="round" d="M263 386L293 393L325 378L386 392L429 397L448 404L479 402L509 396L540 392L571 404L571 406L572 402L573 399L573 395L574 398L575 396L575 395L576 390L576 389L577 398L578 401L578 399L579 396L579 395L580 400L581 401L581 400L582 392L583 393L583 393L584 395L584 394L585 393L586 390L586 392L587 389L587 390L588 392L589 392L589 394L590 390L591 389L591 388L592 388L592 385L593 393L594 395L594 394L595 395L595 391L596 389L597 388L597 394L598 394L599 393L599 394L600 396L600 394L601 394L602 395L602 395L603 397L603 399L604 407L605 406L605 405L606 397L607 393L607 396L608 397L608 398L609 396L610 394L610 394L611 387L611 388L612 397L613 395L613 394L614 391L615 394L615 396L616 396L616 391L617 391L618 393L618 392L619 390L619 390L620 388L621 385L621 383L622 382L623 384L623 382L624 380L624 378L625 378L626 381L626 381L627 380L627 380L628 378L629 378L629 377L630 375L630 375L631 375L632 374L632 371L633 370L634 368L634 367L635 365L635 363L636 359L637 358L637 355L638 354L638 354L639 353L640 353L640 348L641 354L642 360L642 351L643 351L643 354L644 358L645 355L645 359L646 352L646 343L647 341L648 335L648 335L649 338L650 333L650 328L651 334L651 336L652 335L653 337L653 338L654 333L654 338L655 328L656 326L656 321L657 324L658 327L658 333L659 352L659 375L660 387L661 355L661 337L662 330L662 322L663 314L664 307L664 300L665 293L666 289L666 283L667 279L667 274L668 269L669 263L669 258L670 250L670 243L671 236L672 233L672 231L673 227L674 220L674 212L675 207L675 205L676 204L677 201L677 196L678 191L678 194L679 188L680 186L680 182L681 176L682 173L682 172L683 172L683 171L684 168L685 165L685 162L686 159L686 155L687 152L688 150L688 148L689 147L690 148L690 146L691 143L691 142L692 140L693 138L693 137L694 133L694 131L695 131L696 131L696 130L697 130L698 128L698 127L699 129L699 135L700 134L701 133L701 137L702 140L702 141L703 140L704 139" fill="none" stroke-width="1.5"></path></g><g class="key-China_0"><path stroke="#a652ba" stroke-linecap="round" d="M485 465L550 499L578 509L583 490L602 514L614 504L624 508L626 502L632 501L639 508L640 499L650 497L651 496L651 496L652 494L653 506L653 505L654 497L654 491L655 494L656 497L663 522L664 503L664 493L665 482L666 493L666 486L667 479L667 479L668 481L669 486L669 492L670 512L670 506L671 494L672 482L672 474L673 473L674 475L674 480L675 473L675 462L676 458L677 459L677 453L678 453L678 448L679 453L680 449L680 438L681 431L682 427L682 426L683 417L683 412L684 402L685 395L685 390L686 383L686 379L687 380L688 381L688 377L689 370L690 360L690 353L691 344L691 337L692 334L693 333L693 328L694 320L694 313L695 305L696 298L696 289L697 279L698 267L698 258L699 253L699 244L700 233L701 225L701 221L702 214L702 209L703 206L704 203" fill="none" stroke-width="1.5"></path></g><g class="key-India_0"><path stroke="#000" stroke-linecap="round" d="M448 473L479 479L509 482L540 491L571 494L578 499L584 505L590 504L596 504L602 503L608 509L614 515L623 511L623 508L624 512L624 508L625 507L626 510L626 505L627 516L627 508L628 505L629 504L629 507L630 515L630 497L631 497L632 506L632 503L633 501L634 493L634 492L635 492L635 495L636 493L637 500L637 499L638 486L638 486L639 487L640 488L640 490L641 485L642 487L642 484L643 486L643 501L644 487L645 496L645 489L646 486L646 490L647 486L648 486L648 484L649 485L650 485L650 482L651 482L651 484L652 485L653 486L653 486L654 489L654 486L655 490L656 491L656 490L657 488L658 487L658 489L659 486L659 489L660 492L661 499L661 499L662 499L662 498L663 499L664 498L664 497L665 493L666 490L666 490L667 486L667 489L668 484L669 483L669 478L670 477L670 477L671 475L672 469L672 476L673 477L674 471L674 471L675 466L675 463L676 464L677 467L677 465L678 466L678 459L679 460L680 455L680 452L681 460L682 455L682 450L683 449L683 443L684 442L685 440L685 438L686 435L686 427L687 422L688 419L688 419L689 416L690 412L690 407L691 402L691 395L692 393L693 388L693 383L694 380L694 376L695 374L696 367L696 360L697 353L698 345L698 338L699 332L699 325L700 318L701 312L701 308L702 303L702 297L703 291L704 285" fill="none" stroke-width="1.5"></path></g></g></g></g><g class="SourcesFooter" style="fill:#777"><g class="clickable" style="fill:#777"><text font-size="12.60" x="15.0" y="567.9"><tspan x="15" y="567.88">Source: Maddison Project Database (2018)</tspan></text></g><text font-size="12.60" x="15.0" y="582.5"><tspan x="15" y="582.48">Note: The units of measurement is &#x27;1990 US dollar&#x27;. The chart uses ratio scale.</tspan></text><text font-size="12.60" x="538.9" y="567.9"><tspan x="538.9" y="567.88"><a target='_blank' style='fill: #777;' href='https://tinyco.re/28126370'>tinyco.re/28126370</a> • <a href="https://ourworldindata.org" target="_blank">Powered by ourworldindata.org</a></tspan></text></g></svg>