<svg xmlns="http://www.w3.org/2000/svg" version="1.1" style="font-family:Lato, &#x27;Helvetica Neue&#x27;, Helvetica, Arial, sans-serif;font-size:18px;background-color:white;text-rendering:optimizeLegibility;-webkit-font-smoothing:antialiased" width="850" height="600"><g class="HeaderView"><g transform="translate(774, 15) scale(0.29)"><svg width="210" height="120" viewBox="0 0 210 120" fill="none" xmlns="http://www.w3.org/2000/svg">
    <g clip-path="url(#clip0)">
        <path d="M0 0H210V107.89H0V0Z" fill="#002147"/>
        <path d="M40.9788 32.248C40.9788 34.6093 40.6048 36.78 39.8568 38.76C39.1088 40.7253 38.0528 42.4193 36.6888 43.842C35.3248 45.2647 33.6821 46.372 31.7608 47.164C29.8541 47.9413 27.7421 48.33 25.4248 48.33C23.1074 48.33 20.9954 47.9413 19.0888 47.164C17.1821 46.372 15.5468 45.2647 14.1828 43.842C12.8188 42.4193 11.7628 40.7253 11.0148 38.76C10.2668 36.78 9.89277 34.6093 9.89277 32.248C9.89277 29.8867 10.2668 27.7233 11.0148 25.758C11.7628 23.778 12.8188 22.0767 14.1828 20.654C15.5468 19.2167 17.1821 18.102 19.0888 17.31C20.9954 16.518 23.1074 16.122 25.4248 16.122C27.7421 16.122 29.8541 16.518 31.7608 17.31C33.6821 18.102 35.3248 19.2167 36.6888 20.654C38.0528 22.0767 39.1088 23.778 39.8568 25.758C40.6048 27.7233 40.9788 29.8867 40.9788 32.248ZM36.6008 32.248C36.6008 30.312 36.3368 28.574 35.8088 27.034C35.2808 25.494 34.5328 24.196 33.5648 23.14C32.5968 22.0693 31.4234 21.248 30.0448 20.676C28.6661 20.104 27.1261 19.818 25.4248 19.818C23.7381 19.818 22.2054 20.104 20.8268 20.676C19.4481 21.248 18.2674 22.0693 17.2848 23.14C16.3168 24.196 15.5688 25.494 15.0408 27.034C14.5128 28.574 14.2488 30.312 14.2488 32.248C14.2488 34.184 14.5128 35.922 15.0408 37.462C15.5688 38.9873 16.3168 40.2853 17.2848 41.356C18.2674 42.412 19.4481 43.226 20.8268 43.798C22.2054 44.3553 23.7381 44.634 25.4248 44.634C27.1261 44.634 28.6661 44.3553 30.0448 43.798C31.4234 43.226 32.5968 42.412 33.5648 41.356C34.5328 40.2853 35.2808 38.9873 35.8088 37.462C36.3368 35.922 36.6008 34.184 36.6008 32.248ZM62.8234 25.714V48H60.4914C59.9341 48 59.5821 47.7287 59.4354 47.186L59.1274 44.788C58.1594 45.8587 57.0741 46.724 55.8714 47.384C54.6687 48.0293 53.2901 48.352 51.7354 48.352C50.5181 48.352 49.4401 48.154 48.5014 47.758C47.5774 47.3473 46.8001 46.7753 46.1694 46.042C45.5387 45.3087 45.0621 44.4213 44.7394 43.38C44.4314 42.3387 44.2774 41.1873 44.2774 39.926V25.714H48.1934V39.926C48.1934 41.6127 48.5747 42.918 49.3374 43.842C50.1147 44.766 51.2954 45.228 52.8794 45.228C54.0381 45.228 55.1161 44.9567 56.1134 44.414C57.1254 43.8567 58.0567 43.094 58.9074 42.126V25.714H62.8234ZM71.4305 30.18C72.1346 28.6547 72.9999 27.4667 74.0266 26.616C75.0532 25.7507 76.3072 25.318 77.7886 25.318C78.2579 25.318 78.7052 25.3693 79.1306 25.472C79.5706 25.5747 79.9592 25.736 80.2966 25.956L80.0106 28.882C79.9226 29.2487 79.7026 29.432 79.3506 29.432C79.1452 29.432 78.8446 29.388 78.4486 29.3C78.0526 29.212 77.6052 29.168 77.1066 29.168C76.4026 29.168 75.7719 29.2707 75.2146 29.476C74.6719 29.6813 74.1806 29.9893 73.7406 30.4C73.3152 30.796 72.9266 31.2947 72.5746 31.896C72.2372 32.4827 71.9292 33.1573 71.6506 33.92V48H67.7125V25.714H69.9566C70.3819 25.714 70.6752 25.7947 70.8366 25.956C70.9979 26.1173 71.1079 26.396 71.1666 26.792L71.4305 30.18ZM132.589 16.474L122.755 48H118.927L110.941 23.954C110.867 23.7193 110.794 23.47 110.721 23.206C110.662 22.942 110.596 22.6633 110.523 22.37C110.449 22.6633 110.376 22.942 110.303 23.206C110.23 23.47 110.156 23.7193 110.083 23.954L102.053 48H98.2248L88.3908 16.474H91.9328C92.3142 16.474 92.6295 16.5693 92.8788 16.76C93.1428 16.9507 93.3115 17.1927 93.3848 17.486L99.8968 39.398C99.9995 39.794 100.095 40.2193 100.183 40.674C100.285 41.1287 100.381 41.6127 100.469 42.126C100.571 41.6127 100.674 41.1287 100.777 40.674C100.894 40.2047 101.019 39.7793 101.151 39.398L108.565 17.486C108.653 17.2367 108.821 17.0093 109.071 16.804C109.335 16.584 109.65 16.474 110.017 16.474H111.249C111.63 16.474 111.938 16.5693 112.173 16.76C112.407 16.9507 112.583 17.1927 112.701 17.486L120.093 39.398C120.225 39.7793 120.342 40.19 120.445 40.63C120.562 41.07 120.672 41.532 120.775 42.016C120.848 41.532 120.929 41.07 121.017 40.63C121.105 40.19 121.2 39.7793 121.303 39.398L127.837 17.486C127.91 17.222 128.072 16.9873 128.321 16.782C128.585 16.5767 128.9 16.474 129.267 16.474H132.589ZM141.94 25.362C143.568 25.362 145.034 25.6333 146.34 26.176C147.645 26.7187 148.76 27.4887 149.684 28.486C150.608 29.4833 151.312 30.6933 151.796 32.116C152.294 33.524 152.544 35.1007 152.544 36.846C152.544 38.606 152.294 40.19 151.796 41.598C151.312 43.006 150.608 44.2087 149.684 45.206C148.76 46.2033 147.645 46.9733 146.34 47.516C145.034 48.044 143.568 48.308 141.94 48.308C140.297 48.308 138.816 48.044 137.496 47.516C136.19 46.9733 135.076 46.2033 134.152 45.206C133.228 44.2087 132.516 43.006 132.018 41.598C131.534 40.19 131.292 38.606 131.292 36.846C131.292 35.1007 131.534 33.524 132.018 32.116C132.516 30.6933 133.228 29.4833 134.152 28.486C135.076 27.4887 136.19 26.7187 137.496 26.176C138.816 25.6333 140.297 25.362 141.94 25.362ZM141.94 45.25C144.14 45.25 145.782 44.5167 146.868 43.05C147.953 41.5687 148.496 39.508 148.496 36.868C148.496 34.2133 147.953 32.1453 146.868 30.664C145.782 29.1827 144.14 28.442 141.94 28.442C140.825 28.442 139.85 28.6327 139.014 29.014C138.192 29.3953 137.503 29.9453 136.946 30.664C136.403 31.3827 135.992 32.27 135.714 33.326C135.45 34.3673 135.318 35.548 135.318 36.868C135.318 39.508 135.86 41.5687 136.946 43.05C138.046 44.5167 139.71 45.25 141.94 45.25ZM159.908 30.18C160.612 28.6547 161.478 27.4667 162.504 26.616C163.531 25.7507 164.785 25.318 166.266 25.318C166.736 25.318 167.183 25.3693 167.608 25.472C168.048 25.5747 168.437 25.736 168.774 25.956L168.488 28.882C168.4 29.2487 168.18 29.432 167.828 29.432C167.623 29.432 167.322 29.388 166.926 29.3C166.53 29.212 166.083 29.168 165.584 29.168C164.88 29.168 164.25 29.2707 163.692 29.476C163.15 29.6813 162.658 29.9893 162.218 30.4C161.793 30.796 161.404 31.2947 161.052 31.896C160.715 32.4827 160.407 33.1573 160.128 33.92V48H156.19V25.714H158.434C158.86 25.714 159.153 25.7947 159.314 25.956C159.476 26.1173 159.586 26.396 159.644 26.792L159.908 30.18ZM174.946 15.594V48H171.03V15.594H174.946ZM194.496 31.016C193.763 30.0333 192.971 29.3513 192.12 28.97C191.269 28.574 190.316 28.376 189.26 28.376C187.192 28.376 185.601 29.1167 184.486 30.598C183.371 32.0793 182.814 34.1913 182.814 36.934C182.814 38.386 182.939 39.6327 183.188 40.674C183.437 41.7007 183.804 42.5513 184.288 43.226C184.772 43.886 185.366 44.37 186.07 44.678C186.774 44.986 187.573 45.14 188.468 45.14C189.759 45.14 190.881 44.8467 191.834 44.26C192.802 43.6733 193.689 42.8447 194.496 41.774V31.016ZM198.412 15.594V48H196.08C195.523 48 195.171 47.7287 195.024 47.186L194.672 44.48C193.719 45.624 192.633 46.548 191.416 47.252C190.199 47.956 188.791 48.308 187.192 48.308C185.916 48.308 184.757 48.066 183.716 47.582C182.675 47.0833 181.787 46.3573 181.054 45.404C180.321 44.4507 179.756 43.2627 179.36 41.84C178.964 40.4173 178.766 38.782 178.766 36.934C178.766 35.2913 178.986 33.766 179.426 32.358C179.866 30.9353 180.497 29.7033 181.318 28.662C182.139 27.6207 183.144 26.8067 184.332 26.22C185.535 25.6187 186.884 25.318 188.38 25.318C189.744 25.318 190.91 25.5527 191.878 26.022C192.861 26.4767 193.733 27.1147 194.496 27.936V15.594H198.412ZM46.6139 70.714V93H42.6979V70.714H46.6139ZM47.4499 63.718C47.4499 64.0993 47.3692 64.4587 47.2079 64.796C47.0612 65.1187 46.8559 65.412 46.5919 65.676C46.3425 65.9253 46.0419 66.1233 45.6899 66.27C45.3525 66.4167 44.9932 66.49 44.6119 66.49C44.2305 66.49 43.8712 66.4167 43.5339 66.27C43.2112 66.1233 42.9252 65.9253 42.6759 65.676C42.4265 65.412 42.2285 65.1187 42.0819 64.796C41.9352 64.4587 41.8619 64.0993 41.8619 63.718C41.8619 63.3367 41.9352 62.9773 42.0819 62.64C42.2285 62.288 42.4265 61.9873 42.6759 61.738C42.9252 61.474 43.2112 61.2687 43.5339 61.122C43.8712 60.9753 44.2305 60.902 44.6119 60.902C44.9932 60.902 45.3525 60.9753 45.6899 61.122C46.0419 61.2687 46.3425 61.474 46.5919 61.738C46.8559 61.9873 47.0612 62.288 47.2079 62.64C47.3692 62.9773 47.4499 63.3367 47.4499 63.718ZM55.4242 73.948C55.9082 73.4053 56.4215 72.914 56.9642 72.474C57.5068 72.034 58.0788 71.66 58.6802 71.352C59.2962 71.0293 59.9415 70.7873 60.6162 70.626C61.3055 70.45 62.0462 70.362 62.8382 70.362C64.0555 70.362 65.1262 70.5673 66.0502 70.978C66.9888 71.374 67.7662 71.946 68.3822 72.694C69.0128 73.4273 69.4895 74.3147 69.8122 75.356C70.1348 76.3973 70.2962 77.5487 70.2962 78.81V93H66.3582V78.81C66.3582 77.1233 65.9695 75.818 65.1922 74.894C64.4295 73.9553 63.2635 73.486 61.6942 73.486C60.5355 73.486 59.4502 73.7647 58.4382 74.322C57.4408 74.8793 56.5168 75.6347 55.6662 76.588V93H51.7282V70.714H54.0822C54.6395 70.714 54.9842 70.9853 55.1162 71.528L55.4242 73.948ZM113.129 77.248C113.129 79.6093 112.755 81.758 112.007 83.694C111.259 85.63 110.203 87.2873 108.839 88.666C107.475 90.0447 105.832 91.1153 103.911 91.878C102.004 92.626 99.8925 93 97.5751 93H85.8051V61.474H97.5751C99.8925 61.474 102.004 61.8553 103.911 62.618C105.832 63.366 107.475 64.4367 108.839 65.83C110.203 67.2087 111.259 68.866 112.007 70.802C112.755 72.738 113.129 74.8867 113.129 77.248ZM108.751 77.248C108.751 75.312 108.487 73.5813 107.959 72.056C107.431 70.5307 106.683 69.24 105.715 68.184C104.747 67.128 103.574 66.3213 102.195 65.764C100.816 65.2067 99.2765 64.928 97.5751 64.928H90.0731V89.546H97.5751C99.2765 89.546 100.816 89.2673 102.195 88.71C103.574 88.1527 104.747 87.3533 105.715 86.312C106.683 85.256 107.431 83.9653 107.959 82.44C108.487 80.9147 108.751 79.184 108.751 77.248ZM128.553 82.968C126.749 83.0267 125.209 83.1733 123.933 83.408C122.672 83.628 121.638 83.9213 120.831 84.288C120.039 84.6547 119.46 85.0873 119.093 85.586C118.741 86.0847 118.565 86.642 118.565 87.258C118.565 87.8447 118.661 88.3507 118.851 88.776C119.042 89.2013 119.299 89.5533 119.621 89.832C119.959 90.096 120.347 90.294 120.787 90.426C121.242 90.5433 121.726 90.602 122.239 90.602C122.929 90.602 123.559 90.536 124.131 90.404C124.703 90.2573 125.239 90.052 125.737 89.788C126.251 89.524 126.735 89.2087 127.189 88.842C127.659 88.4753 128.113 88.0573 128.553 87.588V82.968ZM115.903 73.86C117.135 72.672 118.463 71.7847 119.885 71.198C121.308 70.6113 122.885 70.318 124.615 70.318C125.862 70.318 126.969 70.5233 127.937 70.934C128.905 71.3447 129.719 71.9167 130.379 72.65C131.039 73.3833 131.538 74.2707 131.875 75.312C132.213 76.3533 132.381 77.4973 132.381 78.744V93H130.643C130.262 93 129.969 92.9413 129.763 92.824C129.558 92.692 129.397 92.4427 129.279 92.076L128.839 89.964C128.253 90.5067 127.681 90.9907 127.123 91.416C126.566 91.8267 125.979 92.1787 125.363 92.472C124.747 92.7507 124.087 92.9633 123.383 93.11C122.694 93.2713 121.924 93.352 121.073 93.352C120.208 93.352 119.394 93.2347 118.631 93C117.869 92.7507 117.201 92.384 116.629 91.9C116.072 91.416 115.625 90.8073 115.287 90.074C114.965 89.326 114.803 88.446 114.803 87.434C114.803 86.554 115.045 85.7107 115.529 84.904C116.013 84.0827 116.798 83.3567 117.883 82.726C118.969 82.0953 120.384 81.582 122.129 81.186C123.875 80.7753 126.016 80.5407 128.553 80.482V78.744C128.553 77.0133 128.179 75.708 127.431 74.828C126.683 73.9333 125.591 73.486 124.153 73.486C123.185 73.486 122.371 73.6107 121.711 73.86C121.066 74.0947 120.501 74.366 120.017 74.674C119.548 74.9673 119.137 75.2387 118.785 75.488C118.448 75.7227 118.111 75.84 117.773 75.84C117.509 75.84 117.282 75.774 117.091 75.642C116.901 75.4953 116.739 75.3193 116.607 75.114L115.903 73.86ZM143.568 93.352C141.808 93.352 140.451 92.8607 139.498 91.878C138.559 90.8953 138.09 89.48 138.09 87.632V73.992H135.406C135.171 73.992 134.973 73.926 134.812 73.794C134.65 73.6473 134.57 73.4273 134.57 73.134V71.572L138.222 71.11L139.124 64.224C139.168 64.004 139.263 63.828 139.41 63.696C139.571 63.5493 139.776 63.476 140.026 63.476H142.006V71.154H148.452V73.992H142.006V87.368C142.006 88.3067 142.233 89.0033 142.688 89.458C143.142 89.9127 143.729 90.14 144.448 90.14C144.858 90.14 145.21 90.0887 145.504 89.986C145.812 89.8687 146.076 89.744 146.296 89.612C146.516 89.48 146.699 89.3627 146.846 89.26C147.007 89.1427 147.146 89.084 147.264 89.084C147.469 89.084 147.652 89.2087 147.814 89.458L148.958 91.328C148.283 91.9587 147.469 92.4573 146.516 92.824C145.562 93.176 144.58 93.352 143.568 93.352ZM163.253 82.968C161.449 83.0267 159.909 83.1733 158.633 83.408C157.372 83.628 156.338 83.9213 155.531 84.288C154.739 84.6547 154.16 85.0873 153.793 85.586C153.441 86.0847 153.265 86.642 153.265 87.258C153.265 87.8447 153.36 88.3507 153.551 88.776C153.742 89.2013 153.998 89.5533 154.321 89.832C154.658 90.096 155.047 90.294 155.487 90.426C155.942 90.5433 156.426 90.602 156.939 90.602C157.628 90.602 158.259 90.536 158.831 90.404C159.403 90.2573 159.938 90.052 160.437 89.788C160.95 89.524 161.434 89.2087 161.889 88.842C162.358 88.4753 162.813 88.0573 163.253 87.588V82.968ZM150.603 73.86C151.835 72.672 153.162 71.7847 154.585 71.198C156.008 70.6113 157.584 70.318 159.315 70.318C160.562 70.318 161.669 70.5233 162.637 70.934C163.605 71.3447 164.419 71.9167 165.079 72.65C165.739 73.3833 166.238 74.2707 166.575 75.312C166.912 76.3533 167.081 77.4973 167.081 78.744V93H165.343C164.962 93 164.668 92.9413 164.463 92.824C164.258 92.692 164.096 92.4427 163.979 92.076L163.539 89.964C162.952 90.5067 162.38 90.9907 161.823 91.416C161.266 91.8267 160.679 92.1787 160.063 92.472C159.447 92.7507 158.787 92.9633 158.083 93.11C157.394 93.2713 156.624 93.352 155.773 93.352C154.908 93.352 154.094 93.2347 153.331 93C152.568 92.7507 151.901 92.384 151.329 91.9C150.772 91.416 150.324 90.8073 149.987 90.074C149.664 89.326 149.503 88.446 149.503 87.434C149.503 86.554 149.745 85.7107 150.229 84.904C150.713 84.0827 151.498 83.3567 152.583 82.726C153.668 82.0953 155.084 81.582 156.829 81.186C158.574 80.7753 160.716 80.5407 163.253 80.482V78.744C163.253 77.0133 162.879 75.708 162.131 74.828C161.383 73.9333 160.29 73.486 158.853 73.486C157.885 73.486 157.071 73.6107 156.411 73.86C155.766 74.0947 155.201 74.366 154.717 74.674C154.248 74.9673 153.837 75.2387 153.485 75.488C153.148 75.7227 152.81 75.84 152.473 75.84C152.209 75.84 151.982 75.774 151.791 75.642C151.6 75.4953 151.439 75.3193 151.307 75.114L150.603 73.86Z" fill="white"/>
        <rect y="106.789" width="210" height="13.211" fill="#D42B21"/>
    </g>
    <defs>
        <clipPath id="clip0">
            <rect width="210" height="120" fill="white"/>
        </clipPath>
    </defs>
</svg></g><a href="https://staging-owid.netlify.com/grapher/index-of-democracy-participation-and-competition" target="_blank"><text font-size="25.20" x="15.0" y="35.2" fill="#555"><tspan x="15" y="35.160000000000004">Vanhanen&#x27;s Index of Democracy</tspan></text></a><text font-size="14.40" x="15.0" y="53.7" fill="#666"><tspan x="15" y="53.72">The Vanhanen&#x27;s Index of Democracy is produced by combining data on political participation and electoral</tspan><tspan x="15" y="69.56">competition. Specifically: Index = (% of the adult population who voted in the elections) * (100 - % of the winning</tspan><tspan x="15" y="85.4">party&#x27;s votes in a national election)/100</tspan></text></g><g class="LineChart"><defs><clipPath id="boundsClip-2315"><rect x="28.144000000000005" y="0" width="830" height="901.8"></rect></clipPath></defs><g class="AxisBoxView"><g class="HorizontalAxis"><text x="38.1" y="556.5" fill="#666" text-anchor="middle" font-size="16.2">1820</text><text x="103.3" y="556.5" fill="#666" text-anchor="middle" font-size="16.2">1840</text><text x="168.4" y="556.5" fill="#666" text-anchor="middle" font-size="16.2">1860</text><text x="233.6" y="556.5" fill="#666" text-anchor="middle" font-size="16.2">1880</text><text x="298.7" y="556.5" fill="#666" text-anchor="middle" font-size="16.2">1900</text><text x="363.9" y="556.5" fill="#666" text-anchor="middle" font-size="16.2">1920</text><text x="429" y="556.5" fill="#666" text-anchor="middle" font-size="16.2">1940</text><text x="494.2" y="556.5" fill="#666" text-anchor="middle" font-size="16.2">1960</text><text x="559.3" y="556.5" fill="#666" text-anchor="middle" font-size="16.2">1980</text><text x="624.5" y="556.5" fill="#666" text-anchor="middle" font-size="16.2">2000</text></g><g class="VerticalAxis"><text x="33.14" y="535.3" fill="#666" dominant-baseline="middle" text-anchor="end" font-size="16.2">0</text><text x="33.14" y="481.6" fill="#666" dominant-baseline="middle" text-anchor="end" font-size="16.2">5</text><text x="33.14" y="427.9" fill="#666" dominant-baseline="middle" text-anchor="end" font-size="16.2">10</text><text x="33.14" y="374.2" fill="#666" dominant-baseline="middle" text-anchor="end" font-size="16.2">15</text><text x="33.14" y="320.4" fill="#666" dominant-baseline="middle" text-anchor="end" font-size="16.2">20</text><text x="33.14" y="266.7" fill="#666" dominant-baseline="middle" text-anchor="end" font-size="16.2">25</text><text x="33.14" y="213" fill="#666" dominant-baseline="middle" text-anchor="end" font-size="16.2">30</text><text x="33.14" y="159.3" fill="#666" dominant-baseline="middle" text-anchor="end" font-size="16.2">35</text><text x="33.14" y="105.6" fill="#666" dominant-baseline="middle" text-anchor="end" font-size="16.2">40</text></g><g class="AxisGridLines"><line x1="38.14" y1="535.3" x2="624.50" y2="535.3" stroke="#ccc"></line><line x1="38.14" y1="481.6" x2="624.50" y2="481.6" stroke="#ddd" stroke-dasharray="3,2"></line><line x1="38.14" y1="427.9" x2="624.50" y2="427.9" stroke="#ddd" stroke-dasharray="3,2"></line><line x1="38.14" y1="374.2" x2="624.50" y2="374.2" stroke="#ddd" stroke-dasharray="3,2"></line><line x1="38.14" y1="320.4" x2="624.50" y2="320.4" stroke="#ddd" stroke-dasharray="3,2"></line><line x1="38.14" y1="266.7" x2="624.50" y2="266.7" stroke="#ddd" stroke-dasharray="3,2"></line><line x1="38.14" y1="213" x2="624.50" y2="213" stroke="#ddd" stroke-dasharray="3,2"></line><line x1="38.14" y1="159.3" x2="624.50" y2="159.3" stroke="#ddd" stroke-dasharray="3,2"></line><line x1="38.14" y1="105.6" x2="624.50" y2="105.6" stroke="#ddd" stroke-dasharray="3,2"></line></g></g><g clip-path="url(#boundsClip-2315)"><g class="HeightedLegend clickable"><g class="legendMark"><g class="indicator"><line x1="629.5" y1="520.4" x2="652" y2="520.4" stroke="#666" stroke-width="0.5"></line><line x1="652" y1="520.4" x2="652" y2="520.4" stroke="#666" stroke-width="0.5"></line><line x1="652" y1="520.4" x2="654.5" y2="520.4" stroke="#666" stroke-width="0.5"></line></g><rect x="624.5" y="513.65" width="207.395" height="13.5" fill="#fff" opacity="0"></rect><text font-size="13.50" x="659.5" y="524.4" fill="#3360a9"><tspan x="659.5" y="524.4499999999999">Middle East and North Africa</tspan></text></g><g class="legendMark"><g class="indicator"><line x1="629.5" y1="520.1" x2="642" y2="520.1" stroke="#666" stroke-width="0.5"></line><line x1="642" y1="520.1" x2="642" y2="504.9" stroke="#666" stroke-width="0.5"></line><line x1="642" y1="504.9" x2="654.5" y2="504.9" stroke="#666" stroke-width="0.5"></line></g><rect x="624.5" y="498.15" width="92.24000000000001" height="13.5" fill="#fff" opacity="0"></rect><text font-size="13.50" x="659.5" y="508.9" fill="#ca2628"><tspan x="659.5" y="508.95">East Asia</tspan></text></g><g class="legendMark"><g class="indicator"><line x1="629.5" y1="460.7" x2="642" y2="460.7" stroke="#666" stroke-width="0.5"></line><line x1="642" y1="460.7" x2="642" y2="460.7" stroke="#666" stroke-width="0.5"></line><line x1="642" y1="460.7" x2="654.5" y2="460.7" stroke="#666" stroke-width="0.5"></line></g><rect x="624.5" y="453.95" width="145.7" height="13.5" fill="#fff" opacity="0"></rect><text font-size="13.50" x="659.5" y="464.8" fill="#34983f"><tspan x="659.5" y="464.75">Sub-Sahara Africa</tspan></text></g><g class="legendMark"><g class="indicator"><line x1="629.5" y1="405" x2="648.6666666666666" y2="405" stroke="#666" stroke-width="0.5"></line><line x1="648.6666666666666" y1="405" x2="648.6666666666666" y2="405" stroke="#666" stroke-width="0.5"></line><line x1="648.6666666666666" y1="405" x2="654.5" y2="405" stroke="#666" stroke-width="0.5"></line></g><rect x="624.5" y="398.25" width="70.235" height="13.5" fill="#fff" opacity="0"></rect><text font-size="13.50" x="659.5" y="409.1" fill="#100"><tspan x="659.5" y="409.05">World</tspan></text></g><g class="legendMark"><g class="indicator"><line x1="629.5" y1="400.8" x2="642" y2="400.8" stroke="#666" stroke-width="0.5"></line><line x1="642" y1="400.8" x2="642" y2="389.5" stroke="#666" stroke-width="0.5"></line><line x1="642" y1="389.5" x2="654.5" y2="389.5" stroke="#666" stroke-width="0.5"></line></g><rect x="624.5" y="382.75" width="129.23000000000002" height="13.5" fill="#fff" opacity="0"></rect><text font-size="13.50" x="659.5" y="393.6" fill="#a652ba"><tspan x="659.5" y="393.55">Eastern Europe</tspan></text></g><g class="legendMark"><g class="indicator"><line x1="629.5" y1="400.5" x2="635.3333333333334" y2="400.5" stroke="#666" stroke-width="0.5"></line><line x1="635.3333333333334" y1="400.5" x2="635.3333333333334" y2="374" stroke="#666" stroke-width="0.5"></line><line x1="635.3333333333334" y1="374" x2="654.5" y2="374" stroke="#666" stroke-width="0.5"></line></g><rect x="624.5" y="367.25" width="197.94500000000002" height="13.5" fill="#fff" opacity="0"></rect><text font-size="13.50" x="659.5" y="378.1" fill="#2a939b"><tspan x="659.5" y="378.05">South and South-East Asia</tspan></text></g><g class="legendMark"><g class="indicator"><line x1="629.5" y1="333.5" x2="652" y2="333.5" stroke="#666" stroke-width="0.5"></line><line x1="652" y1="333.5" x2="652" y2="333.5" stroke="#666" stroke-width="0.5"></line><line x1="652" y1="333.5" x2="654.5" y2="333.5" stroke="#666" stroke-width="0.5"></line></g><rect x="624.5" y="326.75" width="147.185" height="13.5" fill="#fff" opacity="0"></rect><text font-size="13.50" x="659.5" y="337.6" fill="#e6332e"><tspan x="659.5" y="337.55">Western Offshoots</tspan></text></g><g class="legendMark"><g class="indicator"><line x1="629.5" y1="324.6" x2="642" y2="324.6" stroke="#666" stroke-width="0.5"></line><line x1="642" y1="324.6" x2="642" y2="318" stroke="#666" stroke-width="0.5"></line><line x1="642" y1="318" x2="654.5" y2="318" stroke="#666" stroke-width="0.5"></line></g><rect x="624.5" y="311.25" width="210.5" height="13.5" fill="#fff" opacity="0"></rect><text font-size="13.50" x="659.5" y="322.1" fill="#9ecc8a"><tspan x="659.5" y="322.05">Latin America and Caribbean</tspan></text></g><g class="legendMark"><g class="indicator"><line x1="629.5" y1="182.2" x2="642" y2="182.2" stroke="#666" stroke-width="0.5"></line><line x1="642" y1="182.2" x2="642" y2="182.2" stroke="#666" stroke-width="0.5"></line><line x1="642" y1="182.2" x2="654.5" y2="182.2" stroke="#666" stroke-width="0.5"></line></g><rect x="624.5" y="175.45" width="132.875" height="13.5" fill="#fff" opacity="0"></rect><text font-size="13.50" x="659.5" y="186.3" fill="#ffd53e"><tspan x="659.5" y="186.25">Western Europe</tspan></text></g></g><g class="Lines"><rect x="38" y="106" width="586" height="430" fill="rgba(255,255,255,0)" opacity="0"></rect><g class="key-World_0"><path stroke="#100" stroke-linecap="round" d="M38 535L41 535L45 535L48 535L51 535L54 535L58 535L61 535L64 535L68 535L71 535L74 535L77 535L81 535L84 535L87 535L90 534L94 534L97 534L100 534L103 534L107 534L110 534L113 534L116 534L120 534L123 534L126 534L129 532L133 532L136 531L139 534L142 534L146 534L149 533L152 533L155 533L159 533L162 533L165 533L168 532L172 532L175 532L178 532L182 533L185 533L188 533L191 532L195 531L198 530L201 530L204 528L208 529L211 529L214 529L217 529L221 528L224 527L227 527L230 527L234 527L237 528L240 528L243 528L247 528L250 526L253 526L256 526L260 526L263 526L266 526L269 525L273 525L276 525L279 524L283 524L286 524L289 524L292 524L296 524L299 524L302 524L305 523L309 523L312 523L315 523L318 523L322 522L325 521L328 521L331 521L335 521L338 520L341 519L344 520L348 519L351 519L354 520L357 517L361 512L364 511L367 509L370 506L374 506L377 506L380 501L383 504L387 504L390 501L393 499L397 498L400 499L403 499L406 502L410 509L413 510L416 509L419 509L423 509L426 512L429 516L432 514L436 516L439 516L442 516L445 497L449 488L452 486L455 486L458 485L462 482L465 481L468 460L471 459L475 460L478 459L481 461L484 460L488 462L491 465L494 463L498 461L501 466L504 461L507 468L511 466L514 469L517 465L520 462L524 462L527 461L530 463L533 467L537 463L540 461L543 462L546 461L550 457L553 456L556 454L559 457L563 456L566 456L569 454L572 455L576 455L579 453L582 450L585 444L589 424L592 418L595 409L598 403L602 400L605 397L608 398L612 385L615 387L618 386L621 404L625 405" fill="none" stroke-width="1.5"></path></g><g class="key-East-Asia_0"><path stroke="#ca2628" stroke-linecap="round" d="M38 535L41 535L45 535L48 535L51 535L54 535L58 535L61 535L64 535L68 535L71 535L74 535L77 535L81 535L84 535L87 535L90 535L94 535L97 535L100 535L103 535L107 535L110 535L113 535L116 535L120 535L123 535L126 535L129 535L133 535L136 535L139 535L142 535L146 535L149 535L152 535L155 535L159 535L162 535L165 535L168 535L172 535L175 535L178 535L182 535L185 535L188 535L191 535L195 535L198 535L201 535L204 535L208 535L211 535L214 535L217 535L221 535L224 535L227 535L230 535L234 535L237 535L240 535L243 535L247 535L250 535L253 535L256 535L260 535L263 535L266 535L269 535L273 535L276 535L279 535L283 535L286 535L289 535L292 535L296 535L299 535L302 535L305 535L309 535L312 535L315 535L318 535L322 535L325 535L328 535L331 535L335 535L338 535L341 535L344 535L348 535L351 535L354 535L357 535L361 535L364 535L367 535L370 535L374 535L377 534L380 534L383 534L387 534L390 533L393 533L397 533L400 533L403 533L406 533L410 533L413 533L416 532L419 532L423 532L426 532L429 532L432 532L436 534L439 534L442 534L445 504L449 503L452 507L455 505L458 504L462 503L465 499L468 496L471 494L475 497L478 497L481 505L484 505L488 505L491 505L494 508L498 510L501 510L504 502L507 502L511 498L514 498L517 499L520 499L524 500L527 498L530 498L533 505L537 505L540 502L543 502L546 502L550 506L553 506L556 506L559 506L563 506L566 507L569 507L572 508L576 508L579 508L582 497L585 494L589 494L592 494L595 491L598 492L602 492L605 497L608 497L612 494L615 494L618 497L621 520L625 520" fill="none" stroke-width="1.5"></path></g><g class="key-Eastern-Europe_0"><path stroke="#a652ba" stroke-linecap="round" d="M38 535L41 535L45 535L48 535L51 535L54 535L58 535L61 535L64 535L68 535L71 535L74 535L77 535L81 535L84 535L87 535L90 535L94 535L97 535L100 535L103 535L107 535L110 535L113 535L116 535L120 535L123 535L126 535L129 535L133 535L136 535L139 535L142 535L146 535L149 535L152 535L155 535L159 535L162 535L165 535L168 535L172 535L175 535L178 535L182 535L185 535L188 535L191 535L195 535L198 528L201 528L204 526L208 531L211 534L214 535L217 535L221 535L224 535L227 535L230 535L234 535L237 535L240 535L243 535L247 535L250 535L253 535L256 535L260 535L263 535L266 535L269 534L273 534L276 534L279 534L283 534L286 533L289 533L292 533L296 533L299 533L302 533L305 533L309 533L312 533L315 533L318 533L322 533L325 533L328 533L331 533L335 533L338 532L341 532L344 533L348 533L351 533L354 533L357 532L361 515L364 510L367 510L370 498L374 499L377 499L380 499L383 529L387 529L390 515L393 515L397 518L400 510L403 510L406 497L410 502L413 512L416 512L419 511L423 513L426 535L429 535L432 524L436 535L439 535L442 535L445 526L449 519L452 521L455 533L458 531L462 532L465 531L468 532L471 533L475 533L478 533L481 533L484 533L488 534L491 534L494 534L498 534L501 534L504 534L507 534L511 534L514 535L517 535L520 535L524 535L527 534L530 535L533 535L537 535L540 535L543 534L546 534L550 498L553 498L556 500L559 500L563 500L566 504L569 492L572 486L576 485L579 484L582 484L585 484L589 443L592 418L595 340L598 328L602 370L605 361L608 385L612 380L615 386L618 387L621 388L625 401" fill="none" stroke-width="1.5"></path></g><g class="key-Latin-America-and-Caribbean_0"><path stroke="#9ecc8a" stroke-linecap="round" d="M38 535L41 535L45 535L48 535L51 535L54 535L58 535L61 535L64 535L68 535L71 535L74 535L77 535L81 535L84 535L87 535L90 535L94 535L97 535L100 535L103 535L107 535L110 535L113 535L116 535L120 535L123 535L126 535L129 535L133 535L136 535L139 535L142 535L146 535L149 535L152 535L155 535L159 532L162 529L165 531L168 532L172 532L175 535L178 535L182 535L185 535L188 535L191 535L195 535L198 535L201 535L204 535L208 535L211 535L214 535L217 534L221 535L224 531L227 535L230 535L234 535L237 534L240 534L243 534L247 533L250 533L253 534L256 534L260 534L263 534L266 534L269 533L273 533L276 534L279 533L283 534L286 533L289 533L292 533L296 533L299 533L302 534L305 533L309 532L312 532L315 532L318 533L322 533L325 533L328 532L331 530L335 530L338 529L341 532L344 534L348 533L351 529L354 527L357 526L361 522L364 521L367 522L370 519L374 518L377 518L380 519L383 526L387 527L390 526L393 525L397 527L400 521L403 521L406 522L410 527L413 527L416 528L419 521L423 521L426 520L429 519L432 518L436 512L439 519L442 519L445 494L449 479L452 481L455 481L458 493L462 482L465 473L468 472L471 473L475 474L478 485L481 480L484 472L488 441L491 441L494 442L498 442L501 463L504 434L507 470L511 470L514 495L517 493L520 496L524 498L527 489L530 487L533 491L537 485L540 488L543 488L546 508L550 507L553 505L556 505L559 499L563 497L566 482L569 463L572 455L576 453L579 456L582 455L585 418L589 360L592 356L595 356L598 357L602 358L605 329L608 332L612 329L615 332L618 321L621 323L625 325" fill="none" stroke-width="1.5"></path></g><g class="key-Middle-East-and-North-Africa_0"><path stroke="#3360a9" stroke-linecap="round" d="M38 535L41 535L45 535L48 535L51 535L54 535L58 535L61 535L64 535L68 535L71 535L74 535L77 535L81 535L84 535L87 535L90 535L94 535L97 535L100 535L103 535L107 535L110 535L113 535L116 535L120 535L123 535L126 535L129 535L133 535L136 535L139 535L142 535L146 535L149 535L152 535L155 535L159 535L162 535L165 535L168 535L172 535L175 535L178 535L182 535L185 535L188 535L191 535L195 535L198 535L201 535L204 535L208 535L211 535L214 535L217 535L221 535L224 535L227 535L230 535L234 535L237 535L240 535L243 535L247 535L250 535L253 535L256 535L260 535L263 535L266 535L269 535L273 535L276 535L279 535L283 535L286 535L289 535L292 535L296 535L299 535L302 535L305 535L309 535L312 535L315 535L318 535L322 535L325 535L328 535L331 535L335 535L338 535L341 535L344 535L348 535L351 535L354 535L357 535L361 535L364 535L367 535L370 535L374 535L377 535L380 535L383 535L387 535L390 535L393 535L397 535L400 535L403 535L406 535L410 535L413 535L416 535L419 535L423 535L426 535L429 535L432 535L436 535L439 535L442 535L445 534L449 534L452 534L455 534L458 526L462 525L465 525L468 525L471 525L475 526L478 525L481 525L484 525L488 525L491 526L494 526L498 526L501 526L504 526L507 526L511 526L514 526L517 526L520 526L524 527L527 527L530 527L533 527L537 527L540 527L543 528L546 528L550 527L553 527L556 527L559 519L563 521L566 521L569 521L572 525L576 524L579 524L582 524L585 524L589 525L592 525L595 525L598 525L602 522L605 522L608 523L612 518L615 517L618 517L621 517L625 520" fill="none" stroke-width="1.5"></path></g><g class="key-South-and-South__002dEast-Asia_0"><path stroke="#2a939b" stroke-linecap="round" d="M38 535L41 535L45 535L48 535L51 535L54 535L58 535L61 535L64 535L68 535L71 535L74 535L77 535L81 535L84 535L87 535L90 535L94 535L97 535L100 535L103 535L107 535L110 535L113 535L116 535L120 535L123 535L126 535L129 535L133 535L136 535L139 535L142 535L146 535L149 535L152 535L155 535L159 535L162 535L165 535L168 535L172 535L175 535L178 535L182 535L185 535L188 535L191 535L195 535L198 535L201 535L204 535L208 535L211 535L214 535L217 535L221 535L224 535L227 535L230 535L234 535L237 535L240 535L243 535L247 535L250 535L253 535L256 535L260 535L263 535L266 535L269 535L273 535L276 535L279 535L283 535L286 535L289 535L292 535L296 535L299 535L302 535L305 535L309 535L312 535L315 535L318 535L322 535L325 535L328 535L331 535L335 535L338 535L341 535L344 535L348 535L351 535L354 535L357 535L361 535L364 535L367 535L370 535L374 535L377 535L380 535L383 535L387 535L390 535L393 535L397 535L400 535L403 535L406 535L410 535L413 535L416 535L419 535L423 535L426 535L429 535L432 535L436 535L439 535L442 535L445 535L449 534L452 524L455 522L458 521L462 521L465 520L468 445L471 446L475 447L478 437L481 435L484 434L488 435L491 445L494 446L498 446L501 458L504 457L507 457L511 456L514 456L517 439L520 439L524 439L527 439L530 448L533 444L537 433L540 434L543 437L546 437L550 432L553 430L556 430L559 435L563 432L566 436L569 435L572 437L576 437L579 430L582 431L585 423L589 397L592 399L595 407L598 401L602 402L605 401L608 401L612 363L615 366L618 362L621 401L625 401" fill="none" stroke-width="1.5"></path></g><g class="key-Sub__002dSahara-Africa_0"><path stroke="#34983f" stroke-linecap="round" d="M38 535L41 535L45 535L48 535L51 535L54 535L58 535L61 535L64 535L68 535L71 535L74 535L77 535L81 535L84 535L87 535L90 535L94 535L97 535L100 535L103 535L107 535L110 535L113 535L116 535L120 535L123 535L126 535L129 535L133 535L136 535L139 535L142 535L146 535L149 535L152 535L155 535L159 535L162 535L165 535L168 535L172 535L175 535L178 535L182 535L185 535L188 535L191 535L195 535L198 535L201 535L204 535L208 535L211 535L214 535L217 535L221 535L224 535L227 535L230 535L234 535L237 535L240 535L243 535L247 535L250 535L253 535L256 535L260 535L263 535L266 535L269 535L273 535L276 535L279 535L283 535L286 535L289 535L292 535L296 535L299 535L302 535L305 535L309 535L312 535L315 535L318 535L322 535L325 535L328 535L331 534L335 534L338 534L341 534L344 534L348 534L351 534L354 534L357 534L361 534L364 534L367 534L370 534L374 534L377 534L380 534L383 534L387 534L390 534L393 534L397 534L400 534L403 534L406 533L410 533L413 533L416 533L419 533L423 532L426 532L429 532L432 532L436 532L439 532L442 532L445 532L449 532L452 532L455 531L458 531L462 531L465 531L468 531L471 531L475 531L478 531L481 531L484 529L488 530L491 530L494 486L498 487L501 484L504 482L507 490L511 507L514 522L517 525L520 521L524 522L527 525L530 525L533 528L537 531L540 532L543 530L546 530L550 529L553 527L556 488L559 485L563 487L566 485L569 523L572 522L576 526L579 526L582 525L585 525L589 523L592 524L595 521L598 508L602 504L605 486L608 481L612 472L615 479L618 478L621 460L625 461" fill="none" stroke-width="1.5"></path></g><g class="key-Western-Europe_0"><path stroke="#ffd53e" stroke-linecap="round" d="M38 535L41 535L45 535L48 535L51 535L54 535L58 535L61 535L64 535L68 535L71 535L74 535L77 534L81 534L84 534L87 534L90 534L94 534L97 534L100 534L103 534L107 534L110 534L113 534L116 534L120 534L123 534L126 533L129 517L133 516L136 516L139 533L142 532L146 532L149 532L152 532L155 532L159 531L162 531L165 531L168 531L172 530L175 530L178 528L182 528L185 527L188 527L191 524L195 523L198 516L201 516L204 504L208 507L211 509L214 508L217 508L221 507L224 504L227 504L230 503L234 503L237 514L240 513L243 513L247 512L250 498L253 502L256 501L260 500L263 499L266 500L269 499L273 495L276 494L279 491L283 494L286 494L289 493L292 490L296 490L299 491L302 491L305 485L309 485L312 484L315 483L318 478L322 476L325 476L328 475L331 478L335 477L338 477L341 471L344 470L348 469L351 470L354 466L357 448L361 420L364 417L367 413L370 398L374 398L377 405L380 365L383 364L387 364L390 363L393 343L397 333L400 340L403 343L406 368L410 419L413 418L416 417L419 416L423 416L426 436L429 484L432 483L436 483L439 480L442 479L445 399L449 345L452 343L455 347L458 340L462 328L465 334L468 334L471 323L475 321L478 326L481 322L484 322L488 354L491 353L494 351L498 352L501 358L504 354L507 358L511 330L514 335L517 332L520 335L524 336L527 333L530 326L533 323L537 315L540 300L543 300L546 288L550 254L553 249L556 252L559 250L563 249L566 250L569 243L572 243L576 242L579 235L582 233L585 241L589 239L592 166L595 167L598 161L602 151L605 166L608 173L612 159L615 167L618 174L621 174L625 182" fill="none" stroke-width="1.5"></path></g><g class="key-Western-Offshoots_0"><path stroke="#e6332e" stroke-linecap="round" d="M38 535L41 535L45 535L48 535L51 518L54 518L58 518L61 518L64 497L68 497L71 497L74 497L77 499L81 499L84 499L87 499L90 490L94 490L97 490L100 490L103 473L107 473L110 473L113 473L116 470L120 470L123 470L126 470L129 471L133 471L136 471L139 471L142 477L146 477L149 477L152 477L155 462L159 462L162 462L165 462L168 452L172 452L175 452L178 452L182 486L185 486L188 486L191 483L195 466L198 466L201 466L204 466L208 468L211 468L214 468L217 468L221 443L224 443L227 441L230 441L234 441L237 441L240 442L243 442L247 443L250 443L253 443L256 441L260 437L263 437L266 437L269 437L273 436L276 436L279 436L283 436L286 437L289 437L292 437L296 437L299 445L302 443L305 443L309 441L312 458L315 458L318 457L322 457L325 450L328 450L331 450L335 450L338 438L341 436L344 437L348 437L351 436L354 438L357 438L361 437L364 431L367 421L370 422L374 422L377 405L380 404L383 403L387 403L390 394L393 394L397 394L400 392L403 385L406 385L410 383L413 381L416 378L419 379L423 379L426 379L429 354L432 354L436 354L439 355L442 364L445 358L449 358L452 358L455 351L458 353L462 353L465 354L468 346L471 349L475 349L478 349L481 368L484 363L488 367L491 367L494 334L498 335L501 330L504 331L507 376L511 377L514 376L517 376L520 321L524 322L527 322L530 322L533 371L537 371L540 373L543 373L546 334L550 334L553 334L556 329L559 336L563 336L566 336L569 336L572 359L576 359L579 359L582 360L585 350L589 350L592 350L595 350L598 290L602 292L605 292L608 292L612 336L615 337L618 337L621 337L625 334" fill="none" stroke-width="1.5"></path></g></g></g></g><g class="SourcesFooter" style="fill:#777"><g class="clickable" style="fill:#777"><text font-size="12.60" x="15.0" y="581.6"><tspan x="15" y="581.58">Source: How Was Life, OECD (2014)</tspan></text></g><text font-size="12.60" x="796.4" y="581.6"><tspan x="796.444" y="581.58"><a style="fill: #777;" class="cclogo" href="http://creativecommons.org/licenses/by/4.0/deed.en_US" target="_blank">CC BY</a></tspan></text></g></svg>