<svg xmlns="http://www.w3.org/2000/svg" version="1.1" style="font-family:Lato, &#x27;Helvetica Neue&#x27;, Helvetica, Arial, sans-serif;font-size:18px;background-color:white;text-rendering:optimizeLegibility;-webkit-font-smoothing:antialiased" width="850" height="600"><g class="HeaderView"><g transform="translate(774, 15) scale(0.29)"><svg width="210" height="120" viewBox="0 0 210 120" fill="none" xmlns="http://www.w3.org/2000/svg">
    <g clip-path="url(#clip0)">
        <path d="M0 0H210V107.89H0V0Z" fill="#002147"/>
        <path d="M40.9788 32.248C40.9788 34.6093 40.6048 36.78 39.8568 38.76C39.1088 40.7253 38.0528 42.4193 36.6888 43.842C35.3248 45.2647 33.6821 46.372 31.7608 47.164C29.8541 47.9413 27.7421 48.33 25.4248 48.33C23.1074 48.33 20.9954 47.9413 19.0888 47.164C17.1821 46.372 15.5468 45.2647 14.1828 43.842C12.8188 42.4193 11.7628 40.7253 11.0148 38.76C10.2668 36.78 9.89277 34.6093 9.89277 32.248C9.89277 29.8867 10.2668 27.7233 11.0148 25.758C11.7628 23.778 12.8188 22.0767 14.1828 20.654C15.5468 19.2167 17.1821 18.102 19.0888 17.31C20.9954 16.518 23.1074 16.122 25.4248 16.122C27.7421 16.122 29.8541 16.518 31.7608 17.31C33.6821 18.102 35.3248 19.2167 36.6888 20.654C38.0528 22.0767 39.1088 23.778 39.8568 25.758C40.6048 27.7233 40.9788 29.8867 40.9788 32.248ZM36.6008 32.248C36.6008 30.312 36.3368 28.574 35.8088 27.034C35.2808 25.494 34.5328 24.196 33.5648 23.14C32.5968 22.0693 31.4234 21.248 30.0448 20.676C28.6661 20.104 27.1261 19.818 25.4248 19.818C23.7381 19.818 22.2054 20.104 20.8268 20.676C19.4481 21.248 18.2674 22.0693 17.2848 23.14C16.3168 24.196 15.5688 25.494 15.0408 27.034C14.5128 28.574 14.2488 30.312 14.2488 32.248C14.2488 34.184 14.5128 35.922 15.0408 37.462C15.5688 38.9873 16.3168 40.2853 17.2848 41.356C18.2674 42.412 19.4481 43.226 20.8268 43.798C22.2054 44.3553 23.7381 44.634 25.4248 44.634C27.1261 44.634 28.6661 44.3553 30.0448 43.798C31.4234 43.226 32.5968 42.412 33.5648 41.356C34.5328 40.2853 35.2808 38.9873 35.8088 37.462C36.3368 35.922 36.6008 34.184 36.6008 32.248ZM62.8234 25.714V48H60.4914C59.9341 48 59.5821 47.7287 59.4354 47.186L59.1274 44.788C58.1594 45.8587 57.0741 46.724 55.8714 47.384C54.6687 48.0293 53.2901 48.352 51.7354 48.352C50.5181 48.352 49.4401 48.154 48.5014 47.758C47.5774 47.3473 46.8001 46.7753 46.1694 46.042C45.5387 45.3087 45.0621 44.4213 44.7394 43.38C44.4314 42.3387 44.2774 41.1873 44.2774 39.926V25.714H48.1934V39.926C48.1934 41.6127 48.5747 42.918 49.3374 43.842C50.1147 44.766 51.2954 45.228 52.8794 45.228C54.0381 45.228 55.1161 44.9567 56.1134 44.414C57.1254 43.8567 58.0567 43.094 58.9074 42.126V25.714H62.8234ZM71.4305 30.18C72.1346 28.6547 72.9999 27.4667 74.0266 26.616C75.0532 25.7507 76.3072 25.318 77.7886 25.318C78.2579 25.318 78.7052 25.3693 79.1306 25.472C79.5706 25.5747 79.9592 25.736 80.2966 25.956L80.0106 28.882C79.9226 29.2487 79.7026 29.432 79.3506 29.432C79.1452 29.432 78.8446 29.388 78.4486 29.3C78.0526 29.212 77.6052 29.168 77.1066 29.168C76.4026 29.168 75.7719 29.2707 75.2146 29.476C74.6719 29.6813 74.1806 29.9893 73.7406 30.4C73.3152 30.796 72.9266 31.2947 72.5746 31.896C72.2372 32.4827 71.9292 33.1573 71.6506 33.92V48H67.7125V25.714H69.9566C70.3819 25.714 70.6752 25.7947 70.8366 25.956C70.9979 26.1173 71.1079 26.396 71.1666 26.792L71.4305 30.18ZM132.589 16.474L122.755 48H118.927L110.941 23.954C110.867 23.7193 110.794 23.47 110.721 23.206C110.662 22.942 110.596 22.6633 110.523 22.37C110.449 22.6633 110.376 22.942 110.303 23.206C110.23 23.47 110.156 23.7193 110.083 23.954L102.053 48H98.2248L88.3908 16.474H91.9328C92.3142 16.474 92.6295 16.5693 92.8788 16.76C93.1428 16.9507 93.3115 17.1927 93.3848 17.486L99.8968 39.398C99.9995 39.794 100.095 40.2193 100.183 40.674C100.285 41.1287 100.381 41.6127 100.469 42.126C100.571 41.6127 100.674 41.1287 100.777 40.674C100.894 40.2047 101.019 39.7793 101.151 39.398L108.565 17.486C108.653 17.2367 108.821 17.0093 109.071 16.804C109.335 16.584 109.65 16.474 110.017 16.474H111.249C111.63 16.474 111.938 16.5693 112.173 16.76C112.407 16.9507 112.583 17.1927 112.701 17.486L120.093 39.398C120.225 39.7793 120.342 40.19 120.445 40.63C120.562 41.07 120.672 41.532 120.775 42.016C120.848 41.532 120.929 41.07 121.017 40.63C121.105 40.19 121.2 39.7793 121.303 39.398L127.837 17.486C127.91 17.222 128.072 16.9873 128.321 16.782C128.585 16.5767 128.9 16.474 129.267 16.474H132.589ZM141.94 25.362C143.568 25.362 145.034 25.6333 146.34 26.176C147.645 26.7187 148.76 27.4887 149.684 28.486C150.608 29.4833 151.312 30.6933 151.796 32.116C152.294 33.524 152.544 35.1007 152.544 36.846C152.544 38.606 152.294 40.19 151.796 41.598C151.312 43.006 150.608 44.2087 149.684 45.206C148.76 46.2033 147.645 46.9733 146.34 47.516C145.034 48.044 143.568 48.308 141.94 48.308C140.297 48.308 138.816 48.044 137.496 47.516C136.19 46.9733 135.076 46.2033 134.152 45.206C133.228 44.2087 132.516 43.006 132.018 41.598C131.534 40.19 131.292 38.606 131.292 36.846C131.292 35.1007 131.534 33.524 132.018 32.116C132.516 30.6933 133.228 29.4833 134.152 28.486C135.076 27.4887 136.19 26.7187 137.496 26.176C138.816 25.6333 140.297 25.362 141.94 25.362ZM141.94 45.25C144.14 45.25 145.782 44.5167 146.868 43.05C147.953 41.5687 148.496 39.508 148.496 36.868C148.496 34.2133 147.953 32.1453 146.868 30.664C145.782 29.1827 144.14 28.442 141.94 28.442C140.825 28.442 139.85 28.6327 139.014 29.014C138.192 29.3953 137.503 29.9453 136.946 30.664C136.403 31.3827 135.992 32.27 135.714 33.326C135.45 34.3673 135.318 35.548 135.318 36.868C135.318 39.508 135.86 41.5687 136.946 43.05C138.046 44.5167 139.71 45.25 141.94 45.25ZM159.908 30.18C160.612 28.6547 161.478 27.4667 162.504 26.616C163.531 25.7507 164.785 25.318 166.266 25.318C166.736 25.318 167.183 25.3693 167.608 25.472C168.048 25.5747 168.437 25.736 168.774 25.956L168.488 28.882C168.4 29.2487 168.18 29.432 167.828 29.432C167.623 29.432 167.322 29.388 166.926 29.3C166.53 29.212 166.083 29.168 165.584 29.168C164.88 29.168 164.25 29.2707 163.692 29.476C163.15 29.6813 162.658 29.9893 162.218 30.4C161.793 30.796 161.404 31.2947 161.052 31.896C160.715 32.4827 160.407 33.1573 160.128 33.92V48H156.19V25.714H158.434C158.86 25.714 159.153 25.7947 159.314 25.956C159.476 26.1173 159.586 26.396 159.644 26.792L159.908 30.18ZM174.946 15.594V48H171.03V15.594H174.946ZM194.496 31.016C193.763 30.0333 192.971 29.3513 192.12 28.97C191.269 28.574 190.316 28.376 189.26 28.376C187.192 28.376 185.601 29.1167 184.486 30.598C183.371 32.0793 182.814 34.1913 182.814 36.934C182.814 38.386 182.939 39.6327 183.188 40.674C183.437 41.7007 183.804 42.5513 184.288 43.226C184.772 43.886 185.366 44.37 186.07 44.678C186.774 44.986 187.573 45.14 188.468 45.14C189.759 45.14 190.881 44.8467 191.834 44.26C192.802 43.6733 193.689 42.8447 194.496 41.774V31.016ZM198.412 15.594V48H196.08C195.523 48 195.171 47.7287 195.024 47.186L194.672 44.48C193.719 45.624 192.633 46.548 191.416 47.252C190.199 47.956 188.791 48.308 187.192 48.308C185.916 48.308 184.757 48.066 183.716 47.582C182.675 47.0833 181.787 46.3573 181.054 45.404C180.321 44.4507 179.756 43.2627 179.36 41.84C178.964 40.4173 178.766 38.782 178.766 36.934C178.766 35.2913 178.986 33.766 179.426 32.358C179.866 30.9353 180.497 29.7033 181.318 28.662C182.139 27.6207 183.144 26.8067 184.332 26.22C185.535 25.6187 186.884 25.318 188.38 25.318C189.744 25.318 190.91 25.5527 191.878 26.022C192.861 26.4767 193.733 27.1147 194.496 27.936V15.594H198.412ZM46.6139 70.714V93H42.6979V70.714H46.6139ZM47.4499 63.718C47.4499 64.0993 47.3692 64.4587 47.2079 64.796C47.0612 65.1187 46.8559 65.412 46.5919 65.676C46.3425 65.9253 46.0419 66.1233 45.6899 66.27C45.3525 66.4167 44.9932 66.49 44.6119 66.49C44.2305 66.49 43.8712 66.4167 43.5339 66.27C43.2112 66.1233 42.9252 65.9253 42.6759 65.676C42.4265 65.412 42.2285 65.1187 42.0819 64.796C41.9352 64.4587 41.8619 64.0993 41.8619 63.718C41.8619 63.3367 41.9352 62.9773 42.0819 62.64C42.2285 62.288 42.4265 61.9873 42.6759 61.738C42.9252 61.474 43.2112 61.2687 43.5339 61.122C43.8712 60.9753 44.2305 60.902 44.6119 60.902C44.9932 60.902 45.3525 60.9753 45.6899 61.122C46.0419 61.2687 46.3425 61.474 46.5919 61.738C46.8559 61.9873 47.0612 62.288 47.2079 62.64C47.3692 62.9773 47.4499 63.3367 47.4499 63.718ZM55.4242 73.948C55.9082 73.4053 56.4215 72.914 56.9642 72.474C57.5068 72.034 58.0788 71.66 58.6802 71.352C59.2962 71.0293 59.9415 70.7873 60.6162 70.626C61.3055 70.45 62.0462 70.362 62.8382 70.362C64.0555 70.362 65.1262 70.5673 66.0502 70.978C66.9888 71.374 67.7662 71.946 68.3822 72.694C69.0128 73.4273 69.4895 74.3147 69.8122 75.356C70.1348 76.3973 70.2962 77.5487 70.2962 78.81V93H66.3582V78.81C66.3582 77.1233 65.9695 75.818 65.1922 74.894C64.4295 73.9553 63.2635 73.486 61.6942 73.486C60.5355 73.486 59.4502 73.7647 58.4382 74.322C57.4408 74.8793 56.5168 75.6347 55.6662 76.588V93H51.7282V70.714H54.0822C54.6395 70.714 54.9842 70.9853 55.1162 71.528L55.4242 73.948ZM113.129 77.248C113.129 79.6093 112.755 81.758 112.007 83.694C111.259 85.63 110.203 87.2873 108.839 88.666C107.475 90.0447 105.832 91.1153 103.911 91.878C102.004 92.626 99.8925 93 97.5751 93H85.8051V61.474H97.5751C99.8925 61.474 102.004 61.8553 103.911 62.618C105.832 63.366 107.475 64.4367 108.839 65.83C110.203 67.2087 111.259 68.866 112.007 70.802C112.755 72.738 113.129 74.8867 113.129 77.248ZM108.751 77.248C108.751 75.312 108.487 73.5813 107.959 72.056C107.431 70.5307 106.683 69.24 105.715 68.184C104.747 67.128 103.574 66.3213 102.195 65.764C100.816 65.2067 99.2765 64.928 97.5751 64.928H90.0731V89.546H97.5751C99.2765 89.546 100.816 89.2673 102.195 88.71C103.574 88.1527 104.747 87.3533 105.715 86.312C106.683 85.256 107.431 83.9653 107.959 82.44C108.487 80.9147 108.751 79.184 108.751 77.248ZM128.553 82.968C126.749 83.0267 125.209 83.1733 123.933 83.408C122.672 83.628 121.638 83.9213 120.831 84.288C120.039 84.6547 119.46 85.0873 119.093 85.586C118.741 86.0847 118.565 86.642 118.565 87.258C118.565 87.8447 118.661 88.3507 118.851 88.776C119.042 89.2013 119.299 89.5533 119.621 89.832C119.959 90.096 120.347 90.294 120.787 90.426C121.242 90.5433 121.726 90.602 122.239 90.602C122.929 90.602 123.559 90.536 124.131 90.404C124.703 90.2573 125.239 90.052 125.737 89.788C126.251 89.524 126.735 89.2087 127.189 88.842C127.659 88.4753 128.113 88.0573 128.553 87.588V82.968ZM115.903 73.86C117.135 72.672 118.463 71.7847 119.885 71.198C121.308 70.6113 122.885 70.318 124.615 70.318C125.862 70.318 126.969 70.5233 127.937 70.934C128.905 71.3447 129.719 71.9167 130.379 72.65C131.039 73.3833 131.538 74.2707 131.875 75.312C132.213 76.3533 132.381 77.4973 132.381 78.744V93H130.643C130.262 93 129.969 92.9413 129.763 92.824C129.558 92.692 129.397 92.4427 129.279 92.076L128.839 89.964C128.253 90.5067 127.681 90.9907 127.123 91.416C126.566 91.8267 125.979 92.1787 125.363 92.472C124.747 92.7507 124.087 92.9633 123.383 93.11C122.694 93.2713 121.924 93.352 121.073 93.352C120.208 93.352 119.394 93.2347 118.631 93C117.869 92.7507 117.201 92.384 116.629 91.9C116.072 91.416 115.625 90.8073 115.287 90.074C114.965 89.326 114.803 88.446 114.803 87.434C114.803 86.554 115.045 85.7107 115.529 84.904C116.013 84.0827 116.798 83.3567 117.883 82.726C118.969 82.0953 120.384 81.582 122.129 81.186C123.875 80.7753 126.016 80.5407 128.553 80.482V78.744C128.553 77.0133 128.179 75.708 127.431 74.828C126.683 73.9333 125.591 73.486 124.153 73.486C123.185 73.486 122.371 73.6107 121.711 73.86C121.066 74.0947 120.501 74.366 120.017 74.674C119.548 74.9673 119.137 75.2387 118.785 75.488C118.448 75.7227 118.111 75.84 117.773 75.84C117.509 75.84 117.282 75.774 117.091 75.642C116.901 75.4953 116.739 75.3193 116.607 75.114L115.903 73.86ZM143.568 93.352C141.808 93.352 140.451 92.8607 139.498 91.878C138.559 90.8953 138.09 89.48 138.09 87.632V73.992H135.406C135.171 73.992 134.973 73.926 134.812 73.794C134.65 73.6473 134.57 73.4273 134.57 73.134V71.572L138.222 71.11L139.124 64.224C139.168 64.004 139.263 63.828 139.41 63.696C139.571 63.5493 139.776 63.476 140.026 63.476H142.006V71.154H148.452V73.992H142.006V87.368C142.006 88.3067 142.233 89.0033 142.688 89.458C143.142 89.9127 143.729 90.14 144.448 90.14C144.858 90.14 145.21 90.0887 145.504 89.986C145.812 89.8687 146.076 89.744 146.296 89.612C146.516 89.48 146.699 89.3627 146.846 89.26C147.007 89.1427 147.146 89.084 147.264 89.084C147.469 89.084 147.652 89.2087 147.814 89.458L148.958 91.328C148.283 91.9587 147.469 92.4573 146.516 92.824C145.562 93.176 144.58 93.352 143.568 93.352ZM163.253 82.968C161.449 83.0267 159.909 83.1733 158.633 83.408C157.372 83.628 156.338 83.9213 155.531 84.288C154.739 84.6547 154.16 85.0873 153.793 85.586C153.441 86.0847 153.265 86.642 153.265 87.258C153.265 87.8447 153.36 88.3507 153.551 88.776C153.742 89.2013 153.998 89.5533 154.321 89.832C154.658 90.096 155.047 90.294 155.487 90.426C155.942 90.5433 156.426 90.602 156.939 90.602C157.628 90.602 158.259 90.536 158.831 90.404C159.403 90.2573 159.938 90.052 160.437 89.788C160.95 89.524 161.434 89.2087 161.889 88.842C162.358 88.4753 162.813 88.0573 163.253 87.588V82.968ZM150.603 73.86C151.835 72.672 153.162 71.7847 154.585 71.198C156.008 70.6113 157.584 70.318 159.315 70.318C160.562 70.318 161.669 70.5233 162.637 70.934C163.605 71.3447 164.419 71.9167 165.079 72.65C165.739 73.3833 166.238 74.2707 166.575 75.312C166.912 76.3533 167.081 77.4973 167.081 78.744V93H165.343C164.962 93 164.668 92.9413 164.463 92.824C164.258 92.692 164.096 92.4427 163.979 92.076L163.539 89.964C162.952 90.5067 162.38 90.9907 161.823 91.416C161.266 91.8267 160.679 92.1787 160.063 92.472C159.447 92.7507 158.787 92.9633 158.083 93.11C157.394 93.2713 156.624 93.352 155.773 93.352C154.908 93.352 154.094 93.2347 153.331 93C152.568 92.7507 151.901 92.384 151.329 91.9C150.772 91.416 150.324 90.8073 149.987 90.074C149.664 89.326 149.503 88.446 149.503 87.434C149.503 86.554 149.745 85.7107 150.229 84.904C150.713 84.0827 151.498 83.3567 152.583 82.726C153.668 82.0953 155.084 81.582 156.829 81.186C158.574 80.7753 160.716 80.5407 163.253 80.482V78.744C163.253 77.0133 162.879 75.708 162.131 74.828C161.383 73.9333 160.29 73.486 158.853 73.486C157.885 73.486 157.071 73.6107 156.411 73.86C155.766 74.0947 155.201 74.366 154.717 74.674C154.248 74.9673 153.837 75.2387 153.485 75.488C153.148 75.7227 152.81 75.84 152.473 75.84C152.209 75.84 151.982 75.774 151.791 75.642C151.6 75.4953 151.439 75.3193 151.307 75.114L150.603 73.86Z" fill="white"/>
        <rect y="106.789" width="210" height="13.211" fill="#D42B21"/>
    </g>
    <defs>
        <clipPath id="clip0">
            <rect width="210" height="120" fill="white"/>
        </clipPath>
    </defs>
</svg></g><a href="https://staging-owid.netlify.com/grapher/long-term-cereal-yields-in-the-united-kingdom" target="_blank"><text font-size="25.20" x="15.0" y="35.2" fill="#555"><tspan x="15" y="35.160000000000004">Long-term cereal yields in the United Kingdom</tspan></text></a><text font-size="14.40" x="15.0" y="53.7" fill="#666"><tspan x="15" y="53.72">Average agricultural yields in key crops in the United Kingdom from 1270-2014, measured in tonnes per hectare.</tspan></text></g><g class="LineChart"><defs><clipPath id="boundsClip-2609"><rect x="50.824" y="0" width="830" height="963.8"></rect></clipPath></defs><g class="AxisBoxView"><g class="HorizontalAxis"><text x="60.8" y="556.5" fill="#666" text-anchor="middle" font-size="16.2">1270</text><text x="183.1" y="556.5" fill="#666" text-anchor="middle" font-size="16.2">1400</text><text x="277.2" y="556.5" fill="#666" text-anchor="middle" font-size="16.2">1500</text><text x="371.3" y="556.5" fill="#666" text-anchor="middle" font-size="16.2">1600</text><text x="465.4" y="556.5" fill="#666" text-anchor="middle" font-size="16.2">1700</text><text x="559.5" y="556.5" fill="#666" text-anchor="middle" font-size="16.2">1800</text><text x="653.6" y="556.5" fill="#666" text-anchor="middle" font-size="16.2">1900</text><text x="760.9" y="556.5" fill="#666" text-anchor="middle" font-size="16.2">2014</text></g><g class="VerticalAxis"><text x="55.82" y="535.3" fill="#666" dominant-baseline="middle" text-anchor="end" font-size="16.2">0 t/ha</text><text x="55.82" y="427.9" fill="#666" dominant-baseline="middle" text-anchor="end" font-size="16.2">2 t/ha</text><text x="55.82" y="320.5" fill="#666" dominant-baseline="middle" text-anchor="end" font-size="16.2">4 t/ha</text><text x="55.82" y="213" fill="#666" dominant-baseline="middle" text-anchor="end" font-size="16.2">6 t/ha</text><text x="55.82" y="105.6" fill="#666" dominant-baseline="middle" text-anchor="end" font-size="16.2">8 t/ha</text></g><g class="AxisGridLines"><line x1="60.82" y1="535.3" x2="760.85" y2="535.3" stroke="#ccc"></line><line x1="60.82" y1="427.9" x2="760.85" y2="427.9" stroke="#ddd" stroke-dasharray="3,2"></line><line x1="60.82" y1="320.5" x2="760.85" y2="320.5" stroke="#ddd" stroke-dasharray="3,2"></line><line x1="60.82" y1="213" x2="760.85" y2="213" stroke="#ddd" stroke-dasharray="3,2"></line><line x1="60.82" y1="105.6" x2="760.85" y2="105.6" stroke="#ddd" stroke-dasharray="3,2"></line></g></g><g clip-path="url(#boundsClip-2609)"><g class="HeightedLegend clickable"><g class="legendMark"><rect x="760.85" y="67.85" width="74.15" height="13.5" fill="#fff" opacity="0"></rect><text font-size="13.50" x="765.9" y="78.6" fill="#34983f"><tspan x="765.85" y="78.64999999999999">Wheat</tspan></text></g><g class="legendMark"><rect x="760.85" y="184.85" width="73.34" height="13.5" fill="#fff" opacity="0"></rect><text font-size="13.50" x="765.9" y="195.7" fill="#ca2628"><tspan x="765.85" y="195.65">Barley</tspan></text></g><g class="legendMark"><rect x="760.85" y="207.05" width="63.620000000000005" height="13.5" fill="#fff" opacity="0"></rect><text font-size="13.50" x="765.9" y="217.9" fill="#3360a9"><tspan x="765.85" y="217.85000000000002">Oats</tspan></text></g></g><g class="Lines"><rect x="61" y="75" width="700" height="461" fill="rgba(255,255,255,0)" opacity="0"></rect><g class="key-United-Kingdom_0"><path stroke="#34983f" stroke-linecap="round" d="M61 507L62 510L63 499L64 509L65 512L66 493L67 509L67 499L68 490L69 509L70 508L71 506L72 505L73 515L74 507L75 506L76 507L77 496L78 500L79 509L80 510L81 507L82 507L83 509L83 510L84 504L85 500L86 502L87 496L88 505L89 507L90 504L91 506L92 501L93 514L94 506L95 506L96 506L97 508L98 502L99 511L99 500L100 504L101 501L102 504L103 518L104 521L105 512L106 497L107 499L108 502L109 515L110 511L111 509L112 512L113 499L114 497L115 505L115 511L116 506L117 505L118 508L119 503L120 496L121 502L122 508L123 506L124 499L125 501L126 521L127 505L128 513L129 507L130 512L131 502L131 505L132 515L133 513L134 509L135 522L136 519L137 515L138 501L139 512L140 514L141 508L142 514L143 513L144 508L145 510L146 510L146 510L147 514L148 520L149 504L150 509L151 503L152 516L153 509L154 518L155 509L156 510L157 519L158 507L159 515L160 519L161 501L162 500L162 505L163 515L164 511L165 507L166 504L167 508L168 497L169 509L170 499L171 498L172 512L173 507L174 521L175 505L176 488L177 515L178 496L178 509L179 510L180 509L181 503L182 512L183 518L184 517L185 515L186 507L187 505L188 502L189 514L190 508L191 516L192 513L193 505L194 509L194 514L195 516L196 513L197 515L198 520L199 506L200 518L201 515L202 516L203 525L204 519L205 513L206 508L207 513L208 512L209 517L210 526L210 520L211 515L212 518L213 521L214 519L215 517L216 522L217 517L218 525L219 527L220 523L221 515L222 525L223 525L224 509L225 500L226 522L226 520L227 507L228 521L229 518L230 520L231 517L232 516L233 515L234 512L235 512L236 513L237 525L238 517L239 518L240 518L241 520L242 505L242 498L243 505L244 512L245 520L246 513L247 512L248 507L249 514L250 522L251 525L252 514L253 519L254 515L255 527L256 527L257 517L258 514L258 502L259 513L260 523L261 520L262 518L263 521L264 508L265 514L266 513L267 512L268 518L269 513L270 513L271 513L325 505L326 517L327 485L328 495L329 499L330 514L331 502L332 476L333 487L334 506L335 500L336 496L337 473L337 494L338 487L339 479L340 477L341 485L342 483L343 496L344 506L345 514L346 493L347 516L348 495L349 483L350 520L351 491L352 486L353 499L353 501L354 505L355 488L356 481L357 505L358 516L359 493L360 481L361 501L362 488L363 501L364 498L365 493L366 519L367 510L368 519L369 520L369 511L370 495L371 492L372 502L373 489L374 486L375 490L376 495L377 490L378 503L379 506L380 485L381 464L382 493L383 471L384 489L385 495L385 485L386 502L387 484L388 488L389 498L390 458L391 487L392 501L393 501L394 481L395 479L396 484L397 482L398 450L399 497L400 497L401 497L401 474L402 494L403 481L404 469L405 480L406 471L407 470L408 471L409 464L410 494L411 487L412 495L413 483L414 493L415 497L416 490L417 486L417 507L418 511L419 500L420 489L421 472L422 466L423 459L424 474L425 489L426 502L427 497L428 490L429 494L430 488L431 492L432 487L433 481L433 469L434 463L435 492L436 478L437 480L438 486L439 497L440 493L441 508L442 500L443 469L444 487L445 475L446 485L447 454L448 480L449 474L449 470L450 490L451 469L452 495L453 456L454 478L455 487L456 475L457 483L458 458L459 501L460 447L461 476L462 487L463 480L464 489L465 490L465 472L466 483L467 488L468 493L469 461L470 460L471 481L472 472L473 502L474 513L475 499L476 476L477 481L478 503L479 471L480 494L481 489L481 483L482 468L483 480L484 460L485 466L486 482L487 470L488 481L489 473L490 500L491 489L492 468L493 476L494 488L495 486L496 458L497 457L497 479L498 501L499 442L500 446L501 477L502 470L503 487L504 469L505 454L506 473L507 490L508 491L509 477L510 451L511 485L512 475L513 477L513 495L514 480L515 488L516 485L517 483L518 481L519 461L520 456L521 465L522 468L523 456L524 467L525 465L526 463L527 453L528 488L528 460L529 458L530 449L531 466L532 470L533 485L534 459L535 467L536 453L537 470L538 455L539 468L540 468L541 460L542 441L543 463L544 469L544 462L545 463L546 455L547 482L548 472L549 481L550 474L551 465L552 473L553 460L554 488L555 476L556 468L557 467L558 468L559 481L560 486L560 459L561 457L562 466L563 484L564 462L565 452L566 446L567 469L568 468L569 460L570 484L571 477L572 451L573 480L574 465L575 472L576 446L576 450L577 480L578 438L579 455L580 459L581 461L582 458L583 443L584 457L585 451L586 478L587 465L588 457L589 449L590 449L591 455L592 453L592 436L593 447L594 435L595 444L596 448L597 432L598 449L599 430L600 445L601 411L602 438L603 433L604 413L605 433L606 416L607 437L608 437L608 433L609 454L610 420L611 452L612 434L613 442L614 424L615 436L616 465L617 445L618 437L619 399L620 417L621 442L622 437L623 429L624 408L624 417L625 416L640 425L663 419L682 416L693 398L711 345L712 302L713 326L714 307L715 317L716 329L717 311L718 345L719 318L720 310L720 300L721 308L722 301L723 268L724 303L725 329L726 272L727 253L728 254L729 220L730 222L731 202L732 193L733 121L734 195L735 161L735 214L736 202L737 174L738 161L739 146L740 169L741 142L742 140L743 122L744 98L745 139L746 130L747 103L748 105L749 155L750 106L751 118L751 118L752 108L753 104L754 147L755 91L756 109L757 123L758 119L759 178L760 139L761 75" fill="none" stroke-width="1.5"></path></g><g class="key-United-Kingdom_1"><path stroke="#ca2628" stroke-linecap="round" d="M61 492L62 486L63 489L64 492L65 496L66 471L67 498L67 490L68 484L69 514L70 506L71 487L72 498L73 498L74 495L75 498L76 494L77 487L78 489L79 500L80 506L81 515L82 504L83 499L83 498L84 488L85 497L86 503L87 494L88 490L89 492L90 489L91 486L92 487L93 491L94 496L95 502L96 493L97 488L98 488L99 480L99 490L100 485L101 484L102 489L103 496L104 502L105 502L106 494L107 488L108 486L109 502L110 496L111 484L112 495L113 489L114 489L115 488L115 494L116 487L117 494L118 502L119 494L120 490L121 501L122 496L123 493L124 485L125 477L126 487L127 492L128 493L129 484L130 490L131 484L131 498L132 498L133 487L134 488L135 508L136 506L137 505L138 515L139 501L140 501L141 489L142 499L143 499L144 504L145 498L146 500L146 513L147 502L148 490L149 490L150 498L151 490L152 489L153 509L154 507L155 480L156 487L157 485L158 476L159 489L160 489L161 482L162 479L162 474L163 482L164 485L165 487L166 485L167 502L168 481L169 502L170 487L171 486L172 488L173 492L174 487L175 482L176 469L177 492L178 499L178 496L179 497L180 506L181 491L182 489L183 491L184 497L185 486L186 493L187 493L188 495L189 491L190 501L191 507L192 497L193 490L194 498L194 491L195 512L196 499L197 500L198 505L199 493L200 490L201 490L202 486L203 501L204 496L205 492L206 499L207 495L208 503L209 491L210 493L210 500L211 494L212 505L213 508L214 492L215 476L216 494L217 509L218 504L219 503L220 498L221 498L222 511L223 513L224 485L225 498L226 517L226 494L227 507L228 498L229 512L230 503L231 504L232 505L233 507L234 502L235 502L236 503L237 503L238 507L239 501L240 496L241 494L242 481L242 482L243 515L244 512L245 508L246 503L247 491L248 508L249 502L250 504L251 484L252 515L253 488L254 506L255 518L256 507L257 511L258 486L258 510L259 507L260 505L261 491L262 503L263 512L264 507L265 509L266 506L267 503L268 492L269 495L270 505L271 505L323 508L324 508L325 499L326 490L327 489L328 511L329 501L330 519L331 519L332 476L333 503L334 502L335 504L336 495L337 507L337 488L338 486L339 469L340 500L341 471L342 493L343 510L344 479L345 485L346 478L347 503L348 497L349 499L350 505L351 488L352 490L353 482L353 486L354 485L355 467L356 489L357 490L358 508L359 487L360 478L361 497L362 501L363 510L364 484L365 468L366 502L367 504L368 509L369 519L369 493L370 465L371 499L372 490L373 496L374 471L375 446L376 495L377 510L378 491L379 508L380 479L381 482L382 453L383 479L384 494L385 497L385 476L386 477L387 472L388 473L389 459L390 465L391 430L392 464L393 490L394 451L395 442L396 470L397 460L398 456L399 494L400 506L401 501L401 492L402 490L403 476L404 483L405 480L406 505L407 490L408 481L409 470L410 487L411 455L412 406L413 406L414 464L415 463L416 477L417 484L417 476L418 518L419 503L420 458L421 428L422 473L423 460L424 459L425 458L426 457L427 504L428 479L429 493L430 488L431 462L432 487L433 478L433 451L434 457L435 485L436 469L437 479L438 464L439 487L440 482L441 473L442 494L443 453L444 484L445 475L446 481L447 455L448 488L449 486L449 453L450 473L451 470L452 501L453 489L454 466L455 476L456 463L457 420L458 447L459 481L460 455L461 461L462 479L463 478L464 456L465 495L465 503L466 463L467 417L468 439L469 442L470 464L471 482L472 469L473 482L474 455L475 489L476 474L477 434L478 476L479 476L480 474L481 468L481 462L482 417L483 449L484 408L485 425L486 430L487 466L488 467L489 462L490 481L491 452L492 453L493 449L494 451L495 470L496 444L497 454L497 457L498 441L499 449L500 444L501 443L502 450L503 424L504 456L505 464L506 441L507 442L508 440L509 438L510 416L511 442L512 446L513 458L513 457L514 422L515 416L516 445L517 428L518 456L519 427L520 427L521 420L522 410L523 411L524 460L525 407L526 412L527 479L528 448L528 414L529 415L530 402L531 422L532 396L533 442L534 428L535 426L536 447L537 420L538 427L539 416L540 417L541 418L542 413L543 428L544 409L544 399L545 467L546 448L547 447L548 479L549 453L550 428L551 430L552 435L553 466L554 459L555 425L556 446L557 445L558 427L559 451L560 449L560 420L561 418L562 427L563 424L564 417L565 441L566 440L567 436L568 407L569 415L570 435L571 472L572 398L573 396L574 405L575 421L576 438L576 471L577 431L578 395L579 384L580 441L581 442L582 435L583 439L584 454L585 413L586 435L587 425L588 437L589 398L590 403L591 414L592 431L592 408L593 427L594 426L595 407L596 389L597 393L598 415L599 405L600 418L601 434L602 411L603 430L604 394L605 410L606 409L607 425L608 415L608 419L609 435L610 400L611 404L612 411L613 435L614 439L615 450L616 448L617 430L618 441L619 410L620 397L621 409L622 417L623 436L624 436L624 411L625 448L640 430L663 430L682 427L693 408L711 360L712 340L713 347L714 337L715 334L716 346L717 332L718 350L719 343L720 355L720 334L721 318L722 322L723 314L724 340L725 347L726 300L727 310L728 315L729 297L730 299L731 270L732 285L733 235L734 269L735 255L735 264L736 286L737 273L738 256L739 241L740 231L741 257L742 247L743 227L744 206L745 226L746 251L747 236L748 226L749 248L750 236L751 218L751 226L752 221L753 216L754 232L755 216L756 222L757 229L758 231L759 239L760 221L761 192" fill="none" stroke-width="1.5"></path></g><g class="key-United-Kingdom_2"><path stroke="#3360a9" stroke-linecap="round" d="M61 493L62 496L63 501L64 497L65 498L66 500L67 498L67 493L68 500L69 506L70 500L71 500L72 497L73 498L74 502L75 497L76 503L77 503L78 499L79 502L80 494L81 504L82 504L83 496L83 502L84 502L85 494L86 500L87 497L88 501L89 500L90 501L91 501L92 506L93 504L94 507L95 510L96 500L97 495L98 502L99 499L99 501L100 508L101 507L102 501L103 502L104 506L105 507L106 504L107 502L108 499L109 513L110 504L111 500L112 512L113 504L114 504L115 497L115 508L116 504L117 505L118 509L119 502L120 509L121 502L122 503L123 504L124 506L125 498L126 512L127 510L128 501L129 500L130 506L131 503L131 516L132 506L133 500L134 502L135 519L136 517L137 503L138 520L139 512L140 510L141 506L142 516L143 505L144 506L145 505L146 503L146 508L147 505L148 503L149 509L150 508L151 506L152 507L153 512L154 507L155 500L156 498L157 505L158 503L159 501L160 507L161 504L162 498L162 505L163 508L164 505L165 500L166 504L167 503L168 508L169 502L170 504L171 504L172 503L173 510L174 512L175 504L176 503L177 508L178 512L178 504L179 506L180 515L181 502L182 507L183 503L184 510L185 502L186 511L187 509L188 504L189 510L190 514L191 521L192 515L193 504L194 506L194 514L195 519L196 505L197 512L198 513L199 519L200 509L201 492L202 509L203 517L204 512L205 505L206 499L207 507L208 508L209 515L210 487L210 499L211 508L212 488L213 469L214 487L215 509L216 503L217 518L218 526L219 507L220 502L221 494L222 517L223 514L224 483L225 484L226 487L226 482L227 516L228 452L229 516L230 500L231 500L232 497L233 488L234 513L235 506L236 499L237 516L238 497L239 503L240 509L241 499L242 509L242 529L243 512L244 510L245 507L246 524L247 505L248 509L249 511L250 520L251 520L252 515L253 498L254 509L255 479L256 482L257 503L258 514L258 504L259 499L260 494L261 518L262 501L263 516L264 478L265 502L266 502L267 502L268 505L269 525L270 512L271 512L272 504L273 496L327 495L328 495L329 492L330 521L331 492L332 491L333 482L334 489L335 449L336 516L337 519L337 475L338 509L339 496L340 478L341 494L342 490L343 497L344 511L345 513L346 499L347 498L348 489L349 510L350 484L351 491L352 479L353 499L353 444L354 514L355 419L356 483L357 484L358 484L359 502L360 480L361 508L362 479L363 494L364 514L365 487L366 490L367 512L368 510L369 520L369 507L370 486L371 495L372 495L373 491L374 461L375 486L376 487L377 501L378 484L379 471L380 488L381 443L382 497L383 497L384 487L385 481L385 485L386 504L387 477L388 467L389 475L390 474L391 423L392 469L393 469L394 468L395 445L396 466L397 416L398 464L399 483L400 483L401 484L401 490L402 454L403 477L404 482L405 503L406 492L407 493L408 464L409 474L410 492L411 478L412 475L413 512L414 470L415 483L416 507L417 485L417 482L418 477L419 518L420 511L421 490L422 481L423 468L424 476L425 487L426 501L427 510L428 491L429 492L430 495L431 494L432 494L433 500L433 467L434 483L435 487L436 507L437 497L438 493L439 481L440 500L441 514L442 477L443 491L444 486L445 494L446 484L447 469L448 499L449 516L449 480L450 502L451 507L452 492L453 489L454 507L455 496L456 518L457 471L458 498L459 469L460 483L461 508L462 490L463 501L464 501L465 509L465 504L466 509L467 494L468 497L469 467L470 481L471 487L472 493L473 510L474 505L475 512L476 484L477 506L478 473L479 479L480 492L481 495L481 481L482 502L483 521L484 450L485 471L486 498L487 498L488 473L489 450L490 448L491 471L492 472L493 464L494 458L495 509L496 479L497 488L497 463L498 450L499 481L500 469L501 499L502 468L503 455L504 473L505 496L506 446L507 459L508 432L509 431L510 473L511 435L512 447L513 491L513 455L514 431L515 455L516 435L517 462L518 462L519 428L520 401L521 458L522 414L523 432L524 481L525 481L526 436L527 478L528 465L528 460L529 451L530 461L531 470L532 453L533 477L534 468L535 463L536 464L537 427L538 452L539 453L540 427L541 427L542 441L543 465L544 451L544 453L545 443L546 438L547 468L548 477L549 444L550 434L551 454L552 409L553 491L554 502L555 417L556 362L557 430L558 406L559 456L560 434L560 395L561 400L562 458L563 462L564 459L565 463L566 445L567 460L568 430L569 424L570 449L571 438L572 440L573 434L574 429L575 443L576 445L576 453L577 411L578 417L579 430L580 454L581 428L582 439L583 464L584 475L585 436L586 430L587 427L588 414L589 404L590 396L591 421L592 430L592 406L593 403L594 405L595 409L596 398L597 369L598 392L599 423L600 376L601 414L602 387L603 428L604 431L605 432L606 387L607 388L608 378L608 410L609 452L610 410L611 396L612 396L613 444L614 417L615 420L616 435L617 412L618 425L619 380L620 409L621 414L622 384L623 413L624 440L624 379L625 379L640 446L663 444L682 430L693 419L711 393L712 381L713 385L714 376L715 373L716 371L717 354L718 362L719 352L720 362L720 334L721 323L722 330L723 334L724 352L725 361L726 317L727 325L728 321L729 317L730 304L731 296L732 304L733 273L734 289L735 257L735 291L736 290L737 296L738 268L739 263L740 266L741 254L742 241L743 239L744 205L745 225L746 214L747 220L748 220L749 238L750 214L751 206L751 224L752 221L753 212L754 239L755 224L756 226L757 239L758 233L759 259L760 243L761 214" fill="none" stroke-width="1.5"></path></g></g></g></g><g class="SourcesFooter" style="fill:#777"><g class="clickable" style="fill:#777"><text font-size="12.60" x="15.0" y="581.6"><tspan x="15" y="581.58">Source: OWID Long-term crop yields in UK - OWID (2017)</tspan></text></g><text font-size="12.60" x="475.6" y="581.6"><tspan x="475.648" y="581.58"><a target='_blank' style='fill: #777;' href='https://ourworldindata.org/yields-and-land-use-in-agriculture/'>OurWorldInData.org/yields-and-land-use-in-agriculture/</a> • <a style="fill: #777;" class="cclogo" href="http://creativecommons.org/licenses/by/4.0/deed.en_US" target="_blank">CC BY</a></tspan></text></g></svg>