<svg xmlns="http://www.w3.org/2000/svg" version="1.1" style="font-family:Lato, &#x27;Helvetica Neue&#x27;, Helvetica, Arial, sans-serif;font-size:18px;background-color:white;text-rendering:optimizeLegibility;-webkit-font-smoothing:antialiased" width="850" height="600"><g class="HeaderView"><g transform="translate(774, 15) scale(0.29)"><svg width="210" height="120" viewBox="0 0 210 120" fill="none" xmlns="http://www.w3.org/2000/svg">
    <g clip-path="url(#clip0)">
        <path d="M0 0H210V107.89H0V0Z" fill="#002147"/>
        <path d="M40.9788 32.248C40.9788 34.6093 40.6048 36.78 39.8568 38.76C39.1088 40.7253 38.0528 42.4193 36.6888 43.842C35.3248 45.2647 33.6821 46.372 31.7608 47.164C29.8541 47.9413 27.7421 48.33 25.4248 48.33C23.1074 48.33 20.9954 47.9413 19.0888 47.164C17.1821 46.372 15.5468 45.2647 14.1828 43.842C12.8188 42.4193 11.7628 40.7253 11.0148 38.76C10.2668 36.78 9.89277 34.6093 9.89277 32.248C9.89277 29.8867 10.2668 27.7233 11.0148 25.758C11.7628 23.778 12.8188 22.0767 14.1828 20.654C15.5468 19.2167 17.1821 18.102 19.0888 17.31C20.9954 16.518 23.1074 16.122 25.4248 16.122C27.7421 16.122 29.8541 16.518 31.7608 17.31C33.6821 18.102 35.3248 19.2167 36.6888 20.654C38.0528 22.0767 39.1088 23.778 39.8568 25.758C40.6048 27.7233 40.9788 29.8867 40.9788 32.248ZM36.6008 32.248C36.6008 30.312 36.3368 28.574 35.8088 27.034C35.2808 25.494 34.5328 24.196 33.5648 23.14C32.5968 22.0693 31.4234 21.248 30.0448 20.676C28.6661 20.104 27.1261 19.818 25.4248 19.818C23.7381 19.818 22.2054 20.104 20.8268 20.676C19.4481 21.248 18.2674 22.0693 17.2848 23.14C16.3168 24.196 15.5688 25.494 15.0408 27.034C14.5128 28.574 14.2488 30.312 14.2488 32.248C14.2488 34.184 14.5128 35.922 15.0408 37.462C15.5688 38.9873 16.3168 40.2853 17.2848 41.356C18.2674 42.412 19.4481 43.226 20.8268 43.798C22.2054 44.3553 23.7381 44.634 25.4248 44.634C27.1261 44.634 28.6661 44.3553 30.0448 43.798C31.4234 43.226 32.5968 42.412 33.5648 41.356C34.5328 40.2853 35.2808 38.9873 35.8088 37.462C36.3368 35.922 36.6008 34.184 36.6008 32.248ZM62.8234 25.714V48H60.4914C59.9341 48 59.5821 47.7287 59.4354 47.186L59.1274 44.788C58.1594 45.8587 57.0741 46.724 55.8714 47.384C54.6687 48.0293 53.2901 48.352 51.7354 48.352C50.5181 48.352 49.4401 48.154 48.5014 47.758C47.5774 47.3473 46.8001 46.7753 46.1694 46.042C45.5387 45.3087 45.0621 44.4213 44.7394 43.38C44.4314 42.3387 44.2774 41.1873 44.2774 39.926V25.714H48.1934V39.926C48.1934 41.6127 48.5747 42.918 49.3374 43.842C50.1147 44.766 51.2954 45.228 52.8794 45.228C54.0381 45.228 55.1161 44.9567 56.1134 44.414C57.1254 43.8567 58.0567 43.094 58.9074 42.126V25.714H62.8234ZM71.4305 30.18C72.1346 28.6547 72.9999 27.4667 74.0266 26.616C75.0532 25.7507 76.3072 25.318 77.7886 25.318C78.2579 25.318 78.7052 25.3693 79.1306 25.472C79.5706 25.5747 79.9592 25.736 80.2966 25.956L80.0106 28.882C79.9226 29.2487 79.7026 29.432 79.3506 29.432C79.1452 29.432 78.8446 29.388 78.4486 29.3C78.0526 29.212 77.6052 29.168 77.1066 29.168C76.4026 29.168 75.7719 29.2707 75.2146 29.476C74.6719 29.6813 74.1806 29.9893 73.7406 30.4C73.3152 30.796 72.9266 31.2947 72.5746 31.896C72.2372 32.4827 71.9292 33.1573 71.6506 33.92V48H67.7125V25.714H69.9566C70.3819 25.714 70.6752 25.7947 70.8366 25.956C70.9979 26.1173 71.1079 26.396 71.1666 26.792L71.4305 30.18ZM132.589 16.474L122.755 48H118.927L110.941 23.954C110.867 23.7193 110.794 23.47 110.721 23.206C110.662 22.942 110.596 22.6633 110.523 22.37C110.449 22.6633 110.376 22.942 110.303 23.206C110.23 23.47 110.156 23.7193 110.083 23.954L102.053 48H98.2248L88.3908 16.474H91.9328C92.3142 16.474 92.6295 16.5693 92.8788 16.76C93.1428 16.9507 93.3115 17.1927 93.3848 17.486L99.8968 39.398C99.9995 39.794 100.095 40.2193 100.183 40.674C100.285 41.1287 100.381 41.6127 100.469 42.126C100.571 41.6127 100.674 41.1287 100.777 40.674C100.894 40.2047 101.019 39.7793 101.151 39.398L108.565 17.486C108.653 17.2367 108.821 17.0093 109.071 16.804C109.335 16.584 109.65 16.474 110.017 16.474H111.249C111.63 16.474 111.938 16.5693 112.173 16.76C112.407 16.9507 112.583 17.1927 112.701 17.486L120.093 39.398C120.225 39.7793 120.342 40.19 120.445 40.63C120.562 41.07 120.672 41.532 120.775 42.016C120.848 41.532 120.929 41.07 121.017 40.63C121.105 40.19 121.2 39.7793 121.303 39.398L127.837 17.486C127.91 17.222 128.072 16.9873 128.321 16.782C128.585 16.5767 128.9 16.474 129.267 16.474H132.589ZM141.94 25.362C143.568 25.362 145.034 25.6333 146.34 26.176C147.645 26.7187 148.76 27.4887 149.684 28.486C150.608 29.4833 151.312 30.6933 151.796 32.116C152.294 33.524 152.544 35.1007 152.544 36.846C152.544 38.606 152.294 40.19 151.796 41.598C151.312 43.006 150.608 44.2087 149.684 45.206C148.76 46.2033 147.645 46.9733 146.34 47.516C145.034 48.044 143.568 48.308 141.94 48.308C140.297 48.308 138.816 48.044 137.496 47.516C136.19 46.9733 135.076 46.2033 134.152 45.206C133.228 44.2087 132.516 43.006 132.018 41.598C131.534 40.19 131.292 38.606 131.292 36.846C131.292 35.1007 131.534 33.524 132.018 32.116C132.516 30.6933 133.228 29.4833 134.152 28.486C135.076 27.4887 136.19 26.7187 137.496 26.176C138.816 25.6333 140.297 25.362 141.94 25.362ZM141.94 45.25C144.14 45.25 145.782 44.5167 146.868 43.05C147.953 41.5687 148.496 39.508 148.496 36.868C148.496 34.2133 147.953 32.1453 146.868 30.664C145.782 29.1827 144.14 28.442 141.94 28.442C140.825 28.442 139.85 28.6327 139.014 29.014C138.192 29.3953 137.503 29.9453 136.946 30.664C136.403 31.3827 135.992 32.27 135.714 33.326C135.45 34.3673 135.318 35.548 135.318 36.868C135.318 39.508 135.86 41.5687 136.946 43.05C138.046 44.5167 139.71 45.25 141.94 45.25ZM159.908 30.18C160.612 28.6547 161.478 27.4667 162.504 26.616C163.531 25.7507 164.785 25.318 166.266 25.318C166.736 25.318 167.183 25.3693 167.608 25.472C168.048 25.5747 168.437 25.736 168.774 25.956L168.488 28.882C168.4 29.2487 168.18 29.432 167.828 29.432C167.623 29.432 167.322 29.388 166.926 29.3C166.53 29.212 166.083 29.168 165.584 29.168C164.88 29.168 164.25 29.2707 163.692 29.476C163.15 29.6813 162.658 29.9893 162.218 30.4C161.793 30.796 161.404 31.2947 161.052 31.896C160.715 32.4827 160.407 33.1573 160.128 33.92V48H156.19V25.714H158.434C158.86 25.714 159.153 25.7947 159.314 25.956C159.476 26.1173 159.586 26.396 159.644 26.792L159.908 30.18ZM174.946 15.594V48H171.03V15.594H174.946ZM194.496 31.016C193.763 30.0333 192.971 29.3513 192.12 28.97C191.269 28.574 190.316 28.376 189.26 28.376C187.192 28.376 185.601 29.1167 184.486 30.598C183.371 32.0793 182.814 34.1913 182.814 36.934C182.814 38.386 182.939 39.6327 183.188 40.674C183.437 41.7007 183.804 42.5513 184.288 43.226C184.772 43.886 185.366 44.37 186.07 44.678C186.774 44.986 187.573 45.14 188.468 45.14C189.759 45.14 190.881 44.8467 191.834 44.26C192.802 43.6733 193.689 42.8447 194.496 41.774V31.016ZM198.412 15.594V48H196.08C195.523 48 195.171 47.7287 195.024 47.186L194.672 44.48C193.719 45.624 192.633 46.548 191.416 47.252C190.199 47.956 188.791 48.308 187.192 48.308C185.916 48.308 184.757 48.066 183.716 47.582C182.675 47.0833 181.787 46.3573 181.054 45.404C180.321 44.4507 179.756 43.2627 179.36 41.84C178.964 40.4173 178.766 38.782 178.766 36.934C178.766 35.2913 178.986 33.766 179.426 32.358C179.866 30.9353 180.497 29.7033 181.318 28.662C182.139 27.6207 183.144 26.8067 184.332 26.22C185.535 25.6187 186.884 25.318 188.38 25.318C189.744 25.318 190.91 25.5527 191.878 26.022C192.861 26.4767 193.733 27.1147 194.496 27.936V15.594H198.412ZM46.6139 70.714V93H42.6979V70.714H46.6139ZM47.4499 63.718C47.4499 64.0993 47.3692 64.4587 47.2079 64.796C47.0612 65.1187 46.8559 65.412 46.5919 65.676C46.3425 65.9253 46.0419 66.1233 45.6899 66.27C45.3525 66.4167 44.9932 66.49 44.6119 66.49C44.2305 66.49 43.8712 66.4167 43.5339 66.27C43.2112 66.1233 42.9252 65.9253 42.6759 65.676C42.4265 65.412 42.2285 65.1187 42.0819 64.796C41.9352 64.4587 41.8619 64.0993 41.8619 63.718C41.8619 63.3367 41.9352 62.9773 42.0819 62.64C42.2285 62.288 42.4265 61.9873 42.6759 61.738C42.9252 61.474 43.2112 61.2687 43.5339 61.122C43.8712 60.9753 44.2305 60.902 44.6119 60.902C44.9932 60.902 45.3525 60.9753 45.6899 61.122C46.0419 61.2687 46.3425 61.474 46.5919 61.738C46.8559 61.9873 47.0612 62.288 47.2079 62.64C47.3692 62.9773 47.4499 63.3367 47.4499 63.718ZM55.4242 73.948C55.9082 73.4053 56.4215 72.914 56.9642 72.474C57.5068 72.034 58.0788 71.66 58.6802 71.352C59.2962 71.0293 59.9415 70.7873 60.6162 70.626C61.3055 70.45 62.0462 70.362 62.8382 70.362C64.0555 70.362 65.1262 70.5673 66.0502 70.978C66.9888 71.374 67.7662 71.946 68.3822 72.694C69.0128 73.4273 69.4895 74.3147 69.8122 75.356C70.1348 76.3973 70.2962 77.5487 70.2962 78.81V93H66.3582V78.81C66.3582 77.1233 65.9695 75.818 65.1922 74.894C64.4295 73.9553 63.2635 73.486 61.6942 73.486C60.5355 73.486 59.4502 73.7647 58.4382 74.322C57.4408 74.8793 56.5168 75.6347 55.6662 76.588V93H51.7282V70.714H54.0822C54.6395 70.714 54.9842 70.9853 55.1162 71.528L55.4242 73.948ZM113.129 77.248C113.129 79.6093 112.755 81.758 112.007 83.694C111.259 85.63 110.203 87.2873 108.839 88.666C107.475 90.0447 105.832 91.1153 103.911 91.878C102.004 92.626 99.8925 93 97.5751 93H85.8051V61.474H97.5751C99.8925 61.474 102.004 61.8553 103.911 62.618C105.832 63.366 107.475 64.4367 108.839 65.83C110.203 67.2087 111.259 68.866 112.007 70.802C112.755 72.738 113.129 74.8867 113.129 77.248ZM108.751 77.248C108.751 75.312 108.487 73.5813 107.959 72.056C107.431 70.5307 106.683 69.24 105.715 68.184C104.747 67.128 103.574 66.3213 102.195 65.764C100.816 65.2067 99.2765 64.928 97.5751 64.928H90.0731V89.546H97.5751C99.2765 89.546 100.816 89.2673 102.195 88.71C103.574 88.1527 104.747 87.3533 105.715 86.312C106.683 85.256 107.431 83.9653 107.959 82.44C108.487 80.9147 108.751 79.184 108.751 77.248ZM128.553 82.968C126.749 83.0267 125.209 83.1733 123.933 83.408C122.672 83.628 121.638 83.9213 120.831 84.288C120.039 84.6547 119.46 85.0873 119.093 85.586C118.741 86.0847 118.565 86.642 118.565 87.258C118.565 87.8447 118.661 88.3507 118.851 88.776C119.042 89.2013 119.299 89.5533 119.621 89.832C119.959 90.096 120.347 90.294 120.787 90.426C121.242 90.5433 121.726 90.602 122.239 90.602C122.929 90.602 123.559 90.536 124.131 90.404C124.703 90.2573 125.239 90.052 125.737 89.788C126.251 89.524 126.735 89.2087 127.189 88.842C127.659 88.4753 128.113 88.0573 128.553 87.588V82.968ZM115.903 73.86C117.135 72.672 118.463 71.7847 119.885 71.198C121.308 70.6113 122.885 70.318 124.615 70.318C125.862 70.318 126.969 70.5233 127.937 70.934C128.905 71.3447 129.719 71.9167 130.379 72.65C131.039 73.3833 131.538 74.2707 131.875 75.312C132.213 76.3533 132.381 77.4973 132.381 78.744V93H130.643C130.262 93 129.969 92.9413 129.763 92.824C129.558 92.692 129.397 92.4427 129.279 92.076L128.839 89.964C128.253 90.5067 127.681 90.9907 127.123 91.416C126.566 91.8267 125.979 92.1787 125.363 92.472C124.747 92.7507 124.087 92.9633 123.383 93.11C122.694 93.2713 121.924 93.352 121.073 93.352C120.208 93.352 119.394 93.2347 118.631 93C117.869 92.7507 117.201 92.384 116.629 91.9C116.072 91.416 115.625 90.8073 115.287 90.074C114.965 89.326 114.803 88.446 114.803 87.434C114.803 86.554 115.045 85.7107 115.529 84.904C116.013 84.0827 116.798 83.3567 117.883 82.726C118.969 82.0953 120.384 81.582 122.129 81.186C123.875 80.7753 126.016 80.5407 128.553 80.482V78.744C128.553 77.0133 128.179 75.708 127.431 74.828C126.683 73.9333 125.591 73.486 124.153 73.486C123.185 73.486 122.371 73.6107 121.711 73.86C121.066 74.0947 120.501 74.366 120.017 74.674C119.548 74.9673 119.137 75.2387 118.785 75.488C118.448 75.7227 118.111 75.84 117.773 75.84C117.509 75.84 117.282 75.774 117.091 75.642C116.901 75.4953 116.739 75.3193 116.607 75.114L115.903 73.86ZM143.568 93.352C141.808 93.352 140.451 92.8607 139.498 91.878C138.559 90.8953 138.09 89.48 138.09 87.632V73.992H135.406C135.171 73.992 134.973 73.926 134.812 73.794C134.65 73.6473 134.57 73.4273 134.57 73.134V71.572L138.222 71.11L139.124 64.224C139.168 64.004 139.263 63.828 139.41 63.696C139.571 63.5493 139.776 63.476 140.026 63.476H142.006V71.154H148.452V73.992H142.006V87.368C142.006 88.3067 142.233 89.0033 142.688 89.458C143.142 89.9127 143.729 90.14 144.448 90.14C144.858 90.14 145.21 90.0887 145.504 89.986C145.812 89.8687 146.076 89.744 146.296 89.612C146.516 89.48 146.699 89.3627 146.846 89.26C147.007 89.1427 147.146 89.084 147.264 89.084C147.469 89.084 147.652 89.2087 147.814 89.458L148.958 91.328C148.283 91.9587 147.469 92.4573 146.516 92.824C145.562 93.176 144.58 93.352 143.568 93.352ZM163.253 82.968C161.449 83.0267 159.909 83.1733 158.633 83.408C157.372 83.628 156.338 83.9213 155.531 84.288C154.739 84.6547 154.16 85.0873 153.793 85.586C153.441 86.0847 153.265 86.642 153.265 87.258C153.265 87.8447 153.36 88.3507 153.551 88.776C153.742 89.2013 153.998 89.5533 154.321 89.832C154.658 90.096 155.047 90.294 155.487 90.426C155.942 90.5433 156.426 90.602 156.939 90.602C157.628 90.602 158.259 90.536 158.831 90.404C159.403 90.2573 159.938 90.052 160.437 89.788C160.95 89.524 161.434 89.2087 161.889 88.842C162.358 88.4753 162.813 88.0573 163.253 87.588V82.968ZM150.603 73.86C151.835 72.672 153.162 71.7847 154.585 71.198C156.008 70.6113 157.584 70.318 159.315 70.318C160.562 70.318 161.669 70.5233 162.637 70.934C163.605 71.3447 164.419 71.9167 165.079 72.65C165.739 73.3833 166.238 74.2707 166.575 75.312C166.912 76.3533 167.081 77.4973 167.081 78.744V93H165.343C164.962 93 164.668 92.9413 164.463 92.824C164.258 92.692 164.096 92.4427 163.979 92.076L163.539 89.964C162.952 90.5067 162.38 90.9907 161.823 91.416C161.266 91.8267 160.679 92.1787 160.063 92.472C159.447 92.7507 158.787 92.9633 158.083 93.11C157.394 93.2713 156.624 93.352 155.773 93.352C154.908 93.352 154.094 93.2347 153.331 93C152.568 92.7507 151.901 92.384 151.329 91.9C150.772 91.416 150.324 90.8073 149.987 90.074C149.664 89.326 149.503 88.446 149.503 87.434C149.503 86.554 149.745 85.7107 150.229 84.904C150.713 84.0827 151.498 83.3567 152.583 82.726C153.668 82.0953 155.084 81.582 156.829 81.186C158.574 80.7753 160.716 80.5407 163.253 80.482V78.744C163.253 77.0133 162.879 75.708 162.131 74.828C161.383 73.9333 160.29 73.486 158.853 73.486C157.885 73.486 157.071 73.6107 156.411 73.86C155.766 74.0947 155.201 74.366 154.717 74.674C154.248 74.9673 153.837 75.2387 153.485 75.488C153.148 75.7227 152.81 75.84 152.473 75.84C152.209 75.84 151.982 75.774 151.791 75.642C151.6 75.4953 151.439 75.3193 151.307 75.114L150.603 73.86Z" fill="white"/>
        <rect y="106.789" width="210" height="13.211" fill="#D42B21"/>
    </g>
    <defs>
        <clipPath id="clip0">
            <rect width="210" height="120" fill="white"/>
        </clipPath>
    </defs>
</svg></g><a href="https://staging-owid.netlify.com/grapher/long-term-price-index-in-food-commodities-1850-2015" target="_blank"><text font-size="25.20" x="15.0" y="35.2" fill="#555"><tspan x="15" y="35.160000000000004">Long-term price index in food commodities, 1850-2015, World</tspan></text></a><text font-size="14.40" x="15.0" y="53.7" fill="#666"><tspan x="15" y="53.72">Commodity price index in food items dating 1850-2015, measured relative to real prices in 1900 (i.e. 1900 = 100).</tspan></text></g><g class="LineChart"><defs><clipPath id="boundsClip-2607"><rect x="37.216" y="0" width="830" height="963.8"></rect></clipPath></defs><g class="AxisBoxView"><g class="HorizontalAxis"><text x="47.2" y="556.5" fill="#666" text-anchor="middle" font-size="16.2">1850</text><text x="89.8" y="556.5" fill="#666" text-anchor="middle" font-size="16.2">1860</text><text x="175" y="556.5" fill="#666" text-anchor="middle" font-size="16.2">1880</text><text x="260.2" y="556.5" fill="#666" text-anchor="middle" font-size="16.2">1900</text><text x="345.4" y="556.5" fill="#666" text-anchor="middle" font-size="16.2">1920</text><text x="430.7" y="556.5" fill="#666" text-anchor="middle" font-size="16.2">1940</text><text x="515.9" y="556.5" fill="#666" text-anchor="middle" font-size="16.2">1960</text><text x="601.1" y="556.5" fill="#666" text-anchor="middle" font-size="16.2">1980</text><text x="686.3" y="556.5" fill="#666" text-anchor="middle" font-size="16.2">2000</text><text x="750.2" y="556.5" fill="#666" text-anchor="middle" font-size="16.2">2015</text></g><g class="VerticalAxis"><text x="42.22" y="535.3" fill="#666" dominant-baseline="middle" text-anchor="end" font-size="16.2">0</text><text x="42.22" y="441.8" fill="#666" dominant-baseline="middle" text-anchor="end" font-size="16.2">100</text><text x="42.22" y="348.3" fill="#666" dominant-baseline="middle" text-anchor="end" font-size="16.2">200</text><text x="42.22" y="254.7" fill="#666" dominant-baseline="middle" text-anchor="end" font-size="16.2">300</text><text x="42.22" y="161.2" fill="#666" dominant-baseline="middle" text-anchor="end" font-size="16.2">400</text></g><g class="AxisGridLines"><line x1="47.22" y1="535.3" x2="750.18" y2="535.3" stroke="#ccc"></line><line x1="47.22" y1="441.8" x2="750.18" y2="441.8" stroke="#ddd" stroke-dasharray="3,2"></line><line x1="47.22" y1="348.3" x2="750.18" y2="348.3" stroke="#ddd" stroke-dasharray="3,2"></line><line x1="47.22" y1="254.7" x2="750.18" y2="254.7" stroke="#ddd" stroke-dasharray="3,2"></line><line x1="47.22" y1="161.2" x2="750.18" y2="161.2" stroke="#ddd" stroke-dasharray="3,2"></line></g></g><g clip-path="url(#boundsClip-2607)"><g class="HeightedLegend"><g class="legendMark"><g class="indicator"><line x1="755.185" y1="522.4" x2="777.685" y2="522.4" stroke="#666" stroke-width="0.5"></line><line x1="777.685" y1="522.4" x2="777.685" y2="522.4" stroke="#666" stroke-width="0.5"></line><line x1="777.685" y1="522.4" x2="780.185" y2="522.4" stroke="#666" stroke-width="0.5"></line></g><rect x="750.185" y="515.65" width="62.81" height="13.5" fill="#fff" opacity="0"></rect><text font-size="13.50" x="785.2" y="526.4" fill="#3360a9"><tspan x="785.185" y="526.4499999999999">Pork</tspan></text></g><g class="legendMark"><g class="indicator"><line x1="755.185" y1="519.3" x2="776.2564285714285" y2="519.3" stroke="#666" stroke-width="0.5"></line><line x1="776.2564285714285" y1="519.3" x2="776.2564285714285" y2="506.9" stroke="#666" stroke-width="0.5"></line><line x1="776.2564285714285" y1="506.9" x2="780.185" y2="506.9" stroke="#666" stroke-width="0.5"></line></g><rect x="750.185" y="500.15" width="71.18" height="13.5" fill="#fff" opacity="0"></rect><text font-size="13.50" x="785.2" y="510.9" fill="#ca2628"><tspan x="785.185" y="510.95">Sugar</tspan></text></g><g class="legendMark"><g class="indicator"><line x1="755.185" y1="518.8" x2="774.827857142857" y2="518.8" stroke="#666" stroke-width="0.5"></line><line x1="774.827857142857" y1="518.8" x2="774.827857142857" y2="491.4" stroke="#666" stroke-width="0.5"></line><line x1="774.827857142857" y1="491.4" x2="780.185" y2="491.4" stroke="#666" stroke-width="0.5"></line></g><rect x="750.185" y="484.65" width="62" height="13.5" fill="#fff" opacity="0"></rect><text font-size="13.50" x="785.2" y="495.4" fill="#34983f"><tspan x="785.185" y="495.45">Rice</tspan></text></g><g class="legendMark"><g class="indicator"><line x1="755.185" y1="514.7" x2="773.3992857142856" y2="514.7" stroke="#666" stroke-width="0.5"></line><line x1="773.3992857142856" y1="514.7" x2="773.3992857142856" y2="475.9" stroke="#666" stroke-width="0.5"></line><line x1="773.3992857142856" y1="475.9" x2="780.185" y2="475.9" stroke="#666" stroke-width="0.5"></line></g><rect x="750.185" y="469.15" width="74.15" height="13.5" fill="#fff" opacity="0"></rect><text font-size="13.50" x="785.2" y="479.9" fill="#f6a324"><tspan x="785.185" y="479.95">Wheat</tspan></text></g><g class="legendMark"><g class="indicator"><line x1="755.185" y1="513.1" x2="771.9707142857143" y2="513.1" stroke="#666" stroke-width="0.5"></line><line x1="771.9707142857143" y1="513.1" x2="771.9707142857143" y2="460.4" stroke="#666" stroke-width="0.5"></line><line x1="771.9707142857143" y1="460.4" x2="780.185" y2="460.4" stroke="#666" stroke-width="0.5"></line></g><rect x="750.185" y="453.65" width="83.06" height="13.5" fill="#fff" opacity="0"></rect><text font-size="13.50" x="785.2" y="464.4" fill="#a652ba"><tspan x="785.185" y="464.45">Palm oil</tspan></text></g><g class="legendMark"><g class="indicator"><line x1="755.185" y1="509" x2="770.5421428571428" y2="509" stroke="#666" stroke-width="0.5"></line><line x1="770.5421428571428" y1="509" x2="770.5421428571428" y2="444.9" stroke="#666" stroke-width="0.5"></line><line x1="770.5421428571428" y1="444.9" x2="780.185" y2="444.9" stroke="#666" stroke-width="0.5"></line></g><rect x="750.185" y="438.15" width="84.815" height="13.5" fill="#fff" opacity="0"></rect><text font-size="13.50" x="785.2" y="448.9" fill="#2a939b"><tspan x="785.185" y="448.95">Peanuts</tspan></text></g><g class="legendMark"><g class="indicator"><line x1="755.185" y1="508" x2="769.1135714285714" y2="508" stroke="#666" stroke-width="0.5"></line><line x1="769.1135714285714" y1="508" x2="769.1135714285714" y2="429.4" stroke="#666" stroke-width="0.5"></line><line x1="769.1135714285714" y1="429.4" x2="780.185" y2="429.4" stroke="#666" stroke-width="0.5"></line></g><rect x="750.185" y="422.65" width="58.355000000000004" height="13.5" fill="#fff" opacity="0"></rect><text font-size="13.50" x="785.2" y="433.4" fill="#e6332e"><tspan x="785.185" y="433.45">Tea</tspan></text></g><g class="legendMark"><g class="indicator"><line x1="755.185" y1="506.3" x2="767.685" y2="506.3" stroke="#666" stroke-width="0.5"></line><line x1="767.685" y1="506.3" x2="767.685" y2="413.9" stroke="#666" stroke-width="0.5"></line><line x1="767.685" y1="413.9" x2="780.185" y2="413.9" stroke="#666" stroke-width="0.5"></line></g><rect x="750.185" y="407.15" width="74.15" height="13.5" fill="#fff" opacity="0"></rect><text font-size="13.50" x="785.2" y="417.9" fill="#9ecc8a"><tspan x="785.185" y="417.95">Cocoa</tspan></text></g><g class="legendMark"><g class="indicator"><line x1="755.185" y1="504.5" x2="766.2564285714285" y2="504.5" stroke="#666" stroke-width="0.5"></line><line x1="766.2564285714285" y1="504.5" x2="766.2564285714285" y2="398.4" stroke="#666" stroke-width="0.5"></line><line x1="766.2564285714285" y1="398.4" x2="780.185" y2="398.4" stroke="#666" stroke-width="0.5"></line></g><rect x="750.185" y="391.65" width="64.295" height="13.5" fill="#fff" opacity="0"></rect><text font-size="13.50" x="785.2" y="402.4" fill="#ffd53e"><tspan x="785.185" y="402.45">Corn</tspan></text></g><g class="legendMark"><g class="indicator"><line x1="755.185" y1="487.1" x2="764.827857142857" y2="487.1" stroke="#666" stroke-width="0.5"></line><line x1="764.827857142857" y1="487.1" x2="764.827857142857" y2="382.9" stroke="#666" stroke-width="0.5"></line><line x1="764.827857142857" y1="382.9" x2="780.185" y2="382.9" stroke="#666" stroke-width="0.5"></line></g><rect x="750.185" y="376.15" width="59.03" height="13.5" fill="#fff" opacity="0"></rect><text font-size="13.50" x="785.2" y="386.9" fill="#b077b1"><tspan x="785.185" y="386.95">Rye</tspan></text></g><g class="legendMark"><g class="indicator"><line x1="755.185" y1="480.4" x2="763.3992857142856" y2="480.4" stroke="#666" stroke-width="0.5"></line><line x1="763.3992857142856" y1="480.4" x2="763.3992857142856" y2="367.4" stroke="#666" stroke-width="0.5"></line><line x1="763.3992857142856" y1="367.4" x2="780.185" y2="367.4" stroke="#666" stroke-width="0.5"></line></g><rect x="750.185" y="360.65" width="74.96000000000001" height="13.5" fill="#fff" opacity="0"></rect><text font-size="13.50" x="785.2" y="371.4" fill="#7ec7ce"><tspan x="785.185" y="371.45">Coffee</tspan></text></g><g class="legendMark"><g class="indicator"><line x1="755.185" y1="471.2" x2="761.9707142857143" y2="471.2" stroke="#666" stroke-width="0.5"></line><line x1="761.9707142857143" y1="471.2" x2="761.9707142857143" y2="351.9" stroke="#666" stroke-width="0.5"></line><line x1="761.9707142857143" y1="351.9" x2="780.185" y2="351.9" stroke="#666" stroke-width="0.5"></line></g><rect x="750.185" y="345.15" width="73.34" height="13.5" fill="#fff" opacity="0"></rect><text font-size="13.50" x="785.2" y="355.9" fill="#e6332e"><tspan x="785.185" y="355.95">Barley</tspan></text></g><g class="legendMark"><g class="indicator"><line x1="755.185" y1="395.3" x2="760.5421428571428" y2="395.3" stroke="#666" stroke-width="0.5"></line><line x1="760.5421428571428" y1="395.3" x2="760.5421428571428" y2="336.4" stroke="#666" stroke-width="0.5"></line><line x1="760.5421428571428" y1="336.4" x2="780.185" y2="336.4" stroke="#666" stroke-width="0.5"></line></g><rect x="750.185" y="329.65" width="68.885" height="13.5" fill="#fff" opacity="0"></rect><text font-size="13.50" x="785.2" y="340.4" fill="#6bb537"><tspan x="785.185" y="340.45">Lamb</tspan></text></g><g class="legendMark"><g class="indicator"><line x1="755.185" y1="344.8" x2="759.1135714285714" y2="344.8" stroke="#666" stroke-width="0.5"></line><line x1="759.1135714285714" y1="344.8" x2="759.1135714285714" y2="320.9" stroke="#666" stroke-width="0.5"></line><line x1="759.1135714285714" y1="320.9" x2="780.185" y2="320.9" stroke="#666" stroke-width="0.5"></line></g><rect x="750.185" y="314.15" width="62.945" height="13.5" fill="#fff" opacity="0"></rect><text font-size="13.50" x="785.2" y="324.9" fill="#f07f59"><tspan x="785.185" y="324.95">Beef</tspan></text></g></g><g class="Lines"><rect x="47" y="75" width="703" height="461" fill="rgba(255,255,255,0)" opacity="0"></rect><g class="key-World_0"><path stroke="#e6332e" stroke-linecap="round" d="M47 357L52 365L56 390L60 355L64 366L69 376L73 378L77 353L81 351L86 331L90 330L94 359L98 361L103 399L107 429L111 424L115 424L120 419L124 411L128 416L132 415L137 412L141 410L145 408L150 399L154 396L158 395L162 396L167 395L171 401L175 415L179 421L184 423L188 422L192 425L196 421L201 421L205 434L209 430L213 428L218 428L222 427L226 434L230 435L235 433L239 430L243 431L248 432L252 435L256 438L260 442L265 447L269 443L273 466L277 454L282 455L286 467L290 471L294 474L299 468L303 469L307 468L311 469L316 469L320 470L324 472L328 478L333 474L337 475L341 485L345 500L350 501L354 484L358 471L363 470L367 472L371 468L375 467L380 475L384 476L388 479L392 489L397 504L401 486L405 471L409 476L414 475L418 468L422 471L426 479L431 478L435 466L439 454L443 466L448 469L452 470L456 479L461 466L465 467L469 462L473 471L478 460L482 474L486 463L490 431L495 436L499 441L503 451L507 451L512 452L516 452L520 460L524 459L529 461L533 464L537 460L541 471L546 476L550 484L554 488L559 484L563 485L567 491L571 493L576 483L580 485L584 486L588 458L593 484L597 486L601 487L605 497L610 497L614 485L618 472L622 497L627 499L631 501L635 504L639 500L644 498L648 506L652 508L657 509L661 511L665 512L669 510L674 505L678 505L682 509L686 509L691 514L695 515L699 516L703 514L708 515L712 513L716 512L720 509L725 505L729 504L733 504L737 505L742 506L746 508L750 508" fill="none" stroke-width="1.5"></path></g><g class="key-World_1"><path stroke="#ca2628" stroke-linecap="round" d="M47 338L52 326L56 352L60 328L64 352L69 329L73 296L77 246L81 288L86 306L90 298L94 333L98 364L103 403L107 410L111 433L115 434L120 419L124 414L128 400L132 394L137 379L141 384L145 391L150 392L154 395L158 386L162 359L167 381L171 387L175 382L179 376L184 382L188 385L192 425L196 423L201 440L205 441L209 432L213 408L218 432L222 430L226 427L230 434L235 437L239 447L243 444L248 454L252 448L256 444L260 442L265 461L269 476L273 474L277 454L282 447L286 470L290 470L294 458L299 458L303 456L307 447L311 461L316 481L320 462L324 444L328 425L333 438L337 460L341 457L345 375L350 489L354 490L358 456L363 475L367 501L371 502L375 494L380 501L384 508L388 516L392 516L397 521L401 515L405 511L409 504L414 502L418 502L422 508L426 506L431 509L435 504L439 494L443 497L448 498L452 491L456 486L461 478L465 488L469 488L473 480L478 477L482 493L486 501L490 503L495 503L499 501L503 486L507 503L512 508L516 507L520 510L524 509L529 459L533 483L537 517L541 520L546 519L550 520L554 511L559 508L563 504L567 486L571 475L576 366L580 428L584 478L588 498L593 502L597 498L601 438L605 483L610 511L614 511L618 521L622 525L627 520L631 519L635 511L639 506L644 508L648 517L652 517L657 516L661 512L665 511L669 514L674 515L678 520L682 525L686 522L691 522L695 525L699 525L703 525L708 521L712 515L716 522L720 519L725 512L729 508L733 503L737 509L742 514L746 515L750 519" fill="none" stroke-width="1.5"></path></g><g class="key-World_2"><path stroke="#2a939b" stroke-linecap="round" d="M132 345L137 328L141 359L145 368L150 320L154 351L158 375L162 393L167 386L171 411L175 411L179 399L184 357L188 336L192 373L196 430L201 417L205 429L209 413L213 373L218 377L222 430L226 441L230 440L235 456L239 445L243 433L248 450L252 447L256 432L260 442L265 449L269 435L273 432L277 404L282 420L286 426L290 417L294 433L299 421L303 429L307 423L311 420L316 420L320 429L324 432L328 425L333 401L337 429L341 402L345 478L350 483L354 456L358 443L363 452L367 475L371 466L375 462L380 465L384 482L388 484L392 510L397 508L401 482L405 475L409 480L414 470L418 479L422 478L426 475L431 478L435 457L439 443L443 435L448 424L452 422L456 421L461 424L465 428L469 428L473 424L478 437L482 435L486 433L490 424L495 428L499 434L503 445L507 445L512 455L516 452L520 446L524 446L529 446L533 447L537 447L541 450L546 452L550 451L554 453L559 454L563 453L567 451L571 446L576 446L580 446L584 449L588 450L593 456L597 466L601 461L605 466L610 493L614 487L618 495L622 504L627 490L631 502L635 496L639 502L644 485L648 490L652 507L657 498L661 503L665 506L669 505L674 505L678 505L682 510L686 511L691 512L695 515L699 509L703 510L708 513L712 513L716 505L720 498L725 508L729 506L733 489L737 488L742 506L746 508L750 509" fill="none" stroke-width="1.5"></path></g><g class="key-World_3"><path stroke="#a652ba" stroke-linecap="round" d="M47 426L52 431L56 428L60 399L64 372L69 390L73 394L77 388L81 400L86 381L90 377L94 389L98 413L103 451L107 474L111 470L115 460L120 456L124 455L128 449L132 450L137 447L141 444L145 445L150 445L154 442L158 434L162 426L167 427L171 438L175 446L179 446L184 438L188 418L192 431L196 446L201 463L205 469L209 469L213 458L218 451L222 454L226 460L230 458L235 454L239 457L243 461L248 460L252 456L256 449L260 442L265 448L269 444L273 445L277 447L282 448L286 439L290 436L294 450L299 445L303 430L307 431L311 437L316 432L320 424L324 419L328 382L333 349L337 391L341 396L345 451L350 483L354 476L358 476L363 471L367 465L371 470L375 474L380 472L384 471L388 483L392 493L397 498L401 496L405 481L409 460L414 460L418 455L422 471L426 468L431 467L435 447L439 438L443 469L448 470L452 472L456 477L461 429L465 414L469 445L473 454L478 417L482 466L486 474L490 473L495 471L499 462L503 463L507 469L512 468L516 471L520 471L524 475L529 474L533 470L537 462L541 474L546 479L550 494L554 494L559 479L563 481L567 491L571 464L576 421L580 467L584 475L588 461L593 458L597 459L601 475L605 482L610 496L614 493L618 476L622 496L627 516L631 510L635 504L639 511L644 517L648 514L652 512L657 513L661 505L665 501L669 507L674 507L678 501L682 513L686 520L691 522L695 517L699 515L703 514L708 517L712 515L716 504L720 498L725 508L729 500L733 493L737 499L742 504L746 506L750 513" fill="none" stroke-width="1.5"></path></g><g class="key-World_4"><path stroke="#7ec7ce" stroke-linecap="round" d="M47 405L52 423L56 430L60 427L64 420L69 426L73 414L77 415L81 415L86 406L90 397L94 386L98 326L103 306L107 437L111 442L115 452L120 457L124 465L128 462L132 453L137 434L141 404L145 374L150 360L154 371L158 363L162 350L167 377L171 396L175 400L179 425L184 438L188 437L192 432L196 449L201 435L205 354L209 375L213 344L218 335L222 347L226 357L230 335L235 331L239 343L243 361L248 446L252 463L256 465L260 442L265 463L269 471L273 474L277 451L282 445L286 450L290 469L294 470L299 452L303 438L307 400L311 392L316 430L320 458L324 464L328 454L333 469L337 475L341 440L345 480L350 498L354 478L358 473L363 444L367 428L371 440L375 439L380 411L384 414L388 463L392 482L397 463L401 470L405 458L409 476L414 472L418 464L422 485L426 486L431 488L435 464L439 459L443 464L448 465L452 465L456 447L461 428L465 431L469 408L473 339L478 342L482 347L486 333L490 267L495 340L499 337L503 350L507 381L512 418L516 421L520 425L524 434L529 438L533 415L537 419L541 430L546 440L550 444L554 447L559 427L563 445L567 438L571 422L576 427L580 437L584 332L588 221L593 333L597 341L601 380L605 419L610 418L614 428L618 422L622 425L627 391L631 454L635 441L639 464L644 480L648 485L652 498L657 496L661 453L665 455L669 472L674 440L678 468L682 485L686 494L691 507L695 508L699 507L703 501L708 488L712 489L716 487L720 483L725 481L729 462L733 437L737 469L742 487L746 466L750 480" fill="none" stroke-width="1.5"></path></g><g class="key-World_5"><path stroke="#9ecc8a" stroke-linecap="round" d="M47 461L52 462L56 476L60 448L64 447L69 449L73 448L77 455L81 451L86 464L90 468L94 470L98 419L103 410L107 426L111 412L115 448L120 463L124 468L128 472L132 462L137 473L141 468L145 474L150 470L154 470L158 460L162 453L167 446L171 434L175 445L179 453L184 454L188 447L192 454L196 454L201 449L205 453L209 453L213 457L218 460L222 464L226 466L230 458L235 465L239 466L243 472L248 468L252 445L256 454L260 442L265 448L269 449L273 450L277 449L282 450L286 450L290 436L294 465L299 474L303 480L307 477L311 475L316 470L320 477L324 458L328 475L333 496L337 497L341 487L345 505L350 516L354 510L358 515L363 515L367 511L371 506L375 494L380 501L384 508L388 513L392 520L397 521L401 520L405 518L409 519L414 513L418 509L422 519L426 520L431 519L435 512L439 511L443 512L448 512L452 513L456 509L461 465L465 461L469 494L473 475L478 473L482 475L486 473L490 438L495 472L499 490L503 486L507 466L512 478L516 492L520 500L524 502L529 496L533 500L537 510L541 501L546 496L550 490L554 482L559 497L563 506L567 502L571 480L576 466L580 485L584 457L588 399L593 421L597 436L601 466L605 485L610 496L614 489L618 485L622 490L627 494L631 497L635 506L639 513L644 514L648 516L652 518L657 518L661 515L665 515L669 515L674 513L678 513L682 520L686 524L691 522L695 514L699 515L703 517L708 518L712 518L716 515L720 509L725 506L729 504L733 506L737 513L742 512L746 507L750 506" fill="none" stroke-width="1.5"></path></g><g class="key-World_6"><path stroke="#f6a324" stroke-linecap="round" d="M47 444L52 470L56 471L60 431L64 393L69 368L73 400L77 420L81 448L86 418L90 412L94 445L98 451L103 447L107 427L111 458L115 444L120 386L124 401L128 445L132 453L137 425L141 422L145 427L150 429L154 432L158 429L162 400L167 428L171 425L175 421L179 410L184 408L188 423L192 442L196 439L201 445L205 447L209 429L213 432L218 426L222 417L226 439L230 452L235 462L239 455L243 447L248 420L252 415L256 440L260 442L265 441L269 439L273 436L277 406L282 408L286 438L290 428L294 417L299 388L303 407L307 420L311 416L316 429L320 422L324 391L328 396L333 336L337 376L341 378L345 398L350 446L354 448L358 462L363 443L367 426L371 437L375 449L380 434L384 452L388 472L392 487L397 491L401 470L405 457L409 455L414 447L418 443L422 474L426 475L431 461L435 460L439 451L443 439L448 433L452 432L456 427L461 406L465 423L469 438L473 436L478 434L482 440L486 452L490 449L495 450L499 446L503 450L507 459L512 463L516 463L520 460L524 461L529 464L533 476L537 481L541 478L546 487L550 494L554 495L559 492L563 493L567 488L571 436L576 433L580 465L584 477L588 489L593 482L597 475L601 479L605 491L610 499L614 497L618 499L622 503L627 507L631 507L635 503L639 501L644 510L648 510L652 508L657 511L661 510L665 504L669 504L674 513L678 518L682 521L686 522L691 521L695 518L699 518L703 518L708 520L712 517L716 510L720 501L725 513L729 514L733 505L737 505L742 507L746 511L750 515" fill="none" stroke-width="1.5"></path></g><g class="key-World_7"><path stroke="#b077b1" stroke-linecap="round" d="M47 358L52 343L56 326L60 347L64 398L69 424L73 360L77 369L81 329L86 364L90 354L94 323L98 371L103 443L107 485L111 471L115 463L120 481L124 485L128 465L132 439L137 437L141 440L145 436L150 418L154 427L158 436L162 445L167 450L171 429L175 421L179 395L184 439L188 444L192 450L196 441L201 447L205 447L209 438L213 464L218 428L222 402L226 443L230 449L235 447L239 459L243 466L248 455L252 452L256 442L260 442L265 434L269 444L273 440L277 414L282 428L286 433L290 414L294 411L299 412L303 416L307 402L311 433L316 441L320 408L324 405L328 375L333 330L337 385L341 408L345 425L350 465L354 479L358 484L363 451L367 468L371 465L375 463L380 463L384 459L388 495L392 501L397 504L401 462L405 454L409 491L414 446L418 463L422 494L426 487L431 490L435 479L439 479L443 449L448 441L452 421L456 384L461 380L465 445L469 459L473 453L478 446L482 437L486 462L490 467L495 475L499 471L503 477L507 482L512 483L516 490L520 484L524 488L529 482L533 484L537 488L541 486L546 487L550 492L554 494L559 497L563 502L567 500L571 470L576 458L580 469L584 469L588 484L593 489L597 492L601 487L605 485L610 498L614 502L618 509L622 507L627 515L631 514L635 503L639 510L644 511L648 511L652 510L657 509L661 508L665 506L669 500L674 500L678 512L682 515L686 512L691 511L695 507L699 511L703 509L708 510L712 510L716 499L720 491L725 500L729 500L733 483L737 485L742 483L746 485L750 487" fill="none" stroke-width="1.5"></path></g><g class="key-World_8"><path stroke="#34983f" stroke-linecap="round" d="M47 418L52 424L56 412L60 386L64 380L69 376L73 410L77 410L81 437L86 426L90 404L94 408L98 424L103 442L107 471L111 464L115 455L120 450L124 453L128 461L132 457L137 456L141 448L145 450L150 442L154 455L158 446L162 434L167 429L171 432L175 441L179 448L184 457L188 450L192 451L196 458L201 460L205 467L209 456L213 451L218 450L222 452L226 444L230 459L235 472L239 465L243 457L248 447L252 443L256 443L260 442L265 452L269 456L273 437L277 454L282 443L286 430L290 427L294 420L299 444L303 448L307 421L311 406L316 436L320 443L324 442L328 456L333 479L337 480L341 484L345 483L350 469L354 456L358 462L363 455L367 457L371 452L375 456L380 463L384 463L388 477L392 499L397 500L401 504L405 496L409 485L414 486L418 485L422 488L426 489L431 480L435 477L439 477L443 478L448 479L452 480L456 477L461 453L465 455L469 465L473 477L478 478L482 475L486 468L490 475L495 481L499 483L503 485L507 484L512 489L516 492L520 488L524 483L529 487L533 490L537 491L541 483L546 467L550 475L554 483L559 497L563 502L567 499L571 467L576 422L580 466L584 489L588 489L593 477L597 488L601 481L605 481L610 504L614 507L618 510L622 515L627 517L631 516L635 511L639 510L644 514L648 513L652 516L657 518L661 517L665 514L669 513L674 516L678 516L682 520L686 523L691 525L695 524L699 524L703 522L708 520L712 520L716 519L720 502L725 507L729 511L733 510L737 509L742 512L746 517L750 519" fill="none" stroke-width="1.5"></path></g><g class="key-World_9"><path stroke="#ffd53e" stroke-linecap="round" d="M47 443L52 443L56 436L60 433L64 425L69 408L73 445L77 435L81 432L86 419L90 435L94 476L98 477L103 439L107 393L111 455L115 465L120 415L124 414L128 433L132 422L137 453L141 471L145 473L150 416L154 417L158 450L162 447L167 458L171 462L175 460L179 435L184 400L188 426L192 427L196 444L201 455L205 450L209 435L213 459L218 447L222 403L226 431L230 445L235 433L239 440L243 472L248 472L252 457L256 452L260 442L265 414L269 392L273 428L277 419L282 418L286 430L290 420L294 383L299 385L303 409L307 408L311 389L316 406L320 392L324 386L328 380L333 279L337 324L341 350L345 392L350 470L354 462L358 440L363 424L367 418L371 451L375 437L380 422L384 427L388 438L392 468L397 491L401 474L405 439L409 418L414 415L418 393L422 458L426 464L431 446L435 438L439 432L443 414L448 408L452 405L456 385L461 347L465 367L469 423L473 409L478 396L482 402L486 416L490 417L495 431L499 428L503 446L507 449L512 452L516 458L520 460L524 461L529 454L533 455L537 453L541 451L546 459L550 470L554 469L559 464L563 468L567 473L571 436L576 402L580 430L584 442L588 463L593 464L597 462L601 461L605 468L610 486L614 473L618 477L622 489L627 501L631 507L635 496L639 496L644 498L648 500L652 503L657 504L661 503L665 499L669 488L674 502L678 509L682 513L686 514L691 514L695 512L699 511L703 510L708 515L712 513L716 504L720 493L725 502L729 501L733 483L737 478L742 484L746 501L750 505" fill="none" stroke-width="1.5"></path></g><g class="key-World_10"><path stroke="#e6332e" stroke-linecap="round" d="M47 426L52 417L56 401L60 379L64 380L69 389L73 359L77 360L81 382L86 389L90 375L94 387L98 409L103 440L107 468L111 469L115 450L120 437L124 426L128 430L132 439L137 414L141 419L145 380L150 372L154 385L158 412L162 419L167 422L171 419L175 410L179 381L184 416L188 422L192 440L196 424L201 426L205 430L209 415L213 448L218 404L222 425L226 437L230 449L235 437L239 460L243 467L248 456L252 445L256 445L260 442L265 432L269 434L273 437L277 446L282 449L286 446L290 399L294 417L299 417L303 412L307 368L311 434L316 433L320 432L324 435L328 394L333 356L337 417L341 401L345 456L350 485L354 480L358 476L363 454L367 470L371 474L375 461L380 473L384 476L388 490L392 495L397 505L401 473L405 440L409 484L414 430L418 465L422 487L426 481L431 482L435 468L439 463L443 428L448 428L452 430L456 403L461 391L465 445L469 452L473 443L478 445L482 439L486 454L490 460L495 471L499 467L503 476L507 477L512 480L516 482L520 481L524 477L529 474L533 472L537 475L541 473L546 474L550 479L554 481L559 482L563 481L567 479L571 446L576 433L580 450L584 459L588 474L593 470L597 465L601 461L605 467L610 484L614 480L618 476L622 493L627 502L631 498L635 489L639 488L644 488L648 491L652 492L657 497L661 497L665 482L669 476L674 488L678 495L682 500L686 500L691 494L695 488L699 491L703 494L708 497L712 490L716 471L720 463L725 489L729 479L733 464L737 454L742 468L746 488L750 471" fill="none" stroke-width="1.5"></path></g><g class="key-World_11"><path stroke="#3360a9" stroke-linecap="round" d="M47 484L52 464L56 449L60 457L64 472L69 457L73 455L77 442L81 460L86 453L90 441L94 473L98 492L103 484L107 457L111 438L115 450L120 470L124 447L128 428L132 435L137 471L141 481L145 477L150 453L154 430L158 437L162 457L167 479L171 478L175 465L179 442L184 423L188 441L192 449L196 467L201 467L205 455L209 442L213 461L218 468L222 461L226 449L230 422L235 445L239 455L243 472L248 467L252 463L256 460L260 442L265 427L269 410L273 429L277 446L282 443L286 427L290 435L294 438L299 407L303 390L307 427L311 414L316 406L320 407L324 427L328 400L333 351L337 360L341 378L345 433L350 468L354 456L358 472L363 463L367 436L371 437L375 453L380 455L384 450L388 455L392 480L397 497L401 493L405 484L409 436L414 432L418 431L422 452L426 467L431 476L435 452L439 443L443 463L448 473L452 472L456 479L461 484L465 489L469 481L473 486L478 494L482 499L486 486L490 486L495 496L499 499L503 488L507 482L512 497L516 491L520 488L524 489L529 497L533 498L537 485L541 485L546 492L550 492L554 482L559 483L563 494L567 477L571 452L576 470L580 452L584 467L588 474L593 468L597 483L601 491L605 487L610 469L614 483L618 487L622 489L627 485L631 489L635 506L639 512L644 501L648 506L652 517L657 515L661 518L665 517L669 509L674 515L678 523L682 523L686 520L691 520L695 524L699 522L703 519L708 520L712 521L716 522L720 522L725 524L729 520L733 518L737 519L742 519L746 516L750 522" fill="none" stroke-width="1.5"></path></g><g class="key-World_12"><path stroke="#f07f59" stroke-linecap="round" d="M47 464L52 462L56 460L60 441L64 440L69 440L73 445L77 445L81 442L86 443L90 441L94 446L98 463L103 474L107 483L111 483L115 480L120 478L124 479L128 472L132 467L137 454L141 456L145 448L150 452L154 442L158 445L162 448L167 444L171 451L175 446L179 448L184 442L188 440L192 442L196 450L201 456L205 465L209 459L213 456L218 457L222 453L226 457L230 457L235 455L239 453L243 460L248 454L252 454L256 445L260 442L265 443L269 444L273 450L277 447L282 446L286 448L290 454L294 450L299 449L303 453L307 453L311 455L316 457L320 460L324 375L328 375L333 403L337 384L341 372L345 444L350 456L354 485L358 482L363 482L367 470L371 473L375 478L380 464L384 460L388 465L392 407L397 432L401 433L405 456L409 453L414 451L418 419L422 431L426 434L431 409L435 394L439 371L443 371L448 377L452 380L456 371L461 396L465 429L469 450L473 477L478 481L482 479L486 473L490 475L495 464L499 414L503 432L507 428L512 292L516 282L520 303L524 295L529 314L533 259L537 251L541 215L546 218L550 218L554 196L559 193L563 197L567 175L571 75L576 209L580 284L584 253L588 282L593 201L597 131L601 194L605 258L610 283L614 286L618 313L622 331L627 341L631 321L635 319L639 324L644 336L648 336L652 357L657 351L661 375L665 408L669 419L674 418L678 428L682 423L686 421L691 413L695 416L699 426L703 400L708 399L712 407L716 408L720 387L725 410L729 379L733 352L737 352L742 357L746 321L750 345" fill="none" stroke-width="1.5"></path></g><g class="key-World_13"><path stroke="#6bb537" stroke-linecap="round" d="M47 462L52 459L56 460L60 442L64 450L69 454L73 452L77 453L81 453L86 451L90 446L94 452L98 465L103 478L107 489L111 483L115 484L120 486L124 488L128 479L132 476L137 467L141 462L145 456L150 463L154 449L158 446L162 448L167 445L171 450L175 449L179 446L184 442L188 438L192 449L196 458L201 448L205 463L209 454L213 444L218 449L222 458L226 458L230 455L235 450L239 443L243 451L248 447L252 452L256 449L260 442L265 451L269 450L273 448L277 447L282 446L286 447L290 450L294 451L299 459L303 454L307 458L311 454L316 452L320 450L324 436L328 441L333 449L337 442L341 438L345 470L350 480L354 504L358 487L363 475L367 467L371 490L375 487L380 476L384 480L388 485L392 443L397 456L401 440L405 438L409 380L414 359L418 347L422 370L426 398L431 396L435 399L439 407L443 406L448 406L452 413L456 413L461 434L465 467L469 475L473 504L478 501L482 503L486 493L490 500L495 492L499 455L503 461L507 463L512 418L516 374L520 405L524 413L529 389L533 375L537 415L541 416L546 411L550 399L554 400L559 400L563 411L567 373L571 337L576 352L580 361L584 361L588 357L593 322L597 328L601 314L605 344L610 379L614 412L618 418L622 427L627 411L631 415L635 406L639 417L644 406L648 427L652 416L657 408L661 408L665 426L669 402L674 401L678 428L682 436L686 439L691 431L695 419L699 401L703 381L708 391L712 408L716 409L720 400L725 409L729 381L733 348L737 367L742 382L746 363L750 395" fill="none" stroke-width="1.5"></path></g></g></g></g><g class="SourcesFooter" style="fill:#777"><g class="clickable" style="fill:#777"><text font-size="12.60" x="15.0" y="581.6"><tspan x="15" y="581.58">Source: Commodity Prices since 1850 - Jacks (2016)</tspan></text></g><text font-size="12.60" x="600.5" y="581.6"><tspan x="600.514" y="581.58"><a target='_blank' style='fill: #777;' href='https://ourworldindata.org/food-prices/'>OurWorldInData.org/food-prices/</a> • <a style="fill: #777;" class="cclogo" href="http://creativecommons.org/licenses/by/4.0/deed.en_US" target="_blank">CC BY</a></tspan></text></g></svg>