<svg xmlns="http://www.w3.org/2000/svg" version="1.1" style="font-family:Lato, &#x27;Helvetica Neue&#x27;, Helvetica, Arial, sans-serif;font-size:18px;background-color:white;text-rendering:optimizeLegibility;-webkit-font-smoothing:antialiased" width="850" height="600"><g class="HeaderView"><g transform="translate(774, 15) scale(0.29)"><svg width="210" height="120" viewBox="0 0 210 120" fill="none" xmlns="http://www.w3.org/2000/svg">
    <g clip-path="url(#clip0)">
        <path d="M0 0H210V107.89H0V0Z" fill="#002147"/>
        <path d="M40.9788 32.248C40.9788 34.6093 40.6048 36.78 39.8568 38.76C39.1088 40.7253 38.0528 42.4193 36.6888 43.842C35.3248 45.2647 33.6821 46.372 31.7608 47.164C29.8541 47.9413 27.7421 48.33 25.4248 48.33C23.1074 48.33 20.9954 47.9413 19.0888 47.164C17.1821 46.372 15.5468 45.2647 14.1828 43.842C12.8188 42.4193 11.7628 40.7253 11.0148 38.76C10.2668 36.78 9.89277 34.6093 9.89277 32.248C9.89277 29.8867 10.2668 27.7233 11.0148 25.758C11.7628 23.778 12.8188 22.0767 14.1828 20.654C15.5468 19.2167 17.1821 18.102 19.0888 17.31C20.9954 16.518 23.1074 16.122 25.4248 16.122C27.7421 16.122 29.8541 16.518 31.7608 17.31C33.6821 18.102 35.3248 19.2167 36.6888 20.654C38.0528 22.0767 39.1088 23.778 39.8568 25.758C40.6048 27.7233 40.9788 29.8867 40.9788 32.248ZM36.6008 32.248C36.6008 30.312 36.3368 28.574 35.8088 27.034C35.2808 25.494 34.5328 24.196 33.5648 23.14C32.5968 22.0693 31.4234 21.248 30.0448 20.676C28.6661 20.104 27.1261 19.818 25.4248 19.818C23.7381 19.818 22.2054 20.104 20.8268 20.676C19.4481 21.248 18.2674 22.0693 17.2848 23.14C16.3168 24.196 15.5688 25.494 15.0408 27.034C14.5128 28.574 14.2488 30.312 14.2488 32.248C14.2488 34.184 14.5128 35.922 15.0408 37.462C15.5688 38.9873 16.3168 40.2853 17.2848 41.356C18.2674 42.412 19.4481 43.226 20.8268 43.798C22.2054 44.3553 23.7381 44.634 25.4248 44.634C27.1261 44.634 28.6661 44.3553 30.0448 43.798C31.4234 43.226 32.5968 42.412 33.5648 41.356C34.5328 40.2853 35.2808 38.9873 35.8088 37.462C36.3368 35.922 36.6008 34.184 36.6008 32.248ZM62.8234 25.714V48H60.4914C59.9341 48 59.5821 47.7287 59.4354 47.186L59.1274 44.788C58.1594 45.8587 57.0741 46.724 55.8714 47.384C54.6687 48.0293 53.2901 48.352 51.7354 48.352C50.5181 48.352 49.4401 48.154 48.5014 47.758C47.5774 47.3473 46.8001 46.7753 46.1694 46.042C45.5387 45.3087 45.0621 44.4213 44.7394 43.38C44.4314 42.3387 44.2774 41.1873 44.2774 39.926V25.714H48.1934V39.926C48.1934 41.6127 48.5747 42.918 49.3374 43.842C50.1147 44.766 51.2954 45.228 52.8794 45.228C54.0381 45.228 55.1161 44.9567 56.1134 44.414C57.1254 43.8567 58.0567 43.094 58.9074 42.126V25.714H62.8234ZM71.4305 30.18C72.1346 28.6547 72.9999 27.4667 74.0266 26.616C75.0532 25.7507 76.3072 25.318 77.7886 25.318C78.2579 25.318 78.7052 25.3693 79.1306 25.472C79.5706 25.5747 79.9592 25.736 80.2966 25.956L80.0106 28.882C79.9226 29.2487 79.7026 29.432 79.3506 29.432C79.1452 29.432 78.8446 29.388 78.4486 29.3C78.0526 29.212 77.6052 29.168 77.1066 29.168C76.4026 29.168 75.7719 29.2707 75.2146 29.476C74.6719 29.6813 74.1806 29.9893 73.7406 30.4C73.3152 30.796 72.9266 31.2947 72.5746 31.896C72.2372 32.4827 71.9292 33.1573 71.6506 33.92V48H67.7125V25.714H69.9566C70.3819 25.714 70.6752 25.7947 70.8366 25.956C70.9979 26.1173 71.1079 26.396 71.1666 26.792L71.4305 30.18ZM132.589 16.474L122.755 48H118.927L110.941 23.954C110.867 23.7193 110.794 23.47 110.721 23.206C110.662 22.942 110.596 22.6633 110.523 22.37C110.449 22.6633 110.376 22.942 110.303 23.206C110.23 23.47 110.156 23.7193 110.083 23.954L102.053 48H98.2248L88.3908 16.474H91.9328C92.3142 16.474 92.6295 16.5693 92.8788 16.76C93.1428 16.9507 93.3115 17.1927 93.3848 17.486L99.8968 39.398C99.9995 39.794 100.095 40.2193 100.183 40.674C100.285 41.1287 100.381 41.6127 100.469 42.126C100.571 41.6127 100.674 41.1287 100.777 40.674C100.894 40.2047 101.019 39.7793 101.151 39.398L108.565 17.486C108.653 17.2367 108.821 17.0093 109.071 16.804C109.335 16.584 109.65 16.474 110.017 16.474H111.249C111.63 16.474 111.938 16.5693 112.173 16.76C112.407 16.9507 112.583 17.1927 112.701 17.486L120.093 39.398C120.225 39.7793 120.342 40.19 120.445 40.63C120.562 41.07 120.672 41.532 120.775 42.016C120.848 41.532 120.929 41.07 121.017 40.63C121.105 40.19 121.2 39.7793 121.303 39.398L127.837 17.486C127.91 17.222 128.072 16.9873 128.321 16.782C128.585 16.5767 128.9 16.474 129.267 16.474H132.589ZM141.94 25.362C143.568 25.362 145.034 25.6333 146.34 26.176C147.645 26.7187 148.76 27.4887 149.684 28.486C150.608 29.4833 151.312 30.6933 151.796 32.116C152.294 33.524 152.544 35.1007 152.544 36.846C152.544 38.606 152.294 40.19 151.796 41.598C151.312 43.006 150.608 44.2087 149.684 45.206C148.76 46.2033 147.645 46.9733 146.34 47.516C145.034 48.044 143.568 48.308 141.94 48.308C140.297 48.308 138.816 48.044 137.496 47.516C136.19 46.9733 135.076 46.2033 134.152 45.206C133.228 44.2087 132.516 43.006 132.018 41.598C131.534 40.19 131.292 38.606 131.292 36.846C131.292 35.1007 131.534 33.524 132.018 32.116C132.516 30.6933 133.228 29.4833 134.152 28.486C135.076 27.4887 136.19 26.7187 137.496 26.176C138.816 25.6333 140.297 25.362 141.94 25.362ZM141.94 45.25C144.14 45.25 145.782 44.5167 146.868 43.05C147.953 41.5687 148.496 39.508 148.496 36.868C148.496 34.2133 147.953 32.1453 146.868 30.664C145.782 29.1827 144.14 28.442 141.94 28.442C140.825 28.442 139.85 28.6327 139.014 29.014C138.192 29.3953 137.503 29.9453 136.946 30.664C136.403 31.3827 135.992 32.27 135.714 33.326C135.45 34.3673 135.318 35.548 135.318 36.868C135.318 39.508 135.86 41.5687 136.946 43.05C138.046 44.5167 139.71 45.25 141.94 45.25ZM159.908 30.18C160.612 28.6547 161.478 27.4667 162.504 26.616C163.531 25.7507 164.785 25.318 166.266 25.318C166.736 25.318 167.183 25.3693 167.608 25.472C168.048 25.5747 168.437 25.736 168.774 25.956L168.488 28.882C168.4 29.2487 168.18 29.432 167.828 29.432C167.623 29.432 167.322 29.388 166.926 29.3C166.53 29.212 166.083 29.168 165.584 29.168C164.88 29.168 164.25 29.2707 163.692 29.476C163.15 29.6813 162.658 29.9893 162.218 30.4C161.793 30.796 161.404 31.2947 161.052 31.896C160.715 32.4827 160.407 33.1573 160.128 33.92V48H156.19V25.714H158.434C158.86 25.714 159.153 25.7947 159.314 25.956C159.476 26.1173 159.586 26.396 159.644 26.792L159.908 30.18ZM174.946 15.594V48H171.03V15.594H174.946ZM194.496 31.016C193.763 30.0333 192.971 29.3513 192.12 28.97C191.269 28.574 190.316 28.376 189.26 28.376C187.192 28.376 185.601 29.1167 184.486 30.598C183.371 32.0793 182.814 34.1913 182.814 36.934C182.814 38.386 182.939 39.6327 183.188 40.674C183.437 41.7007 183.804 42.5513 184.288 43.226C184.772 43.886 185.366 44.37 186.07 44.678C186.774 44.986 187.573 45.14 188.468 45.14C189.759 45.14 190.881 44.8467 191.834 44.26C192.802 43.6733 193.689 42.8447 194.496 41.774V31.016ZM198.412 15.594V48H196.08C195.523 48 195.171 47.7287 195.024 47.186L194.672 44.48C193.719 45.624 192.633 46.548 191.416 47.252C190.199 47.956 188.791 48.308 187.192 48.308C185.916 48.308 184.757 48.066 183.716 47.582C182.675 47.0833 181.787 46.3573 181.054 45.404C180.321 44.4507 179.756 43.2627 179.36 41.84C178.964 40.4173 178.766 38.782 178.766 36.934C178.766 35.2913 178.986 33.766 179.426 32.358C179.866 30.9353 180.497 29.7033 181.318 28.662C182.139 27.6207 183.144 26.8067 184.332 26.22C185.535 25.6187 186.884 25.318 188.38 25.318C189.744 25.318 190.91 25.5527 191.878 26.022C192.861 26.4767 193.733 27.1147 194.496 27.936V15.594H198.412ZM46.6139 70.714V93H42.6979V70.714H46.6139ZM47.4499 63.718C47.4499 64.0993 47.3692 64.4587 47.2079 64.796C47.0612 65.1187 46.8559 65.412 46.5919 65.676C46.3425 65.9253 46.0419 66.1233 45.6899 66.27C45.3525 66.4167 44.9932 66.49 44.6119 66.49C44.2305 66.49 43.8712 66.4167 43.5339 66.27C43.2112 66.1233 42.9252 65.9253 42.6759 65.676C42.4265 65.412 42.2285 65.1187 42.0819 64.796C41.9352 64.4587 41.8619 64.0993 41.8619 63.718C41.8619 63.3367 41.9352 62.9773 42.0819 62.64C42.2285 62.288 42.4265 61.9873 42.6759 61.738C42.9252 61.474 43.2112 61.2687 43.5339 61.122C43.8712 60.9753 44.2305 60.902 44.6119 60.902C44.9932 60.902 45.3525 60.9753 45.6899 61.122C46.0419 61.2687 46.3425 61.474 46.5919 61.738C46.8559 61.9873 47.0612 62.288 47.2079 62.64C47.3692 62.9773 47.4499 63.3367 47.4499 63.718ZM55.4242 73.948C55.9082 73.4053 56.4215 72.914 56.9642 72.474C57.5068 72.034 58.0788 71.66 58.6802 71.352C59.2962 71.0293 59.9415 70.7873 60.6162 70.626C61.3055 70.45 62.0462 70.362 62.8382 70.362C64.0555 70.362 65.1262 70.5673 66.0502 70.978C66.9888 71.374 67.7662 71.946 68.3822 72.694C69.0128 73.4273 69.4895 74.3147 69.8122 75.356C70.1348 76.3973 70.2962 77.5487 70.2962 78.81V93H66.3582V78.81C66.3582 77.1233 65.9695 75.818 65.1922 74.894C64.4295 73.9553 63.2635 73.486 61.6942 73.486C60.5355 73.486 59.4502 73.7647 58.4382 74.322C57.4408 74.8793 56.5168 75.6347 55.6662 76.588V93H51.7282V70.714H54.0822C54.6395 70.714 54.9842 70.9853 55.1162 71.528L55.4242 73.948ZM113.129 77.248C113.129 79.6093 112.755 81.758 112.007 83.694C111.259 85.63 110.203 87.2873 108.839 88.666C107.475 90.0447 105.832 91.1153 103.911 91.878C102.004 92.626 99.8925 93 97.5751 93H85.8051V61.474H97.5751C99.8925 61.474 102.004 61.8553 103.911 62.618C105.832 63.366 107.475 64.4367 108.839 65.83C110.203 67.2087 111.259 68.866 112.007 70.802C112.755 72.738 113.129 74.8867 113.129 77.248ZM108.751 77.248C108.751 75.312 108.487 73.5813 107.959 72.056C107.431 70.5307 106.683 69.24 105.715 68.184C104.747 67.128 103.574 66.3213 102.195 65.764C100.816 65.2067 99.2765 64.928 97.5751 64.928H90.0731V89.546H97.5751C99.2765 89.546 100.816 89.2673 102.195 88.71C103.574 88.1527 104.747 87.3533 105.715 86.312C106.683 85.256 107.431 83.9653 107.959 82.44C108.487 80.9147 108.751 79.184 108.751 77.248ZM128.553 82.968C126.749 83.0267 125.209 83.1733 123.933 83.408C122.672 83.628 121.638 83.9213 120.831 84.288C120.039 84.6547 119.46 85.0873 119.093 85.586C118.741 86.0847 118.565 86.642 118.565 87.258C118.565 87.8447 118.661 88.3507 118.851 88.776C119.042 89.2013 119.299 89.5533 119.621 89.832C119.959 90.096 120.347 90.294 120.787 90.426C121.242 90.5433 121.726 90.602 122.239 90.602C122.929 90.602 123.559 90.536 124.131 90.404C124.703 90.2573 125.239 90.052 125.737 89.788C126.251 89.524 126.735 89.2087 127.189 88.842C127.659 88.4753 128.113 88.0573 128.553 87.588V82.968ZM115.903 73.86C117.135 72.672 118.463 71.7847 119.885 71.198C121.308 70.6113 122.885 70.318 124.615 70.318C125.862 70.318 126.969 70.5233 127.937 70.934C128.905 71.3447 129.719 71.9167 130.379 72.65C131.039 73.3833 131.538 74.2707 131.875 75.312C132.213 76.3533 132.381 77.4973 132.381 78.744V93H130.643C130.262 93 129.969 92.9413 129.763 92.824C129.558 92.692 129.397 92.4427 129.279 92.076L128.839 89.964C128.253 90.5067 127.681 90.9907 127.123 91.416C126.566 91.8267 125.979 92.1787 125.363 92.472C124.747 92.7507 124.087 92.9633 123.383 93.11C122.694 93.2713 121.924 93.352 121.073 93.352C120.208 93.352 119.394 93.2347 118.631 93C117.869 92.7507 117.201 92.384 116.629 91.9C116.072 91.416 115.625 90.8073 115.287 90.074C114.965 89.326 114.803 88.446 114.803 87.434C114.803 86.554 115.045 85.7107 115.529 84.904C116.013 84.0827 116.798 83.3567 117.883 82.726C118.969 82.0953 120.384 81.582 122.129 81.186C123.875 80.7753 126.016 80.5407 128.553 80.482V78.744C128.553 77.0133 128.179 75.708 127.431 74.828C126.683 73.9333 125.591 73.486 124.153 73.486C123.185 73.486 122.371 73.6107 121.711 73.86C121.066 74.0947 120.501 74.366 120.017 74.674C119.548 74.9673 119.137 75.2387 118.785 75.488C118.448 75.7227 118.111 75.84 117.773 75.84C117.509 75.84 117.282 75.774 117.091 75.642C116.901 75.4953 116.739 75.3193 116.607 75.114L115.903 73.86ZM143.568 93.352C141.808 93.352 140.451 92.8607 139.498 91.878C138.559 90.8953 138.09 89.48 138.09 87.632V73.992H135.406C135.171 73.992 134.973 73.926 134.812 73.794C134.65 73.6473 134.57 73.4273 134.57 73.134V71.572L138.222 71.11L139.124 64.224C139.168 64.004 139.263 63.828 139.41 63.696C139.571 63.5493 139.776 63.476 140.026 63.476H142.006V71.154H148.452V73.992H142.006V87.368C142.006 88.3067 142.233 89.0033 142.688 89.458C143.142 89.9127 143.729 90.14 144.448 90.14C144.858 90.14 145.21 90.0887 145.504 89.986C145.812 89.8687 146.076 89.744 146.296 89.612C146.516 89.48 146.699 89.3627 146.846 89.26C147.007 89.1427 147.146 89.084 147.264 89.084C147.469 89.084 147.652 89.2087 147.814 89.458L148.958 91.328C148.283 91.9587 147.469 92.4573 146.516 92.824C145.562 93.176 144.58 93.352 143.568 93.352ZM163.253 82.968C161.449 83.0267 159.909 83.1733 158.633 83.408C157.372 83.628 156.338 83.9213 155.531 84.288C154.739 84.6547 154.16 85.0873 153.793 85.586C153.441 86.0847 153.265 86.642 153.265 87.258C153.265 87.8447 153.36 88.3507 153.551 88.776C153.742 89.2013 153.998 89.5533 154.321 89.832C154.658 90.096 155.047 90.294 155.487 90.426C155.942 90.5433 156.426 90.602 156.939 90.602C157.628 90.602 158.259 90.536 158.831 90.404C159.403 90.2573 159.938 90.052 160.437 89.788C160.95 89.524 161.434 89.2087 161.889 88.842C162.358 88.4753 162.813 88.0573 163.253 87.588V82.968ZM150.603 73.86C151.835 72.672 153.162 71.7847 154.585 71.198C156.008 70.6113 157.584 70.318 159.315 70.318C160.562 70.318 161.669 70.5233 162.637 70.934C163.605 71.3447 164.419 71.9167 165.079 72.65C165.739 73.3833 166.238 74.2707 166.575 75.312C166.912 76.3533 167.081 77.4973 167.081 78.744V93H165.343C164.962 93 164.668 92.9413 164.463 92.824C164.258 92.692 164.096 92.4427 163.979 92.076L163.539 89.964C162.952 90.5067 162.38 90.9907 161.823 91.416C161.266 91.8267 160.679 92.1787 160.063 92.472C159.447 92.7507 158.787 92.9633 158.083 93.11C157.394 93.2713 156.624 93.352 155.773 93.352C154.908 93.352 154.094 93.2347 153.331 93C152.568 92.7507 151.901 92.384 151.329 91.9C150.772 91.416 150.324 90.8073 149.987 90.074C149.664 89.326 149.503 88.446 149.503 87.434C149.503 86.554 149.745 85.7107 150.229 84.904C150.713 84.0827 151.498 83.3567 152.583 82.726C153.668 82.0953 155.084 81.582 156.829 81.186C158.574 80.7753 160.716 80.5407 163.253 80.482V78.744C163.253 77.0133 162.879 75.708 162.131 74.828C161.383 73.9333 160.29 73.486 158.853 73.486C157.885 73.486 157.071 73.6107 156.411 73.86C155.766 74.0947 155.201 74.366 154.717 74.674C154.248 74.9673 153.837 75.2387 153.485 75.488C153.148 75.7227 152.81 75.84 152.473 75.84C152.209 75.84 151.982 75.774 151.791 75.642C151.6 75.4953 151.439 75.3193 151.307 75.114L150.603 73.86Z" fill="white"/>
        <rect y="106.789" width="210" height="13.211" fill="#D42B21"/>
    </g>
    <defs>
        <clipPath id="clip0">
            <rect width="210" height="120" fill="white"/>
        </clipPath>
    </defs>
</svg></g><a href="https://staging-owid.netlify.com/grapher/military-expenditure-per-capita" target="_blank"><text font-size="25.20" x="15.0" y="35.2" fill="#555"><tspan x="15" y="35.160000000000004">Military expenditure per capita</tspan></text></a><text font-size="14.40" x="15.0" y="53.7" fill="#666"><tspan x="15" y="53.72">Figure illustrates military expenditure per capita. Military expenditure (in current USD) has been divided by the total</tspan><tspan x="15" y="69.56">population of each country.</tspan></text></g><g class="LineChart"><defs><clipPath id="boundsClip-2839"><rect x="59.896" y="0" width="830" height="932.8"></rect></clipPath></defs><g class="AxisBoxView"><g class="HorizontalAxis"><text x="69.9" y="556.5" fill="#666" text-anchor="middle" font-size="16.2">1816</text><text x="179.8" y="556.5" fill="#666" text-anchor="middle" font-size="16.2">1850</text><text x="341.5" y="556.5" fill="#666" text-anchor="middle" font-size="16.2">1900</text><text x="503.1" y="556.5" fill="#666" text-anchor="middle" font-size="16.2">1950</text><text x="703.6" y="556.5" fill="#666" text-anchor="middle" font-size="16.2">2012</text></g><g class="VerticalAxis"><text x="64.90" y="535.3" fill="#666" dominant-baseline="middle" text-anchor="end" font-size="16.2">$0</text><text x="64.90" y="435.1" fill="#666" dominant-baseline="middle" text-anchor="end" font-size="16.2">$500</text><text x="64.90" y="334.9" fill="#666" dominant-baseline="middle" text-anchor="end" font-size="16.2">$1,000</text><text x="64.90" y="234.7" fill="#666" dominant-baseline="middle" text-anchor="end" font-size="16.2">$1,500</text><text x="64.90" y="134.5" fill="#666" dominant-baseline="middle" text-anchor="end" font-size="16.2">$2,000</text></g><g class="AxisGridLines"><line x1="69.90" y1="535.3" x2="703.61" y2="535.3" stroke="#ccc"></line><line x1="69.90" y1="435.1" x2="703.61" y2="435.1" stroke="#ddd" stroke-dasharray="3,2"></line><line x1="69.90" y1="334.9" x2="703.61" y2="334.9" stroke="#ddd" stroke-dasharray="3,2"></line><line x1="69.90" y1="234.7" x2="703.61" y2="234.7" stroke="#ddd" stroke-dasharray="3,2"></line><line x1="69.90" y1="134.5" x2="703.61" y2="134.5" stroke="#ddd" stroke-dasharray="3,2"></line></g></g><g clip-path="url(#boundsClip-2839)"><g class="HeightedLegend clickable"><g class="legendMark"><g class="indicator"><line x1="708.61" y1="529.9" x2="731.11" y2="529.9" stroke="#666" stroke-width="0.5"></line><line x1="731.11" y1="529.9" x2="731.11" y2="528.55" stroke="#666" stroke-width="0.5"></line><line x1="731.11" y1="528.55" x2="733.61" y2="528.55" stroke="#666" stroke-width="0.5"></line></g><rect x="703.61" y="521.8" width="64.43" height="13.5" fill="#fff" opacity="0"></rect><text font-size="13.50" x="738.6" y="532.6" fill="#3360a9"><tspan x="738.61" y="532.5999999999999">India</tspan></text></g><g class="legendMark"><g class="indicator"><line x1="708.61" y1="520.4" x2="721.11" y2="520.4" stroke="#666" stroke-width="0.5"></line><line x1="721.11" y1="520.4" x2="721.11" y2="513.05" stroke="#666" stroke-width="0.5"></line><line x1="721.11" y1="513.05" x2="733.61" y2="513.05" stroke="#666" stroke-width="0.5"></line></g><rect x="703.61" y="506.29999999999995" width="70.37" height="13.5" fill="#fff" opacity="0"></rect><text font-size="13.50" x="738.6" y="517.1" fill="#ca2628"><tspan x="738.61" y="517.0999999999999">China</tspan></text></g><g class="legendMark"><g class="indicator"><line x1="708.61" y1="491.8" x2="721.11" y2="491.8" stroke="#666" stroke-width="0.5"></line><line x1="721.11" y1="491.8" x2="721.11" y2="491.8" stroke="#666" stroke-width="0.5"></line><line x1="721.11" y1="491.8" x2="733.61" y2="491.8" stroke="#666" stroke-width="0.5"></line></g><rect x="703.61" y="485.05" width="76.445" height="13.5" fill="#fff" opacity="0"></rect><text font-size="13.50" x="738.6" y="495.9" fill="#34983f"><tspan x="738.61" y="495.85">Jordan</tspan></text></g><g class="legendMark"><g class="indicator"><line x1="708.61" y1="458.8" x2="721.11" y2="458.8" stroke="#666" stroke-width="0.5"></line><line x1="721.11" y1="458.8" x2="721.11" y2="458.8" stroke="#666" stroke-width="0.5"></line><line x1="721.11" y1="458.8" x2="733.61" y2="458.8" stroke="#666" stroke-width="0.5"></line></g><rect x="703.61" y="452.05" width="77.12" height="13.5" fill="#fff" opacity="0"></rect><text font-size="13.50" x="738.6" y="462.9" fill="#f6a324"><tspan x="738.61" y="462.85">Austria</tspan></text></g><g class="legendMark"><g class="indicator"><line x1="708.61" y1="442.3" x2="721.11" y2="442.3" stroke="#666" stroke-width="0.5"></line><line x1="721.11" y1="442.3" x2="721.11" y2="442.3" stroke="#666" stroke-width="0.5"></line><line x1="721.11" y1="442.3" x2="733.61" y2="442.3" stroke="#666" stroke-width="0.5"></line></g><rect x="703.61" y="435.55" width="71.99000000000001" height="13.5" fill="#fff" opacity="0"></rect><text font-size="13.50" x="738.6" y="446.4" fill="#a652ba"><tspan x="738.61" y="446.35">Japan</tspan></text></g><g class="legendMark"><g class="indicator"><line x1="708.61" y1="415.6" x2="721.11" y2="415.6" stroke="#666" stroke-width="0.5"></line><line x1="721.11" y1="415.6" x2="721.11" y2="415.6" stroke="#666" stroke-width="0.5"></line><line x1="721.11" y1="415.6" x2="733.61" y2="415.6" stroke="#666" stroke-width="0.5"></line></g><rect x="703.61" y="408.85" width="110.465" height="13.5" fill="#fff" opacity="0"></rect><text font-size="13.50" x="738.6" y="419.7" fill="#2a939b"><tspan x="738.61" y="419.65000000000003">South Korea</tspan></text></g><g class="legendMark"><g class="indicator"><line x1="708.61" y1="401.8" x2="721.11" y2="401.8" stroke="#666" stroke-width="0.5"></line><line x1="721.11" y1="401.8" x2="721.11" y2="401.8" stroke="#666" stroke-width="0.5"></line><line x1="721.11" y1="401.8" x2="733.61" y2="401.8" stroke="#666" stroke-width="0.5"></line></g><rect x="703.61" y="395.05" width="79.415" height="13.5" fill="#fff" opacity="0"></rect><text font-size="13.50" x="738.6" y="405.9" fill="#e6332e"><tspan x="738.61" y="405.85">Finland</tspan></text></g><g class="legendMark"><g class="indicator"><line x1="708.61" y1="377.7" x2="721.11" y2="377.7" stroke="#666" stroke-width="0.5"></line><line x1="721.11" y1="377.7" x2="721.11" y2="377.7" stroke="#666" stroke-width="0.5"></line><line x1="721.11" y1="377.7" x2="733.61" y2="377.7" stroke="#666" stroke-width="0.5"></line></g><rect x="703.61" y="370.95" width="77.12" height="13.5" fill="#fff" opacity="0"></rect><text font-size="13.50" x="738.6" y="381.8" fill="#9ecc8a"><tspan x="738.61" y="381.75">France</tspan></text></g><g class="legendMark"><g class="indicator"><line x1="708.61" y1="339.7" x2="721.11" y2="339.7" stroke="#666" stroke-width="0.5"></line><line x1="721.11" y1="339.7" x2="721.11" y2="339.7" stroke="#666" stroke-width="0.5"></line><line x1="721.11" y1="339.7" x2="733.61" y2="339.7" stroke="#666" stroke-width="0.5"></line></g><rect x="703.61" y="332.95" width="131.39" height="13.5" fill="#fff" opacity="0"></rect><text font-size="13.50" x="738.6" y="343.8" fill="#ffd53e"><tspan x="738.61" y="343.75">United Kingdom</tspan></text></g><g class="legendMark"><g class="indicator"><line x1="708.61" y1="289.5" x2="721.11" y2="289.5" stroke="#666" stroke-width="0.5"></line><line x1="721.11" y1="289.5" x2="721.11" y2="289.5" stroke="#666" stroke-width="0.5"></line><line x1="721.11" y1="289.5" x2="733.61" y2="289.5" stroke="#666" stroke-width="0.5"></line></g><rect x="703.61" y="282.75" width="87.65" height="13.5" fill="#fff" opacity="0"></rect><text font-size="13.50" x="738.6" y="293.6" fill="#b077b1"><tspan x="738.61" y="293.55">Australia</tspan></text></g><g class="legendMark"><g class="indicator"><line x1="708.61" y1="163.3" x2="721.11" y2="163.3" stroke="#666" stroke-width="0.5"></line><line x1="721.11" y1="163.3" x2="721.11" y2="163.3" stroke="#666" stroke-width="0.5"></line><line x1="721.11" y1="163.3" x2="733.61" y2="163.3" stroke="#666" stroke-width="0.5"></line></g><rect x="703.61" y="156.55" width="96.83000000000001" height="13.5" fill="#fff" opacity="0"></rect><text font-size="13.50" x="738.6" y="167.4" fill="#7ec7ce"><tspan x="738.61" y="167.35000000000002">Singapore</tspan></text></g><g class="legendMark"><g class="indicator"><line x1="708.61" y1="121.6" x2="721.11" y2="121.6" stroke="#666" stroke-width="0.5"></line><line x1="721.11" y1="121.6" x2="721.11" y2="121.6" stroke="#666" stroke-width="0.5"></line><line x1="721.11" y1="121.6" x2="733.61" y2="121.6" stroke="#666" stroke-width="0.5"></line></g><rect x="703.61" y="114.85" width="116.405" height="13.5" fill="#fff" opacity="0"></rect><text font-size="13.50" x="738.6" y="125.6" fill="#e6332e"><tspan x="738.61" y="125.64999999999999">United States</tspan></text></g><g class="legendMark"><g class="indicator"><line x1="708.61" y1="93.1" x2="721.11" y2="93.1" stroke="#666" stroke-width="0.5"></line><line x1="721.11" y1="93.1" x2="721.11" y2="93.1" stroke="#666" stroke-width="0.5"></line><line x1="721.11" y1="93.1" x2="733.61" y2="93.1" stroke="#666" stroke-width="0.5"></line></g><rect x="703.61" y="86.35" width="68.075" height="13.5" fill="#fff" opacity="0"></rect><text font-size="13.50" x="738.6" y="97.1" fill="#6bb537"><tspan x="738.61" y="97.14999999999999">Israel</tspan></text></g></g><g class="Lines"><rect x="70" y="90" width="634" height="445" fill="rgba(255,255,255,0)" opacity="0"></rect><g class="key-France_0"><path stroke="#9ecc8a" stroke-linecap="round" d="M70 535L73 535L76 535L80 535L83 535L86 535L89 535L93 535L96 535L99 535L102 535L106 535L109 535L112 535L115 535L118 535L122 535L125 535L128 535L131 535L135 535L138 535L141 535L144 535L148 535L151 535L154 535L157 535L160 535L164 535L167 535L170 535L173 535L177 535L180 535L183 535L186 535L190 535L193 535L196 534L199 534L203 535L206 535L209 534L212 535L215 535L219 535L222 534L225 534L228 534L232 534L235 534L238 534L241 535L245 534L248 534L251 535L254 535L257 535L261 535L264 535L267 535L270 535L274 535L277 534L280 534L283 534L287 534L290 534L293 534L296 534L300 534L303 534L306 534L309 534L312 534L316 534L319 534L322 534L325 534L329 534L332 534L335 534L338 534L342 534L345 534L348 534L351 534L354 534L358 534L361 534L364 534L367 534L371 534L374 534L377 534L380 534L384 534L387 528L390 514L393 507L397 499L400 488L403 531L406 533L409 534L413 533L416 533L419 534L422 534L426 534L429 533L432 533L435 534L439 533L442 533L445 533L448 533L451 532L455 531L458 531L461 531L464 531L468 530L471 507L474 520L477 517L484 529L487 529L490 529L493 526L497 531L500 529L503 528L506 525L510 521L513 519L516 519L519 522L523 519L526 519L529 519L532 519L536 518L539 517L542 516L545 516L548 515L552 514L555 513L558 512L561 512L565 512L568 512L571 511L574 506L578 499L581 497L584 486L587 485L590 479L594 464L597 451L600 437L603 447L607 452L610 456L613 462L616 475L620 448L623 429L626 426L629 434L633 412L636 404L639 414L642 406L645 379L649 371L652 373L655 393L658 396L662 407L665 420L668 424L671 414L675 382L678 362L681 362L684 359L687 340L691 320L694 362L697 371L700 367L704 378" fill="none" stroke-width="1.5"></path></g><g class="key-Austria_0"><path stroke="#f6a324" stroke-linecap="round" d="M406 535L409 535L413 535L416 535L419 535L422 535L426 535L429 535L432 535L435 535L439 535L442 535L445 535L448 535L451 535L455 535L458 535L461 534L464 534L519 535L523 534L526 533L529 533L532 533L536 533L539 533L542 533L545 533L548 532L552 532L555 532L558 532L561 531L565 531L568 531L571 531L574 530L578 528L581 526L584 523L587 522L590 520L594 516L597 512L600 510L603 517L607 513L610 511L613 514L616 512L620 503L623 497L626 498L629 498L633 495L636 492L639 493L642 492L645 495L649 482L652 483L655 491L658 491L662 494L665 496L668 500L671 497L675 487L678 481L681 480L684 472L687 448L691 459L694 468L697 471L700 454L704 459" fill="none" stroke-width="1.5"></path></g><g class="key-Australia_0"><path stroke="#b077b1" stroke-linecap="round" d="M406 535L409 535L413 534L416 535L419 535L422 535L426 534L429 534L432 535L435 535L439 535L442 535L445 535L448 535L451 535L455 535L458 534L461 534L464 534L468 533L471 530L474 520L477 507L481 485L484 487L487 495L490 508L493 525L497 529L500 531L503 531L506 528L510 526L513 526L516 527L519 527L523 527L526 527L529 527L532 527L536 527L539 527L542 527L545 527L548 525L552 523L555 520L558 518L561 517L565 517L568 516L571 517L574 516L578 509L581 503L584 500L587 496L590 498L594 495L597 493L600 486L603 480L607 482L610 464L613 477L616 476L620 476L623 469L626 459L629 462L633 450L636 448L639 453L642 453L645 453L649 442L652 440L655 442L658 452L662 452L665 457L668 466L671 441L675 413L678 393L681 383L684 370L687 345L691 330L694 358L697 324L700 311L704 290" fill="none" stroke-width="1.5"></path></g><g class="key-United-States_0"><path stroke="#e6332e" stroke-linecap="round" d="M70 535L73 535L76 535L80 535L83 535L86 535L89 535L93 535L96 535L99 535L102 535L106 535L109 535L112 535L115 535L118 535L122 535L125 535L128 535L131 535L135 535L138 535L141 535L144 535L148 535L151 535L154 535L157 535L160 535L164 535L167 535L170 535L173 535L177 535L180 535L183 535L186 535L190 535L193 535L196 535L199 535L203 535L206 535L209 535L212 535L215 533L219 531L222 530L225 526L228 534L232 535L235 534L238 535L241 535L245 535L248 535L251 535L254 535L257 535L261 535L264 535L267 535L270 535L274 535L277 535L280 535L283 535L287 535L290 535L293 535L296 535L300 535L303 535L306 535L309 535L312 535L316 535L319 535L322 535L325 535L329 535L332 535L335 535L338 535L342 535L345 535L348 535L351 535L354 535L358 535L361 535L364 535L367 535L371 535L374 535L377 535L380 535L384 535L387 535L390 535L393 535L397 534L400 522L403 514L406 532L409 533L413 534L416 534L419 534L422 534L426 534L429 534L432 534L435 534L439 534L442 534L445 534L448 534L451 534L455 534L458 534L461 534L464 534L468 534L471 533L474 526L477 497L481 430L484 409L487 406L490 471L493 515L497 520L500 517L503 516L506 492L510 474L513 473L516 483L519 486L523 486L526 483L529 483L532 483L536 485L539 483L542 479L545 480L548 482L552 482L555 466L558 459L561 455L565 455L568 459L571 463L574 461L578 461L581 455L584 451L587 452L590 444L594 437L597 426L600 409L603 387L607 366L610 350L613 334L616 329L620 314L623 309L626 305L629 296L633 303L636 327L639 310L642 304L645 310L649 323L652 326L655 329L658 331L662 323L665 317L668 309L671 295L675 258L678 226L681 202L684 188L687 171L691 133L694 107L697 90L700 98L704 122" fill="none" stroke-width="1.5"></path></g><g class="key-United-Kingdom_0"><path stroke="#ffd53e" stroke-linecap="round" d="M70 534L73 535L76 535L80 535L83 535L86 535L89 535L93 535L96 535L99 535L102 535L106 535L109 535L112 535L115 535L118 535L122 535L125 535L128 535L131 535L135 535L138 535L141 535L144 535L148 535L151 535L154 535L157 535L160 535L164 535L167 535L170 535L173 535L177 535L180 535L183 535L186 535L190 535L193 533L196 534L199 534L203 535L206 535L209 535L212 535L215 534L219 534L222 534L225 534L228 534L232 534L235 534L238 534L241 534L245 535L248 535L251 535L254 535L257 535L261 535L264 535L267 535L270 535L274 535L277 535L280 535L283 535L287 535L290 535L293 534L296 535L300 535L303 535L306 535L309 535L312 535L316 535L319 535L322 535L325 534L329 534L332 534L335 534L338 534L342 533L345 533L348 533L351 534L354 534L358 534L361 534L364 534L367 534L371 534L374 534L377 534L380 534L384 534L387 528L390 514L393 507L397 500L400 498L403 532L406 529L409 532L413 533L416 533L419 533L422 533L426 533L429 533L432 533L435 533L439 533L442 533L445 534L448 534L451 533L455 533L458 532L461 530L464 528L468 502L471 494L474 488L477 480L481 472L484 469L487 466L490 463L493 508L497 522L500 523L503 526L506 523L510 518L513 517L516 518L519 518L523 518L526 518L529 518L532 518L536 518L539 517L542 516L545 516L548 515L552 514L555 513L558 512L561 515L565 516L568 514L571 511L574 506L578 505L581 501L584 494L587 496L590 493L594 483L597 467L600 440L603 444L607 449L610 447L613 453L616 450L620 439L623 424L626 423L629 426L633 401L636 395L639 389L642 418L645 414L649 421L652 415L655 412L658 405L662 411L665 414L668 418L671 407L675 390L678 368L681 346L684 337L687 327L691 337L694 343L697 349L700 343L704 340" fill="none" stroke-width="1.5"></path></g><g class="key-Singapore_0"><path stroke="#7ec7ce" stroke-linecap="round" d="M552 535L555 535L558 534L561 533L565 526L568 525L571 523L574 521L578 518L581 515L584 511L587 508L590 503L594 498L597 491L600 483L603 474L607 472L610 457L613 450L616 438L620 453L623 447L626 431L629 433L633 422L636 397L639 378L642 369L645 350L649 306L652 306L655 287L658 283L662 297L665 320L668 328L671 313L675 312L678 302L681 287L684 261L687 239L691 219L694 219L697 216L700 174L704 163" fill="none" stroke-width="1.5"></path></g><g class="key-Japan_0"><path stroke="#a652ba" stroke-linecap="round" d="M238 535L241 535L245 535L248 535L251 535L254 535L257 535L261 535L264 535L267 535L270 535L274 535L277 535L280 535L283 535L287 535L290 535L293 535L296 535L300 535L303 535L306 535L309 535L312 535L316 535L319 535L322 535L325 535L329 535L332 535L335 535L338 535L342 535L345 535L348 535L351 535L354 534L358 534L361 535L364 535L367 535L371 535L374 535L377 535L380 535L384 535L387 535L390 535L393 535L397 535L400 534L403 534L406 534L409 534L413 534L416 534L419 535L422 535L426 535L429 535L432 535L435 535L439 535L442 535L445 535L448 535L451 535L455 534L458 535L461 533L464 531L468 531L471 530L474 527L477 523L481 516L484 489L487 524L510 535L513 534L516 534L519 535L523 535L526 534L529 534L532 534L536 534L539 534L542 534L545 534L548 534L552 534L555 533L558 533L561 533L565 533L568 532L571 531L574 530L578 530L581 528L584 527L587 527L590 526L594 522L597 518L600 519L603 516L607 517L610 516L613 514L616 512L620 501L623 494L626 489L629 486L633 489L636 483L639 473L642 468L645 461L649 455L652 463L655 470L658 474L662 471L665 464L668 473L671 473L675 467L678 464L681 466L684 470L687 471L691 463L694 455L697 450L700 441L704 442" fill="none" stroke-width="1.5"></path></g><g class="key-India_0"><path stroke="#3360a9" stroke-linecap="round" d="M493 535L497 535L500 535L503 535L506 535L510 535L513 535L516 535L519 535L523 535L526 535L529 535L532 535L536 535L539 535L542 535L545 535L548 535L552 535L555 535L558 535L561 535L565 535L568 535L571 535L574 535L578 535L581 535L584 534L587 534L590 534L594 534L597 534L600 534L603 534L607 534L610 534L613 533L616 534L620 533L623 533L626 533L629 533L633 533L636 533L639 534L642 534L645 534L649 533L652 533L655 533L658 533L662 533L665 532L668 533L671 533L675 533L678 532L681 531L684 531L687 531L691 530L694 529L697 530L700 529L704 530" fill="none" stroke-width="1.5"></path></g><g class="key-China_0"><path stroke="#ca2628" stroke-linecap="round" d="M329 535L332 535L335 535L338 535L342 535L345 535L348 535L351 535L354 535L358 535L361 535L377 535L384 535L387 535L393 535L400 535L403 535L422 535L429 535L432 535L435 535L439 535L442 535L445 535L448 535L451 535L455 535L458 535L461 535L464 535L468 535L471 535L474 535L477 535L481 535L484 535L487 535L490 535L493 535L497 535L500 535L503 534L506 534L510 534L513 534L516 535L519 535L523 534L526 533L529 533L532 533L536 533L539 533L542 533L545 532L548 532L552 532L555 531L558 531L561 531L565 530L568 530L571 530L574 530L578 530L581 529L584 529L587 529L590 529L594 528L597 529L600 530L603 529L607 529L610 529L613 531L616 534L620 534L623 534L626 534L629 534L633 534L636 532L639 531L642 531L645 531L649 530L652 529L655 529L658 529L662 529L665 529L668 528L671 525L675 524L678 522L681 531L684 530L687 528L691 526L694 525L697 524L700 522L704 520" fill="none" stroke-width="1.5"></path></g><g class="key-Jordan_0"><path stroke="#34983f" stroke-linecap="round" d="M490 534L493 534L497 534L500 533L503 533L506 532L510 531L513 531L516 531L519 531L523 531L526 530L529 530L532 528L536 529L539 529L542 529L545 529L548 529L552 529L555 528L558 526L561 524L565 524L568 527L571 526L574 525L578 524L581 523L584 523L587 513L590 514L594 513L597 504L600 504L603 499L607 504L610 505L613 506L616 508L620 499L623 498L626 501L629 514L633 508L636 517L639 513L642 517L645 518L649 519L652 519L655 518L658 518L662 517L665 512L668 506L671 504L675 499L678 499L681 498L684 494L687 478L691 463L694 490L697 491L700 493L704 492" fill="none" stroke-width="1.5"></path></g><g class="key-Israel_0"><path stroke="#6bb537" stroke-linecap="round" d="M497 525L500 525L503 529L506 530L510 533L513 533L516 533L519 532L523 530L526 528L529 526L532 525L536 523L539 524L542 525L545 523L548 516L552 512L555 506L558 499L561 495L565 488L568 475L571 435L574 446L578 344L581 362L584 344L587 334L590 325L594 381L597 296L600 268L603 240L607 125L610 225L613 256L616 335L620 276L623 300L626 278L629 268L633 270L636 333L639 265L642 257L645 281L649 199L652 141L655 147L658 223L662 245L665 229L668 212L671 224L675 209L678 236L681 209L684 192L687 200L691 119L694 163L697 156L700 132L704 93" fill="none" stroke-width="1.5"></path></g><g class="key-South-Korea_0"><path stroke="#2a939b" stroke-linecap="round" d="M500 535L503 535L506 535L510 535L513 535L516 535L519 535L523 535L526 534L529 534L532 534L536 535L539 535L542 534L545 535L548 534L552 535L555 534L558 534L561 534L565 534L568 534L571 533L574 533L578 533L581 533L584 532L587 530L590 527L594 525L597 521L600 518L603 513L607 513L610 513L613 513L616 513L620 510L623 502L626 495L629 489L633 486L636 485L639 483L642 481L645 478L649 472L652 464L655 469L658 490L662 483L665 481L668 488L671 479L675 472L678 465L681 444L684 431L687 423L691 434L694 442L697 432L700 419L704 416" fill="none" stroke-width="1.5"></path></g><g class="key-Finland_0"><path stroke="#e6332e" stroke-linecap="round" d="M403 535L406 535L409 535L413 535L416 535L419 535L422 534L426 534L429 534L432 534L435 534L439 534L442 534L445 535L448 535L451 534L455 534L458 534L461 534L464 534L468 532L471 530L474 530L477 530L481 530L484 530L487 530L490 530L493 530L497 530L500 530L503 533L506 532L510 533L513 533L516 532L519 532L523 532L526 532L529 532L532 532L536 532L539 531L542 529L545 530L548 530L552 529L555 529L558 529L561 529L565 530L568 529L571 528L574 527L578 525L581 522L584 519L587 517L590 517L594 515L597 513L600 506L603 507L607 503L610 503L613 503L616 504L620 494L623 483L626 474L629 472L633 457L636 447L639 444L642 452L645 457L649 442L652 447L655 459L658 460L662 472L665 475L668 480L671 464L675 447L678 440L681 430L684 431L687 416L691 398L694 390L697 401L700 387L704 402" fill="none" stroke-width="1.5"></path></g></g></g></g><g class="SourcesFooter" style="fill:#777"><g class="clickable" style="fill:#777"><text font-size="12.60" x="15.0" y="581.6"><tspan x="15" y="581.58">Source: Our World in Data based on COW &amp; SIPRI (2018)</tspan></text></g><text font-size="12.60" x="796.4" y="581.6"><tspan x="796.444" y="581.58"><a style="fill: #777;" class="cclogo" href="http://creativecommons.org/licenses/by/4.0/deed.en_US" target="_blank">CC BY</a></tspan></text></g></svg>