<svg xmlns="http://www.w3.org/2000/svg" version="1.1" style="font-family:Lato, &#x27;Helvetica Neue&#x27;, Helvetica, Arial, sans-serif;font-size:18px;background-color:white;text-rendering:optimizeLegibility;-webkit-font-smoothing:antialiased" width="850" height="600"><g class="HeaderView"><g transform="translate(774, 15) scale(0.29)"><svg width="210" height="120" viewBox="0 0 210 120" fill="none" xmlns="http://www.w3.org/2000/svg">
    <g clip-path="url(#clip0)">
        <path d="M0 0H210V107.89H0V0Z" fill="#002147"/>
        <path d="M40.9788 32.248C40.9788 34.6093 40.6048 36.78 39.8568 38.76C39.1088 40.7253 38.0528 42.4193 36.6888 43.842C35.3248 45.2647 33.6821 46.372 31.7608 47.164C29.8541 47.9413 27.7421 48.33 25.4248 48.33C23.1074 48.33 20.9954 47.9413 19.0888 47.164C17.1821 46.372 15.5468 45.2647 14.1828 43.842C12.8188 42.4193 11.7628 40.7253 11.0148 38.76C10.2668 36.78 9.89277 34.6093 9.89277 32.248C9.89277 29.8867 10.2668 27.7233 11.0148 25.758C11.7628 23.778 12.8188 22.0767 14.1828 20.654C15.5468 19.2167 17.1821 18.102 19.0888 17.31C20.9954 16.518 23.1074 16.122 25.4248 16.122C27.7421 16.122 29.8541 16.518 31.7608 17.31C33.6821 18.102 35.3248 19.2167 36.6888 20.654C38.0528 22.0767 39.1088 23.778 39.8568 25.758C40.6048 27.7233 40.9788 29.8867 40.9788 32.248ZM36.6008 32.248C36.6008 30.312 36.3368 28.574 35.8088 27.034C35.2808 25.494 34.5328 24.196 33.5648 23.14C32.5968 22.0693 31.4234 21.248 30.0448 20.676C28.6661 20.104 27.1261 19.818 25.4248 19.818C23.7381 19.818 22.2054 20.104 20.8268 20.676C19.4481 21.248 18.2674 22.0693 17.2848 23.14C16.3168 24.196 15.5688 25.494 15.0408 27.034C14.5128 28.574 14.2488 30.312 14.2488 32.248C14.2488 34.184 14.5128 35.922 15.0408 37.462C15.5688 38.9873 16.3168 40.2853 17.2848 41.356C18.2674 42.412 19.4481 43.226 20.8268 43.798C22.2054 44.3553 23.7381 44.634 25.4248 44.634C27.1261 44.634 28.6661 44.3553 30.0448 43.798C31.4234 43.226 32.5968 42.412 33.5648 41.356C34.5328 40.2853 35.2808 38.9873 35.8088 37.462C36.3368 35.922 36.6008 34.184 36.6008 32.248ZM62.8234 25.714V48H60.4914C59.9341 48 59.5821 47.7287 59.4354 47.186L59.1274 44.788C58.1594 45.8587 57.0741 46.724 55.8714 47.384C54.6687 48.0293 53.2901 48.352 51.7354 48.352C50.5181 48.352 49.4401 48.154 48.5014 47.758C47.5774 47.3473 46.8001 46.7753 46.1694 46.042C45.5387 45.3087 45.0621 44.4213 44.7394 43.38C44.4314 42.3387 44.2774 41.1873 44.2774 39.926V25.714H48.1934V39.926C48.1934 41.6127 48.5747 42.918 49.3374 43.842C50.1147 44.766 51.2954 45.228 52.8794 45.228C54.0381 45.228 55.1161 44.9567 56.1134 44.414C57.1254 43.8567 58.0567 43.094 58.9074 42.126V25.714H62.8234ZM71.4305 30.18C72.1346 28.6547 72.9999 27.4667 74.0266 26.616C75.0532 25.7507 76.3072 25.318 77.7886 25.318C78.2579 25.318 78.7052 25.3693 79.1306 25.472C79.5706 25.5747 79.9592 25.736 80.2966 25.956L80.0106 28.882C79.9226 29.2487 79.7026 29.432 79.3506 29.432C79.1452 29.432 78.8446 29.388 78.4486 29.3C78.0526 29.212 77.6052 29.168 77.1066 29.168C76.4026 29.168 75.7719 29.2707 75.2146 29.476C74.6719 29.6813 74.1806 29.9893 73.7406 30.4C73.3152 30.796 72.9266 31.2947 72.5746 31.896C72.2372 32.4827 71.9292 33.1573 71.6506 33.92V48H67.7125V25.714H69.9566C70.3819 25.714 70.6752 25.7947 70.8366 25.956C70.9979 26.1173 71.1079 26.396 71.1666 26.792L71.4305 30.18ZM132.589 16.474L122.755 48H118.927L110.941 23.954C110.867 23.7193 110.794 23.47 110.721 23.206C110.662 22.942 110.596 22.6633 110.523 22.37C110.449 22.6633 110.376 22.942 110.303 23.206C110.23 23.47 110.156 23.7193 110.083 23.954L102.053 48H98.2248L88.3908 16.474H91.9328C92.3142 16.474 92.6295 16.5693 92.8788 16.76C93.1428 16.9507 93.3115 17.1927 93.3848 17.486L99.8968 39.398C99.9995 39.794 100.095 40.2193 100.183 40.674C100.285 41.1287 100.381 41.6127 100.469 42.126C100.571 41.6127 100.674 41.1287 100.777 40.674C100.894 40.2047 101.019 39.7793 101.151 39.398L108.565 17.486C108.653 17.2367 108.821 17.0093 109.071 16.804C109.335 16.584 109.65 16.474 110.017 16.474H111.249C111.63 16.474 111.938 16.5693 112.173 16.76C112.407 16.9507 112.583 17.1927 112.701 17.486L120.093 39.398C120.225 39.7793 120.342 40.19 120.445 40.63C120.562 41.07 120.672 41.532 120.775 42.016C120.848 41.532 120.929 41.07 121.017 40.63C121.105 40.19 121.2 39.7793 121.303 39.398L127.837 17.486C127.91 17.222 128.072 16.9873 128.321 16.782C128.585 16.5767 128.9 16.474 129.267 16.474H132.589ZM141.94 25.362C143.568 25.362 145.034 25.6333 146.34 26.176C147.645 26.7187 148.76 27.4887 149.684 28.486C150.608 29.4833 151.312 30.6933 151.796 32.116C152.294 33.524 152.544 35.1007 152.544 36.846C152.544 38.606 152.294 40.19 151.796 41.598C151.312 43.006 150.608 44.2087 149.684 45.206C148.76 46.2033 147.645 46.9733 146.34 47.516C145.034 48.044 143.568 48.308 141.94 48.308C140.297 48.308 138.816 48.044 137.496 47.516C136.19 46.9733 135.076 46.2033 134.152 45.206C133.228 44.2087 132.516 43.006 132.018 41.598C131.534 40.19 131.292 38.606 131.292 36.846C131.292 35.1007 131.534 33.524 132.018 32.116C132.516 30.6933 133.228 29.4833 134.152 28.486C135.076 27.4887 136.19 26.7187 137.496 26.176C138.816 25.6333 140.297 25.362 141.94 25.362ZM141.94 45.25C144.14 45.25 145.782 44.5167 146.868 43.05C147.953 41.5687 148.496 39.508 148.496 36.868C148.496 34.2133 147.953 32.1453 146.868 30.664C145.782 29.1827 144.14 28.442 141.94 28.442C140.825 28.442 139.85 28.6327 139.014 29.014C138.192 29.3953 137.503 29.9453 136.946 30.664C136.403 31.3827 135.992 32.27 135.714 33.326C135.45 34.3673 135.318 35.548 135.318 36.868C135.318 39.508 135.86 41.5687 136.946 43.05C138.046 44.5167 139.71 45.25 141.94 45.25ZM159.908 30.18C160.612 28.6547 161.478 27.4667 162.504 26.616C163.531 25.7507 164.785 25.318 166.266 25.318C166.736 25.318 167.183 25.3693 167.608 25.472C168.048 25.5747 168.437 25.736 168.774 25.956L168.488 28.882C168.4 29.2487 168.18 29.432 167.828 29.432C167.623 29.432 167.322 29.388 166.926 29.3C166.53 29.212 166.083 29.168 165.584 29.168C164.88 29.168 164.25 29.2707 163.692 29.476C163.15 29.6813 162.658 29.9893 162.218 30.4C161.793 30.796 161.404 31.2947 161.052 31.896C160.715 32.4827 160.407 33.1573 160.128 33.92V48H156.19V25.714H158.434C158.86 25.714 159.153 25.7947 159.314 25.956C159.476 26.1173 159.586 26.396 159.644 26.792L159.908 30.18ZM174.946 15.594V48H171.03V15.594H174.946ZM194.496 31.016C193.763 30.0333 192.971 29.3513 192.12 28.97C191.269 28.574 190.316 28.376 189.26 28.376C187.192 28.376 185.601 29.1167 184.486 30.598C183.371 32.0793 182.814 34.1913 182.814 36.934C182.814 38.386 182.939 39.6327 183.188 40.674C183.437 41.7007 183.804 42.5513 184.288 43.226C184.772 43.886 185.366 44.37 186.07 44.678C186.774 44.986 187.573 45.14 188.468 45.14C189.759 45.14 190.881 44.8467 191.834 44.26C192.802 43.6733 193.689 42.8447 194.496 41.774V31.016ZM198.412 15.594V48H196.08C195.523 48 195.171 47.7287 195.024 47.186L194.672 44.48C193.719 45.624 192.633 46.548 191.416 47.252C190.199 47.956 188.791 48.308 187.192 48.308C185.916 48.308 184.757 48.066 183.716 47.582C182.675 47.0833 181.787 46.3573 181.054 45.404C180.321 44.4507 179.756 43.2627 179.36 41.84C178.964 40.4173 178.766 38.782 178.766 36.934C178.766 35.2913 178.986 33.766 179.426 32.358C179.866 30.9353 180.497 29.7033 181.318 28.662C182.139 27.6207 183.144 26.8067 184.332 26.22C185.535 25.6187 186.884 25.318 188.38 25.318C189.744 25.318 190.91 25.5527 191.878 26.022C192.861 26.4767 193.733 27.1147 194.496 27.936V15.594H198.412ZM46.6139 70.714V93H42.6979V70.714H46.6139ZM47.4499 63.718C47.4499 64.0993 47.3692 64.4587 47.2079 64.796C47.0612 65.1187 46.8559 65.412 46.5919 65.676C46.3425 65.9253 46.0419 66.1233 45.6899 66.27C45.3525 66.4167 44.9932 66.49 44.6119 66.49C44.2305 66.49 43.8712 66.4167 43.5339 66.27C43.2112 66.1233 42.9252 65.9253 42.6759 65.676C42.4265 65.412 42.2285 65.1187 42.0819 64.796C41.9352 64.4587 41.8619 64.0993 41.8619 63.718C41.8619 63.3367 41.9352 62.9773 42.0819 62.64C42.2285 62.288 42.4265 61.9873 42.6759 61.738C42.9252 61.474 43.2112 61.2687 43.5339 61.122C43.8712 60.9753 44.2305 60.902 44.6119 60.902C44.9932 60.902 45.3525 60.9753 45.6899 61.122C46.0419 61.2687 46.3425 61.474 46.5919 61.738C46.8559 61.9873 47.0612 62.288 47.2079 62.64C47.3692 62.9773 47.4499 63.3367 47.4499 63.718ZM55.4242 73.948C55.9082 73.4053 56.4215 72.914 56.9642 72.474C57.5068 72.034 58.0788 71.66 58.6802 71.352C59.2962 71.0293 59.9415 70.7873 60.6162 70.626C61.3055 70.45 62.0462 70.362 62.8382 70.362C64.0555 70.362 65.1262 70.5673 66.0502 70.978C66.9888 71.374 67.7662 71.946 68.3822 72.694C69.0128 73.4273 69.4895 74.3147 69.8122 75.356C70.1348 76.3973 70.2962 77.5487 70.2962 78.81V93H66.3582V78.81C66.3582 77.1233 65.9695 75.818 65.1922 74.894C64.4295 73.9553 63.2635 73.486 61.6942 73.486C60.5355 73.486 59.4502 73.7647 58.4382 74.322C57.4408 74.8793 56.5168 75.6347 55.6662 76.588V93H51.7282V70.714H54.0822C54.6395 70.714 54.9842 70.9853 55.1162 71.528L55.4242 73.948ZM113.129 77.248C113.129 79.6093 112.755 81.758 112.007 83.694C111.259 85.63 110.203 87.2873 108.839 88.666C107.475 90.0447 105.832 91.1153 103.911 91.878C102.004 92.626 99.8925 93 97.5751 93H85.8051V61.474H97.5751C99.8925 61.474 102.004 61.8553 103.911 62.618C105.832 63.366 107.475 64.4367 108.839 65.83C110.203 67.2087 111.259 68.866 112.007 70.802C112.755 72.738 113.129 74.8867 113.129 77.248ZM108.751 77.248C108.751 75.312 108.487 73.5813 107.959 72.056C107.431 70.5307 106.683 69.24 105.715 68.184C104.747 67.128 103.574 66.3213 102.195 65.764C100.816 65.2067 99.2765 64.928 97.5751 64.928H90.0731V89.546H97.5751C99.2765 89.546 100.816 89.2673 102.195 88.71C103.574 88.1527 104.747 87.3533 105.715 86.312C106.683 85.256 107.431 83.9653 107.959 82.44C108.487 80.9147 108.751 79.184 108.751 77.248ZM128.553 82.968C126.749 83.0267 125.209 83.1733 123.933 83.408C122.672 83.628 121.638 83.9213 120.831 84.288C120.039 84.6547 119.46 85.0873 119.093 85.586C118.741 86.0847 118.565 86.642 118.565 87.258C118.565 87.8447 118.661 88.3507 118.851 88.776C119.042 89.2013 119.299 89.5533 119.621 89.832C119.959 90.096 120.347 90.294 120.787 90.426C121.242 90.5433 121.726 90.602 122.239 90.602C122.929 90.602 123.559 90.536 124.131 90.404C124.703 90.2573 125.239 90.052 125.737 89.788C126.251 89.524 126.735 89.2087 127.189 88.842C127.659 88.4753 128.113 88.0573 128.553 87.588V82.968ZM115.903 73.86C117.135 72.672 118.463 71.7847 119.885 71.198C121.308 70.6113 122.885 70.318 124.615 70.318C125.862 70.318 126.969 70.5233 127.937 70.934C128.905 71.3447 129.719 71.9167 130.379 72.65C131.039 73.3833 131.538 74.2707 131.875 75.312C132.213 76.3533 132.381 77.4973 132.381 78.744V93H130.643C130.262 93 129.969 92.9413 129.763 92.824C129.558 92.692 129.397 92.4427 129.279 92.076L128.839 89.964C128.253 90.5067 127.681 90.9907 127.123 91.416C126.566 91.8267 125.979 92.1787 125.363 92.472C124.747 92.7507 124.087 92.9633 123.383 93.11C122.694 93.2713 121.924 93.352 121.073 93.352C120.208 93.352 119.394 93.2347 118.631 93C117.869 92.7507 117.201 92.384 116.629 91.9C116.072 91.416 115.625 90.8073 115.287 90.074C114.965 89.326 114.803 88.446 114.803 87.434C114.803 86.554 115.045 85.7107 115.529 84.904C116.013 84.0827 116.798 83.3567 117.883 82.726C118.969 82.0953 120.384 81.582 122.129 81.186C123.875 80.7753 126.016 80.5407 128.553 80.482V78.744C128.553 77.0133 128.179 75.708 127.431 74.828C126.683 73.9333 125.591 73.486 124.153 73.486C123.185 73.486 122.371 73.6107 121.711 73.86C121.066 74.0947 120.501 74.366 120.017 74.674C119.548 74.9673 119.137 75.2387 118.785 75.488C118.448 75.7227 118.111 75.84 117.773 75.84C117.509 75.84 117.282 75.774 117.091 75.642C116.901 75.4953 116.739 75.3193 116.607 75.114L115.903 73.86ZM143.568 93.352C141.808 93.352 140.451 92.8607 139.498 91.878C138.559 90.8953 138.09 89.48 138.09 87.632V73.992H135.406C135.171 73.992 134.973 73.926 134.812 73.794C134.65 73.6473 134.57 73.4273 134.57 73.134V71.572L138.222 71.11L139.124 64.224C139.168 64.004 139.263 63.828 139.41 63.696C139.571 63.5493 139.776 63.476 140.026 63.476H142.006V71.154H148.452V73.992H142.006V87.368C142.006 88.3067 142.233 89.0033 142.688 89.458C143.142 89.9127 143.729 90.14 144.448 90.14C144.858 90.14 145.21 90.0887 145.504 89.986C145.812 89.8687 146.076 89.744 146.296 89.612C146.516 89.48 146.699 89.3627 146.846 89.26C147.007 89.1427 147.146 89.084 147.264 89.084C147.469 89.084 147.652 89.2087 147.814 89.458L148.958 91.328C148.283 91.9587 147.469 92.4573 146.516 92.824C145.562 93.176 144.58 93.352 143.568 93.352ZM163.253 82.968C161.449 83.0267 159.909 83.1733 158.633 83.408C157.372 83.628 156.338 83.9213 155.531 84.288C154.739 84.6547 154.16 85.0873 153.793 85.586C153.441 86.0847 153.265 86.642 153.265 87.258C153.265 87.8447 153.36 88.3507 153.551 88.776C153.742 89.2013 153.998 89.5533 154.321 89.832C154.658 90.096 155.047 90.294 155.487 90.426C155.942 90.5433 156.426 90.602 156.939 90.602C157.628 90.602 158.259 90.536 158.831 90.404C159.403 90.2573 159.938 90.052 160.437 89.788C160.95 89.524 161.434 89.2087 161.889 88.842C162.358 88.4753 162.813 88.0573 163.253 87.588V82.968ZM150.603 73.86C151.835 72.672 153.162 71.7847 154.585 71.198C156.008 70.6113 157.584 70.318 159.315 70.318C160.562 70.318 161.669 70.5233 162.637 70.934C163.605 71.3447 164.419 71.9167 165.079 72.65C165.739 73.3833 166.238 74.2707 166.575 75.312C166.912 76.3533 167.081 77.4973 167.081 78.744V93H165.343C164.962 93 164.668 92.9413 164.463 92.824C164.258 92.692 164.096 92.4427 163.979 92.076L163.539 89.964C162.952 90.5067 162.38 90.9907 161.823 91.416C161.266 91.8267 160.679 92.1787 160.063 92.472C159.447 92.7507 158.787 92.9633 158.083 93.11C157.394 93.2713 156.624 93.352 155.773 93.352C154.908 93.352 154.094 93.2347 153.331 93C152.568 92.7507 151.901 92.384 151.329 91.9C150.772 91.416 150.324 90.8073 149.987 90.074C149.664 89.326 149.503 88.446 149.503 87.434C149.503 86.554 149.745 85.7107 150.229 84.904C150.713 84.0827 151.498 83.3567 152.583 82.726C153.668 82.0953 155.084 81.582 156.829 81.186C158.574 80.7753 160.716 80.5407 163.253 80.482V78.744C163.253 77.0133 162.879 75.708 162.131 74.828C161.383 73.9333 160.29 73.486 158.853 73.486C157.885 73.486 157.071 73.6107 156.411 73.86C155.766 74.0947 155.201 74.366 154.717 74.674C154.248 74.9673 153.837 75.2387 153.485 75.488C153.148 75.7227 152.81 75.84 152.473 75.84C152.209 75.84 151.982 75.774 151.791 75.642C151.6 75.4953 151.439 75.3193 151.307 75.114L150.603 73.86Z" fill="white"/>
        <rect y="106.789" width="210" height="13.211" fill="#D42B21"/>
    </g>
    <defs>
        <clipPath id="clip0">
            <rect width="210" height="120" fill="white"/>
        </clipPath>
    </defs>
</svg></g><a href="https://staging-owid.netlify.com/grapher/output-of-key-industries-in-england-and-the-uk" target="_blank"><text font-size="25.20" x="15.0" y="35.2" fill="#555"><tspan x="15" y="35.160000000000004">Output of key industries in England and Great Britain</tspan></text></a></g><g class="LineChart"><defs><clipPath id="boundsClip-3387"><rect x="59.896" y="0" width="830" height="916.4"></rect></clipPath></defs><g class="AxisBoxView"><g class="HorizontalAxis"><text x="69.9" y="528.2" fill="#666" text-anchor="middle" font-size="16.2">1270</text><text x="204.3" y="528.2" fill="#666" text-anchor="middle" font-size="16.2">1400</text><text x="307.6" y="528.2" fill="#666" text-anchor="middle" font-size="16.2">1500</text><text x="411" y="528.2" fill="#666" text-anchor="middle" font-size="16.2">1600</text><text x="514.4" y="528.2" fill="#666" text-anchor="middle" font-size="16.2">1700</text><text x="617.8" y="528.2" fill="#666" text-anchor="middle" font-size="16.2">1800</text><text x="690.1" y="528.2" fill="#666" text-anchor="middle" font-size="16.2">1870</text></g><g class="VerticalAxis"><text x="64.90" y="421.9" fill="#666" dominant-baseline="middle" text-anchor="end" font-size="16.2">1</text><text x="64.90" y="336.8" fill="#666" dominant-baseline="middle" text-anchor="end" font-size="16.2">10</text><text x="64.90" y="251.7" fill="#666" dominant-baseline="middle" text-anchor="end" font-size="16.2">100</text><text x="64.90" y="166.7" fill="#666" dominant-baseline="middle" text-anchor="end" font-size="16.2">1,000</text><text x="64.90" y="81.6" fill="#666" dominant-baseline="middle" text-anchor="end" font-size="16.2">10,000</text></g><g class="AxisGridLines"><line x1="69.90" y1="421.9" x2="690.11" y2="421.9" stroke="#ddd" stroke-dasharray="3,2"></line><line x1="69.90" y1="336.8" x2="690.11" y2="336.8" stroke="#ddd" stroke-dasharray="3,2"></line><line x1="69.90" y1="251.7" x2="690.11" y2="251.7" stroke="#ddd" stroke-dasharray="3,2"></line><line x1="69.90" y1="166.7" x2="690.11" y2="166.7" stroke="#ddd" stroke-dasharray="3,2"></line><line x1="69.90" y1="81.6" x2="690.11" y2="81.6" stroke="#ddd" stroke-dasharray="3,2"></line></g></g><g clip-path="url(#boundsClip-3387)"><g class="HeightedLegend clickable"><g class="legendMark"><g class="indicator"><line x1="695.11" y1="70" x2="707.61" y2="70" stroke="#666" stroke-width="0.5"></line><line x1="707.61" y1="70" x2="707.61" y2="70" stroke="#666" stroke-width="0.5"></line><line x1="707.61" y1="70" x2="720.11" y2="70" stroke="#666" stroke-width="0.5"></line></g><rect x="690.11" y="63.25" width="58.355000000000004" height="13.5" fill="#fff" opacity="0"></rect><text font-size="13.50" x="725.1" y="74.0" fill="#ffd53e"><tspan x="725.11" y="74.05">Iron</tspan></text></g><g class="legendMark"><g class="indicator"><line x1="695.11" y1="99.4" x2="707.61" y2="99.4" stroke="#666" stroke-width="0.5"></line><line x1="707.61" y1="99.4" x2="707.61" y2="99.4" stroke="#666" stroke-width="0.5"></line><line x1="707.61" y1="99.4" x2="720.11" y2="99.4" stroke="#666" stroke-width="0.5"></line></g><rect x="690.11" y="92.65" width="144.89" height="13.5" fill="#fff" opacity="0"></rect><text font-size="13.50" x="725.1" y="103.5" fill="#9ecc8a"><tspan x="725.11" y="103.45">Metals and Mining</tspan></text></g><g class="legendMark"><g class="indicator"><line x1="695.11" y1="117.6" x2="717.61" y2="117.6" stroke="#666" stroke-width="0.5"></line><line x1="717.61" y1="117.6" x2="717.61" y2="117.6" stroke="#666" stroke-width="0.5"></line><line x1="717.61" y1="117.6" x2="720.11" y2="117.6" stroke="#666" stroke-width="0.5"></line></g><rect x="690.11" y="110.85" width="62.81" height="13.5" fill="#fff" opacity="0"></rect><text font-size="13.50" x="725.1" y="121.6" fill="#e6332e"><tspan x="725.11" y="121.64999999999999">Coal</tspan></text></g><g class="legendMark"><g class="indicator"><line x1="695.11" y1="129.4" x2="707.61" y2="129.4" stroke="#666" stroke-width="0.5"></line><line x1="707.61" y1="129.4" x2="707.61" y2="133.1" stroke="#666" stroke-width="0.5"></line><line x1="707.61" y1="133.1" x2="720.11" y2="133.1" stroke="#666" stroke-width="0.5"></line></g><rect x="690.11" y="126.35" width="111.00500000000001" height="13.5" fill="#fff" opacity="0"></rect><text font-size="13.50" x="725.1" y="137.2" fill="#2a939b"><tspan x="725.11" y="137.15">Construction</tspan></text></g><g class="legendMark"><g class="indicator"><line x1="695.11" y1="179" x2="715.61" y2="179" stroke="#666" stroke-width="0.5"></line><line x1="715.61" y1="179" x2="715.61" y2="179" stroke="#666" stroke-width="0.5"></line><line x1="715.61" y1="179" x2="720.11" y2="179" stroke="#666" stroke-width="0.5"></line></g><rect x="690.11" y="172.25" width="53.765" height="13.5" fill="#fff" opacity="0"></rect><text font-size="13.50" x="725.1" y="183.1" fill="#a652ba"><tspan x="725.11" y="183.05">Tin</tspan></text></g><g class="legendMark"><g class="indicator"><line x1="695.11" y1="181.6" x2="711.61" y2="181.6" stroke="#666" stroke-width="0.5"></line><line x1="711.61" y1="181.6" x2="711.61" y2="194.5" stroke="#666" stroke-width="0.5"></line><line x1="711.61" y1="194.5" x2="720.11" y2="194.5" stroke="#666" stroke-width="0.5"></line></g><rect x="690.11" y="187.75" width="117.89" height="13.5" fill="#fff" opacity="0"></rect><text font-size="13.50" x="725.1" y="198.6" fill="#f6a324"><tspan x="725.11" y="198.55">Printed books</tspan></text></g><g class="legendMark"><g class="indicator"><line x1="695.11" y1="196.6" x2="707.61" y2="196.6" stroke="#666" stroke-width="0.5"></line><line x1="707.61" y1="196.6" x2="707.61" y2="210" stroke="#666" stroke-width="0.5"></line><line x1="707.61" y1="210" x2="720.11" y2="210" stroke="#666" stroke-width="0.5"></line></g><rect x="690.11" y="203.25" width="81.035" height="13.5" fill="#fff" opacity="0"></rect><text font-size="13.50" x="725.1" y="214.1" fill="#34983f"><tspan x="725.11" y="214.05">Leather</tspan></text></g><g class="legendMark"><g class="indicator"><line x1="695.11" y1="203.6" x2="703.61" y2="203.6" stroke="#666" stroke-width="0.5"></line><line x1="703.61" y1="203.6" x2="703.61" y2="225.5" stroke="#666" stroke-width="0.5"></line><line x1="703.61" y1="225.5" x2="720.11" y2="225.5" stroke="#666" stroke-width="0.5"></line></g><rect x="690.11" y="218.75" width="98.315" height="13.5" fill="#fff" opacity="0"></rect><text font-size="13.50" x="725.1" y="229.6" fill="#ca2628"><tspan x="725.11" y="229.55">Foodstuffs</tspan></text></g><g class="legendMark"><g class="indicator"><line x1="695.11" y1="223.6" x2="699.61" y2="223.6" stroke="#666" stroke-width="0.5"></line><line x1="699.61" y1="223.6" x2="699.61" y2="241" stroke="#666" stroke-width="0.5"></line><line x1="699.61" y1="241" x2="720.11" y2="241" stroke="#666" stroke-width="0.5"></line></g><rect x="690.11" y="234.25" width="116.135" height="13.5" fill="#fff" opacity="0"></rect><text font-size="13.50" x="725.1" y="245.1" fill="#3360a9"><tspan x="725.11" y="245.05">Wool/Textiles</tspan></text></g></g><g class="Lines"><rect x="70" y="70" width="620" height="437" fill="rgba(255,255,255,0)" opacity="0"></rect><g class="key-England_0"><path stroke="#2a939b" stroke-linecap="round" d="M70 320L71 320L72 320L73 320L74 320L75 320L76 320L77 319L78 319L79 319L80 318L81 318L82 317L83 317L84 317L85 317L86 317L88 316L89 316L90 316L91 316L92 316L93 316L94 316L95 316L96 316L97 316L98 316L99 316L100 316L101 317L102 317L103 317L104 317L105 317L106 317L107 317L108 317L109 317L110 317L111 316L112 316L113 316L114 316L115 316L116 316L117 316L119 317L120 317L121 318L122 317L123 318L124 318L125 318L126 319L127 319L128 319L129 319L130 318L131 318L132 319L133 319L134 318L135 318L136 318L137 318L138 317L139 317L140 317L141 317L142 317L143 317L144 317L145 316L146 316L147 316L149 316L150 315L151 315L152 322L153 330L154 337L155 337L156 337L157 337L158 337L159 337L160 337L161 337L162 337L163 337L164 337L165 337L166 337L167 337L168 337L169 337L170 337L171 337L172 337L173 337L174 337L175 337L176 337L177 337L178 337L180 337L181 337L182 338L183 338L184 339L185 339L186 339L187 339L188 339L189 340L190 340L191 340L192 340L193 340L194 340L195 341L196 341L197 341L198 341L199 341L200 341L201 342L202 342L203 342L204 344L205 344L206 344L207 344L208 344L209 344L211 344L212 344L213 344L214 343L215 344L216 344L217 344L218 344L219 344L220 344L221 344L222 344L223 344L224 344L225 343L226 343L227 343L228 343L229 343L230 343L231 343L232 343L233 343L234 343L235 342L236 342L237 342L238 342L239 342L241 342L242 342L243 342L244 342L245 342L246 343L247 343L248 343L249 343L250 343L251 343L252 343L253 343L254 343L255 343L256 343L257 343L258 343L259 342L260 342L261 342L262 342L263 342L264 341L265 341L266 341L267 340L268 340L269 340L270 340L272 340L273 339L274 339L275 339L276 339L277 337L278 337L279 337L280 337L281 337L282 337L283 336L284 336L285 336L286 336L287 334L288 334L289 334L290 334L291 334L292 334L293 333L294 333L295 333L296 333L297 333L298 333L299 332L300 332L301 332L303 332L304 332L305 331L306 331L307 331L308 332L309 332L310 332L311 332L312 332L313 332L314 332L315 332L316 331L317 331L318 332L319 332L320 332L321 332L322 331L323 331L324 331L325 331L326 331L327 331L328 330L329 330L330 330L331 330L333 329L334 329L335 329L336 328L337 328L338 327L339 327L340 327L341 326L342 326L343 325L344 325L345 325L346 324L347 324L348 324L349 323L350 323L351 322L352 322L353 322L354 322L355 322L356 322L357 321L358 321L359 320L360 320L361 319L362 318L364 318L365 317L366 316L367 316L368 316L369 317L370 317L371 316L372 315L373 315L374 314L375 313L376 313L377 312L378 311L379 310L380 310L381 309L382 308L383 308L384 307L385 306L386 306L387 305L388 304L389 303L390 303L391 302L392 301L393 300L395 299L396 299L397 298L398 297L399 297L400 296L401 296L402 295L403 295L404 294L405 294L406 293L407 292L408 292L409 292L410 291L411 290L412 289L413 289L414 288L415 288L416 287L417 287L418 286L419 285L420 285L421 284L422 284L423 283L425 283L426 282L427 282L428 281L429 281L430 280L431 280L432 279L433 278L434 278L435 277L436 277L437 277L438 277L439 276L440 275L441 274L442 274L443 274L444 273L445 272L446 271L447 271L448 271L449 270L450 270L451 270L452 269L453 270L454 269L456 268L457 268L458 268L459 267L460 266L461 266L462 266L463 266L464 265L465 264L466 264L467 264L468 263L469 263L470 263L471 263L472 263L473 263L474 263L475 263L476 263L477 262L478 262L479 261L480 262L481 261L482 261L483 261L484 261L485 260L487 260L488 259L489 259L490 259L491 259L492 258L493 258L494 258L495 258L496 259L497 259L498 258L499 257L500 257L501 257L502 257L503 256L504 256L505 255L506 255L507 254L508 254L509 254L510 254L511 253L512 253L513 252L514 252L515 259L517 260L518 254L519 249L520 251L521 254L522 246L523 250L524 258L525 260L526 274L527 274L528 257L529 251L530 246L531 259L532 253L533 248L534 248L535 239L536 248L537 245L538 249L539 239L540 239L541 246L542 246L543 242L544 252L545 248L546 251L548 241L549 244L550 243L551 246L552 244L553 245L554 247L555 258L556 252L557 244L558 242L559 243L560 251L561 246L562 242L563 250L564 242L565 247L566 238L567 243L568 239L569 239L570 240L571 234L572 236L573 242L574 242L575 237L576 244L577 236L579 241L580 230L581 234L582 225L583 224L584 232L585 229L586 226L587 226L588 217L589 216L590 219L591 224L592 217L593 218L594 216L595 214L596 215L597 216L598 216L599 213L600 196L601 209L602 210L603 202L604 200L605 203L606 208L607 203L608 206L610 193L611 202L612 206L613 203L614 190L615 199L616 208L617 209L618 199L619 194L620 204L621 198L622 199L623 196L624 205L625 192L626 211L627 204L628 183L629 182L630 195L631 206L632 218L633 190L634 199L635 201L636 196L637 189L638 191L640 190L641 191L642 188L643 184L644 179L645 179L646 185L647 182L648 178L649 181L650 175L651 172L652 173L653 175L654 167L655 170L656 166L657 168L658 167L659 168L660 170L661 181L662 172L663 170L664 156L665 151L666 159L667 156L668 162L669 165L671 164L672 163L673 156L674 152L675 153L676 154L677 152L678 150L679 148L680 145L681 149L682 141L683 139L684 137L685 135L686 134L687 133L688 131L689 131L690 129" fill="none" stroke-width="1.5"></path></g><g class="key-England_1"><path stroke="#ca2628" stroke-linecap="round" d="M70 337L71 337L72 334L73 339L74 339L75 330L76 338L77 333L78 330L79 341L80 339L81 334L82 336L83 339L84 336L85 335L86 336L88 330L89 331L90 336L91 335L92 336L93 334L94 333L95 334L96 331L97 329L98 331L99 327L100 330L101 331L102 329L103 330L104 328L105 334L106 331L107 332L108 330L109 330L110 328L111 330L112 328L113 329L114 328L115 329L116 337L117 341L119 338L120 331L121 331L122 333L123 343L124 340L125 338L126 343L127 338L128 336L129 338L130 343L131 339L132 339L133 342L134 337L135 335L136 336L137 339L138 337L139 332L140 330L141 341L142 333L143 335L144 331L145 333L146 328L147 332L149 335L150 331L151 329L152 350L153 356L154 362L155 360L156 362L157 363L158 359L159 363L160 362L161 361L162 361L163 361L164 364L165 364L166 365L167 360L168 363L169 360L170 365L171 366L172 370L173 362L174 363L175 368L176 362L177 368L178 370L180 362L181 361L182 363L183 369L184 368L185 367L186 365L187 370L188 363L189 370L190 364L191 363L192 369L193 368L194 373L195 366L196 360L197 372L198 366L199 370L200 370L201 373L202 368L203 372L204 375L205 375L206 373L207 372L208 371L209 370L211 374L212 374L213 380L214 376L215 371L216 374L217 375L218 382L219 375L220 375L221 378L222 370L223 373L224 370L225 372L226 378L227 375L228 371L229 370L230 373L231 374L232 374L233 376L234 375L235 373L236 374L237 374L238 372L239 370L241 376L242 379L243 383L244 381L245 378L246 374L247 383L248 382L249 368L250 367L251 379L252 374L253 373L254 371L255 378L256 375L257 374L258 375L259 374L260 374L261 373L262 372L263 379L264 374L265 374L266 374L267 373L268 366L269 366L270 371L272 373L273 375L274 372L275 368L276 369L277 371L278 375L279 373L280 372L281 369L282 370L283 375L284 373L285 371L286 366L287 364L288 367L289 370L290 368L291 368L292 372L293 362L294 367L295 366L296 365L297 366L298 365L299 365L300 366L301 362L303 362L304 364L305 361L306 360L307 360L308 361L309 364L310 361L311 357L312 357L313 357L314 357L315 358L316 357L317 353L318 356L319 354L320 359L321 357L322 357L323 355L324 356L325 356L326 356L327 356L328 357L329 357L330 353L331 353L333 352L334 352L335 351L336 357L337 355L338 353L339 351L340 354L341 350L342 350L343 345L344 351L345 350L346 343L347 348L348 341L349 344L350 347L351 343L352 345L353 342L354 346L355 345L356 338L357 340L358 342L359 343L360 342L361 345L362 332L364 338L365 336L366 348L367 340L368 324L369 332L370 335L371 332L372 332L373 324L374 326L375 325L376 317L377 321L378 318L379 320L380 325L381 323L382 326L383 316L384 326L385 317L386 313L387 326L388 313L389 312L390 315L391 315L392 319L393 308L395 309L396 318L397 324L398 312L399 305L400 313L401 308L402 312L403 305L404 300L405 316L406 313L407 317L408 321L409 307L410 297L411 300L412 301L413 297L414 292L415 288L416 295L417 293L418 296L419 300L420 286L421 281L422 287L423 286L425 291L426 294L427 287L428 291L429 284L430 283L431 287L432 275L433 277L434 285L435 287L436 276L437 276L438 279L439 277L440 268L441 289L442 290L443 288L444 278L445 282L446 277L447 275L448 278L449 279L450 275L451 271L452 269L453 280L454 272L456 266L457 265L458 275L459 274L460 274L461 273L462 277L463 282L464 278L465 267L466 259L467 262L468 257L469 261L470 266L471 270L472 280L473 272L474 272L475 270L476 264L477 267L478 263L479 254L480 256L481 264L482 261L483 264L484 265L485 268L487 266L488 270L489 269L490 255L491 263L492 258L493 263L494 254L495 264L496 262L497 255L498 266L499 258L500 265L501 255L502 255L503 257L504 253L505 250L506 245L507 259L508 244L509 250L510 253L511 253L512 252L513 257L514 252L515 251L517 250L518 247L519 248L520 246L521 249L522 248L523 249L524 250L525 252L526 251L527 251L528 254L529 252L530 252L531 250L532 248L533 248L534 246L535 246L536 246L537 246L538 246L539 248L540 248L541 248L542 247L543 250L544 250L545 248L546 249L548 248L549 246L550 248L551 248L552 249L553 248L554 248L555 247L556 250L557 250L558 248L559 247L560 247L561 250L562 250L563 248L564 247L565 248L566 246L567 247L568 247L569 246L570 246L571 247L572 250L573 251L574 247L575 247L576 244L577 245L579 247L580 248L581 247L582 248L583 250L584 250L585 248L586 248L587 248L588 248L589 247L590 248L591 249L592 248L593 251L594 250L595 249L596 249L597 246L598 248L599 247L600 252L601 244L602 244L603 246L604 244L605 244L606 245L607 244L608 241L610 240L611 240L612 240L613 240L614 237L615 235L616 236L617 234L618 244L619 244L620 240L621 239L622 241L623 241L624 239L625 238L626 238L627 240L628 239L629 235L630 238L631 238L632 236L633 236L634 237L635 235L636 233L637 233L638 228L640 233L641 231L642 234L643 232L644 227L645 226L646 229L647 226L648 226L649 224L650 221L651 224L652 222L653 222L654 221L655 220L656 221L657 220L658 220L659 219L660 220L661 221L662 221L663 221L664 220L665 219L666 218L667 219L668 217L669 215L671 213L672 218L673 216L674 212L675 217L676 214L677 211L678 211L679 213L680 213L681 211L682 206L683 206L684 207L685 208L686 208L687 208L688 203L689 203L690 204" fill="none" stroke-width="1.5"></path></g><g class="key-England_2"><path stroke="#34983f" stroke-linecap="round" d="M70 279L71 279L72 280L73 280L74 280L75 280L76 281L77 280L78 280L79 280L80 279L81 279L82 279L83 278L84 279L85 279L86 280L88 281L89 282L90 282L91 281L92 280L93 279L94 278L95 277L96 277L97 276L98 276L99 276L100 275L101 275L102 275L103 274L104 274L105 274L106 273L107 274L108 274L109 274L110 274L111 274L112 275L113 275L114 276L115 277L116 277L117 278L119 279L120 279L121 279L122 280L123 281L124 281L125 281L126 282L127 283L128 284L129 284L130 283L131 283L132 283L133 283L134 283L135 282L136 281L137 282L138 281L139 279L140 278L141 277L142 276L143 275L144 275L145 274L146 274L147 274L149 272L150 272L151 272L152 272L153 273L154 273L155 274L156 274L157 275L158 275L159 274L160 273L161 274L162 274L163 275L164 275L165 276L166 276L167 278L168 277L169 278L170 278L171 278L172 279L173 278L174 279L175 280L176 280L177 280L178 280L180 280L181 281L182 281L183 282L184 282L185 282L186 282L187 282L188 280L189 279L190 280L191 279L192 280L193 280L194 280L195 280L196 280L197 280L198 279L199 279L200 279L201 280L202 280L203 280L204 280L205 279L206 279L207 278L208 278L209 278L211 280L212 280L213 282L214 283L215 282L216 282L217 284L218 283L219 282L220 282L221 282L222 280L223 280L224 279L225 280L226 281L227 282L228 282L229 282L230 283L231 284L232 283L233 283L234 283L235 283L236 281L237 281L238 280L239 278L241 280L242 282L243 281L244 281L245 280L246 281L247 280L248 279L249 279L250 279L251 279L252 279L253 278L254 278L255 277L256 277L257 276L258 278L259 278L260 278L261 278L262 278L263 279L264 278L265 279L266 279L267 279L268 279L269 279L270 278L272 277L273 277L274 277L275 276L276 276L277 276L278 276L279 276L280 276L281 276L282 276L283 276L284 276L285 275L286 275L287 275L288 275L289 274L290 274L291 274L292 274L293 275L294 275L295 275L296 275L297 275L298 282L299 282L300 282L301 282L303 281L304 281L305 280L306 280L307 280L308 280L309 280L310 279L311 279L312 279L313 279L314 279L315 278L316 278L317 278L318 278L319 278L320 277L321 277L322 277L323 277L324 277L325 276L326 276L327 276L328 276L329 276L330 275L331 275L333 275L334 275L335 275L336 274L337 274L338 274L339 274L340 274L341 273L342 273L343 273L344 273L345 273L346 272L347 272L348 272L349 272L350 272L351 272L352 271L353 271L354 271L355 271L356 270L357 270L358 270L359 270L360 273L361 274L362 276L364 274L365 273L366 274L367 274L368 271L369 271L370 267L371 269L372 267L373 266L374 268L375 267L376 264L377 266L378 266L379 265L380 263L381 264L382 263L383 261L384 260L385 260L386 261L387 261L388 262L389 265L390 265L391 268L392 272L393 275L395 277L396 277L397 272L398 275L399 274L400 276L401 275L402 268L403 268L404 268L405 270L406 272L407 272L408 272L409 267L410 267L411 266L412 265L413 266L414 265L415 263L416 262L417 258L418 263L419 261L420 261L421 262L422 261L423 269L425 267L426 265L427 264L428 264L429 264L430 265L431 269L432 270L433 266L434 266L435 263L436 262L437 264L438 266L439 270L440 271L441 274L442 276L443 276L444 276L445 275L446 279L447 278L448 279L449 279L450 273L451 272L452 271L453 269L454 271L456 267L457 269L458 270L459 268L460 267L461 265L462 262L463 260L464 260L465 259L466 259L467 259L468 258L469 261L470 262L471 261L472 270L473 269L474 266L475 267L476 256L477 257L478 258L479 258L480 258L481 257L482 261L483 261L484 264L485 261L487 262L488 263L489 263L490 261L491 261L492 263L493 264L494 265L495 263L496 263L497 261L498 270L499 266L500 268L501 268L502 255L503 256L504 254L505 255L506 253L507 253L508 254L509 252L510 252L511 253L512 253L513 253L514 252L515 251L517 252L518 253L519 253L520 251L521 252L522 250L523 249L524 266L525 265L526 264L527 263L528 266L529 263L530 260L531 262L532 259L533 258L534 257L535 254L536 254L537 251L538 252L539 252L540 251L541 251L542 251L543 252L544 254L545 252L546 253L548 253L549 253L550 252L551 251L552 249L553 249L554 250L555 249L556 253L557 252L558 253L559 255L560 255L561 256L562 255L563 253L564 254L565 252L566 251L567 252L568 250L569 250L570 251L571 251L572 250L573 251L574 250L575 249L576 250L577 249L579 247L580 248L581 245L582 247L583 248L584 249L585 250L586 249L587 249L588 248L589 247L590 246L591 247L592 247L593 248L594 246L595 246L596 247L597 247L598 246L599 245L600 244L601 245L602 244L603 245L604 244L605 244L606 246L607 243L608 242L610 242L611 241L612 240L613 241L614 238L615 241L616 241L617 242L618 241L619 240L620 239L621 243L622 243L623 239L624 239L625 239L626 238L627 237L628 236L629 239L630 241L631 236L632 235L633 230L634 230L635 226L636 227L637 229L638 232L640 231L641 231L642 227L643 224L644 225L645 230L646 227L647 221L648 220L649 219L650 222L651 226L652 221L653 217L654 219L655 218L656 219L657 218L658 216L659 219L660 212L661 209L662 209L663 206L664 206L665 212L666 209L667 211L668 209L669 211L671 210L672 213L673 203L674 210L675 212L676 210L677 199L678 211L679 206L680 207L681 208L682 207L683 206L684 202L685 201L686 197L687 203L688 198L689 204L690 197" fill="none" stroke-width="1.5"></path></g><g class="key-England_3"><path stroke="#3360a9" stroke-linecap="round" d="M70 293L71 295L72 296L73 296L74 295L75 294L76 297L77 299L78 305L79 310L80 314L81 318L82 320L83 319L84 327L85 333L86 328L88 328L89 333L90 338L91 336L92 330L93 321L94 314L95 310L96 305L97 302L98 305L99 313L100 308L101 307L102 316L103 303L104 300L105 310L106 322L107 328L108 319L109 311L110 306L111 303L112 301L113 303L114 303L115 292L116 289L117 291L119 289L120 292L121 290L122 294L123 304L124 299L125 302L126 310L127 315L128 314L129 311L130 310L131 315L132 327L133 335L134 354L135 344L136 337L137 356L138 323L139 297L140 295L141 319L142 317L143 298L144 296L145 292L146 290L147 294L149 293L150 294L151 293L152 292L153 292L154 293L155 292L156 285L157 297L158 308L159 293L160 295L161 298L162 294L163 295L164 294L165 300L166 305L167 293L168 293L169 301L170 300L171 298L172 302L173 301L174 307L175 321L176 323L177 326L178 329L180 325L181 315L182 321L183 324L184 314L185 315L186 316L187 310L188 310L189 311L190 308L191 314L192 314L193 305L194 308L195 305L196 297L197 304L198 305L199 302L200 301L201 301L202 301L203 300L204 300L205 301L206 305L207 302L208 301L209 303L211 307L212 308L213 308L214 313L215 314L216 309L217 309L218 315L219 306L220 298L221 297L222 295L223 296L224 295L225 295L226 294L227 294L228 296L229 297L230 297L231 298L232 303L233 309L234 306L235 303L236 301L237 303L238 300L239 293L241 300L242 309L243 302L244 300L245 299L246 313L247 316L248 302L249 307L250 316L251 307L252 309L253 308L254 304L255 303L256 305L257 306L258 305L259 304L260 301L261 305L262 304L263 300L264 303L265 307L266 303L267 304L268 305L269 303L270 306L272 307L273 306L274 309L275 310L276 311L277 311L278 305L279 306L280 311L281 309L282 310L283 314L284 309L285 305L286 310L287 311L288 311L289 311L290 306L291 305L292 306L293 309L294 313L295 314L296 314L297 314L298 309L299 304L300 307L301 309L303 312L304 316L305 314L306 311L307 309L308 306L309 307L310 309L311 309L312 307L313 305L314 304L315 304L316 306L317 306L318 306L319 306L320 304L321 302L322 303L323 303L324 303L325 303L326 302L327 304L328 306L329 304L330 301L331 299L333 298L334 297L335 297L336 299L337 299L338 296L339 296L340 295L341 294L342 294L343 294L344 295L345 295L346 294L347 293L348 294L349 294L350 294L351 294L352 294L353 289L354 289L355 289L356 289L357 288L358 288L359 288L360 292L361 292L362 292L364 292L365 295L366 298L367 298L368 290L369 287L370 275L371 278L372 277L373 277L374 279L375 279L376 276L377 277L378 277L379 275L380 273L381 273L382 271L383 268L384 267L385 267L386 267L387 267L388 266L389 270L390 272L391 278L392 288L393 290L395 290L396 289L397 276L398 281L399 277L400 278L401 277L402 268L403 269L404 271L405 274L406 277L407 277L408 275L409 270L410 268L411 267L412 265L413 266L414 264L415 263L416 265L417 261L418 270L419 270L420 273L421 275L422 275L423 289L425 280L426 279L427 278L428 275L429 277L430 279L431 288L432 290L433 281L434 281L435 277L436 275L437 277L438 277L439 282L440 281L441 280L442 280L443 280L444 281L445 282L446 288L447 288L448 288L449 289L450 278L451 278L452 278L453 276L454 284L456 281L457 285L458 290L459 287L460 285L461 282L462 281L463 277L464 276L465 272L466 271L467 266L468 265L469 270L470 270L471 270L472 295L473 295L474 282L475 282L476 258L477 258L478 258L479 258L480 258L481 258L482 262L483 262L484 265L485 262L487 263L488 264L489 266L490 263L491 263L492 265L493 268L494 269L495 265L496 263L497 263L498 279L499 273L500 277L501 279L502 256L503 258L504 256L505 257L506 254L507 255L508 256L509 253L510 253L511 255L512 254L513 254L514 252L515 251L517 253L518 255L519 255L520 253L521 254L522 252L523 249L524 278L525 274L526 272L527 270L528 275L529 271L530 267L531 274L532 272L533 271L534 267L535 262L536 262L537 261L538 264L539 257L540 256L541 265L542 264L543 265L544 276L545 265L546 265L548 280L549 271L550 271L551 270L552 270L553 275L554 275L555 290L556 290L557 288L558 288L559 288L560 285L561 286L562 284L563 282L564 282L565 282L566 280L567 280L568 281L569 282L570 281L571 282L572 285L573 281L574 282L575 285L576 285L577 284L579 285L580 286L581 284L582 285L583 281L584 275L585 279L586 276L587 276L588 276L589 275L590 273L591 282L592 281L593 279L594 278L595 274L596 278L597 283L598 282L599 276L600 274L601 275L602 274L603 272L604 271L605 274L606 272L607 271L608 272L610 266L611 270L612 272L613 266L614 266L615 267L616 269L617 264L618 263L619 268L620 268L621 267L622 263L623 261L624 262L625 263L626 266L627 262L628 265L629 266L630 264L631 259L632 260L633 260L634 262L635 260L636 256L637 259L638 261L640 258L641 257L642 257L643 255L644 249L645 257L646 253L647 252L648 254L649 250L650 251L651 252L652 249L653 247L654 249L655 243L656 247L657 246L658 244L659 246L660 245L661 248L662 247L663 243L664 241L665 243L666 244L667 243L668 243L669 245L671 243L672 240L673 235L674 240L675 243L676 241L677 240L678 238L679 237L680 235L681 240L682 235L683 236L684 230L685 232L686 226L687 228L688 226L689 227L690 224" fill="none" stroke-width="1.5"></path></g><g class="key-England_4"><path stroke="#e6332e" stroke-linecap="round" d="M316 342L317 349L318 347L319 343L320 339L321 335L322 334L323 333L324 332L325 330L326 329L327 328L328 326L329 325L330 324L331 322L333 321L334 320L335 319L336 317L337 316L338 315L339 313L340 312L341 311L342 310L343 308L344 307L345 306L346 304L347 303L348 302L349 300L350 299L351 298L352 297L353 295L354 294L355 293L356 291L357 290L358 289L359 287L360 286L361 285L362 287L364 289L365 291L366 331L367 332L368 332L369 332L370 333L371 333L372 334L373 334L374 335L375 336L376 332L377 335L378 329L379 338L380 327L381 318L382 319L383 319L384 319L385 318L386 316L387 315L388 314L389 312L390 311L391 310L392 309L393 307L395 306L396 305L397 310L398 317L399 313L400 308L401 304L402 299L403 294L404 290L405 286L406 288L407 284L408 286L409 285L410 284L411 282L412 281L413 280L414 279L415 277L416 276L417 275L418 274L419 273L420 275L421 277L422 279L423 275L425 273L426 274L427 273L428 276L429 273L430 269L431 268L432 266L433 259L434 265L435 260L436 281L437 269L438 269L439 268L440 267L441 266L442 263L443 261L444 259L445 257L446 263L447 261L448 264L449 261L450 255L451 277L452 296L453 289L454 282L456 276L457 269L458 268L459 268L460 267L461 266L462 265L463 264L464 264L465 263L466 262L467 261L468 263L469 264L470 266L471 252L472 257L473 257L474 251L475 254L476 251L477 269L478 283L479 274L480 253L481 256L482 252L483 251L484 260L485 259L487 255L488 251L489 251L490 251L491 247L492 250L493 249L494 246L495 251L496 247L497 248L498 246L499 253L500 249L501 255L502 265L503 265L504 256L505 261L506 255L507 257L508 260L509 257L510 261L511 255L512 251L513 249L514 252L515 245L517 266L518 257L519 250L520 252L521 257L522 259L523 250L524 247L525 254L526 250L527 252L528 252L529 244L530 247L531 245L532 242L533 245L534 244L535 244L536 240L537 240L538 240L539 242L540 240L541 237L542 238L543 242L544 238L545 242L546 240L548 242L549 238L550 242L551 237L552 237L553 240L554 238L555 242L556 232L557 242L558 240L559 238L560 240L561 240L562 238L563 240L564 242L565 237L566 240L567 235L568 236L569 236L570 235L571 238L572 233L573 235L574 240L575 232L576 234L577 235L579 233L580 230L581 230L582 230L583 227L584 229L585 227L586 226L587 226L588 223L589 220L590 223L591 225L592 223L593 220L594 220L595 221L596 223L597 219L598 219L599 219L600 216L601 215L602 214L603 213L604 217L605 211L606 208L607 210L608 207L610 207L611 209L612 210L613 205L614 208L615 206L616 210L617 205L618 199L619 205L620 198L621 198L622 194L623 194L624 192L625 196L626 190L627 195L628 190L629 189L630 189L631 190L632 185L633 185L634 182L635 185L636 183L637 184L638 181L640 182L641 180L642 176L643 176L644 175L645 172L646 175L647 174L648 171L649 168L650 168L651 165L652 165L653 165L654 162L655 160L656 157L657 156L658 156L659 155L660 154L661 153L662 155L663 156L664 148L665 150L666 145L667 144L668 146L669 143L671 140L672 140L673 140L674 134L675 133L676 132L677 130L678 131L679 130L680 128L681 127L682 126L683 125L684 123L685 122L686 121L687 121L688 120L689 119L690 118" fill="none" stroke-width="1.5"></path></g><g class="key-England_5"><path stroke="#ffd53e" stroke-linecap="round" d="M297 351L298 350L299 350L300 350L301 350L303 350L304 347L305 344L306 344L307 344L308 346L309 341L310 341L311 341L312 340L313 340L314 340L315 340L316 339L317 339L318 339L319 339L320 338L321 338L322 338L323 337L324 337L325 337L326 337L327 336L328 336L329 335L330 334L331 334L333 333L334 330L335 330L336 330L337 330L338 330L339 330L340 330L341 324L342 325L343 322L344 323L345 322L346 322L347 322L348 322L349 320L350 316L351 316L352 316L353 314L354 309L355 305L356 305L357 297L358 297L359 296L360 294L361 293L362 290L364 290L365 289L366 288L367 285L368 285L369 283L370 281L371 278L372 277L373 275L374 273L375 273L376 273L377 272L378 270L379 269L380 268L381 267L382 266L383 265L384 258L385 258L386 257L387 256L388 256L389 255L390 253L391 251L392 252L393 252L395 252L396 250L397 250L398 250L399 249L400 247L401 246L402 245L403 245L404 245L405 245L406 245L407 245L408 244L409 245L410 245L411 245L412 245L413 245L414 244L415 245L416 244L417 245L418 243L419 242L420 241L421 240L422 240L423 240L425 240L426 240L427 239L428 240L429 239L430 239L431 239L432 239L433 239L434 239L435 239L436 240L437 240L438 241L439 241L440 241L441 241L442 239L443 240L444 241L445 241L446 241L447 241L448 241L449 241L450 242L451 241L452 241L453 243L454 243L456 245L457 247L458 249L459 250L460 248L461 246L462 245L463 246L464 248L465 249L466 250L467 250L468 249L469 249L470 249L471 249L472 250L473 250L474 250L475 249L476 249L477 250L478 250L479 251L480 252L481 252L482 251L483 251L484 250L485 249L487 249L488 249L489 251L490 250L491 250L492 250L493 251L494 251L495 253L496 253L497 253L498 253L499 253L500 252L501 252L502 252L503 253L504 252L505 253L506 253L507 253L508 253L509 253L510 254L511 253L512 252L513 252L514 252L515 252L517 252L518 252L519 252L520 253L521 253L522 252L523 252L524 252L525 252L526 252L527 251L528 251L529 250L530 250L531 247L532 244L533 240L534 240L535 241L536 242L537 244L538 244L539 244L540 244L541 245L542 245L543 246L544 247L545 248L546 248L548 249L549 249L550 251L551 251L552 253L553 252L554 250L555 247L556 247L557 246L558 244L559 244L560 244L561 243L562 242L563 240L564 239L565 239L566 237L567 237L568 236L569 236L570 236L571 236L572 236L573 236L574 235L575 235L576 235L577 235L579 235L580 234L581 233L582 233L583 233L584 233L585 233L586 233L587 233L588 233L589 234L590 235L591 235L592 235L593 234L594 233L595 233L596 234L597 235L598 235L599 233L600 232L601 233L602 228L603 224L604 222L605 218L606 216L607 212L608 211L610 209L611 207L612 207L613 205L614 205L615 199L616 196L617 194L618 190L619 186L620 185L621 182L622 183L623 182L624 179L625 176L626 175L627 175L628 174L629 170L630 171L631 171L632 172L633 173L634 180L635 180L636 178L637 178L638 174L640 167L641 170L642 162L643 156L644 154L645 158L646 148L647 147L648 148L649 148L650 153L651 151L652 143L653 143L654 136L655 135L656 132L657 129L658 126L659 121L660 120L661 132L662 130L663 109L664 119L665 114L666 110L667 108L668 108L669 105L671 101L672 99L673 96L674 95L675 93L676 89L677 89L678 91L679 87L680 86L681 88L682 86L683 80L684 78L685 78L686 81L687 79L688 77L689 74L690 70" fill="none" stroke-width="1.5"></path></g><g class="key-England_6"><path stroke="#a652ba" stroke-linecap="round" d="M102 312L103 306L104 300L105 304L106 301L107 300L108 301L109 302L110 302L111 302L112 302L113 302L114 302L115 302L116 303L117 306L119 318L120 315L121 312L122 309L123 306L124 303L125 300L126 295L127 293L128 290L129 288L130 286L131 283L132 281L133 279L134 276L135 282L136 285L137 280L138 280L139 283L140 287L141 293L142 293L143 289L144 289L145 293L146 297L147 301L149 305L150 311L151 317L152 325L153 335L154 348L155 334L156 330L157 327L158 321L159 318L160 318L161 317L162 316L163 316L164 315L165 331L166 328L167 325L168 323L169 320L170 315L171 310L172 312L173 314L174 315L175 317L176 319L177 320L178 322L180 315L181 309L182 303L183 301L184 300L185 298L186 297L187 295L188 293L189 292L190 285L191 283L192 284L193 285L194 286L195 286L196 287L197 287L198 285L199 284L200 284L201 281L202 282L203 279L204 277L205 278L206 279L207 279L208 280L209 281L211 281L212 282L213 282L214 282L215 282L216 282L217 282L218 283L219 278L220 279L221 281L222 286L223 291L224 290L225 289L226 288L227 287L228 286L229 289L230 286L231 289L232 289L233 294L234 288L235 290L236 288L237 293L238 294L239 291L241 298L242 295L243 302L244 296L245 297L246 301L247 298L248 304L249 300L250 300L251 301L252 301L253 296L254 298L255 296L256 297L257 300L258 300L259 301L260 301L261 302L262 302L263 303L264 304L265 305L266 305L267 305L268 304L269 305L270 305L272 300L273 292L274 292L275 293L276 293L277 291L278 293L279 290L280 291L281 291L282 292L283 293L284 293L285 292L286 292L287 292L288 292L289 292L290 292L291 292L292 291L293 291L294 291L295 289L296 287L297 285L298 284L299 284L300 283L301 283L303 286L304 284L305 282L306 283L307 284L308 287L309 283L310 284L311 284L312 285L313 284L314 283L315 282L316 280L317 280L318 279L319 278L320 277L321 276L322 274L323 273L324 274L325 274L326 274L327 273L328 273L329 269L330 279L331 274L333 271L334 271L335 272L336 270L337 271L338 272L339 274L340 273L341 274L342 274L343 273L344 274L345 280L346 279L347 276L348 274L349 274L350 271L351 272L352 278L353 275L354 274L355 273L356 273L357 279L358 287L359 284L360 280L361 276L362 270L364 273L365 275L366 276L367 275L368 278L369 278L370 279L371 277L372 281L373 284L374 279L375 281L376 280L377 276L378 289L379 276L380 286L381 289L382 290L383 287L384 288L385 285L386 281L387 280L388 286L389 282L390 276L391 279L392 280L393 280L395 281L396 280L397 281L398 282L399 280L400 283L401 282L402 279L403 278L404 282L405 279L406 277L407 280L408 286L409 292L410 288L411 286L412 281L413 276L414 285L415 283L416 284L417 286L418 287L419 285L420 287L421 287L422 285L423 285L425 283L426 283L427 281L428 281L429 280L430 279L431 279L432 278L433 277L434 277L435 276L436 276L437 276L438 277L439 278L440 279L441 280L442 280L443 281L444 283L445 283L446 285L447 286L448 286L449 287L450 288L451 288L452 288L453 290L454 288L456 302L457 343L458 308L459 333L460 326L462 320L463 319L464 320L465 319L466 318L467 315L468 313L469 310L470 308L471 306L472 303L473 300L474 297L475 293L476 288L477 284L478 280L479 274L480 268L481 273L482 278L483 274L484 269L485 274L487 267L488 282L489 260L490 261L491 254L492 255L493 263L494 259L495 259L496 253L497 252L498 258L499 253L500 249L501 251L502 253L503 250L504 256L505 255L506 257L507 256L508 258L509 256L510 258L511 263L512 256L513 252L514 252L515 254L517 261L518 247L519 251L520 252L521 251L522 251L523 251L524 252L525 236L526 252L527 252L528 254L529 261L530 259L531 262L532 246L533 247L534 248L535 251L536 260L537 253L538 254L539 248L540 246L541 250L542 248L543 251L544 248L545 249L546 253L548 242L549 247L550 243L551 244L552 249L553 246L554 254L555 244L556 245L557 249L558 244L559 242L560 242L561 245L562 241L563 243L564 240L565 260L566 226L567 235L568 230L569 230L570 228L571 228L572 228L573 228L574 228L575 229L576 228L577 233L579 230L580 228L581 229L582 228L583 224L584 226L585 229L586 226L587 225L588 226L589 223L590 226L591 232L592 229L593 229L594 228L595 230L596 229L597 225L598 229L599 230L600 230L601 229L602 226L603 220L604 222L605 233L606 219L607 223L608 219L610 215L611 222L612 220L613 219L614 224L615 222L616 226L617 226L618 230L619 233L620 229L621 225L622 224L623 228L624 225L625 232L626 233L627 230L628 238L629 233L630 233L631 233L632 229L633 225L634 220L635 213L636 213L637 220L638 225L640 220L641 222L642 212L643 205L644 211L645 208L646 202L647 206L648 210L649 210L650 211L651 211L652 213L653 225L654 212L655 213L656 208L657 205L658 203L659 204L660 204L661 204L662 203L663 201L664 199L665 198L666 196L667 195L668 194L669 195L671 198L672 198L673 201L674 199L675 199L676 198L677 195L678 194L679 193L680 195L681 191L682 186L683 180L684 179L685 180L686 180L687 185L688 183L689 181L690 179" fill="none" stroke-width="1.5"></path></g><g class="key-England_7"><path stroke="#9ecc8a" stroke-linecap="round" d="M102 329L103 323L104 316L105 321L106 317L107 317L108 318L109 318L110 319L111 319L112 319L113 319L114 318L115 318L116 319L117 323L119 335L120 331L121 328L122 325L123 323L124 320L125 317L126 312L127 309L128 307L129 305L130 302L131 300L132 298L133 295L134 293L135 298L136 302L137 297L138 297L139 299L140 304L141 310L142 310L143 306L144 306L145 309L146 313L147 317L149 322L150 328L151 334L152 342L153 351L154 365L155 350L156 347L157 343L158 337L159 335L160 334L161 334L162 333L163 333L164 332L165 348L166 345L167 342L168 339L169 336L170 332L171 327L172 329L173 330L174 332L175 334L176 335L177 337L178 338L180 332L181 325L182 319L183 318L184 316L185 315L186 313L187 312L188 310L189 308L190 302L191 300L192 301L193 302L194 302L195 303L196 304L197 304L198 302L199 301L200 301L201 298L202 298L203 296L204 294L205 295L206 295L207 296L208 297L209 297L211 298L212 298L213 298L214 298L215 298L216 298L217 298L218 300L219 294L220 295L221 298L222 302L223 307L224 306L225 305L226 304L227 303L228 302L229 306L230 303L231 306L232 306L233 311L234 305L235 306L236 304L237 310L238 311L239 308L241 314L242 312L243 319L244 313L245 314L246 318L247 315L248 321L249 317L250 317L251 317L252 318L253 313L254 315L255 313L256 314L257 317L258 317L259 318L260 318L261 319L262 319L263 319L264 320L265 321L266 322L267 321L268 321L269 321L270 322L272 317L273 308L274 308L275 309L276 310L277 308L278 311L279 308L280 308L281 309L282 310L283 311L284 311L285 310L286 310L287 310L288 310L289 310L290 310L291 309L292 309L293 309L294 309L295 307L296 305L297 303L298 302L299 301L300 301L301 301L303 304L304 302L305 300L306 301L307 302L308 304L309 300L310 301L311 302L312 302L313 302L314 301L315 300L316 298L317 298L318 297L319 296L320 295L321 293L322 292L323 291L324 291L325 291L326 291L327 290L328 290L329 286L330 294L331 289L333 287L334 287L335 287L336 285L337 286L338 286L339 287L340 287L341 287L342 287L343 285L344 286L345 290L346 289L347 287L348 285L349 284L350 282L351 282L352 286L353 284L354 282L355 281L356 281L357 284L358 288L359 285L360 283L361 280L362 277L364 280L365 282L366 293L367 292L368 295L369 294L370 296L371 294L372 297L373 300L374 296L375 298L376 296L377 293L378 303L379 294L380 300L381 300L382 301L383 299L384 300L385 297L386 294L387 293L388 296L389 293L390 289L391 291L392 291L393 291L395 291L396 290L397 292L398 294L399 292L400 293L401 291L402 287L403 285L404 285L405 282L406 282L407 282L408 286L409 289L410 286L411 284L412 281L413 278L414 282L415 280L416 280L417 280L418 280L419 279L420 281L421 282L422 282L423 280L425 278L426 278L427 277L428 278L429 276L430 274L431 273L432 272L433 268L434 271L435 268L436 278L437 272L438 273L439 273L440 273L441 273L442 271L443 270L444 270L445 268L446 273L447 272L448 274L449 272L450 269L451 282L452 291L453 289L454 285L456 287L457 292L458 284L459 289L460 287L461 294L462 285L463 284L464 283L465 282L466 282L467 281L468 281L469 282L470 282L471 271L472 274L473 274L474 268L475 270L476 266L477 276L478 281L479 274L480 260L481 264L482 264L483 262L484 265L485 266L487 261L488 264L489 255L490 256L491 251L492 252L493 256L494 252L495 255L496 250L497 250L498 252L499 253L500 249L501 253L502 258L503 257L504 256L505 258L506 256L507 257L508 259L509 257L510 260L511 259L512 254L513 250L514 252L515 249L517 258L518 254L519 251L520 252L521 254L522 255L523 251L524 250L525 251L526 251L527 251L528 251L529 248L530 249L531 247L532 243L533 242L534 242L535 243L536 242L537 243L538 243L539 243L540 243L541 242L542 243L543 244L544 243L545 245L546 245L548 246L549 245L550 247L551 245L552 246L553 247L554 245L555 245L556 241L557 245L558 243L559 242L560 242L561 242L562 241L563 241L564 241L565 239L566 238L567 236L568 236L569 236L570 235L571 236L572 234L573 234L574 236L575 233L576 234L577 234L579 233L580 232L581 231L582 231L583 230L584 231L585 230L586 229L587 229L588 228L589 228L590 229L591 230L592 229L593 228L594 228L595 229L596 229L597 228L598 228L599 227L600 225L601 225L602 222L603 219L604 220L605 216L606 214L607 212L608 211L610 209L611 209L612 209L613 206L614 207L615 203L616 202L617 200L618 196L619 195L620 192L621 190L622 189L623 188L624 185L625 186L626 183L627 184L628 183L629 181L630 180L631 181L632 179L633 179L634 181L635 183L636 180L637 181L638 178L640 174L641 175L642 170L643 166L644 165L645 165L646 161L647 160L648 160L649 159L650 160L651 159L652 156L653 155L654 151L655 151L656 150L657 147L658 144L659 142L660 142L661 147L662 145L663 134L664 137L665 135L666 132L667 131L668 130L669 128L671 125L672 124L673 121L674 119L675 117L676 115L677 114L678 116L679 113L680 112L681 112L682 110L683 108L684 106L685 105L686 106L687 105L688 104L689 102L690 99" fill="none" stroke-width="1.5"></path></g><g class="key-England_8"><path stroke="#f6a324" stroke-linecap="round" d="M283 483L284 457L285 497L286 476L287 449L288 454L289 468L290 422L291 457L292 446L293 490L294 490L295 507L296 490L297 442L298 468L299 490L300 464L301 461L303 464L304 417L305 426L306 436L307 414L308 402L309 461L310 418L311 436L312 436L313 398L314 427L315 422L316 402L317 401L318 382L319 422L320 416L321 413L322 426L323 395L324 414L325 396L326 401L327 408L328 383L329 391L330 400L331 399L333 421L334 384L335 393L336 388L337 388L338 400L339 375L340 394L341 388L342 383L343 384L344 384L345 391L346 389L347 378L348 385L349 373L350 399L351 384L352 383L353 384L354 375L355 373L356 369L357 345L358 359L359 347L360 369L361 367L362 362L364 376L365 367L366 376L367 383L368 386L369 374L370 361L371 366L372 361L373 365L374 383L375 368L376 366L377 367L378 374L379 364L380 343L381 363L382 358L383 358L384 360L385 350L386 358L387 350L388 350L389 345L390 337L391 340L392 353L393 346L395 344L396 335L397 347L398 348L399 347L400 339L401 335L402 337L403 338L404 351L405 342L406 335L407 336L408 341L409 340L410 338L411 327L412 343L413 336L414 324L415 328L416 331L417 328L418 322L419 332L420 326L421 329L422 331L423 325L425 321L426 325L427 318L428 323L429 326L430 319L431 322L432 315L433 320L434 317L435 319L436 316L437 310L438 327L439 322L440 317L441 319L442 309L443 314L444 319L445 314L446 317L447 308L448 317L449 316L450 313L451 316L452 302L453 266L454 241L456 265L457 281L458 282L459 279L460 268L461 260L462 272L463 276L464 285L465 285L466 279L467 282L468 282L469 283L470 282L471 281L472 265L473 251L474 272L475 280L476 280L477 283L478 285L479 294L480 292L481 288L482 289L483 274L484 276L485 271L487 271L488 266L489 267L490 270L491 270L492 267L493 258L494 254L495 256L496 257L497 258L498 258L499 254L500 267L501 265L502 254L503 248L504 249L505 258L506 261L507 262L508 263L509 252L510 257L511 266L512 264L513 264L514 252L515 259L517 263L518 271L519 264L520 263L521 267L522 266L523 267L524 267L525 252L526 263L527 262L528 267L529 262L530 259L531 268L532 268L533 269L534 270L535 261L536 272L537 274L538 279L539 280L540 277L541 276L542 278L543 277L544 279L545 270L546 280L548 272L549 275L550 275L551 270L552 272L553 276L554 276L555 269L556 267L557 272L558 273L559 275L560 274L561 267L562 271L563 272L564 270L565 274L566 250L567 271L568 278L569 269L570 276L571 267L572 266L573 269L574 270L575 269L576 249L577 262L579 263L580 266L581 270L582 258L583 262L584 264L585 263L586 269L587 251L588 267L589 262L590 266L591 263L592 251L593 263L594 259L595 265L596 265L597 240L598 262L599 260L600 260L601 268L602 265L603 270L604 270L605 266L606 267L607 244L608 262L610 258L611 253L612 256L613 254L614 257L615 258L616 256L617 258L618 202L619 230L620 243L621 234L622 240L623 228L624 229L625 230L626 231L627 233L628 217L629 227L630 220L631 225L632 229L633 222L634 227L635 225L636 223L637 224L638 209L640 224L641 219L642 220L643 211L644 208L645 201L646 211L647 214L648 213L649 200L650 206L651 200L652 208L653 206L654 200L655 202L656 204L657 198L658 197L659 191L660 198L661 198L662 197L663 194L664 187L665 187L666 190L667 193L668 189L669 182L671 187L672 186L673 184L674 185L675 184L676 186L677 185L678 188L679 184L680 180L681 187L682 186L683 186L684 184L685 183L686 187L687 185L688 183L689 185L690 182" fill="none" stroke-width="1.5"></path></g></g></g></g><g class="SourcesFooter" style="fill:#777"><g class="clickable" style="fill:#777"><text font-size="12.60" x="15.0" y="553.3"><tspan x="15" y="553.2800000000001">Source: Output of key industries in England - using Bank of England (2017), Output of key industrial sectors in England - Bank of England (2017)</tspan></text></g><text font-size="12.60" x="15.0" y="567.9"><tspan x="15" y="567.8800000000001">Note: Data before 1700 refers to England, later data refers to Great Britain.</tspan></text><text font-size="12.60" x="15.0" y="582.5"><tspan x="15" y="582.4800000000001"><a target='_blank' style='fill: #777;' href='https://ourworldindata.org/economic-growth'>OurWorldInData.org/economic-growth</a>  <a style="fill: #777;" class="cclogo" href="http://creativecommons.org/licenses/by/4.0/deed.en_US" target="_blank">CC BY</a></tspan></text></g></svg>