<svg xmlns="http://www.w3.org/2000/svg" version="1.1" style="font-family:Lato, &#x27;Helvetica Neue&#x27;, Helvetica, Arial, sans-serif;font-size:18px;background-color:white;text-rendering:optimizeLegibility;-webkit-font-smoothing:antialiased" width="850" height="600"><g class="HeaderView"><g transform="translate(774, 15) scale(0.29)"><svg width="210" height="120" viewBox="0 0 210 120" fill="none" xmlns="http://www.w3.org/2000/svg">
    <g clip-path="url(#clip0)">
        <path d="M0 0H210V107.89H0V0Z" fill="#002147"/>
        <path d="M40.9788 32.248C40.9788 34.6093 40.6048 36.78 39.8568 38.76C39.1088 40.7253 38.0528 42.4193 36.6888 43.842C35.3248 45.2647 33.6821 46.372 31.7608 47.164C29.8541 47.9413 27.7421 48.33 25.4248 48.33C23.1074 48.33 20.9954 47.9413 19.0888 47.164C17.1821 46.372 15.5468 45.2647 14.1828 43.842C12.8188 42.4193 11.7628 40.7253 11.0148 38.76C10.2668 36.78 9.89277 34.6093 9.89277 32.248C9.89277 29.8867 10.2668 27.7233 11.0148 25.758C11.7628 23.778 12.8188 22.0767 14.1828 20.654C15.5468 19.2167 17.1821 18.102 19.0888 17.31C20.9954 16.518 23.1074 16.122 25.4248 16.122C27.7421 16.122 29.8541 16.518 31.7608 17.31C33.6821 18.102 35.3248 19.2167 36.6888 20.654C38.0528 22.0767 39.1088 23.778 39.8568 25.758C40.6048 27.7233 40.9788 29.8867 40.9788 32.248ZM36.6008 32.248C36.6008 30.312 36.3368 28.574 35.8088 27.034C35.2808 25.494 34.5328 24.196 33.5648 23.14C32.5968 22.0693 31.4234 21.248 30.0448 20.676C28.6661 20.104 27.1261 19.818 25.4248 19.818C23.7381 19.818 22.2054 20.104 20.8268 20.676C19.4481 21.248 18.2674 22.0693 17.2848 23.14C16.3168 24.196 15.5688 25.494 15.0408 27.034C14.5128 28.574 14.2488 30.312 14.2488 32.248C14.2488 34.184 14.5128 35.922 15.0408 37.462C15.5688 38.9873 16.3168 40.2853 17.2848 41.356C18.2674 42.412 19.4481 43.226 20.8268 43.798C22.2054 44.3553 23.7381 44.634 25.4248 44.634C27.1261 44.634 28.6661 44.3553 30.0448 43.798C31.4234 43.226 32.5968 42.412 33.5648 41.356C34.5328 40.2853 35.2808 38.9873 35.8088 37.462C36.3368 35.922 36.6008 34.184 36.6008 32.248ZM62.8234 25.714V48H60.4914C59.9341 48 59.5821 47.7287 59.4354 47.186L59.1274 44.788C58.1594 45.8587 57.0741 46.724 55.8714 47.384C54.6687 48.0293 53.2901 48.352 51.7354 48.352C50.5181 48.352 49.4401 48.154 48.5014 47.758C47.5774 47.3473 46.8001 46.7753 46.1694 46.042C45.5387 45.3087 45.0621 44.4213 44.7394 43.38C44.4314 42.3387 44.2774 41.1873 44.2774 39.926V25.714H48.1934V39.926C48.1934 41.6127 48.5747 42.918 49.3374 43.842C50.1147 44.766 51.2954 45.228 52.8794 45.228C54.0381 45.228 55.1161 44.9567 56.1134 44.414C57.1254 43.8567 58.0567 43.094 58.9074 42.126V25.714H62.8234ZM71.4305 30.18C72.1346 28.6547 72.9999 27.4667 74.0266 26.616C75.0532 25.7507 76.3072 25.318 77.7886 25.318C78.2579 25.318 78.7052 25.3693 79.1306 25.472C79.5706 25.5747 79.9592 25.736 80.2966 25.956L80.0106 28.882C79.9226 29.2487 79.7026 29.432 79.3506 29.432C79.1452 29.432 78.8446 29.388 78.4486 29.3C78.0526 29.212 77.6052 29.168 77.1066 29.168C76.4026 29.168 75.7719 29.2707 75.2146 29.476C74.6719 29.6813 74.1806 29.9893 73.7406 30.4C73.3152 30.796 72.9266 31.2947 72.5746 31.896C72.2372 32.4827 71.9292 33.1573 71.6506 33.92V48H67.7125V25.714H69.9566C70.3819 25.714 70.6752 25.7947 70.8366 25.956C70.9979 26.1173 71.1079 26.396 71.1666 26.792L71.4305 30.18ZM132.589 16.474L122.755 48H118.927L110.941 23.954C110.867 23.7193 110.794 23.47 110.721 23.206C110.662 22.942 110.596 22.6633 110.523 22.37C110.449 22.6633 110.376 22.942 110.303 23.206C110.23 23.47 110.156 23.7193 110.083 23.954L102.053 48H98.2248L88.3908 16.474H91.9328C92.3142 16.474 92.6295 16.5693 92.8788 16.76C93.1428 16.9507 93.3115 17.1927 93.3848 17.486L99.8968 39.398C99.9995 39.794 100.095 40.2193 100.183 40.674C100.285 41.1287 100.381 41.6127 100.469 42.126C100.571 41.6127 100.674 41.1287 100.777 40.674C100.894 40.2047 101.019 39.7793 101.151 39.398L108.565 17.486C108.653 17.2367 108.821 17.0093 109.071 16.804C109.335 16.584 109.65 16.474 110.017 16.474H111.249C111.63 16.474 111.938 16.5693 112.173 16.76C112.407 16.9507 112.583 17.1927 112.701 17.486L120.093 39.398C120.225 39.7793 120.342 40.19 120.445 40.63C120.562 41.07 120.672 41.532 120.775 42.016C120.848 41.532 120.929 41.07 121.017 40.63C121.105 40.19 121.2 39.7793 121.303 39.398L127.837 17.486C127.91 17.222 128.072 16.9873 128.321 16.782C128.585 16.5767 128.9 16.474 129.267 16.474H132.589ZM141.94 25.362C143.568 25.362 145.034 25.6333 146.34 26.176C147.645 26.7187 148.76 27.4887 149.684 28.486C150.608 29.4833 151.312 30.6933 151.796 32.116C152.294 33.524 152.544 35.1007 152.544 36.846C152.544 38.606 152.294 40.19 151.796 41.598C151.312 43.006 150.608 44.2087 149.684 45.206C148.76 46.2033 147.645 46.9733 146.34 47.516C145.034 48.044 143.568 48.308 141.94 48.308C140.297 48.308 138.816 48.044 137.496 47.516C136.19 46.9733 135.076 46.2033 134.152 45.206C133.228 44.2087 132.516 43.006 132.018 41.598C131.534 40.19 131.292 38.606 131.292 36.846C131.292 35.1007 131.534 33.524 132.018 32.116C132.516 30.6933 133.228 29.4833 134.152 28.486C135.076 27.4887 136.19 26.7187 137.496 26.176C138.816 25.6333 140.297 25.362 141.94 25.362ZM141.94 45.25C144.14 45.25 145.782 44.5167 146.868 43.05C147.953 41.5687 148.496 39.508 148.496 36.868C148.496 34.2133 147.953 32.1453 146.868 30.664C145.782 29.1827 144.14 28.442 141.94 28.442C140.825 28.442 139.85 28.6327 139.014 29.014C138.192 29.3953 137.503 29.9453 136.946 30.664C136.403 31.3827 135.992 32.27 135.714 33.326C135.45 34.3673 135.318 35.548 135.318 36.868C135.318 39.508 135.86 41.5687 136.946 43.05C138.046 44.5167 139.71 45.25 141.94 45.25ZM159.908 30.18C160.612 28.6547 161.478 27.4667 162.504 26.616C163.531 25.7507 164.785 25.318 166.266 25.318C166.736 25.318 167.183 25.3693 167.608 25.472C168.048 25.5747 168.437 25.736 168.774 25.956L168.488 28.882C168.4 29.2487 168.18 29.432 167.828 29.432C167.623 29.432 167.322 29.388 166.926 29.3C166.53 29.212 166.083 29.168 165.584 29.168C164.88 29.168 164.25 29.2707 163.692 29.476C163.15 29.6813 162.658 29.9893 162.218 30.4C161.793 30.796 161.404 31.2947 161.052 31.896C160.715 32.4827 160.407 33.1573 160.128 33.92V48H156.19V25.714H158.434C158.86 25.714 159.153 25.7947 159.314 25.956C159.476 26.1173 159.586 26.396 159.644 26.792L159.908 30.18ZM174.946 15.594V48H171.03V15.594H174.946ZM194.496 31.016C193.763 30.0333 192.971 29.3513 192.12 28.97C191.269 28.574 190.316 28.376 189.26 28.376C187.192 28.376 185.601 29.1167 184.486 30.598C183.371 32.0793 182.814 34.1913 182.814 36.934C182.814 38.386 182.939 39.6327 183.188 40.674C183.437 41.7007 183.804 42.5513 184.288 43.226C184.772 43.886 185.366 44.37 186.07 44.678C186.774 44.986 187.573 45.14 188.468 45.14C189.759 45.14 190.881 44.8467 191.834 44.26C192.802 43.6733 193.689 42.8447 194.496 41.774V31.016ZM198.412 15.594V48H196.08C195.523 48 195.171 47.7287 195.024 47.186L194.672 44.48C193.719 45.624 192.633 46.548 191.416 47.252C190.199 47.956 188.791 48.308 187.192 48.308C185.916 48.308 184.757 48.066 183.716 47.582C182.675 47.0833 181.787 46.3573 181.054 45.404C180.321 44.4507 179.756 43.2627 179.36 41.84C178.964 40.4173 178.766 38.782 178.766 36.934C178.766 35.2913 178.986 33.766 179.426 32.358C179.866 30.9353 180.497 29.7033 181.318 28.662C182.139 27.6207 183.144 26.8067 184.332 26.22C185.535 25.6187 186.884 25.318 188.38 25.318C189.744 25.318 190.91 25.5527 191.878 26.022C192.861 26.4767 193.733 27.1147 194.496 27.936V15.594H198.412ZM46.6139 70.714V93H42.6979V70.714H46.6139ZM47.4499 63.718C47.4499 64.0993 47.3692 64.4587 47.2079 64.796C47.0612 65.1187 46.8559 65.412 46.5919 65.676C46.3425 65.9253 46.0419 66.1233 45.6899 66.27C45.3525 66.4167 44.9932 66.49 44.6119 66.49C44.2305 66.49 43.8712 66.4167 43.5339 66.27C43.2112 66.1233 42.9252 65.9253 42.6759 65.676C42.4265 65.412 42.2285 65.1187 42.0819 64.796C41.9352 64.4587 41.8619 64.0993 41.8619 63.718C41.8619 63.3367 41.9352 62.9773 42.0819 62.64C42.2285 62.288 42.4265 61.9873 42.6759 61.738C42.9252 61.474 43.2112 61.2687 43.5339 61.122C43.8712 60.9753 44.2305 60.902 44.6119 60.902C44.9932 60.902 45.3525 60.9753 45.6899 61.122C46.0419 61.2687 46.3425 61.474 46.5919 61.738C46.8559 61.9873 47.0612 62.288 47.2079 62.64C47.3692 62.9773 47.4499 63.3367 47.4499 63.718ZM55.4242 73.948C55.9082 73.4053 56.4215 72.914 56.9642 72.474C57.5068 72.034 58.0788 71.66 58.6802 71.352C59.2962 71.0293 59.9415 70.7873 60.6162 70.626C61.3055 70.45 62.0462 70.362 62.8382 70.362C64.0555 70.362 65.1262 70.5673 66.0502 70.978C66.9888 71.374 67.7662 71.946 68.3822 72.694C69.0128 73.4273 69.4895 74.3147 69.8122 75.356C70.1348 76.3973 70.2962 77.5487 70.2962 78.81V93H66.3582V78.81C66.3582 77.1233 65.9695 75.818 65.1922 74.894C64.4295 73.9553 63.2635 73.486 61.6942 73.486C60.5355 73.486 59.4502 73.7647 58.4382 74.322C57.4408 74.8793 56.5168 75.6347 55.6662 76.588V93H51.7282V70.714H54.0822C54.6395 70.714 54.9842 70.9853 55.1162 71.528L55.4242 73.948ZM113.129 77.248C113.129 79.6093 112.755 81.758 112.007 83.694C111.259 85.63 110.203 87.2873 108.839 88.666C107.475 90.0447 105.832 91.1153 103.911 91.878C102.004 92.626 99.8925 93 97.5751 93H85.8051V61.474H97.5751C99.8925 61.474 102.004 61.8553 103.911 62.618C105.832 63.366 107.475 64.4367 108.839 65.83C110.203 67.2087 111.259 68.866 112.007 70.802C112.755 72.738 113.129 74.8867 113.129 77.248ZM108.751 77.248C108.751 75.312 108.487 73.5813 107.959 72.056C107.431 70.5307 106.683 69.24 105.715 68.184C104.747 67.128 103.574 66.3213 102.195 65.764C100.816 65.2067 99.2765 64.928 97.5751 64.928H90.0731V89.546H97.5751C99.2765 89.546 100.816 89.2673 102.195 88.71C103.574 88.1527 104.747 87.3533 105.715 86.312C106.683 85.256 107.431 83.9653 107.959 82.44C108.487 80.9147 108.751 79.184 108.751 77.248ZM128.553 82.968C126.749 83.0267 125.209 83.1733 123.933 83.408C122.672 83.628 121.638 83.9213 120.831 84.288C120.039 84.6547 119.46 85.0873 119.093 85.586C118.741 86.0847 118.565 86.642 118.565 87.258C118.565 87.8447 118.661 88.3507 118.851 88.776C119.042 89.2013 119.299 89.5533 119.621 89.832C119.959 90.096 120.347 90.294 120.787 90.426C121.242 90.5433 121.726 90.602 122.239 90.602C122.929 90.602 123.559 90.536 124.131 90.404C124.703 90.2573 125.239 90.052 125.737 89.788C126.251 89.524 126.735 89.2087 127.189 88.842C127.659 88.4753 128.113 88.0573 128.553 87.588V82.968ZM115.903 73.86C117.135 72.672 118.463 71.7847 119.885 71.198C121.308 70.6113 122.885 70.318 124.615 70.318C125.862 70.318 126.969 70.5233 127.937 70.934C128.905 71.3447 129.719 71.9167 130.379 72.65C131.039 73.3833 131.538 74.2707 131.875 75.312C132.213 76.3533 132.381 77.4973 132.381 78.744V93H130.643C130.262 93 129.969 92.9413 129.763 92.824C129.558 92.692 129.397 92.4427 129.279 92.076L128.839 89.964C128.253 90.5067 127.681 90.9907 127.123 91.416C126.566 91.8267 125.979 92.1787 125.363 92.472C124.747 92.7507 124.087 92.9633 123.383 93.11C122.694 93.2713 121.924 93.352 121.073 93.352C120.208 93.352 119.394 93.2347 118.631 93C117.869 92.7507 117.201 92.384 116.629 91.9C116.072 91.416 115.625 90.8073 115.287 90.074C114.965 89.326 114.803 88.446 114.803 87.434C114.803 86.554 115.045 85.7107 115.529 84.904C116.013 84.0827 116.798 83.3567 117.883 82.726C118.969 82.0953 120.384 81.582 122.129 81.186C123.875 80.7753 126.016 80.5407 128.553 80.482V78.744C128.553 77.0133 128.179 75.708 127.431 74.828C126.683 73.9333 125.591 73.486 124.153 73.486C123.185 73.486 122.371 73.6107 121.711 73.86C121.066 74.0947 120.501 74.366 120.017 74.674C119.548 74.9673 119.137 75.2387 118.785 75.488C118.448 75.7227 118.111 75.84 117.773 75.84C117.509 75.84 117.282 75.774 117.091 75.642C116.901 75.4953 116.739 75.3193 116.607 75.114L115.903 73.86ZM143.568 93.352C141.808 93.352 140.451 92.8607 139.498 91.878C138.559 90.8953 138.09 89.48 138.09 87.632V73.992H135.406C135.171 73.992 134.973 73.926 134.812 73.794C134.65 73.6473 134.57 73.4273 134.57 73.134V71.572L138.222 71.11L139.124 64.224C139.168 64.004 139.263 63.828 139.41 63.696C139.571 63.5493 139.776 63.476 140.026 63.476H142.006V71.154H148.452V73.992H142.006V87.368C142.006 88.3067 142.233 89.0033 142.688 89.458C143.142 89.9127 143.729 90.14 144.448 90.14C144.858 90.14 145.21 90.0887 145.504 89.986C145.812 89.8687 146.076 89.744 146.296 89.612C146.516 89.48 146.699 89.3627 146.846 89.26C147.007 89.1427 147.146 89.084 147.264 89.084C147.469 89.084 147.652 89.2087 147.814 89.458L148.958 91.328C148.283 91.9587 147.469 92.4573 146.516 92.824C145.562 93.176 144.58 93.352 143.568 93.352ZM163.253 82.968C161.449 83.0267 159.909 83.1733 158.633 83.408C157.372 83.628 156.338 83.9213 155.531 84.288C154.739 84.6547 154.16 85.0873 153.793 85.586C153.441 86.0847 153.265 86.642 153.265 87.258C153.265 87.8447 153.36 88.3507 153.551 88.776C153.742 89.2013 153.998 89.5533 154.321 89.832C154.658 90.096 155.047 90.294 155.487 90.426C155.942 90.5433 156.426 90.602 156.939 90.602C157.628 90.602 158.259 90.536 158.831 90.404C159.403 90.2573 159.938 90.052 160.437 89.788C160.95 89.524 161.434 89.2087 161.889 88.842C162.358 88.4753 162.813 88.0573 163.253 87.588V82.968ZM150.603 73.86C151.835 72.672 153.162 71.7847 154.585 71.198C156.008 70.6113 157.584 70.318 159.315 70.318C160.562 70.318 161.669 70.5233 162.637 70.934C163.605 71.3447 164.419 71.9167 165.079 72.65C165.739 73.3833 166.238 74.2707 166.575 75.312C166.912 76.3533 167.081 77.4973 167.081 78.744V93H165.343C164.962 93 164.668 92.9413 164.463 92.824C164.258 92.692 164.096 92.4427 163.979 92.076L163.539 89.964C162.952 90.5067 162.38 90.9907 161.823 91.416C161.266 91.8267 160.679 92.1787 160.063 92.472C159.447 92.7507 158.787 92.9633 158.083 93.11C157.394 93.2713 156.624 93.352 155.773 93.352C154.908 93.352 154.094 93.2347 153.331 93C152.568 92.7507 151.901 92.384 151.329 91.9C150.772 91.416 150.324 90.8073 149.987 90.074C149.664 89.326 149.503 88.446 149.503 87.434C149.503 86.554 149.745 85.7107 150.229 84.904C150.713 84.0827 151.498 83.3567 152.583 82.726C153.668 82.0953 155.084 81.582 156.829 81.186C158.574 80.7753 160.716 80.5407 163.253 80.482V78.744C163.253 77.0133 162.879 75.708 162.131 74.828C161.383 73.9333 160.29 73.486 158.853 73.486C157.885 73.486 157.071 73.6107 156.411 73.86C155.766 74.0947 155.201 74.366 154.717 74.674C154.248 74.9673 153.837 75.2387 153.485 75.488C153.148 75.7227 152.81 75.84 152.473 75.84C152.209 75.84 151.982 75.774 151.791 75.642C151.6 75.4953 151.439 75.3193 151.307 75.114L150.603 73.86Z" fill="white"/>
        <rect y="106.789" width="210" height="13.211" fill="#D42B21"/>
    </g>
    <defs>
        <clipPath id="clip0">
            <rect width="210" height="120" fill="white"/>
        </clipPath>
    </defs>
</svg></g><a href="https://staging-owid.netlify.com/grapher/output-of-key-industrial-sectors-in-england-and-the-uk" target="_blank"><text font-size="25.20" x="15.0" y="35.2" fill="#555"><tspan x="15" y="35.160000000000004">Output of key industrial sectors in England and the UK</tspan></text></a></g><g class="LineChart"><defs><clipPath id="boundsClip-3343"><rect x="50.824" y="0" width="830" height="973"></rect></clipPath></defs><g class="AxisBoxView"><g class="HorizontalAxis"><text x="60.8" y="556.5" fill="#666" text-anchor="middle" font-size="16.2">1270</text><text x="194.4" y="556.5" fill="#666" text-anchor="middle" font-size="16.2">1400</text><text x="297.1" y="556.5" fill="#666" text-anchor="middle" font-size="16.2">1500</text><text x="399.8" y="556.5" fill="#666" text-anchor="middle" font-size="16.2">1600</text><text x="502.5" y="556.5" fill="#666" text-anchor="middle" font-size="16.2">1700</text><text x="605.2" y="556.5" fill="#666" text-anchor="middle" font-size="16.2">1800</text><text x="677.1" y="556.5" fill="#666" text-anchor="middle" font-size="16.2">1870</text></g><g class="VerticalAxis"><text x="55.82" y="477.7" fill="#666" dominant-baseline="middle" text-anchor="end" font-size="16.2">10</text><text x="55.82" y="331.6" fill="#666" dominant-baseline="middle" text-anchor="end" font-size="16.2">100</text><text x="55.82" y="185.5" fill="#666" dominant-baseline="middle" text-anchor="end" font-size="16.2">1,000</text></g><g class="AxisGridLines"><line x1="60.82" y1="477.7" x2="677.15" y2="477.7" stroke="#ddd" stroke-dasharray="3,2"></line><line x1="60.82" y1="331.6" x2="677.15" y2="331.6" stroke="#ddd" stroke-dasharray="3,2"></line><line x1="60.82" y1="185.5" x2="677.15" y2="185.5" stroke="#ddd" stroke-dasharray="3,2"></line></g></g><g clip-path="url(#boundsClip-3343)"><g class="HeightedLegend clickable"><g class="legendMark"><g class="indicator"><line x1="682.15" y1="70" x2="694.65" y2="70" stroke="#666" stroke-width="0.5"></line><line x1="694.65" y1="70" x2="694.65" y2="70" stroke="#666" stroke-width="0.5"></line><line x1="694.65" y1="70" x2="707.15" y2="70" stroke="#666" stroke-width="0.5"></line></g><rect x="677.15" y="63.25" width="144.89" height="13.5" fill="#fff" opacity="0"></rect><text font-size="13.50" x="712.1" y="74.0" fill="#f6a324"><tspan x="712.15" y="74.05">Metals and Mining</tspan></text></g><g class="legendMark"><g class="indicator"><line x1="682.15" y1="147.8" x2="704.65" y2="147.8" stroke="#666" stroke-width="0.5"></line><line x1="704.65" y1="147.8" x2="704.65" y2="147.8" stroke="#666" stroke-width="0.5"></line><line x1="704.65" y1="147.8" x2="707.15" y2="147.8" stroke="#666" stroke-width="0.5"></line></g><rect x="677.15" y="141.05" width="117.08000000000001" height="13.5" fill="#fff" opacity="0"></rect><text font-size="13.50" x="712.1" y="151.9" fill="#34983f"><tspan x="712.15" y="151.85000000000002">Total Industry</tspan></text></g><g class="legendMark"><g class="indicator"><line x1="682.15" y1="148.1" x2="694.65" y2="148.1" stroke="#666" stroke-width="0.5"></line><line x1="694.65" y1="148.1" x2="694.65" y2="163.3" stroke="#666" stroke-width="0.5"></line><line x1="694.65" y1="163.3" x2="707.15" y2="163.3" stroke="#666" stroke-width="0.5"></line></g><rect x="677.15" y="156.55" width="157.85000000000002" height="13.5" fill="#fff" opacity="0"></rect><text font-size="13.50" x="712.1" y="167.4" fill="#ca2628"><tspan x="712.15" y="167.35000000000002">Textiles and Leather</tspan></text></g><g class="legendMark"><g class="indicator"><line x1="682.15" y1="188.1" x2="694.65" y2="188.1" stroke="#666" stroke-width="0.5"></line><line x1="694.65" y1="188.1" x2="694.65" y2="188.1" stroke="#666" stroke-width="0.5"></line><line x1="694.65" y1="188.1" x2="707.15" y2="188.1" stroke="#666" stroke-width="0.5"></line></g><rect x="677.15" y="181.35" width="131.39" height="13.5" fill="#fff" opacity="0"></rect><text font-size="13.50" x="712.1" y="192.2" fill="#3360a9"><tspan x="712.15" y="192.15">Other Industries</tspan></text></g></g><g class="Lines"><rect x="61" y="70" width="616" height="465" fill="rgba(255,255,255,0)" opacity="0"></rect><g class="key-England_0"><path stroke="#34983f" stroke-linecap="round" d="M61 412L62 414L63 413L64 415L65 415L66 409L67 416L68 414L69 415L70 426L71 427L72 425L73 427L74 429L75 430L76 431L77 431L78 426L79 429L80 435L81 433L82 431L83 426L84 422L86 420L87 415L88 412L89 415L90 416L91 416L92 416L93 419L94 411L95 407L96 415L97 416L98 419L99 415L100 412L101 410L102 409L103 407L104 409L105 408L106 405L107 410L108 414L109 412L110 408L111 407L112 410L113 422L114 417L115 416L116 422L117 419L118 417L119 417L120 419L121 417L123 419L124 422L125 420L126 419L127 420L128 423L129 416L130 405L131 404L132 422L133 415L134 408L135 405L136 405L137 402L138 407L139 409L140 408L141 407L142 422L143 429L144 435L145 432L146 427L147 436L148 440L149 432L150 432L151 434L152 432L153 432L154 433L155 439L156 443L157 432L158 434L159 437L161 438L162 436L163 441L164 437L165 441L166 451L167 450L168 454L169 457L170 449L171 443L172 444L173 449L174 444L175 443L176 442L177 441L178 436L179 439L180 432L181 434L182 437L183 433L184 437L185 433L186 426L187 435L188 432L189 432L190 432L191 431L192 430L193 430L194 430L195 431L196 432L197 431L199 430L200 431L201 435L202 436L203 438L204 439L205 438L206 437L207 437L208 444L209 433L210 430L211 431L212 429L213 433L214 430L215 431L216 432L217 431L218 430L219 432L220 432L221 434L222 437L223 444L224 439L225 437L226 435L227 438L228 436L229 429L230 439L231 444L232 444L233 440L234 439L235 447L237 450L238 445L239 440L240 444L241 445L242 445L243 441L244 439L245 440L246 441L247 442L248 442L249 441L250 440L251 442L252 441L253 442L254 442L255 444L256 442L257 442L258 440L259 438L260 442L261 442L262 439L263 439L264 438L265 439L266 439L267 438L268 437L269 439L270 437L271 439L272 443L274 439L275 436L276 437L277 435L278 437L279 438L280 431L281 433L282 435L283 434L284 438L285 438L286 436L287 434L288 433L289 431L290 432L291 432L292 434L293 435L294 432L295 431L296 430L297 430L298 430L299 430L300 429L301 428L302 427L303 426L304 426L305 426L306 425L307 425L308 424L309 423L310 421L312 420L313 419L314 419L315 419L316 419L317 419L318 419L319 416L320 419L321 415L322 414L323 413L324 413L325 413L326 413L327 412L328 412L329 411L330 410L331 410L332 409L333 410L334 412L335 410L336 409L337 407L338 407L339 406L340 406L341 408L342 404L343 403L344 402L345 401L346 403L347 405L348 403L350 405L351 405L352 402L353 403L354 405L355 414L356 413L357 407L358 406L359 397L360 399L361 399L362 398L363 399L364 399L365 394L366 395L367 398L368 393L369 393L370 394L371 392L372 388L373 388L374 386L375 384L376 386L377 385L378 388L379 388L380 393L381 401L382 401L383 402L384 403L385 395L386 398L388 393L389 396L390 394L391 385L392 383L393 383L394 387L395 389L396 390L397 391L398 385L399 380L400 379L401 377L402 375L403 374L404 371L405 373L406 369L407 376L408 376L409 375L410 375L411 377L412 385L413 381L414 380L415 377L416 377L417 375L418 375L419 381L420 377L421 371L422 375L423 371L425 371L426 370L427 372L428 375L429 371L430 378L431 378L432 378L433 374L434 375L435 379L436 377L437 380L438 379L439 370L440 374L441 375L442 376L443 372L444 371L445 374L446 378L447 378L448 375L449 375L450 372L451 372L452 370L453 364L454 359L455 358L456 355L457 361L458 363L459 360L460 376L461 371L463 366L464 366L465 349L466 353L467 354L468 348L469 345L470 348L471 350L472 350L473 354L474 353L475 351L476 354L477 351L478 344L479 344L480 345L481 349L482 344L483 347L484 344L485 341L486 353L487 348L488 350L489 349L490 339L491 340L492 337L493 337L494 333L495 339L496 334L497 334L498 336L499 338L501 335L502 335L503 332L504 325L505 331L506 337L507 322L508 328L509 342L510 333L511 316L512 330L513 341L514 339L515 339L516 335L517 330L518 329L519 326L520 322L521 321L522 318L523 320L524 324L525 321L526 321L527 324L528 322L529 320L530 323L531 325L532 331L533 326L534 328L535 325L536 322L537 322L539 323L540 322L541 329L542 323L543 324L544 326L545 323L546 324L547 324L548 323L549 322L550 320L551 321L552 317L553 318L554 313L555 315L556 313L557 312L558 315L559 312L560 316L561 314L562 315L563 313L564 313L565 311L566 312L567 311L568 307L569 307L570 300L571 305L572 305L573 303L574 303L576 303L577 301L578 304L579 307L580 303L581 302L582 301L583 300L584 303L585 300L586 303L587 298L588 294L589 295L590 293L591 291L592 289L593 289L594 288L595 284L596 285L597 280L598 283L599 284L600 282L601 278L602 282L603 280L604 275L605 266L606 272L607 272L608 270L609 269L610 267L611 269L612 263L614 269L615 268L616 258L617 255L618 261L619 262L620 263L621 254L622 258L623 254L624 251L625 252L626 250L627 247L628 245L629 241L630 236L631 232L632 237L633 231L634 227L635 228L636 223L637 222L638 221L639 218L640 216L641 212L642 208L643 209L644 205L645 205L646 202L647 203L648 208L649 203L650 196L652 189L653 189L654 193L655 188L656 189L657 188L658 185L659 182L660 176L661 174L662 176L663 172L664 169L665 173L666 167L667 165L668 167L669 170L670 166L671 163L672 159L673 156L674 156L675 153L676 153L677 148" fill="none" stroke-width="1.5"></path></g><g class="key-England_1"><path stroke="#f6a324" stroke-linecap="round" d="M93 464L94 453L95 443L96 450L97 444L98 443L99 445L100 446L101 447L102 447L103 446L104 446L105 446L106 446L107 448L108 453L109 474L110 468L111 463L112 458L113 453L114 448L115 444L116 435L117 431L118 427L119 423L120 419L121 415L123 411L124 406L125 402L126 411L127 417L128 409L129 409L130 414L131 421L132 431L133 431L134 425L135 425L136 431L137 437L138 444L139 452L140 462L141 473L142 486L143 503L144 525L145 501L146 495L147 489L148 478L149 475L150 473L151 472L152 471L153 470L154 470L155 496L156 491L157 486L158 482L159 477L161 469L162 461L163 464L164 467L165 469L166 472L167 475L168 478L169 480L170 469L171 458L172 448L173 445L174 443L175 440L176 437L177 435L178 431L179 429L180 417L181 415L182 416L183 417L184 418L185 419L186 421L187 421L188 417L189 415L190 416L191 411L192 411L193 408L194 404L195 405L196 406L197 407L199 409L200 410L201 411L202 412L203 412L204 412L205 412L206 411L207 411L208 414L209 405L210 406L211 410L212 419L213 427L214 425L215 424L216 422L217 420L218 419L219 424L220 419L221 424L222 425L223 433L224 422L225 425L226 422L227 432L228 434L229 428L230 439L231 434L232 447L233 437L234 438L235 445L237 440L238 451L239 443L240 444L241 444L242 445L243 436L244 440L245 437L246 438L247 443L248 443L249 445L250 445L251 446L252 446L253 448L254 449L255 451L256 452L257 451L258 450L259 451L260 452L261 443L262 429L263 429L264 430L265 432L266 427L267 434L268 428L269 429L270 430L271 431L272 433L274 434L275 432L276 432L277 432L278 431L279 431L280 431L281 431L282 430L283 430L284 430L285 426L286 422L287 419L288 417L289 417L290 417L291 417L292 420L293 417L294 414L295 416L296 417L297 422L298 415L299 417L300 418L301 419L302 417L303 416L304 414L305 412L306 412L307 410L308 408L309 406L310 403L312 400L313 398L314 399L315 399L316 399L317 397L318 397L319 390L320 404L321 396L322 392L323 392L324 392L325 389L326 390L327 391L328 393L329 392L330 392L331 392L332 389L333 391L334 397L335 395L336 391L337 388L338 387L339 383L340 384L341 390L342 386L343 384L344 382L345 381L346 387L347 394L348 389L350 385L351 380L352 375L353 380L354 383L355 402L356 402L357 405L358 405L359 407L360 405L361 410L362 415L363 408L364 411L365 408L366 403L367 419L368 404L369 414L370 415L371 416L372 412L373 414L374 409L375 404L376 402L377 408L378 403L379 395L380 398L381 398L382 398L383 398L384 397L385 400L386 405L388 401L389 402L390 398L391 392L392 388L393 390L394 384L395 383L396 384L397 391L398 395L399 390L400 387L401 382L402 376L403 383L404 380L405 380L406 381L407 380L408 378L409 381L410 383L411 383L412 380L413 377L414 377L415 375L416 377L417 374L418 370L419 368L420 366L421 359L422 364L423 359L425 377L426 367L427 368L428 368L429 368L430 368L431 365L432 363L433 362L434 360L435 368L436 367L437 370L438 367L439 361L440 384L441 400L442 396L443 389L444 393L445 400L446 387L447 395L448 392L449 404L450 388L451 387L452 386L453 384L454 383L455 381L456 382L457 383L458 384L459 364L460 370L461 369L463 360L464 362L465 357L466 373L467 382L468 370L469 347L470 352L471 352L472 349L473 354L474 356L475 347L476 352L477 338L478 338L479 330L480 333L481 338L482 333L483 337L484 329L485 329L486 332L487 334L488 327L489 334L490 342L491 340L492 339L493 342L494 339L495 340L496 344L497 340L498 345L499 344L501 335L502 329L503 332L504 327L505 343L506 335L507 330L508 333L509 336L510 338L511 330L512 329L513 331L514 330L515 331L516 331L517 325L518 328L519 324L520 317L521 316L522 315L523 316L524 316L525 317L526 317L527 317L528 316L529 315L530 316L531 319L532 317L533 321L534 320L535 321L536 319L537 323L539 320L540 321L541 323L542 321L543 319L544 313L545 320L546 316L547 315L548 315L549 315L550 312L551 313L552 313L553 310L554 308L555 304L556 304L557 304L558 302L559 304L560 301L561 302L562 305L563 299L564 301L565 301L566 300L567 297L568 297L569 296L570 294L571 296L572 294L573 293L574 293L576 291L577 291L578 293L579 295L580 293L581 291L582 290L583 292L584 292L585 291L586 291L587 289L588 286L589 286L590 280L591 276L592 276L593 271L594 267L595 264L596 261L597 258L598 258L599 258L600 253L601 255L602 248L603 247L604 243L605 235L606 234L607 228L608 225L609 223L610 222L611 218L612 218L614 214L615 216L616 213L617 209L618 209L619 210L620 207L621 207L622 210L623 213L624 209L625 210L626 204L627 199L628 200L629 190L630 185L631 183L632 183L633 175L634 175L635 174L636 172L637 175L638 172L639 168L640 166L641 159L642 158L643 156L644 152L645 147L646 143L647 143L648 152L649 147L650 129L652 135L653 130L654 126L655 124L656 123L657 119L658 115L659 112L660 108L661 104L662 101L663 96L664 96L665 98L666 94L667 92L668 92L669 89L670 85L671 81L672 79L673 81L674 80L675 78L676 75L677 70" fill="none" stroke-width="1.5"></path></g><g class="key-England_2"><path stroke="#ca2628" stroke-linecap="round" d="M61 393L62 395L63 397L64 396L65 395L66 395L67 398L68 399L69 404L70 408L71 410L72 413L73 414L74 413L75 418L76 422L77 420L78 422L79 425L80 428L81 425L82 421L83 415L84 408L86 406L87 401L88 399L89 401L90 407L91 402L92 401L93 406L94 398L95 395L96 402L97 409L98 413L99 408L100 403L101 399L102 397L103 396L104 399L105 399L106 390L107 388L108 390L109 388L110 391L111 390L112 394L113 404L114 400L115 402L116 410L117 415L118 415L119 412L120 411L121 415L123 423L124 427L125 435L126 431L127 426L128 435L129 418L130 397L131 394L132 411L133 409L134 394L135 392L136 388L137 386L138 389L139 387L140 388L141 387L142 386L143 387L144 388L145 387L146 381L147 393L148 402L149 388L150 390L151 393L152 390L153 391L154 390L155 396L156 401L157 392L158 392L159 398L161 398L162 397L163 401L164 399L165 405L166 415L167 418L168 419L169 421L170 418L171 412L172 417L173 420L174 413L175 414L176 415L177 410L178 409L179 408L180 406L181 410L182 411L183 404L184 407L185 405L186 398L187 403L188 403L189 401L190 400L191 401L192 401L193 400L194 400L195 400L196 403L197 401L199 399L200 401L201 406L202 407L203 409L204 413L205 414L206 409L207 410L208 416L209 406L210 400L211 399L212 396L213 396L214 394L215 395L216 395L217 396L218 398L219 399L220 399L221 401L222 405L223 410L224 407L225 405L226 401L227 403L228 399L229 392L230 400L231 409L232 403L233 400L234 400L235 411L237 412L238 401L239 405L240 412L241 405L242 407L243 405L244 401L245 400L246 401L247 402L248 402L249 402L250 400L251 403L252 402L253 399L254 401L255 405L256 402L257 402L258 404L259 401L260 404L261 403L262 402L263 404L264 405L265 405L266 405L267 400L268 402L269 405L270 404L271 404L272 407L274 403L275 400L276 404L277 404L278 404L279 404L280 399L281 398L282 399L283 402L284 406L285 406L286 406L287 407L288 410L289 406L290 407L291 409L292 411L293 413L294 411L295 409L296 407L297 405L298 405L299 407L300 407L301 405L302 404L303 402L304 402L305 403L306 403L307 403L308 403L309 401L310 399L312 400L313 400L314 400L315 399L316 399L317 400L318 401L319 399L320 396L321 395L322 394L323 393L324 393L325 394L326 394L327 392L328 391L329 391L330 390L331 389L332 389L333 389L334 389L335 389L336 388L337 388L338 388L339 388L340 388L341 387L342 383L343 383L344 382L345 382L346 382L347 381L348 381L350 388L351 388L352 389L353 388L354 390L355 393L356 393L357 384L358 381L359 367L360 370L361 368L362 367L363 371L364 370L365 365L366 367L367 367L368 365L369 361L370 363L371 359L372 355L373 354L374 354L375 354L376 354L377 353L378 360L379 362L380 370L381 382L382 387L383 388L384 388L385 370L386 378L388 373L389 375L390 374L391 360L392 361L393 362L394 367L395 372L396 372L397 369L398 361L399 360L400 358L401 355L402 356L403 353L404 351L405 352L406 345L407 358L408 357L409 361L410 363L411 362L412 382L413 371L414 369L415 367L416 364L417 367L418 369L419 381L420 383L421 372L422 372L423 365L425 363L426 366L427 368L428 376L429 375L430 376L431 378L432 378L433 378L434 378L435 388L436 387L437 388L438 388L439 374L440 373L441 372L442 369L443 378L444 372L445 378L446 382L447 378L448 376L449 372L450 368L451 363L452 362L453 357L454 356L455 351L456 350L457 357L458 358L459 357L460 388L461 386L463 372L464 373L465 341L466 341L467 342L468 342L469 342L470 342L471 348L472 348L473 354L474 349L475 350L476 352L477 355L478 350L479 349L480 353L481 357L482 359L483 353L484 351L485 350L486 372L487 364L488 369L489 371L490 339L491 341L492 337L493 340L494 335L495 336L496 337L497 333L498 333L499 336L501 335L502 334L503 332L504 314L505 321L506 342L507 313L508 326L509 353L510 336L511 301L512 325L513 350L514 340L515 327L516 316L517 320L518 321L519 308L520 305L521 308L522 299L523 312L524 317L525 308L526 303L527 321L528 315L529 306L530 317L531 320L532 327L533 321L534 321L535 322L536 316L537 314L539 316L540 315L541 327L542 314L543 314L544 318L545 314L546 317L547 316L548 314L549 314L550 312L551 312L552 307L553 308L554 306L555 306L556 303L557 303L558 307L559 304L560 309L561 304L562 306L563 306L564 307L565 303L566 303L567 304L568 298L569 300L570 289L571 294L572 296L573 293L574 295L576 295L577 293L578 296L579 299L580 297L581 295L582 293L583 292L584 296L585 295L586 294L587 288L588 286L589 285L590 283L591 282L592 279L593 280L594 277L595 275L596 275L597 271L598 276L599 275L600 273L601 271L602 277L603 273L604 265L605 264L606 267L607 265L608 266L609 261L610 260L611 261L612 256L614 263L615 260L616 254L617 251L618 256L619 255L620 255L621 247L622 249L623 239L624 237L625 241L626 241L627 236L628 232L629 229L630 225L631 222L632 235L633 220L634 215L635 218L636 211L637 210L638 211L639 205L640 203L641 203L642 195L643 200L644 194L645 196L646 193L647 192L648 192L649 186L650 181L652 177L653 181L654 189L655 180L656 176L657 179L658 176L659 172L660 164L661 168L662 169L663 164L664 159L665 166L666 157L667 155L668 160L669 180L670 177L671 174L672 164L673 157L674 156L675 152L676 158L677 148" fill="none" stroke-width="1.5"></path></g><g class="key-England_3"><path stroke="#3360a9" stroke-linecap="round" d="M61 475L62 475L63 472L64 476L65 477L66 467L67 475L68 470L69 467L70 478L71 476L72 471L73 472L74 475L75 472L76 470L77 471L78 465L79 466L80 471L81 471L82 471L83 469L84 468L86 469L87 466L88 464L89 466L90 462L91 465L92 466L93 465L94 465L95 464L96 470L97 467L98 468L99 465L100 465L101 464L102 465L103 463L104 464L105 463L106 464L107 473L108 476L109 473L110 466L111 467L112 468L113 479L114 476L115 474L116 480L117 475L118 474L119 475L120 480L121 475L123 476L124 479L125 474L126 471L127 473L128 475L129 473L130 467L131 466L132 476L133 469L134 470L135 467L136 468L137 463L138 467L139 470L140 466L141 463L142 489L143 501L144 512L145 510L146 512L147 513L148 509L149 513L150 512L151 511L152 511L153 511L154 514L155 514L156 515L157 510L158 513L159 510L161 515L162 516L163 519L164 512L165 513L166 517L167 513L168 517L169 520L170 512L171 512L172 513L173 519L174 519L175 518L176 517L177 521L178 514L179 521L180 516L181 516L182 521L183 521L184 525L185 518L186 512L187 524L188 519L189 523L190 523L191 525L192 521L193 525L194 529L195 530L196 527L197 526L199 525L200 525L201 529L202 528L203 533L204 530L205 527L206 529L207 530L208 535L209 530L210 530L211 532L212 525L213 528L214 525L215 526L216 531L217 529L218 526L219 524L220 527L221 527L222 528L223 530L224 529L225 527L226 527L227 527L228 526L229 524L230 529L231 531L232 535L233 533L234 530L235 528L237 535L238 535L239 523L240 521L241 532L242 528L243 527L244 526L245 531L246 529L247 528L248 528L249 527L250 527L251 526L252 525L253 531L254 527L255 526L256 526L257 525L258 519L259 518L260 523L261 524L262 526L263 523L264 520L265 520L266 521L267 524L268 522L269 521L270 518L271 519L272 523L274 521L275 519L276 515L277 512L278 514L279 517L280 514L281 515L282 517L283 510L284 514L285 513L286 512L287 512L288 511L289 511L290 512L291 508L292 508L293 509L294 506L295 505L296 504L297 505L298 510L299 506L300 503L301 503L302 501L303 502L304 503L305 501L306 497L307 500L308 500L309 504L310 502L312 503L313 500L314 501L315 500L316 500L317 501L318 500L319 500L320 497L321 497L322 496L323 494L324 493L325 499L326 496L327 495L328 491L329 495L330 491L331 490L332 485L333 490L334 489L335 482L336 487L337 480L338 481L339 486L340 481L341 483L342 479L343 483L344 482L345 475L346 474L347 477L348 476L350 477L351 479L352 466L353 472L354 470L355 480L356 473L357 457L358 465L359 468L360 465L361 464L362 456L363 458L364 456L365 447L366 450L367 448L368 448L369 452L370 451L371 453L372 443L373 452L374 442L375 438L376 450L377 437L378 435L379 437L380 436L381 441L382 429L383 429L384 437L385 443L386 431L388 423L389 431L390 425L391 429L392 422L393 417L394 432L395 428L396 431L397 435L398 422L399 410L400 413L401 415L402 410L403 403L404 399L405 406L406 403L407 405L408 410L409 395L410 389L411 395L412 394L413 398L414 402L415 394L416 398L417 390L418 389L419 393L420 379L421 380L422 389L423 391L425 379L426 378L427 383L428 380L429 368L430 391L431 391L432 390L433 379L434 382L435 377L436 373L437 378L438 378L439 374L440 369L441 365L442 372L443 357L444 357L445 358L446 369L447 368L448 365L449 362L450 368L451 374L452 371L453 359L454 349L455 353L456 347L457 352L458 357L459 362L460 368L461 357L463 362L464 361L465 355L466 357L467 354L468 344L469 346L470 355L471 351L472 352L473 354L474 356L475 354L476 357L477 356L478 341L479 350L480 344L481 348L482 337L483 348L484 347L485 340L486 351L487 342L488 351L489 340L490 338L491 339L492 334L493 332L494 327L495 343L496 325L497 330L498 335L499 336L501 334L502 340L503 332L504 337L505 338L506 332L507 328L508 328L509 334L510 326L511 330L512 337L513 337L514 345L515 345L516 341L517 340L518 337L519 343L520 339L521 337L522 336L523 330L524 336L525 334L526 336L527 335L528 334L529 335L530 335L531 334L532 342L533 336L534 340L535 331L536 333L537 333L539 334L540 333L541 334L542 336L543 341L544 339L545 337L546 334L547 335L548 339L549 335L550 334L551 338L552 332L553 337L554 322L555 332L556 331L557 329L558 331L559 325L560 328L561 333L562 332L563 328L564 324L565 323L566 327L567 323L568 325L569 318L570 319L571 325L572 322L573 321L574 316L576 315L577 313L578 316L579 319L580 311L581 315L582 313L583 312L584 313L585 306L586 316L587 313L588 305L589 312L590 313L591 309L592 307L593 308L594 311L595 301L596 307L597 297L598 300L599 304L600 301L601 292L602 297L603 302L604 301L605 273L606 287L607 294L608 288L609 293L610 289L611 296L612 287L614 299L615 298L616 277L617 275L618 285L619 293L620 298L621 279L622 289L623 289L624 283L625 279L626 276L627 281L628 279L629 278L630 270L631 263L632 260L633 270L634 266L635 263L636 262L637 256L638 253L639 254L640 253L641 246L642 246L643 244L644 242L645 241L646 240L647 244L648 252L649 247L650 243L652 229L653 225L654 231L655 230L656 233L657 232L658 230L659 227L660 221L661 216L662 223L663 220L664 217L665 218L666 215L667 212L668 213L669 205L670 202L671 199L672 196L673 195L674 196L675 192L676 190L677 188" fill="none" stroke-width="1.5"></path></g></g></g></g><g class="SourcesFooter" style="fill:#777"><g class="clickable" style="fill:#777"><text font-size="12.60" x="15.0" y="581.6"><tspan x="15" y="581.58">Source: Output of key industrial sectors in England - Bank of England (2017)</tspan></text></g><text font-size="12.60" x="796.4" y="581.6"><tspan x="796.444" y="581.58"><a style="fill: #777;" class="cclogo" href="http://creativecommons.org/licenses/by/4.0/deed.en_US" target="_blank">CC BY</a></tspan></text></g></svg>