<svg xmlns="http://www.w3.org/2000/svg" version="1.1" style="font-family:Lato, &#x27;Helvetica Neue&#x27;, Helvetica, Arial, sans-serif;font-size:18px;background-color:white;text-rendering:optimizeLegibility;-webkit-font-smoothing:antialiased" width="850" height="600"><g class="HeaderView"><g transform="translate(774, 15) scale(0.29)"><svg width="210" height="120" viewBox="0 0 210 120" fill="none" xmlns="http://www.w3.org/2000/svg">
    <g clip-path="url(#clip0)">
        <path d="M0 0H210V107.89H0V0Z" fill="#002147"/>
        <path d="M40.9788 32.248C40.9788 34.6093 40.6048 36.78 39.8568 38.76C39.1088 40.7253 38.0528 42.4193 36.6888 43.842C35.3248 45.2647 33.6821 46.372 31.7608 47.164C29.8541 47.9413 27.7421 48.33 25.4248 48.33C23.1074 48.33 20.9954 47.9413 19.0888 47.164C17.1821 46.372 15.5468 45.2647 14.1828 43.842C12.8188 42.4193 11.7628 40.7253 11.0148 38.76C10.2668 36.78 9.89277 34.6093 9.89277 32.248C9.89277 29.8867 10.2668 27.7233 11.0148 25.758C11.7628 23.778 12.8188 22.0767 14.1828 20.654C15.5468 19.2167 17.1821 18.102 19.0888 17.31C20.9954 16.518 23.1074 16.122 25.4248 16.122C27.7421 16.122 29.8541 16.518 31.7608 17.31C33.6821 18.102 35.3248 19.2167 36.6888 20.654C38.0528 22.0767 39.1088 23.778 39.8568 25.758C40.6048 27.7233 40.9788 29.8867 40.9788 32.248ZM36.6008 32.248C36.6008 30.312 36.3368 28.574 35.8088 27.034C35.2808 25.494 34.5328 24.196 33.5648 23.14C32.5968 22.0693 31.4234 21.248 30.0448 20.676C28.6661 20.104 27.1261 19.818 25.4248 19.818C23.7381 19.818 22.2054 20.104 20.8268 20.676C19.4481 21.248 18.2674 22.0693 17.2848 23.14C16.3168 24.196 15.5688 25.494 15.0408 27.034C14.5128 28.574 14.2488 30.312 14.2488 32.248C14.2488 34.184 14.5128 35.922 15.0408 37.462C15.5688 38.9873 16.3168 40.2853 17.2848 41.356C18.2674 42.412 19.4481 43.226 20.8268 43.798C22.2054 44.3553 23.7381 44.634 25.4248 44.634C27.1261 44.634 28.6661 44.3553 30.0448 43.798C31.4234 43.226 32.5968 42.412 33.5648 41.356C34.5328 40.2853 35.2808 38.9873 35.8088 37.462C36.3368 35.922 36.6008 34.184 36.6008 32.248ZM62.8234 25.714V48H60.4914C59.9341 48 59.5821 47.7287 59.4354 47.186L59.1274 44.788C58.1594 45.8587 57.0741 46.724 55.8714 47.384C54.6687 48.0293 53.2901 48.352 51.7354 48.352C50.5181 48.352 49.4401 48.154 48.5014 47.758C47.5774 47.3473 46.8001 46.7753 46.1694 46.042C45.5387 45.3087 45.0621 44.4213 44.7394 43.38C44.4314 42.3387 44.2774 41.1873 44.2774 39.926V25.714H48.1934V39.926C48.1934 41.6127 48.5747 42.918 49.3374 43.842C50.1147 44.766 51.2954 45.228 52.8794 45.228C54.0381 45.228 55.1161 44.9567 56.1134 44.414C57.1254 43.8567 58.0567 43.094 58.9074 42.126V25.714H62.8234ZM71.4305 30.18C72.1346 28.6547 72.9999 27.4667 74.0266 26.616C75.0532 25.7507 76.3072 25.318 77.7886 25.318C78.2579 25.318 78.7052 25.3693 79.1306 25.472C79.5706 25.5747 79.9592 25.736 80.2966 25.956L80.0106 28.882C79.9226 29.2487 79.7026 29.432 79.3506 29.432C79.1452 29.432 78.8446 29.388 78.4486 29.3C78.0526 29.212 77.6052 29.168 77.1066 29.168C76.4026 29.168 75.7719 29.2707 75.2146 29.476C74.6719 29.6813 74.1806 29.9893 73.7406 30.4C73.3152 30.796 72.9266 31.2947 72.5746 31.896C72.2372 32.4827 71.9292 33.1573 71.6506 33.92V48H67.7125V25.714H69.9566C70.3819 25.714 70.6752 25.7947 70.8366 25.956C70.9979 26.1173 71.1079 26.396 71.1666 26.792L71.4305 30.18ZM132.589 16.474L122.755 48H118.927L110.941 23.954C110.867 23.7193 110.794 23.47 110.721 23.206C110.662 22.942 110.596 22.6633 110.523 22.37C110.449 22.6633 110.376 22.942 110.303 23.206C110.23 23.47 110.156 23.7193 110.083 23.954L102.053 48H98.2248L88.3908 16.474H91.9328C92.3142 16.474 92.6295 16.5693 92.8788 16.76C93.1428 16.9507 93.3115 17.1927 93.3848 17.486L99.8968 39.398C99.9995 39.794 100.095 40.2193 100.183 40.674C100.285 41.1287 100.381 41.6127 100.469 42.126C100.571 41.6127 100.674 41.1287 100.777 40.674C100.894 40.2047 101.019 39.7793 101.151 39.398L108.565 17.486C108.653 17.2367 108.821 17.0093 109.071 16.804C109.335 16.584 109.65 16.474 110.017 16.474H111.249C111.63 16.474 111.938 16.5693 112.173 16.76C112.407 16.9507 112.583 17.1927 112.701 17.486L120.093 39.398C120.225 39.7793 120.342 40.19 120.445 40.63C120.562 41.07 120.672 41.532 120.775 42.016C120.848 41.532 120.929 41.07 121.017 40.63C121.105 40.19 121.2 39.7793 121.303 39.398L127.837 17.486C127.91 17.222 128.072 16.9873 128.321 16.782C128.585 16.5767 128.9 16.474 129.267 16.474H132.589ZM141.94 25.362C143.568 25.362 145.034 25.6333 146.34 26.176C147.645 26.7187 148.76 27.4887 149.684 28.486C150.608 29.4833 151.312 30.6933 151.796 32.116C152.294 33.524 152.544 35.1007 152.544 36.846C152.544 38.606 152.294 40.19 151.796 41.598C151.312 43.006 150.608 44.2087 149.684 45.206C148.76 46.2033 147.645 46.9733 146.34 47.516C145.034 48.044 143.568 48.308 141.94 48.308C140.297 48.308 138.816 48.044 137.496 47.516C136.19 46.9733 135.076 46.2033 134.152 45.206C133.228 44.2087 132.516 43.006 132.018 41.598C131.534 40.19 131.292 38.606 131.292 36.846C131.292 35.1007 131.534 33.524 132.018 32.116C132.516 30.6933 133.228 29.4833 134.152 28.486C135.076 27.4887 136.19 26.7187 137.496 26.176C138.816 25.6333 140.297 25.362 141.94 25.362ZM141.94 45.25C144.14 45.25 145.782 44.5167 146.868 43.05C147.953 41.5687 148.496 39.508 148.496 36.868C148.496 34.2133 147.953 32.1453 146.868 30.664C145.782 29.1827 144.14 28.442 141.94 28.442C140.825 28.442 139.85 28.6327 139.014 29.014C138.192 29.3953 137.503 29.9453 136.946 30.664C136.403 31.3827 135.992 32.27 135.714 33.326C135.45 34.3673 135.318 35.548 135.318 36.868C135.318 39.508 135.86 41.5687 136.946 43.05C138.046 44.5167 139.71 45.25 141.94 45.25ZM159.908 30.18C160.612 28.6547 161.478 27.4667 162.504 26.616C163.531 25.7507 164.785 25.318 166.266 25.318C166.736 25.318 167.183 25.3693 167.608 25.472C168.048 25.5747 168.437 25.736 168.774 25.956L168.488 28.882C168.4 29.2487 168.18 29.432 167.828 29.432C167.623 29.432 167.322 29.388 166.926 29.3C166.53 29.212 166.083 29.168 165.584 29.168C164.88 29.168 164.25 29.2707 163.692 29.476C163.15 29.6813 162.658 29.9893 162.218 30.4C161.793 30.796 161.404 31.2947 161.052 31.896C160.715 32.4827 160.407 33.1573 160.128 33.92V48H156.19V25.714H158.434C158.86 25.714 159.153 25.7947 159.314 25.956C159.476 26.1173 159.586 26.396 159.644 26.792L159.908 30.18ZM174.946 15.594V48H171.03V15.594H174.946ZM194.496 31.016C193.763 30.0333 192.971 29.3513 192.12 28.97C191.269 28.574 190.316 28.376 189.26 28.376C187.192 28.376 185.601 29.1167 184.486 30.598C183.371 32.0793 182.814 34.1913 182.814 36.934C182.814 38.386 182.939 39.6327 183.188 40.674C183.437 41.7007 183.804 42.5513 184.288 43.226C184.772 43.886 185.366 44.37 186.07 44.678C186.774 44.986 187.573 45.14 188.468 45.14C189.759 45.14 190.881 44.8467 191.834 44.26C192.802 43.6733 193.689 42.8447 194.496 41.774V31.016ZM198.412 15.594V48H196.08C195.523 48 195.171 47.7287 195.024 47.186L194.672 44.48C193.719 45.624 192.633 46.548 191.416 47.252C190.199 47.956 188.791 48.308 187.192 48.308C185.916 48.308 184.757 48.066 183.716 47.582C182.675 47.0833 181.787 46.3573 181.054 45.404C180.321 44.4507 179.756 43.2627 179.36 41.84C178.964 40.4173 178.766 38.782 178.766 36.934C178.766 35.2913 178.986 33.766 179.426 32.358C179.866 30.9353 180.497 29.7033 181.318 28.662C182.139 27.6207 183.144 26.8067 184.332 26.22C185.535 25.6187 186.884 25.318 188.38 25.318C189.744 25.318 190.91 25.5527 191.878 26.022C192.861 26.4767 193.733 27.1147 194.496 27.936V15.594H198.412ZM46.6139 70.714V93H42.6979V70.714H46.6139ZM47.4499 63.718C47.4499 64.0993 47.3692 64.4587 47.2079 64.796C47.0612 65.1187 46.8559 65.412 46.5919 65.676C46.3425 65.9253 46.0419 66.1233 45.6899 66.27C45.3525 66.4167 44.9932 66.49 44.6119 66.49C44.2305 66.49 43.8712 66.4167 43.5339 66.27C43.2112 66.1233 42.9252 65.9253 42.6759 65.676C42.4265 65.412 42.2285 65.1187 42.0819 64.796C41.9352 64.4587 41.8619 64.0993 41.8619 63.718C41.8619 63.3367 41.9352 62.9773 42.0819 62.64C42.2285 62.288 42.4265 61.9873 42.6759 61.738C42.9252 61.474 43.2112 61.2687 43.5339 61.122C43.8712 60.9753 44.2305 60.902 44.6119 60.902C44.9932 60.902 45.3525 60.9753 45.6899 61.122C46.0419 61.2687 46.3425 61.474 46.5919 61.738C46.8559 61.9873 47.0612 62.288 47.2079 62.64C47.3692 62.9773 47.4499 63.3367 47.4499 63.718ZM55.4242 73.948C55.9082 73.4053 56.4215 72.914 56.9642 72.474C57.5068 72.034 58.0788 71.66 58.6802 71.352C59.2962 71.0293 59.9415 70.7873 60.6162 70.626C61.3055 70.45 62.0462 70.362 62.8382 70.362C64.0555 70.362 65.1262 70.5673 66.0502 70.978C66.9888 71.374 67.7662 71.946 68.3822 72.694C69.0128 73.4273 69.4895 74.3147 69.8122 75.356C70.1348 76.3973 70.2962 77.5487 70.2962 78.81V93H66.3582V78.81C66.3582 77.1233 65.9695 75.818 65.1922 74.894C64.4295 73.9553 63.2635 73.486 61.6942 73.486C60.5355 73.486 59.4502 73.7647 58.4382 74.322C57.4408 74.8793 56.5168 75.6347 55.6662 76.588V93H51.7282V70.714H54.0822C54.6395 70.714 54.9842 70.9853 55.1162 71.528L55.4242 73.948ZM113.129 77.248C113.129 79.6093 112.755 81.758 112.007 83.694C111.259 85.63 110.203 87.2873 108.839 88.666C107.475 90.0447 105.832 91.1153 103.911 91.878C102.004 92.626 99.8925 93 97.5751 93H85.8051V61.474H97.5751C99.8925 61.474 102.004 61.8553 103.911 62.618C105.832 63.366 107.475 64.4367 108.839 65.83C110.203 67.2087 111.259 68.866 112.007 70.802C112.755 72.738 113.129 74.8867 113.129 77.248ZM108.751 77.248C108.751 75.312 108.487 73.5813 107.959 72.056C107.431 70.5307 106.683 69.24 105.715 68.184C104.747 67.128 103.574 66.3213 102.195 65.764C100.816 65.2067 99.2765 64.928 97.5751 64.928H90.0731V89.546H97.5751C99.2765 89.546 100.816 89.2673 102.195 88.71C103.574 88.1527 104.747 87.3533 105.715 86.312C106.683 85.256 107.431 83.9653 107.959 82.44C108.487 80.9147 108.751 79.184 108.751 77.248ZM128.553 82.968C126.749 83.0267 125.209 83.1733 123.933 83.408C122.672 83.628 121.638 83.9213 120.831 84.288C120.039 84.6547 119.46 85.0873 119.093 85.586C118.741 86.0847 118.565 86.642 118.565 87.258C118.565 87.8447 118.661 88.3507 118.851 88.776C119.042 89.2013 119.299 89.5533 119.621 89.832C119.959 90.096 120.347 90.294 120.787 90.426C121.242 90.5433 121.726 90.602 122.239 90.602C122.929 90.602 123.559 90.536 124.131 90.404C124.703 90.2573 125.239 90.052 125.737 89.788C126.251 89.524 126.735 89.2087 127.189 88.842C127.659 88.4753 128.113 88.0573 128.553 87.588V82.968ZM115.903 73.86C117.135 72.672 118.463 71.7847 119.885 71.198C121.308 70.6113 122.885 70.318 124.615 70.318C125.862 70.318 126.969 70.5233 127.937 70.934C128.905 71.3447 129.719 71.9167 130.379 72.65C131.039 73.3833 131.538 74.2707 131.875 75.312C132.213 76.3533 132.381 77.4973 132.381 78.744V93H130.643C130.262 93 129.969 92.9413 129.763 92.824C129.558 92.692 129.397 92.4427 129.279 92.076L128.839 89.964C128.253 90.5067 127.681 90.9907 127.123 91.416C126.566 91.8267 125.979 92.1787 125.363 92.472C124.747 92.7507 124.087 92.9633 123.383 93.11C122.694 93.2713 121.924 93.352 121.073 93.352C120.208 93.352 119.394 93.2347 118.631 93C117.869 92.7507 117.201 92.384 116.629 91.9C116.072 91.416 115.625 90.8073 115.287 90.074C114.965 89.326 114.803 88.446 114.803 87.434C114.803 86.554 115.045 85.7107 115.529 84.904C116.013 84.0827 116.798 83.3567 117.883 82.726C118.969 82.0953 120.384 81.582 122.129 81.186C123.875 80.7753 126.016 80.5407 128.553 80.482V78.744C128.553 77.0133 128.179 75.708 127.431 74.828C126.683 73.9333 125.591 73.486 124.153 73.486C123.185 73.486 122.371 73.6107 121.711 73.86C121.066 74.0947 120.501 74.366 120.017 74.674C119.548 74.9673 119.137 75.2387 118.785 75.488C118.448 75.7227 118.111 75.84 117.773 75.84C117.509 75.84 117.282 75.774 117.091 75.642C116.901 75.4953 116.739 75.3193 116.607 75.114L115.903 73.86ZM143.568 93.352C141.808 93.352 140.451 92.8607 139.498 91.878C138.559 90.8953 138.09 89.48 138.09 87.632V73.992H135.406C135.171 73.992 134.973 73.926 134.812 73.794C134.65 73.6473 134.57 73.4273 134.57 73.134V71.572L138.222 71.11L139.124 64.224C139.168 64.004 139.263 63.828 139.41 63.696C139.571 63.5493 139.776 63.476 140.026 63.476H142.006V71.154H148.452V73.992H142.006V87.368C142.006 88.3067 142.233 89.0033 142.688 89.458C143.142 89.9127 143.729 90.14 144.448 90.14C144.858 90.14 145.21 90.0887 145.504 89.986C145.812 89.8687 146.076 89.744 146.296 89.612C146.516 89.48 146.699 89.3627 146.846 89.26C147.007 89.1427 147.146 89.084 147.264 89.084C147.469 89.084 147.652 89.2087 147.814 89.458L148.958 91.328C148.283 91.9587 147.469 92.4573 146.516 92.824C145.562 93.176 144.58 93.352 143.568 93.352ZM163.253 82.968C161.449 83.0267 159.909 83.1733 158.633 83.408C157.372 83.628 156.338 83.9213 155.531 84.288C154.739 84.6547 154.16 85.0873 153.793 85.586C153.441 86.0847 153.265 86.642 153.265 87.258C153.265 87.8447 153.36 88.3507 153.551 88.776C153.742 89.2013 153.998 89.5533 154.321 89.832C154.658 90.096 155.047 90.294 155.487 90.426C155.942 90.5433 156.426 90.602 156.939 90.602C157.628 90.602 158.259 90.536 158.831 90.404C159.403 90.2573 159.938 90.052 160.437 89.788C160.95 89.524 161.434 89.2087 161.889 88.842C162.358 88.4753 162.813 88.0573 163.253 87.588V82.968ZM150.603 73.86C151.835 72.672 153.162 71.7847 154.585 71.198C156.008 70.6113 157.584 70.318 159.315 70.318C160.562 70.318 161.669 70.5233 162.637 70.934C163.605 71.3447 164.419 71.9167 165.079 72.65C165.739 73.3833 166.238 74.2707 166.575 75.312C166.912 76.3533 167.081 77.4973 167.081 78.744V93H165.343C164.962 93 164.668 92.9413 164.463 92.824C164.258 92.692 164.096 92.4427 163.979 92.076L163.539 89.964C162.952 90.5067 162.38 90.9907 161.823 91.416C161.266 91.8267 160.679 92.1787 160.063 92.472C159.447 92.7507 158.787 92.9633 158.083 93.11C157.394 93.2713 156.624 93.352 155.773 93.352C154.908 93.352 154.094 93.2347 153.331 93C152.568 92.7507 151.901 92.384 151.329 91.9C150.772 91.416 150.324 90.8073 149.987 90.074C149.664 89.326 149.503 88.446 149.503 87.434C149.503 86.554 149.745 85.7107 150.229 84.904C150.713 84.0827 151.498 83.3567 152.583 82.726C153.668 82.0953 155.084 81.582 156.829 81.186C158.574 80.7753 160.716 80.5407 163.253 80.482V78.744C163.253 77.0133 162.879 75.708 162.131 74.828C161.383 73.9333 160.29 73.486 158.853 73.486C157.885 73.486 157.071 73.6107 156.411 73.86C155.766 74.0947 155.201 74.366 154.717 74.674C154.248 74.9673 153.837 75.2387 153.485 75.488C153.148 75.7227 152.81 75.84 152.473 75.84C152.209 75.84 151.982 75.774 151.791 75.642C151.6 75.4953 151.439 75.3193 151.307 75.114L150.603 73.86Z" fill="white"/>
        <rect y="106.789" width="210" height="13.211" fill="#D42B21"/>
    </g>
    <defs>
        <clipPath id="clip0">
            <rect width="210" height="120" fill="white"/>
        </clipPath>
    </defs>
</svg></g><a href="https://staging-owid.netlify.com/grapher/output-of-key-service-and-industrial-sectors-in-england-and-the-uk" target="_blank"><text font-size="21.60" x="15.0" y="32.3" fill="#555"><tspan x="15" y="32.279999999999994">Output of key service and industrial sectors in England and the UK,</tspan><tspan x="15" y="53.87999999999999">England</tspan></text></a></g><g class="LineChart"><defs><clipPath id="boundsClip-3381"><rect x="50.824" y="0" width="830" height="956.8"></rect></clipPath></defs><g class="AxisBoxView"><g class="HorizontalAxis"><text x="60.8" y="556.5" fill="#666" text-anchor="middle" font-size="16.2">1270</text><text x="179.4" y="556.5" fill="#666" text-anchor="middle" font-size="16.2">1400</text><text x="270.6" y="556.5" fill="#666" text-anchor="middle" font-size="16.2">1500</text><text x="361.9" y="556.5" fill="#666" text-anchor="middle" font-size="16.2">1600</text><text x="453.1" y="556.5" fill="#666" text-anchor="middle" font-size="16.2">1700</text><text x="544.3" y="556.5" fill="#666" text-anchor="middle" font-size="16.2">1800</text><text x="608.2" y="556.5" fill="#666" text-anchor="middle" font-size="16.2">1870</text></g><g class="VerticalAxis"><text x="55.82" y="512" fill="#666" dominant-baseline="middle" text-anchor="end" font-size="16.2">1</text><text x="55.82" y="385.5" fill="#666" dominant-baseline="middle" text-anchor="end" font-size="16.2">10</text><text x="55.82" y="258.9" fill="#666" dominant-baseline="middle" text-anchor="end" font-size="16.2">100</text><text x="55.82" y="132.4" fill="#666" dominant-baseline="middle" text-anchor="end" font-size="16.2">1,000</text></g><g class="AxisGridLines"><line x1="60.82" y1="512" x2="608.16" y2="512" stroke="#ddd" stroke-dasharray="3,2"></line><line x1="60.82" y1="385.5" x2="608.16" y2="385.5" stroke="#ddd" stroke-dasharray="3,2"></line><line x1="60.82" y1="258.9" x2="608.16" y2="258.9" stroke="#ddd" stroke-dasharray="3,2"></line><line x1="60.82" y1="132.4" x2="608.16" y2="132.4" stroke="#ddd" stroke-dasharray="3,2"></line></g></g><g clip-path="url(#boundsClip-3381)"><g class="HeightedLegend"><g class="legendMark"><g class="indicator"><line x1="613.165" y1="78.1" x2="632.3316666666666" y2="78.1" stroke="#666" stroke-width="0.5"></line><line x1="632.3316666666666" y1="78.1" x2="632.3316666666666" y2="78.1" stroke="#666" stroke-width="0.5"></line><line x1="632.3316666666666" y1="78.1" x2="638.165" y2="78.1" stroke="#666" stroke-width="0.5"></line></g><rect x="608.165" y="71.35" width="144.755" height="13.5" fill="#fff" opacity="0"></rect><text font-size="13.50" x="643.2" y="82.1" fill="#a652ba"><tspan x="643.165" y="82.14999999999999">Financial Services</tspan></text></g><g class="legendMark"><g class="indicator"><line x1="613.165" y1="83" x2="625.665" y2="83" stroke="#666" stroke-width="0.5"></line><line x1="625.665" y1="83" x2="625.665" y2="93.6" stroke="#666" stroke-width="0.5"></line><line x1="625.665" y1="93.6" x2="638.165" y2="93.6" stroke="#666" stroke-width="0.5"></line></g><rect x="608.165" y="86.85" width="158.525" height="13.5" fill="#fff" opacity="0"></rect><text font-size="13.50" x="643.2" y="97.6" fill="#f6a324"><tspan x="643.165" y="97.64999999999999">Trade and Transport</tspan></text></g><g class="legendMark"><g class="indicator"><line x1="613.165" y1="98.8" x2="618.9983333333333" y2="98.8" stroke="#666" stroke-width="0.5"></line><line x1="618.9983333333333" y1="98.8" x2="618.9983333333333" y2="109.1" stroke="#666" stroke-width="0.5"></line><line x1="618.9983333333333" y1="109.1" x2="638.165" y2="109.1" stroke="#666" stroke-width="0.5"></line></g><rect x="608.165" y="102.35" width="165.14000000000001" height="13.5" fill="#fff" opacity="0"></rect><text font-size="13.50" x="643.2" y="113.1" fill="#34983f"><tspan x="643.165" y="113.14999999999999">Government Services</tspan></text></g><g class="legendMark"><g class="indicator"><line x1="613.165" y1="126.5" x2="625.665" y2="126.5" stroke="#666" stroke-width="0.5"></line><line x1="625.665" y1="126.5" x2="625.665" y2="126.5" stroke="#666" stroke-width="0.5"></line><line x1="625.665" y1="126.5" x2="638.165" y2="126.5" stroke="#666" stroke-width="0.5"></line></g><rect x="608.165" y="119.75" width="120.72500000000001" height="13.5" fill="#fff" opacity="0"></rect><text font-size="13.50" x="643.2" y="130.6" fill="#ca2628"><tspan x="643.165" y="130.55">Total Services</tspan></text></g><g class="legendMark"><g class="indicator"><line x1="613.165" y1="178.8" x2="625.665" y2="178.8" stroke="#666" stroke-width="0.5"></line><line x1="625.665" y1="178.8" x2="625.665" y2="178.8" stroke="#666" stroke-width="0.5"></line><line x1="625.665" y1="178.8" x2="638.165" y2="178.8" stroke="#666" stroke-width="0.5"></line></g><rect x="608.165" y="172.05" width="226.835" height="13.5" fill="#fff" opacity="0"></rect><text font-size="13.50" x="643.2" y="182.9" fill="#3360a9"><tspan x="643.165" y="182.85000000000002">Housing and Domestic Services</tspan></text></g></g><g class="Lines"><rect x="61" y="78" width="547" height="457" fill="rgba(255,255,255,0)" opacity="0"></rect><g class="key-England_0"><path stroke="#ca2628" stroke-linecap="round" d="M61 314L62 313L63 313L64 313L65 313L65 312L66 313L67 313L68 312L69 312L70 312L71 312L72 312L73 311L74 311L75 311L75 310L76 310L77 309L78 309L79 308L80 308L81 308L82 308L83 308L84 307L85 307L86 306L86 306L87 306L88 306L89 306L90 306L91 306L92 306L93 306L94 306L95 306L96 307L96 307L97 307L98 307L99 307L100 307L101 307L102 307L103 308L104 308L105 309L106 310L106 310L107 311L108 313L109 313L110 314L111 314L112 315L113 314L114 314L115 313L116 313L117 312L117 312L118 312L119 311L120 311L121 311L122 310L123 309L124 307L125 306L126 305L127 304L127 304L128 304L129 303L130 302L131 302L132 301L133 311L134 321L135 331L136 332L137 333L138 330L138 331L139 332L140 331L141 332L142 332L143 332L144 333L145 332L146 333L147 334L148 334L148 334L149 334L150 335L151 336L152 336L153 336L154 336L155 336L156 336L157 335L158 335L158 336L159 334L160 335L161 334L162 334L163 335L164 336L165 335L166 335L167 336L168 336L169 336L169 337L170 337L171 339L172 339L173 339L174 339L175 339L176 339L177 340L178 341L179 341L179 343L180 343L181 342L182 343L183 343L184 343L185 342L186 343L187 342L188 342L189 342L189 343L190 343L191 342L192 342L193 342L194 342L195 342L196 342L197 341L198 341L199 341L200 341L200 340L201 341L202 341L203 342L204 343L205 344L206 344L207 345L208 346L209 346L210 346L210 347L211 346L212 348L213 347L214 347L215 347L216 346L217 347L218 347L219 346L220 347L221 347L221 347L222 348L223 347L224 349L225 348L226 348L227 349L228 348L229 349L230 349L231 348L231 350L232 348L233 349L234 350L235 350L236 350L237 350L238 349L239 351L240 350L241 349L241 349L242 348L243 349L244 349L245 348L246 348L247 346L248 346L249 345L250 345L251 345L252 343L252 344L253 343L254 342L255 345L256 344L257 345L258 344L259 346L260 344L261 342L262 341L262 342L263 340L264 340L265 339L266 340L267 339L268 336L269 336L270 336L271 336L272 336L273 336L273 337L274 336L275 336L276 336L277 336L278 337L279 336L280 336L281 336L282 336L283 335L283 334L284 334L285 333L286 333L287 333L288 333L289 333L290 333L291 333L292 331L293 331L293 330L294 330L295 330L296 331L297 331L298 330L299 330L300 329L301 329L302 330L303 330L304 329L304 329L305 329L306 328L307 327L308 326L309 325L310 325L311 324L312 323L313 322L314 322L314 322L315 322L316 321L317 321L318 322L319 323L320 323L321 323L322 324L323 325L324 325L325 325L325 325L326 325L327 324L328 324L329 323L330 322L331 320L332 320L333 319L334 319L335 321L335 322L336 321L337 320L338 320L339 319L340 318L341 318L342 317L343 317L344 316L345 316L345 316L346 315L347 314L348 314L349 313L350 313L351 312L352 312L353 311L354 310L355 310L356 309L356 309L357 309L358 308L359 309L360 308L361 307L362 306L363 306L364 304L365 304L366 303L366 303L367 302L368 302L369 302L370 300L371 300L372 300L373 300L374 300L375 299L376 299L377 300L377 299L378 298L379 299L380 297L381 297L382 297L383 296L384 295L385 295L386 296L387 295L387 292L388 293L389 293L390 293L391 291L392 291L393 290L394 289L395 289L396 289L397 288L397 288L398 288L399 289L400 287L401 286L402 286L403 287L404 286L405 285L406 285L407 283L408 282L408 280L409 278L410 277L411 278L412 276L413 277L414 278L415 278L416 281L417 281L418 280L418 281L419 280L420 280L421 279L422 277L423 278L424 278L425 277L426 277L427 278L428 277L429 276L429 275L430 275L431 273L432 274L433 273L434 273L435 272L436 273L437 273L438 273L439 275L439 274L440 274L441 273L442 272L443 271L444 270L445 268L446 266L447 267L448 264L449 263L449 262L450 262L451 261L452 260L453 259L454 257L455 257L456 257L457 254L458 255L459 257L460 253L460 251L461 253L462 255L463 252L464 255L465 256L466 255L467 255L468 253L469 253L470 252L470 252L471 252L472 254L473 251L474 252L475 252L476 251L477 251L478 251L479 251L480 253L481 252L481 252L482 252L483 251L484 250L485 249L486 249L487 251L488 250L489 249L490 249L491 248L491 247L492 247L493 246L494 246L495 245L496 244L497 243L498 243L499 245L500 245L501 244L501 244L502 244L503 243L504 241L505 241L506 240L507 237L508 235L509 233L510 234L511 235L512 238L512 238L513 237L514 238L515 238L516 236L517 235L518 236L519 235L520 236L521 235L522 235L522 232L523 231L524 231L525 230L526 228L527 228L528 226L529 228L530 227L531 225L532 228L532 227L533 226L534 225L535 223L536 222L537 221L538 220L539 217L540 215L541 214L542 211L543 212L543 211L544 210L545 212L546 207L547 209L548 208L549 206L550 204L551 202L552 204L553 201L553 198L554 198L555 200L556 199L557 196L558 190L559 193L560 197L561 197L562 197L563 195L564 194L564 191L565 191L566 188L567 187L568 188L569 186L570 184L571 184L572 182L573 182L574 182L574 180L575 179L576 177L577 174L578 176L579 174L580 173L581 171L582 170L583 171L584 168L584 165L585 162L586 162L587 162L588 158L589 156L590 156L591 153L592 152L593 149L594 149L595 148L595 144L596 143L597 144L598 142L599 139L600 139L601 141L602 139L603 137L604 135L605 133L605 132L606 130L607 129L608 127" fill="none" stroke-width="1.5"></path></g><g class="key-England_1"><path stroke="#f6a324" stroke-linecap="round" d="M61 434L62 435L63 433L64 435L65 435L65 431L66 434L67 432L68 432L69 437L70 436L71 432L72 434L73 434L74 427L75 430L75 435L76 433L77 430L78 428L79 426L80 429L81 431L82 433L83 437L84 439L85 440L86 432L86 425L87 432L88 420L89 417L90 436L91 417L92 418L93 405L94 410L95 408L96 412L96 408L97 413L98 409L99 409L100 410L101 428L102 417L103 431L104 422L105 419L106 424L106 415L107 422L108 434L109 419L110 430L111 423L112 431L113 423L114 433L115 417L116 420L117 417L117 412L118 420L119 414L120 416L121 432L122 447L123 424L124 409L125 428L126 428L127 422L127 434L128 427L129 427L130 425L131 421L132 417L133 423L134 422L135 421L136 432L137 440L138 411L138 422L139 424L140 411L141 414L142 417L143 413L144 422L145 409L146 419L147 428L148 412L148 415L149 414L150 424L151 420L152 429L153 419L154 427L155 422L156 427L157 423L158 429L158 439L159 420L160 437L161 431L162 430L163 426L164 434L165 417L166 420L167 423L168 422L169 427L169 426L170 414L171 424L172 420L173 422L174 421L175 418L176 418L177 423L178 419L179 418L179 423L180 423L181 413L182 425L183 417L184 429L185 416L186 420L187 423L188 414L189 415L189 424L190 428L191 417L192 424L193 415L194 421L195 418L196 417L197 417L198 420L199 422L200 417L200 401L201 407L202 406L203 412L204 412L205 412L206 409L207 415L208 412L209 416L210 416L210 417L211 414L212 437L213 425L214 411L215 414L216 398L217 408L218 411L219 401L220 404L221 411L221 405L222 412L223 402L224 427L225 415L226 418L227 422L228 415L229 427L230 421L231 412L231 432L232 416L233 420L234 436L235 424L236 421L237 430L238 421L239 441L240 422L241 414L241 416L242 413L243 425L244 436L245 418L246 422L247 412L248 423L249 418L250 417L251 417L252 397L252 404L253 398L254 399L255 423L256 410L257 414L258 403L259 421L260 410L261 406L262 402L262 408L263 408L264 406L265 402L266 426L267 427L268 403L269 399L270 405L271 396L272 396L273 394L273 394L274 395L275 394L276 396L277 395L278 393L279 393L280 393L281 393L282 395L283 394L283 393L284 393L285 393L286 393L287 393L288 391L289 391L290 392L291 393L292 393L293 392L293 393L294 392L295 391L296 392L297 392L298 391L299 392L300 391L301 391L302 389L303 390L304 390L304 389L305 390L306 387L307 387L308 388L309 386L310 388L311 384L312 383L313 380L314 378L314 377L315 377L316 376L317 381L318 390L319 386L320 387L321 386L322 391L323 388L324 382L325 384L325 382L326 386L327 388L328 388L329 386L330 382L331 374L332 375L333 375L334 373L335 377L335 378L336 380L337 372L338 373L339 367L340 365L341 369L342 365L343 365L344 365L345 367L345 370L346 365L347 365L348 368L349 367L350 364L351 359L352 362L353 359L354 356L355 352L356 350L356 356L357 355L358 355L359 356L360 350L361 344L362 344L363 342L364 338L365 335L366 332L366 333L367 329L368 333L369 334L370 330L371 328L372 331L373 334L374 331L375 330L376 329L377 334L377 329L378 327L379 331L380 326L381 324L382 329L383 327L384 323L385 321L386 322L387 323L387 313L388 324L389 325L390 325L391 317L392 320L393 317L394 312L395 311L396 312L397 308L397 309L398 309L399 313L400 308L401 305L402 305L403 310L404 309L405 307L406 306L407 306L408 306L408 304L409 297L410 292L411 292L412 289L413 292L414 294L415 294L416 302L417 298L418 295L418 294L419 285L420 287L421 286L422 280L423 279L424 282L425 281L426 281L427 283L428 283L429 281L429 282L430 280L431 273L432 275L433 273L434 276L435 271L436 275L437 273L438 269L439 277L439 272L440 274L441 271L442 267L443 267L444 264L445 263L446 260L447 266L448 260L449 261L449 263L450 263L451 261L452 262L453 259L454 256L455 262L456 263L457 256L458 259L459 264L460 261L460 254L461 259L462 263L463 262L464 261L465 258L466 255L467 256L468 255L469 252L470 252L470 252L471 252L472 253L473 251L474 251L475 250L476 250L477 250L478 251L479 250L480 252L481 250L481 251L482 249L483 247L484 248L485 247L486 247L487 249L488 246L489 247L490 249L491 246L491 247L492 246L493 248L494 246L495 246L496 245L497 242L498 243L499 241L500 240L501 239L501 238L502 240L503 238L504 238L505 240L506 239L507 236L508 234L509 235L510 235L511 232L512 231L512 232L513 229L514 230L515 230L516 226L517 226L518 226L519 226L520 228L521 226L522 229L522 226L523 224L524 228L525 228L526 226L527 228L528 227L529 224L530 222L531 220L532 219L532 215L533 215L534 214L535 211L536 209L537 207L538 207L539 206L540 206L541 206L542 207L543 201L543 199L544 196L545 198L546 196L547 198L548 196L549 195L550 195L551 193L552 195L553 190L553 184L554 190L555 191L556 189L557 186L558 180L559 184L560 183L561 179L562 182L563 180L564 179L564 176L565 174L566 169L567 168L568 171L569 166L570 164L571 164L572 162L573 161L574 161L574 159L575 157L576 154L577 151L578 153L579 147L580 147L581 143L582 143L583 144L584 140L584 136L585 131L586 132L587 131L588 127L589 123L590 122L591 118L592 117L593 112L594 111L595 112L595 107L596 105L597 107L598 102L599 99L600 100L601 103L602 99L603 97L604 94L605 90L605 90L606 87L607 86L608 83" fill="none" stroke-width="1.5"></path></g><g class="key-England_2"><path stroke="#3360a9" stroke-linecap="round" d="M61 269L62 268L63 268L64 268L65 268L65 268L66 268L67 268L68 268L69 268L70 267L71 267L72 267L73 266L74 266L75 266L75 265L76 265L77 265L78 264L79 264L80 264L81 264L82 264L83 264L84 264L85 264L86 264L86 264L87 264L88 264L89 264L90 264L91 264L92 264L93 264L94 264L95 264L96 264L96 264L97 264L98 264L99 265L100 265L101 265L102 265L103 265L104 266L105 267L106 267L106 268L107 269L108 270L109 270L110 271L111 272L112 271L113 271L114 271L115 270L116 270L117 270L117 269L118 269L119 268L120 268L121 268L122 267L123 267L124 267L125 266L126 266L127 265L127 265L128 265L129 264L130 264L131 264L132 263L133 274L134 286L135 297L136 297L137 297L138 297L138 297L139 297L140 297L141 298L142 298L143 298L144 298L145 298L146 298L147 298L148 298L148 298L149 298L150 298L151 298L152 299L153 299L154 299L155 299L156 299L157 299L158 299L158 299L159 300L160 300L161 300L162 301L163 301L164 302L165 302L166 303L167 303L168 304L169 304L169 304L170 305L171 305L172 306L173 306L174 307L175 307L176 307L177 308L178 308L179 309L179 309L180 309L181 309L182 309L183 309L184 310L185 310L186 310L187 310L188 310L189 310L189 310L190 310L191 310L192 310L193 310L194 310L195 310L196 310L197 310L198 310L199 310L200 310L200 311L201 311L202 311L203 311L204 311L205 311L206 311L207 311L208 311L209 311L210 311L210 312L211 312L212 312L213 312L214 312L215 312L216 313L217 313L218 313L219 313L220 313L221 313L221 313L222 314L223 314L224 314L225 314L226 314L227 314L228 314L229 313L230 313L231 313L231 313L232 313L233 313L234 313L235 312L236 312L237 312L238 312L239 312L240 312L241 311L241 311L242 311L243 311L244 311L245 311L246 310L247 310L248 310L249 310L250 310L251 310L252 309L252 309L253 309L254 309L255 309L256 309L257 309L258 308L259 308L260 308L261 308L262 308L262 308L263 307L264 307L265 307L266 307L267 307L268 307L269 306L270 306L271 306L272 306L273 306L273 306L274 305L275 305L276 305L277 305L278 305L279 305L280 305L281 304L282 304L283 304L283 304L284 304L285 304L286 303L287 303L288 303L289 303L290 303L291 303L292 302L293 301L293 301L294 300L295 300L296 299L297 299L298 298L299 298L300 297L301 296L302 296L303 295L304 295L304 294L305 294L306 293L307 293L308 292L309 292L310 291L311 291L312 291L313 291L314 291L314 290L315 290L316 289L317 288L318 288L319 287L320 287L321 286L322 285L323 286L324 287L325 288L325 289L326 289L327 288L328 287L329 287L330 286L331 286L332 285L333 285L334 284L335 284L335 284L336 283L337 283L338 283L339 282L340 282L341 281L342 280L343 280L344 279L345 279L345 278L346 277L347 277L348 276L349 276L350 275L351 275L352 275L353 274L354 274L355 274L356 274L356 274L357 273L358 273L359 273L360 273L361 272L362 272L363 271L364 271L365 271L366 270L366 270L367 269L368 269L369 268L370 268L371 268L372 267L373 267L374 267L375 267L376 266L377 266L377 266L378 266L379 265L380 265L381 264L382 263L383 263L384 263L385 263L386 264L387 263L387 262L388 261L389 262L390 262L391 261L392 260L393 259L394 259L395 260L396 259L397 259L397 259L398 259L399 260L400 259L401 258L402 259L403 258L404 259L405 258L406 258L407 258L408 258L408 258L409 257L410 257L411 258L412 257L413 257L414 257L415 258L416 258L417 258L418 258L418 259L419 259L420 258L421 259L422 259L423 260L424 259L425 259L426 259L427 259L428 260L429 259L429 259L430 259L431 259L432 259L433 259L434 259L435 259L436 260L437 262L438 262L439 262L439 261L440 261L441 261L442 262L443 261L444 261L445 260L446 260L447 260L448 260L449 260L449 260L450 259L451 259L452 259L453 259L454 259L455 258L456 258L457 258L458 257L459 257L460 257L460 257L461 257L462 257L463 257L464 257L465 257L466 256L467 256L468 256L469 256L470 255L470 255L471 255L472 255L473 255L474 255L475 255L476 254L477 254L478 254L479 254L480 255L481 256L481 256L482 256L483 255L484 255L485 254L486 254L487 253L488 253L489 253L490 253L491 252L491 253L492 253L493 253L494 252L495 252L496 251L497 251L498 251L499 251L500 250L501 250L501 250L502 249L503 249L504 248L505 248L506 248L507 248L508 247L509 247L510 247L511 247L512 247L512 246L513 246L514 246L515 246L516 245L517 245L518 245L519 244L520 244L521 244L522 243L522 242L523 242L524 241L525 241L526 241L527 240L528 240L529 239L530 239L531 238L532 238L532 237L533 237L534 236L535 235L536 235L537 234L538 233L539 233L540 232L541 232L542 231L543 230L543 230L544 229L545 229L546 229L547 228L548 227L549 226L550 226L551 225L552 224L553 223L553 223L554 222L555 221L556 220L557 219L558 218L559 217L560 217L561 216L562 215L563 214L564 213L564 212L565 211L566 211L567 210L568 209L569 208L570 208L571 207L572 206L573 205L574 205L574 204L575 203L576 203L577 202L578 201L579 201L580 200L581 199L582 199L583 198L584 197L584 196L585 196L586 195L587 195L588 194L589 193L590 193L591 192L592 191L593 191L594 190L595 189L595 189L596 188L597 187L598 187L599 186L600 185L601 185L602 184L603 183L604 183L605 182L605 181L606 180L607 180L608 179" fill="none" stroke-width="1.5"></path></g><g class="key-England_3"><path stroke="#a652ba" stroke-linecap="round" d="M61 278L62 277L63 277L64 277L65 276L65 276L66 275L67 275L68 275L69 274L70 274L71 273L72 272L73 272L74 271L75 270L75 270L76 269L77 268L78 268L79 267L80 268L81 269L82 270L83 271L84 271L85 272L86 273L86 274L87 275L88 276L89 275L90 275L91 274L92 274L93 273L94 273L95 272L96 272L96 272L97 271L98 271L99 270L100 270L101 269L102 269L103 269L104 269L105 269L106 270L106 270L107 271L108 271L109 272L110 273L111 274L112 273L113 273L114 273L115 272L116 272L117 272L117 271L118 271L119 271L120 270L121 270L122 270L123 269L124 269L125 269L126 268L127 268L127 268L128 267L129 267L130 267L131 266L132 266L133 277L134 288L135 300L136 300L137 300L138 300L138 300L139 300L140 301L141 301L142 301L143 301L144 301L145 301L146 301L147 301L148 302L148 302L149 302L150 302L151 302L152 302L153 302L154 302L155 303L156 303L157 303L158 303L158 303L159 304L160 304L161 304L162 305L163 305L164 306L165 306L166 307L167 307L168 308L169 308L169 309L170 309L171 310L172 310L173 311L174 311L175 312L176 312L177 313L178 313L179 314L179 314L180 314L181 314L182 314L183 314L184 314L185 315L186 315L187 315L188 315L189 315L189 315L190 315L191 315L192 315L193 315L194 316L195 316L196 316L197 316L198 316L199 316L200 316L200 316L201 316L202 316L203 316L204 317L205 317L206 317L207 317L208 317L209 317L210 317L210 318L211 318L212 318L213 318L214 318L215 319L216 319L217 319L218 319L219 319L220 320L221 320L221 320L222 320L223 320L224 321L225 321L226 321L227 321L228 321L229 320L230 320L231 320L231 320L232 320L233 320L234 320L235 320L236 319L237 319L238 319L239 319L240 319L241 319L241 319L242 319L243 318L244 318L245 318L246 318L247 318L248 317L249 317L250 317L251 317L252 316L252 316L253 316L254 316L255 315L256 315L257 315L258 315L259 314L260 314L261 314L262 314L262 313L263 313L264 313L265 313L266 312L267 312L268 312L269 312L270 312L271 311L272 311L273 311L273 311L274 310L275 310L276 310L277 310L278 309L279 309L280 309L281 309L282 308L283 308L283 308L284 308L285 307L286 307L287 307L288 307L289 307L290 306L291 306L292 305L293 305L293 304L294 303L295 304L296 305L297 305L298 306L299 307L300 307L301 308L302 308L303 309L304 310L304 310L305 311L306 311L307 312L308 313L309 313L310 314L311 315L312 316L313 317L314 319L314 320L315 322L316 323L317 324L318 326L319 327L320 329L321 330L322 331L323 333L324 336L325 340L325 342L326 344L327 343L328 342L329 341L330 340L331 339L332 337L333 336L334 335L335 334L335 334L336 332L337 332L338 331L339 330L340 329L341 327L342 326L343 325L344 324L345 323L345 322L346 321L347 319L348 318L349 317L350 316L351 316L352 315L353 314L354 313L355 312L356 312L356 311L357 310L358 309L359 308L360 308L361 307L362 306L363 304L364 303L365 302L366 301L366 300L367 299L368 297L369 296L370 295L371 294L372 293L373 292L374 291L375 290L376 289L377 288L377 287L378 286L379 285L380 283L381 282L382 280L383 279L384 279L385 278L386 278L387 277L387 275L388 273L389 273L390 273L391 271L392 269L393 268L394 267L395 267L396 265L397 265L397 263L398 263L399 263L400 261L401 260L402 260L403 260L404 260L405 259L406 259L407 259L408 259L408 259L409 258L410 258L411 259L412 258L413 258L414 258L415 258L416 259L417 259L418 259L418 259L419 260L420 259L421 259L422 259L423 260L424 259L425 259L426 259L427 259L428 260L429 259L429 259L430 259L431 259L432 259L433 259L434 259L435 259L436 260L437 262L438 262L439 262L439 261L440 261L441 261L442 262L443 261L444 261L445 260L446 260L447 260L448 260L449 260L449 260L450 259L451 259L452 259L453 259L454 258L455 257L456 256L457 255L458 254L459 253L460 252L460 251L461 249L462 248L463 247L464 246L465 245L466 244L467 243L468 242L469 241L470 240L470 239L471 243L472 251L473 238L474 230L475 225L476 219L477 235L478 217L479 218L480 219L481 215L481 207L482 212L483 212L484 212L485 211L486 208L487 214L488 212L489 215L490 214L491 218L491 209L492 214L493 211L494 219L495 217L496 218L497 217L498 213L499 212L500 203L501 206L501 208L502 209L503 209L504 205L505 203L506 204L507 203L508 201L509 197L510 192L511 196L512 190L512 191L513 191L514 193L515 190L516 188L517 190L518 182L519 188L520 187L521 180L522 173L522 173L523 174L524 180L525 174L526 176L527 179L528 175L529 180L530 193L531 182L532 175L532 171L533 168L534 164L535 164L536 160L537 160L538 164L539 165L540 158L541 163L542 164L543 160L543 155L544 158L545 157L546 151L547 149L548 148L549 147L550 141L551 137L552 133L553 129L553 127L554 125L555 128L556 127L557 127L558 126L559 127L560 130L561 129L562 127L563 124L564 122L564 119L565 119L566 117L567 118L568 120L569 119L570 117L571 116L572 116L573 117L574 117L574 115L575 113L576 112L577 116L578 117L579 117L580 119L581 118L582 117L583 116L584 110L584 109L585 105L586 97L587 106L588 101L589 98L590 94L591 96L592 92L593 92L594 98L595 94L595 95L596 93L597 88L598 86L599 88L600 91L601 85L602 85L603 87L604 86L605 84L605 79L606 79L607 81L608 78" fill="none" stroke-width="1.5"></path></g><g class="key-England_4"><path stroke="#34983f" stroke-linecap="round" d="M61 491L62 458L63 458L64 458L65 456L65 453L66 462L67 470L68 455L69 460L70 464L71 472L72 518L73 525L74 530L75 535L75 505L76 480L77 478L78 487L79 458L80 442L81 428L82 425L83 430L84 409L85 401L86 390L86 386L87 387L88 387L89 387L90 386L91 391L92 390L93 390L94 403L95 404L96 409L96 416L97 409L98 408L99 407L100 413L101 408L102 407L103 410L104 410L105 416L106 426L106 419L107 423L108 427L109 422L110 424L111 433L112 441L113 439L114 433L115 435L116 436L117 445L117 445L118 436L119 439L120 429L121 423L122 414L123 403L124 385L125 372L126 365L127 362L127 361L128 361L129 357L130 354L131 351L132 350L133 352L134 359L135 364L136 368L137 369L138 363L138 362L139 365L140 367L141 368L142 370L143 368L144 370L145 371L146 373L147 376L148 382L148 383L149 383L150 386L151 391L152 394L153 395L154 390L155 389L156 384L157 379L158 379L158 380L159 371L160 369L161 364L162 361L163 364L164 364L165 364L166 364L167 363L168 360L169 359L169 363L170 364L171 368L172 368L173 366L174 366L175 366L176 365L177 368L178 371L179 370L179 375L180 376L181 374L182 375L183 377L184 375L185 375L186 375L187 373L188 372L189 374L189 373L190 372L191 371L192 370L193 368L194 369L195 368L196 367L197 366L198 364L199 364L200 363L200 363L201 365L202 369L203 371L204 375L205 379L206 386L207 390L208 393L209 390L210 393L210 396L211 394L212 390L213 391L214 393L215 396L216 394L217 394L218 394L219 396L220 393L221 393L221 392L222 394L223 393L224 394L225 390L226 390L227 392L228 395L229 397L230 398L231 396L231 400L232 402L233 405L234 407L235 412L236 415L237 415L238 411L239 414L240 420L241 423L241 424L242 417L243 415L244 415L245 413L246 411L247 403L248 397L249 394L250 394L251 394L252 392L252 393L253 393L254 389L255 391L256 393L257 401L258 407L259 408L260 399L261 388L262 385L262 385L263 377L264 376L265 372L266 368L267 365L268 359L269 358L270 360L271 364L272 365L273 366L273 370L274 368L275 368L276 369L277 369L278 375L279 374L280 373L281 374L282 372L283 369L283 365L284 364L285 362L286 360L287 360L288 361L289 362L290 362L291 364L292 355L293 354L293 355L294 357L295 359L296 363L297 365L298 366L299 366L300 364L301 363L302 374L303 374L304 377L304 376L305 376L306 374L307 372L308 367L309 362L310 361L311 357L312 353L313 351L314 350L314 352L315 352L316 353L317 353L318 357L319 365L320 368L321 373L322 381L323 390L324 390L325 374L325 370L326 368L327 367L328 365L329 361L330 359L331 358L332 357L333 356L334 360L335 377L335 385L336 381L337 379L338 379L339 379L340 380L341 378L342 378L343 379L344 380L345 380L345 377L346 380L347 383L348 383L349 381L350 382L351 381L352 379L353 377L354 376L355 373L356 372L356 370L357 368L358 368L359 370L360 369L361 369L362 369L363 370L364 368L365 368L366 368L366 369L367 370L368 369L369 368L370 366L371 366L372 365L373 366L374 367L375 368L376 368L377 371L377 372L378 373L379 374L380 373L381 374L382 373L383 373L384 372L385 369L386 368L387 363L387 358L388 356L389 356L390 355L391 355L392 356L393 356L394 356L395 356L396 355L397 356L397 356L398 353L399 353L400 352L401 350L402 348L403 345L404 343L405 342L406 340L407 327L408 318L408 310L409 307L410 304L411 308L412 308L413 308L414 310L415 311L416 313L417 317L418 321L418 323L419 327L420 331L421 324L422 323L423 323L424 322L425 319L426 319L427 315L428 310L429 307L429 303L430 302L431 306L432 306L433 304L434 301L435 301L436 300L437 300L438 301L439 304L439 307L440 306L441 303L442 303L443 299L444 296L445 292L446 285L447 280L448 276L449 271L449 266L450 265L451 263L452 260L453 259L454 244L455 214L456 205L457 204L458 195L459 194L460 175L460 184L461 184L462 185L463 162L464 195L465 218L466 226L467 231L468 211L469 236L470 215L470 218L471 225L472 236L473 208L474 226L475 233L476 231L477 231L478 224L479 209L480 222L481 220L481 217L482 226L483 230L484 201L485 210L486 209L487 223L488 229L489 218L490 211L491 200L491 185L492 179L493 170L494 175L495 173L496 163L497 163L498 162L499 209L500 214L501 207L501 218L502 218L503 202L504 178L505 176L506 163L507 149L508 139L509 128L510 133L511 147L512 192L512 183L513 197L514 209L515 213L516 202L517 192L518 198L519 198L520 206L521 208L522 199L522 172L523 163L524 156L525 148L526 139L527 134L528 127L529 152L530 150L531 144L532 187L532 196L533 192L534 193L535 190L536 180L537 187L538 173L539 143L540 125L541 123L542 102L543 120L543 125L544 132L545 141L546 110L547 126L548 128L549 120L550 107L551 104L552 111L553 108L553 107L554 101L555 107L556 105L557 92L558 79L559 86L560 128L561 146L562 141L563 134L564 128L564 123L565 130L566 130L567 137L568 131L569 127L570 125L571 130L572 130L573 136L574 134L574 134L575 139L576 138L577 111L578 133L579 142L580 144L581 139L582 135L583 130L584 123L584 125L585 130L586 127L587 126L588 110L589 108L590 112L591 111L592 114L593 121L594 126L595 104L595 79L596 98L597 100L598 107L599 102L600 93L601 96L602 99L603 101L604 101L605 103L605 101L606 95L607 86L608 99" fill="none" stroke-width="1.5"></path></g></g></g></g><g class="SourcesFooter" style="fill:#777"><g class="clickable" style="fill:#777"><text font-size="12.60" x="15.0" y="581.6"><tspan x="15" y="581.58">Source: Output of key services sectors in England - using Bank of England (2017)</tspan></text></g><text font-size="12.60" x="570.4" y="581.6"><tspan x="570.4" y="581.58"><a target='_blank' style='fill: #777;' href='https://ourworldindata.org/economic-growth'>OurWorldInData.org/economic-growth</a> • <a style="fill: #777;" class="cclogo" href="http://creativecommons.org/licenses/by/4.0/deed.en_US" target="_blank">CC BY</a></tspan></text></g></svg>