<svg xmlns="http://www.w3.org/2000/svg" version="1.1" style="font-family:Lato, &#x27;Helvetica Neue&#x27;, Helvetica, Arial, sans-serif;font-size:18px;background-color:white;text-rendering:optimizeLegibility;-webkit-font-smoothing:antialiased" width="850" height="600"><g class="HeaderView"><g transform="translate(774, 15) scale(0.29)"><svg width="210" height="120" viewBox="0 0 210 120" fill="none" xmlns="http://www.w3.org/2000/svg">
    <g clip-path="url(#clip0)">
        <path d="M0 0H210V107.89H0V0Z" fill="#002147"/>
        <path d="M40.9788 32.248C40.9788 34.6093 40.6048 36.78 39.8568 38.76C39.1088 40.7253 38.0528 42.4193 36.6888 43.842C35.3248 45.2647 33.6821 46.372 31.7608 47.164C29.8541 47.9413 27.7421 48.33 25.4248 48.33C23.1074 48.33 20.9954 47.9413 19.0888 47.164C17.1821 46.372 15.5468 45.2647 14.1828 43.842C12.8188 42.4193 11.7628 40.7253 11.0148 38.76C10.2668 36.78 9.89277 34.6093 9.89277 32.248C9.89277 29.8867 10.2668 27.7233 11.0148 25.758C11.7628 23.778 12.8188 22.0767 14.1828 20.654C15.5468 19.2167 17.1821 18.102 19.0888 17.31C20.9954 16.518 23.1074 16.122 25.4248 16.122C27.7421 16.122 29.8541 16.518 31.7608 17.31C33.6821 18.102 35.3248 19.2167 36.6888 20.654C38.0528 22.0767 39.1088 23.778 39.8568 25.758C40.6048 27.7233 40.9788 29.8867 40.9788 32.248ZM36.6008 32.248C36.6008 30.312 36.3368 28.574 35.8088 27.034C35.2808 25.494 34.5328 24.196 33.5648 23.14C32.5968 22.0693 31.4234 21.248 30.0448 20.676C28.6661 20.104 27.1261 19.818 25.4248 19.818C23.7381 19.818 22.2054 20.104 20.8268 20.676C19.4481 21.248 18.2674 22.0693 17.2848 23.14C16.3168 24.196 15.5688 25.494 15.0408 27.034C14.5128 28.574 14.2488 30.312 14.2488 32.248C14.2488 34.184 14.5128 35.922 15.0408 37.462C15.5688 38.9873 16.3168 40.2853 17.2848 41.356C18.2674 42.412 19.4481 43.226 20.8268 43.798C22.2054 44.3553 23.7381 44.634 25.4248 44.634C27.1261 44.634 28.6661 44.3553 30.0448 43.798C31.4234 43.226 32.5968 42.412 33.5648 41.356C34.5328 40.2853 35.2808 38.9873 35.8088 37.462C36.3368 35.922 36.6008 34.184 36.6008 32.248ZM62.8234 25.714V48H60.4914C59.9341 48 59.5821 47.7287 59.4354 47.186L59.1274 44.788C58.1594 45.8587 57.0741 46.724 55.8714 47.384C54.6687 48.0293 53.2901 48.352 51.7354 48.352C50.5181 48.352 49.4401 48.154 48.5014 47.758C47.5774 47.3473 46.8001 46.7753 46.1694 46.042C45.5387 45.3087 45.0621 44.4213 44.7394 43.38C44.4314 42.3387 44.2774 41.1873 44.2774 39.926V25.714H48.1934V39.926C48.1934 41.6127 48.5747 42.918 49.3374 43.842C50.1147 44.766 51.2954 45.228 52.8794 45.228C54.0381 45.228 55.1161 44.9567 56.1134 44.414C57.1254 43.8567 58.0567 43.094 58.9074 42.126V25.714H62.8234ZM71.4305 30.18C72.1346 28.6547 72.9999 27.4667 74.0266 26.616C75.0532 25.7507 76.3072 25.318 77.7886 25.318C78.2579 25.318 78.7052 25.3693 79.1306 25.472C79.5706 25.5747 79.9592 25.736 80.2966 25.956L80.0106 28.882C79.9226 29.2487 79.7026 29.432 79.3506 29.432C79.1452 29.432 78.8446 29.388 78.4486 29.3C78.0526 29.212 77.6052 29.168 77.1066 29.168C76.4026 29.168 75.7719 29.2707 75.2146 29.476C74.6719 29.6813 74.1806 29.9893 73.7406 30.4C73.3152 30.796 72.9266 31.2947 72.5746 31.896C72.2372 32.4827 71.9292 33.1573 71.6506 33.92V48H67.7125V25.714H69.9566C70.3819 25.714 70.6752 25.7947 70.8366 25.956C70.9979 26.1173 71.1079 26.396 71.1666 26.792L71.4305 30.18ZM132.589 16.474L122.755 48H118.927L110.941 23.954C110.867 23.7193 110.794 23.47 110.721 23.206C110.662 22.942 110.596 22.6633 110.523 22.37C110.449 22.6633 110.376 22.942 110.303 23.206C110.23 23.47 110.156 23.7193 110.083 23.954L102.053 48H98.2248L88.3908 16.474H91.9328C92.3142 16.474 92.6295 16.5693 92.8788 16.76C93.1428 16.9507 93.3115 17.1927 93.3848 17.486L99.8968 39.398C99.9995 39.794 100.095 40.2193 100.183 40.674C100.285 41.1287 100.381 41.6127 100.469 42.126C100.571 41.6127 100.674 41.1287 100.777 40.674C100.894 40.2047 101.019 39.7793 101.151 39.398L108.565 17.486C108.653 17.2367 108.821 17.0093 109.071 16.804C109.335 16.584 109.65 16.474 110.017 16.474H111.249C111.63 16.474 111.938 16.5693 112.173 16.76C112.407 16.9507 112.583 17.1927 112.701 17.486L120.093 39.398C120.225 39.7793 120.342 40.19 120.445 40.63C120.562 41.07 120.672 41.532 120.775 42.016C120.848 41.532 120.929 41.07 121.017 40.63C121.105 40.19 121.2 39.7793 121.303 39.398L127.837 17.486C127.91 17.222 128.072 16.9873 128.321 16.782C128.585 16.5767 128.9 16.474 129.267 16.474H132.589ZM141.94 25.362C143.568 25.362 145.034 25.6333 146.34 26.176C147.645 26.7187 148.76 27.4887 149.684 28.486C150.608 29.4833 151.312 30.6933 151.796 32.116C152.294 33.524 152.544 35.1007 152.544 36.846C152.544 38.606 152.294 40.19 151.796 41.598C151.312 43.006 150.608 44.2087 149.684 45.206C148.76 46.2033 147.645 46.9733 146.34 47.516C145.034 48.044 143.568 48.308 141.94 48.308C140.297 48.308 138.816 48.044 137.496 47.516C136.19 46.9733 135.076 46.2033 134.152 45.206C133.228 44.2087 132.516 43.006 132.018 41.598C131.534 40.19 131.292 38.606 131.292 36.846C131.292 35.1007 131.534 33.524 132.018 32.116C132.516 30.6933 133.228 29.4833 134.152 28.486C135.076 27.4887 136.19 26.7187 137.496 26.176C138.816 25.6333 140.297 25.362 141.94 25.362ZM141.94 45.25C144.14 45.25 145.782 44.5167 146.868 43.05C147.953 41.5687 148.496 39.508 148.496 36.868C148.496 34.2133 147.953 32.1453 146.868 30.664C145.782 29.1827 144.14 28.442 141.94 28.442C140.825 28.442 139.85 28.6327 139.014 29.014C138.192 29.3953 137.503 29.9453 136.946 30.664C136.403 31.3827 135.992 32.27 135.714 33.326C135.45 34.3673 135.318 35.548 135.318 36.868C135.318 39.508 135.86 41.5687 136.946 43.05C138.046 44.5167 139.71 45.25 141.94 45.25ZM159.908 30.18C160.612 28.6547 161.478 27.4667 162.504 26.616C163.531 25.7507 164.785 25.318 166.266 25.318C166.736 25.318 167.183 25.3693 167.608 25.472C168.048 25.5747 168.437 25.736 168.774 25.956L168.488 28.882C168.4 29.2487 168.18 29.432 167.828 29.432C167.623 29.432 167.322 29.388 166.926 29.3C166.53 29.212 166.083 29.168 165.584 29.168C164.88 29.168 164.25 29.2707 163.692 29.476C163.15 29.6813 162.658 29.9893 162.218 30.4C161.793 30.796 161.404 31.2947 161.052 31.896C160.715 32.4827 160.407 33.1573 160.128 33.92V48H156.19V25.714H158.434C158.86 25.714 159.153 25.7947 159.314 25.956C159.476 26.1173 159.586 26.396 159.644 26.792L159.908 30.18ZM174.946 15.594V48H171.03V15.594H174.946ZM194.496 31.016C193.763 30.0333 192.971 29.3513 192.12 28.97C191.269 28.574 190.316 28.376 189.26 28.376C187.192 28.376 185.601 29.1167 184.486 30.598C183.371 32.0793 182.814 34.1913 182.814 36.934C182.814 38.386 182.939 39.6327 183.188 40.674C183.437 41.7007 183.804 42.5513 184.288 43.226C184.772 43.886 185.366 44.37 186.07 44.678C186.774 44.986 187.573 45.14 188.468 45.14C189.759 45.14 190.881 44.8467 191.834 44.26C192.802 43.6733 193.689 42.8447 194.496 41.774V31.016ZM198.412 15.594V48H196.08C195.523 48 195.171 47.7287 195.024 47.186L194.672 44.48C193.719 45.624 192.633 46.548 191.416 47.252C190.199 47.956 188.791 48.308 187.192 48.308C185.916 48.308 184.757 48.066 183.716 47.582C182.675 47.0833 181.787 46.3573 181.054 45.404C180.321 44.4507 179.756 43.2627 179.36 41.84C178.964 40.4173 178.766 38.782 178.766 36.934C178.766 35.2913 178.986 33.766 179.426 32.358C179.866 30.9353 180.497 29.7033 181.318 28.662C182.139 27.6207 183.144 26.8067 184.332 26.22C185.535 25.6187 186.884 25.318 188.38 25.318C189.744 25.318 190.91 25.5527 191.878 26.022C192.861 26.4767 193.733 27.1147 194.496 27.936V15.594H198.412ZM46.6139 70.714V93H42.6979V70.714H46.6139ZM47.4499 63.718C47.4499 64.0993 47.3692 64.4587 47.2079 64.796C47.0612 65.1187 46.8559 65.412 46.5919 65.676C46.3425 65.9253 46.0419 66.1233 45.6899 66.27C45.3525 66.4167 44.9932 66.49 44.6119 66.49C44.2305 66.49 43.8712 66.4167 43.5339 66.27C43.2112 66.1233 42.9252 65.9253 42.6759 65.676C42.4265 65.412 42.2285 65.1187 42.0819 64.796C41.9352 64.4587 41.8619 64.0993 41.8619 63.718C41.8619 63.3367 41.9352 62.9773 42.0819 62.64C42.2285 62.288 42.4265 61.9873 42.6759 61.738C42.9252 61.474 43.2112 61.2687 43.5339 61.122C43.8712 60.9753 44.2305 60.902 44.6119 60.902C44.9932 60.902 45.3525 60.9753 45.6899 61.122C46.0419 61.2687 46.3425 61.474 46.5919 61.738C46.8559 61.9873 47.0612 62.288 47.2079 62.64C47.3692 62.9773 47.4499 63.3367 47.4499 63.718ZM55.4242 73.948C55.9082 73.4053 56.4215 72.914 56.9642 72.474C57.5068 72.034 58.0788 71.66 58.6802 71.352C59.2962 71.0293 59.9415 70.7873 60.6162 70.626C61.3055 70.45 62.0462 70.362 62.8382 70.362C64.0555 70.362 65.1262 70.5673 66.0502 70.978C66.9888 71.374 67.7662 71.946 68.3822 72.694C69.0128 73.4273 69.4895 74.3147 69.8122 75.356C70.1348 76.3973 70.2962 77.5487 70.2962 78.81V93H66.3582V78.81C66.3582 77.1233 65.9695 75.818 65.1922 74.894C64.4295 73.9553 63.2635 73.486 61.6942 73.486C60.5355 73.486 59.4502 73.7647 58.4382 74.322C57.4408 74.8793 56.5168 75.6347 55.6662 76.588V93H51.7282V70.714H54.0822C54.6395 70.714 54.9842 70.9853 55.1162 71.528L55.4242 73.948ZM113.129 77.248C113.129 79.6093 112.755 81.758 112.007 83.694C111.259 85.63 110.203 87.2873 108.839 88.666C107.475 90.0447 105.832 91.1153 103.911 91.878C102.004 92.626 99.8925 93 97.5751 93H85.8051V61.474H97.5751C99.8925 61.474 102.004 61.8553 103.911 62.618C105.832 63.366 107.475 64.4367 108.839 65.83C110.203 67.2087 111.259 68.866 112.007 70.802C112.755 72.738 113.129 74.8867 113.129 77.248ZM108.751 77.248C108.751 75.312 108.487 73.5813 107.959 72.056C107.431 70.5307 106.683 69.24 105.715 68.184C104.747 67.128 103.574 66.3213 102.195 65.764C100.816 65.2067 99.2765 64.928 97.5751 64.928H90.0731V89.546H97.5751C99.2765 89.546 100.816 89.2673 102.195 88.71C103.574 88.1527 104.747 87.3533 105.715 86.312C106.683 85.256 107.431 83.9653 107.959 82.44C108.487 80.9147 108.751 79.184 108.751 77.248ZM128.553 82.968C126.749 83.0267 125.209 83.1733 123.933 83.408C122.672 83.628 121.638 83.9213 120.831 84.288C120.039 84.6547 119.46 85.0873 119.093 85.586C118.741 86.0847 118.565 86.642 118.565 87.258C118.565 87.8447 118.661 88.3507 118.851 88.776C119.042 89.2013 119.299 89.5533 119.621 89.832C119.959 90.096 120.347 90.294 120.787 90.426C121.242 90.5433 121.726 90.602 122.239 90.602C122.929 90.602 123.559 90.536 124.131 90.404C124.703 90.2573 125.239 90.052 125.737 89.788C126.251 89.524 126.735 89.2087 127.189 88.842C127.659 88.4753 128.113 88.0573 128.553 87.588V82.968ZM115.903 73.86C117.135 72.672 118.463 71.7847 119.885 71.198C121.308 70.6113 122.885 70.318 124.615 70.318C125.862 70.318 126.969 70.5233 127.937 70.934C128.905 71.3447 129.719 71.9167 130.379 72.65C131.039 73.3833 131.538 74.2707 131.875 75.312C132.213 76.3533 132.381 77.4973 132.381 78.744V93H130.643C130.262 93 129.969 92.9413 129.763 92.824C129.558 92.692 129.397 92.4427 129.279 92.076L128.839 89.964C128.253 90.5067 127.681 90.9907 127.123 91.416C126.566 91.8267 125.979 92.1787 125.363 92.472C124.747 92.7507 124.087 92.9633 123.383 93.11C122.694 93.2713 121.924 93.352 121.073 93.352C120.208 93.352 119.394 93.2347 118.631 93C117.869 92.7507 117.201 92.384 116.629 91.9C116.072 91.416 115.625 90.8073 115.287 90.074C114.965 89.326 114.803 88.446 114.803 87.434C114.803 86.554 115.045 85.7107 115.529 84.904C116.013 84.0827 116.798 83.3567 117.883 82.726C118.969 82.0953 120.384 81.582 122.129 81.186C123.875 80.7753 126.016 80.5407 128.553 80.482V78.744C128.553 77.0133 128.179 75.708 127.431 74.828C126.683 73.9333 125.591 73.486 124.153 73.486C123.185 73.486 122.371 73.6107 121.711 73.86C121.066 74.0947 120.501 74.366 120.017 74.674C119.548 74.9673 119.137 75.2387 118.785 75.488C118.448 75.7227 118.111 75.84 117.773 75.84C117.509 75.84 117.282 75.774 117.091 75.642C116.901 75.4953 116.739 75.3193 116.607 75.114L115.903 73.86ZM143.568 93.352C141.808 93.352 140.451 92.8607 139.498 91.878C138.559 90.8953 138.09 89.48 138.09 87.632V73.992H135.406C135.171 73.992 134.973 73.926 134.812 73.794C134.65 73.6473 134.57 73.4273 134.57 73.134V71.572L138.222 71.11L139.124 64.224C139.168 64.004 139.263 63.828 139.41 63.696C139.571 63.5493 139.776 63.476 140.026 63.476H142.006V71.154H148.452V73.992H142.006V87.368C142.006 88.3067 142.233 89.0033 142.688 89.458C143.142 89.9127 143.729 90.14 144.448 90.14C144.858 90.14 145.21 90.0887 145.504 89.986C145.812 89.8687 146.076 89.744 146.296 89.612C146.516 89.48 146.699 89.3627 146.846 89.26C147.007 89.1427 147.146 89.084 147.264 89.084C147.469 89.084 147.652 89.2087 147.814 89.458L148.958 91.328C148.283 91.9587 147.469 92.4573 146.516 92.824C145.562 93.176 144.58 93.352 143.568 93.352ZM163.253 82.968C161.449 83.0267 159.909 83.1733 158.633 83.408C157.372 83.628 156.338 83.9213 155.531 84.288C154.739 84.6547 154.16 85.0873 153.793 85.586C153.441 86.0847 153.265 86.642 153.265 87.258C153.265 87.8447 153.36 88.3507 153.551 88.776C153.742 89.2013 153.998 89.5533 154.321 89.832C154.658 90.096 155.047 90.294 155.487 90.426C155.942 90.5433 156.426 90.602 156.939 90.602C157.628 90.602 158.259 90.536 158.831 90.404C159.403 90.2573 159.938 90.052 160.437 89.788C160.95 89.524 161.434 89.2087 161.889 88.842C162.358 88.4753 162.813 88.0573 163.253 87.588V82.968ZM150.603 73.86C151.835 72.672 153.162 71.7847 154.585 71.198C156.008 70.6113 157.584 70.318 159.315 70.318C160.562 70.318 161.669 70.5233 162.637 70.934C163.605 71.3447 164.419 71.9167 165.079 72.65C165.739 73.3833 166.238 74.2707 166.575 75.312C166.912 76.3533 167.081 77.4973 167.081 78.744V93H165.343C164.962 93 164.668 92.9413 164.463 92.824C164.258 92.692 164.096 92.4427 163.979 92.076L163.539 89.964C162.952 90.5067 162.38 90.9907 161.823 91.416C161.266 91.8267 160.679 92.1787 160.063 92.472C159.447 92.7507 158.787 92.9633 158.083 93.11C157.394 93.2713 156.624 93.352 155.773 93.352C154.908 93.352 154.094 93.2347 153.331 93C152.568 92.7507 151.901 92.384 151.329 91.9C150.772 91.416 150.324 90.8073 149.987 90.074C149.664 89.326 149.503 88.446 149.503 87.434C149.503 86.554 149.745 85.7107 150.229 84.904C150.713 84.0827 151.498 83.3567 152.583 82.726C153.668 82.0953 155.084 81.582 156.829 81.186C158.574 80.7753 160.716 80.5407 163.253 80.482V78.744C163.253 77.0133 162.879 75.708 162.131 74.828C161.383 73.9333 160.29 73.486 158.853 73.486C157.885 73.486 157.071 73.6107 156.411 73.86C155.766 74.0947 155.201 74.366 154.717 74.674C154.248 74.9673 153.837 75.2387 153.485 75.488C153.148 75.7227 152.81 75.84 152.473 75.84C152.209 75.84 151.982 75.774 151.791 75.642C151.6 75.4953 151.439 75.3193 151.307 75.114L150.603 73.86Z" fill="white"/>
        <rect y="106.789" width="210" height="13.211" fill="#D42B21"/>
    </g>
    <defs>
        <clipPath id="clip0">
            <rect width="210" height="120" fill="white"/>
        </clipPath>
    </defs>
</svg></g><a href="https://staging-owid.netlify.com/grapher/real-commodity-price-index-food-products" target="_blank"><text font-size="25.20" x="15.0" y="35.2" fill="#555"><tspan x="15" y="35.160000000000004">Real commodity price index, food products</tspan></text></a><text font-size="14.40" x="15.0" y="53.7" fill="#666"><tspan x="15" y="53.72">Real commodity price index, measured relative to prices in the year 1900 (1900 = 100).</tspan></text></g><g class="LineChart"><defs><clipPath id="boundsClip-456"><rect x="37.216" y="0" width="830" height="963.8"></rect></clipPath></defs><g class="AxisBoxView"><g class="HorizontalAxis"><text x="47.2" y="556.5" fill="#666" text-anchor="middle" font-size="16.2">1850</text><text x="90.4" y="556.5" fill="#666" text-anchor="middle" font-size="16.2">1860</text><text x="176.8" y="556.5" fill="#666" text-anchor="middle" font-size="16.2">1880</text><text x="263.2" y="556.5" fill="#666" text-anchor="middle" font-size="16.2">1900</text><text x="349.6" y="556.5" fill="#666" text-anchor="middle" font-size="16.2">1920</text><text x="436" y="556.5" fill="#666" text-anchor="middle" font-size="16.2">1940</text><text x="522.4" y="556.5" fill="#666" text-anchor="middle" font-size="16.2">1960</text><text x="608.8" y="556.5" fill="#666" text-anchor="middle" font-size="16.2">1980</text><text x="695.2" y="556.5" fill="#666" text-anchor="middle" font-size="16.2">2000</text><text x="760" y="556.5" fill="#666" text-anchor="middle" font-size="16.2">2015</text></g><g class="VerticalAxis"><text x="42.22" y="535.3" fill="#666" dominant-baseline="middle" text-anchor="end" font-size="16.2">0</text><text x="42.22" y="441.8" fill="#666" dominant-baseline="middle" text-anchor="end" font-size="16.2">100</text><text x="42.22" y="348.3" fill="#666" dominant-baseline="middle" text-anchor="end" font-size="16.2">200</text><text x="42.22" y="254.7" fill="#666" dominant-baseline="middle" text-anchor="end" font-size="16.2">300</text><text x="42.22" y="161.2" fill="#666" dominant-baseline="middle" text-anchor="end" font-size="16.2">400</text></g><g class="AxisGridLines"><line x1="47.22" y1="535.3" x2="760.04" y2="535.3" stroke="#ccc"></line><line x1="47.22" y1="441.8" x2="760.04" y2="441.8" stroke="#ddd" stroke-dasharray="3,2"></line><line x1="47.22" y1="348.3" x2="760.04" y2="348.3" stroke="#ddd" stroke-dasharray="3,2"></line><line x1="47.22" y1="254.7" x2="760.04" y2="254.7" stroke="#ddd" stroke-dasharray="3,2"></line><line x1="47.22" y1="161.2" x2="760.04" y2="161.2" stroke="#ddd" stroke-dasharray="3,2"></line></g></g><g clip-path="url(#boundsClip-456)"><g class="HeightedLegend" style="cursor:pointer"><g class="legendMark"><g class="indicator"><path d="M764.04,344.8 H777.54 V344.8 H791.04" stroke="#999" stroke-width="0.5" fill="none"></path></g><rect x="760.04" y="338.05" width="62.945" height="13.5" fill="#fff" opacity="0"></rect><text font-size="13.50" x="795.0" y="348.9" fill="#e6332e"><tspan x="795.04" y="348.85">Beef</tspan></text></g><g class="legendMark"><g class="indicator"><path d="M764.04,395.3 H766.4945454545455 V373.55 H791.04" stroke="#999" stroke-width="0.5" fill="none"></path></g><rect x="760.04" y="366.8" width="68.885" height="13.5" fill="#fff" opacity="0"></rect><text font-size="13.50" x="795.0" y="377.6" fill="#7ec7ce"><tspan x="795.04" y="377.6">Lamb</tspan></text></g><g class="legendMark"><g class="indicator"><path d="M764.04,471.2 H768.949090909091 V389.05 H791.04" stroke="#999" stroke-width="0.5" fill="none"></path></g><rect x="760.04" y="382.3" width="73.34" height="13.5" fill="#fff" opacity="0"></rect><text font-size="13.50" x="795.0" y="393.1" fill="#b077b1"><tspan x="795.04" y="393.1">Barley</tspan></text></g><g class="legendMark"><g class="indicator"><path d="M764.04,480.4 H771.4036363636363 V404.55 H791.04" stroke="#999" stroke-width="0.5" fill="none"></path></g><rect x="760.04" y="397.8" width="74.96000000000001" height="13.5" fill="#fff" opacity="0"></rect><text font-size="13.50" x="795.0" y="408.6" fill="#ffd53e"><tspan x="795.04" y="408.6">Coffee</tspan></text></g><g class="legendMark"><g class="indicator"><path d="M764.04,487.1 H773.8581818181818 V420.05 H791.04" stroke="#999" stroke-width="0.5" fill="none"></path></g><rect x="760.04" y="413.3" width="59.03" height="13.5" fill="#fff" opacity="0"></rect><text font-size="13.50" x="795.0" y="424.1" fill="#9ecc8a"><tspan x="795.04" y="424.1">Rye</tspan></text></g><g class="legendMark"><g class="indicator"><path d="M764.04,504.5 H776.3127272727273 V435.55 H791.04" stroke="#999" stroke-width="0.5" fill="none"></path></g><rect x="760.04" y="428.8" width="64.295" height="13.5" fill="#fff" opacity="0"></rect><text font-size="13.50" x="795.0" y="439.6" fill="#e6332e"><tspan x="795.04" y="439.6">Corn</tspan></text></g><g class="legendMark"><g class="indicator"><path d="M764.04,506.3 H778.7672727272727 V451.05 H791.04" stroke="#999" stroke-width="0.5" fill="none"></path></g><rect x="760.04" y="444.3" width="74.15" height="13.5" fill="#fff" opacity="0"></rect><text font-size="13.50" x="795.0" y="455.1" fill="#2a939b"><tspan x="795.04" y="455.1">Cocoa</tspan></text></g><g class="legendMark"><g class="indicator"><path d="M764.04,508 H781.2218181818182 V466.55 H791.04" stroke="#999" stroke-width="0.5" fill="none"></path></g><rect x="760.04" y="459.8" width="58.355000000000004" height="13.5" fill="#fff" opacity="0"></rect><text font-size="13.50" x="795.0" y="470.6" fill="#a652ba"><tspan x="795.04" y="470.6">Tea</tspan></text></g><g class="legendMark"><g class="indicator"><path d="M764.04,514.7 H783.6763636363636 V482.05 H791.04" stroke="#999" stroke-width="0.5" fill="none"></path></g><rect x="760.04" y="475.3" width="74.15" height="13.5" fill="#fff" opacity="0"></rect><text font-size="13.50" x="795.0" y="486.1" fill="#f6a324"><tspan x="795.04" y="486.1">Wheat</tspan></text></g><g class="legendMark"><g class="indicator"><path d="M764.04,518.8 H786.1309090909091 V497.55 H791.04" stroke="#999" stroke-width="0.5" fill="none"></path></g><rect x="760.04" y="490.8" width="62" height="13.5" fill="#fff" opacity="0"></rect><text font-size="13.50" x="795.0" y="501.6" fill="#34983f"><tspan x="795.04" y="501.6">Rice</tspan></text></g><g class="legendMark"><g class="indicator"><path d="M764.04,519.3 H788.5854545454546 V513.05 H791.04" stroke="#999" stroke-width="0.5" fill="none"></path></g><rect x="760.04" y="506.3" width="71.18" height="13.5" fill="#fff" opacity="0"></rect><text font-size="13.50" x="795.0" y="517.1" fill="#ca2628"><tspan x="795.04" y="517.0999999999999">Sugar</tspan></text></g><g class="legendMark"><g class="indicator"><path d="M764.04,522.4 H788.5854545454546 V528.55 H791.04" stroke="#999" stroke-width="0.5" fill="none"></path></g><rect x="760.04" y="521.8" width="62.81" height="13.5" fill="#fff" opacity="0"></rect><text font-size="13.50" x="795.0" y="532.6" fill="#3360a9"><tspan x="795.04" y="532.5999999999999">Pork</tspan></text></g></g><g class="Lines"><rect x="47" y="75" width="713" height="461" fill="rgba(255,255,255,0)" opacity="0"></rect><g class="key-World_0"><path stroke="#2a939b" stroke-linecap="round" d="M47 461L52 462L56 476L60 448L65 447L69 449L73 448L78 455L82 451L86 464L90 468L95 470L99 419L103 410L108 426L112 412L116 448L121 463L125 468L129 472L134 462L138 473L142 468L147 474L151 470L155 470L160 460L164 453L168 446L173 434L177 445L181 453L186 454L190 447L194 454L198 454L203 449L207 453L211 453L216 457L220 460L224 464L229 466L233 458L237 465L242 466L246 472L250 468L255 445L259 454L263 442L268 448L272 449L276 450L281 449L285 450L289 450L294 436L298 465L302 474L306 480L311 477L315 475L319 470L324 477L328 458L332 475L337 496L341 497L345 487L350 505L354 516L358 510L363 515L367 515L371 511L376 506L380 494L384 501L389 508L393 513L397 520L402 521L406 520L410 518L414 519L419 513L423 509L427 519L432 520L436 519L440 512L445 511L449 512L453 512L458 513L462 509L466 465L471 461L475 494L479 475L484 473L488 475L492 473L497 438L501 472L505 490L510 486L514 466L518 478L522 492L527 500L531 502L535 496L540 500L544 510L548 501L553 496L557 490L561 482L566 497L570 506L574 502L579 480L583 466L587 485L592 457L596 399L600 421L605 436L609 466L613 485L618 496L622 489L626 485L630 490L635 494L639 497L643 506L648 513L652 514L656 516L661 518L665 518L669 515L674 515L678 515L682 513L687 513L691 520L695 524L700 522L704 514L708 515L713 517L717 518L721 518L726 515L730 509L734 506L738 504L743 506L747 513L751 512L756 507L760 506" fill="none" stroke-width="1.5"></path></g><g class="key-World_1"><path stroke="#ffd53e" stroke-linecap="round" d="M47 405L52 423L56 430L60 427L65 420L69 426L73 414L78 415L82 415L86 406L90 397L95 386L99 326L103 306L108 437L112 442L116 452L121 457L125 465L129 462L134 453L138 434L142 404L147 374L151 360L155 371L160 363L164 350L168 377L173 396L177 400L181 425L186 438L190 437L194 432L198 449L203 435L207 354L211 375L216 344L220 335L224 347L229 357L233 335L237 331L242 343L246 361L250 446L255 463L259 465L263 442L268 463L272 471L276 474L281 451L285 445L289 450L294 469L298 470L302 452L306 438L311 400L315 392L319 430L324 458L328 464L332 454L337 469L341 475L345 440L350 480L354 498L358 478L363 473L367 444L371 428L376 440L380 439L384 411L389 414L393 463L397 482L402 463L406 470L410 458L414 476L419 472L423 464L427 485L432 486L436 488L440 464L445 459L449 464L453 465L458 465L462 447L466 428L471 431L475 408L479 339L484 342L488 347L492 333L497 267L501 340L505 337L510 350L514 381L518 418L522 421L527 425L531 434L535 438L540 415L544 419L548 430L553 440L557 444L561 447L566 427L570 445L574 438L579 422L583 427L587 437L592 332L596 221L600 333L605 341L609 380L613 419L618 418L622 428L626 422L630 425L635 391L639 454L643 441L648 464L652 480L656 485L661 498L665 496L669 453L674 455L678 472L682 440L687 468L691 485L695 494L700 507L704 508L708 507L713 501L717 488L721 489L726 487L730 483L734 481L738 462L743 437L747 469L751 487L756 466L760 480" fill="none" stroke-width="1.5"></path></g><g class="key-World_2"><path stroke="#a652ba" stroke-linecap="round" d="M47 357L52 365L56 390L60 355L65 366L69 376L73 378L78 353L82 351L86 331L90 330L95 359L99 361L103 399L108 429L112 424L116 424L121 419L125 411L129 416L134 415L138 412L142 410L147 408L151 399L155 396L160 395L164 396L168 395L173 401L177 415L181 421L186 423L190 422L194 425L198 421L203 421L207 434L211 430L216 428L220 428L224 427L229 434L233 435L237 433L242 430L246 431L250 432L255 435L259 438L263 442L268 447L272 443L276 466L281 454L285 455L289 467L294 471L298 474L302 468L306 469L311 468L315 469L319 469L324 470L328 472L332 478L337 474L341 475L345 485L350 500L354 501L358 484L363 471L367 470L371 472L376 468L380 467L384 475L389 476L393 479L397 489L402 504L406 486L410 471L414 476L419 475L423 468L427 471L432 479L436 478L440 466L445 454L449 466L453 469L458 470L462 479L466 466L471 467L475 462L479 471L484 460L488 474L492 463L497 431L501 436L505 441L510 451L514 451L518 452L522 452L527 460L531 459L535 461L540 464L544 460L548 471L553 476L557 484L561 488L566 484L570 485L574 491L579 493L583 483L587 485L592 486L596 458L600 484L605 486L609 487L613 497L618 497L622 485L626 472L630 497L635 499L639 501L643 504L648 500L652 498L656 506L661 508L665 509L669 511L674 512L678 510L682 505L687 505L691 509L695 509L700 514L704 515L708 516L713 514L717 515L721 513L726 512L730 509L734 505L738 504L743 504L747 505L751 506L756 508L760 508" fill="none" stroke-width="1.5"></path></g><g class="key-World_3"><path stroke="#ca2628" stroke-linecap="round" d="M47 338L52 326L56 352L60 328L65 352L69 329L73 296L78 246L82 288L86 306L90 298L95 333L99 364L103 403L108 410L112 433L116 434L121 419L125 414L129 400L134 394L138 379L142 384L147 391L151 392L155 395L160 386L164 359L168 381L173 387L177 382L181 376L186 382L190 385L194 425L198 423L203 440L207 441L211 432L216 408L220 432L224 430L229 427L233 434L237 437L242 447L246 444L250 454L255 448L259 444L263 442L268 461L272 476L276 474L281 454L285 447L289 470L294 470L298 458L302 458L306 456L311 447L315 461L319 481L324 462L328 444L332 425L337 438L341 460L345 457L350 375L354 489L358 490L363 456L367 475L371 501L376 502L380 494L384 501L389 508L393 516L397 516L402 521L406 515L410 511L414 504L419 502L423 502L427 508L432 506L436 509L440 504L445 494L449 497L453 498L458 491L462 486L466 478L471 488L475 488L479 480L484 477L488 493L492 501L497 503L501 503L505 501L510 486L514 503L518 508L522 507L527 510L531 509L535 459L540 483L544 517L548 520L553 519L557 520L561 511L566 508L570 504L574 486L579 475L583 366L587 428L592 478L596 498L600 502L605 498L609 438L613 483L618 511L622 511L626 521L630 525L635 520L639 519L643 511L648 506L652 508L656 517L661 517L665 516L669 512L674 511L678 514L682 515L687 520L691 525L695 522L700 522L704 525L708 525L713 525L717 521L721 515L726 522L730 519L734 512L738 508L743 503L747 509L751 514L756 515L760 519" fill="none" stroke-width="1.5"></path></g><g class="key-World_4"><path stroke="#f6a324" stroke-linecap="round" d="M47 444L52 470L56 471L60 431L65 393L69 368L73 400L78 420L82 448L86 418L90 412L95 445L99 451L103 447L108 427L112 458L116 444L121 386L125 401L129 445L134 453L138 425L142 422L147 427L151 429L155 432L160 429L164 400L168 428L173 425L177 421L181 410L186 408L190 423L194 442L198 439L203 445L207 447L211 429L216 432L220 426L224 417L229 439L233 452L237 462L242 455L246 447L250 420L255 415L259 440L263 442L268 441L272 439L276 436L281 406L285 408L289 438L294 428L298 417L302 388L306 407L311 420L315 416L319 429L324 422L328 391L332 396L337 336L341 376L345 378L350 398L354 446L358 448L363 462L367 443L371 426L376 437L380 449L384 434L389 452L393 472L397 487L402 491L406 470L410 457L414 455L419 447L423 443L427 474L432 475L436 461L440 460L445 451L449 439L453 433L458 432L462 427L466 406L471 423L475 438L479 436L484 434L488 440L492 452L497 449L501 450L505 446L510 450L514 459L518 463L522 463L527 460L531 461L535 464L540 476L544 481L548 478L553 487L557 494L561 495L566 492L570 493L574 488L579 436L583 433L587 465L592 477L596 489L600 482L605 475L609 479L613 491L618 499L622 497L626 499L630 503L635 507L639 507L643 503L648 501L652 510L656 510L661 508L665 511L669 510L674 504L678 504L682 513L687 518L691 521L695 522L700 521L704 518L708 518L713 518L717 520L721 517L726 510L730 501L734 513L738 514L743 505L747 505L751 507L756 511L760 515" fill="none" stroke-width="1.5"></path></g><g class="key-World_5"><path stroke="#9ecc8a" stroke-linecap="round" d="M47 358L52 343L56 326L60 347L65 398L69 424L73 360L78 369L82 329L86 364L90 354L95 323L99 371L103 443L108 485L112 471L116 463L121 481L125 485L129 465L134 439L138 437L142 440L147 436L151 418L155 427L160 436L164 445L168 450L173 429L177 421L181 395L186 439L190 444L194 450L198 441L203 447L207 447L211 438L216 464L220 428L224 402L229 443L233 449L237 447L242 459L246 466L250 455L255 452L259 442L263 442L268 434L272 444L276 440L281 414L285 428L289 433L294 414L298 411L302 412L306 416L311 402L315 433L319 441L324 408L328 405L332 375L337 330L341 385L345 408L350 425L354 465L358 479L363 484L367 451L371 468L376 465L380 463L384 463L389 459L393 495L397 501L402 504L406 462L410 454L414 491L419 446L423 463L427 494L432 487L436 490L440 479L445 479L449 449L453 441L458 421L462 384L466 380L471 445L475 459L479 453L484 446L488 437L492 462L497 467L501 475L505 471L510 477L514 482L518 483L522 490L527 484L531 488L535 482L540 484L544 488L548 486L553 487L557 492L561 494L566 497L570 502L574 500L579 470L583 458L587 469L592 469L596 484L600 489L605 492L609 487L613 485L618 498L622 502L626 509L630 507L635 515L639 514L643 503L648 510L652 511L656 511L661 510L665 509L669 508L674 506L678 500L682 500L687 512L691 515L695 512L700 511L704 507L708 511L713 509L717 510L721 510L726 499L730 491L734 500L738 500L743 483L747 485L751 483L756 485L760 487" fill="none" stroke-width="1.5"></path></g><g class="key-World_6"><path stroke="#34983f" stroke-linecap="round" d="M47 418L52 424L56 412L60 386L65 380L69 376L73 410L78 410L82 437L86 426L90 404L95 408L99 424L103 442L108 471L112 464L116 455L121 450L125 453L129 461L134 457L138 456L142 448L147 450L151 442L155 455L160 446L164 434L168 429L173 432L177 441L181 448L186 457L190 450L194 451L198 458L203 460L207 467L211 456L216 451L220 450L224 452L229 444L233 459L237 472L242 465L246 457L250 447L255 443L259 443L263 442L268 452L272 456L276 437L281 454L285 443L289 430L294 427L298 420L302 444L306 448L311 421L315 406L319 436L324 443L328 442L332 456L337 479L341 480L345 484L350 483L354 469L358 456L363 462L367 455L371 457L376 452L380 456L384 463L389 463L393 477L397 499L402 500L406 504L410 496L414 485L419 486L423 485L427 488L432 489L436 480L440 477L445 477L449 478L453 479L458 480L462 477L466 453L471 455L475 465L479 477L484 478L488 475L492 468L497 475L501 481L505 483L510 485L514 484L518 489L522 492L527 488L531 483L535 487L540 490L544 491L548 483L553 467L557 475L561 483L566 497L570 502L574 499L579 467L583 422L587 466L592 489L596 489L600 477L605 488L609 481L613 481L618 504L622 507L626 510L630 515L635 517L639 516L643 511L648 510L652 514L656 513L661 516L665 518L669 517L674 514L678 513L682 516L687 516L691 520L695 523L700 525L704 524L708 524L713 522L717 520L721 520L726 519L730 502L734 507L738 511L743 510L747 509L751 512L756 517L760 519" fill="none" stroke-width="1.5"></path></g><g class="key-World_7"><path stroke="#e6332e" stroke-linecap="round" d="M47 443L52 443L56 436L60 433L65 425L69 408L73 445L78 435L82 432L86 419L90 435L95 476L99 477L103 439L108 393L112 455L116 465L121 415L125 414L129 433L134 422L138 453L142 471L147 473L151 416L155 417L160 450L164 447L168 458L173 462L177 460L181 435L186 400L190 426L194 427L198 444L203 455L207 450L211 435L216 459L220 447L224 403L229 431L233 445L237 433L242 440L246 472L250 472L255 457L259 452L263 442L268 414L272 392L276 428L281 419L285 418L289 430L294 420L298 383L302 385L306 409L311 408L315 389L319 406L324 392L328 386L332 380L337 279L341 324L345 350L350 392L354 470L358 462L363 440L367 424L371 418L376 451L380 437L384 422L389 427L393 438L397 468L402 491L406 474L410 439L414 418L419 415L423 393L427 458L432 464L436 446L440 438L445 432L449 414L453 408L458 405L462 385L466 347L471 367L475 423L479 409L484 396L488 402L492 416L497 417L501 431L505 428L510 446L514 449L518 452L522 458L527 460L531 461L535 454L540 455L544 453L548 451L553 459L557 470L561 469L566 464L570 468L574 473L579 436L583 402L587 430L592 442L596 463L600 464L605 462L609 461L613 468L618 486L622 473L626 477L630 489L635 501L639 507L643 496L648 496L652 498L656 500L661 503L665 504L669 503L674 499L678 488L682 502L687 509L691 513L695 514L700 514L704 512L708 511L713 510L717 515L721 513L726 504L730 493L734 502L738 501L743 483L747 478L751 484L756 501L760 505" fill="none" stroke-width="1.5"></path></g><g class="key-World_8"><path stroke="#b077b1" stroke-linecap="round" d="M47 426L52 417L56 401L60 379L65 380L69 389L73 359L78 360L82 382L86 389L90 375L95 387L99 409L103 440L108 468L112 469L116 450L121 437L125 426L129 430L134 439L138 414L142 419L147 380L151 372L155 385L160 412L164 419L168 422L173 419L177 410L181 381L186 416L190 422L194 440L198 424L203 426L207 430L211 415L216 448L220 404L224 425L229 437L233 449L237 437L242 460L246 467L250 456L255 445L259 445L263 442L268 432L272 434L276 437L281 446L285 449L289 446L294 399L298 417L302 417L306 412L311 368L315 434L319 433L324 432L328 435L332 394L337 356L341 417L345 401L350 456L354 485L358 480L363 476L367 454L371 470L376 474L380 461L384 473L389 476L393 490L397 495L402 505L406 473L410 440L414 484L419 430L423 465L427 487L432 481L436 482L440 468L445 463L449 428L453 428L458 430L462 403L466 391L471 445L475 452L479 443L484 445L488 439L492 454L497 460L501 471L505 467L510 476L514 477L518 480L522 482L527 481L531 477L535 474L540 472L544 475L548 473L553 474L557 479L561 481L566 482L570 481L574 479L579 446L583 433L587 450L592 459L596 474L600 470L605 465L609 461L613 467L618 484L622 480L626 476L630 493L635 502L639 498L643 489L648 488L652 488L656 491L661 492L665 497L669 497L674 482L678 476L682 488L687 495L691 500L695 500L700 494L704 488L708 491L713 494L717 497L721 490L726 471L730 463L734 489L738 479L743 464L747 454L751 468L756 488L760 471" fill="none" stroke-width="1.5"></path></g><g class="key-World_9"><path stroke="#e6332e" stroke-linecap="round" d="M47 464L52 462L56 460L60 441L65 440L69 440L73 445L78 445L82 442L86 443L90 441L95 446L99 463L103 474L108 483L112 483L116 480L121 478L125 479L129 472L134 467L138 454L142 456L147 448L151 452L155 442L160 445L164 448L168 444L173 451L177 446L181 448L186 442L190 440L194 442L198 450L203 456L207 465L211 459L216 456L220 457L224 453L229 457L233 457L237 455L242 453L246 460L250 454L255 454L259 445L263 442L268 443L272 444L276 450L281 447L285 446L289 448L294 454L298 450L302 449L306 453L311 453L315 455L319 457L324 460L328 375L332 375L337 403L341 384L345 372L350 444L354 456L358 485L363 482L367 482L371 470L376 473L380 478L384 464L389 460L393 465L397 407L402 432L406 433L410 456L414 453L419 451L423 419L427 431L432 434L436 409L440 394L445 371L449 371L453 377L458 380L462 371L466 396L471 429L475 450L479 477L484 481L488 479L492 473L497 475L501 464L505 414L510 432L514 428L518 292L522 282L527 303L531 295L535 314L540 259L544 251L548 215L553 218L557 218L561 196L566 193L570 197L574 175L579 75L583 209L587 284L592 253L596 282L600 201L605 131L609 194L613 258L618 283L622 286L626 313L630 331L635 341L639 321L643 319L648 324L652 336L656 336L661 357L665 351L669 375L674 408L678 419L682 418L687 428L691 423L695 421L700 413L704 416L708 426L713 400L717 399L721 407L726 408L730 387L734 410L738 379L743 352L747 352L751 357L756 321L760 345" fill="none" stroke-width="1.5"></path></g><g class="key-World_10"><path stroke="#7ec7ce" stroke-linecap="round" d="M47 462L52 459L56 460L60 442L65 450L69 454L73 452L78 453L82 453L86 451L90 446L95 452L99 465L103 478L108 489L112 483L116 484L121 486L125 488L129 479L134 476L138 467L142 462L147 456L151 463L155 449L160 446L164 448L168 445L173 450L177 449L181 446L186 442L190 438L194 449L198 458L203 448L207 463L211 454L216 444L220 449L224 458L229 458L233 455L237 450L242 443L246 451L250 447L255 452L259 449L263 442L268 451L272 450L276 448L281 447L285 446L289 447L294 450L298 451L302 459L306 454L311 458L315 454L319 452L324 450L328 436L332 441L337 449L341 442L345 438L350 470L354 480L358 504L363 487L367 475L371 467L376 490L380 487L384 476L389 480L393 485L397 443L402 456L406 440L410 438L414 380L419 359L423 347L427 370L432 398L436 396L440 399L445 407L449 406L453 406L458 413L462 413L466 434L471 467L475 475L479 504L484 501L488 503L492 493L497 500L501 492L505 455L510 461L514 463L518 418L522 374L527 405L531 413L535 389L540 375L544 415L548 416L553 411L557 399L561 400L566 400L570 411L574 373L579 337L583 352L587 361L592 361L596 357L600 322L605 328L609 314L613 344L618 379L622 412L626 418L630 427L635 411L639 415L643 406L648 417L652 406L656 427L661 416L665 408L669 408L674 426L678 402L682 401L687 428L691 436L695 439L700 431L704 419L708 401L713 381L717 391L721 408L726 409L730 400L734 409L738 381L743 348L747 367L751 382L756 363L760 395" fill="none" stroke-width="1.5"></path></g><g class="key-World_11"><path stroke="#3360a9" stroke-linecap="round" d="M47 484L52 464L56 449L60 457L65 472L69 457L73 455L78 442L82 460L86 453L90 441L95 473L99 492L103 484L108 457L112 438L116 450L121 470L125 447L129 428L134 435L138 471L142 481L147 477L151 453L155 430L160 437L164 457L168 479L173 478L177 465L181 442L186 423L190 441L194 449L198 467L203 467L207 455L211 442L216 461L220 468L224 461L229 449L233 422L237 445L242 455L246 472L250 467L255 463L259 460L263 442L268 427L272 410L276 429L281 446L285 443L289 427L294 435L298 438L302 407L306 390L311 427L315 414L319 406L324 407L328 427L332 400L337 351L341 360L345 378L350 433L354 468L358 456L363 472L367 463L371 436L376 437L380 453L384 455L389 450L393 455L397 480L402 497L406 493L410 484L414 436L419 432L423 431L427 452L432 467L436 476L440 452L445 443L449 463L453 473L458 472L462 479L466 484L471 489L475 481L479 486L484 494L488 499L492 486L497 486L501 496L505 499L510 488L514 482L518 497L522 491L527 488L531 489L535 497L540 498L544 485L548 485L553 492L557 492L561 482L566 483L570 494L574 477L579 452L583 470L587 452L592 467L596 474L600 468L605 483L609 491L613 487L618 469L622 483L626 487L630 489L635 485L639 489L643 506L648 512L652 501L656 506L661 517L665 515L669 518L674 517L678 509L682 515L687 523L691 523L695 520L700 520L704 524L708 522L713 519L717 520L721 521L726 522L730 522L734 524L738 520L743 518L747 519L751 519L756 516L760 522" fill="none" stroke-width="1.5"></path></g></g></g></g><g class="SourcesFooter" style="fill:#777"><g class="clickable" style="fill:#777"><text font-size="12.60" x="15.0" y="581.6"><tspan x="15" y="581.58">Source: Commodity Prices since 1850 - Jacks (2016)</tspan></text></g><text font-size="12.60" x="796.4" y="581.6"><tspan x="796.444" y="581.58"><a style="fill: #777;" class="cclogo" href="http://creativecommons.org/licenses/by/4.0/deed.en_US" target="_blank">CC BY</a></tspan></text></g></svg>