<svg xmlns="http://www.w3.org/2000/svg" version="1.1" style="font-family:Lato, &#x27;Helvetica Neue&#x27;, Helvetica, Arial, sans-serif;font-size:18px;background-color:white;text-rendering:optimizeLegibility;-webkit-font-smoothing:antialiased" width="850" height="600"><g class="HeaderView"><g transform="translate(774, 15) scale(0.29)"><svg width="210" height="120" viewBox="0 0 210 120" fill="none" xmlns="http://www.w3.org/2000/svg">
    <g clip-path="url(#clip0)">
        <path d="M0 0H210V107.89H0V0Z" fill="#002147"/>
        <path d="M40.9788 32.248C40.9788 34.6093 40.6048 36.78 39.8568 38.76C39.1088 40.7253 38.0528 42.4193 36.6888 43.842C35.3248 45.2647 33.6821 46.372 31.7608 47.164C29.8541 47.9413 27.7421 48.33 25.4248 48.33C23.1074 48.33 20.9954 47.9413 19.0888 47.164C17.1821 46.372 15.5468 45.2647 14.1828 43.842C12.8188 42.4193 11.7628 40.7253 11.0148 38.76C10.2668 36.78 9.89277 34.6093 9.89277 32.248C9.89277 29.8867 10.2668 27.7233 11.0148 25.758C11.7628 23.778 12.8188 22.0767 14.1828 20.654C15.5468 19.2167 17.1821 18.102 19.0888 17.31C20.9954 16.518 23.1074 16.122 25.4248 16.122C27.7421 16.122 29.8541 16.518 31.7608 17.31C33.6821 18.102 35.3248 19.2167 36.6888 20.654C38.0528 22.0767 39.1088 23.778 39.8568 25.758C40.6048 27.7233 40.9788 29.8867 40.9788 32.248ZM36.6008 32.248C36.6008 30.312 36.3368 28.574 35.8088 27.034C35.2808 25.494 34.5328 24.196 33.5648 23.14C32.5968 22.0693 31.4234 21.248 30.0448 20.676C28.6661 20.104 27.1261 19.818 25.4248 19.818C23.7381 19.818 22.2054 20.104 20.8268 20.676C19.4481 21.248 18.2674 22.0693 17.2848 23.14C16.3168 24.196 15.5688 25.494 15.0408 27.034C14.5128 28.574 14.2488 30.312 14.2488 32.248C14.2488 34.184 14.5128 35.922 15.0408 37.462C15.5688 38.9873 16.3168 40.2853 17.2848 41.356C18.2674 42.412 19.4481 43.226 20.8268 43.798C22.2054 44.3553 23.7381 44.634 25.4248 44.634C27.1261 44.634 28.6661 44.3553 30.0448 43.798C31.4234 43.226 32.5968 42.412 33.5648 41.356C34.5328 40.2853 35.2808 38.9873 35.8088 37.462C36.3368 35.922 36.6008 34.184 36.6008 32.248ZM62.8234 25.714V48H60.4914C59.9341 48 59.5821 47.7287 59.4354 47.186L59.1274 44.788C58.1594 45.8587 57.0741 46.724 55.8714 47.384C54.6687 48.0293 53.2901 48.352 51.7354 48.352C50.5181 48.352 49.4401 48.154 48.5014 47.758C47.5774 47.3473 46.8001 46.7753 46.1694 46.042C45.5387 45.3087 45.0621 44.4213 44.7394 43.38C44.4314 42.3387 44.2774 41.1873 44.2774 39.926V25.714H48.1934V39.926C48.1934 41.6127 48.5747 42.918 49.3374 43.842C50.1147 44.766 51.2954 45.228 52.8794 45.228C54.0381 45.228 55.1161 44.9567 56.1134 44.414C57.1254 43.8567 58.0567 43.094 58.9074 42.126V25.714H62.8234ZM71.4305 30.18C72.1346 28.6547 72.9999 27.4667 74.0266 26.616C75.0532 25.7507 76.3072 25.318 77.7886 25.318C78.2579 25.318 78.7052 25.3693 79.1306 25.472C79.5706 25.5747 79.9592 25.736 80.2966 25.956L80.0106 28.882C79.9226 29.2487 79.7026 29.432 79.3506 29.432C79.1452 29.432 78.8446 29.388 78.4486 29.3C78.0526 29.212 77.6052 29.168 77.1066 29.168C76.4026 29.168 75.7719 29.2707 75.2146 29.476C74.6719 29.6813 74.1806 29.9893 73.7406 30.4C73.3152 30.796 72.9266 31.2947 72.5746 31.896C72.2372 32.4827 71.9292 33.1573 71.6506 33.92V48H67.7125V25.714H69.9566C70.3819 25.714 70.6752 25.7947 70.8366 25.956C70.9979 26.1173 71.1079 26.396 71.1666 26.792L71.4305 30.18ZM132.589 16.474L122.755 48H118.927L110.941 23.954C110.867 23.7193 110.794 23.47 110.721 23.206C110.662 22.942 110.596 22.6633 110.523 22.37C110.449 22.6633 110.376 22.942 110.303 23.206C110.23 23.47 110.156 23.7193 110.083 23.954L102.053 48H98.2248L88.3908 16.474H91.9328C92.3142 16.474 92.6295 16.5693 92.8788 16.76C93.1428 16.9507 93.3115 17.1927 93.3848 17.486L99.8968 39.398C99.9995 39.794 100.095 40.2193 100.183 40.674C100.285 41.1287 100.381 41.6127 100.469 42.126C100.571 41.6127 100.674 41.1287 100.777 40.674C100.894 40.2047 101.019 39.7793 101.151 39.398L108.565 17.486C108.653 17.2367 108.821 17.0093 109.071 16.804C109.335 16.584 109.65 16.474 110.017 16.474H111.249C111.63 16.474 111.938 16.5693 112.173 16.76C112.407 16.9507 112.583 17.1927 112.701 17.486L120.093 39.398C120.225 39.7793 120.342 40.19 120.445 40.63C120.562 41.07 120.672 41.532 120.775 42.016C120.848 41.532 120.929 41.07 121.017 40.63C121.105 40.19 121.2 39.7793 121.303 39.398L127.837 17.486C127.91 17.222 128.072 16.9873 128.321 16.782C128.585 16.5767 128.9 16.474 129.267 16.474H132.589ZM141.94 25.362C143.568 25.362 145.034 25.6333 146.34 26.176C147.645 26.7187 148.76 27.4887 149.684 28.486C150.608 29.4833 151.312 30.6933 151.796 32.116C152.294 33.524 152.544 35.1007 152.544 36.846C152.544 38.606 152.294 40.19 151.796 41.598C151.312 43.006 150.608 44.2087 149.684 45.206C148.76 46.2033 147.645 46.9733 146.34 47.516C145.034 48.044 143.568 48.308 141.94 48.308C140.297 48.308 138.816 48.044 137.496 47.516C136.19 46.9733 135.076 46.2033 134.152 45.206C133.228 44.2087 132.516 43.006 132.018 41.598C131.534 40.19 131.292 38.606 131.292 36.846C131.292 35.1007 131.534 33.524 132.018 32.116C132.516 30.6933 133.228 29.4833 134.152 28.486C135.076 27.4887 136.19 26.7187 137.496 26.176C138.816 25.6333 140.297 25.362 141.94 25.362ZM141.94 45.25C144.14 45.25 145.782 44.5167 146.868 43.05C147.953 41.5687 148.496 39.508 148.496 36.868C148.496 34.2133 147.953 32.1453 146.868 30.664C145.782 29.1827 144.14 28.442 141.94 28.442C140.825 28.442 139.85 28.6327 139.014 29.014C138.192 29.3953 137.503 29.9453 136.946 30.664C136.403 31.3827 135.992 32.27 135.714 33.326C135.45 34.3673 135.318 35.548 135.318 36.868C135.318 39.508 135.86 41.5687 136.946 43.05C138.046 44.5167 139.71 45.25 141.94 45.25ZM159.908 30.18C160.612 28.6547 161.478 27.4667 162.504 26.616C163.531 25.7507 164.785 25.318 166.266 25.318C166.736 25.318 167.183 25.3693 167.608 25.472C168.048 25.5747 168.437 25.736 168.774 25.956L168.488 28.882C168.4 29.2487 168.18 29.432 167.828 29.432C167.623 29.432 167.322 29.388 166.926 29.3C166.53 29.212 166.083 29.168 165.584 29.168C164.88 29.168 164.25 29.2707 163.692 29.476C163.15 29.6813 162.658 29.9893 162.218 30.4C161.793 30.796 161.404 31.2947 161.052 31.896C160.715 32.4827 160.407 33.1573 160.128 33.92V48H156.19V25.714H158.434C158.86 25.714 159.153 25.7947 159.314 25.956C159.476 26.1173 159.586 26.396 159.644 26.792L159.908 30.18ZM174.946 15.594V48H171.03V15.594H174.946ZM194.496 31.016C193.763 30.0333 192.971 29.3513 192.12 28.97C191.269 28.574 190.316 28.376 189.26 28.376C187.192 28.376 185.601 29.1167 184.486 30.598C183.371 32.0793 182.814 34.1913 182.814 36.934C182.814 38.386 182.939 39.6327 183.188 40.674C183.437 41.7007 183.804 42.5513 184.288 43.226C184.772 43.886 185.366 44.37 186.07 44.678C186.774 44.986 187.573 45.14 188.468 45.14C189.759 45.14 190.881 44.8467 191.834 44.26C192.802 43.6733 193.689 42.8447 194.496 41.774V31.016ZM198.412 15.594V48H196.08C195.523 48 195.171 47.7287 195.024 47.186L194.672 44.48C193.719 45.624 192.633 46.548 191.416 47.252C190.199 47.956 188.791 48.308 187.192 48.308C185.916 48.308 184.757 48.066 183.716 47.582C182.675 47.0833 181.787 46.3573 181.054 45.404C180.321 44.4507 179.756 43.2627 179.36 41.84C178.964 40.4173 178.766 38.782 178.766 36.934C178.766 35.2913 178.986 33.766 179.426 32.358C179.866 30.9353 180.497 29.7033 181.318 28.662C182.139 27.6207 183.144 26.8067 184.332 26.22C185.535 25.6187 186.884 25.318 188.38 25.318C189.744 25.318 190.91 25.5527 191.878 26.022C192.861 26.4767 193.733 27.1147 194.496 27.936V15.594H198.412ZM46.6139 70.714V93H42.6979V70.714H46.6139ZM47.4499 63.718C47.4499 64.0993 47.3692 64.4587 47.2079 64.796C47.0612 65.1187 46.8559 65.412 46.5919 65.676C46.3425 65.9253 46.0419 66.1233 45.6899 66.27C45.3525 66.4167 44.9932 66.49 44.6119 66.49C44.2305 66.49 43.8712 66.4167 43.5339 66.27C43.2112 66.1233 42.9252 65.9253 42.6759 65.676C42.4265 65.412 42.2285 65.1187 42.0819 64.796C41.9352 64.4587 41.8619 64.0993 41.8619 63.718C41.8619 63.3367 41.9352 62.9773 42.0819 62.64C42.2285 62.288 42.4265 61.9873 42.6759 61.738C42.9252 61.474 43.2112 61.2687 43.5339 61.122C43.8712 60.9753 44.2305 60.902 44.6119 60.902C44.9932 60.902 45.3525 60.9753 45.6899 61.122C46.0419 61.2687 46.3425 61.474 46.5919 61.738C46.8559 61.9873 47.0612 62.288 47.2079 62.64C47.3692 62.9773 47.4499 63.3367 47.4499 63.718ZM55.4242 73.948C55.9082 73.4053 56.4215 72.914 56.9642 72.474C57.5068 72.034 58.0788 71.66 58.6802 71.352C59.2962 71.0293 59.9415 70.7873 60.6162 70.626C61.3055 70.45 62.0462 70.362 62.8382 70.362C64.0555 70.362 65.1262 70.5673 66.0502 70.978C66.9888 71.374 67.7662 71.946 68.3822 72.694C69.0128 73.4273 69.4895 74.3147 69.8122 75.356C70.1348 76.3973 70.2962 77.5487 70.2962 78.81V93H66.3582V78.81C66.3582 77.1233 65.9695 75.818 65.1922 74.894C64.4295 73.9553 63.2635 73.486 61.6942 73.486C60.5355 73.486 59.4502 73.7647 58.4382 74.322C57.4408 74.8793 56.5168 75.6347 55.6662 76.588V93H51.7282V70.714H54.0822C54.6395 70.714 54.9842 70.9853 55.1162 71.528L55.4242 73.948ZM113.129 77.248C113.129 79.6093 112.755 81.758 112.007 83.694C111.259 85.63 110.203 87.2873 108.839 88.666C107.475 90.0447 105.832 91.1153 103.911 91.878C102.004 92.626 99.8925 93 97.5751 93H85.8051V61.474H97.5751C99.8925 61.474 102.004 61.8553 103.911 62.618C105.832 63.366 107.475 64.4367 108.839 65.83C110.203 67.2087 111.259 68.866 112.007 70.802C112.755 72.738 113.129 74.8867 113.129 77.248ZM108.751 77.248C108.751 75.312 108.487 73.5813 107.959 72.056C107.431 70.5307 106.683 69.24 105.715 68.184C104.747 67.128 103.574 66.3213 102.195 65.764C100.816 65.2067 99.2765 64.928 97.5751 64.928H90.0731V89.546H97.5751C99.2765 89.546 100.816 89.2673 102.195 88.71C103.574 88.1527 104.747 87.3533 105.715 86.312C106.683 85.256 107.431 83.9653 107.959 82.44C108.487 80.9147 108.751 79.184 108.751 77.248ZM128.553 82.968C126.749 83.0267 125.209 83.1733 123.933 83.408C122.672 83.628 121.638 83.9213 120.831 84.288C120.039 84.6547 119.46 85.0873 119.093 85.586C118.741 86.0847 118.565 86.642 118.565 87.258C118.565 87.8447 118.661 88.3507 118.851 88.776C119.042 89.2013 119.299 89.5533 119.621 89.832C119.959 90.096 120.347 90.294 120.787 90.426C121.242 90.5433 121.726 90.602 122.239 90.602C122.929 90.602 123.559 90.536 124.131 90.404C124.703 90.2573 125.239 90.052 125.737 89.788C126.251 89.524 126.735 89.2087 127.189 88.842C127.659 88.4753 128.113 88.0573 128.553 87.588V82.968ZM115.903 73.86C117.135 72.672 118.463 71.7847 119.885 71.198C121.308 70.6113 122.885 70.318 124.615 70.318C125.862 70.318 126.969 70.5233 127.937 70.934C128.905 71.3447 129.719 71.9167 130.379 72.65C131.039 73.3833 131.538 74.2707 131.875 75.312C132.213 76.3533 132.381 77.4973 132.381 78.744V93H130.643C130.262 93 129.969 92.9413 129.763 92.824C129.558 92.692 129.397 92.4427 129.279 92.076L128.839 89.964C128.253 90.5067 127.681 90.9907 127.123 91.416C126.566 91.8267 125.979 92.1787 125.363 92.472C124.747 92.7507 124.087 92.9633 123.383 93.11C122.694 93.2713 121.924 93.352 121.073 93.352C120.208 93.352 119.394 93.2347 118.631 93C117.869 92.7507 117.201 92.384 116.629 91.9C116.072 91.416 115.625 90.8073 115.287 90.074C114.965 89.326 114.803 88.446 114.803 87.434C114.803 86.554 115.045 85.7107 115.529 84.904C116.013 84.0827 116.798 83.3567 117.883 82.726C118.969 82.0953 120.384 81.582 122.129 81.186C123.875 80.7753 126.016 80.5407 128.553 80.482V78.744C128.553 77.0133 128.179 75.708 127.431 74.828C126.683 73.9333 125.591 73.486 124.153 73.486C123.185 73.486 122.371 73.6107 121.711 73.86C121.066 74.0947 120.501 74.366 120.017 74.674C119.548 74.9673 119.137 75.2387 118.785 75.488C118.448 75.7227 118.111 75.84 117.773 75.84C117.509 75.84 117.282 75.774 117.091 75.642C116.901 75.4953 116.739 75.3193 116.607 75.114L115.903 73.86ZM143.568 93.352C141.808 93.352 140.451 92.8607 139.498 91.878C138.559 90.8953 138.09 89.48 138.09 87.632V73.992H135.406C135.171 73.992 134.973 73.926 134.812 73.794C134.65 73.6473 134.57 73.4273 134.57 73.134V71.572L138.222 71.11L139.124 64.224C139.168 64.004 139.263 63.828 139.41 63.696C139.571 63.5493 139.776 63.476 140.026 63.476H142.006V71.154H148.452V73.992H142.006V87.368C142.006 88.3067 142.233 89.0033 142.688 89.458C143.142 89.9127 143.729 90.14 144.448 90.14C144.858 90.14 145.21 90.0887 145.504 89.986C145.812 89.8687 146.076 89.744 146.296 89.612C146.516 89.48 146.699 89.3627 146.846 89.26C147.007 89.1427 147.146 89.084 147.264 89.084C147.469 89.084 147.652 89.2087 147.814 89.458L148.958 91.328C148.283 91.9587 147.469 92.4573 146.516 92.824C145.562 93.176 144.58 93.352 143.568 93.352ZM163.253 82.968C161.449 83.0267 159.909 83.1733 158.633 83.408C157.372 83.628 156.338 83.9213 155.531 84.288C154.739 84.6547 154.16 85.0873 153.793 85.586C153.441 86.0847 153.265 86.642 153.265 87.258C153.265 87.8447 153.36 88.3507 153.551 88.776C153.742 89.2013 153.998 89.5533 154.321 89.832C154.658 90.096 155.047 90.294 155.487 90.426C155.942 90.5433 156.426 90.602 156.939 90.602C157.628 90.602 158.259 90.536 158.831 90.404C159.403 90.2573 159.938 90.052 160.437 89.788C160.95 89.524 161.434 89.2087 161.889 88.842C162.358 88.4753 162.813 88.0573 163.253 87.588V82.968ZM150.603 73.86C151.835 72.672 153.162 71.7847 154.585 71.198C156.008 70.6113 157.584 70.318 159.315 70.318C160.562 70.318 161.669 70.5233 162.637 70.934C163.605 71.3447 164.419 71.9167 165.079 72.65C165.739 73.3833 166.238 74.2707 166.575 75.312C166.912 76.3533 167.081 77.4973 167.081 78.744V93H165.343C164.962 93 164.668 92.9413 164.463 92.824C164.258 92.692 164.096 92.4427 163.979 92.076L163.539 89.964C162.952 90.5067 162.38 90.9907 161.823 91.416C161.266 91.8267 160.679 92.1787 160.063 92.472C159.447 92.7507 158.787 92.9633 158.083 93.11C157.394 93.2713 156.624 93.352 155.773 93.352C154.908 93.352 154.094 93.2347 153.331 93C152.568 92.7507 151.901 92.384 151.329 91.9C150.772 91.416 150.324 90.8073 149.987 90.074C149.664 89.326 149.503 88.446 149.503 87.434C149.503 86.554 149.745 85.7107 150.229 84.904C150.713 84.0827 151.498 83.3567 152.583 82.726C153.668 82.0953 155.084 81.582 156.829 81.186C158.574 80.7753 160.716 80.5407 163.253 80.482V78.744C163.253 77.0133 162.879 75.708 162.131 74.828C161.383 73.9333 160.29 73.486 158.853 73.486C157.885 73.486 157.071 73.6107 156.411 73.86C155.766 74.0947 155.201 74.366 154.717 74.674C154.248 74.9673 153.837 75.2387 153.485 75.488C153.148 75.7227 152.81 75.84 152.473 75.84C152.209 75.84 151.982 75.774 151.791 75.642C151.6 75.4953 151.439 75.3193 151.307 75.114L150.603 73.86Z" fill="white"/>
        <rect y="106.789" width="210" height="13.211" fill="#D42B21"/>
    </g>
    <defs>
        <clipPath id="clip0">
            <rect width="210" height="120" fill="white"/>
        </clipPath>
    </defs>
</svg></g><a href="https://staging-owid.netlify.com/grapher/real-commodity-price-index-metals" target="_blank"><text font-size="25.20" x="15.0" y="35.2" fill="#555"><tspan x="15" y="35.160000000000004">Real commodity price index, metals</tspan></text></a><text font-size="14.40" x="15.0" y="53.7" fill="#666"><tspan x="15" y="53.72">Real commodity price index across a range of metal resources, where prices are measured relative to the year</tspan><tspan x="15" y="69.56">1900 (1900 = 100).</tspan></text></g><g class="LineChart"><defs><clipPath id="boundsClip-458"><rect x="37.216" y="0" width="830" height="932.8"></rect></clipPath></defs><g class="AxisBoxView"><g class="HorizontalAxis"><text x="47.2" y="556.5" fill="#666" text-anchor="middle" font-size="16.2">1850</text><text x="88.5" y="556.5" fill="#666" text-anchor="middle" font-size="16.2">1860</text><text x="171.2" y="556.5" fill="#666" text-anchor="middle" font-size="16.2">1880</text><text x="253.9" y="556.5" fill="#666" text-anchor="middle" font-size="16.2">1900</text><text x="336.5" y="556.5" fill="#666" text-anchor="middle" font-size="16.2">1920</text><text x="419.2" y="556.5" fill="#666" text-anchor="middle" font-size="16.2">1940</text><text x="501.8" y="556.5" fill="#666" text-anchor="middle" font-size="16.2">1960</text><text x="584.5" y="556.5" fill="#666" text-anchor="middle" font-size="16.2">1980</text><text x="667.1" y="556.5" fill="#666" text-anchor="middle" font-size="16.2">2000</text><text x="729.1" y="556.5" fill="#666" text-anchor="middle" font-size="16.2">2015</text></g><g class="VerticalAxis"><text x="42.22" y="535.3" fill="#666" dominant-baseline="middle" text-anchor="end" font-size="16.2">0</text><text x="42.22" y="452.9" fill="#666" dominant-baseline="middle" text-anchor="end" font-size="16.2">100</text><text x="42.22" y="370.5" fill="#666" dominant-baseline="middle" text-anchor="end" font-size="16.2">200</text><text x="42.22" y="288.1" fill="#666" dominant-baseline="middle" text-anchor="end" font-size="16.2">300</text><text x="42.22" y="205.7" fill="#666" dominant-baseline="middle" text-anchor="end" font-size="16.2">400</text><text x="42.22" y="123.3" fill="#666" dominant-baseline="middle" text-anchor="end" font-size="16.2">500</text></g><g class="AxisGridLines"><line x1="47.22" y1="535.3" x2="729.13" y2="535.3" stroke="#ccc"></line><line x1="47.22" y1="452.9" x2="729.13" y2="452.9" stroke="#ddd" stroke-dasharray="3,2"></line><line x1="47.22" y1="370.5" x2="729.13" y2="370.5" stroke="#ddd" stroke-dasharray="3,2"></line><line x1="47.22" y1="288.1" x2="729.13" y2="288.1" stroke="#ddd" stroke-dasharray="3,2"></line><line x1="47.22" y1="205.7" x2="729.13" y2="205.7" stroke="#ddd" stroke-dasharray="3,2"></line><line x1="47.22" y1="123.3" x2="729.13" y2="123.3" stroke="#ddd" stroke-dasharray="3,2"></line></g></g><g clip-path="url(#boundsClip-458)"><g class="HeightedLegend" style="cursor:pointer"><g class="legendMark"><g class="indicator"><path d="M733.125,424.8 H735.5795454545455 V373.55 H760.125" stroke="#999" stroke-width="0.5" fill="none"></path></g><rect x="729.125" y="366.8" width="105.875" height="13.5" fill="#fff" opacity="0"></rect><text font-size="13.50" x="764.1" y="377.6" fill="#7ec7ce"><tspan x="764.125" y="377.6">Manganese</tspan></text></g><g class="legendMark"><g class="indicator"><path d="M733.125,426.9 H738.034090909091 V389.05 H760.125" stroke="#999" stroke-width="0.5" fill="none"></path></g><rect x="729.125" y="382.3" width="97.23500000000001" height="13.5" fill="#fff" opacity="0"></rect><text font-size="13.50" x="764.1" y="393.1" fill="#b077b1"><tspan x="764.125" y="393.1">Chromium</tspan></text></g><g class="legendMark"><g class="indicator"><path d="M733.125,457.4 H740.4886363636364 V404.55 H760.125" stroke="#999" stroke-width="0.5" fill="none"></path></g><rect x="729.125" y="397.8" width="65.915" height="13.5" fill="#fff" opacity="0"></rect><text font-size="13.50" x="764.1" y="408.6" fill="#ffd53e"><tspan x="764.125" y="408.6">Steel</tspan></text></g><g class="legendMark"><g class="indicator"><path d="M733.125,458.4 H742.9431818181819 V420.05 H760.125" stroke="#999" stroke-width="0.5" fill="none"></path></g><rect x="729.125" y="413.3" width="53.765" height="13.5" fill="#fff" opacity="0"></rect><text font-size="13.50" x="764.1" y="424.1" fill="#9ecc8a"><tspan x="764.125" y="424.1">Tin</tspan></text></g><g class="legendMark"><g class="indicator"><path d="M733.125,472.3 H745.3977272727274 V435.55 H760.125" stroke="#999" stroke-width="0.5" fill="none"></path></g><rect x="729.125" y="428.8" width="60.515" height="13.5" fill="#fff" opacity="0"></rect><text font-size="13.50" x="764.1" y="439.6" fill="#e6332e"><tspan x="764.125" y="439.6">Zinc</tspan></text></g><g class="legendMark"><g class="indicator"><path d="M733.125,481 H747.8522727272727 V451.05 H760.125" stroke="#999" stroke-width="0.5" fill="none"></path></g><rect x="729.125" y="444.3" width="65.24000000000001" height="13.5" fill="#fff" opacity="0"></rect><text font-size="13.50" x="764.1" y="455.1" fill="#2a939b"><tspan x="764.125" y="455.1">Lead</tspan></text></g><g class="legendMark"><g class="indicator"><path d="M733.125,489.5 H750.3068181818182 V466.55 H760.125" stroke="#999" stroke-width="0.5" fill="none"></path></g><rect x="729.125" y="459.8" width="81.71000000000001" height="13.5" fill="#fff" opacity="0"></rect><text font-size="13.50" x="764.1" y="470.6" fill="#a652ba"><tspan x="764.125" y="470.6">Iron ore</tspan></text></g><g class="legendMark"><g class="indicator"><path d="M733.125,490.3 H752.7613636363636 V482.05 H760.125" stroke="#999" stroke-width="0.5" fill="none"></path></g><rect x="729.125" y="475.3" width="79.415" height="13.5" fill="#fff" opacity="0"></rect><text font-size="13.50" x="764.1" y="486.1" fill="#f6a324"><tspan x="764.125" y="486.1">Copper</tspan></text></g><g class="legendMark"><g class="indicator"><path d="M733.125,504.7 H755.2159090909091 V497.55 H760.125" stroke="#999" stroke-width="0.5" fill="none"></path></g><rect x="729.125" y="490.8" width="71.72" height="13.5" fill="#fff" opacity="0"></rect><text font-size="13.50" x="764.1" y="501.6" fill="#34983f"><tspan x="764.125" y="501.6">Nickel</tspan></text></g><g class="legendMark"><g class="indicator"><path d="M733.125,515.7 H757.6704545454546 V513.05 H760.125" stroke="#999" stroke-width="0.5" fill="none"></path></g><rect x="729.125" y="506.3" width="80.225" height="13.5" fill="#fff" opacity="0"></rect><text font-size="13.50" x="764.1" y="517.1" fill="#ca2628"><tspan x="764.125" y="517.0999999999999">Bauxite</tspan></text></g><g class="legendMark"><g class="indicator"><path d="M733.125,528.4 H757.6704545454546 V528.55 H760.125" stroke="#999" stroke-width="0.5" fill="none"></path></g><rect x="729.125" y="521.8" width="95.075" height="13.5" fill="#fff" opacity="0"></rect><text font-size="13.50" x="764.1" y="532.6" fill="#3360a9"><tspan x="764.125" y="532.5999999999999">Aluminum</tspan></text></g></g><g class="Lines"><rect x="47" y="90" width="682" height="445" fill="rgba(255,255,255,0)" opacity="0"></rect><g class="key-World_0"><path stroke="#a652ba" stroke-linecap="round" d="M254 453L258 477L262 473L266 472L270 484L275 477L279 467L283 456L287 463L291 466L295 459L299 474L303 476L308 472L312 484L316 482L320 471L324 466L328 470L332 483L337 476L341 488L345 479L349 478L353 488L357 494L361 495L365 494L370 495L374 491L378 493L382 491L386 506L390 458L394 479L399 480L403 481L407 479L411 483L415 474L419 484L423 484L427 490L432 492L436 492L440 492L444 491L448 491L452 489L456 482L461 477L465 476L469 469L473 463L477 464L481 459L485 455L489 453L494 454L498 452L502 455L506 448L510 452L514 449L518 448L523 452L527 452L531 453L535 455L539 456L543 459L547 459L551 453L556 453L560 446L564 432L568 422L572 418L576 414L580 414L585 416L589 418L593 421L597 403L601 426L605 433L609 446L613 461L618 467L622 463L626 468L630 472L634 477L638 484L642 487L647 483L651 483L655 482L659 481L663 489L667 493L671 496L675 494L680 487L684 480L688 471L692 459L696 454L700 436L704 411L709 403L713 389L717 425L721 421L725 454L729 490" fill="none" stroke-width="1.5"></path></g><g class="key-World_1"><path stroke="#ca2628" stroke-linecap="round" d="M254 453L258 457L262 462L266 466L270 470L275 453L279 464L283 463L287 455L291 446L295 455L299 463L303 467L308 462L312 465L316 445L320 487L324 484L328 488L332 474L337 484L341 477L345 494L349 484L353 489L357 491L361 493L365 491L370 490L374 488L378 484L382 479L386 470L390 454L394 441L399 442L403 442L407 448L411 439L415 444L419 450L423 455L427 463L432 464L436 467L440 466L444 472L448 484L452 489L456 490L461 490L465 493L469 491L473 491L477 490L481 486L485 485L489 482L494 481L498 481L502 482L506 479L510 468L514 464L518 463L523 471L527 473L531 466L535 471L539 472L543 479L547 481L551 480L556 485L560 444L564 468L568 461L572 461L576 463L580 472L585 480L589 480L593 475L597 484L601 484L605 487L609 490L613 499L618 499L622 497L626 498L630 495L634 499L638 501L642 504L647 508L651 505L655 508L659 510L663 512L667 511L671 512L675 515L680 516L684 514L688 513L692 510L696 508L700 513L704 511L709 511L713 509L717 513L721 514L725 513L729 516" fill="none" stroke-width="1.5"></path></g><g class="key-World_2"><path stroke="#9ecc8a" stroke-linecap="round" d="M47 484L51 481L56 479L60 461L64 465L68 468L72 455L76 457L80 463L84 453L89 455L93 467L97 477L101 487L105 502L109 507L113 509L118 505L122 501L126 488L130 487L134 479L138 474L142 479L146 492L151 496L155 500L159 502L163 504L167 498L171 491L175 489L180 485L184 488L188 493L192 489L196 482L200 475L204 473L208 484L213 483L217 484L221 483L225 490L229 495L233 497L237 499L242 497L246 491L250 460L254 453L258 468L262 463L266 461L270 463L275 453L279 433L283 441L287 461L291 460L295 452L299 432L303 425L308 432L312 456L316 446L320 444L324 427L328 403L332 453L337 481L341 498L345 492L349 479L353 470L357 461L361 453L365 452L370 469L374 476L378 493L382 499L386 499L390 468L394 448L399 453L403 460L407 450L411 468L415 454L419 456L423 456L427 464L432 468L436 469L440 471L444 473L448 457L452 443L456 442L461 446L465 426L469 434L473 455L477 459L481 456L485 452L489 459L494 462L498 457L502 459L506 450L510 450L514 450L518 421L523 409L527 422L531 432L535 440L539 435L543 435L547 443L551 440L556 421L560 355L564 394L568 386L572 337L576 319L580 315L585 305L589 357L593 383L597 390L601 401L605 412L609 460L613 469L618 468L622 457L626 483L630 489L634 486L638 495L642 494L647 489L651 491L655 496L659 497L663 499L667 500L671 507L675 510L680 505L684 484L688 493L692 486L696 456L700 438L704 464L709 429L713 404L717 431L721 427L725 430L729 458" fill="none" stroke-width="1.5"></path></g><g class="key-World_3"><path stroke="#e6332e" stroke-linecap="round" d="M47 464L51 467L56 457L60 409L64 401L68 428L72 417L76 395L80 408L84 433L89 437L93 453L97 452L101 433L105 402L109 431L113 424L118 431L122 426L126 416L130 427L134 439L138 439L142 420L146 434L151 434L155 428L159 444L163 458L167 455L171 450L175 454L180 453L184 464L188 464L192 464L196 461L200 458L204 453L208 449L213 439L217 448L221 454L225 463L229 470L233 467L237 461L242 457L246 448L250 425L254 453L258 460L262 446L266 434L270 444L275 429L279 427L283 433L287 454L291 439L295 442L299 437L303 419L308 443L312 452L316 310L320 338L324 425L328 451L332 470L337 473L341 491L345 480L349 472L353 475L357 465L361 468L365 480L370 481L374 477L378 493L382 499L386 503L390 488L394 488L399 487L403 481L407 466L411 485L415 479L419 466L423 457L427 458L432 462L436 463L440 465L444 467L448 463L452 447L456 457L461 447L465 429L469 441L473 473L477 474L481 465L485 459L489 480L494 492L498 481L502 477L506 485L510 492L514 487L518 462L523 466L527 475L531 479L535 483L539 481L543 482L547 482L551 472L556 403L560 360L564 439L568 448L572 467L576 472L580 464L585 471L589 470L593 482L597 482L601 473L605 485L609 487L613 486L618 462L622 430L626 447L630 473L634 467L638 484L642 483L647 483L651 485L655 473L659 487L663 485L667 485L671 497L675 502L680 501L684 493L688 481L692 410L696 414L700 468L704 476L709 459L713 460L717 470L721 472L725 464L729 472" fill="none" stroke-width="1.5"></path></g><g class="key-World_4"><path stroke="#ffd53e" stroke-linecap="round" d="M47 487L51 486L56 484L60 480L64 483L68 499L72 499L76 501L80 498L84 499L89 499L93 500L97 500L101 492L105 491L109 498L113 492L118 489L122 492L126 493L130 494L134 495L138 496L142 492L146 491L151 491L155 490L159 489L163 487L167 489L171 494L175 494L180 494L184 493L188 492L192 492L196 487L200 486L204 483L208 481L213 480L217 480L221 484L225 483L229 481L233 479L237 479L242 484L246 486L250 434L254 453L258 463L262 456L266 459L270 471L275 463L279 463L283 462L287 466L291 473L295 471L299 478L303 480L308 475L312 486L316 479L320 438L324 422L328 455L332 477L337 473L341 491L345 493L349 478L353 482L357 487L361 489L365 491L370 490L374 489L378 492L382 491L386 487L390 483L394 479L399 481L403 478L407 466L411 466L415 470L419 472L423 475L427 480L432 484L436 484L440 484L444 483L448 485L452 482L456 477L461 475L465 476L469 476L473 472L477 470L481 466L485 462L489 458L494 458L498 454L502 455L506 456L510 457L514 457L518 456L523 457L527 460L531 462L535 462L539 461L543 460L547 454L551 464L556 457L560 444L564 447L568 453L572 448L576 446L580 455L585 453L589 458L593 461L597 451L601 447L605 442L609 444L613 473L618 475L622 469L626 470L630 472L634 483L638 482L642 482L647 484L651 485L655 484L659 487L663 494L667 487L671 501L675 497L680 487L684 461L688 445L692 452L696 461L700 421L704 446L709 444L713 437L717 443L721 451L725 452L729 457" fill="none" stroke-width="1.5"></path></g><g class="key-World_5"><path stroke="#7ec7ce" stroke-linecap="round" d="M254 453L258 443L262 444L266 388L270 455L275 439L279 375L283 388L287 449L291 442L295 441L299 443L303 459L308 451L312 453L316 448L320 400L324 430L328 394L332 401L337 453L341 505L345 479L349 464L353 475L357 469L361 472L365 477L370 473L374 470L378 478L382 486L386 461L390 449L394 473L399 470L403 478L407 480L411 463L415 462L419 470L423 468L427 474L432 476L436 463L440 456L444 463L448 469L452 471L456 465L461 450L465 454L469 443L473 431L477 440L481 447L485 433L489 411L494 427L498 434L502 442L506 435L510 451L514 464L518 462L523 465L527 463L531 467L535 476L539 484L543 485L547 483L551 475L556 472L560 442L564 422L568 410L572 407L576 408L580 408L585 411L589 420L593 402L597 430L601 423L605 429L609 436L613 435L618 416L622 394L626 383L630 364L634 400L638 414L642 418L647 422L651 415L655 421L659 430L663 442L667 437L671 449L675 460L680 441L684 368L688 430L692 420L696 369L700 215L704 350L709 336L713 318L717 359L721 391L725 397L729 425" fill="none" stroke-width="1.5"></path></g><g class="key-World_6"><path stroke="#3360a9" stroke-linecap="round" d="M254 453L258 453L262 454L266 456L270 452L275 451L279 451L283 434L287 469L291 484L295 486L299 491L303 487L308 485L312 496L316 464L320 418L324 453L328 490L332 497L337 504L341 511L345 512L349 505L353 503L357 504L361 504L365 505L370 507L374 507L378 506L382 504L386 500L390 498L394 502L399 505L403 505L407 507L411 506L415 506L419 508L423 512L427 516L432 518L436 518L440 518L444 521L448 522L452 522L456 521L461 520L465 520L469 520L473 519L477 519L481 517L485 517L489 517L494 518L498 518L502 517L506 518L510 519L514 520L518 520L523 519L527 520L531 520L535 520L539 520L543 520L547 521L551 522L556 524L560 521L564 520L568 519L572 518L576 519L580 519L585 518L589 518L593 519L597 519L601 519L605 520L609 518L613 522L618 514L622 520L626 523L630 526L634 527L638 528L642 526L647 524L651 526L655 526L659 527L663 527L667 527L671 527L675 528L680 528L684 526L688 526L692 523L696 523L700 524L704 528L709 526L713 525L717 527L721 528L725 528L729 528" fill="none" stroke-width="1.5"></path></g><g class="key-World_7"><path stroke="#b077b1" stroke-linecap="round" d="M254 453L258 450L262 468L266 476L270 472L275 475L279 479L283 487L287 482L291 484L295 490L299 490L303 497L308 498L312 501L316 495L320 486L324 480L328 441L332 485L337 511L341 519L345 517L349 516L353 515L357 518L361 518L365 518L370 518L374 516L378 511L382 499L386 489L390 498L394 500L399 496L403 496L407 499L411 499L415 500L419 499L423 502L427 494L432 490L436 488L440 489L444 503L448 501L452 498L456 497L461 499L465 498L469 493L473 486L477 497L481 497L485 493L489 488L494 489L498 480L502 501L506 507L510 486L514 490L518 487L523 486L527 491L531 488L535 488L539 490L543 496L547 480L551 479L556 478L560 457L564 405L568 430L572 437L576 451L580 439L585 443L589 442L593 451L597 457L601 452L605 450L609 461L613 466L618 429L622 416L626 454L630 456L634 460L638 478L642 479L647 440L651 464L655 459L659 469L663 484L667 482L671 478L675 483L680 475L684 448L688 443L692 452L696 419L700 341L704 422L709 390L713 397L717 394L721 415L725 406L729 427" fill="none" stroke-width="1.5"></path></g><g class="key-World_8"><path stroke="#f6a324" stroke-linecap="round" d="M47 440L51 438L56 425L60 404L64 404L68 408L72 414L76 412L80 422L84 423L89 426L93 439L97 453L101 470L105 481L109 487L113 487L118 489L122 488L126 487L130 488L134 481L138 463L142 468L146 469L151 464L155 468L159 473L163 476L167 480L171 476L175 477L180 474L184 475L188 483L192 493L196 495L200 491L204 454L208 482L213 479L217 482L221 488L225 490L229 491L233 486L237 482L242 479L246 475L250 450L254 453L258 454L262 481L266 471L270 474L275 460L279 444L283 444L287 474L291 474L295 478L299 480L303 463L308 469L312 477L316 462L320 429L324 448L328 468L332 491L337 499L341 506L345 502L349 500L353 504L357 502L361 503L365 505L370 500L374 492L378 503L382 513L386 518L390 513L394 509L399 509L403 507L407 497L411 506L415 503L419 502L423 502L427 505L432 507L436 508L440 508L444 506L448 496L452 497L456 502L461 499L465 497L469 498L473 491L477 490L481 477L485 472L489 492L494 498L498 491L502 491L506 494L510 493L514 494L518 493L523 489L527 489L531 488L535 486L539 482L543 474L547 483L551 485L556 480L560 471L564 486L568 485L572 490L576 494L580 483L585 484L589 497L593 504L597 503L601 509L605 510L609 511L613 505L618 493L622 491L626 496L630 502L634 504L638 510L642 505L647 498L651 507L655 508L659 516L663 517L667 515L671 518L675 518L680 517L684 506L688 499L692 471L696 469L700 473L704 489L709 468L713 459L717 468L721 474L725 479L729 490" fill="none" stroke-width="1.5"></path></g><g class="key-World_9"><path stroke="#2a939b" stroke-linecap="round" d="M47 421L51 422L56 420L60 379L64 392L68 399L72 387L76 396L80 399L84 399L89 402L93 418L97 432L101 452L105 468L109 474L113 470L118 468L122 467L126 464L130 464L134 460L138 452L142 437L146 437L151 432L155 433L159 437L163 452L167 459L171 454L175 461L180 464L184 471L188 478L192 475L196 465L200 467L204 462L208 464L213 462L217 466L221 477L225 479L229 479L233 471L237 466L242 459L246 455L250 442L254 453L258 455L262 460L266 459L270 459L275 451L279 436L283 446L287 463L291 461L295 461L299 462L303 462L308 465L312 474L316 462L320 436L324 430L328 460L332 484L337 474L341 496L345 483L349 470L353 463L357 456L361 462L365 476L370 479L374 474L378 485L382 493L386 500L390 490L394 491L399 490L403 483L407 471L411 484L415 480L419 479L423 475L427 474L432 478L436 479L440 480L444 472L448 435L452 420L456 436L461 451L465 432L469 440L473 458L477 455L481 449L485 445L489 455L494 471L498 471L502 473L506 480L510 487L514 480L518 468L523 458L527 464L531 471L535 477L539 473L543 474L547 483L551 480L556 479L560 465L564 474L568 473L572 458L576 456L580 424L585 456L589 474L593 497L597 504L601 500L605 510L609 509L613 498L618 495L622 496L626 491L630 506L634 508L638 515L642 509L647 506L651 500L655 507L659 512L663 514L667 516L671 516L675 517L680 515L684 502L688 499L692 489L696 446L700 466L704 478L709 465L713 459L717 471L721 469L725 471L729 481" fill="none" stroke-width="1.5"></path></g><g class="key-World_10"><path stroke="#34983f" stroke-linecap="round" d="M47 192L51 185L56 189L60 230L64 254L68 283L72 278L76 305L80 333L84 335L89 335L93 346L97 386L101 353L105 333L109 392L113 400L118 393L122 424L126 394L130 399L134 385L138 280L142 90L146 158L151 161L155 209L159 323L163 403L167 412L171 406L175 412L180 401L184 382L188 436L192 442L196 465L200 445L204 451L208 437L213 436L217 451L221 421L225 455L229 443L233 486L237 481L242 480L246 480L250 482L254 453L258 444L262 463L266 472L270 473L275 472L279 474L283 469L287 468L291 474L295 477L299 477L303 478L308 477L312 478L316 479L320 482L324 491L328 499L332 504L337 507L341 504L345 505L349 507L353 512L357 510L361 508L365 508L370 506L374 508L378 507L382 504L386 501L390 499L394 500L399 501L403 501L407 503L411 502L415 501L419 502L423 503L427 509L432 510L436 511L440 511L444 511L448 514L452 515L456 513L461 510L465 507L469 506L473 505L477 505L481 502L485 503L489 500L494 501L498 501L502 502L506 500L510 500L514 501L518 501L523 502L527 503L531 500L535 499L539 497L543 491L547 491L551 490L556 489L560 488L564 484L568 482L572 485L576 493L580 486L585 489L589 495L593 505L597 507L601 507L605 507L609 514L613 509L618 464L622 470L626 494L630 499L634 505L638 513L642 509L647 502L651 506L655 509L659 518L663 513L667 505L671 515L675 512L680 503L684 491L688 489L692 462L696 426L700 476L704 494L709 474L713 473L717 489L721 496L725 491L729 505" fill="none" stroke-width="1.5"></path></g></g></g></g><g class="SourcesFooter" style="fill:#777"><g class="clickable" style="fill:#777"><text font-size="12.60" x="15.0" y="581.6"><tspan x="15" y="581.58">Source: Commodity Prices since 1850 - Jacks (2016)</tspan></text></g><text font-size="12.60" x="796.4" y="581.6"><tspan x="796.444" y="581.58"><a style="fill: #777;" class="cclogo" href="http://creativecommons.org/licenses/by/4.0/deed.en_US" target="_blank">CC BY</a></tspan></text></g></svg>