<svg xmlns="http://www.w3.org/2000/svg" version="1.1" style="font-family:Lato, &#x27;Helvetica Neue&#x27;, Helvetica, Arial, sans-serif;font-size:18px;background-color:white;text-rendering:optimizeLegibility;-webkit-font-smoothing:antialiased" width="850" height="600"><g class="HeaderView"><g transform="translate(774, 15) scale(0.29)"><svg width="210" height="120" viewBox="0 0 210 120" fill="none" xmlns="http://www.w3.org/2000/svg">
    <g clip-path="url(#clip0)">
        <path d="M0 0H210V107.89H0V0Z" fill="#002147"/>
        <path d="M40.9788 32.248C40.9788 34.6093 40.6048 36.78 39.8568 38.76C39.1088 40.7253 38.0528 42.4193 36.6888 43.842C35.3248 45.2647 33.6821 46.372 31.7608 47.164C29.8541 47.9413 27.7421 48.33 25.4248 48.33C23.1074 48.33 20.9954 47.9413 19.0888 47.164C17.1821 46.372 15.5468 45.2647 14.1828 43.842C12.8188 42.4193 11.7628 40.7253 11.0148 38.76C10.2668 36.78 9.89277 34.6093 9.89277 32.248C9.89277 29.8867 10.2668 27.7233 11.0148 25.758C11.7628 23.778 12.8188 22.0767 14.1828 20.654C15.5468 19.2167 17.1821 18.102 19.0888 17.31C20.9954 16.518 23.1074 16.122 25.4248 16.122C27.7421 16.122 29.8541 16.518 31.7608 17.31C33.6821 18.102 35.3248 19.2167 36.6888 20.654C38.0528 22.0767 39.1088 23.778 39.8568 25.758C40.6048 27.7233 40.9788 29.8867 40.9788 32.248ZM36.6008 32.248C36.6008 30.312 36.3368 28.574 35.8088 27.034C35.2808 25.494 34.5328 24.196 33.5648 23.14C32.5968 22.0693 31.4234 21.248 30.0448 20.676C28.6661 20.104 27.1261 19.818 25.4248 19.818C23.7381 19.818 22.2054 20.104 20.8268 20.676C19.4481 21.248 18.2674 22.0693 17.2848 23.14C16.3168 24.196 15.5688 25.494 15.0408 27.034C14.5128 28.574 14.2488 30.312 14.2488 32.248C14.2488 34.184 14.5128 35.922 15.0408 37.462C15.5688 38.9873 16.3168 40.2853 17.2848 41.356C18.2674 42.412 19.4481 43.226 20.8268 43.798C22.2054 44.3553 23.7381 44.634 25.4248 44.634C27.1261 44.634 28.6661 44.3553 30.0448 43.798C31.4234 43.226 32.5968 42.412 33.5648 41.356C34.5328 40.2853 35.2808 38.9873 35.8088 37.462C36.3368 35.922 36.6008 34.184 36.6008 32.248ZM62.8234 25.714V48H60.4914C59.9341 48 59.5821 47.7287 59.4354 47.186L59.1274 44.788C58.1594 45.8587 57.0741 46.724 55.8714 47.384C54.6687 48.0293 53.2901 48.352 51.7354 48.352C50.5181 48.352 49.4401 48.154 48.5014 47.758C47.5774 47.3473 46.8001 46.7753 46.1694 46.042C45.5387 45.3087 45.0621 44.4213 44.7394 43.38C44.4314 42.3387 44.2774 41.1873 44.2774 39.926V25.714H48.1934V39.926C48.1934 41.6127 48.5747 42.918 49.3374 43.842C50.1147 44.766 51.2954 45.228 52.8794 45.228C54.0381 45.228 55.1161 44.9567 56.1134 44.414C57.1254 43.8567 58.0567 43.094 58.9074 42.126V25.714H62.8234ZM71.4305 30.18C72.1346 28.6547 72.9999 27.4667 74.0266 26.616C75.0532 25.7507 76.3072 25.318 77.7886 25.318C78.2579 25.318 78.7052 25.3693 79.1306 25.472C79.5706 25.5747 79.9592 25.736 80.2966 25.956L80.0106 28.882C79.9226 29.2487 79.7026 29.432 79.3506 29.432C79.1452 29.432 78.8446 29.388 78.4486 29.3C78.0526 29.212 77.6052 29.168 77.1066 29.168C76.4026 29.168 75.7719 29.2707 75.2146 29.476C74.6719 29.6813 74.1806 29.9893 73.7406 30.4C73.3152 30.796 72.9266 31.2947 72.5746 31.896C72.2372 32.4827 71.9292 33.1573 71.6506 33.92V48H67.7125V25.714H69.9566C70.3819 25.714 70.6752 25.7947 70.8366 25.956C70.9979 26.1173 71.1079 26.396 71.1666 26.792L71.4305 30.18ZM132.589 16.474L122.755 48H118.927L110.941 23.954C110.867 23.7193 110.794 23.47 110.721 23.206C110.662 22.942 110.596 22.6633 110.523 22.37C110.449 22.6633 110.376 22.942 110.303 23.206C110.23 23.47 110.156 23.7193 110.083 23.954L102.053 48H98.2248L88.3908 16.474H91.9328C92.3142 16.474 92.6295 16.5693 92.8788 16.76C93.1428 16.9507 93.3115 17.1927 93.3848 17.486L99.8968 39.398C99.9995 39.794 100.095 40.2193 100.183 40.674C100.285 41.1287 100.381 41.6127 100.469 42.126C100.571 41.6127 100.674 41.1287 100.777 40.674C100.894 40.2047 101.019 39.7793 101.151 39.398L108.565 17.486C108.653 17.2367 108.821 17.0093 109.071 16.804C109.335 16.584 109.65 16.474 110.017 16.474H111.249C111.63 16.474 111.938 16.5693 112.173 16.76C112.407 16.9507 112.583 17.1927 112.701 17.486L120.093 39.398C120.225 39.7793 120.342 40.19 120.445 40.63C120.562 41.07 120.672 41.532 120.775 42.016C120.848 41.532 120.929 41.07 121.017 40.63C121.105 40.19 121.2 39.7793 121.303 39.398L127.837 17.486C127.91 17.222 128.072 16.9873 128.321 16.782C128.585 16.5767 128.9 16.474 129.267 16.474H132.589ZM141.94 25.362C143.568 25.362 145.034 25.6333 146.34 26.176C147.645 26.7187 148.76 27.4887 149.684 28.486C150.608 29.4833 151.312 30.6933 151.796 32.116C152.294 33.524 152.544 35.1007 152.544 36.846C152.544 38.606 152.294 40.19 151.796 41.598C151.312 43.006 150.608 44.2087 149.684 45.206C148.76 46.2033 147.645 46.9733 146.34 47.516C145.034 48.044 143.568 48.308 141.94 48.308C140.297 48.308 138.816 48.044 137.496 47.516C136.19 46.9733 135.076 46.2033 134.152 45.206C133.228 44.2087 132.516 43.006 132.018 41.598C131.534 40.19 131.292 38.606 131.292 36.846C131.292 35.1007 131.534 33.524 132.018 32.116C132.516 30.6933 133.228 29.4833 134.152 28.486C135.076 27.4887 136.19 26.7187 137.496 26.176C138.816 25.6333 140.297 25.362 141.94 25.362ZM141.94 45.25C144.14 45.25 145.782 44.5167 146.868 43.05C147.953 41.5687 148.496 39.508 148.496 36.868C148.496 34.2133 147.953 32.1453 146.868 30.664C145.782 29.1827 144.14 28.442 141.94 28.442C140.825 28.442 139.85 28.6327 139.014 29.014C138.192 29.3953 137.503 29.9453 136.946 30.664C136.403 31.3827 135.992 32.27 135.714 33.326C135.45 34.3673 135.318 35.548 135.318 36.868C135.318 39.508 135.86 41.5687 136.946 43.05C138.046 44.5167 139.71 45.25 141.94 45.25ZM159.908 30.18C160.612 28.6547 161.478 27.4667 162.504 26.616C163.531 25.7507 164.785 25.318 166.266 25.318C166.736 25.318 167.183 25.3693 167.608 25.472C168.048 25.5747 168.437 25.736 168.774 25.956L168.488 28.882C168.4 29.2487 168.18 29.432 167.828 29.432C167.623 29.432 167.322 29.388 166.926 29.3C166.53 29.212 166.083 29.168 165.584 29.168C164.88 29.168 164.25 29.2707 163.692 29.476C163.15 29.6813 162.658 29.9893 162.218 30.4C161.793 30.796 161.404 31.2947 161.052 31.896C160.715 32.4827 160.407 33.1573 160.128 33.92V48H156.19V25.714H158.434C158.86 25.714 159.153 25.7947 159.314 25.956C159.476 26.1173 159.586 26.396 159.644 26.792L159.908 30.18ZM174.946 15.594V48H171.03V15.594H174.946ZM194.496 31.016C193.763 30.0333 192.971 29.3513 192.12 28.97C191.269 28.574 190.316 28.376 189.26 28.376C187.192 28.376 185.601 29.1167 184.486 30.598C183.371 32.0793 182.814 34.1913 182.814 36.934C182.814 38.386 182.939 39.6327 183.188 40.674C183.437 41.7007 183.804 42.5513 184.288 43.226C184.772 43.886 185.366 44.37 186.07 44.678C186.774 44.986 187.573 45.14 188.468 45.14C189.759 45.14 190.881 44.8467 191.834 44.26C192.802 43.6733 193.689 42.8447 194.496 41.774V31.016ZM198.412 15.594V48H196.08C195.523 48 195.171 47.7287 195.024 47.186L194.672 44.48C193.719 45.624 192.633 46.548 191.416 47.252C190.199 47.956 188.791 48.308 187.192 48.308C185.916 48.308 184.757 48.066 183.716 47.582C182.675 47.0833 181.787 46.3573 181.054 45.404C180.321 44.4507 179.756 43.2627 179.36 41.84C178.964 40.4173 178.766 38.782 178.766 36.934C178.766 35.2913 178.986 33.766 179.426 32.358C179.866 30.9353 180.497 29.7033 181.318 28.662C182.139 27.6207 183.144 26.8067 184.332 26.22C185.535 25.6187 186.884 25.318 188.38 25.318C189.744 25.318 190.91 25.5527 191.878 26.022C192.861 26.4767 193.733 27.1147 194.496 27.936V15.594H198.412ZM46.6139 70.714V93H42.6979V70.714H46.6139ZM47.4499 63.718C47.4499 64.0993 47.3692 64.4587 47.2079 64.796C47.0612 65.1187 46.8559 65.412 46.5919 65.676C46.3425 65.9253 46.0419 66.1233 45.6899 66.27C45.3525 66.4167 44.9932 66.49 44.6119 66.49C44.2305 66.49 43.8712 66.4167 43.5339 66.27C43.2112 66.1233 42.9252 65.9253 42.6759 65.676C42.4265 65.412 42.2285 65.1187 42.0819 64.796C41.9352 64.4587 41.8619 64.0993 41.8619 63.718C41.8619 63.3367 41.9352 62.9773 42.0819 62.64C42.2285 62.288 42.4265 61.9873 42.6759 61.738C42.9252 61.474 43.2112 61.2687 43.5339 61.122C43.8712 60.9753 44.2305 60.902 44.6119 60.902C44.9932 60.902 45.3525 60.9753 45.6899 61.122C46.0419 61.2687 46.3425 61.474 46.5919 61.738C46.8559 61.9873 47.0612 62.288 47.2079 62.64C47.3692 62.9773 47.4499 63.3367 47.4499 63.718ZM55.4242 73.948C55.9082 73.4053 56.4215 72.914 56.9642 72.474C57.5068 72.034 58.0788 71.66 58.6802 71.352C59.2962 71.0293 59.9415 70.7873 60.6162 70.626C61.3055 70.45 62.0462 70.362 62.8382 70.362C64.0555 70.362 65.1262 70.5673 66.0502 70.978C66.9888 71.374 67.7662 71.946 68.3822 72.694C69.0128 73.4273 69.4895 74.3147 69.8122 75.356C70.1348 76.3973 70.2962 77.5487 70.2962 78.81V93H66.3582V78.81C66.3582 77.1233 65.9695 75.818 65.1922 74.894C64.4295 73.9553 63.2635 73.486 61.6942 73.486C60.5355 73.486 59.4502 73.7647 58.4382 74.322C57.4408 74.8793 56.5168 75.6347 55.6662 76.588V93H51.7282V70.714H54.0822C54.6395 70.714 54.9842 70.9853 55.1162 71.528L55.4242 73.948ZM113.129 77.248C113.129 79.6093 112.755 81.758 112.007 83.694C111.259 85.63 110.203 87.2873 108.839 88.666C107.475 90.0447 105.832 91.1153 103.911 91.878C102.004 92.626 99.8925 93 97.5751 93H85.8051V61.474H97.5751C99.8925 61.474 102.004 61.8553 103.911 62.618C105.832 63.366 107.475 64.4367 108.839 65.83C110.203 67.2087 111.259 68.866 112.007 70.802C112.755 72.738 113.129 74.8867 113.129 77.248ZM108.751 77.248C108.751 75.312 108.487 73.5813 107.959 72.056C107.431 70.5307 106.683 69.24 105.715 68.184C104.747 67.128 103.574 66.3213 102.195 65.764C100.816 65.2067 99.2765 64.928 97.5751 64.928H90.0731V89.546H97.5751C99.2765 89.546 100.816 89.2673 102.195 88.71C103.574 88.1527 104.747 87.3533 105.715 86.312C106.683 85.256 107.431 83.9653 107.959 82.44C108.487 80.9147 108.751 79.184 108.751 77.248ZM128.553 82.968C126.749 83.0267 125.209 83.1733 123.933 83.408C122.672 83.628 121.638 83.9213 120.831 84.288C120.039 84.6547 119.46 85.0873 119.093 85.586C118.741 86.0847 118.565 86.642 118.565 87.258C118.565 87.8447 118.661 88.3507 118.851 88.776C119.042 89.2013 119.299 89.5533 119.621 89.832C119.959 90.096 120.347 90.294 120.787 90.426C121.242 90.5433 121.726 90.602 122.239 90.602C122.929 90.602 123.559 90.536 124.131 90.404C124.703 90.2573 125.239 90.052 125.737 89.788C126.251 89.524 126.735 89.2087 127.189 88.842C127.659 88.4753 128.113 88.0573 128.553 87.588V82.968ZM115.903 73.86C117.135 72.672 118.463 71.7847 119.885 71.198C121.308 70.6113 122.885 70.318 124.615 70.318C125.862 70.318 126.969 70.5233 127.937 70.934C128.905 71.3447 129.719 71.9167 130.379 72.65C131.039 73.3833 131.538 74.2707 131.875 75.312C132.213 76.3533 132.381 77.4973 132.381 78.744V93H130.643C130.262 93 129.969 92.9413 129.763 92.824C129.558 92.692 129.397 92.4427 129.279 92.076L128.839 89.964C128.253 90.5067 127.681 90.9907 127.123 91.416C126.566 91.8267 125.979 92.1787 125.363 92.472C124.747 92.7507 124.087 92.9633 123.383 93.11C122.694 93.2713 121.924 93.352 121.073 93.352C120.208 93.352 119.394 93.2347 118.631 93C117.869 92.7507 117.201 92.384 116.629 91.9C116.072 91.416 115.625 90.8073 115.287 90.074C114.965 89.326 114.803 88.446 114.803 87.434C114.803 86.554 115.045 85.7107 115.529 84.904C116.013 84.0827 116.798 83.3567 117.883 82.726C118.969 82.0953 120.384 81.582 122.129 81.186C123.875 80.7753 126.016 80.5407 128.553 80.482V78.744C128.553 77.0133 128.179 75.708 127.431 74.828C126.683 73.9333 125.591 73.486 124.153 73.486C123.185 73.486 122.371 73.6107 121.711 73.86C121.066 74.0947 120.501 74.366 120.017 74.674C119.548 74.9673 119.137 75.2387 118.785 75.488C118.448 75.7227 118.111 75.84 117.773 75.84C117.509 75.84 117.282 75.774 117.091 75.642C116.901 75.4953 116.739 75.3193 116.607 75.114L115.903 73.86ZM143.568 93.352C141.808 93.352 140.451 92.8607 139.498 91.878C138.559 90.8953 138.09 89.48 138.09 87.632V73.992H135.406C135.171 73.992 134.973 73.926 134.812 73.794C134.65 73.6473 134.57 73.4273 134.57 73.134V71.572L138.222 71.11L139.124 64.224C139.168 64.004 139.263 63.828 139.41 63.696C139.571 63.5493 139.776 63.476 140.026 63.476H142.006V71.154H148.452V73.992H142.006V87.368C142.006 88.3067 142.233 89.0033 142.688 89.458C143.142 89.9127 143.729 90.14 144.448 90.14C144.858 90.14 145.21 90.0887 145.504 89.986C145.812 89.8687 146.076 89.744 146.296 89.612C146.516 89.48 146.699 89.3627 146.846 89.26C147.007 89.1427 147.146 89.084 147.264 89.084C147.469 89.084 147.652 89.2087 147.814 89.458L148.958 91.328C148.283 91.9587 147.469 92.4573 146.516 92.824C145.562 93.176 144.58 93.352 143.568 93.352ZM163.253 82.968C161.449 83.0267 159.909 83.1733 158.633 83.408C157.372 83.628 156.338 83.9213 155.531 84.288C154.739 84.6547 154.16 85.0873 153.793 85.586C153.441 86.0847 153.265 86.642 153.265 87.258C153.265 87.8447 153.36 88.3507 153.551 88.776C153.742 89.2013 153.998 89.5533 154.321 89.832C154.658 90.096 155.047 90.294 155.487 90.426C155.942 90.5433 156.426 90.602 156.939 90.602C157.628 90.602 158.259 90.536 158.831 90.404C159.403 90.2573 159.938 90.052 160.437 89.788C160.95 89.524 161.434 89.2087 161.889 88.842C162.358 88.4753 162.813 88.0573 163.253 87.588V82.968ZM150.603 73.86C151.835 72.672 153.162 71.7847 154.585 71.198C156.008 70.6113 157.584 70.318 159.315 70.318C160.562 70.318 161.669 70.5233 162.637 70.934C163.605 71.3447 164.419 71.9167 165.079 72.65C165.739 73.3833 166.238 74.2707 166.575 75.312C166.912 76.3533 167.081 77.4973 167.081 78.744V93H165.343C164.962 93 164.668 92.9413 164.463 92.824C164.258 92.692 164.096 92.4427 163.979 92.076L163.539 89.964C162.952 90.5067 162.38 90.9907 161.823 91.416C161.266 91.8267 160.679 92.1787 160.063 92.472C159.447 92.7507 158.787 92.9633 158.083 93.11C157.394 93.2713 156.624 93.352 155.773 93.352C154.908 93.352 154.094 93.2347 153.331 93C152.568 92.7507 151.901 92.384 151.329 91.9C150.772 91.416 150.324 90.8073 149.987 90.074C149.664 89.326 149.503 88.446 149.503 87.434C149.503 86.554 149.745 85.7107 150.229 84.904C150.713 84.0827 151.498 83.3567 152.583 82.726C153.668 82.0953 155.084 81.582 156.829 81.186C158.574 80.7753 160.716 80.5407 163.253 80.482V78.744C163.253 77.0133 162.879 75.708 162.131 74.828C161.383 73.9333 160.29 73.486 158.853 73.486C157.885 73.486 157.071 73.6107 156.411 73.86C155.766 74.0947 155.201 74.366 154.717 74.674C154.248 74.9673 153.837 75.2387 153.485 75.488C153.148 75.7227 152.81 75.84 152.473 75.84C152.209 75.84 151.982 75.774 151.791 75.642C151.6 75.4953 151.439 75.3193 151.307 75.114L150.603 73.86Z" fill="white"/>
        <rect y="106.789" width="210" height="13.211" fill="#D42B21"/>
    </g>
    <defs>
        <clipPath id="clip0">
            <rect width="210" height="120" fill="white"/>
        </clipPath>
    </defs>
</svg></g><a href="https://staging-owid.netlify.com/grapher/life-expectancy?country=BWA+NAM+ZAF+SWZ+TZA+OWID_WRL+ZMB" target="_blank"><text font-size="25.20" x="15.0" y="35.2" fill="#555"><tspan x="15" y="35.160000000000004">Life expectancy</tspan></text></a></g><g class="LineChart"><defs><clipPath id="boundsClip-86"><rect x="72.37" y="0" width="830" height="918.2"></rect></clipPath></defs><g class="AxisBoxView"><g class="HorizontalAxis"><text x="82.4" y="529.1" fill="#666" text-anchor="middle" font-size="16.2">1770</text><text x="161.2" y="529.1" fill="#666" text-anchor="middle" font-size="16.2">1800</text><text x="292.6" y="529.1" fill="#666" text-anchor="middle" font-size="16.2">1850</text><text x="424" y="529.1" fill="#666" text-anchor="middle" font-size="16.2">1900</text><text x="555.4" y="529.1" fill="#666" text-anchor="middle" font-size="16.2">1950</text><text x="726.2" y="529.1" fill="#666" text-anchor="middle" font-size="16.2">2015</text></g><g class="VerticalAxis"><text x="77.37" y="507.9" fill="#666" dominant-baseline="middle" text-anchor="end" font-size="16.2">0 years</text><text x="77.37" y="446.8" fill="#666" dominant-baseline="middle" text-anchor="end" font-size="16.2">10 years</text><text x="77.37" y="385.7" fill="#666" dominant-baseline="middle" text-anchor="end" font-size="16.2">20 years</text><text x="77.37" y="324.6" fill="#666" dominant-baseline="middle" text-anchor="end" font-size="16.2">30 years</text><text x="77.37" y="263.5" fill="#666" dominant-baseline="middle" text-anchor="end" font-size="16.2">40 years</text><text x="77.37" y="202.4" fill="#666" dominant-baseline="middle" text-anchor="end" font-size="16.2">50 years</text><text x="77.37" y="141.3" fill="#666" dominant-baseline="middle" text-anchor="end" font-size="16.2">60 years</text><text x="77.37" y="80.1" fill="#666" dominant-baseline="middle" text-anchor="end" font-size="16.2">70 years</text></g><g class="AxisGridLines"><line x1="82.37" y1="507.9" x2="726.15" y2="507.9" stroke="#ccc"></line><line x1="82.37" y1="446.8" x2="726.15" y2="446.8" stroke="#ddd" stroke-dasharray="3,2"></line><line x1="82.37" y1="385.7" x2="726.15" y2="385.7" stroke="#ddd" stroke-dasharray="3,2"></line><line x1="82.37" y1="324.6" x2="726.15" y2="324.6" stroke="#ddd" stroke-dasharray="3,2"></line><line x1="82.37" y1="263.5" x2="726.15" y2="263.5" stroke="#ddd" stroke-dasharray="3,2"></line><line x1="82.37" y1="202.4" x2="726.15" y2="202.4" stroke="#ddd" stroke-dasharray="3,2"></line><line x1="82.37" y1="141.3" x2="726.15" y2="141.3" stroke="#ddd" stroke-dasharray="3,2"></line><line x1="82.37" y1="80.1" x2="726.15" y2="80.1" stroke="#ddd" stroke-dasharray="3,2"></line></g></g><g clip-path="url(#boundsClip-86)"><g class="HeightedLegend" style="cursor:pointer"><g class="legendMark"><g class="indicator"><path d="M730.155,70 H736.905 V76.75 H757.155" stroke="#999" stroke-width="0.5" fill="none"></path></g><rect x="726.155" y="70" width="70.235" height="13.5" fill="#fff" opacity="0"></rect><text font-size="13.50" x="761.2" y="80.8" fill="#e6332e"><tspan x="761.155" y="80.8">World</tspan></text></g><g class="legendMark"><g class="indicator"><path d="M730.155,96.4 H736.905 V92.25 H757.155" stroke="#999" stroke-width="0.5" fill="none"></path></g><rect x="726.155" y="85.5" width="94.535" height="13.5" fill="#fff" opacity="0"></rect><text font-size="13.50" x="761.2" y="96.3" fill="#2a939b"><tspan x="761.155" y="96.3">Botswana</tspan></text></g><g class="legendMark"><g class="indicator"><path d="M730.155,122.2 H743.655 V107.75 H757.155" stroke="#999" stroke-width="0.5" fill="none"></path></g><rect x="726.155" y="101" width="90.755" height="13.5" fill="#fff" opacity="0"></rect><text font-size="13.50" x="761.2" y="111.8" fill="#a652ba"><tspan x="761.155" y="111.8">Tanzania</tspan></text></g><g class="legendMark"><g class="indicator"><path d="M730.155,125.1 H750.405 V123.25 H757.155" stroke="#999" stroke-width="0.5" fill="none"></path></g><rect x="726.155" y="116.5" width="108.845" height="13.5" fill="#fff" opacity="0"></rect><text font-size="13.50" x="761.2" y="127.3" fill="#f6a324"><tspan x="761.155" y="127.3">South Africa</tspan></text></g><g class="legendMark"><g class="indicator"><path d="M730.155,128.3 H750.405 V138.75 H757.155" stroke="#999" stroke-width="0.5" fill="none"></path></g><rect x="726.155" y="132" width="84.545" height="13.5" fill="#fff" opacity="0"></rect><text font-size="13.50" x="761.2" y="142.8" fill="#ca2628"><tspan x="761.155" y="142.8">Namibia</tspan></text></g><g class="legendMark"><g class="indicator"><path d="M730.155,130.6 H743.655 V154.25 H757.155" stroke="#999" stroke-width="0.5" fill="none"></path></g><rect x="726.155" y="147.5" width="80.09" height="13.5" fill="#fff" opacity="0"></rect><text font-size="13.50" x="761.2" y="158.3" fill="#34983f"><tspan x="761.155" y="158.3">Zambia</tspan></text></g><g class="legendMark"><g class="indicator"><path d="M730.155,169.6 H743.655 V169.6 H757.155" stroke="#999" stroke-width="0.5" fill="none"></path></g><rect x="726.155" y="162.85" width="96.69500000000001" height="13.5" fill="#fff" opacity="0"></rect><text font-size="13.50" x="761.2" y="173.7" fill="#3360a9"><tspan x="761.155" y="173.65">Swaziland</tspan></text></g></g><g class="Lines"><rect x="82" y="70" width="644" height="438" fill="rgba(255,255,255,0)" opacity="0"></rect><g class="key-Botswana_0"><path stroke="#2a939b" stroke-linecap="round" d="M555 241L558 239L561 235L563 232L566 228L569 224L571 221L574 217L576 214L579 211L582 207L584 204L587 201L590 198L592 196L595 193L597 190L600 188L603 185L605 182L608 179L611 176L613 173L616 169L618 166L621 163L624 159L626 156L629 152L632 149L634 146L637 143L639 141L642 138L645 136L647 134L650 134L653 135L655 137L658 141L661 146L663 152L666 158L668 164L671 170L674 175L676 181L679 186L682 191L684 195L687 199L689 201L692 201L695 199L697 195L700 189L703 181L705 172L708 162L710 151L713 140L716 130L718 120L721 111L724 103L726 96" fill="none" stroke-width="1.5"></path><g fill="#2a939b"><circle cx="555" cy="241" r="2"></circle><circle cx="558" cy="239" r="2"></circle><circle cx="561" cy="235" r="2"></circle><circle cx="563" cy="232" r="2"></circle><circle cx="566" cy="228" r="2"></circle><circle cx="569" cy="224" r="2"></circle><circle cx="571" cy="221" r="2"></circle><circle cx="574" cy="217" r="2"></circle><circle cx="576" cy="214" r="2"></circle><circle cx="579" cy="211" r="2"></circle><circle cx="582" cy="207" r="2"></circle><circle cx="584" cy="204" r="2"></circle><circle cx="587" cy="201" r="2"></circle><circle cx="590" cy="198" r="2"></circle><circle cx="592" cy="196" r="2"></circle><circle cx="595" cy="193" r="2"></circle><circle cx="597" cy="190" r="2"></circle><circle cx="600" cy="188" r="2"></circle><circle cx="603" cy="185" r="2"></circle><circle cx="605" cy="182" r="2"></circle><circle cx="608" cy="179" r="2"></circle><circle cx="611" cy="176" r="2"></circle><circle cx="613" cy="173" r="2"></circle><circle cx="616" cy="169" r="2"></circle><circle cx="618" cy="166" r="2"></circle><circle cx="621" cy="163" r="2"></circle><circle cx="624" cy="159" r="2"></circle><circle cx="626" cy="156" r="2"></circle><circle cx="629" cy="152" r="2"></circle><circle cx="632" cy="149" r="2"></circle><circle cx="634" cy="146" r="2"></circle><circle cx="637" cy="143" r="2"></circle><circle cx="639" cy="141" r="2"></circle><circle cx="642" cy="138" r="2"></circle><circle cx="645" cy="136" r="2"></circle><circle cx="647" cy="134" r="2"></circle><circle cx="650" cy="134" r="2"></circle><circle cx="653" cy="135" r="2"></circle><circle cx="655" cy="137" r="2"></circle><circle cx="658" cy="141" r="2"></circle><circle cx="661" cy="146" r="2"></circle><circle cx="663" cy="152" r="2"></circle><circle cx="666" cy="158" r="2"></circle><circle cx="668" cy="164" r="2"></circle><circle cx="671" cy="170" r="2"></circle><circle cx="674" cy="175" r="2"></circle><circle cx="676" cy="181" r="2"></circle><circle cx="679" cy="186" r="2"></circle><circle cx="682" cy="191" r="2"></circle><circle cx="684" cy="195" r="2"></circle><circle cx="687" cy="199" r="2"></circle><circle cx="689" cy="201" r="2"></circle><circle cx="692" cy="201" r="2"></circle><circle cx="695" cy="199" r="2"></circle><circle cx="697" cy="195" r="2"></circle><circle cx="700" cy="189" r="2"></circle><circle cx="703" cy="181" r="2"></circle><circle cx="705" cy="172" r="2"></circle><circle cx="708" cy="162" r="2"></circle><circle cx="710" cy="151" r="2"></circle><circle cx="713" cy="140" r="2"></circle><circle cx="716" cy="130" r="2"></circle><circle cx="718" cy="120" r="2"></circle><circle cx="721" cy="111" r="2"></circle><circle cx="724" cy="103" r="2"></circle><circle cx="726" cy="96" r="2"></circle></g></g><g class="key-Namibia_0"><path stroke="#ca2628" stroke-linecap="round" d="M555 269L558 266L561 262L563 257L566 252L569 248L571 243L574 238L576 233L579 229L582 224L584 219L587 215L590 211L592 207L595 203L597 199L600 196L603 192L605 189L608 186L611 183L613 180L616 176L618 173L621 170L624 166L626 164L629 161L632 159L634 157L637 155L639 153L642 151L645 148L647 145L650 141L653 138L655 135L658 133L661 131L663 132L666 134L668 138L671 144L674 151L676 159L679 167L682 175L684 183L687 189L689 194L692 197L695 199L697 199L700 197L703 193L705 187L708 179L710 171L713 162L716 153L718 145L721 138L724 133L726 128" fill="none" stroke-width="1.5"></path><g fill="#ca2628"><circle cx="555" cy="269" r="2"></circle><circle cx="558" cy="266" r="2"></circle><circle cx="561" cy="262" r="2"></circle><circle cx="563" cy="257" r="2"></circle><circle cx="566" cy="252" r="2"></circle><circle cx="569" cy="248" r="2"></circle><circle cx="571" cy="243" r="2"></circle><circle cx="574" cy="238" r="2"></circle><circle cx="576" cy="233" r="2"></circle><circle cx="579" cy="229" r="2"></circle><circle cx="582" cy="224" r="2"></circle><circle cx="584" cy="219" r="2"></circle><circle cx="587" cy="215" r="2"></circle><circle cx="590" cy="211" r="2"></circle><circle cx="592" cy="207" r="2"></circle><circle cx="595" cy="203" r="2"></circle><circle cx="597" cy="199" r="2"></circle><circle cx="600" cy="196" r="2"></circle><circle cx="603" cy="192" r="2"></circle><circle cx="605" cy="189" r="2"></circle><circle cx="608" cy="186" r="2"></circle><circle cx="611" cy="183" r="2"></circle><circle cx="613" cy="180" r="2"></circle><circle cx="616" cy="176" r="2"></circle><circle cx="618" cy="173" r="2"></circle><circle cx="621" cy="170" r="2"></circle><circle cx="624" cy="166" r="2"></circle><circle cx="626" cy="164" r="2"></circle><circle cx="629" cy="161" r="2"></circle><circle cx="632" cy="159" r="2"></circle><circle cx="634" cy="157" r="2"></circle><circle cx="637" cy="155" r="2"></circle><circle cx="639" cy="153" r="2"></circle><circle cx="642" cy="151" r="2"></circle><circle cx="645" cy="148" r="2"></circle><circle cx="647" cy="145" r="2"></circle><circle cx="650" cy="141" r="2"></circle><circle cx="653" cy="138" r="2"></circle><circle cx="655" cy="135" r="2"></circle><circle cx="658" cy="133" r="2"></circle><circle cx="661" cy="131" r="2"></circle><circle cx="663" cy="132" r="2"></circle><circle cx="666" cy="134" r="2"></circle><circle cx="668" cy="138" r="2"></circle><circle cx="671" cy="144" r="2"></circle><circle cx="674" cy="151" r="2"></circle><circle cx="676" cy="159" r="2"></circle><circle cx="679" cy="167" r="2"></circle><circle cx="682" cy="175" r="2"></circle><circle cx="684" cy="183" r="2"></circle><circle cx="687" cy="189" r="2"></circle><circle cx="689" cy="194" r="2"></circle><circle cx="692" cy="197" r="2"></circle><circle cx="695" cy="199" r="2"></circle><circle cx="697" cy="199" r="2"></circle><circle cx="700" cy="197" r="2"></circle><circle cx="703" cy="193" r="2"></circle><circle cx="705" cy="187" r="2"></circle><circle cx="708" cy="179" r="2"></circle><circle cx="710" cy="171" r="2"></circle><circle cx="713" cy="162" r="2"></circle><circle cx="716" cy="153" r="2"></circle><circle cx="718" cy="145" r="2"></circle><circle cx="721" cy="138" r="2"></circle><circle cx="724" cy="133" r="2"></circle><circle cx="726" cy="128" r="2"></circle></g></g><g class="key-South-Africa_0"><path stroke="#f6a324" stroke-linecap="round" d="M555 241L558 240L561 236L563 232L566 229L569 225L571 222L574 220L576 217L579 215L582 212L584 210L587 208L590 205L592 203L595 201L597 198L600 195L603 193L605 190L608 186L611 183L613 180L616 176L618 173L621 169L624 166L626 162L629 159L632 156L634 153L637 150L639 146L642 143L645 139L647 136L650 132L653 128L655 125L658 123L661 121L663 121L666 121L668 124L671 127L674 132L676 138L679 144L682 152L684 159L687 165L689 171L692 176L695 180L697 181L700 181L703 179L705 175L708 170L710 163L713 156L716 148L718 141L721 135L724 129L726 125" fill="none" stroke-width="1.5"></path><g fill="#f6a324"><circle cx="555" cy="241" r="2"></circle><circle cx="558" cy="240" r="2"></circle><circle cx="561" cy="236" r="2"></circle><circle cx="563" cy="232" r="2"></circle><circle cx="566" cy="229" r="2"></circle><circle cx="569" cy="225" r="2"></circle><circle cx="571" cy="222" r="2"></circle><circle cx="574" cy="220" r="2"></circle><circle cx="576" cy="217" r="2"></circle><circle cx="579" cy="215" r="2"></circle><circle cx="582" cy="212" r="2"></circle><circle cx="584" cy="210" r="2"></circle><circle cx="587" cy="208" r="2"></circle><circle cx="590" cy="205" r="2"></circle><circle cx="592" cy="203" r="2"></circle><circle cx="595" cy="201" r="2"></circle><circle cx="597" cy="198" r="2"></circle><circle cx="600" cy="195" r="2"></circle><circle cx="603" cy="193" r="2"></circle><circle cx="605" cy="190" r="2"></circle><circle cx="608" cy="186" r="2"></circle><circle cx="611" cy="183" r="2"></circle><circle cx="613" cy="180" r="2"></circle><circle cx="616" cy="176" r="2"></circle><circle cx="618" cy="173" r="2"></circle><circle cx="621" cy="169" r="2"></circle><circle cx="624" cy="166" r="2"></circle><circle cx="626" cy="162" r="2"></circle><circle cx="629" cy="159" r="2"></circle><circle cx="632" cy="156" r="2"></circle><circle cx="634" cy="153" r="2"></circle><circle cx="637" cy="150" r="2"></circle><circle cx="639" cy="146" r="2"></circle><circle cx="642" cy="143" r="2"></circle><circle cx="645" cy="139" r="2"></circle><circle cx="647" cy="136" r="2"></circle><circle cx="650" cy="132" r="2"></circle><circle cx="653" cy="128" r="2"></circle><circle cx="655" cy="125" r="2"></circle><circle cx="658" cy="123" r="2"></circle><circle cx="661" cy="121" r="2"></circle><circle cx="663" cy="121" r="2"></circle><circle cx="666" cy="121" r="2"></circle><circle cx="668" cy="124" r="2"></circle><circle cx="671" cy="127" r="2"></circle><circle cx="674" cy="132" r="2"></circle><circle cx="676" cy="138" r="2"></circle><circle cx="679" cy="144" r="2"></circle><circle cx="682" cy="152" r="2"></circle><circle cx="684" cy="159" r="2"></circle><circle cx="687" cy="165" r="2"></circle><circle cx="689" cy="171" r="2"></circle><circle cx="692" cy="176" r="2"></circle><circle cx="695" cy="180" r="2"></circle><circle cx="697" cy="181" r="2"></circle><circle cx="700" cy="181" r="2"></circle><circle cx="703" cy="179" r="2"></circle><circle cx="705" cy="175" r="2"></circle><circle cx="708" cy="170" r="2"></circle><circle cx="710" cy="163" r="2"></circle><circle cx="713" cy="156" r="2"></circle><circle cx="716" cy="148" r="2"></circle><circle cx="718" cy="141" r="2"></circle><circle cx="721" cy="135" r="2"></circle><circle cx="724" cy="129" r="2"></circle><circle cx="726" cy="125" r="2"></circle></g></g><g class="key-Swaziland_0"><path stroke="#3360a9" stroke-linecap="round" d="M555 267L558 266L561 263L563 260L566 257L569 254L571 252L574 249L576 247L579 244L582 242L584 239L587 237L590 235L592 232L595 230L597 227L600 224L603 221L605 218L608 214L611 210L613 206L616 201L618 197L621 192L624 188L626 183L629 178L632 173L634 168L637 163L639 158L642 153L645 148L647 143L650 138L653 135L655 132L658 130L661 129L663 131L666 135L668 140L671 148L674 157L676 168L679 180L682 193L684 206L687 218L689 228L692 237L695 243L697 247L700 248L703 247L705 243L708 238L710 231L713 223L716 214L718 203L721 192L724 181L726 170" fill="none" stroke-width="1.5"></path><g fill="#3360a9"><circle cx="555" cy="267" r="2"></circle><circle cx="558" cy="266" r="2"></circle><circle cx="561" cy="263" r="2"></circle><circle cx="563" cy="260" r="2"></circle><circle cx="566" cy="257" r="2"></circle><circle cx="569" cy="254" r="2"></circle><circle cx="571" cy="252" r="2"></circle><circle cx="574" cy="249" r="2"></circle><circle cx="576" cy="247" r="2"></circle><circle cx="579" cy="244" r="2"></circle><circle cx="582" cy="242" r="2"></circle><circle cx="584" cy="239" r="2"></circle><circle cx="587" cy="237" r="2"></circle><circle cx="590" cy="235" r="2"></circle><circle cx="592" cy="232" r="2"></circle><circle cx="595" cy="230" r="2"></circle><circle cx="597" cy="227" r="2"></circle><circle cx="600" cy="224" r="2"></circle><circle cx="603" cy="221" r="2"></circle><circle cx="605" cy="218" r="2"></circle><circle cx="608" cy="214" r="2"></circle><circle cx="611" cy="210" r="2"></circle><circle cx="613" cy="206" r="2"></circle><circle cx="616" cy="201" r="2"></circle><circle cx="618" cy="197" r="2"></circle><circle cx="621" cy="192" r="2"></circle><circle cx="624" cy="188" r="2"></circle><circle cx="626" cy="183" r="2"></circle><circle cx="629" cy="178" r="2"></circle><circle cx="632" cy="173" r="2"></circle><circle cx="634" cy="168" r="2"></circle><circle cx="637" cy="163" r="2"></circle><circle cx="639" cy="158" r="2"></circle><circle cx="642" cy="153" r="2"></circle><circle cx="645" cy="148" r="2"></circle><circle cx="647" cy="143" r="2"></circle><circle cx="650" cy="138" r="2"></circle><circle cx="653" cy="135" r="2"></circle><circle cx="655" cy="132" r="2"></circle><circle cx="658" cy="130" r="2"></circle><circle cx="661" cy="129" r="2"></circle><circle cx="663" cy="131" r="2"></circle><circle cx="666" cy="135" r="2"></circle><circle cx="668" cy="140" r="2"></circle><circle cx="671" cy="148" r="2"></circle><circle cx="674" cy="157" r="2"></circle><circle cx="676" cy="168" r="2"></circle><circle cx="679" cy="180" r="2"></circle><circle cx="682" cy="193" r="2"></circle><circle cx="684" cy="206" r="2"></circle><circle cx="687" cy="218" r="2"></circle><circle cx="689" cy="228" r="2"></circle><circle cx="692" cy="237" r="2"></circle><circle cx="695" cy="243" r="2"></circle><circle cx="697" cy="247" r="2"></circle><circle cx="700" cy="248" r="2"></circle><circle cx="703" cy="247" r="2"></circle><circle cx="705" cy="243" r="2"></circle><circle cx="708" cy="238" r="2"></circle><circle cx="710" cy="231" r="2"></circle><circle cx="713" cy="223" r="2"></circle><circle cx="716" cy="214" r="2"></circle><circle cx="718" cy="203" r="2"></circle><circle cx="721" cy="192" r="2"></circle><circle cx="724" cy="181" r="2"></circle><circle cx="726" cy="170" r="2"></circle></g></g><g class="key-Tanzania_0"><path stroke="#a652ba" stroke-linecap="round" d="M555 263L558 262L561 259L563 256L566 253L569 251L571 249L574 247L576 245L579 243L582 242L584 240L587 238L590 237L592 235L595 233L597 231L600 229L603 227L605 224L608 222L611 220L613 217L616 214L618 212L621 209L624 207L626 205L629 203L632 202L634 201L637 200L639 199L642 199L645 198L647 198L650 198L653 198L655 199L658 200L661 201L663 203L666 204L668 205L671 206L674 207L676 207L679 205L682 204L684 201L687 198L689 194L692 189L695 185L697 180L700 176L703 171L705 166L708 161L710 156L713 150L716 144L718 138L721 133L724 127L726 122" fill="none" stroke-width="1.5"></path><g fill="#a652ba"><circle cx="555" cy="263" r="2"></circle><circle cx="558" cy="262" r="2"></circle><circle cx="561" cy="259" r="2"></circle><circle cx="563" cy="256" r="2"></circle><circle cx="566" cy="253" r="2"></circle><circle cx="569" cy="251" r="2"></circle><circle cx="571" cy="249" r="2"></circle><circle cx="574" cy="247" r="2"></circle><circle cx="576" cy="245" r="2"></circle><circle cx="579" cy="243" r="2"></circle><circle cx="582" cy="242" r="2"></circle><circle cx="584" cy="240" r="2"></circle><circle cx="587" cy="238" r="2"></circle><circle cx="590" cy="237" r="2"></circle><circle cx="592" cy="235" r="2"></circle><circle cx="595" cy="233" r="2"></circle><circle cx="597" cy="231" r="2"></circle><circle cx="600" cy="229" r="2"></circle><circle cx="603" cy="227" r="2"></circle><circle cx="605" cy="224" r="2"></circle><circle cx="608" cy="222" r="2"></circle><circle cx="611" cy="220" r="2"></circle><circle cx="613" cy="217" r="2"></circle><circle cx="616" cy="214" r="2"></circle><circle cx="618" cy="212" r="2"></circle><circle cx="621" cy="209" r="2"></circle><circle cx="624" cy="207" r="2"></circle><circle cx="626" cy="205" r="2"></circle><circle cx="629" cy="203" r="2"></circle><circle cx="632" cy="202" r="2"></circle><circle cx="634" cy="201" r="2"></circle><circle cx="637" cy="200" r="2"></circle><circle cx="639" cy="199" r="2"></circle><circle cx="642" cy="199" r="2"></circle><circle cx="645" cy="198" r="2"></circle><circle cx="647" cy="198" r="2"></circle><circle cx="650" cy="198" r="2"></circle><circle cx="653" cy="198" r="2"></circle><circle cx="655" cy="199" r="2"></circle><circle cx="658" cy="200" r="2"></circle><circle cx="661" cy="201" r="2"></circle><circle cx="663" cy="203" r="2"></circle><circle cx="666" cy="204" r="2"></circle><circle cx="668" cy="205" r="2"></circle><circle cx="671" cy="206" r="2"></circle><circle cx="674" cy="207" r="2"></circle><circle cx="676" cy="207" r="2"></circle><circle cx="679" cy="205" r="2"></circle><circle cx="682" cy="204" r="2"></circle><circle cx="684" cy="201" r="2"></circle><circle cx="687" cy="198" r="2"></circle><circle cx="689" cy="194" r="2"></circle><circle cx="692" cy="189" r="2"></circle><circle cx="695" cy="185" r="2"></circle><circle cx="697" cy="180" r="2"></circle><circle cx="700" cy="176" r="2"></circle><circle cx="703" cy="171" r="2"></circle><circle cx="705" cy="166" r="2"></circle><circle cx="708" cy="161" r="2"></circle><circle cx="710" cy="156" r="2"></circle><circle cx="713" cy="150" r="2"></circle><circle cx="716" cy="144" r="2"></circle><circle cx="718" cy="138" r="2"></circle><circle cx="721" cy="133" r="2"></circle><circle cx="724" cy="127" r="2"></circle><circle cx="726" cy="122" r="2"></circle></g></g><g class="key-World_0"><path stroke="#e6332e" stroke-linecap="round" d="M82 333L161 334L214 331L293 329L345 326L424 312L458 300L555 228L558 226L561 223L563 219L566 216L569 213L571 210L574 208L576 206L579 204L582 202L584 199L587 196L590 192L592 187L595 183L597 178L600 173L603 168L605 164L608 160L611 157L613 154L616 151L618 149L621 146L624 143L626 141L629 138L632 136L634 134L637 132L639 129L642 127L645 125L647 123L650 121L653 120L655 118L658 117L661 116L663 115L666 114L668 113L671 112L674 110L676 109L679 108L682 106L684 105L687 103L689 101L692 99L695 97L697 95L700 93L703 90L705 88L708 86L710 83L713 81L716 78L718 76L721 74L724 72L726 70" fill="none" stroke-width="1.5"></path><g fill="#e6332e"><circle cx="82" cy="333" r="2"></circle><circle cx="161" cy="334" r="2"></circle><circle cx="214" cy="331" r="2"></circle><circle cx="293" cy="329" r="2"></circle><circle cx="345" cy="326" r="2"></circle><circle cx="424" cy="312" r="2"></circle><circle cx="458" cy="300" r="2"></circle><circle cx="555" cy="228" r="2"></circle><circle cx="558" cy="226" r="2"></circle><circle cx="561" cy="223" r="2"></circle><circle cx="563" cy="219" r="2"></circle><circle cx="566" cy="216" r="2"></circle><circle cx="569" cy="213" r="2"></circle><circle cx="571" cy="210" r="2"></circle><circle cx="574" cy="208" r="2"></circle><circle cx="576" cy="206" r="2"></circle><circle cx="579" cy="204" r="2"></circle><circle cx="582" cy="202" r="2"></circle><circle cx="584" cy="199" r="2"></circle><circle cx="587" cy="196" r="2"></circle><circle cx="590" cy="192" r="2"></circle><circle cx="592" cy="187" r="2"></circle><circle cx="595" cy="183" r="2"></circle><circle cx="597" cy="178" r="2"></circle><circle cx="600" cy="173" r="2"></circle><circle cx="603" cy="168" r="2"></circle><circle cx="605" cy="164" r="2"></circle><circle cx="608" cy="160" r="2"></circle><circle cx="611" cy="157" r="2"></circle><circle cx="613" cy="154" r="2"></circle><circle cx="616" cy="151" r="2"></circle><circle cx="618" cy="149" r="2"></circle><circle cx="621" cy="146" r="2"></circle><circle cx="624" cy="143" r="2"></circle><circle cx="626" cy="141" r="2"></circle><circle cx="629" cy="138" r="2"></circle><circle cx="632" cy="136" r="2"></circle><circle cx="634" cy="134" r="2"></circle><circle cx="637" cy="132" r="2"></circle><circle cx="639" cy="129" r="2"></circle><circle cx="642" cy="127" r="2"></circle><circle cx="645" cy="125" r="2"></circle><circle cx="647" cy="123" r="2"></circle><circle cx="650" cy="121" r="2"></circle><circle cx="653" cy="120" r="2"></circle><circle cx="655" cy="118" r="2"></circle><circle cx="658" cy="117" r="2"></circle><circle cx="661" cy="116" r="2"></circle><circle cx="663" cy="115" r="2"></circle><circle cx="666" cy="114" r="2"></circle><circle cx="668" cy="113" r="2"></circle><circle cx="671" cy="112" r="2"></circle><circle cx="674" cy="110" r="2"></circle><circle cx="676" cy="109" r="2"></circle><circle cx="679" cy="108" r="2"></circle><circle cx="682" cy="106" r="2"></circle><circle cx="684" cy="105" r="2"></circle><circle cx="687" cy="103" r="2"></circle><circle cx="689" cy="101" r="2"></circle><circle cx="692" cy="99" r="2"></circle><circle cx="695" cy="97" r="2"></circle><circle cx="697" cy="95" r="2"></circle><circle cx="700" cy="93" r="2"></circle><circle cx="703" cy="90" r="2"></circle><circle cx="705" cy="88" r="2"></circle><circle cx="708" cy="86" r="2"></circle><circle cx="710" cy="83" r="2"></circle><circle cx="713" cy="81" r="2"></circle><circle cx="716" cy="78" r="2"></circle><circle cx="718" cy="76" r="2"></circle><circle cx="721" cy="74" r="2"></circle><circle cx="724" cy="72" r="2"></circle><circle cx="726" cy="70" r="2"></circle></g></g><g class="key-Zambia_0"><path stroke="#34983f" stroke-linecap="round" d="M555 249L558 248L561 245L563 242L566 239L569 237L571 234L574 231L576 228L579 225L582 223L584 220L587 218L590 216L592 214L595 212L597 211L600 209L603 207L605 204L608 202L611 199L613 197L616 194L618 192L621 190L624 189L626 187L629 186L632 186L634 185L637 185L639 185L642 185L645 185L647 186L650 188L653 191L655 195L658 201L661 207L663 214L666 221L668 227L671 233L674 238L676 241L679 242L682 243L684 242L687 239L689 235L692 231L695 225L697 219L700 212L703 204L705 195L708 186L710 177L713 168L716 159L718 150L721 143L724 136L726 131" fill="none" stroke-width="1.5"></path><g fill="#34983f"><circle cx="555" cy="249" r="2"></circle><circle cx="558" cy="248" r="2"></circle><circle cx="561" cy="245" r="2"></circle><circle cx="563" cy="242" r="2"></circle><circle cx="566" cy="239" r="2"></circle><circle cx="569" cy="237" r="2"></circle><circle cx="571" cy="234" r="2"></circle><circle cx="574" cy="231" r="2"></circle><circle cx="576" cy="228" r="2"></circle><circle cx="579" cy="225" r="2"></circle><circle cx="582" cy="223" r="2"></circle><circle cx="584" cy="220" r="2"></circle><circle cx="587" cy="218" r="2"></circle><circle cx="590" cy="216" r="2"></circle><circle cx="592" cy="214" r="2"></circle><circle cx="595" cy="212" r="2"></circle><circle cx="597" cy="211" r="2"></circle><circle cx="600" cy="209" r="2"></circle><circle cx="603" cy="207" r="2"></circle><circle cx="605" cy="204" r="2"></circle><circle cx="608" cy="202" r="2"></circle><circle cx="611" cy="199" r="2"></circle><circle cx="613" cy="197" r="2"></circle><circle cx="616" cy="194" r="2"></circle><circle cx="618" cy="192" r="2"></circle><circle cx="621" cy="190" r="2"></circle><circle cx="624" cy="189" r="2"></circle><circle cx="626" cy="187" r="2"></circle><circle cx="629" cy="186" r="2"></circle><circle cx="632" cy="186" r="2"></circle><circle cx="634" cy="185" r="2"></circle><circle cx="637" cy="185" r="2"></circle><circle cx="639" cy="185" r="2"></circle><circle cx="642" cy="185" r="2"></circle><circle cx="645" cy="185" r="2"></circle><circle cx="647" cy="186" r="2"></circle><circle cx="650" cy="188" r="2"></circle><circle cx="653" cy="191" r="2"></circle><circle cx="655" cy="195" r="2"></circle><circle cx="658" cy="201" r="2"></circle><circle cx="661" cy="207" r="2"></circle><circle cx="663" cy="214" r="2"></circle><circle cx="666" cy="221" r="2"></circle><circle cx="668" cy="227" r="2"></circle><circle cx="671" cy="233" r="2"></circle><circle cx="674" cy="238" r="2"></circle><circle cx="676" cy="241" r="2"></circle><circle cx="679" cy="242" r="2"></circle><circle cx="682" cy="243" r="2"></circle><circle cx="684" cy="242" r="2"></circle><circle cx="687" cy="239" r="2"></circle><circle cx="689" cy="235" r="2"></circle><circle cx="692" cy="231" r="2"></circle><circle cx="695" cy="225" r="2"></circle><circle cx="697" cy="219" r="2"></circle><circle cx="700" cy="212" r="2"></circle><circle cx="703" cy="204" r="2"></circle><circle cx="705" cy="195" r="2"></circle><circle cx="708" cy="186" r="2"></circle><circle cx="710" cy="177" r="2"></circle><circle cx="713" cy="168" r="2"></circle><circle cx="716" cy="159" r="2"></circle><circle cx="718" cy="150" r="2"></circle><circle cx="721" cy="143" r="2"></circle><circle cx="724" cy="136" r="2"></circle><circle cx="726" cy="131" r="2"></circle></g></g></g></g></g><g class="SourcesFooter" style="fill:#777"><g class="clickable" style="fill:#777"><text font-size="12.60" x="15.0" y="554.2"><tspan x="15" y="554.1800000000001">Source: Riley (2005), Clio Infra (2015), and UN Population Division (2019)</tspan></text></g><text font-size="12.60" x="15.0" y="568.8"><tspan x="15" y="568.7800000000001">Note: Shown is period life expectancy at birth, the average number of years a newborn would live if the pattern of mortality in the given year</tspan><tspan x="15" y="582.6400000000001">were to stay the same throughout its life.</tspan></text><text font-size="12.60" x="582.2" y="554.2"><tspan x="582.244" y="554.1800000000001"><a target='_blank' style='fill: #777;' href='https://ourworldindata.org/life-expectancy'>OurWorldInData.org/life-expectancy</a> • <a style="fill: #777;" class="cclogo" href="http://creativecommons.org/licenses/by/4.0/deed.en_US" target="_blank">CC BY</a></tspan></text></g></svg>