<svg xmlns="http://www.w3.org/2000/svg" version="1.1" style="font-family:Lato, &#x27;Helvetica Neue&#x27;, Helvetica, Arial, sans-serif;font-size:18px;background-color:white;text-rendering:optimizeLegibility;-webkit-font-smoothing:antialiased" width="850" height="600"><g class="HeaderView"><g transform="translate(774, 15) scale(0.29)"><svg width="210" height="120" viewBox="0 0 210 120" fill="none" xmlns="http://www.w3.org/2000/svg">
    <g clip-path="url(#clip0)">
        <path d="M0 0H210V107.89H0V0Z" fill="#002147"/>
        <path d="M40.9788 32.248C40.9788 34.6093 40.6048 36.78 39.8568 38.76C39.1088 40.7253 38.0528 42.4193 36.6888 43.842C35.3248 45.2647 33.6821 46.372 31.7608 47.164C29.8541 47.9413 27.7421 48.33 25.4248 48.33C23.1074 48.33 20.9954 47.9413 19.0888 47.164C17.1821 46.372 15.5468 45.2647 14.1828 43.842C12.8188 42.4193 11.7628 40.7253 11.0148 38.76C10.2668 36.78 9.89277 34.6093 9.89277 32.248C9.89277 29.8867 10.2668 27.7233 11.0148 25.758C11.7628 23.778 12.8188 22.0767 14.1828 20.654C15.5468 19.2167 17.1821 18.102 19.0888 17.31C20.9954 16.518 23.1074 16.122 25.4248 16.122C27.7421 16.122 29.8541 16.518 31.7608 17.31C33.6821 18.102 35.3248 19.2167 36.6888 20.654C38.0528 22.0767 39.1088 23.778 39.8568 25.758C40.6048 27.7233 40.9788 29.8867 40.9788 32.248ZM36.6008 32.248C36.6008 30.312 36.3368 28.574 35.8088 27.034C35.2808 25.494 34.5328 24.196 33.5648 23.14C32.5968 22.0693 31.4234 21.248 30.0448 20.676C28.6661 20.104 27.1261 19.818 25.4248 19.818C23.7381 19.818 22.2054 20.104 20.8268 20.676C19.4481 21.248 18.2674 22.0693 17.2848 23.14C16.3168 24.196 15.5688 25.494 15.0408 27.034C14.5128 28.574 14.2488 30.312 14.2488 32.248C14.2488 34.184 14.5128 35.922 15.0408 37.462C15.5688 38.9873 16.3168 40.2853 17.2848 41.356C18.2674 42.412 19.4481 43.226 20.8268 43.798C22.2054 44.3553 23.7381 44.634 25.4248 44.634C27.1261 44.634 28.6661 44.3553 30.0448 43.798C31.4234 43.226 32.5968 42.412 33.5648 41.356C34.5328 40.2853 35.2808 38.9873 35.8088 37.462C36.3368 35.922 36.6008 34.184 36.6008 32.248ZM62.8234 25.714V48H60.4914C59.9341 48 59.5821 47.7287 59.4354 47.186L59.1274 44.788C58.1594 45.8587 57.0741 46.724 55.8714 47.384C54.6687 48.0293 53.2901 48.352 51.7354 48.352C50.5181 48.352 49.4401 48.154 48.5014 47.758C47.5774 47.3473 46.8001 46.7753 46.1694 46.042C45.5387 45.3087 45.0621 44.4213 44.7394 43.38C44.4314 42.3387 44.2774 41.1873 44.2774 39.926V25.714H48.1934V39.926C48.1934 41.6127 48.5747 42.918 49.3374 43.842C50.1147 44.766 51.2954 45.228 52.8794 45.228C54.0381 45.228 55.1161 44.9567 56.1134 44.414C57.1254 43.8567 58.0567 43.094 58.9074 42.126V25.714H62.8234ZM71.4305 30.18C72.1346 28.6547 72.9999 27.4667 74.0266 26.616C75.0532 25.7507 76.3072 25.318 77.7886 25.318C78.2579 25.318 78.7052 25.3693 79.1306 25.472C79.5706 25.5747 79.9592 25.736 80.2966 25.956L80.0106 28.882C79.9226 29.2487 79.7026 29.432 79.3506 29.432C79.1452 29.432 78.8446 29.388 78.4486 29.3C78.0526 29.212 77.6052 29.168 77.1066 29.168C76.4026 29.168 75.7719 29.2707 75.2146 29.476C74.6719 29.6813 74.1806 29.9893 73.7406 30.4C73.3152 30.796 72.9266 31.2947 72.5746 31.896C72.2372 32.4827 71.9292 33.1573 71.6506 33.92V48H67.7125V25.714H69.9566C70.3819 25.714 70.6752 25.7947 70.8366 25.956C70.9979 26.1173 71.1079 26.396 71.1666 26.792L71.4305 30.18ZM132.589 16.474L122.755 48H118.927L110.941 23.954C110.867 23.7193 110.794 23.47 110.721 23.206C110.662 22.942 110.596 22.6633 110.523 22.37C110.449 22.6633 110.376 22.942 110.303 23.206C110.23 23.47 110.156 23.7193 110.083 23.954L102.053 48H98.2248L88.3908 16.474H91.9328C92.3142 16.474 92.6295 16.5693 92.8788 16.76C93.1428 16.9507 93.3115 17.1927 93.3848 17.486L99.8968 39.398C99.9995 39.794 100.095 40.2193 100.183 40.674C100.285 41.1287 100.381 41.6127 100.469 42.126C100.571 41.6127 100.674 41.1287 100.777 40.674C100.894 40.2047 101.019 39.7793 101.151 39.398L108.565 17.486C108.653 17.2367 108.821 17.0093 109.071 16.804C109.335 16.584 109.65 16.474 110.017 16.474H111.249C111.63 16.474 111.938 16.5693 112.173 16.76C112.407 16.9507 112.583 17.1927 112.701 17.486L120.093 39.398C120.225 39.7793 120.342 40.19 120.445 40.63C120.562 41.07 120.672 41.532 120.775 42.016C120.848 41.532 120.929 41.07 121.017 40.63C121.105 40.19 121.2 39.7793 121.303 39.398L127.837 17.486C127.91 17.222 128.072 16.9873 128.321 16.782C128.585 16.5767 128.9 16.474 129.267 16.474H132.589ZM141.94 25.362C143.568 25.362 145.034 25.6333 146.34 26.176C147.645 26.7187 148.76 27.4887 149.684 28.486C150.608 29.4833 151.312 30.6933 151.796 32.116C152.294 33.524 152.544 35.1007 152.544 36.846C152.544 38.606 152.294 40.19 151.796 41.598C151.312 43.006 150.608 44.2087 149.684 45.206C148.76 46.2033 147.645 46.9733 146.34 47.516C145.034 48.044 143.568 48.308 141.94 48.308C140.297 48.308 138.816 48.044 137.496 47.516C136.19 46.9733 135.076 46.2033 134.152 45.206C133.228 44.2087 132.516 43.006 132.018 41.598C131.534 40.19 131.292 38.606 131.292 36.846C131.292 35.1007 131.534 33.524 132.018 32.116C132.516 30.6933 133.228 29.4833 134.152 28.486C135.076 27.4887 136.19 26.7187 137.496 26.176C138.816 25.6333 140.297 25.362 141.94 25.362ZM141.94 45.25C144.14 45.25 145.782 44.5167 146.868 43.05C147.953 41.5687 148.496 39.508 148.496 36.868C148.496 34.2133 147.953 32.1453 146.868 30.664C145.782 29.1827 144.14 28.442 141.94 28.442C140.825 28.442 139.85 28.6327 139.014 29.014C138.192 29.3953 137.503 29.9453 136.946 30.664C136.403 31.3827 135.992 32.27 135.714 33.326C135.45 34.3673 135.318 35.548 135.318 36.868C135.318 39.508 135.86 41.5687 136.946 43.05C138.046 44.5167 139.71 45.25 141.94 45.25ZM159.908 30.18C160.612 28.6547 161.478 27.4667 162.504 26.616C163.531 25.7507 164.785 25.318 166.266 25.318C166.736 25.318 167.183 25.3693 167.608 25.472C168.048 25.5747 168.437 25.736 168.774 25.956L168.488 28.882C168.4 29.2487 168.18 29.432 167.828 29.432C167.623 29.432 167.322 29.388 166.926 29.3C166.53 29.212 166.083 29.168 165.584 29.168C164.88 29.168 164.25 29.2707 163.692 29.476C163.15 29.6813 162.658 29.9893 162.218 30.4C161.793 30.796 161.404 31.2947 161.052 31.896C160.715 32.4827 160.407 33.1573 160.128 33.92V48H156.19V25.714H158.434C158.86 25.714 159.153 25.7947 159.314 25.956C159.476 26.1173 159.586 26.396 159.644 26.792L159.908 30.18ZM174.946 15.594V48H171.03V15.594H174.946ZM194.496 31.016C193.763 30.0333 192.971 29.3513 192.12 28.97C191.269 28.574 190.316 28.376 189.26 28.376C187.192 28.376 185.601 29.1167 184.486 30.598C183.371 32.0793 182.814 34.1913 182.814 36.934C182.814 38.386 182.939 39.6327 183.188 40.674C183.437 41.7007 183.804 42.5513 184.288 43.226C184.772 43.886 185.366 44.37 186.07 44.678C186.774 44.986 187.573 45.14 188.468 45.14C189.759 45.14 190.881 44.8467 191.834 44.26C192.802 43.6733 193.689 42.8447 194.496 41.774V31.016ZM198.412 15.594V48H196.08C195.523 48 195.171 47.7287 195.024 47.186L194.672 44.48C193.719 45.624 192.633 46.548 191.416 47.252C190.199 47.956 188.791 48.308 187.192 48.308C185.916 48.308 184.757 48.066 183.716 47.582C182.675 47.0833 181.787 46.3573 181.054 45.404C180.321 44.4507 179.756 43.2627 179.36 41.84C178.964 40.4173 178.766 38.782 178.766 36.934C178.766 35.2913 178.986 33.766 179.426 32.358C179.866 30.9353 180.497 29.7033 181.318 28.662C182.139 27.6207 183.144 26.8067 184.332 26.22C185.535 25.6187 186.884 25.318 188.38 25.318C189.744 25.318 190.91 25.5527 191.878 26.022C192.861 26.4767 193.733 27.1147 194.496 27.936V15.594H198.412ZM46.6139 70.714V93H42.6979V70.714H46.6139ZM47.4499 63.718C47.4499 64.0993 47.3692 64.4587 47.2079 64.796C47.0612 65.1187 46.8559 65.412 46.5919 65.676C46.3425 65.9253 46.0419 66.1233 45.6899 66.27C45.3525 66.4167 44.9932 66.49 44.6119 66.49C44.2305 66.49 43.8712 66.4167 43.5339 66.27C43.2112 66.1233 42.9252 65.9253 42.6759 65.676C42.4265 65.412 42.2285 65.1187 42.0819 64.796C41.9352 64.4587 41.8619 64.0993 41.8619 63.718C41.8619 63.3367 41.9352 62.9773 42.0819 62.64C42.2285 62.288 42.4265 61.9873 42.6759 61.738C42.9252 61.474 43.2112 61.2687 43.5339 61.122C43.8712 60.9753 44.2305 60.902 44.6119 60.902C44.9932 60.902 45.3525 60.9753 45.6899 61.122C46.0419 61.2687 46.3425 61.474 46.5919 61.738C46.8559 61.9873 47.0612 62.288 47.2079 62.64C47.3692 62.9773 47.4499 63.3367 47.4499 63.718ZM55.4242 73.948C55.9082 73.4053 56.4215 72.914 56.9642 72.474C57.5068 72.034 58.0788 71.66 58.6802 71.352C59.2962 71.0293 59.9415 70.7873 60.6162 70.626C61.3055 70.45 62.0462 70.362 62.8382 70.362C64.0555 70.362 65.1262 70.5673 66.0502 70.978C66.9888 71.374 67.7662 71.946 68.3822 72.694C69.0128 73.4273 69.4895 74.3147 69.8122 75.356C70.1348 76.3973 70.2962 77.5487 70.2962 78.81V93H66.3582V78.81C66.3582 77.1233 65.9695 75.818 65.1922 74.894C64.4295 73.9553 63.2635 73.486 61.6942 73.486C60.5355 73.486 59.4502 73.7647 58.4382 74.322C57.4408 74.8793 56.5168 75.6347 55.6662 76.588V93H51.7282V70.714H54.0822C54.6395 70.714 54.9842 70.9853 55.1162 71.528L55.4242 73.948ZM113.129 77.248C113.129 79.6093 112.755 81.758 112.007 83.694C111.259 85.63 110.203 87.2873 108.839 88.666C107.475 90.0447 105.832 91.1153 103.911 91.878C102.004 92.626 99.8925 93 97.5751 93H85.8051V61.474H97.5751C99.8925 61.474 102.004 61.8553 103.911 62.618C105.832 63.366 107.475 64.4367 108.839 65.83C110.203 67.2087 111.259 68.866 112.007 70.802C112.755 72.738 113.129 74.8867 113.129 77.248ZM108.751 77.248C108.751 75.312 108.487 73.5813 107.959 72.056C107.431 70.5307 106.683 69.24 105.715 68.184C104.747 67.128 103.574 66.3213 102.195 65.764C100.816 65.2067 99.2765 64.928 97.5751 64.928H90.0731V89.546H97.5751C99.2765 89.546 100.816 89.2673 102.195 88.71C103.574 88.1527 104.747 87.3533 105.715 86.312C106.683 85.256 107.431 83.9653 107.959 82.44C108.487 80.9147 108.751 79.184 108.751 77.248ZM128.553 82.968C126.749 83.0267 125.209 83.1733 123.933 83.408C122.672 83.628 121.638 83.9213 120.831 84.288C120.039 84.6547 119.46 85.0873 119.093 85.586C118.741 86.0847 118.565 86.642 118.565 87.258C118.565 87.8447 118.661 88.3507 118.851 88.776C119.042 89.2013 119.299 89.5533 119.621 89.832C119.959 90.096 120.347 90.294 120.787 90.426C121.242 90.5433 121.726 90.602 122.239 90.602C122.929 90.602 123.559 90.536 124.131 90.404C124.703 90.2573 125.239 90.052 125.737 89.788C126.251 89.524 126.735 89.2087 127.189 88.842C127.659 88.4753 128.113 88.0573 128.553 87.588V82.968ZM115.903 73.86C117.135 72.672 118.463 71.7847 119.885 71.198C121.308 70.6113 122.885 70.318 124.615 70.318C125.862 70.318 126.969 70.5233 127.937 70.934C128.905 71.3447 129.719 71.9167 130.379 72.65C131.039 73.3833 131.538 74.2707 131.875 75.312C132.213 76.3533 132.381 77.4973 132.381 78.744V93H130.643C130.262 93 129.969 92.9413 129.763 92.824C129.558 92.692 129.397 92.4427 129.279 92.076L128.839 89.964C128.253 90.5067 127.681 90.9907 127.123 91.416C126.566 91.8267 125.979 92.1787 125.363 92.472C124.747 92.7507 124.087 92.9633 123.383 93.11C122.694 93.2713 121.924 93.352 121.073 93.352C120.208 93.352 119.394 93.2347 118.631 93C117.869 92.7507 117.201 92.384 116.629 91.9C116.072 91.416 115.625 90.8073 115.287 90.074C114.965 89.326 114.803 88.446 114.803 87.434C114.803 86.554 115.045 85.7107 115.529 84.904C116.013 84.0827 116.798 83.3567 117.883 82.726C118.969 82.0953 120.384 81.582 122.129 81.186C123.875 80.7753 126.016 80.5407 128.553 80.482V78.744C128.553 77.0133 128.179 75.708 127.431 74.828C126.683 73.9333 125.591 73.486 124.153 73.486C123.185 73.486 122.371 73.6107 121.711 73.86C121.066 74.0947 120.501 74.366 120.017 74.674C119.548 74.9673 119.137 75.2387 118.785 75.488C118.448 75.7227 118.111 75.84 117.773 75.84C117.509 75.84 117.282 75.774 117.091 75.642C116.901 75.4953 116.739 75.3193 116.607 75.114L115.903 73.86ZM143.568 93.352C141.808 93.352 140.451 92.8607 139.498 91.878C138.559 90.8953 138.09 89.48 138.09 87.632V73.992H135.406C135.171 73.992 134.973 73.926 134.812 73.794C134.65 73.6473 134.57 73.4273 134.57 73.134V71.572L138.222 71.11L139.124 64.224C139.168 64.004 139.263 63.828 139.41 63.696C139.571 63.5493 139.776 63.476 140.026 63.476H142.006V71.154H148.452V73.992H142.006V87.368C142.006 88.3067 142.233 89.0033 142.688 89.458C143.142 89.9127 143.729 90.14 144.448 90.14C144.858 90.14 145.21 90.0887 145.504 89.986C145.812 89.8687 146.076 89.744 146.296 89.612C146.516 89.48 146.699 89.3627 146.846 89.26C147.007 89.1427 147.146 89.084 147.264 89.084C147.469 89.084 147.652 89.2087 147.814 89.458L148.958 91.328C148.283 91.9587 147.469 92.4573 146.516 92.824C145.562 93.176 144.58 93.352 143.568 93.352ZM163.253 82.968C161.449 83.0267 159.909 83.1733 158.633 83.408C157.372 83.628 156.338 83.9213 155.531 84.288C154.739 84.6547 154.16 85.0873 153.793 85.586C153.441 86.0847 153.265 86.642 153.265 87.258C153.265 87.8447 153.36 88.3507 153.551 88.776C153.742 89.2013 153.998 89.5533 154.321 89.832C154.658 90.096 155.047 90.294 155.487 90.426C155.942 90.5433 156.426 90.602 156.939 90.602C157.628 90.602 158.259 90.536 158.831 90.404C159.403 90.2573 159.938 90.052 160.437 89.788C160.95 89.524 161.434 89.2087 161.889 88.842C162.358 88.4753 162.813 88.0573 163.253 87.588V82.968ZM150.603 73.86C151.835 72.672 153.162 71.7847 154.585 71.198C156.008 70.6113 157.584 70.318 159.315 70.318C160.562 70.318 161.669 70.5233 162.637 70.934C163.605 71.3447 164.419 71.9167 165.079 72.65C165.739 73.3833 166.238 74.2707 166.575 75.312C166.912 76.3533 167.081 77.4973 167.081 78.744V93H165.343C164.962 93 164.668 92.9413 164.463 92.824C164.258 92.692 164.096 92.4427 163.979 92.076L163.539 89.964C162.952 90.5067 162.38 90.9907 161.823 91.416C161.266 91.8267 160.679 92.1787 160.063 92.472C159.447 92.7507 158.787 92.9633 158.083 93.11C157.394 93.2713 156.624 93.352 155.773 93.352C154.908 93.352 154.094 93.2347 153.331 93C152.568 92.7507 151.901 92.384 151.329 91.9C150.772 91.416 150.324 90.8073 149.987 90.074C149.664 89.326 149.503 88.446 149.503 87.434C149.503 86.554 149.745 85.7107 150.229 84.904C150.713 84.0827 151.498 83.3567 152.583 82.726C153.668 82.0953 155.084 81.582 156.829 81.186C158.574 80.7753 160.716 80.5407 163.253 80.482V78.744C163.253 77.0133 162.879 75.708 162.131 74.828C161.383 73.9333 160.29 73.486 158.853 73.486C157.885 73.486 157.071 73.6107 156.411 73.86C155.766 74.0947 155.201 74.366 154.717 74.674C154.248 74.9673 153.837 75.2387 153.485 75.488C153.148 75.7227 152.81 75.84 152.473 75.84C152.209 75.84 151.982 75.774 151.791 75.642C151.6 75.4953 151.439 75.3193 151.307 75.114L150.603 73.86Z" fill="white"/>
        <rect y="106.789" width="210" height="13.211" fill="#D42B21"/>
    </g>
    <defs>
        <clipPath id="clip0">
            <rect width="210" height="120" fill="white"/>
        </clipPath>
    </defs>
</svg></g><a href="https://staging-owid.netlify.com/grapher/population" target="_blank"><text font-size="25.20" x="15.0" y="35.2" fill="#555"><tspan x="15" y="35.160000000000004">Population</tspan></text></a></g><g class="LineChart"><defs><clipPath id="boundsClip-4"><rect x="87.598" y="0" width="830" height="973"></rect></clipPath></defs><g class="AxisBoxView"><g class="HorizontalAxis"><text x="97.6" y="556.5" fill="#666" text-anchor="middle" font-size="16.2">1800</text><text x="239.4" y="556.5" fill="#666" text-anchor="middle" font-size="16.2">1850</text><text x="381.2" y="556.5" fill="#666" text-anchor="middle" font-size="16.2">1900</text><text x="522.9" y="556.5" fill="#666" text-anchor="middle" font-size="16.2">1950</text><text x="664.7" y="556.5" fill="#666" text-anchor="middle" font-size="16.2">2000</text><text x="718.6" y="556.5" fill="#666" text-anchor="middle" font-size="16.2">2019</text></g><g class="VerticalAxis"><text x="92.60" y="535.3" fill="#666" dominant-baseline="middle" text-anchor="end" font-size="16.2">0</text><text x="92.60" y="470.4" fill="#666" dominant-baseline="middle" text-anchor="end" font-size="16.2">200 million</text><text x="92.60" y="405.5" fill="#666" dominant-baseline="middle" text-anchor="end" font-size="16.2">400 million</text><text x="92.60" y="340.6" fill="#666" dominant-baseline="middle" text-anchor="end" font-size="16.2">600 million</text><text x="92.60" y="275.7" fill="#666" dominant-baseline="middle" text-anchor="end" font-size="16.2">800 million</text><text x="92.60" y="210.8" fill="#666" dominant-baseline="middle" text-anchor="end" font-size="16.2">1 billion</text><text x="92.60" y="145.9" fill="#666" dominant-baseline="middle" text-anchor="end" font-size="16.2">1.2 billion</text><text x="92.60" y="81" fill="#666" dominant-baseline="middle" text-anchor="end" font-size="16.2">1.4 billion</text></g><g class="AxisGridLines"><line x1="97.60" y1="535.3" x2="718.60" y2="535.3" stroke="#ccc"></line><line x1="97.60" y1="470.4" x2="718.60" y2="470.4" stroke="#ddd" stroke-dasharray="3,2"></line><line x1="97.60" y1="405.5" x2="718.60" y2="405.5" stroke="#ddd" stroke-dasharray="3,2"></line><line x1="97.60" y1="340.6" x2="718.60" y2="340.6" stroke="#ddd" stroke-dasharray="3,2"></line><line x1="97.60" y1="275.7" x2="718.60" y2="275.7" stroke="#ddd" stroke-dasharray="3,2"></line><line x1="97.60" y1="210.8" x2="718.60" y2="210.8" stroke="#ddd" stroke-dasharray="3,2"></line><line x1="97.60" y1="145.9" x2="718.60" y2="145.9" stroke="#ddd" stroke-dasharray="3,2"></line><line x1="97.60" y1="81" x2="718.60" y2="81" stroke="#ddd" stroke-dasharray="3,2"></line></g></g><g clip-path="url(#boundsClip-4)"><g class="ComparisonLine"><defs><clipPath id="axisBounds-5"><rect x="97.598" y="70" width="620.9970000000001" height="465.3"></rect></clipPath></defs><path d="M97.6,535.3L103.8,535.3L110,535.3L116.2,535.3L122.4,535.3L128.6,535.3L134.9,535.3L141.1,535.3L147.3,535.3L153.5,535.3L159.7,535.3L165.9,535.3L172.1,535.3L178.3,535.3L184.5,535.3L190.7,535.3L197,535.3L203.2,535.3L209.4,535.3L215.6,535.3L221.8,535.3L228,535.3L234.2,535.3L240.4,535.3L246.6,535.3L252.8,535.3L259.1,535.3L265.3,535.3L271.5,535.3L277.7,535.3L283.9,535.3L290.1,535.3L296.3,535.3L302.5,535.3L308.7,535.3L314.9,535.3L321.2,535.3L327.4,535.3L333.6,535.3L339.8,535.3L346,535.3L352.2,535.3L358.4,535.3L364.6,535.3L370.8,535.3L377,535.3L383.3,535.3L389.5,535.3L395.7,535.3L401.9,535.3L408.1,535.3L414.3,535.3L420.5,535.3L426.7,535.3L432.9,535.3L439.1,535.3L445.4,535.3L451.6,535.3L457.8,535.3L464,535.3L470.2,535.3L476.4,535.3L482.6,535.3L488.8,535.3L495,535.3L501.2,535.3L507.5,535.3L513.7,535.3L519.9,535.3L526.1,535.3L532.3,535.3L538.5,535.3L544.7,535.3L550.9,535.3L557.1,535.3L563.3,535.3L569.6,535.3L575.8,535.3L582,535.3L588.2,535.3L594.4,535.3L600.6,535.3L606.8,535.3L613,535.3L619.2,535.3L625.4,535.3L631.7,535.3L637.9,535.3L644.1,535.3L650.3,535.3L656.5,535.3L662.7,535.3L668.9,535.3L675.1,535.3L681.3,535.3L687.5,535.3L693.8,535.3L700,535.3L706.2,535.3L712.4,535.3" clip-path="url(#axisBounds-5)" fill="none" stroke="#ccc"></path></g><g class="HeightedLegend" style="cursor:pointer"><g class="legendMark"><g class="indicator"><path d="M722.595,70 H736.095 V76.75 H749.595" stroke="#999" stroke-width="0.5" fill="none"></path></g><rect x="718.595" y="70" width="70.37" height="13.5" fill="#fff" opacity="0"></rect><text font-size="13.50" x="753.6" y="80.8" fill="#2a939b"><tspan x="753.595" y="80.8">China</tspan></text></g><g class="legendMark"><g class="indicator"><path d="M722.595,91.9 H736.095 V91.9 H749.595" stroke="#999" stroke-width="0.5" fill="none"></path></g><rect x="718.595" y="85.15" width="64.43" height="13.5" fill="#fff" opacity="0"></rect><text font-size="13.50" x="753.6" y="96.0" fill="#a652ba"><tspan x="753.595" y="95.95">India</tspan></text></g><g class="legendMark"><g class="indicator"><path d="M722.595,428.5 H736.095 V428.5 H749.595" stroke="#999" stroke-width="0.5" fill="none"></path></g><rect x="718.595" y="421.75" width="116.405" height="13.5" fill="#fff" opacity="0"></rect><text font-size="13.50" x="753.6" y="432.6" fill="#f6a324"><tspan x="753.595" y="432.55">United States</tspan></text></g><g class="legendMark"><g class="indicator"><path d="M722.595,447.5 H731.595 V445.9666666666667 H749.595" stroke="#999" stroke-width="0.5" fill="none"></path></g><rect x="718.595" y="439.2166666666667" width="93.86000000000001" height="13.5" fill="#fff" opacity="0"></rect><text font-size="13.50" x="753.6" y="450.0" fill="#34983f"><tspan x="753.595" y="450.0166666666667">Indonesia</tspan></text></g><g class="legendMark"><g class="indicator"><path d="M722.595,466.8 H740.595 V461.4666666666667 H749.595" stroke="#999" stroke-width="0.5" fill="none"></path></g><rect x="718.595" y="454.7166666666667" width="68.75" height="13.5" fill="#fff" opacity="0"></rect><text font-size="13.50" x="753.6" y="465.5" fill="#ca2628"><tspan x="753.595" y="465.5166666666667">Brazil</tspan></text></g><g class="legendMark"><g class="indicator"><path d="M722.595,470.1 H740.595 V476.9666666666667 H749.595" stroke="#999" stroke-width="0.5" fill="none"></path></g><rect x="718.595" y="470.2166666666667" width="77.795" height="13.5" fill="#fff" opacity="0"></rect><text font-size="13.50" x="753.6" y="481.0" fill="#3360a9"><tspan x="753.595" y="481.0166666666667">Nigeria</tspan></text></g></g><g class="Lines"><rect x="98" y="70" width="621" height="465" fill="rgba(255,255,255,0)" opacity="0"></rect><g class="key-India_0"><path stroke="#a652ba" stroke-linecap="round" d="M98 481L100 481L103 480L106 480L109 480L112 480L115 480L117 480L120 480L123 480L126 480L129 479L132 479L135 479L137 479L140 479L143 479L146 479L149 478L152 478L154 478L157 478L160 478L163 478L166 477L169 477L171 477L174 477L177 477L180 476L183 476L186 476L188 476L191 476L194 475L197 475L200 475L203 475L205 474L208 474L211 474L214 474L217 473L220 473L222 473L225 473L228 472L231 472L234 472L237 472L239 472L242 471L245 471L248 471L251 470L254 470L256 470L259 470L262 469L265 469L268 469L271 469L273 468L276 468L279 468L282 467L285 467L288 467L290 467L293 466L296 466L299 466L302 465L305 465L307 465L310 465L313 464L316 464L319 464L322 463L324 463L327 463L330 462L333 462L336 462L339 461L342 461L344 461L347 460L350 460L353 460L356 459L359 459L361 459L364 458L367 458L370 458L373 457L376 457L378 457L381 456L384 456L387 456L390 455L393 455L395 455L398 454L401 454L404 454L407 453L410 453L412 453L415 452L418 452L421 451L424 451L427 450L429 450L432 449L435 449L438 448L441 448L444 447L446 447L449 446L452 446L455 445L458 445L461 444L463 444L466 443L469 442L472 440L475 439L478 438L480 437L483 435L486 434L489 433L492 431L495 430L497 429L500 427L503 426L506 425L509 424L512 422L514 421L517 419L520 416L523 413L526 411L529 409L531 407L534 405L537 402L540 400L543 397L546 395L549 392L551 389L554 386L557 383L560 380L563 377L566 373L568 370L571 366L574 363L577 359L580 355L583 351L585 347L588 342L591 338L594 333L597 328L600 324L602 319L605 314L608 309L611 303L614 298L617 292L619 286L622 281L625 275L628 269L631 264L634 258L636 252L639 246L642 240L645 234L648 228L651 223L653 217L656 211L659 205L662 198L665 192L668 186L670 181L673 175L676 169L679 163L682 157L685 151L687 146L690 140L693 135L696 130L699 125L702 120L704 115L707 110L710 106L713 101L716 96L719 92" fill="none" stroke-width="1.5"></path></g><g class="key-China_0"><path stroke="#2a939b" stroke-linecap="round" d="M98 431L100 430L103 429L106 428L109 427L112 426L115 426L117 425L120 424L123 423L126 422L129 421L132 420L135 419L137 418L140 417L143 416L146 415L149 414L152 413L154 412L157 411L160 410L163 409L166 409L169 408L171 407L174 406L177 406L180 405L183 405L186 404L188 404L191 403L194 403L197 403L200 403L203 402L205 402L208 402L211 402L214 402L217 402L220 402L222 402L225 403L228 403L231 403L234 404L237 404L239 405L242 405L245 406L248 406L251 407L254 408L256 409L259 409L262 410L265 411L268 412L271 412L273 413L276 414L279 415L282 415L285 416L288 416L290 416L293 416L296 417L299 417L302 417L305 417L307 417L310 417L313 417L316 417L319 416L322 416L324 416L327 415L330 415L333 415L336 414L339 414L342 413L344 413L347 413L350 412L353 412L356 411L359 410L361 410L364 409L367 409L370 408L373 407L376 407L378 406L381 405L384 405L387 404L390 403L393 402L395 402L398 401L401 400L404 399L407 399L410 397L412 396L415 395L418 393L421 392L424 390L427 389L429 387L432 385L435 384L438 382L441 381L444 381L446 380L449 380L452 379L455 379L458 378L461 378L463 377L466 376L469 375L472 374L475 373L478 372L480 371L483 370L486 369L489 369L492 368L495 367L497 366L500 365L503 364L506 363L509 362L512 361L514 360L517 360L520 358L523 355L526 350L529 346L531 343L534 340L537 337L540 334L543 331L546 328L549 324L551 321L554 318L557 314L560 310L563 306L566 300L568 294L571 288L574 281L577 274L580 267L583 260L585 253L588 247L591 241L594 235L597 229L600 224L602 220L605 215L608 211L611 206L614 202L617 197L619 192L622 186L625 180L628 173L631 166L634 159L636 153L639 148L642 144L645 140L648 136L651 133L653 129L656 126L659 123L662 119L665 117L668 114L670 111L673 108L676 106L679 103L682 101L685 99L687 96L690 94L693 91L696 89L699 86L702 84L704 81L707 79L710 76L713 74L716 72L719 70" fill="none" stroke-width="1.5"></path></g><g class="key-Nigeria_0"><path stroke="#3360a9" stroke-linecap="round" d="M98 531L100 531L103 531L106 531L109 531L112 531L115 531L117 531L120 531L123 531L126 531L129 531L132 531L135 531L137 531L140 531L143 531L146 531L149 531L152 531L154 531L157 531L160 531L163 531L166 531L169 531L171 531L174 531L177 531L180 531L183 531L186 531L188 531L191 531L194 531L197 531L200 531L203 531L205 531L208 531L211 531L214 531L217 531L220 531L222 531L225 531L228 531L231 531L234 531L237 531L239 531L242 531L245 531L248 531L251 531L254 531L256 531L259 531L262 531L265 531L268 531L271 531L273 531L276 531L279 531L282 531L285 531L288 531L290 531L293 530L296 530L299 530L302 530L305 530L307 530L310 530L313 530L316 530L319 530L322 530L324 530L327 530L330 530L333 530L336 530L339 530L342 530L344 530L347 530L350 530L353 530L356 530L359 530L361 530L364 530L367 530L370 530L373 530L376 530L378 530L381 530L384 530L387 530L390 530L393 530L395 530L398 530L401 530L404 530L407 530L410 530L412 530L415 529L418 529L421 529L424 529L427 529L429 529L432 529L435 529L438 529L441 529L444 529L446 529L449 529L452 529L455 529L458 529L461 529L463 529L466 529L469 529L472 529L475 529L478 528L480 528L483 528L486 528L489 527L492 527L495 527L497 526L500 526L503 526L506 525L509 525L512 525L514 524L517 524L520 523L523 523L526 523L529 523L531 522L534 522L537 522L540 522L543 522L546 521L549 521L551 521L554 520L557 520L560 520L563 519L566 519L568 519L571 518L574 518L577 518L580 517L583 517L585 516L588 516L591 515L594 515L597 514L600 514L602 513L605 512L608 512L611 511L614 510L617 510L619 509L622 508L625 508L628 507L631 506L634 505L636 504L639 504L642 503L645 502L648 501L651 500L653 499L656 499L659 498L662 497L665 496L668 495L670 494L673 493L676 491L679 490L682 489L685 488L687 487L690 485L693 484L696 483L699 481L702 480L704 478L707 477L710 475L713 473L716 472L719 470" fill="none" stroke-width="1.5"></path></g><g class="key-Brazil_0"><path stroke="#ca2628" stroke-linecap="round" d="M98 534L100 534L103 534L106 534L109 534L112 534L115 534L117 534L120 534L123 534L126 534L129 534L132 534L135 534L137 534L140 534L143 534L146 534L149 534L152 534L154 534L157 534L160 534L163 534L166 534L169 534L171 534L174 534L177 534L180 534L183 534L186 534L188 534L191 534L194 534L197 533L200 533L203 533L205 533L208 533L211 533L214 533L217 533L220 533L222 533L225 533L228 533L231 533L234 533L237 533L239 533L242 533L245 533L248 533L251 533L254 533L256 533L259 533L262 533L265 533L268 533L271 533L273 533L276 532L279 532L282 532L285 532L288 532L290 532L293 532L296 532L299 532L302 532L305 532L307 532L310 532L313 532L316 532L319 532L322 532L324 531L327 531L330 531L333 531L336 531L339 531L342 531L344 531L347 531L350 531L353 531L356 531L359 530L361 530L364 530L367 530L370 530L373 530L376 530L378 530L381 529L384 529L387 529L390 529L393 529L395 529L398 529L401 529L404 528L407 528L410 528L412 528L415 528L418 528L421 527L424 527L427 527L429 527L432 527L435 527L438 526L441 526L444 526L446 526L449 526L452 525L455 525L458 525L461 525L463 525L466 524L469 524L472 524L475 524L478 523L480 523L483 523L486 523L489 522L492 522L495 522L497 522L500 521L503 521L506 521L509 520L512 520L514 519L517 519L520 518L523 518L526 517L529 517L531 516L534 516L537 515L540 514L543 514L546 513L549 513L551 512L554 511L557 511L560 510L563 509L566 508L568 508L571 507L574 506L577 505L580 504L583 504L585 503L588 502L591 501L594 501L597 500L600 499L602 498L605 497L608 496L611 495L614 494L617 493L619 492L622 491L625 491L628 490L631 489L634 488L636 487L639 486L642 485L645 484L648 484L651 483L653 482L656 481L659 480L662 479L665 479L668 478L670 477L673 476L676 476L679 475L682 474L685 474L687 473L690 472L693 472L696 471L699 471L702 470L704 470L707 469L710 468L713 468L716 467L719 467" fill="none" stroke-width="1.5"></path></g><g class="key-Indonesia_0"><path stroke="#34983f" stroke-linecap="round" d="M98 530L100 530L103 530L106 530L109 530L112 530L115 530L117 530L120 530L123 530L126 530L129 530L132 530L135 530L137 530L140 530L143 530L146 530L149 530L152 530L154 530L157 530L160 530L163 530L166 530L169 530L171 530L174 529L177 529L180 529L183 529L186 529L188 529L191 529L194 529L197 529L200 529L203 529L205 529L208 529L211 529L214 529L217 529L220 529L222 529L225 529L228 528L231 528L234 528L237 528L239 528L242 528L245 528L248 528L251 528L254 528L256 528L259 528L262 528L265 528L268 527L271 527L273 527L276 527L279 527L282 527L285 527L288 527L290 527L293 527L296 527L299 526L302 526L305 526L307 526L310 526L313 526L316 526L319 526L322 526L324 526L327 525L330 525L333 525L336 525L339 525L342 525L344 525L347 525L350 525L353 524L356 524L359 524L361 524L364 524L367 524L370 524L373 523L376 523L378 523L381 523L384 523L387 523L390 522L393 522L395 522L398 522L401 522L404 522L407 522L410 521L412 521L415 521L418 521L421 521L424 521L427 521L429 520L432 520L435 520L438 520L441 520L444 520L446 519L449 519L452 519L455 519L458 519L461 518L463 518L466 518L469 518L472 518L475 517L478 517L480 517L483 516L486 516L489 516L492 516L495 515L497 515L500 515L503 514L506 514L509 514L512 514L514 514L517 514L520 513L523 513L526 512L529 512L531 511L534 511L537 510L540 510L543 509L546 508L549 508L551 507L554 506L557 505L560 505L563 504L566 503L568 502L571 501L574 500L577 499L580 498L583 497L585 496L588 495L591 494L594 493L597 492L600 491L602 490L605 489L608 487L611 486L614 485L617 484L619 483L622 482L625 481L628 480L631 479L634 478L636 476L639 475L642 474L645 473L648 472L651 471L653 470L656 470L659 469L662 468L665 467L668 466L670 465L673 464L676 463L679 462L682 461L685 460L687 459L690 458L693 457L696 456L699 455L702 454L704 453L707 451L710 450L713 449L716 448L719 448" fill="none" stroke-width="1.5"></path></g><g class="key-United-States_0"><path stroke="#f6a324" stroke-linecap="round" d="M98 533L100 533L103 533L106 533L109 533L112 533L115 533L117 533L120 533L123 533L126 533L129 533L132 533L135 532L137 532L140 532L143 532L146 532L149 532L152 532L154 532L157 532L160 532L163 532L166 532L169 532L171 531L174 531L177 531L180 531L183 531L186 531L188 531L191 531L194 530L197 530L200 530L203 530L205 530L208 530L211 530L214 529L217 529L220 529L222 529L225 529L228 528L231 528L234 528L237 528L239 528L242 527L245 527L248 527L251 527L254 526L256 526L259 526L262 526L265 525L268 525L271 525L273 524L276 524L279 524L282 524L285 523L288 523L290 523L293 522L296 522L299 522L302 521L305 521L307 521L310 520L313 520L316 520L319 519L322 519L324 519L327 518L330 518L333 518L336 517L339 517L342 516L344 516L347 515L350 515L353 515L356 514L359 514L361 513L364 513L367 512L370 512L373 512L376 511L378 511L381 510L384 510L387 509L390 509L393 508L395 508L398 507L401 507L404 506L407 505L410 505L412 504L415 504L418 503L421 503L424 502L427 502L429 501L432 501L435 500L438 500L441 499L444 499L446 498L449 498L452 497L455 496L458 496L461 495L463 495L466 495L469 494L472 494L475 494L478 493L480 493L483 493L486 493L489 492L492 492L495 491L497 491L500 491L503 490L506 489L509 489L512 488L514 488L517 487L520 485L523 484L526 483L529 482L531 482L534 481L537 480L540 479L543 478L546 477L549 476L551 475L554 474L557 473L560 472L563 471L566 471L568 470L571 469L574 469L577 468L580 467L583 467L585 466L588 466L591 465L594 464L597 464L600 463L602 462L605 462L608 461L611 460L614 459L617 459L619 458L622 457L625 457L628 456L631 455L634 454L636 454L639 453L642 452L645 451L648 450L651 449L653 448L656 447L659 446L662 445L665 444L668 443L670 442L673 441L676 440L679 440L682 439L685 438L687 437L690 436L693 435L696 434L699 433L702 433L704 432L707 431L710 431L713 430L716 429L719 429" fill="none" stroke-width="1.5"></path></g></g></g></g><g class="SourcesFooter" style="fill:#777"><g class="clickable" style="fill:#777"><text font-size="12.60" x="15.0" y="581.6"><tspan x="15" y="581.58">Source: Gapminder; HYDE &amp; UN Population Division (2019)</tspan></text></g><text font-size="12.60" x="531.7" y="581.6"><tspan x="531.7180000000001" y="581.58"><a target='_blank' style='fill: #777;' href='https://ourworldindata.org/world-population-growth'>OurWorldInData.org/world-population-growth</a> • <a style="fill: #777;" class="cclogo" href="http://creativecommons.org/licenses/by/4.0/deed.en_US" target="_blank">CC BY</a></tspan></text></g></svg>